<?xml version="1.0" encoding="utf-8" standalone="no"?>
<!DOCTYPE svg PUBLIC "-//W3C//DTD SVG 1.1//EN"
  "http://www.w3.org/Graphics/SVG/1.1/DTD/svg11.dtd">
<svg xmlns:xlink="http://www.w3.org/1999/xlink" width="504pt" height="288pt" viewBox="0 0 504 288" xmlns="http://www.w3.org/2000/svg" version="1.1">
 <metadata>
  <rdf:RDF xmlns:dc="http://purl.org/dc/elements/1.1/" xmlns:cc="http://creativecommons.org/ns#" xmlns:rdf="http://www.w3.org/1999/02/22-rdf-syntax-ns#">
   <cc:Work>
    <dc:type rdf:resource="http://purl.org/dc/dcmitype/StillImage"/>
    <dc:date>2025-12-23T18:44:58.893083</dc:date>
    <dc:format>image/svg+xml</dc:format>
    <dc:creator>
     <cc:Agent>
      <dc:title>Matplotlib v3.8.4, https://matplotlib.org/</dc:title>
     </cc:Agent>
    </dc:creator>
   </cc:Work>
  </rdf:RDF>
 </metadata>
 <defs>
  <style type="text/css">*{stroke-linejoin: round; stroke-linecap: butt}</style>
 </defs>
 <g id="figure_1">
  <g id="patch_1">
   <path d="M 0 288 
L 504 288 
L 504 0 
L 0 0 
L 0 288 
z
" style="fill: none"/>
  </g>
  <g id="axes_1">
   <g id="patch_2">
    <path d="M 50.97125 245.93875 
L 266.44 245.93875 
L 266.44 24.72 
L 50.97125 24.72 
L 50.97125 245.93875 
z
" style="fill: none"/>
   </g>
   <g id="PathCollection_1">
    <path d="M 248.506121 106.56074 
C 249.30173 106.56074 250.064861 106.244641 250.627441 105.68206 
C 251.190022 105.119479 251.506121 104.356349 251.506121 103.56074 
C 251.506121 102.76513 251.190022 102.002 250.627441 101.439419 
C 250.064861 100.876838 249.30173 100.56074 248.506121 100.56074 
C 247.710512 100.56074 246.947381 100.876838 246.384801 101.439419 
C 245.82222 102.002 245.506121 102.76513 245.506121 103.56074 
C 245.506121 104.356349 245.82222 105.119479 246.384801 105.68206 
C 246.947381 106.244641 247.710512 106.56074 248.506121 106.56074 
z
" clip-path="url(#p7ea2eed920)" style="fill: #cc660b; fill-opacity: 0.5; stroke: #ffffff; stroke-opacity: 0.5; stroke-width: 0.48"/>
    <path d="M 116.483388 61.91673 
C 117.278997 61.91673 118.042128 61.600631 118.604708 61.03805 
C 119.167289 60.475469 119.483388 59.712339 119.483388 58.91673 
C 119.483388 58.12112 119.167289 57.35799 118.604708 56.795409 
C 118.042128 56.232829 117.278997 55.91673 116.483388 55.91673 
C 115.687779 55.91673 114.924648 56.232829 114.362068 56.795409 
C 113.799487 57.35799 113.483388 58.12112 113.483388 58.91673 
C 113.483388 59.712339 113.799487 60.475469 114.362068 61.03805 
C 114.924648 61.600631 115.687779 61.91673 116.483388 61.91673 
z
" clip-path="url(#p7ea2eed920)" style="fill: #cc660b; fill-opacity: 0.5; stroke: #ffffff; stroke-opacity: 0.5; stroke-width: 0.48"/>
    <path d="M 123.055694 135.444676 
C 123.851303 135.444676 124.614433 135.128577 125.177014 134.565996 
C 125.739595 134.003415 126.055694 133.240285 126.055694 132.444676 
C 126.055694 131.649066 125.739595 130.885936 125.177014 130.323355 
C 124.614433 129.760775 123.851303 129.444676 123.055694 129.444676 
C 122.260084 129.444676 121.496954 129.760775 120.934373 130.323355 
C 120.371793 130.885936 120.055694 131.649066 120.055694 132.444676 
C 120.055694 133.240285 120.371793 134.003415 120.934373 134.565996 
C 121.496954 135.128577 122.260084 135.444676 123.055694 135.444676 
z
" clip-path="url(#p7ea2eed920)" style="fill: #cc660b; fill-opacity: 0.5; stroke: #ffffff; stroke-opacity: 0.5; stroke-width: 0.48"/>
    <path d="M 244.886784 102.0841 
C 245.682394 102.0841 246.445524 101.768001 247.008105 101.20542 
C 247.570685 100.642839 247.886784 99.879709 247.886784 99.0841 
C 247.886784 98.28849 247.570685 97.52536 247.008105 96.962779 
C 246.445524 96.400199 245.682394 96.0841 244.886784 96.0841 
C 244.091175 96.0841 243.328045 96.400199 242.765464 96.962779 
C 242.202883 97.52536 241.886784 98.28849 241.886784 99.0841 
C 241.886784 99.879709 242.202883 100.642839 242.765464 101.20542 
C 243.328045 101.768001 244.091175 102.0841 244.886784 102.0841 
z
" clip-path="url(#p7ea2eed920)" style="fill: #cc660b; fill-opacity: 0.5; stroke: #ffffff; stroke-opacity: 0.5; stroke-width: 0.48"/>
    <path d="M 127.751529 83.059721 
C 128.547138 83.059721 129.310269 82.743622 129.87285 82.181042 
C 130.43543 81.618461 130.751529 80.855331 130.751529 80.059721 
C 130.751529 79.264112 130.43543 78.500982 129.87285 77.938401 
C 129.310269 77.37582 128.547138 77.059721 127.751529 77.059721 
C 126.95592 77.059721 126.19279 77.37582 125.630209 77.938401 
C 125.067628 78.500982 124.751529 79.264112 124.751529 80.059721 
C 124.751529 80.855331 125.067628 81.618461 125.630209 82.181042 
C 126.19279 82.743622 126.95592 83.059721 127.751529 83.059721 
z
" clip-path="url(#p7ea2eed920)" style="fill: #cc660b; fill-opacity: 0.5; stroke: #ffffff; stroke-opacity: 0.5; stroke-width: 0.48"/>
    <path d="M 124.500201 80.403296 
C 125.29581 80.403296 126.05894 80.087197 126.621521 79.524616 
C 127.184102 78.962035 127.500201 78.198905 127.500201 77.403296 
C 127.500201 76.607686 127.184102 75.844556 126.621521 75.281975 
C 126.05894 74.719394 125.29581 74.403296 124.500201 74.403296 
C 123.704591 74.403296 122.941461 74.719394 122.37888 75.281975 
C 121.8163 75.844556 121.500201 76.607686 121.500201 77.403296 
C 121.500201 78.198905 121.8163 78.962035 122.37888 79.524616 
C 122.941461 80.087197 123.704591 80.403296 124.500201 80.403296 
z
" clip-path="url(#p7ea2eed920)" style="fill: #cc660b; fill-opacity: 0.5; stroke: #ffffff; stroke-opacity: 0.5; stroke-width: 0.48"/>
    <path d="M 110.922698 61.766404 
C 111.718307 61.766404 112.481438 61.450305 113.044018 60.887724 
C 113.606599 60.325143 113.922698 59.562013 113.922698 58.766404 
C 113.922698 57.970794 113.606599 57.207664 113.044018 56.645083 
C 112.481438 56.082503 111.718307 55.766404 110.922698 55.766404 
C 110.127089 55.766404 109.363959 56.082503 108.801378 56.645083 
C 108.238797 57.207664 107.922698 57.970794 107.922698 58.766404 
C 107.922698 59.562013 108.238797 60.325143 108.801378 60.887724 
C 109.363959 61.450305 110.127089 61.766404 110.922698 61.766404 
z
" clip-path="url(#p7ea2eed920)" style="fill: #cc660b; fill-opacity: 0.5; stroke: #ffffff; stroke-opacity: 0.5; stroke-width: 0.48"/>
    <path d="M 72.915112 223.772871 
C 73.710721 223.772871 74.473851 223.456773 75.036432 222.894192 
C 75.599013 222.331611 75.915112 221.568481 75.915112 220.772871 
C 75.915112 219.977262 75.599013 219.214132 75.036432 218.651551 
C 74.473851 218.08897 73.710721 217.772871 72.915112 217.772871 
C 72.119503 217.772871 71.356372 218.08897 70.793792 218.651551 
C 70.231211 219.214132 69.915112 219.977262 69.915112 220.772871 
C 69.915112 221.568481 70.231211 222.331611 70.793792 222.894192 
C 71.356372 223.456773 72.119503 223.772871 72.915112 223.772871 
z
" clip-path="url(#p7ea2eed920)" style="fill: #cc660b; fill-opacity: 0.5; stroke: #ffffff; stroke-opacity: 0.5; stroke-width: 0.48"/>
    <path d="M 256.645966 69.074688 
C 257.441575 69.074688 258.204706 68.758589 258.767286 68.196008 
C 259.329867 67.633428 259.645966 66.870297 259.645966 66.074688 
C 259.645966 65.279079 259.329867 64.515949 258.767286 63.953368 
C 258.204706 63.390787 257.441575 63.074688 256.645966 63.074688 
C 255.850357 63.074688 255.087226 63.390787 254.524646 63.953368 
C 253.962065 64.515949 253.645966 65.279079 253.645966 66.074688 
C 253.645966 66.870297 253.962065 67.633428 254.524646 68.196008 
C 255.087226 68.758589 255.850357 69.074688 256.645966 69.074688 
z
" clip-path="url(#p7ea2eed920)" style="fill: #cc660b; fill-opacity: 0.5; stroke: #ffffff; stroke-opacity: 0.5; stroke-width: 0.48"/>
    <path d="M 125.771696 59.222084 
L 127.271696 57.722084 
L 128.771696 59.222084 
L 130.271696 57.722084 
L 128.771696 56.222084 
L 130.271696 54.722084 
L 128.771696 53.222084 
L 127.271696 54.722084 
L 125.771696 53.222084 
L 124.271696 54.722084 
L 125.771696 56.222084 
L 124.271696 57.722084 
z
" clip-path="url(#p7ea2eed920)" style="fill: #cc660b; fill-opacity: 0.5; stroke: #ffffff; stroke-opacity: 0.5; stroke-width: 0.48"/>
    <path d="M 140.532627 102.476267 
L 142.032627 100.976267 
L 143.532627 102.476267 
L 145.032627 100.976267 
L 143.532627 99.476267 
L 145.032627 97.976267 
L 143.532627 96.476267 
L 142.032627 97.976267 
L 140.532627 96.476267 
L 139.032627 97.976267 
L 140.532627 99.476267 
L 139.032627 100.976267 
z
" clip-path="url(#p7ea2eed920)" style="fill: #cc660b; fill-opacity: 0.5; stroke: #ffffff; stroke-opacity: 0.5; stroke-width: 0.48"/>
    <path d="M 146.869525 166.782463 
C 147.665134 166.782463 148.428264 166.466364 148.990845 165.903784 
C 149.553426 165.341203 149.869525 164.578073 149.869525 163.782463 
C 149.869525 162.986854 149.553426 162.223724 148.990845 161.661143 
C 148.428264 161.098562 147.665134 160.782463 146.869525 160.782463 
C 146.073915 160.782463 145.310785 161.098562 144.748204 161.661143 
C 144.185624 162.223724 143.869525 162.986854 143.869525 163.782463 
C 143.869525 164.578073 144.185624 165.341203 144.748204 165.903784 
C 145.310785 166.466364 146.073915 166.782463 146.869525 166.782463 
z
" clip-path="url(#p7ea2eed920)" style="fill: #cc660b; fill-opacity: 0.5; stroke: #ffffff; stroke-opacity: 0.5; stroke-width: 0.48"/>
    <path d="M 96.315131 204.803543 
C 97.11074 204.803543 97.873871 204.487444 98.436451 203.924863 
C 98.999032 203.362282 99.315131 202.599152 99.315131 201.803543 
C 99.315131 201.007934 98.999032 200.244803 98.436451 199.682223 
C 97.873871 199.119642 97.11074 198.803543 96.315131 198.803543 
C 95.519522 198.803543 94.756392 199.119642 94.193811 199.682223 
C 93.63123 200.244803 93.315131 201.007934 93.315131 201.803543 
C 93.315131 202.599152 93.63123 203.362282 94.193811 203.924863 
C 94.756392 204.487444 95.519522 204.803543 96.315131 204.803543 
z
" clip-path="url(#p7ea2eed920)" style="fill: #cc660b; fill-opacity: 0.5; stroke: #ffffff; stroke-opacity: 0.5; stroke-width: 0.48"/>
    <path d="M 78.94534 217.005984 
C 79.740949 217.005984 80.504079 216.689885 81.06666 216.127304 
C 81.629241 215.564724 81.94534 214.801593 81.94534 214.005984 
C 81.94534 213.210375 81.629241 212.447244 81.06666 211.884664 
C 80.504079 211.322083 79.740949 211.005984 78.94534 211.005984 
C 78.14973 211.005984 77.3866 211.322083 76.824019 211.884664 
C 76.261439 212.447244 75.94534 213.210375 75.94534 214.005984 
C 75.94534 214.801593 76.261439 215.564724 76.824019 216.127304 
C 77.3866 216.689885 78.14973 217.005984 78.94534 217.005984 
z
" clip-path="url(#p7ea2eed920)" style="fill: #cc660b; fill-opacity: 0.5; stroke: #ffffff; stroke-opacity: 0.5; stroke-width: 0.48"/>
    <path d="M 106.754726 141.89712 
C 107.550336 141.89712 108.313466 141.581021 108.876047 141.018441 
C 109.438627 140.45586 109.754726 139.69273 109.754726 138.89712 
C 109.754726 138.101511 109.438627 137.338381 108.876047 136.7758 
C 108.313466 136.213219 107.550336 135.89712 106.754726 135.89712 
C 105.959117 135.89712 105.195987 136.213219 104.633406 136.7758 
C 104.070825 137.338381 103.754726 138.101511 103.754726 138.89712 
C 103.754726 139.69273 104.070825 140.45586 104.633406 141.018441 
C 105.195987 141.581021 105.959117 141.89712 106.754726 141.89712 
z
" clip-path="url(#p7ea2eed920)" style="fill: #cc660b; fill-opacity: 0.5; stroke: #ffffff; stroke-opacity: 0.5; stroke-width: 0.48"/>
    <path d="M 125.348174 58.728843 
C 126.143783 58.728843 126.906914 58.412744 127.469494 57.850163 
C 128.032075 57.287583 128.348174 56.524452 128.348174 55.728843 
C 128.348174 54.933234 128.032075 54.170103 127.469494 53.607523 
C 126.906914 53.044942 126.143783 52.728843 125.348174 52.728843 
C 124.552565 52.728843 123.789435 53.044942 123.226854 53.607523 
C 122.664273 54.170103 122.348174 54.933234 122.348174 55.728843 
C 122.348174 56.524452 122.664273 57.287583 123.226854 57.850163 
C 123.789435 58.412744 124.552565 58.728843 125.348174 58.728843 
z
" clip-path="url(#p7ea2eed920)" style="fill: #cc660b; fill-opacity: 0.5; stroke: #ffffff; stroke-opacity: 0.5; stroke-width: 0.48"/>
    <path d="M 92.83908 181.834858 
C 93.63469 181.834858 94.39782 181.518759 94.960401 180.956179 
C 95.522981 180.393598 95.83908 179.630468 95.83908 178.834858 
C 95.83908 178.039249 95.522981 177.276119 94.960401 176.713538 
C 94.39782 176.150957 93.63469 175.834858 92.83908 175.834858 
C 92.043471 175.834858 91.280341 176.150957 90.71776 176.713538 
C 90.155179 177.276119 89.83908 178.039249 89.83908 178.834858 
C 89.83908 179.630468 90.155179 180.393598 90.71776 180.956179 
C 91.280341 181.518759 92.043471 181.834858 92.83908 181.834858 
z
" clip-path="url(#p7ea2eed920)" style="fill: #cc660b; fill-opacity: 0.5; stroke: #ffffff; stroke-opacity: 0.5; stroke-width: 0.48"/>
    <path d="M 97.718984 174.398771 
C 98.514593 174.398771 99.277723 174.082672 99.840304 173.520091 
C 100.402885 172.95751 100.718984 172.19438 100.718984 171.398771 
C 100.718984 170.603162 100.402885 169.840031 99.840304 169.277451 
C 99.277723 168.71487 98.514593 168.398771 97.718984 168.398771 
C 96.923374 168.398771 96.160244 168.71487 95.597663 169.277451 
C 95.035083 169.840031 94.718984 170.603162 94.718984 171.398771 
C 94.718984 172.19438 95.035083 172.95751 95.597663 173.520091 
C 96.160244 174.082672 96.923374 174.398771 97.718984 174.398771 
z
" clip-path="url(#p7ea2eed920)" style="fill: #cc660b; fill-opacity: 0.5; stroke: #ffffff; stroke-opacity: 0.5; stroke-width: 0.48"/>
    <path d="M 120.992267 138.325159 
C 121.787877 138.325159 122.551007 138.00906 123.113588 137.446479 
C 123.676168 136.883898 123.992267 136.120768 123.992267 135.325159 
C 123.992267 134.529549 123.676168 133.766419 123.113588 133.203838 
C 122.551007 132.641258 121.787877 132.325159 120.992267 132.325159 
C 120.196658 132.325159 119.433528 132.641258 118.870947 133.203838 
C 118.308366 133.766419 117.992267 134.529549 117.992267 135.325159 
C 117.992267 136.120768 118.308366 136.883898 118.870947 137.446479 
C 119.433528 138.00906 120.196658 138.325159 120.992267 138.325159 
z
" clip-path="url(#p7ea2eed920)" style="fill: #cc660b; fill-opacity: 0.5; stroke: #ffffff; stroke-opacity: 0.5; stroke-width: 0.48"/>
    <path d="M 88.214326 194.368358 
C 89.009936 194.368358 89.773066 194.05226 90.335647 193.489679 
C 90.898227 192.927098 91.214326 192.163968 91.214326 191.368358 
C 91.214326 190.572749 90.898227 189.809619 90.335647 189.247038 
C 89.773066 188.684457 89.009936 188.368358 88.214326 188.368358 
C 87.418717 188.368358 86.655587 188.684457 86.093006 189.247038 
C 85.530425 189.809619 85.214326 190.572749 85.214326 191.368358 
C 85.214326 192.163968 85.530425 192.927098 86.093006 193.489679 
C 86.655587 194.05226 87.418717 194.368358 88.214326 194.368358 
z
" clip-path="url(#p7ea2eed920)" style="fill: #cc660b; fill-opacity: 0.5; stroke: #ffffff; stroke-opacity: 0.5; stroke-width: 0.48"/>
    <path d="M 190.314027 107.585986 
C 191.109636 107.585986 191.872767 107.269887 192.435348 106.707307 
C 192.997928 106.144726 193.314027 105.381596 193.314027 104.585986 
C 193.314027 103.790377 192.997928 103.027247 192.435348 102.464666 
C 191.872767 101.902085 191.109636 101.585986 190.314027 101.585986 
C 189.518418 101.585986 188.755288 101.902085 188.192707 102.464666 
C 187.630126 103.027247 187.314027 103.790377 187.314027 104.585986 
C 187.314027 105.381596 187.630126 106.144726 188.192707 106.707307 
C 188.755288 107.269887 189.518418 107.585986 190.314027 107.585986 
z
" clip-path="url(#p7ea2eed920)" style="fill: #cc660b; fill-opacity: 0.5; stroke: #ffffff; stroke-opacity: 0.5; stroke-width: 0.48"/>
    <path d="M 102.195499 174.065278 
C 102.991108 174.065278 103.754238 173.749179 104.316819 173.186598 
C 104.8794 172.624017 105.195499 171.860887 105.195499 171.065278 
C 105.195499 170.269668 104.8794 169.506538 104.316819 168.943957 
C 103.754238 168.381377 102.991108 168.065278 102.195499 168.065278 
C 101.399889 168.065278 100.636759 168.381377 100.074178 168.943957 
C 99.511598 169.506538 99.195499 170.269668 99.195499 171.065278 
C 99.195499 171.860887 99.511598 172.624017 100.074178 173.186598 
C 100.636759 173.749179 101.399889 174.065278 102.195499 174.065278 
z
" clip-path="url(#p7ea2eed920)" style="fill: #cc660b; fill-opacity: 0.5; stroke: #ffffff; stroke-opacity: 0.5; stroke-width: 0.48"/>
    <path d="M 162.361435 48.681273 
C 163.157044 48.681273 163.920174 48.365174 164.482755 47.802593 
C 165.045336 47.240013 165.361435 46.476882 165.361435 45.681273 
C 165.361435 44.885664 165.045336 44.122533 164.482755 43.559953 
C 163.920174 42.997372 163.157044 42.681273 162.361435 42.681273 
C 161.565825 42.681273 160.802695 42.997372 160.240114 43.559953 
C 159.677534 44.122533 159.361435 44.885664 159.361435 45.681273 
C 159.361435 46.476882 159.677534 47.240013 160.240114 47.802593 
C 160.802695 48.365174 161.565825 48.681273 162.361435 48.681273 
z
" clip-path="url(#p7ea2eed920)" style="fill: #cc660b; fill-opacity: 0.5; stroke: #ffffff; stroke-opacity: 0.5; stroke-width: 0.48"/>
    <path d="M 116.535925 113.535178 
C 117.331535 113.535178 118.094665 113.219079 118.657246 112.656498 
C 119.219827 112.093917 119.535925 111.330787 119.535925 110.535178 
C 119.535925 109.739568 119.219827 108.976438 118.657246 108.413857 
C 118.094665 107.851277 117.331535 107.535178 116.535925 107.535178 
C 115.740316 107.535178 114.977186 107.851277 114.414605 108.413857 
C 113.852024 108.976438 113.535925 109.739568 113.535925 110.535178 
C 113.535925 111.330787 113.852024 112.093917 114.414605 112.656498 
C 114.977186 113.219079 115.740316 113.535178 116.535925 113.535178 
z
" clip-path="url(#p7ea2eed920)" style="fill: #cc660b; fill-opacity: 0.5; stroke: #ffffff; stroke-opacity: 0.5; stroke-width: 0.48"/>
    <path d="M 113.610214 132.705227 
C 114.405823 132.705227 115.168953 132.389128 115.731534 131.826547 
C 116.294115 131.263966 116.610214 130.500836 116.610214 129.705227 
C 116.610214 128.909617 116.294115 128.146487 115.731534 127.583906 
C 115.168953 127.021325 114.405823 126.705227 113.610214 126.705227 
C 112.814604 126.705227 112.051474 127.021325 111.488893 127.583906 
C 110.926313 128.146487 110.610214 128.909617 110.610214 129.705227 
C 110.610214 130.500836 110.926313 131.263966 111.488893 131.826547 
C 112.051474 132.389128 112.814604 132.705227 113.610214 132.705227 
z
" clip-path="url(#p7ea2eed920)" style="fill: #cc660b; fill-opacity: 0.5; stroke: #ffffff; stroke-opacity: 0.5; stroke-width: 0.48"/>
    <path d="M 87.399642 201.57913 
C 88.195251 201.57913 88.958381 201.263031 89.520962 200.70045 
C 90.083543 200.137869 90.399642 199.374739 90.399642 198.57913 
C 90.399642 197.78352 90.083543 197.02039 89.520962 196.457809 
C 88.958381 195.895229 88.195251 195.57913 87.399642 195.57913 
C 86.604033 195.57913 85.840902 195.895229 85.278321 196.457809 
C 84.715741 197.02039 84.399642 197.78352 84.399642 198.57913 
C 84.399642 199.374739 84.715741 200.137869 85.278321 200.70045 
C 85.840902 201.263031 86.604033 201.57913 87.399642 201.57913 
z
" clip-path="url(#p7ea2eed920)" style="fill: #cc660b; fill-opacity: 0.5; stroke: #ffffff; stroke-opacity: 0.5; stroke-width: 0.48"/>
    <path d="M 98.322533 48.866827 
C 99.118142 48.866827 99.881273 48.550728 100.443853 47.988148 
C 101.006434 47.425567 101.322533 46.662437 101.322533 45.866827 
C 101.322533 45.071218 101.006434 44.308088 100.443853 43.745507 
C 99.881273 43.182926 99.118142 42.866827 98.322533 42.866827 
C 97.526924 42.866827 96.763793 43.182926 96.201213 43.745507 
C 95.638632 44.308088 95.322533 45.071218 95.322533 45.866827 
C 95.322533 46.662437 95.638632 47.425567 96.201213 47.988148 
C 96.763793 48.550728 97.526924 48.866827 98.322533 48.866827 
z
" clip-path="url(#p7ea2eed920)" style="fill: #cc660b; fill-opacity: 0.5; stroke: #ffffff; stroke-opacity: 0.5; stroke-width: 0.48"/>
    <path d="M 119.247656 169.546655 
C 120.043265 169.546655 120.806395 169.230556 121.368976 168.667975 
C 121.931557 168.105395 122.247656 167.342264 122.247656 166.546655 
C 122.247656 165.751046 121.931557 164.987915 121.368976 164.425335 
C 120.806395 163.862754 120.043265 163.546655 119.247656 163.546655 
C 118.452046 163.546655 117.688916 163.862754 117.126335 164.425335 
C 116.563755 164.987915 116.247656 165.751046 116.247656 166.546655 
C 116.247656 167.342264 116.563755 168.105395 117.126335 168.667975 
C 117.688916 169.230556 118.452046 169.546655 119.247656 169.546655 
z
" clip-path="url(#p7ea2eed920)" style="fill: #cc660b; fill-opacity: 0.5; stroke: #ffffff; stroke-opacity: 0.5; stroke-width: 0.48"/>
    <path d="M 125.419174 140.242824 
C 126.214784 140.242824 126.977914 139.926725 127.540495 139.364144 
C 128.103075 138.801564 128.419174 138.038433 128.419174 137.242824 
C 128.419174 136.447215 128.103075 135.684085 127.540495 135.121504 
C 126.977914 134.558923 126.214784 134.242824 125.419174 134.242824 
C 124.623565 134.242824 123.860435 134.558923 123.297854 135.121504 
C 122.735273 135.684085 122.419174 136.447215 122.419174 137.242824 
C 122.419174 138.038433 122.735273 138.801564 123.297854 139.364144 
C 123.860435 139.926725 124.623565 140.242824 125.419174 140.242824 
z
" clip-path="url(#p7ea2eed920)" style="fill: #cc660b; fill-opacity: 0.5; stroke: #ffffff; stroke-opacity: 0.5; stroke-width: 0.48"/>
    <path d="M 168.604461 91.121036 
L 170.104461 89.621036 
L 171.604461 91.121036 
L 173.104461 89.621036 
L 171.604461 88.121036 
L 173.104461 86.621036 
L 171.604461 85.121036 
L 170.104461 86.621036 
L 168.604461 85.121036 
L 167.104461 86.621036 
L 168.604461 88.121036 
L 167.104461 89.621036 
z
" clip-path="url(#p7ea2eed920)" style="fill: #cc660b; fill-opacity: 0.5; stroke: #ffffff; stroke-opacity: 0.5; stroke-width: 0.48"/>
    <path d="M 105.998474 53.455882 
L 107.498474 51.955882 
L 108.998474 53.455882 
L 110.498474 51.955882 
L 108.998474 50.455882 
L 110.498474 48.955882 
L 108.998474 47.455882 
L 107.498474 48.955882 
L 105.998474 47.455882 
L 104.498474 48.955882 
L 105.998474 50.455882 
L 104.498474 51.955882 
z
" clip-path="url(#p7ea2eed920)" style="fill: #cc660b; fill-opacity: 0.5; stroke: #ffffff; stroke-opacity: 0.5; stroke-width: 0.48"/>
    <path d="M 123.630152 114.139932 
C 124.425761 114.139932 125.188891 113.823833 125.751472 113.261252 
C 126.314053 112.698671 126.630152 111.935541 126.630152 111.139932 
C 126.630152 110.344322 126.314053 109.581192 125.751472 109.018611 
C 125.188891 108.456031 124.425761 108.139932 123.630152 108.139932 
C 122.834542 108.139932 122.071412 108.456031 121.508831 109.018611 
C 120.94625 109.581192 120.630152 110.344322 120.630152 111.139932 
C 120.630152 111.935541 120.94625 112.698671 121.508831 113.261252 
C 122.071412 113.823833 122.834542 114.139932 123.630152 114.139932 
z
" clip-path="url(#p7ea2eed920)" style="fill: #cc660b; fill-opacity: 0.5; stroke: #ffffff; stroke-opacity: 0.5; stroke-width: 0.48"/>
    <path d="M 120.9393 57.963523 
C 121.73491 57.963523 122.49804 57.647424 123.060621 57.084843 
C 123.623201 56.522262 123.9393 55.759132 123.9393 54.963523 
C 123.9393 54.167913 123.623201 53.404783 123.060621 52.842202 
C 122.49804 52.279622 121.73491 51.963523 120.9393 51.963523 
C 120.143691 51.963523 119.380561 52.279622 118.81798 52.842202 
C 118.255399 53.404783 117.9393 54.167913 117.9393 54.963523 
C 117.9393 55.759132 118.255399 56.522262 118.81798 57.084843 
C 119.380561 57.647424 120.143691 57.963523 120.9393 57.963523 
z
" clip-path="url(#p7ea2eed920)" style="fill: #cc660b; fill-opacity: 0.5; stroke: #ffffff; stroke-opacity: 0.5; stroke-width: 0.48"/>
    <path d="M 247.852224 76.917631 
L 249.352224 75.417631 
L 250.852224 76.917631 
L 252.352224 75.417631 
L 250.852224 73.917631 
L 252.352224 72.417631 
L 250.852224 70.917631 
L 249.352224 72.417631 
L 247.852224 70.917631 
L 246.352224 72.417631 
L 247.852224 73.917631 
L 246.352224 75.417631 
z
" clip-path="url(#p7ea2eed920)" style="fill: #cc660b; fill-opacity: 0.5; stroke: #ffffff; stroke-opacity: 0.5; stroke-width: 0.48"/>
    <path d="M 128.025505 54.515459 
C 128.821114 54.515459 129.584245 54.19936 130.146825 53.636779 
C 130.709406 53.074198 131.025505 52.311068 131.025505 51.515459 
C 131.025505 50.719849 130.709406 49.956719 130.146825 49.394138 
C 129.584245 48.831558 128.821114 48.515459 128.025505 48.515459 
C 127.229896 48.515459 126.466765 48.831558 125.904185 49.394138 
C 125.341604 49.956719 125.025505 50.719849 125.025505 51.515459 
C 125.025505 52.311068 125.341604 53.074198 125.904185 53.636779 
C 126.466765 54.19936 127.229896 54.515459 128.025505 54.515459 
z
" clip-path="url(#p7ea2eed920)" style="fill: #cc660b; fill-opacity: 0.5; stroke: #ffffff; stroke-opacity: 0.5; stroke-width: 0.48"/>
    <path d="M 118.90677 74.160014 
L 120.40677 72.660014 
L 121.90677 74.160014 
L 123.40677 72.660014 
L 121.90677 71.160014 
L 123.40677 69.660014 
L 121.90677 68.160014 
L 120.40677 69.660014 
L 118.90677 68.160014 
L 117.40677 69.660014 
L 118.90677 71.160014 
L 117.40677 72.660014 
z
" clip-path="url(#p7ea2eed920)" style="fill: #cc660b; fill-opacity: 0.5; stroke: #ffffff; stroke-opacity: 0.5; stroke-width: 0.48"/>
    <path d="M 119.616968 128.305432 
L 121.116968 126.805432 
L 122.616968 128.305432 
L 124.116968 126.805432 
L 122.616968 125.305432 
L 124.116968 123.805432 
L 122.616968 122.305432 
L 121.116968 123.805432 
L 119.616968 122.305432 
L 118.116968 123.805432 
L 119.616968 125.305432 
L 118.116968 126.805432 
z
" clip-path="url(#p7ea2eed920)" style="fill: #cc660b; fill-opacity: 0.5; stroke: #ffffff; stroke-opacity: 0.5; stroke-width: 0.48"/>
    <path d="M 138.716409 93.464706 
C 139.512019 93.464706 140.275149 93.148607 140.83773 92.586027 
C 141.40031 92.023446 141.716409 91.260316 141.716409 90.464706 
C 141.716409 89.669097 141.40031 88.905967 140.83773 88.343386 
C 140.275149 87.780805 139.512019 87.464706 138.716409 87.464706 
C 137.9208 87.464706 137.15767 87.780805 136.595089 88.343386 
C 136.032508 88.905967 135.716409 89.669097 135.716409 90.464706 
C 135.716409 91.260316 136.032508 92.023446 136.595089 92.586027 
C 137.15767 93.148607 137.9208 93.464706 138.716409 93.464706 
z
" clip-path="url(#p7ea2eed920)" style="fill: #cc660b; fill-opacity: 0.5; stroke: #ffffff; stroke-opacity: 0.5; stroke-width: 0.48"/>
    <path d="M 170.439298 81.663146 
C 171.234908 81.663146 171.998038 81.347047 172.560619 80.784466 
C 173.123199 80.221885 173.439298 79.458755 173.439298 78.663146 
C 173.439298 77.867536 173.123199 77.104406 172.560619 76.541825 
C 171.998038 75.979245 171.234908 75.663146 170.439298 75.663146 
C 169.643689 75.663146 168.880559 75.979245 168.317978 76.541825 
C 167.755397 77.104406 167.439298 77.867536 167.439298 78.663146 
C 167.439298 79.458755 167.755397 80.221885 168.317978 80.784466 
C 168.880559 81.347047 169.643689 81.663146 170.439298 81.663146 
z
" clip-path="url(#p7ea2eed920)" style="fill: #cc660b; fill-opacity: 0.5; stroke: #ffffff; stroke-opacity: 0.5; stroke-width: 0.48"/>
    <path d="M 130.176461 129.547494 
C 130.97207 129.547494 131.735201 129.231395 132.297781 128.668814 
C 132.860362 128.106233 133.176461 127.343103 133.176461 126.547494 
C 133.176461 125.751884 132.860362 124.988754 132.297781 124.426173 
C 131.735201 123.863592 130.97207 123.547494 130.176461 123.547494 
C 129.380852 123.547494 128.617722 123.863592 128.055141 124.426173 
C 127.49256 124.988754 127.176461 125.751884 127.176461 126.547494 
C 127.176461 127.343103 127.49256 128.106233 128.055141 128.668814 
C 128.617722 129.231395 129.380852 129.547494 130.176461 129.547494 
z
" clip-path="url(#p7ea2eed920)" style="fill: #cc660b; fill-opacity: 0.5; stroke: #ffffff; stroke-opacity: 0.5; stroke-width: 0.48"/>
    <path d="M 67.480252 230.023284 
C 68.275861 230.023284 69.038991 229.707185 69.601572 229.144605 
C 70.164153 228.582024 70.480252 227.818894 70.480252 227.023284 
C 70.480252 226.227675 70.164153 225.464545 69.601572 224.901964 
C 69.038991 224.339383 68.275861 224.023284 67.480252 224.023284 
C 66.684642 224.023284 65.921512 224.339383 65.358931 224.901964 
C 64.79635 225.464545 64.480252 226.227675 64.480252 227.023284 
C 64.480252 227.818894 64.79635 228.582024 65.358931 229.144605 
C 65.921512 229.707185 66.684642 230.023284 67.480252 230.023284 
z
" clip-path="url(#p7ea2eed920)" style="fill: #cc660b; fill-opacity: 0.5; stroke: #ffffff; stroke-opacity: 0.5; stroke-width: 0.48"/>
    <path d="M 120.305608 125.723209 
L 121.805608 124.223209 
L 123.305608 125.723209 
L 124.805608 124.223209 
L 123.305608 122.723209 
L 124.805608 121.223209 
L 123.305608 119.723209 
L 121.805608 121.223209 
L 120.305608 119.723209 
L 118.805608 121.223209 
L 120.305608 122.723209 
L 118.805608 124.223209 
z
" clip-path="url(#p7ea2eed920)" style="fill: #cc660b; fill-opacity: 0.5; stroke: #ffffff; stroke-opacity: 0.5; stroke-width: 0.48"/>
    <path d="M 116.942634 114.249989 
L 118.442634 112.749989 
L 119.942634 114.249989 
L 121.442634 112.749989 
L 119.942634 111.249989 
L 121.442634 109.749989 
L 119.942634 108.249989 
L 118.442634 109.749989 
L 116.942634 108.249989 
L 115.442634 109.749989 
L 116.942634 111.249989 
L 115.442634 112.749989 
z
" clip-path="url(#p7ea2eed920)" style="fill: #cc660b; fill-opacity: 0.5; stroke: #ffffff; stroke-opacity: 0.5; stroke-width: 0.48"/>
    <path d="M 134.991119 69.14083 
C 135.786728 69.14083 136.549859 68.824731 137.112439 68.26215 
C 137.67502 67.699569 137.991119 66.936439 137.991119 66.14083 
C 137.991119 65.34522 137.67502 64.58209 137.112439 64.019509 
C 136.549859 63.456928 135.786728 63.14083 134.991119 63.14083 
C 134.19551 63.14083 133.432379 63.456928 132.869799 64.019509 
C 132.307218 64.58209 131.991119 65.34522 131.991119 66.14083 
C 131.991119 66.936439 132.307218 67.699569 132.869799 68.26215 
C 133.432379 68.824731 134.19551 69.14083 134.991119 69.14083 
z
" clip-path="url(#p7ea2eed920)" style="fill: #cc660b; fill-opacity: 0.5; stroke: #ffffff; stroke-opacity: 0.5; stroke-width: 0.48"/>
    <path d="M 115.498391 105.759888 
C 116.294 105.759888 117.05713 105.443789 117.619711 104.881208 
C 118.182292 104.318627 118.498391 103.555497 118.498391 102.759888 
C 118.498391 101.964278 118.182292 101.201148 117.619711 100.638567 
C 117.05713 100.075986 116.294 99.759888 115.498391 99.759888 
C 114.702781 99.759888 113.939651 100.075986 113.37707 100.638567 
C 112.81449 101.201148 112.498391 101.964278 112.498391 102.759888 
C 112.498391 103.555497 112.81449 104.318627 113.37707 104.881208 
C 113.939651 105.443789 114.702781 105.759888 115.498391 105.759888 
z
" clip-path="url(#p7ea2eed920)" style="fill: #cc660b; fill-opacity: 0.5; stroke: #ffffff; stroke-opacity: 0.5; stroke-width: 0.48"/>
    <path d="M 149.637243 69.640962 
C 150.432853 69.640962 151.195983 69.324864 151.758564 68.762283 
C 152.321144 68.199702 152.637243 67.436572 152.637243 66.640962 
C 152.637243 65.845353 152.321144 65.082223 151.758564 64.519642 
C 151.195983 63.957061 150.432853 63.640962 149.637243 63.640962 
C 148.841634 63.640962 148.078504 63.957061 147.515923 64.519642 
C 146.953342 65.082223 146.637243 65.845353 146.637243 66.640962 
C 146.637243 67.436572 146.953342 68.199702 147.515923 68.762283 
C 148.078504 69.324864 148.841634 69.640962 149.637243 69.640962 
z
" clip-path="url(#p7ea2eed920)" style="fill: #cc660b; fill-opacity: 0.5; stroke: #ffffff; stroke-opacity: 0.5; stroke-width: 0.48"/>
    <path d="M 126.5524 77.528548 
C 127.348009 77.528548 128.11114 77.212449 128.67372 76.649868 
C 129.236301 76.087287 129.5524 75.324157 129.5524 74.528548 
C 129.5524 73.732938 129.236301 72.969808 128.67372 72.407227 
C 128.11114 71.844647 127.348009 71.528548 126.5524 71.528548 
C 125.756791 71.528548 124.99366 71.844647 124.43108 72.407227 
C 123.868499 72.969808 123.5524 73.732938 123.5524 74.528548 
C 123.5524 75.324157 123.868499 76.087287 124.43108 76.649868 
C 124.99366 77.212449 125.756791 77.528548 126.5524 77.528548 
z
" clip-path="url(#p7ea2eed920)" style="fill: #cc660b; fill-opacity: 0.5; stroke: #ffffff; stroke-opacity: 0.5; stroke-width: 0.48"/>
    <path d="M 106.921546 177.593567 
C 107.717156 177.593567 108.480286 177.277468 109.042867 176.714887 
C 109.605447 176.152307 109.921546 175.389176 109.921546 174.593567 
C 109.921546 173.797958 109.605447 173.034827 109.042867 172.472247 
C 108.480286 171.909666 107.717156 171.593567 106.921546 171.593567 
C 106.125937 171.593567 105.362807 171.909666 104.800226 172.472247 
C 104.237645 173.034827 103.921546 173.797958 103.921546 174.593567 
C 103.921546 175.389176 104.237645 176.152307 104.800226 176.714887 
C 105.362807 177.277468 106.125937 177.593567 106.921546 177.593567 
z
" clip-path="url(#p7ea2eed920)" style="fill: #cc660b; fill-opacity: 0.5; stroke: #ffffff; stroke-opacity: 0.5; stroke-width: 0.48"/>
    <path d="M 120.555794 115.057705 
L 122.055794 113.557705 
L 123.555794 115.057705 
L 125.055794 113.557705 
L 123.555794 112.057705 
L 125.055794 110.557705 
L 123.555794 109.057705 
L 122.055794 110.557705 
L 120.555794 109.057705 
L 119.055794 110.557705 
L 120.555794 112.057705 
L 119.055794 113.557705 
z
" clip-path="url(#p7ea2eed920)" style="fill: #cc660b; fill-opacity: 0.5; stroke: #ffffff; stroke-opacity: 0.5; stroke-width: 0.48"/>
    <path d="M 249.652926 91.235259 
C 250.448536 91.235259 251.211666 90.91916 251.774247 90.356579 
C 252.336828 89.793998 252.652926 89.030868 252.652926 88.235259 
C 252.652926 87.43965 252.336828 86.676519 251.774247 86.113939 
C 251.211666 85.551358 250.448536 85.235259 249.652926 85.235259 
C 248.857317 85.235259 248.094187 85.551358 247.531606 86.113939 
C 246.969025 86.676519 246.652926 87.43965 246.652926 88.235259 
C 246.652926 89.030868 246.969025 89.793998 247.531606 90.356579 
C 248.094187 90.91916 248.857317 91.235259 249.652926 91.235259 
z
" clip-path="url(#p7ea2eed920)" style="fill: #cc660b; fill-opacity: 0.5; stroke: #ffffff; stroke-opacity: 0.5; stroke-width: 0.48"/>
    <path d="M 179.716581 95.840843 
C 180.512191 95.840843 181.275321 95.524744 181.837902 94.962164 
C 182.400482 94.399583 182.716581 93.636453 182.716581 92.840843 
C 182.716581 92.045234 182.400482 91.282104 181.837902 90.719523 
C 181.275321 90.156942 180.512191 89.840843 179.716581 89.840843 
C 178.920972 89.840843 178.157842 90.156942 177.595261 90.719523 
C 177.03268 91.282104 176.716581 92.045234 176.716581 92.840843 
C 176.716581 93.636453 177.03268 94.399583 177.595261 94.962164 
C 178.157842 95.524744 178.920972 95.840843 179.716581 95.840843 
z
" clip-path="url(#p7ea2eed920)" style="fill: #cc660b; fill-opacity: 0.5; stroke: #ffffff; stroke-opacity: 0.5; stroke-width: 0.48"/>
    <path d="M 246.05104 80.872318 
L 247.55104 79.372318 
L 249.05104 80.872318 
L 250.55104 79.372318 
L 249.05104 77.872318 
L 250.55104 76.372318 
L 249.05104 74.872318 
L 247.55104 76.372318 
L 246.05104 74.872318 
L 244.55104 76.372318 
L 246.05104 77.872318 
L 244.55104 79.372318 
z
" clip-path="url(#p7ea2eed920)" style="fill: #cc660b; fill-opacity: 0.5; stroke: #ffffff; stroke-opacity: 0.5; stroke-width: 0.48"/>
    <path d="M 119.084201 51.827743 
L 120.584201 50.327743 
L 122.084201 51.827743 
L 123.584201 50.327743 
L 122.084201 48.827743 
L 123.584201 47.327743 
L 122.084201 45.827743 
L 120.584201 47.327743 
L 119.084201 45.827743 
L 117.584201 47.327743 
L 119.084201 48.827743 
L 117.584201 50.327743 
z
" clip-path="url(#p7ea2eed920)" style="fill: #cc660b; fill-opacity: 0.5; stroke: #ffffff; stroke-opacity: 0.5; stroke-width: 0.48"/>
    <path d="M 100.834559 60.833055 
C 101.630168 60.833055 102.393298 60.516956 102.955879 59.954376 
C 103.51846 59.391795 103.834559 58.628665 103.834559 57.833055 
C 103.834559 57.037446 103.51846 56.274316 102.955879 55.711735 
C 102.393298 55.149154 101.630168 54.833055 100.834559 54.833055 
C 100.038949 54.833055 99.275819 55.149154 98.713238 55.711735 
C 98.150658 56.274316 97.834559 57.037446 97.834559 57.833055 
C 97.834559 58.628665 98.150658 59.391795 98.713238 59.954376 
C 99.275819 60.516956 100.038949 60.833055 100.834559 60.833055 
z
" clip-path="url(#p7ea2eed920)" style="fill: #cc660b; fill-opacity: 0.5; stroke: #ffffff; stroke-opacity: 0.5; stroke-width: 0.48"/>
    <path d="M 104.918392 145.676785 
C 105.714001 145.676785 106.477132 145.360687 107.039712 144.798106 
C 107.602293 144.235525 107.918392 143.472395 107.918392 142.676785 
C 107.918392 141.881176 107.602293 141.118046 107.039712 140.555465 
C 106.477132 139.992884 105.714001 139.676785 104.918392 139.676785 
C 104.122783 139.676785 103.359652 139.992884 102.797072 140.555465 
C 102.234491 141.118046 101.918392 141.881176 101.918392 142.676785 
C 101.918392 143.472395 102.234491 144.235525 102.797072 144.798106 
C 103.359652 145.360687 104.122783 145.676785 104.918392 145.676785 
z
" clip-path="url(#p7ea2eed920)" style="fill: #cc660b; fill-opacity: 0.5; stroke: #ffffff; stroke-opacity: 0.5; stroke-width: 0.48"/>
    <path d="M 120.60703 130.274823 
L 122.10703 128.774823 
L 123.60703 130.274823 
L 125.10703 128.774823 
L 123.60703 127.274823 
L 125.10703 125.774823 
L 123.60703 124.274823 
L 122.10703 125.774823 
L 120.60703 124.274823 
L 119.10703 125.774823 
L 120.60703 127.274823 
L 119.10703 128.774823 
z
" clip-path="url(#p7ea2eed920)" style="fill: #cc660b; fill-opacity: 0.5; stroke: #ffffff; stroke-opacity: 0.5; stroke-width: 0.48"/>
    <path d="M 137.288845 115.792877 
C 138.084454 115.792877 138.847585 115.476779 139.410165 114.914198 
C 139.972746 114.351617 140.288845 113.588487 140.288845 112.792877 
C 140.288845 111.997268 139.972746 111.234138 139.410165 110.671557 
C 138.847585 110.108976 138.084454 109.792877 137.288845 109.792877 
C 136.493236 109.792877 135.730105 110.108976 135.167525 110.671557 
C 134.604944 111.234138 134.288845 111.997268 134.288845 112.792877 
C 134.288845 113.588487 134.604944 114.351617 135.167525 114.914198 
C 135.730105 115.476779 136.493236 115.792877 137.288845 115.792877 
z
" clip-path="url(#p7ea2eed920)" style="fill: #cc660b; fill-opacity: 0.5; stroke: #ffffff; stroke-opacity: 0.5; stroke-width: 0.48"/>
    <path d="M 118.523442 69.65418 
C 119.319051 69.65418 120.082181 69.338081 120.644762 68.775501 
C 121.207343 68.21292 121.523442 67.44979 121.523442 66.65418 
C 121.523442 65.858571 121.207343 65.095441 120.644762 64.53286 
C 120.082181 63.970279 119.319051 63.65418 118.523442 63.65418 
C 117.727832 63.65418 116.964702 63.970279 116.402121 64.53286 
C 115.839541 65.095441 115.523442 65.858571 115.523442 66.65418 
C 115.523442 67.44979 115.839541 68.21292 116.402121 68.775501 
C 116.964702 69.338081 117.727832 69.65418 118.523442 69.65418 
z
" clip-path="url(#p7ea2eed920)" style="fill: #cc660b; fill-opacity: 0.5; stroke: #ffffff; stroke-opacity: 0.5; stroke-width: 0.48"/>
    <path d="M 135.434879 50.093035 
C 136.230488 50.093035 136.993618 49.776936 137.556199 49.214355 
C 138.11878 48.651774 138.434879 47.888644 138.434879 47.093035 
C 138.434879 46.297425 138.11878 45.534295 137.556199 44.971714 
C 136.993618 44.409133 136.230488 44.093035 135.434879 44.093035 
C 134.639269 44.093035 133.876139 44.409133 133.313558 44.971714 
C 132.750978 45.534295 132.434879 46.297425 132.434879 47.093035 
C 132.434879 47.888644 132.750978 48.651774 133.313558 49.214355 
C 133.876139 49.776936 134.639269 50.093035 135.434879 50.093035 
z
" clip-path="url(#p7ea2eed920)" style="fill: #cc660b; fill-opacity: 0.5; stroke: #ffffff; stroke-opacity: 0.5; stroke-width: 0.48"/>
    <path d="M 123.43229 155.123117 
C 124.227899 155.123117 124.99103 154.807018 125.55361 154.244437 
C 126.116191 153.681856 126.43229 152.918726 126.43229 152.123117 
C 126.43229 151.327508 126.116191 150.564377 125.55361 150.001797 
C 124.99103 149.439216 124.227899 149.123117 123.43229 149.123117 
C 122.636681 149.123117 121.87355 149.439216 121.31097 150.001797 
C 120.748389 150.564377 120.43229 151.327508 120.43229 152.123117 
C 120.43229 152.918726 120.748389 153.681856 121.31097 154.244437 
C 121.87355 154.807018 122.636681 155.123117 123.43229 155.123117 
z
" clip-path="url(#p7ea2eed920)" style="fill: #cc660b; fill-opacity: 0.5; stroke: #ffffff; stroke-opacity: 0.5; stroke-width: 0.48"/>
    <path d="M 159.528411 84.277861 
C 160.32402 84.277861 161.08715 83.961762 161.649731 83.399181 
C 162.212312 82.836601 162.528411 82.07347 162.528411 81.277861 
C 162.528411 80.482252 162.212312 79.719121 161.649731 79.156541 
C 161.08715 78.59396 160.32402 78.277861 159.528411 78.277861 
C 158.732802 78.277861 157.969671 78.59396 157.40709 79.156541 
C 156.84451 79.719121 156.528411 80.482252 156.528411 81.277861 
C 156.528411 82.07347 156.84451 82.836601 157.40709 83.399181 
C 157.969671 83.961762 158.732802 84.277861 159.528411 84.277861 
z
" clip-path="url(#p7ea2eed920)" style="fill: #cc660b; fill-opacity: 0.5; stroke: #ffffff; stroke-opacity: 0.5; stroke-width: 0.48"/>
    <path d="M 142.533759 138.288538 
C 143.329368 138.288538 144.092499 137.972439 144.655079 137.409858 
C 145.21766 136.847278 145.533759 136.084147 145.533759 135.288538 
C 145.533759 134.492929 145.21766 133.729798 144.655079 133.167218 
C 144.092499 132.604637 143.329368 132.288538 142.533759 132.288538 
C 141.73815 132.288538 140.975019 132.604637 140.412439 133.167218 
C 139.849858 133.729798 139.533759 134.492929 139.533759 135.288538 
C 139.533759 136.084147 139.849858 136.847278 140.412439 137.409858 
C 140.975019 137.972439 141.73815 138.288538 142.533759 138.288538 
z
" clip-path="url(#p7ea2eed920)" style="fill: #cc660b; fill-opacity: 0.5; stroke: #ffffff; stroke-opacity: 0.5; stroke-width: 0.48"/>
    <path d="M 127.166931 59.752631 
C 127.96254 59.752631 128.72567 59.436532 129.288251 58.873951 
C 129.850832 58.31137 130.166931 57.54824 130.166931 56.752631 
C 130.166931 55.957021 129.850832 55.193891 129.288251 54.63131 
C 128.72567 54.06873 127.96254 53.752631 127.166931 53.752631 
C 126.371321 53.752631 125.608191 54.06873 125.04561 54.63131 
C 124.48303 55.193891 124.166931 55.957021 124.166931 56.752631 
C 124.166931 57.54824 124.48303 58.31137 125.04561 58.873951 
C 125.608191 59.436532 126.371321 59.752631 127.166931 59.752631 
z
" clip-path="url(#p7ea2eed920)" style="fill: #cc660b; fill-opacity: 0.5; stroke: #ffffff; stroke-opacity: 0.5; stroke-width: 0.48"/>
    <path d="M 135.1479 93.542574 
L 136.6479 92.042574 
L 138.1479 93.542574 
L 139.6479 92.042574 
L 138.1479 90.542574 
L 139.6479 89.042574 
L 138.1479 87.542574 
L 136.6479 89.042574 
L 135.1479 87.542574 
L 133.6479 89.042574 
L 135.1479 90.542574 
L 133.6479 92.042574 
z
" clip-path="url(#p7ea2eed920)" style="fill: #cc660b; fill-opacity: 0.5; stroke: #ffffff; stroke-opacity: 0.5; stroke-width: 0.48"/>
    <path d="M 118.294568 148.265156 
C 119.090177 148.265156 119.853308 147.949057 120.415888 147.386476 
C 120.978469 146.823896 121.294568 146.060765 121.294568 145.265156 
C 121.294568 144.469547 120.978469 143.706416 120.415888 143.143836 
C 119.853308 142.581255 119.090177 142.265156 118.294568 142.265156 
C 117.498959 142.265156 116.735828 142.581255 116.173248 143.143836 
C 115.610667 143.706416 115.294568 144.469547 115.294568 145.265156 
C 115.294568 146.060765 115.610667 146.823896 116.173248 147.386476 
C 116.735828 147.949057 117.498959 148.265156 118.294568 148.265156 
z
" clip-path="url(#p7ea2eed920)" style="fill: #cc660b; fill-opacity: 0.5; stroke: #ffffff; stroke-opacity: 0.5; stroke-width: 0.48"/>
    <path d="M 139.20378 124.534154 
C 139.999389 124.534154 140.76252 124.218055 141.3251 123.655474 
C 141.887681 123.092893 142.20378 122.329763 142.20378 121.534154 
C 142.20378 120.738544 141.887681 119.975414 141.3251 119.412833 
C 140.76252 118.850253 139.999389 118.534154 139.20378 118.534154 
C 138.408171 118.534154 137.64504 118.850253 137.08246 119.412833 
C 136.519879 119.975414 136.20378 120.738544 136.20378 121.534154 
C 136.20378 122.329763 136.519879 123.092893 137.08246 123.655474 
C 137.64504 124.218055 138.408171 124.534154 139.20378 124.534154 
z
" clip-path="url(#p7ea2eed920)" style="fill: #cc660b; fill-opacity: 0.5; stroke: #ffffff; stroke-opacity: 0.5; stroke-width: 0.48"/>
    <path d="M 117.334791 55.75005 
L 118.834791 54.25005 
L 120.334791 55.75005 
L 121.834791 54.25005 
L 120.334791 52.75005 
L 121.834791 51.25005 
L 120.334791 49.75005 
L 118.834791 51.25005 
L 117.334791 49.75005 
L 115.834791 51.25005 
L 117.334791 52.75005 
L 115.834791 54.25005 
z
" clip-path="url(#p7ea2eed920)" style="fill: #cc660b; fill-opacity: 0.5; stroke: #ffffff; stroke-opacity: 0.5; stroke-width: 0.48"/>
    <path d="M 112.175764 129.255154 
C 112.971373 129.255154 113.734504 128.939055 114.297084 128.376474 
C 114.859665 127.813894 115.175764 127.050763 115.175764 126.255154 
C 115.175764 125.459545 114.859665 124.696415 114.297084 124.133834 
C 113.734504 123.571253 112.971373 123.255154 112.175764 123.255154 
C 111.380155 123.255154 110.617024 123.571253 110.054444 124.133834 
C 109.491863 124.696415 109.175764 125.459545 109.175764 126.255154 
C 109.175764 127.050763 109.491863 127.813894 110.054444 128.376474 
C 110.617024 128.939055 111.380155 129.255154 112.175764 129.255154 
z
" clip-path="url(#p7ea2eed920)" style="fill: #cc660b; fill-opacity: 0.5; stroke: #ffffff; stroke-opacity: 0.5; stroke-width: 0.48"/>
    <path d="M 120.364847 157.076406 
C 121.160456 157.076406 121.923586 156.760307 122.486167 156.197726 
C 123.048748 155.635145 123.364847 154.872015 123.364847 154.076406 
C 123.364847 153.280796 123.048748 152.517666 122.486167 151.955085 
C 121.923586 151.392504 121.160456 151.076406 120.364847 151.076406 
C 119.569237 151.076406 118.806107 151.392504 118.243526 151.955085 
C 117.680946 152.517666 117.364847 153.280796 117.364847 154.076406 
C 117.364847 154.872015 117.680946 155.635145 118.243526 156.197726 
C 118.806107 156.760307 119.569237 157.076406 120.364847 157.076406 
z
" clip-path="url(#p7ea2eed920)" style="fill: #cc660b; fill-opacity: 0.5; stroke: #ffffff; stroke-opacity: 0.5; stroke-width: 0.48"/>
    <path d="M 104.34517 123.965538 
C 105.14078 123.965538 105.90391 123.649439 106.466491 123.086858 
C 107.029071 122.524277 107.34517 121.761147 107.34517 120.965538 
C 107.34517 120.169928 107.029071 119.406798 106.466491 118.844217 
C 105.90391 118.281637 105.14078 117.965538 104.34517 117.965538 
C 103.549561 117.965538 102.786431 118.281637 102.22385 118.844217 
C 101.661269 119.406798 101.34517 120.169928 101.34517 120.965538 
C 101.34517 121.761147 101.661269 122.524277 102.22385 123.086858 
C 102.786431 123.649439 103.549561 123.965538 104.34517 123.965538 
z
" clip-path="url(#p7ea2eed920)" style="fill: #cc660b; fill-opacity: 0.5; stroke: #ffffff; stroke-opacity: 0.5; stroke-width: 0.48"/>
    <path d="M 132.632277 94.302955 
C 133.427886 94.302955 134.191016 93.986856 134.753597 93.424275 
C 135.316178 92.861694 135.632277 92.098564 135.632277 91.302955 
C 135.632277 90.507345 135.316178 89.744215 134.753597 89.181634 
C 134.191016 88.619054 133.427886 88.302955 132.632277 88.302955 
C 131.836667 88.302955 131.073537 88.619054 130.510956 89.181634 
C 129.948376 89.744215 129.632277 90.507345 129.632277 91.302955 
C 129.632277 92.098564 129.948376 92.861694 130.510956 93.424275 
C 131.073537 93.986856 131.836667 94.302955 132.632277 94.302955 
z
" clip-path="url(#p7ea2eed920)" style="fill: #cc660b; fill-opacity: 0.5; stroke: #ffffff; stroke-opacity: 0.5; stroke-width: 0.48"/>
    <path d="M 99.467061 168.890234 
C 100.262671 168.890234 101.025801 168.574135 101.588382 168.011554 
C 102.150962 167.448974 102.467061 166.685843 102.467061 165.890234 
C 102.467061 165.094625 102.150962 164.331494 101.588382 163.768914 
C 101.025801 163.206333 100.262671 162.890234 99.467061 162.890234 
C 98.671452 162.890234 97.908322 163.206333 97.345741 163.768914 
C 96.78316 164.331494 96.467061 165.094625 96.467061 165.890234 
C 96.467061 166.685843 96.78316 167.448974 97.345741 168.011554 
C 97.908322 168.574135 98.671452 168.890234 99.467061 168.890234 
z
" clip-path="url(#p7ea2eed920)" style="fill: #cc660b; fill-opacity: 0.5; stroke: #ffffff; stroke-opacity: 0.5; stroke-width: 0.48"/>
    <path d="M 114.867022 47.401076 
C 115.662631 47.401076 116.425761 47.084977 116.988342 46.522396 
C 117.550923 45.959815 117.867022 45.196685 117.867022 44.401076 
C 117.867022 43.605466 117.550923 42.842336 116.988342 42.279755 
C 116.425761 41.717175 115.662631 41.401076 114.867022 41.401076 
C 114.071413 41.401076 113.308282 41.717175 112.745702 42.279755 
C 112.183121 42.842336 111.867022 43.605466 111.867022 44.401076 
C 111.867022 45.196685 112.183121 45.959815 112.745702 46.522396 
C 113.308282 47.084977 114.071413 47.401076 114.867022 47.401076 
z
" clip-path="url(#p7ea2eed920)" style="fill: #cc660b; fill-opacity: 0.5; stroke: #ffffff; stroke-opacity: 0.5; stroke-width: 0.48"/>
    <path d="M 122.333928 116.793505 
C 123.129538 116.793505 123.892668 116.477406 124.455249 115.914825 
C 125.017829 115.352245 125.333928 114.589114 125.333928 113.793505 
C 125.333928 112.997896 125.017829 112.234765 124.455249 111.672185 
C 123.892668 111.109604 123.129538 110.793505 122.333928 110.793505 
C 121.538319 110.793505 120.775189 111.109604 120.212608 111.672185 
C 119.650027 112.234765 119.333928 112.997896 119.333928 113.793505 
C 119.333928 114.589114 119.650027 115.352245 120.212608 115.914825 
C 120.775189 116.477406 121.538319 116.793505 122.333928 116.793505 
z
" clip-path="url(#p7ea2eed920)" style="fill: #cc660b; fill-opacity: 0.5; stroke: #ffffff; stroke-opacity: 0.5; stroke-width: 0.48"/>
    <path d="M 103.519218 200.400167 
C 104.314827 200.400167 105.077957 200.084069 105.640538 199.521488 
C 106.203119 198.958907 106.519218 198.195777 106.519218 197.400167 
C 106.519218 196.604558 106.203119 195.841428 105.640538 195.278847 
C 105.077957 194.716266 104.314827 194.400167 103.519218 194.400167 
C 102.723608 194.400167 101.960478 194.716266 101.397897 195.278847 
C 100.835317 195.841428 100.519218 196.604558 100.519218 197.400167 
C 100.519218 198.195777 100.835317 198.958907 101.397897 199.521488 
C 101.960478 200.084069 102.723608 200.400167 103.519218 200.400167 
z
" clip-path="url(#p7ea2eed920)" style="fill: #cc660b; fill-opacity: 0.5; stroke: #ffffff; stroke-opacity: 0.5; stroke-width: 0.48"/>
    <path d="M 132.994798 173.752784 
C 133.790407 173.752784 134.553537 173.436685 135.116118 172.874104 
C 135.678699 172.311523 135.994798 171.548393 135.994798 170.752784 
C 135.994798 169.957174 135.678699 169.194044 135.116118 168.631463 
C 134.553537 168.068882 133.790407 167.752784 132.994798 167.752784 
C 132.199188 167.752784 131.436058 168.068882 130.873477 168.631463 
C 130.310897 169.194044 129.994798 169.957174 129.994798 170.752784 
C 129.994798 171.548393 130.310897 172.311523 130.873477 172.874104 
C 131.436058 173.436685 132.199188 173.752784 132.994798 173.752784 
z
" clip-path="url(#p7ea2eed920)" style="fill: #cc660b; fill-opacity: 0.5; stroke: #ffffff; stroke-opacity: 0.5; stroke-width: 0.48"/>
    <path d="M 164.402462 102.00126 
C 165.198071 102.00126 165.961202 101.685161 166.523782 101.12258 
C 167.086363 100.56 167.402462 99.796869 167.402462 99.00126 
C 167.402462 98.205651 167.086363 97.44252 166.523782 96.87994 
C 165.961202 96.317359 165.198071 96.00126 164.402462 96.00126 
C 163.606853 96.00126 162.843723 96.317359 162.281142 96.87994 
C 161.718561 97.44252 161.402462 98.205651 161.402462 99.00126 
C 161.402462 99.796869 161.718561 100.56 162.281142 101.12258 
C 162.843723 101.685161 163.606853 102.00126 164.402462 102.00126 
z
" clip-path="url(#p7ea2eed920)" style="fill: #cc660b; fill-opacity: 0.5; stroke: #ffffff; stroke-opacity: 0.5; stroke-width: 0.48"/>
    <path d="M 111.837507 131.6126 
C 112.633116 131.6126 113.396246 131.296501 113.958827 130.73392 
C 114.521408 130.171339 114.837507 129.408209 114.837507 128.6126 
C 114.837507 127.81699 114.521408 127.05386 113.958827 126.491279 
C 113.396246 125.928698 112.633116 125.6126 111.837507 125.6126 
C 111.041897 125.6126 110.278767 125.928698 109.716186 126.491279 
C 109.153606 127.05386 108.837507 127.81699 108.837507 128.6126 
C 108.837507 129.408209 109.153606 130.171339 109.716186 130.73392 
C 110.278767 131.296501 111.041897 131.6126 111.837507 131.6126 
z
" clip-path="url(#p7ea2eed920)" style="fill: #cc660b; fill-opacity: 0.5; stroke: #ffffff; stroke-opacity: 0.5; stroke-width: 0.48"/>
    <path d="M 122.567932 54.836262 
L 124.067932 53.336262 
L 125.567932 54.836262 
L 127.067932 53.336262 
L 125.567932 51.836262 
L 127.067932 50.336262 
L 125.567932 48.836262 
L 124.067932 50.336262 
L 122.567932 48.836262 
L 121.067932 50.336262 
L 122.567932 51.836262 
L 121.067932 53.336262 
z
" clip-path="url(#p7ea2eed920)" style="fill: #cc660b; fill-opacity: 0.5; stroke: #ffffff; stroke-opacity: 0.5; stroke-width: 0.48"/>
    <path d="M 113.421325 167.384631 
C 114.216934 167.384631 114.980065 167.068532 115.542645 166.505951 
C 116.105226 165.943371 116.421325 165.18024 116.421325 164.384631 
C 116.421325 163.589022 116.105226 162.825891 115.542645 162.263311 
C 114.980065 161.70073 114.216934 161.384631 113.421325 161.384631 
C 112.625716 161.384631 111.862585 161.70073 111.300005 162.263311 
C 110.737424 162.825891 110.421325 163.589022 110.421325 164.384631 
C 110.421325 165.18024 110.737424 165.943371 111.300005 166.505951 
C 111.862585 167.068532 112.625716 167.384631 113.421325 167.384631 
z
" clip-path="url(#p7ea2eed920)" style="fill: #cc660b; fill-opacity: 0.5; stroke: #ffffff; stroke-opacity: 0.5; stroke-width: 0.48"/>
    <path d="M 106.614447 184.493644 
C 107.410056 184.493644 108.173187 184.177545 108.735767 183.614965 
C 109.298348 183.052384 109.614447 182.289253 109.614447 181.493644 
C 109.614447 180.698035 109.298348 179.934905 108.735767 179.372324 
C 108.173187 178.809743 107.410056 178.493644 106.614447 178.493644 
C 105.818838 178.493644 105.055707 178.809743 104.493127 179.372324 
C 103.930546 179.934905 103.614447 180.698035 103.614447 181.493644 
C 103.614447 182.289253 103.930546 183.052384 104.493127 183.614965 
C 105.055707 184.177545 105.818838 184.493644 106.614447 184.493644 
z
" clip-path="url(#p7ea2eed920)" style="fill: #cc660b; fill-opacity: 0.5; stroke: #ffffff; stroke-opacity: 0.5; stroke-width: 0.48"/>
    <path d="M 127.160176 59.55459 
L 128.660176 58.05459 
L 130.160176 59.55459 
L 131.660176 58.05459 
L 130.160176 56.55459 
L 131.660176 55.05459 
L 130.160176 53.55459 
L 128.660176 55.05459 
L 127.160176 53.55459 
L 125.660176 55.05459 
L 127.160176 56.55459 
L 125.660176 58.05459 
z
" clip-path="url(#p7ea2eed920)" style="fill: #cc660b; fill-opacity: 0.5; stroke: #ffffff; stroke-opacity: 0.5; stroke-width: 0.48"/>
    <path d="M 136.849088 111.611599 
C 137.644697 111.611599 138.407828 111.2955 138.970408 110.732919 
C 139.532989 110.170338 139.849088 109.407208 139.849088 108.611599 
C 139.849088 107.815989 139.532989 107.052859 138.970408 106.490278 
C 138.407828 105.927698 137.644697 105.611599 136.849088 105.611599 
C 136.053479 105.611599 135.290348 105.927698 134.727768 106.490278 
C 134.165187 107.052859 133.849088 107.815989 133.849088 108.611599 
C 133.849088 109.407208 134.165187 110.170338 134.727768 110.732919 
C 135.290348 111.2955 136.053479 111.611599 136.849088 111.611599 
z
" clip-path="url(#p7ea2eed920)" style="fill: #cc660b; fill-opacity: 0.5; stroke: #ffffff; stroke-opacity: 0.5; stroke-width: 0.48"/>
    <path d="M 117.114466 152.485767 
C 117.910076 152.485767 118.673206 152.169668 119.235787 151.607088 
C 119.798367 151.044507 120.114466 150.281377 120.114466 149.485767 
C 120.114466 148.690158 119.798367 147.927028 119.235787 147.364447 
C 118.673206 146.801866 117.910076 146.485767 117.114466 146.485767 
C 116.318857 146.485767 115.555727 146.801866 114.993146 147.364447 
C 114.430565 147.927028 114.114466 148.690158 114.114466 149.485767 
C 114.114466 150.281377 114.430565 151.044507 114.993146 151.607088 
C 115.555727 152.169668 116.318857 152.485767 117.114466 152.485767 
z
" clip-path="url(#p7ea2eed920)" style="fill: #cc660b; fill-opacity: 0.5; stroke: #ffffff; stroke-opacity: 0.5; stroke-width: 0.48"/>
    <path d="M 118.684069 152.767306 
C 119.479678 152.767306 120.242809 152.451207 120.805389 151.888627 
C 121.36797 151.326046 121.684069 150.562916 121.684069 149.767306 
C 121.684069 148.971697 121.36797 148.208567 120.805389 147.645986 
C 120.242809 147.083405 119.479678 146.767306 118.684069 146.767306 
C 117.88846 146.767306 117.125329 147.083405 116.562749 147.645986 
C 116.000168 148.208567 115.684069 148.971697 115.684069 149.767306 
C 115.684069 150.562916 116.000168 151.326046 116.562749 151.888627 
C 117.125329 152.451207 117.88846 152.767306 118.684069 152.767306 
z
" clip-path="url(#p7ea2eed920)" style="fill: #cc660b; fill-opacity: 0.5; stroke: #ffffff; stroke-opacity: 0.5; stroke-width: 0.48"/>
    <path d="M 127.258591 40.5783 
C 128.0542 40.5783 128.81733 40.262202 129.379911 39.699621 
C 129.942492 39.13704 130.258591 38.37391 130.258591 37.5783 
C 130.258591 36.782691 129.942492 36.019561 129.379911 35.45698 
C 128.81733 34.894399 128.0542 34.5783 127.258591 34.5783 
C 126.462981 34.5783 125.699851 34.894399 125.13727 35.45698 
C 124.57469 36.019561 124.258591 36.782691 124.258591 37.5783 
C 124.258591 38.37391 124.57469 39.13704 125.13727 39.699621 
C 125.699851 40.262202 126.462981 40.5783 127.258591 40.5783 
z
" clip-path="url(#p7ea2eed920)" style="fill: #cc660b; fill-opacity: 0.5; stroke: #ffffff; stroke-opacity: 0.5; stroke-width: 0.48"/>
    <path d="M 115.563116 129.688867 
C 116.358725 129.688867 117.121856 129.372768 117.684436 128.810187 
C 118.247017 128.247606 118.563116 127.484476 118.563116 126.688867 
C 118.563116 125.893257 118.247017 125.130127 117.684436 124.567546 
C 117.121856 124.004966 116.358725 123.688867 115.563116 123.688867 
C 114.767507 123.688867 114.004376 124.004966 113.441796 124.567546 
C 112.879215 125.130127 112.563116 125.893257 112.563116 126.688867 
C 112.563116 127.484476 112.879215 128.247606 113.441796 128.810187 
C 114.004376 129.372768 114.767507 129.688867 115.563116 129.688867 
z
" clip-path="url(#p7ea2eed920)" style="fill: #cc660b; fill-opacity: 0.5; stroke: #ffffff; stroke-opacity: 0.5; stroke-width: 0.48"/>
    <path d="M 60.765284 236.183688 
C 61.560893 236.183688 62.324024 235.867589 62.886604 235.305008 
C 63.449185 234.742428 63.765284 233.979297 63.765284 233.183688 
C 63.765284 232.388079 63.449185 231.624948 62.886604 231.062368 
C 62.324024 230.499787 61.560893 230.183688 60.765284 230.183688 
C 59.969675 230.183688 59.206544 230.499787 58.643964 231.062368 
C 58.081383 231.624948 57.765284 232.388079 57.765284 233.183688 
C 57.765284 233.979297 58.081383 234.742428 58.643964 235.305008 
C 59.206544 235.867589 59.969675 236.183688 60.765284 236.183688 
z
" clip-path="url(#p7ea2eed920)" style="fill: #cc660b; fill-opacity: 0.5; stroke: #ffffff; stroke-opacity: 0.5; stroke-width: 0.48"/>
    <path d="M 103.602812 209.795744 
C 104.398421 209.795744 105.161551 209.479645 105.724132 208.917065 
C 106.286713 208.354484 106.602812 207.591354 106.602812 206.795744 
C 106.602812 206.000135 106.286713 205.237005 105.724132 204.674424 
C 105.161551 204.111843 104.398421 203.795744 103.602812 203.795744 
C 102.807202 203.795744 102.044072 204.111843 101.481491 204.674424 
C 100.918911 205.237005 100.602812 206.000135 100.602812 206.795744 
C 100.602812 207.591354 100.918911 208.354484 101.481491 208.917065 
C 102.044072 209.479645 102.807202 209.795744 103.602812 209.795744 
z
" clip-path="url(#p7ea2eed920)" style="fill: #cc660b; fill-opacity: 0.5; stroke: #ffffff; stroke-opacity: 0.5; stroke-width: 0.48"/>
    <path d="M 139.316072 162.223434 
C 140.111681 162.223434 140.874812 161.907335 141.437392 161.344754 
C 141.999973 160.782174 142.316072 160.019043 142.316072 159.223434 
C 142.316072 158.427825 141.999973 157.664694 141.437392 157.102114 
C 140.874812 156.539533 140.111681 156.223434 139.316072 156.223434 
C 138.520463 156.223434 137.757333 156.539533 137.194752 157.102114 
C 136.632171 157.664694 136.316072 158.427825 136.316072 159.223434 
C 136.316072 160.019043 136.632171 160.782174 137.194752 161.344754 
C 137.757333 161.907335 138.520463 162.223434 139.316072 162.223434 
z
" clip-path="url(#p7ea2eed920)" style="fill: #cc660b; fill-opacity: 0.5; stroke: #ffffff; stroke-opacity: 0.5; stroke-width: 0.48"/>
    <path d="M 114.225576 105.575654 
L 115.725576 104.075654 
L 117.225576 105.575654 
L 118.725576 104.075654 
L 117.225576 102.575654 
L 118.725576 101.075654 
L 117.225576 99.575654 
L 115.725576 101.075654 
L 114.225576 99.575654 
L 112.725576 101.075654 
L 114.225576 102.575654 
L 112.725576 104.075654 
z
" clip-path="url(#p7ea2eed920)" style="fill: #cc660b; fill-opacity: 0.5; stroke: #ffffff; stroke-opacity: 0.5; stroke-width: 0.48"/>
    <path d="M 134.237807 81.742647 
C 135.033416 81.742647 135.796547 81.426548 136.359128 80.863967 
C 136.921708 80.301386 137.237807 79.538256 137.237807 78.742647 
C 137.237807 77.947037 136.921708 77.183907 136.359128 76.621326 
C 135.796547 76.058746 135.033416 75.742647 134.237807 75.742647 
C 133.442198 75.742647 132.679068 76.058746 132.116487 76.621326 
C 131.553906 77.183907 131.237807 77.947037 131.237807 78.742647 
C 131.237807 79.538256 131.553906 80.301386 132.116487 80.863967 
C 132.679068 81.426548 133.442198 81.742647 134.237807 81.742647 
z
" clip-path="url(#p7ea2eed920)" style="fill: #cc660b; fill-opacity: 0.5; stroke: #ffffff; stroke-opacity: 0.5; stroke-width: 0.48"/>
    <path d="M 106.973492 158.445036 
C 107.769101 158.445036 108.532231 158.128937 109.094812 157.566356 
C 109.657393 157.003775 109.973492 156.240645 109.973492 155.445036 
C 109.973492 154.649427 109.657393 153.886296 109.094812 153.323715 
C 108.532231 152.761135 107.769101 152.445036 106.973492 152.445036 
C 106.177882 152.445036 105.414752 152.761135 104.852171 153.323715 
C 104.289591 153.886296 103.973492 154.649427 103.973492 155.445036 
C 103.973492 156.240645 104.289591 157.003775 104.852171 157.566356 
C 105.414752 158.128937 106.177882 158.445036 106.973492 158.445036 
z
" clip-path="url(#p7ea2eed920)" style="fill: #cc660b; fill-opacity: 0.5; stroke: #ffffff; stroke-opacity: 0.5; stroke-width: 0.48"/>
    <path d="M 184.253297 130.524483 
C 185.048906 130.524483 185.812036 130.208384 186.374617 129.645803 
C 186.937198 129.083222 187.253297 128.320092 187.253297 127.524483 
C 187.253297 126.728873 186.937198 125.965743 186.374617 125.403162 
C 185.812036 124.840582 185.048906 124.524483 184.253297 124.524483 
C 183.457687 124.524483 182.694557 124.840582 182.131976 125.403162 
C 181.569395 125.965743 181.253297 126.728873 181.253297 127.524483 
C 181.253297 128.320092 181.569395 129.083222 182.131976 129.645803 
C 182.694557 130.208384 183.457687 130.524483 184.253297 130.524483 
z
" clip-path="url(#p7ea2eed920)" style="fill: #cc660b; fill-opacity: 0.5; stroke: #ffffff; stroke-opacity: 0.5; stroke-width: 0.48"/>
    <path d="M 175.649805 109.982529 
C 176.445414 109.982529 177.208544 109.66643 177.771125 109.103849 
C 178.333706 108.541269 178.649805 107.778138 178.649805 106.982529 
C 178.649805 106.18692 178.333706 105.423789 177.771125 104.861209 
C 177.208544 104.298628 176.445414 103.982529 175.649805 103.982529 
C 174.854195 103.982529 174.091065 104.298628 173.528484 104.861209 
C 172.965903 105.423789 172.649805 106.18692 172.649805 106.982529 
C 172.649805 107.778138 172.965903 108.541269 173.528484 109.103849 
C 174.091065 109.66643 174.854195 109.982529 175.649805 109.982529 
z
" clip-path="url(#p7ea2eed920)" style="fill: #cc660b; fill-opacity: 0.5; stroke: #ffffff; stroke-opacity: 0.5; stroke-width: 0.48"/>
    <path d="M 69.761864 238.883352 
C 70.557473 238.883352 71.320604 238.567253 71.883184 238.004673 
C 72.445765 237.442092 72.761864 236.678962 72.761864 235.883352 
C 72.761864 235.087743 72.445765 234.324613 71.883184 233.762032 
C 71.320604 233.199451 70.557473 232.883352 69.761864 232.883352 
C 68.966255 232.883352 68.203124 233.199451 67.640544 233.762032 
C 67.077963 234.324613 66.761864 235.087743 66.761864 235.883352 
C 66.761864 236.678962 67.077963 237.442092 67.640544 238.004673 
C 68.203124 238.567253 68.966255 238.883352 69.761864 238.883352 
z
" clip-path="url(#p7ea2eed920)" style="fill: #cc660b; fill-opacity: 0.5; stroke: #ffffff; stroke-opacity: 0.5; stroke-width: 0.48"/>
    <path d="M 159.899858 130.091481 
C 160.695467 130.091481 161.458597 129.775382 162.021178 129.212801 
C 162.583759 128.650221 162.899858 127.88709 162.899858 127.091481 
C 162.899858 126.295872 162.583759 125.532741 162.021178 124.970161 
C 161.458597 124.40758 160.695467 124.091481 159.899858 124.091481 
C 159.104248 124.091481 158.341118 124.40758 157.778537 124.970161 
C 157.215957 125.532741 156.899858 126.295872 156.899858 127.091481 
C 156.899858 127.88709 157.215957 128.650221 157.778537 129.212801 
C 158.341118 129.775382 159.104248 130.091481 159.899858 130.091481 
z
" clip-path="url(#p7ea2eed920)" style="fill: #cc660b; fill-opacity: 0.5; stroke: #ffffff; stroke-opacity: 0.5; stroke-width: 0.48"/>
    <path d="M 192.350581 77.126422 
C 193.146191 77.126422 193.909321 76.810323 194.471902 76.247742 
C 195.034483 75.685161 195.350581 74.922031 195.350581 74.126422 
C 195.350581 73.330812 195.034483 72.567682 194.471902 72.005101 
C 193.909321 71.442521 193.146191 71.126422 192.350581 71.126422 
C 191.554972 71.126422 190.791842 71.442521 190.229261 72.005101 
C 189.66668 72.567682 189.350581 73.330812 189.350581 74.126422 
C 189.350581 74.922031 189.66668 75.685161 190.229261 76.247742 
C 190.791842 76.810323 191.554972 77.126422 192.350581 77.126422 
z
" clip-path="url(#p7ea2eed920)" style="fill: #cc660b; fill-opacity: 0.5; stroke: #ffffff; stroke-opacity: 0.5; stroke-width: 0.48"/>
    <path d="M 93.731208 158.795223 
C 94.526817 158.795223 95.289947 158.479124 95.852528 157.916544 
C 96.415109 157.353963 96.731208 156.590832 96.731208 155.795223 
C 96.731208 154.999614 96.415109 154.236484 95.852528 153.673903 
C 95.289947 153.111322 94.526817 152.795223 93.731208 152.795223 
C 92.935598 152.795223 92.172468 153.111322 91.609887 153.673903 
C 91.047307 154.236484 90.731208 154.999614 90.731208 155.795223 
C 90.731208 156.590832 91.047307 157.353963 91.609887 157.916544 
C 92.172468 158.479124 92.935598 158.795223 93.731208 158.795223 
z
" clip-path="url(#p7ea2eed920)" style="fill: #cc660b; fill-opacity: 0.5; stroke: #ffffff; stroke-opacity: 0.5; stroke-width: 0.48"/>
    <path d="M 128.758146 37.775398 
C 129.553756 37.775398 130.316886 37.459299 130.879467 36.896718 
C 131.442047 36.334137 131.758146 35.571007 131.758146 34.775398 
C 131.758146 33.979788 131.442047 33.216658 130.879467 32.654077 
C 130.316886 32.091497 129.553756 31.775398 128.758146 31.775398 
C 127.962537 31.775398 127.199407 32.091497 126.636826 32.654077 
C 126.074245 33.216658 125.758146 33.979788 125.758146 34.775398 
C 125.758146 35.571007 126.074245 36.334137 126.636826 36.896718 
C 127.199407 37.459299 127.962537 37.775398 128.758146 37.775398 
z
" clip-path="url(#p7ea2eed920)" style="fill: #cc660b; fill-opacity: 0.5; stroke: #ffffff; stroke-opacity: 0.5; stroke-width: 0.48"/>
    <path d="M 140.129245 68.35077 
L 141.629245 66.85077 
L 143.129245 68.35077 
L 144.629245 66.85077 
L 143.129245 65.35077 
L 144.629245 63.85077 
L 143.129245 62.35077 
L 141.629245 63.85077 
L 140.129245 62.35077 
L 138.629245 63.85077 
L 140.129245 65.35077 
L 138.629245 66.85077 
z
" clip-path="url(#p7ea2eed920)" style="fill: #cc660b; fill-opacity: 0.5; stroke: #ffffff; stroke-opacity: 0.5; stroke-width: 0.48"/>
    <path d="M 167.38361 67.703242 
C 168.179219 67.703242 168.942349 67.387143 169.50493 66.824562 
C 170.067511 66.261981 170.38361 65.498851 170.38361 64.703242 
C 170.38361 63.907632 170.067511 63.144502 169.50493 62.581921 
C 168.942349 62.019341 168.179219 61.703242 167.38361 61.703242 
C 166.588 61.703242 165.82487 62.019341 165.262289 62.581921 
C 164.699708 63.144502 164.38361 63.907632 164.38361 64.703242 
C 164.38361 65.498851 164.699708 66.261981 165.262289 66.824562 
C 165.82487 67.387143 166.588 67.703242 167.38361 67.703242 
z
" clip-path="url(#p7ea2eed920)" style="fill: #cc660b; fill-opacity: 0.5; stroke: #ffffff; stroke-opacity: 0.5; stroke-width: 0.48"/>
    <path d="M 147.007784 161.771202 
C 147.803393 161.771202 148.566523 161.455104 149.129104 160.892523 
C 149.691685 160.329942 150.007784 159.566812 150.007784 158.771202 
C 150.007784 157.975593 149.691685 157.212463 149.129104 156.649882 
C 148.566523 156.087301 147.803393 155.771202 147.007784 155.771202 
C 146.212174 155.771202 145.449044 156.087301 144.886463 156.649882 
C 144.323882 157.212463 144.007784 157.975593 144.007784 158.771202 
C 144.007784 159.566812 144.323882 160.329942 144.886463 160.892523 
C 145.449044 161.455104 146.212174 161.771202 147.007784 161.771202 
z
" clip-path="url(#p7ea2eed920)" style="fill: #cc660b; fill-opacity: 0.5; stroke: #ffffff; stroke-opacity: 0.5; stroke-width: 0.48"/>
    <path d="M 168.065201 70.775746 
C 168.86081 70.775746 169.62394 70.459647 170.186521 69.897067 
C 170.749102 69.334486 171.065201 68.571355 171.065201 67.775746 
C 171.065201 66.980137 170.749102 66.217007 170.186521 65.654426 
C 169.62394 65.091845 168.86081 64.775746 168.065201 64.775746 
C 167.269591 64.775746 166.506461 65.091845 165.94388 65.654426 
C 165.3813 66.217007 165.065201 66.980137 165.065201 67.775746 
C 165.065201 68.571355 165.3813 69.334486 165.94388 69.897067 
C 166.506461 70.459647 167.269591 70.775746 168.065201 70.775746 
z
" clip-path="url(#p7ea2eed920)" style="fill: #cc660b; fill-opacity: 0.5; stroke: #ffffff; stroke-opacity: 0.5; stroke-width: 0.48"/>
    <path d="M 95.749371 187.203811 
L 97.249371 185.703811 
L 98.749371 187.203811 
L 100.249371 185.703811 
L 98.749371 184.203811 
L 100.249371 182.703811 
L 98.749371 181.203811 
L 97.249371 182.703811 
L 95.749371 181.203811 
L 94.249371 182.703811 
L 95.749371 184.203811 
L 94.249371 185.703811 
z
" clip-path="url(#p7ea2eed920)" style="fill: #cc660b; fill-opacity: 0.5; stroke: #ffffff; stroke-opacity: 0.5; stroke-width: 0.48"/>
    <path d="M 99.925446 38.668508 
C 100.721055 38.668508 101.484186 38.352409 102.046766 37.789828 
C 102.609347 37.227248 102.925446 36.464117 102.925446 35.668508 
C 102.925446 34.872899 102.609347 34.109768 102.046766 33.547188 
C 101.484186 32.984607 100.721055 32.668508 99.925446 32.668508 
C 99.129837 32.668508 98.366706 32.984607 97.804126 33.547188 
C 97.241545 34.109768 96.925446 34.872899 96.925446 35.668508 
C 96.925446 36.464117 97.241545 37.227248 97.804126 37.789828 
C 98.366706 38.352409 99.129837 38.668508 99.925446 38.668508 
z
" clip-path="url(#p7ea2eed920)" style="fill: #cc660b; fill-opacity: 0.5; stroke: #ffffff; stroke-opacity: 0.5; stroke-width: 0.48"/>
    <path d="M 114.471255 52.258908 
C 115.266864 52.258908 116.029995 51.942809 116.592575 51.380229 
C 117.155156 50.817648 117.471255 50.054518 117.471255 49.258908 
C 117.471255 48.463299 117.155156 47.700169 116.592575 47.137588 
C 116.029995 46.575007 115.266864 46.258908 114.471255 46.258908 
C 113.675646 46.258908 112.912515 46.575007 112.349935 47.137588 
C 111.787354 47.700169 111.471255 48.463299 111.471255 49.258908 
C 111.471255 50.054518 111.787354 50.817648 112.349935 51.380229 
C 112.912515 51.942809 113.675646 52.258908 114.471255 52.258908 
z
" clip-path="url(#p7ea2eed920)" style="fill: #cc660b; fill-opacity: 0.5; stroke: #ffffff; stroke-opacity: 0.5; stroke-width: 0.48"/>
    <path d="M 101.838959 54.556653 
L 103.338959 53.056653 
L 104.838959 54.556653 
L 106.338959 53.056653 
L 104.838959 51.556653 
L 106.338959 50.056653 
L 104.838959 48.556653 
L 103.338959 50.056653 
L 101.838959 48.556653 
L 100.338959 50.056653 
L 101.838959 51.556653 
L 100.338959 53.056653 
z
" clip-path="url(#p7ea2eed920)" style="fill: #cc660b; fill-opacity: 0.5; stroke: #ffffff; stroke-opacity: 0.5; stroke-width: 0.48"/>
    <path d="M 185.115585 69.552495 
C 185.911195 69.552495 186.674325 69.236396 187.236906 68.673816 
C 187.799487 68.111235 188.115585 67.348104 188.115585 66.552495 
C 188.115585 65.756886 187.799487 64.993756 187.236906 64.431175 
C 186.674325 63.868594 185.911195 63.552495 185.115585 63.552495 
C 184.319976 63.552495 183.556846 63.868594 182.994265 64.431175 
C 182.431684 64.993756 182.115585 65.756886 182.115585 66.552495 
C 182.115585 67.348104 182.431684 68.111235 182.994265 68.673816 
C 183.556846 69.236396 184.319976 69.552495 185.115585 69.552495 
z
" clip-path="url(#p7ea2eed920)" style="fill: #cc660b; fill-opacity: 0.5; stroke: #ffffff; stroke-opacity: 0.5; stroke-width: 0.48"/>
    <path d="M 225.325603 107.074442 
L 226.825603 105.574442 
L 228.325603 107.074442 
L 229.825603 105.574442 
L 228.325603 104.074442 
L 229.825603 102.574442 
L 228.325603 101.074442 
L 226.825603 102.574442 
L 225.325603 101.074442 
L 223.825603 102.574442 
L 225.325603 104.074442 
L 223.825603 105.574442 
z
" clip-path="url(#p7ea2eed920)" style="fill: #cc660b; fill-opacity: 0.5; stroke: #ffffff; stroke-opacity: 0.5; stroke-width: 0.48"/>
    <path d="M 198.415613 74.564394 
C 199.211223 74.564394 199.974353 74.248295 200.536934 73.685714 
C 201.099514 73.123133 201.415613 72.360003 201.415613 71.564394 
C 201.415613 70.768784 201.099514 70.005654 200.536934 69.443073 
C 199.974353 68.880493 199.211223 68.564394 198.415613 68.564394 
C 197.620004 68.564394 196.856874 68.880493 196.294293 69.443073 
C 195.731712 70.005654 195.415613 70.768784 195.415613 71.564394 
C 195.415613 72.360003 195.731712 73.123133 196.294293 73.685714 
C 196.856874 74.248295 197.620004 74.564394 198.415613 74.564394 
z
" clip-path="url(#p7ea2eed920)" style="fill: #cc660b; fill-opacity: 0.5; stroke: #ffffff; stroke-opacity: 0.5; stroke-width: 0.48"/>
    <path d="M 94.985752 43.483223 
C 95.781362 43.483223 96.544492 43.167124 97.107073 42.604544 
C 97.669653 42.041963 97.985752 41.278833 97.985752 40.483223 
C 97.985752 39.687614 97.669653 38.924484 97.107073 38.361903 
C 96.544492 37.799322 95.781362 37.483223 94.985752 37.483223 
C 94.190143 37.483223 93.427013 37.799322 92.864432 38.361903 
C 92.301851 38.924484 91.985752 39.687614 91.985752 40.483223 
C 91.985752 41.278833 92.301851 42.041963 92.864432 42.604544 
C 93.427013 43.167124 94.190143 43.483223 94.985752 43.483223 
z
" clip-path="url(#p7ea2eed920)" style="fill: #cc660b; fill-opacity: 0.5; stroke: #ffffff; stroke-opacity: 0.5; stroke-width: 0.48"/>
    <path d="M 176.829837 65.099497 
L 178.329837 63.599497 
L 179.829837 65.099497 
L 181.329837 63.599497 
L 179.829837 62.099497 
L 181.329837 60.599497 
L 179.829837 59.099497 
L 178.329837 60.599497 
L 176.829837 59.099497 
L 175.329837 60.599497 
L 176.829837 62.099497 
L 175.329837 63.599497 
z
" clip-path="url(#p7ea2eed920)" style="fill: #cc660b; fill-opacity: 0.5; stroke: #ffffff; stroke-opacity: 0.5; stroke-width: 0.48"/>
    <path d="M 107.089357 96.545355 
C 107.884967 96.545355 108.648097 96.229256 109.210678 95.666675 
C 109.773258 95.104095 110.089357 94.340964 110.089357 93.545355 
C 110.089357 92.749746 109.773258 91.986616 109.210678 91.424035 
C 108.648097 90.861454 107.884967 90.545355 107.089357 90.545355 
C 106.293748 90.545355 105.530618 90.861454 104.968037 91.424035 
C 104.405456 91.986616 104.089357 92.749746 104.089357 93.545355 
C 104.089357 94.340964 104.405456 95.104095 104.968037 95.666675 
C 105.530618 96.229256 106.293748 96.545355 107.089357 96.545355 
z
" clip-path="url(#p7ea2eed920)" style="fill: #cc660b; fill-opacity: 0.5; stroke: #ffffff; stroke-opacity: 0.5; stroke-width: 0.48"/>
    <path d="M 108.016923 142.575576 
L 109.516923 141.075576 
L 111.016923 142.575576 
L 112.516923 141.075576 
L 111.016923 139.575576 
L 112.516923 138.075576 
L 111.016923 136.575576 
L 109.516923 138.075576 
L 108.016923 136.575576 
L 106.516923 138.075576 
L 108.016923 139.575576 
L 106.516923 141.075576 
z
" clip-path="url(#p7ea2eed920)" style="fill: #cc660b; fill-opacity: 0.5; stroke: #ffffff; stroke-opacity: 0.5; stroke-width: 0.48"/>
    <path d="M 218.607657 99.561713 
C 219.403266 99.561713 220.166396 99.245614 220.728977 98.683033 
C 221.291558 98.120452 221.607657 97.357322 221.607657 96.561713 
C 221.607657 95.766104 221.291558 95.002973 220.728977 94.440392 
C 220.166396 93.877812 219.403266 93.561713 218.607657 93.561713 
C 217.812047 93.561713 217.048917 93.877812 216.486336 94.440392 
C 215.923756 95.002973 215.607657 95.766104 215.607657 96.561713 
C 215.607657 97.357322 215.923756 98.120452 216.486336 98.683033 
C 217.048917 99.245614 217.812047 99.561713 218.607657 99.561713 
z
" clip-path="url(#p7ea2eed920)" style="fill: #cc660b; fill-opacity: 0.5; stroke: #ffffff; stroke-opacity: 0.5; stroke-width: 0.48"/>
    <path d="M 167.972453 63.127987 
C 168.768063 63.127987 169.531193 62.811888 170.093774 62.249307 
C 170.656355 61.686726 170.972453 60.923596 170.972453 60.127987 
C 170.972453 59.332377 170.656355 58.569247 170.093774 58.006666 
C 169.531193 57.444085 168.768063 57.127987 167.972453 57.127987 
C 167.176844 57.127987 166.413714 57.444085 165.851133 58.006666 
C 165.288552 58.569247 164.972453 59.332377 164.972453 60.127987 
C 164.972453 60.923596 165.288552 61.686726 165.851133 62.249307 
C 166.413714 62.811888 167.176844 63.127987 167.972453 63.127987 
z
" clip-path="url(#p7ea2eed920)" style="fill: #cc660b; fill-opacity: 0.5; stroke: #ffffff; stroke-opacity: 0.5; stroke-width: 0.48"/>
    <path d="M 152.086276 113.340516 
C 152.881886 113.340516 153.645016 113.024417 154.207597 112.461836 
C 154.770178 111.899255 155.086276 111.136125 155.086276 110.340516 
C 155.086276 109.544906 154.770178 108.781776 154.207597 108.219195 
C 153.645016 107.656615 152.881886 107.340516 152.086276 107.340516 
C 151.290667 107.340516 150.527537 107.656615 149.964956 108.219195 
C 149.402375 108.781776 149.086276 109.544906 149.086276 110.340516 
C 149.086276 111.136125 149.402375 111.899255 149.964956 112.461836 
C 150.527537 113.024417 151.290667 113.340516 152.086276 113.340516 
z
" clip-path="url(#p7ea2eed920)" style="fill: #cc660b; fill-opacity: 0.5; stroke: #ffffff; stroke-opacity: 0.5; stroke-width: 0.48"/>
    <path d="M 152.830836 91.943414 
L 154.330836 90.443414 
L 155.830836 91.943414 
L 157.330836 90.443414 
L 155.830836 88.943414 
L 157.330836 87.443414 
L 155.830836 85.943414 
L 154.330836 87.443414 
L 152.830836 85.943414 
L 151.330836 87.443414 
L 152.830836 88.943414 
L 151.330836 90.443414 
z
" clip-path="url(#p7ea2eed920)" style="fill: #cc660b; fill-opacity: 0.5; stroke: #ffffff; stroke-opacity: 0.5; stroke-width: 0.48"/>
    <path d="M 182.397239 85.623734 
C 183.192848 85.623734 183.955978 85.307635 184.518559 84.745055 
C 185.08114 84.182474 185.397239 83.419344 185.397239 82.623734 
C 185.397239 81.828125 185.08114 81.064995 184.518559 80.502414 
C 183.955978 79.939833 183.192848 79.623734 182.397239 79.623734 
C 181.601629 79.623734 180.838499 79.939833 180.275918 80.502414 
C 179.713337 81.064995 179.397239 81.828125 179.397239 82.623734 
C 179.397239 83.419344 179.713337 84.182474 180.275918 84.745055 
C 180.838499 85.307635 181.601629 85.623734 182.397239 85.623734 
z
" clip-path="url(#p7ea2eed920)" style="fill: #cc660b; fill-opacity: 0.5; stroke: #ffffff; stroke-opacity: 0.5; stroke-width: 0.48"/>
   </g>
   <g id="matplotlib.axis_1">
    <g id="xtick_1">
     <g id="line2d_1">
      <defs>
       <path id="m9a98e17114" d="M 0 0 
L 0 3.5 
" style="stroke: #000000; stroke-width: 0.8"/>
      </defs>
      <g>
       <use xlink:href="#m9a98e17114" x="52.457686" y="245.93875" style="stroke: #000000; stroke-width: 0.8"/>
      </g>
     </g>
     <g id="text_1">
      <text style="font: 10px 'DejaVu Sans', 'Bitstream Vera Sans', 'Computer Modern Sans Serif', 'Lucida Grande', 'Verdana', 'Geneva', 'Lucid', 'Arial', 'Helvetica', 'Avant Garde', sans-serif; text-anchor: middle" x="52.457686" y="260.537188" transform="rotate(-0 52.457686 260.537188)">5500</text>
     </g>
    </g>
    <g id="xtick_2">
     <g id="line2d_2">
      <g>
       <use xlink:href="#m9a98e17114" x="89.95419" y="245.93875" style="stroke: #000000; stroke-width: 0.8"/>
      </g>
     </g>
     <g id="text_2">
      <text style="font: 10px 'DejaVu Sans', 'Bitstream Vera Sans', 'Computer Modern Sans Serif', 'Lucida Grande', 'Verdana', 'Geneva', 'Lucid', 'Arial', 'Helvetica', 'Avant Garde', sans-serif; text-anchor: middle" x="89.95419" y="260.537188" transform="rotate(-0 89.95419 260.537188)">6000</text>
     </g>
    </g>
    <g id="xtick_3">
     <g id="line2d_3">
      <g>
       <use xlink:href="#m9a98e17114" x="127.450694" y="245.93875" style="stroke: #000000; stroke-width: 0.8"/>
      </g>
     </g>
     <g id="text_3">
      <text style="font: 10px 'DejaVu Sans', 'Bitstream Vera Sans', 'Computer Modern Sans Serif', 'Lucida Grande', 'Verdana', 'Geneva', 'Lucid', 'Arial', 'Helvetica', 'Avant Garde', sans-serif; text-anchor: middle" x="127.450694" y="260.537188" transform="rotate(-0 127.450694 260.537188)">6500</text>
     </g>
    </g>
    <g id="xtick_4">
     <g id="line2d_4">
      <g>
       <use xlink:href="#m9a98e17114" x="164.947199" y="245.93875" style="stroke: #000000; stroke-width: 0.8"/>
      </g>
     </g>
     <g id="text_4">
      <text style="font: 10px 'DejaVu Sans', 'Bitstream Vera Sans', 'Computer Modern Sans Serif', 'Lucida Grande', 'Verdana', 'Geneva', 'Lucid', 'Arial', 'Helvetica', 'Avant Garde', sans-serif; text-anchor: middle" x="164.947199" y="260.537188" transform="rotate(-0 164.947199 260.537188)">7000</text>
     </g>
    </g>
    <g id="xtick_5">
     <g id="line2d_5">
      <g>
       <use xlink:href="#m9a98e17114" x="202.443703" y="245.93875" style="stroke: #000000; stroke-width: 0.8"/>
      </g>
     </g>
     <g id="text_5">
      <text style="font: 10px 'DejaVu Sans', 'Bitstream Vera Sans', 'Computer Modern Sans Serif', 'Lucida Grande', 'Verdana', 'Geneva', 'Lucid', 'Arial', 'Helvetica', 'Avant Garde', sans-serif; text-anchor: middle" x="202.443703" y="260.537188" transform="rotate(-0 202.443703 260.537188)">7500</text>
     </g>
    </g>
    <g id="xtick_6">
     <g id="line2d_6">
      <g>
       <use xlink:href="#m9a98e17114" x="239.940207" y="245.93875" style="stroke: #000000; stroke-width: 0.8"/>
      </g>
     </g>
     <g id="text_6">
      <text style="font: 10px 'DejaVu Sans', 'Bitstream Vera Sans', 'Computer Modern Sans Serif', 'Lucida Grande', 'Verdana', 'Geneva', 'Lucid', 'Arial', 'Helvetica', 'Avant Garde', sans-serif; text-anchor: middle" x="239.940207" y="260.537188" transform="rotate(-0 239.940207 260.537188)">8000</text>
     </g>
    </g>
    <g id="text_7">
     <text style="font: 10px 'DejaVu Sans', 'Bitstream Vera Sans', 'Computer Modern Sans Serif', 'Lucida Grande', 'Verdana', 'Geneva', 'Lucid', 'Arial', 'Helvetica', 'Avant Garde', sans-serif; text-anchor: middle" x="158.705625" y="274.215312" transform="rotate(-0 158.705625 274.215312)">Average_length</text>
    </g>
   </g>
   <g id="matplotlib.axis_2">
    <g id="ytick_1">
     <g id="line2d_7">
      <defs>
       <path id="me92e1ca37a" d="M 0 0 
L -3.5 0 
" style="stroke: #000000; stroke-width: 0.8"/>
      </defs>
      <g>
       <use xlink:href="#me92e1ca37a" x="50.97125" y="212.63856" style="stroke: #000000; stroke-width: 0.8"/>
      </g>
     </g>
     <g id="text_8">
      <text style="font: 10px 'DejaVu Sans', 'Bitstream Vera Sans', 'Computer Modern Sans Serif', 'Lucida Grande', 'Verdana', 'Geneva', 'Lucid', 'Arial', 'Helvetica', 'Avant Garde', sans-serif; text-anchor: end" x="43.97125" y="216.437779" transform="rotate(-0 43.97125 216.437779)">50</text>
     </g>
    </g>
    <g id="ytick_2">
     <g id="line2d_8">
      <g>
       <use xlink:href="#me92e1ca37a" x="50.97125" y="174.438853" style="stroke: #000000; stroke-width: 0.8"/>
      </g>
     </g>
     <g id="text_9">
      <text style="font: 10px 'DejaVu Sans', 'Bitstream Vera Sans', 'Computer Modern Sans Serif', 'Lucida Grande', 'Verdana', 'Geneva', 'Lucid', 'Arial', 'Helvetica', 'Avant Garde', sans-serif; text-anchor: end" x="43.97125" y="178.238072" transform="rotate(-0 43.97125 178.238072)">100</text>
     </g>
    </g>
    <g id="ytick_3">
     <g id="line2d_9">
      <g>
       <use xlink:href="#me92e1ca37a" x="50.97125" y="136.239146" style="stroke: #000000; stroke-width: 0.8"/>
      </g>
     </g>
     <g id="text_10">
      <text style="font: 10px 'DejaVu Sans', 'Bitstream Vera Sans', 'Computer Modern Sans Serif', 'Lucida Grande', 'Verdana', 'Geneva', 'Lucid', 'Arial', 'Helvetica', 'Avant Garde', sans-serif; text-anchor: end" x="43.97125" y="140.038364" transform="rotate(-0 43.97125 140.038364)">150</text>
     </g>
    </g>
    <g id="ytick_4">
     <g id="line2d_10">
      <g>
       <use xlink:href="#me92e1ca37a" x="50.97125" y="98.039438" style="stroke: #000000; stroke-width: 0.8"/>
      </g>
     </g>
     <g id="text_11">
      <text style="font: 10px 'DejaVu Sans', 'Bitstream Vera Sans', 'Computer Modern Sans Serif', 'Lucida Grande', 'Verdana', 'Geneva', 'Lucid', 'Arial', 'Helvetica', 'Avant Garde', sans-serif; text-anchor: end" x="43.97125" y="101.838657" transform="rotate(-0 43.97125 101.838657)">200</text>
     </g>
    </g>
    <g id="ytick_5">
     <g id="line2d_11">
      <g>
       <use xlink:href="#me92e1ca37a" x="50.97125" y="59.839731" style="stroke: #000000; stroke-width: 0.8"/>
      </g>
     </g>
     <g id="text_12">
      <text style="font: 10px 'DejaVu Sans', 'Bitstream Vera Sans', 'Computer Modern Sans Serif', 'Lucida Grande', 'Verdana', 'Geneva', 'Lucid', 'Arial', 'Helvetica', 'Avant Garde', sans-serif; text-anchor: end" x="43.97125" y="63.63895" transform="rotate(-0 43.97125 63.63895)">250</text>
     </g>
    </g>
    <g id="text_13">
     <text style="font: 10px 'DejaVu Sans', 'Bitstream Vera Sans', 'Computer Modern Sans Serif', 'Lucida Grande', 'Verdana', 'Geneva', 'Lucid', 'Arial', 'Helvetica', 'Avant Garde', sans-serif; text-anchor: middle" x="18.525938" y="135.329375" transform="rotate(-90 18.525938 135.329375)">Average_divergence_all</text>
    </g>
   </g>
   <g id="line2d_12"/>
   <g id="line2d_13"/>
   <g id="line2d_14"/>
   <g id="line2d_15"/>
   <g id="line2d_16"/>
   <g id="line2d_17">
    <path d="M 60.765284 147.73442 
L 62.743877 146.71962 
L 64.72247 145.70482 
L 66.701062 144.69002 
L 68.679655 143.67522 
L 70.658248 142.66042 
L 72.636841 141.645619 
L 74.615433 140.630819 
L 76.594026 139.616019 
L 78.572619 138.601219 
L 80.551212 137.586419 
L 82.529804 136.571618 
L 84.508397 135.556818 
L 86.48699 134.542018 
L 88.465583 133.527218 
L 90.444175 132.512418 
L 92.422768 131.497618 
L 94.401361 130.482817 
L 96.379954 129.468017 
L 98.358546 128.453217 
L 100.337139 127.438417 
L 102.315732 126.423617 
L 104.294324 125.408816 
L 106.272917 124.394016 
L 108.25151 123.379216 
L 110.230103 122.364416 
L 112.208695 121.349616 
L 114.187288 120.334816 
L 116.165881 119.320015 
L 118.144474 118.305215 
L 120.123066 117.290415 
L 122.101659 116.275615 
L 124.080252 115.260815 
L 126.058845 114.246014 
L 128.037437 113.231214 
L 130.01603 112.216414 
L 131.994623 111.201614 
L 133.973216 110.186814 
L 135.951808 109.172014 
L 137.930401 108.157213 
L 139.908994 107.142413 
L 141.887587 106.127613 
L 143.866179 105.112813 
L 145.844772 104.098013 
L 147.823365 103.083212 
L 149.801958 102.068412 
L 151.78055 101.053612 
L 153.759143 100.038812 
L 155.737736 99.024012 
L 157.716329 98.009212 
L 159.694921 96.994411 
L 161.673514 95.979611 
L 163.652107 94.964811 
L 165.6307 93.950011 
L 167.609292 92.935211 
L 169.587885 91.920411 
L 171.566478 90.90561 
L 173.545071 89.89081 
L 175.523663 88.87601 
L 177.502256 87.86121 
L 179.480849 86.84641 
L 181.459442 85.831609 
L 183.438034 84.816809 
L 185.416627 83.802009 
L 187.39522 82.787209 
L 189.373813 81.772409 
L 191.352405 80.757609 
L 193.330998 79.742808 
L 195.309591 78.728008 
L 197.288184 77.713208 
L 199.266776 76.698408 
L 201.245369 75.683608 
L 203.223962 74.668807 
L 205.202555 73.654007 
L 207.181147 72.639207 
L 209.15974 71.624407 
L 211.138333 70.609607 
L 213.116926 69.594807 
L 215.095518 68.580006 
L 217.074111 67.565206 
L 219.052704 66.550406 
L 221.031296 65.535606 
L 223.009889 64.520806 
L 224.988482 63.506005 
L 226.967075 62.491205 
L 228.945667 61.476405 
L 230.92426 60.461605 
L 232.902853 59.446805 
L 234.881446 58.432005 
L 236.860038 57.417204 
L 238.838631 56.402404 
L 240.817224 55.387604 
L 242.795817 54.372804 
L 244.774409 53.358004 
L 246.753002 52.343203 
L 248.731595 51.328403 
L 250.710188 50.313603 
L 252.68878 49.298803 
L 254.667373 48.284003 
L 256.645966 47.269203 
" clip-path="url(#p7ea2eed920)" style="fill: none; stroke: #000000; stroke-width: 1.5; stroke-linecap: square"/>
   </g>
   <g id="patch_3">
    <path d="M 50.97125 245.93875 
L 50.97125 24.72 
" style="fill: none; stroke: #000000; stroke-width: 0.8; stroke-linejoin: miter; stroke-linecap: square"/>
   </g>
   <g id="patch_4">
    <path d="M 266.44 245.93875 
L 266.44 24.72 
" style="fill: none; stroke: #000000; stroke-width: 0.8; stroke-linejoin: miter; stroke-linecap: square"/>
   </g>
   <g id="patch_5">
    <path d="M 50.97125 245.93875 
L 266.44 245.93875 
" style="fill: none; stroke: #000000; stroke-width: 0.8; stroke-linejoin: miter; stroke-linecap: square"/>
   </g>
   <g id="patch_6">
    <path d="M 50.97125 24.72 
L 266.44 24.72 
" style="fill: none; stroke: #000000; stroke-width: 0.8; stroke-linejoin: miter; stroke-linecap: square"/>
   </g>
   <g id="text_14">
    <g id="patch_7">
     <path d="M 61.744688 59.069281 
L 137.987344 59.069281 
Q 142.487344 59.069281 142.487344 54.569281 
L 142.487344 35.780937 
Q 142.487344 31.280937 137.987344 31.280937 
L 61.744688 31.280937 
Q 57.244688 31.280937 57.244688 35.780937 
L 57.244688 54.569281 
Q 57.244688 59.069281 61.744688 59.069281 
z
" style="fill: #ffffff; opacity: 0.8; stroke: #000000; stroke-linejoin: miter"/>
    </g>
    <text style="font: 9px 'DejaVu Sans', 'Bitstream Vera Sans', 'Computer Modern Sans Serif', 'Lucida Grande', 'Verdana', 'Geneva', 'Lucid', 'Arial', 'Helvetica', 'Avant Garde', sans-serif" transform="translate(61.744688 42.619531)">Pearson R: 0.408</text>
    <text style="font: 9px 'DejaVu Sans', 'Bitstream Vera Sans', 'Computer Modern Sans Serif', 'Lucida Grande', 'Verdana', 'Geneva', 'Lucid', 'Arial', 'Helvetica', 'Avant Garde', sans-serif" transform="translate(61.744688 52.697563)">p &lt; 0.001</text>
   </g>
   <g id="text_15">
    <text style="font: 10px 'DejaVu Sans', 'Bitstream Vera Sans', 'Computer Modern Sans Serif', 'Lucida Grande', 'Verdana', 'Geneva', 'Lucid', 'Arial', 'Helvetica', 'Avant Garde', sans-serif; text-anchor: middle" x="158.705625" y="18.72" transform="rotate(-0 158.705625 18.72)">Average_divergence_all vs Average_length</text>
   </g>
   <g id="legend_1">
    <g id="patch_8">
     <path d="M 273.44 181.002813 
L 415.630625 181.002813 
Q 417.630625 181.002813 417.630625 179.002813 
L 417.630625 91.655937 
Q 417.630625 89.655937 415.630625 89.655937 
L 273.44 89.655937 
Q 271.44 89.655937 271.44 91.655937 
L 271.44 179.002813 
Q 271.44 181.002813 273.44 181.002813 
z
" style="fill: #ffffff; opacity: 0.8; stroke: #cccccc; stroke-linejoin: miter"/>
    </g>
    <g id="line2d_18"/>
    <g id="text_16">
     <text style="font: 10px 'DejaVu Sans', 'Bitstream Vera Sans', 'Computer Modern Sans Serif', 'Lucida Grande', 'Verdana', 'Geneva', 'Lucid', 'Arial', 'Helvetica', 'Avant Garde', sans-serif; text-anchor: start" x="303.44" y="101.254375" transform="rotate(-0 303.44 101.254375)">class_name</text>
    </g>
    <g id="line2d_19">
     <defs>
      <path id="mf5caa94b9f" d="M 0 3 
C 0.795609 3 1.55874 2.683901 2.12132 2.12132 
C 2.683901 1.55874 3 0.795609 3 0 
C 3 -0.795609 2.683901 -1.55874 2.12132 -2.12132 
C 1.55874 -2.683901 0.795609 -3 0 -3 
C -0.795609 -3 -1.55874 -2.683901 -2.12132 -2.12132 
C -2.683901 -1.55874 -3 -0.795609 -3 0 
C -3 0.795609 -2.683901 1.55874 -2.12132 2.12132 
C -1.55874 2.683901 -0.795609 3 0 3 
z
" style="stroke: #ffffff; stroke-opacity: 0.5; stroke-width: 0.48"/>
     </defs>
     <g>
      <use xlink:href="#mf5caa94b9f" x="285.44" y="112.710625" style="fill: #cc660b; fill-opacity: 0.5; stroke: #ffffff; stroke-opacity: 0.5; stroke-width: 0.48"/>
     </g>
    </g>
    <g id="text_17">
     <text style="font: 10px 'DejaVu Sans', 'Bitstream Vera Sans', 'Computer Modern Sans Serif', 'Lucida Grande', 'Verdana', 'Geneva', 'Lucid', 'Arial', 'Helvetica', 'Avant Garde', sans-serif; text-anchor: start" x="303.44" y="116.210625" transform="rotate(-0 303.44 116.210625)">LINE</text>
    </g>
    <g id="line2d_20"/>
    <g id="text_18">
     <text style="font: 10px 'DejaVu Sans', 'Bitstream Vera Sans', 'Computer Modern Sans Serif', 'Lucida Grande', 'Verdana', 'Geneva', 'Lucid', 'Arial', 'Helvetica', 'Avant Garde', sans-serif; text-anchor: start" x="303.44" y="130.88875" transform="rotate(-0 303.44 130.88875)">Status</text>
    </g>
    <g id="line2d_21">
     <defs>
      <path id="m96e904b92a" d="M 0 3 
C 0.795609 3 1.55874 2.683901 2.12132 2.12132 
C 2.683901 1.55874 3 0.795609 3 0 
C 3 -0.795609 2.683901 -1.55874 2.12132 -2.12132 
C 1.55874 -2.683901 0.795609 -3 0 -3 
C -0.795609 -3 -1.55874 -2.683901 -2.12132 -2.12132 
C -2.683901 -1.55874 -3 -0.795609 -3 0 
C -3 0.795609 -2.683901 1.55874 -2.12132 2.12132 
C -1.55874 2.683901 -0.795609 3 0 3 
z
" style="stroke: #ffffff; stroke-opacity: 0.5; stroke-width: 0.48"/>
     </defs>
     <g>
      <use xlink:href="#m96e904b92a" x="285.44" y="142.066875" style="fill: #333333; fill-opacity: 0.5; stroke: #ffffff; stroke-opacity: 0.5; stroke-width: 0.48"/>
     </g>
    </g>
    <g id="text_19">
     <text style="font: 10px 'DejaVu Sans', 'Bitstream Vera Sans', 'Computer Modern Sans Serif', 'Lucida Grande', 'Verdana', 'Geneva', 'Lucid', 'Arial', 'Helvetica', 'Avant Garde', sans-serif; text-anchor: start" x="303.44" y="145.566875" transform="rotate(-0 303.44 145.566875)">Significant</text>
    </g>
    <g id="line2d_22">
     <defs>
      <path id="mead7a7335a" d="M -1.5 3 
L 0 1.5 
L 1.5 3 
L 3 1.5 
L 1.5 0 
L 3 -1.5 
L 1.5 -3 
L 0 -1.5 
L -1.5 -3 
L -3 -1.5 
L -1.5 0 
L -3 1.5 
z
" style="stroke: #ffffff; stroke-opacity: 0.5; stroke-width: 0.48; stroke-linejoin: miter"/>
     </defs>
     <g>
      <use xlink:href="#mead7a7335a" x="285.44" y="156.745" style="fill: #333333; fill-opacity: 0.5; stroke: #ffffff; stroke-opacity: 0.5; stroke-width: 0.48; stroke-linejoin: miter"/>
     </g>
    </g>
    <g id="text_20">
     <text style="font: 10px 'DejaVu Sans', 'Bitstream Vera Sans', 'Computer Modern Sans Serif', 'Lucida Grande', 'Verdana', 'Geneva', 'Lucid', 'Arial', 'Helvetica', 'Avant Garde', sans-serif; text-anchor: start" x="303.44" y="160.245" transform="rotate(-0 303.44 160.245)">Non-Significant</text>
    </g>
    <g id="line2d_23">
     <path d="M 275.44 171.423125 
L 285.44 171.423125 
L 295.44 171.423125 
" style="fill: none; stroke: #000000; stroke-width: 1.5; stroke-linecap: square"/>
    </g>
    <g id="text_21">
     <text style="font: 10px 'DejaVu Sans', 'Bitstream Vera Sans', 'Computer Modern Sans Serif', 'Lucida Grande', 'Verdana', 'Geneva', 'Lucid', 'Arial', 'Helvetica', 'Avant Garde', sans-serif; text-anchor: start" x="303.44" y="174.923125" transform="rotate(-0 303.44 174.923125)">Linear Trend (R=0.41)</text>
    </g>
   </g>
  </g>
 </g>
 <defs>
  <clipPath id="p7ea2eed920">
   <rect x="50.97125" y="24.72" width="215.46875" height="221.21875"/>
  </clipPath>
 </defs>
</svg>
