<?xml version="1.0" encoding="utf-8" standalone="no"?>
<!DOCTYPE svg PUBLIC "-//W3C//DTD SVG 1.1//EN"
  "http://www.w3.org/Graphics/SVG/1.1/DTD/svg11.dtd">
<svg xmlns:xlink="http://www.w3.org/1999/xlink" width="504pt" height="288pt" viewBox="0 0 504 288" xmlns="http://www.w3.org/2000/svg" version="1.1">
 <metadata>
  <rdf:RDF xmlns:dc="http://purl.org/dc/elements/1.1/" xmlns:cc="http://creativecommons.org/ns#" xmlns:rdf="http://www.w3.org/1999/02/22-rdf-syntax-ns#">
   <cc:Work>
    <dc:type rdf:resource="http://purl.org/dc/dcmitype/StillImage"/>
    <dc:date>2025-12-18T18:11:18.942508</dc:date>
    <dc:format>image/svg+xml</dc:format>
    <dc:creator>
     <cc:Agent>
      <dc:title>Matplotlib v3.8.4, https://matplotlib.org/</dc:title>
     </cc:Agent>
    </dc:creator>
   </cc:Work>
  </rdf:RDF>
 </metadata>
 <defs>
  <style type="text/css">*{stroke-linejoin: round; stroke-linecap: butt}</style>
 </defs>
 <g id="figure_1">
  <g id="patch_1">
   <path d="M 0 288 
L 504 288 
L 504 0 
L 0 0 
L 0 288 
z
" style="fill: none"/>
  </g>
  <g id="axes_1">
   <g id="patch_2">
    <path d="M 50.97125 245.93875 
L 266.44 245.93875 
L 266.44 24.72 
L 50.97125 24.72 
L 50.97125 245.93875 
z
" style="fill: none"/>
   </g>
   <g id="PathCollection_1">
    <defs>
     <path id="C0_0_bf674f8d10" d="M 0 3 
C 0.795609 3 1.55874 2.683901 2.12132 2.12132 
C 2.683901 1.55874 3 0.795609 3 -0 
C 3 -0.795609 2.683901 -1.55874 2.12132 -2.12132 
C 1.55874 -2.683901 0.795609 -3 0 -3 
C -0.795609 -3 -1.55874 -2.683901 -2.12132 -2.12132 
C -2.683901 -1.55874 -3 -0.795609 -3 0 
C -3 0.795609 -2.683901 1.55874 -2.12132 2.12132 
C -1.55874 2.683901 -0.795609 3 0 3 
z
"/>
    </defs>
    <g clip-path="url(#p166ad8704f)">
     <use xlink:href="#C0_0_bf674f8d10" x="218.122879" y="77.017497" style="fill: #195f90; stroke: #ffffff; stroke-width: 0.48"/>
    </g>
    <g clip-path="url(#p166ad8704f)">
     <use xlink:href="#C0_0_bf674f8d10" x="179.652355" y="133.400365" style="fill: #195f90; stroke: #ffffff; stroke-width: 0.48"/>
    </g>
    <g clip-path="url(#p166ad8704f)">
     <use xlink:href="#C0_0_bf674f8d10" x="182.829304" y="34.775398" style="fill: #195f90; stroke: #ffffff; stroke-width: 0.48"/>
    </g>
    <g clip-path="url(#p166ad8704f)">
     <use xlink:href="#C0_0_bf674f8d10" x="217.585501" y="88.200788" style="fill: #195f90; stroke: #ffffff; stroke-width: 0.48"/>
    </g>
    <g clip-path="url(#p166ad8704f)">
     <use xlink:href="#C0_0_bf674f8d10" x="216.81426" y="68.749282" style="fill: #195f90; stroke: #ffffff; stroke-width: 0.48"/>
    </g>
    <g clip-path="url(#p166ad8704f)">
     <use xlink:href="#C0_0_bf674f8d10" x="220.31236" y="93.076915" style="fill: #195f90; stroke: #ffffff; stroke-width: 0.48"/>
    </g>
    <g clip-path="url(#p166ad8704f)">
     <use xlink:href="#C0_0_bf674f8d10" x="204.255518" y="119.860279" style="fill: #195f90; stroke: #ffffff; stroke-width: 0.48"/>
    </g>
    <g clip-path="url(#p166ad8704f)">
     <use xlink:href="#C0_0_bf674f8d10" x="205.652992" y="81.570797" style="fill: #195f90; stroke: #ffffff; stroke-width: 0.48"/>
    </g>
    <g clip-path="url(#p166ad8704f)">
     <use xlink:href="#C0_0_bf674f8d10" x="210.464304" y="82.603843" style="fill: #195f90; stroke: #ffffff; stroke-width: 0.48"/>
    </g>
    <g clip-path="url(#p166ad8704f)">
     <use xlink:href="#C0_0_bf674f8d10" x="165.692687" y="124.322785" style="fill: #70453c; stroke: #ffffff; stroke-width: 0.48"/>
    </g>
    <g clip-path="url(#p166ad8704f)">
     <use xlink:href="#C0_0_bf674f8d10" x="192.259856" y="106.019395" style="fill: #70453c; stroke: #ffffff; stroke-width: 0.48"/>
    </g>
    <g clip-path="url(#p166ad8704f)">
     <use xlink:href="#C0_0_bf674f8d10" x="96.79738" y="190.343901" style="fill: #195f90; stroke: #ffffff; stroke-width: 0.48"/>
    </g>
    <g clip-path="url(#p166ad8704f)">
     <use xlink:href="#C0_0_bf674f8d10" x="230.887417" y="75.871852" style="fill: #cc660b; stroke: #ffffff; stroke-width: 0.48"/>
    </g>
    <g clip-path="url(#p166ad8704f)">
     <use xlink:href="#C0_0_bf674f8d10" x="147.611074" y="137.954083" style="fill: #195f90; stroke: #ffffff; stroke-width: 0.48"/>
    </g>
    <g clip-path="url(#p166ad8704f)">
     <use xlink:href="#C0_0_bf674f8d10" x="229.493896" y="68.959784" style="fill: #70453c; stroke: #ffffff; stroke-width: 0.48"/>
    </g>
    <g clip-path="url(#p166ad8704f)">
     <use xlink:href="#C0_0_bf674f8d10" x="183.019263" y="109.684014" style="fill: #195f90; stroke: #ffffff; stroke-width: 0.48"/>
    </g>
    <g clip-path="url(#p166ad8704f)">
     <use xlink:href="#C0_0_bf674f8d10" x="213.083276" y="85.465532" style="fill: #195f90; stroke: #ffffff; stroke-width: 0.48"/>
    </g>
    <g clip-path="url(#p166ad8704f)">
     <use xlink:href="#C0_0_bf674f8d10" x="222.972902" y="77.441202" style="fill: #238023; stroke: #ffffff; stroke-width: 0.48"/>
    </g>
    <g clip-path="url(#p166ad8704f)">
     <use xlink:href="#C0_0_bf674f8d10" x="120.947756" y="168.2321" style="fill: #195f90; stroke: #ffffff; stroke-width: 0.48"/>
    </g>
    <g clip-path="url(#p166ad8704f)">
     <use xlink:href="#C0_0_bf674f8d10" x="169.125938" y="123.037181" style="fill: #195f90; stroke: #ffffff; stroke-width: 0.48"/>
    </g>
    <g clip-path="url(#p166ad8704f)">
     <use xlink:href="#C0_0_bf674f8d10" x="196.729635" y="99.052188" style="fill: #195f90; stroke: #ffffff; stroke-width: 0.48"/>
    </g>
    <g clip-path="url(#p166ad8704f)">
     <use xlink:href="#C0_0_bf674f8d10" x="183.826869" y="116.892415" style="fill: #195f90; stroke: #ffffff; stroke-width: 0.48"/>
    </g>
    <g clip-path="url(#p166ad8704f)">
     <use xlink:href="#C0_0_bf674f8d10" x="228.305227" y="58.928883" style="fill: #ab1f20; stroke: #ffffff; stroke-width: 0.48"/>
    </g>
    <g clip-path="url(#p166ad8704f)">
     <use xlink:href="#C0_0_bf674f8d10" x="256.645966" y="40.523282" style="fill: #ab1f20; stroke: #ffffff; stroke-width: 0.48"/>
    </g>
    <g clip-path="url(#p166ad8704f)">
     <use xlink:href="#C0_0_bf674f8d10" x="127.725039" y="169.93111" style="fill: #70453c; stroke: #ffffff; stroke-width: 0.48"/>
    </g>
    <g clip-path="url(#p166ad8704f)">
     <use xlink:href="#C0_0_bf674f8d10" x="209.048404" y="90.466404" style="fill: #195f90; stroke: #ffffff; stroke-width: 0.48"/>
    </g>
    <g clip-path="url(#p166ad8704f)">
     <use xlink:href="#C0_0_bf674f8d10" x="188.807259" y="108.527343" style="fill: #195f90; stroke: #ffffff; stroke-width: 0.48"/>
    </g>
    <g clip-path="url(#p166ad8704f)">
     <use xlink:href="#C0_0_bf674f8d10" x="217.017419" y="81.510836" style="fill: #cc660b; stroke: #ffffff; stroke-width: 0.48"/>
    </g>
    <g clip-path="url(#p166ad8704f)">
     <use xlink:href="#C0_0_bf674f8d10" x="239.077118" y="58.372534" style="fill: #cc660b; stroke: #ffffff; stroke-width: 0.48"/>
    </g>
    <g clip-path="url(#p166ad8704f)">
     <use xlink:href="#C0_0_bf674f8d10" x="241.838214" y="76.712964" style="fill: #ab1f20; stroke: #ffffff; stroke-width: 0.48"/>
    </g>
    <g clip-path="url(#p166ad8704f)">
     <use xlink:href="#C0_0_bf674f8d10" x="149.834687" y="133.54803" style="fill: #cc660b; stroke: #ffffff; stroke-width: 0.48"/>
    </g>
    <g clip-path="url(#p166ad8704f)">
     <use xlink:href="#C0_0_bf674f8d10" x="208.59676" y="89.411807" style="fill: #195f90; stroke: #ffffff; stroke-width: 0.48"/>
    </g>
    <g clip-path="url(#p166ad8704f)">
     <use xlink:href="#C0_0_bf674f8d10" x="232.670045" y="69.400508" style="fill: #cc660b; stroke: #ffffff; stroke-width: 0.48"/>
    </g>
    <g clip-path="url(#p166ad8704f)">
     <use xlink:href="#C0_0_bf674f8d10" x="224.796141" y="81.164126" style="fill: #ab1f20; stroke: #ffffff; stroke-width: 0.48"/>
    </g>
    <g clip-path="url(#p166ad8704f)">
     <use xlink:href="#C0_0_bf674f8d10" x="191.734344" y="101.224994" style="fill: #cc660b; stroke: #ffffff; stroke-width: 0.48"/>
    </g>
    <g clip-path="url(#p166ad8704f)">
     <use xlink:href="#C0_0_bf674f8d10" x="60.765284" y="235.883352" style="fill: #70453c; stroke: #ffffff; stroke-width: 0.48"/>
    </g>
    <g clip-path="url(#p166ad8704f)">
     <use xlink:href="#C0_0_bf674f8d10" x="251.822567" y="51.715947" style="fill: #cc660b; stroke: #ffffff; stroke-width: 0.48"/>
    </g>
    <g clip-path="url(#p166ad8704f)">
     <use xlink:href="#C0_0_bf674f8d10" x="232.476181" y="67.443102" style="fill: #ab1f20; stroke: #ffffff; stroke-width: 0.48"/>
    </g>
    <g clip-path="url(#p166ad8704f)">
     <use xlink:href="#C0_0_bf674f8d10" x="212.161712" y="82.744745" style="fill: #195f90; stroke: #ffffff; stroke-width: 0.48"/>
    </g>
    <g clip-path="url(#p166ad8704f)">
     <use xlink:href="#C0_0_bf674f8d10" x="244.397209" y="54.78949" style="fill: #cc660b; stroke: #ffffff; stroke-width: 0.48"/>
    </g>
    <g clip-path="url(#p166ad8704f)">
     <use xlink:href="#C0_0_bf674f8d10" x="98.021605" y="195.834588" style="fill: #ab1f20; stroke: #ffffff; stroke-width: 0.48"/>
    </g>
    <g clip-path="url(#p166ad8704f)">
     <use xlink:href="#C0_0_bf674f8d10" x="130.565334" y="145.311813" style="fill: #765297; stroke: #ffffff; stroke-width: 0.48"/>
    </g>
    <g clip-path="url(#p166ad8704f)">
     <use xlink:href="#C0_0_bf674f8d10" x="181.682302" y="130.062241" style="fill: #195f90; stroke: #ffffff; stroke-width: 0.48"/>
    </g>
    <g clip-path="url(#p166ad8704f)">
     <use xlink:href="#C0_0_bf674f8d10" x="241.311644" y="58.223345" style="fill: #cc660b; stroke: #ffffff; stroke-width: 0.48"/>
    </g>
   </g>
   <g id="matplotlib.axis_1">
    <g id="xtick_1">
     <g id="line2d_1">
      <defs>
       <path id="mdb8fb1a7fe" d="M 0 0 
L 0 3.5 
" style="stroke: #000000; stroke-width: 0.8"/>
      </defs>
      <g>
       <use xlink:href="#mdb8fb1a7fe" x="73.322178" y="245.93875" style="stroke: #000000; stroke-width: 0.8"/>
      </g>
     </g>
     <g id="text_1">
      <text style="font: 10px 'DejaVu Sans', 'Bitstream Vera Sans', 'Computer Modern Sans Serif', 'Lucida Grande', 'Verdana', 'Geneva', 'Lucid', 'Arial', 'Helvetica', 'Avant Garde', sans-serif; text-anchor: middle" x="73.322178" y="260.537188" transform="rotate(-0 73.322178 260.537188)">100</text>
     </g>
    </g>
    <g id="xtick_2">
     <g id="line2d_2">
      <g>
       <use xlink:href="#mdb8fb1a7fe" x="116.700881" y="245.93875" style="stroke: #000000; stroke-width: 0.8"/>
      </g>
     </g>
     <g id="text_2">
      <text style="font: 10px 'DejaVu Sans', 'Bitstream Vera Sans', 'Computer Modern Sans Serif', 'Lucida Grande', 'Verdana', 'Geneva', 'Lucid', 'Arial', 'Helvetica', 'Avant Garde', sans-serif; text-anchor: middle" x="116.700881" y="260.537188" transform="rotate(-0 116.700881 260.537188)">150</text>
     </g>
    </g>
    <g id="xtick_3">
     <g id="line2d_3">
      <g>
       <use xlink:href="#mdb8fb1a7fe" x="160.079585" y="245.93875" style="stroke: #000000; stroke-width: 0.8"/>
      </g>
     </g>
     <g id="text_3">
      <text style="font: 10px 'DejaVu Sans', 'Bitstream Vera Sans', 'Computer Modern Sans Serif', 'Lucida Grande', 'Verdana', 'Geneva', 'Lucid', 'Arial', 'Helvetica', 'Avant Garde', sans-serif; text-anchor: middle" x="160.079585" y="260.537188" transform="rotate(-0 160.079585 260.537188)">200</text>
     </g>
    </g>
    <g id="xtick_4">
     <g id="line2d_4">
      <g>
       <use xlink:href="#mdb8fb1a7fe" x="203.458288" y="245.93875" style="stroke: #000000; stroke-width: 0.8"/>
      </g>
     </g>
     <g id="text_4">
      <text style="font: 10px 'DejaVu Sans', 'Bitstream Vera Sans', 'Computer Modern Sans Serif', 'Lucida Grande', 'Verdana', 'Geneva', 'Lucid', 'Arial', 'Helvetica', 'Avant Garde', sans-serif; text-anchor: middle" x="203.458288" y="260.537188" transform="rotate(-0 203.458288 260.537188)">250</text>
     </g>
    </g>
    <g id="xtick_5">
     <g id="line2d_5">
      <g>
       <use xlink:href="#mdb8fb1a7fe" x="246.836991" y="245.93875" style="stroke: #000000; stroke-width: 0.8"/>
      </g>
     </g>
     <g id="text_5">
      <text style="font: 10px 'DejaVu Sans', 'Bitstream Vera Sans', 'Computer Modern Sans Serif', 'Lucida Grande', 'Verdana', 'Geneva', 'Lucid', 'Arial', 'Helvetica', 'Avant Garde', sans-serif; text-anchor: middle" x="246.836991" y="260.537188" transform="rotate(-0 246.836991 260.537188)">300</text>
     </g>
    </g>
    <g id="text_6">
     <text style="font: 10px 'DejaVu Sans', 'Bitstream Vera Sans', 'Computer Modern Sans Serif', 'Lucida Grande', 'Verdana', 'Geneva', 'Lucid', 'Arial', 'Helvetica', 'Avant Garde', sans-serif; text-anchor: middle" x="158.705625" y="274.215312" transform="rotate(-0 158.705625 274.215312)">Average_divergence_all</text>
    </g>
   </g>
   <g id="matplotlib.axis_2">
    <g id="ytick_1">
     <g id="line2d_6">
      <defs>
       <path id="m828581980a" d="M 0 0 
L -3.5 0 
" style="stroke: #000000; stroke-width: 0.8"/>
      </defs>
      <g>
       <use xlink:href="#m828581980a" x="50.97125" y="216.252121" style="stroke: #000000; stroke-width: 0.8"/>
      </g>
     </g>
     <g id="text_7">
      <text style="font: 10px 'DejaVu Sans', 'Bitstream Vera Sans', 'Computer Modern Sans Serif', 'Lucida Grande', 'Verdana', 'Geneva', 'Lucid', 'Arial', 'Helvetica', 'Avant Garde', sans-serif; text-anchor: end" x="43.97125" y="220.05134" transform="rotate(-0 43.97125 220.05134)">100</text>
     </g>
    </g>
    <g id="ytick_2">
     <g id="line2d_7">
      <g>
       <use xlink:href="#m828581980a" x="50.97125" y="173.851017" style="stroke: #000000; stroke-width: 0.8"/>
      </g>
     </g>
     <g id="text_8">
      <text style="font: 10px 'DejaVu Sans', 'Bitstream Vera Sans', 'Computer Modern Sans Serif', 'Lucida Grande', 'Verdana', 'Geneva', 'Lucid', 'Arial', 'Helvetica', 'Avant Garde', sans-serif; text-anchor: end" x="43.97125" y="177.650236" transform="rotate(-0 43.97125 177.650236)">150</text>
     </g>
    </g>
    <g id="ytick_3">
     <g id="line2d_8">
      <g>
       <use xlink:href="#m828581980a" x="50.97125" y="131.449914" style="stroke: #000000; stroke-width: 0.8"/>
      </g>
     </g>
     <g id="text_9">
      <text style="font: 10px 'DejaVu Sans', 'Bitstream Vera Sans', 'Computer Modern Sans Serif', 'Lucida Grande', 'Verdana', 'Geneva', 'Lucid', 'Arial', 'Helvetica', 'Avant Garde', sans-serif; text-anchor: end" x="43.97125" y="135.249133" transform="rotate(-0 43.97125 135.249133)">200</text>
     </g>
    </g>
    <g id="ytick_4">
     <g id="line2d_9">
      <g>
       <use xlink:href="#m828581980a" x="50.97125" y="89.04881" style="stroke: #000000; stroke-width: 0.8"/>
      </g>
     </g>
     <g id="text_10">
      <text style="font: 10px 'DejaVu Sans', 'Bitstream Vera Sans', 'Computer Modern Sans Serif', 'Lucida Grande', 'Verdana', 'Geneva', 'Lucid', 'Arial', 'Helvetica', 'Avant Garde', sans-serif; text-anchor: end" x="43.97125" y="92.848029" transform="rotate(-0 43.97125 92.848029)">250</text>
     </g>
    </g>
    <g id="ytick_5">
     <g id="line2d_10">
      <g>
       <use xlink:href="#m828581980a" x="50.97125" y="46.647707" style="stroke: #000000; stroke-width: 0.8"/>
      </g>
     </g>
     <g id="text_11">
      <text style="font: 10px 'DejaVu Sans', 'Bitstream Vera Sans', 'Computer Modern Sans Serif', 'Lucida Grande', 'Verdana', 'Geneva', 'Lucid', 'Arial', 'Helvetica', 'Avant Garde', sans-serif; text-anchor: end" x="43.97125" y="50.446925" transform="rotate(-0 43.97125 50.446925)">300</text>
     </g>
    </g>
    <g id="text_12">
     <text style="font: 10px 'DejaVu Sans', 'Bitstream Vera Sans', 'Computer Modern Sans Serif', 'Lucida Grande', 'Verdana', 'Geneva', 'Lucid', 'Arial', 'Helvetica', 'Avant Garde', sans-serif; text-anchor: middle" x="18.525938" y="135.329375" transform="rotate(-90 18.525938 135.329375)">Average_divergence_genes</text>
    </g>
   </g>
   <g id="line2d_11"/>
   <g id="line2d_12"/>
   <g id="line2d_13"/>
   <g id="line2d_14"/>
   <g id="line2d_15"/>
   <g id="line2d_16"/>
   <g id="line2d_17">
    <path d="M 60.765284 222.530032 
L 62.743877 220.738014 
L 64.72247 218.945997 
L 66.701062 217.153979 
L 68.679655 215.361962 
L 70.658248 213.569944 
L 72.636841 211.777927 
L 74.615433 209.985909 
L 76.594026 208.193892 
L 78.572619 206.401874 
L 80.551212 204.609857 
L 82.529804 202.817839 
L 84.508397 201.025822 
L 86.48699 199.233804 
L 88.465583 197.441787 
L 90.444175 195.649769 
L 92.422768 193.857752 
L 94.401361 192.065734 
L 96.379954 190.273717 
L 98.358546 188.481699 
L 100.337139 186.689682 
L 102.315732 184.897664 
L 104.294324 183.105647 
L 106.272917 181.313629 
L 108.25151 179.521612 
L 110.230103 177.729594 
L 112.208695 175.937577 
L 114.187288 174.145559 
L 116.165881 172.353542 
L 118.144474 170.561524 
L 120.123066 168.769507 
L 122.101659 166.977489 
L 124.080252 165.185472 
L 126.058845 163.393454 
L 128.037437 161.601437 
L 130.01603 159.809419 
L 131.994623 158.017402 
L 133.973216 156.225384 
L 135.951808 154.433367 
L 137.930401 152.641349 
L 139.908994 150.849332 
L 141.887587 149.057314 
L 143.866179 147.265297 
L 145.844772 145.473279 
L 147.823365 143.681262 
L 149.801958 141.889244 
L 151.78055 140.097227 
L 153.759143 138.305209 
L 155.737736 136.513192 
L 157.716329 134.721174 
L 159.694921 132.929157 
L 161.673514 131.137139 
L 163.652107 129.345122 
L 165.6307 127.553104 
L 167.609292 125.761087 
L 169.587885 123.969069 
L 171.566478 122.177052 
L 173.545071 120.385034 
L 175.523663 118.593017 
L 177.502256 116.800999 
L 179.480849 115.008982 
L 181.459442 113.216964 
L 183.438034 111.424947 
L 185.416627 109.632929 
L 187.39522 107.840912 
L 189.373813 106.048894 
L 191.352405 104.256877 
L 193.330998 102.464859 
L 195.309591 100.672842 
L 197.288184 98.880824 
L 199.266776 97.088807 
L 201.245369 95.296789 
L 203.223962 93.504772 
L 205.202555 91.712754 
L 207.181147 89.920737 
L 209.15974 88.128719 
L 211.138333 86.336702 
L 213.116926 84.544684 
L 215.095518 82.752667 
L 217.074111 80.960649 
L 219.052704 79.168632 
L 221.031296 77.376614 
L 223.009889 75.584597 
L 224.988482 73.792579 
L 226.967075 72.000562 
L 228.945667 70.208544 
L 230.92426 68.416527 
L 232.902853 66.624509 
L 234.881446 64.832492 
L 236.860038 63.040474 
L 238.838631 61.248457 
L 240.817224 59.456439 
L 242.795817 57.664422 
L 244.774409 55.872404 
L 246.753002 54.080387 
L 248.731595 52.288369 
L 250.710188 50.496352 
L 252.68878 48.704334 
L 254.667373 46.912317 
L 256.645966 45.120299 
" clip-path="url(#p166ad8704f)" style="fill: none; stroke: #000000; stroke-width: 1.5; stroke-linecap: square"/>
   </g>
   <g id="patch_3">
    <path d="M 50.97125 245.93875 
L 50.97125 24.72 
" style="fill: none; stroke: #000000; stroke-width: 0.8; stroke-linejoin: miter; stroke-linecap: square"/>
   </g>
   <g id="patch_4">
    <path d="M 266.44 245.93875 
L 266.44 24.72 
" style="fill: none; stroke: #000000; stroke-width: 0.8; stroke-linejoin: miter; stroke-linecap: square"/>
   </g>
   <g id="patch_5">
    <path d="M 50.97125 245.93875 
L 266.44 245.93875 
" style="fill: none; stroke: #000000; stroke-width: 0.8; stroke-linejoin: miter; stroke-linecap: square"/>
   </g>
   <g id="patch_6">
    <path d="M 50.97125 24.72 
L 266.44 24.72 
" style="fill: none; stroke: #000000; stroke-width: 0.8; stroke-linejoin: miter; stroke-linecap: square"/>
   </g>
   <g id="text_13">
    <g id="patch_7">
     <path d="M 61.744688 59.069281 
L 137.987344 59.069281 
Q 142.487344 59.069281 142.487344 54.569281 
L 142.487344 35.780937 
Q 142.487344 31.280937 137.987344 31.280937 
L 61.744688 31.280937 
Q 57.244688 31.280937 57.244688 35.780937 
L 57.244688 54.569281 
Q 57.244688 59.069281 61.744688 59.069281 
z
" style="fill: #ffffff; opacity: 0.8; stroke: #000000; stroke-linejoin: miter"/>
    </g>
    <text style="font: 9px 'DejaVu Sans', 'Bitstream Vera Sans', 'Computer Modern Sans Serif', 'Lucida Grande', 'Verdana', 'Geneva', 'Lucid', 'Arial', 'Helvetica', 'Avant Garde', sans-serif" transform="translate(61.744688 42.619531)">Pearson R: 0.940</text>
    <text style="font: 9px 'DejaVu Sans', 'Bitstream Vera Sans', 'Computer Modern Sans Serif', 'Lucida Grande', 'Verdana', 'Geneva', 'Lucid', 'Arial', 'Helvetica', 'Avant Garde', sans-serif" transform="translate(61.744688 52.697563)">p &lt; 0.001</text>
   </g>
   <g id="text_14">
    <text style="font: 10px 'DejaVu Sans', 'Bitstream Vera Sans', 'Computer Modern Sans Serif', 'Lucida Grande', 'Verdana', 'Geneva', 'Lucid', 'Arial', 'Helvetica', 'Avant Garde', sans-serif; text-anchor: middle" x="158.705625" y="18.72" transform="rotate(-0 158.705625 18.72)">Average_divergence_genes vs Average_divergence_all</text>
   </g>
   <g id="legend_1">
    <g id="patch_8">
     <path d="M 273.44 188.202812 
L 415.630625 188.202812 
Q 417.630625 188.202812 417.630625 186.202812 
L 417.630625 84.455938 
Q 417.630625 82.455938 415.630625 82.455938 
L 273.44 82.455938 
Q 271.44 82.455938 271.44 84.455938 
L 271.44 186.202812 
Q 271.44 188.202812 273.44 188.202812 
z
" style="fill: #ffffff; opacity: 0.8; stroke: #cccccc; stroke-linejoin: miter"/>
    </g>
    <g id="line2d_18">
     <defs>
      <path id="m13588ac9ce" d="M 0 3 
C 0.795609 3 1.55874 2.683901 2.12132 2.12132 
C 2.683901 1.55874 3 0.795609 3 0 
C 3 -0.795609 2.683901 -1.55874 2.12132 -2.12132 
C 1.55874 -2.683901 0.795609 -3 0 -3 
C -0.795609 -3 -1.55874 -2.683901 -2.12132 -2.12132 
C -2.683901 -1.55874 -3 -0.795609 -3 0 
C -3 0.795609 -2.683901 1.55874 -2.12132 2.12132 
C -1.55874 2.683901 -0.795609 3 0 3 
z
" style="stroke: #ffffff; stroke-width: 0.48"/>
     </defs>
     <g>
      <use xlink:href="#m13588ac9ce" x="285.44" y="90.554375" style="fill: #195f90; stroke: #ffffff; stroke-width: 0.48"/>
     </g>
    </g>
    <g id="text_15">
     <text style="font: 10px 'DejaVu Sans', 'Bitstream Vera Sans', 'Computer Modern Sans Serif', 'Lucida Grande', 'Verdana', 'Geneva', 'Lucid', 'Arial', 'Helvetica', 'Avant Garde', sans-serif; text-anchor: start" x="303.44" y="94.054375" transform="rotate(-0 303.44 94.054375)">DNA</text>
    </g>
    <g id="line2d_19">
     <defs>
      <path id="m047892d99e" d="M 0 3 
C 0.795609 3 1.55874 2.683901 2.12132 2.12132 
C 2.683901 1.55874 3 0.795609 3 0 
C 3 -0.795609 2.683901 -1.55874 2.12132 -2.12132 
C 1.55874 -2.683901 0.795609 -3 0 -3 
C -0.795609 -3 -1.55874 -2.683901 -2.12132 -2.12132 
C -2.683901 -1.55874 -3 -0.795609 -3 0 
C -3 0.795609 -2.683901 1.55874 -2.12132 2.12132 
C -1.55874 2.683901 -0.795609 3 0 3 
z
" style="stroke: #ffffff; stroke-width: 0.48"/>
     </defs>
     <g>
      <use xlink:href="#m047892d99e" x="285.44" y="105.2325" style="fill: #70453c; stroke: #ffffff; stroke-width: 0.48"/>
     </g>
    </g>
    <g id="text_16">
     <text style="font: 10px 'DejaVu Sans', 'Bitstream Vera Sans', 'Computer Modern Sans Serif', 'Lucida Grande', 'Verdana', 'Geneva', 'Lucid', 'Arial', 'Helvetica', 'Avant Garde', sans-serif; text-anchor: start" x="303.44" y="108.7325" transform="rotate(-0 303.44 108.7325)">LTR</text>
    </g>
    <g id="line2d_20">
     <defs>
      <path id="m56aaeccd37" d="M 0 3 
C 0.795609 3 1.55874 2.683901 2.12132 2.12132 
C 2.683901 1.55874 3 0.795609 3 0 
C 3 -0.795609 2.683901 -1.55874 2.12132 -2.12132 
C 1.55874 -2.683901 0.795609 -3 0 -3 
C -0.795609 -3 -1.55874 -2.683901 -2.12132 -2.12132 
C -2.683901 -1.55874 -3 -0.795609 -3 0 
C -3 0.795609 -2.683901 1.55874 -2.12132 2.12132 
C -1.55874 2.683901 -0.795609 3 0 3 
z
" style="stroke: #ffffff; stroke-width: 0.48"/>
     </defs>
     <g>
      <use xlink:href="#m56aaeccd37" x="285.44" y="119.910625" style="fill: #cc660b; stroke: #ffffff; stroke-width: 0.48"/>
     </g>
    </g>
    <g id="text_17">
     <text style="font: 10px 'DejaVu Sans', 'Bitstream Vera Sans', 'Computer Modern Sans Serif', 'Lucida Grande', 'Verdana', 'Geneva', 'Lucid', 'Arial', 'Helvetica', 'Avant Garde', sans-serif; text-anchor: start" x="303.44" y="123.410625" transform="rotate(-0 303.44 123.410625)">LINE</text>
    </g>
    <g id="line2d_21">
     <defs>
      <path id="mb378dc8e47" d="M 0 3 
C 0.795609 3 1.55874 2.683901 2.12132 2.12132 
C 2.683901 1.55874 3 0.795609 3 0 
C 3 -0.795609 2.683901 -1.55874 2.12132 -2.12132 
C 1.55874 -2.683901 0.795609 -3 0 -3 
C -0.795609 -3 -1.55874 -2.683901 -2.12132 -2.12132 
C -2.683901 -1.55874 -3 -0.795609 -3 0 
C -3 0.795609 -2.683901 1.55874 -2.12132 2.12132 
C -1.55874 2.683901 -0.795609 3 0 3 
z
" style="stroke: #ffffff; stroke-width: 0.48"/>
     </defs>
     <g>
      <use xlink:href="#mb378dc8e47" x="285.44" y="134.58875" style="fill: #238023; stroke: #ffffff; stroke-width: 0.48"/>
     </g>
    </g>
    <g id="text_18">
     <text style="font: 10px 'DejaVu Sans', 'Bitstream Vera Sans', 'Computer Modern Sans Serif', 'Lucida Grande', 'Verdana', 'Geneva', 'Lucid', 'Arial', 'Helvetica', 'Avant Garde', sans-serif; text-anchor: start" x="303.44" y="138.08875" transform="rotate(-0 303.44 138.08875)">RC</text>
    </g>
    <g id="line2d_22">
     <defs>
      <path id="m9e63a64008" d="M 0 3 
C 0.795609 3 1.55874 2.683901 2.12132 2.12132 
C 2.683901 1.55874 3 0.795609 3 0 
C 3 -0.795609 2.683901 -1.55874 2.12132 -2.12132 
C 1.55874 -2.683901 0.795609 -3 0 -3 
C -0.795609 -3 -1.55874 -2.683901 -2.12132 -2.12132 
C -2.683901 -1.55874 -3 -0.795609 -3 0 
C -3 0.795609 -2.683901 1.55874 -2.12132 2.12132 
C -1.55874 2.683901 -0.795609 3 0 3 
z
" style="stroke: #ffffff; stroke-width: 0.48"/>
     </defs>
     <g>
      <use xlink:href="#m9e63a64008" x="285.44" y="149.266875" style="fill: #ab1f20; stroke: #ffffff; stroke-width: 0.48"/>
     </g>
    </g>
    <g id="text_19">
     <text style="font: 10px 'DejaVu Sans', 'Bitstream Vera Sans', 'Computer Modern Sans Serif', 'Lucida Grande', 'Verdana', 'Geneva', 'Lucid', 'Arial', 'Helvetica', 'Avant Garde', sans-serif; text-anchor: start" x="303.44" y="152.766875" transform="rotate(-0 303.44 152.766875)">SINE</text>
    </g>
    <g id="line2d_23">
     <defs>
      <path id="m2f5eceb77b" d="M 0 3 
C 0.795609 3 1.55874 2.683901 2.12132 2.12132 
C 2.683901 1.55874 3 0.795609 3 0 
C 3 -0.795609 2.683901 -1.55874 2.12132 -2.12132 
C 1.55874 -2.683901 0.795609 -3 0 -3 
C -0.795609 -3 -1.55874 -2.683901 -2.12132 -2.12132 
C -2.683901 -1.55874 -3 -0.795609 -3 0 
C -3 0.795609 -2.683901 1.55874 -2.12132 2.12132 
C -1.55874 2.683901 -0.795609 3 0 3 
z
" style="stroke: #ffffff; stroke-width: 0.48"/>
     </defs>
     <g>
      <use xlink:href="#m2f5eceb77b" x="285.44" y="163.945" style="fill: #765297; stroke: #ffffff; stroke-width: 0.48"/>
     </g>
    </g>
    <g id="text_20">
     <text style="font: 10px 'DejaVu Sans', 'Bitstream Vera Sans', 'Computer Modern Sans Serif', 'Lucida Grande', 'Verdana', 'Geneva', 'Lucid', 'Arial', 'Helvetica', 'Avant Garde', sans-serif; text-anchor: start" x="303.44" y="167.445" transform="rotate(-0 303.44 167.445)">Retroposon</text>
    </g>
    <g id="line2d_24">
     <path d="M 275.44 178.623125 
L 285.44 178.623125 
L 295.44 178.623125 
" style="fill: none; stroke: #000000; stroke-width: 1.5; stroke-linecap: square"/>
    </g>
    <g id="text_21">
     <text style="font: 10px 'DejaVu Sans', 'Bitstream Vera Sans', 'Computer Modern Sans Serif', 'Lucida Grande', 'Verdana', 'Geneva', 'Lucid', 'Arial', 'Helvetica', 'Avant Garde', sans-serif; text-anchor: start" x="303.44" y="182.123125" transform="rotate(-0 303.44 182.123125)">Linear Trend (R=0.94)</text>
    </g>
   </g>
  </g>
 </g>
 <defs>
  <clipPath id="p166ad8704f">
   <rect x="50.97125" y="24.72" width="215.46875" height="221.21875"/>
  </clipPath>
 </defs>
</svg>
