<?xml version="1.0" encoding="utf-8" standalone="no"?>
<!DOCTYPE svg PUBLIC "-//W3C//DTD SVG 1.1//EN"
  "http://www.w3.org/Graphics/SVG/1.1/DTD/svg11.dtd">
<svg xmlns:xlink="http://www.w3.org/1999/xlink" width="572.4pt" height="637.59625pt" viewBox="0 0 572.4 637.59625" xmlns="http://www.w3.org/2000/svg" version="1.1">
 <metadata>
  <rdf:RDF xmlns:dc="http://purl.org/dc/elements/1.1/" xmlns:cc="http://creativecommons.org/ns#" xmlns:rdf="http://www.w3.org/1999/02/22-rdf-syntax-ns#">
   <cc:Work>
    <dc:type rdf:resource="http://purl.org/dc/dcmitype/StillImage"/>
    <dc:date>2025-12-29T19:23:27.191734</dc:date>
    <dc:format>image/svg+xml</dc:format>
    <dc:creator>
     <cc:Agent>
      <dc:title>Matplotlib v3.8.4, https://matplotlib.org/</dc:title>
     </cc:Agent>
    </dc:creator>
   </cc:Work>
  </rdf:RDF>
 </metadata>
 <defs>
  <style type="text/css">*{stroke-linejoin: round; stroke-linecap: butt}</style>
 </defs>
 <g id="figure_1">
  <g id="patch_1">
   <path d="M 0 637.59625 
L 572.4 637.59625 
L 572.4 0 
L 0 0 
L 0 637.59625 
z
" style="fill: none"/>
  </g>
  <g id="axes_1">
   <g id="patch_2">
    <path d="M 281.318232 191.56901 
C 259.016838 192.233934 237.089448 197.44818 216.901638 206.887016 
C 196.713828 216.325853 178.693563 229.789187 163.963092 246.438559 
L 169.783897 251.522259 
C 183.812917 235.665714 200.975075 222.843491 220.20156 213.854123 
C 239.428046 204.864754 260.311274 199.898807 281.550697 199.265545 
z
" clip-path="url(#pd7e25dff67)" style="fill: #cc660b; stroke: #000000; stroke-width: 0.6; stroke-linejoin: miter"/>
   </g>
   <g id="patch_3">
    <path d="M 162.36514 248.272225 
C 154.907609 256.960651 148.397313 266.409534 142.943287 276.460624 
C 137.489262 286.511714 133.122126 297.108583 129.91502 308.073754 
L 137.357162 310.222445 
C 140.411548 299.779424 144.570725 289.687168 149.765035 280.114702 
C 154.959345 270.542235 161.159627 261.543299 168.262038 253.268608 
z
" clip-path="url(#pd7e25dff67)" style="fill: #70453c; stroke: #000000; stroke-width: 0.6; stroke-linejoin: miter"/>
   </g>
   <g id="patch_4">
    <path d="M 129.251395 310.407893 
C 119.163713 346.933822 122.306703 385.845123 138.128151 420.305205 
C 153.9496 454.765287 181.465272 482.630427 215.840753 499.004812 
L 219.191194 492.061547 
C 186.45264 476.466895 160.247238 449.928666 145.179192 417.10954 
C 130.111146 384.290414 127.117822 347.232033 136.725138 312.445434 
z
" clip-path="url(#pd7e25dff67)" style="fill: #ab1f20; stroke: #000000; stroke-width: 0.6; stroke-linejoin: miter"/>
   </g>
   <g id="patch_5">
    <path d="M 218.049917 500.036949 
C 227.057245 504.163565 236.425438 507.463438 246.037489 509.895353 
C 255.649539 512.327268 265.46526 513.881058 275.362052 514.537316 
L 275.878144 506.854408 
C 266.452628 506.229401 257.104323 504.7496 247.949989 502.433491 
C 238.795656 500.117381 229.873566 496.974645 221.295159 493.044535 
z
" clip-path="url(#pd7e25dff67)" style="fill: #195f90; stroke: #000000; stroke-width: 0.6; stroke-linejoin: miter"/>
   </g>
   <g id="patch_6">
    <path d="M 277.799011 514.68068 
C 277.937637 514.687799 278.076272 514.694742 278.214916 514.701508 
C 278.35356 514.708275 278.492213 514.714865 278.630874 514.72128 
L 278.991308 507.029612 
C 278.85925 507.023503 278.7272 507.017226 278.595158 507.010782 
C 278.463116 507.004337 278.331083 506.997725 278.199058 506.990945 
z
" clip-path="url(#pd7e25dff67)" style="fill: #765297; stroke: #000000; stroke-width: 0.6; stroke-linejoin: miter"/>
   </g>
   <g id="patch_7">
    <path d="M 281.070242 514.815909 
C 281.111573 514.817203 281.152904 514.818483 281.194236 514.819746 
C 281.235567 514.82101 281.2769 514.822258 281.318232 514.82349 
L 281.550697 507.126955 
C 281.511333 507.125782 281.471969 507.124593 281.432605 507.123389 
C 281.393242 507.122186 281.353879 507.120968 281.314516 507.119734 
z
" clip-path="url(#pd7e25dff67)" style="fill: #238023; stroke: #000000; stroke-width: 0.6; stroke-linejoin: miter"/>
   </g>
   <g id="patch_8">
    <path d="M 291.081768 514.82349 
C 302.645168 514.478723 314.138682 512.909965 325.367283 510.143835 
C 336.595885 507.377706 347.495701 503.42994 357.881782 498.367523 
L 354.468364 491.454605 
C 344.576859 496.275954 334.19608 500.035732 323.502175 502.670141 
C 312.808269 505.30455 301.862065 506.798605 290.849303 507.126955 
z
" clip-path="url(#pd7e25dff67)" style="fill: #cc660b; opacity: 0.8; stroke: #000000; stroke-width: 0.3; stroke-linejoin: miter"/>
   </g>
   <g id="patch_9">
    <path d="M 359.35882 497.638332 
C 366.175078 494.230352 372.74167 490.350302 379.009982 486.026906 
C 385.278294 481.70351 391.232819 476.947464 396.829476 471.793977 
L 391.561405 466.146466 
C 386.231256 471.054549 380.56028 475.584117 374.590459 479.701637 
C 368.620638 483.819157 362.366741 487.514443 355.875066 490.760138 
z
" clip-path="url(#pd7e25dff67)" style="fill: #cc660b; opacity: 0.8; stroke: #000000; stroke-width: 0.3; stroke-linejoin: miter"/>
   </g>
   <g id="patch_10">
    <path d="M 398.033468 470.674001 
C 398.763971 469.98754 399.488055 469.294367 400.205627 468.594572 
C 400.9232 467.894778 401.63423 467.188391 402.338625 466.475504 
L 396.808215 461.081254 
C 396.137362 461.760194 395.46019 462.432943 394.776788 463.099414 
C 394.093386 463.765885 393.403782 464.42605 392.708065 465.079822 
z
" clip-path="url(#pd7e25dff67)" style="fill: #cc660b; opacity: 0.8; stroke: #000000; stroke-width: 0.3; stroke-linejoin: miter"/>
   </g>
   <g id="patch_11">
    <path d="M 403.488087 465.300332 
C 403.640986 465.14242 403.793561 464.9842 403.945812 464.825673 
C 404.098063 464.667145 404.249989 464.50831 404.401591 464.349169 
L 398.772943 459.056173 
C 398.628561 459.207736 398.483869 459.359007 398.338869 459.509986 
C 398.193868 459.660965 398.048558 459.81165 397.90294 459.962042 
z
" clip-path="url(#pd7e25dff67)" style="fill: #cc660b; opacity: 0.8; stroke: #000000; stroke-width: 0.3; stroke-linejoin: miter"/>
   </g>
   <g id="patch_12">
    <path d="M 405.529259 463.153335 
C 405.599184 463.078425 405.669039 463.003449 405.738821 462.928408 
C 405.808604 462.853366 405.878315 462.778259 405.947955 462.703086 
L 400.245671 457.488475 
C 400.179348 457.560068 400.112956 457.631599 400.046497 457.703067 
C 399.980037 457.774535 399.913509 457.84594 399.846913 457.917283 
z
" clip-path="url(#pd7e25dff67)" style="fill: #cc660b; opacity: 0.8; stroke: #000000; stroke-width: 0.3; stroke-linejoin: miter"/>
   </g>
   <g id="patch_13">
    <path d="M 407.058754 461.491767 
C 407.069417 461.480019 407.080079 461.46827 407.09074 461.456519 
C 407.1014 461.444768 407.112058 461.433016 407.122715 461.421262 
L 401.364491 456.26769 
C 401.354341 456.278884 401.34419 456.290077 401.334038 456.301268 
C 401.323885 456.31246 401.313731 456.323649 401.303575 456.334838 
z
" clip-path="url(#pd7e25dff67)" style="fill: #cc660b; opacity: 0.8; stroke: #000000; stroke-width: 0.3; stroke-linejoin: miter"/>
   </g>
   <g id="patch_14">
    <path d="M 408.220379 460.19818 
C 408.227183 460.190522 408.233985 460.182863 408.240787 460.175203 
C 408.247589 460.167543 408.25439 460.159883 408.26119 460.152222 
L 402.448753 455.059081 
C 402.442276 455.066377 402.435799 455.073672 402.429321 455.080967 
C 402.422843 455.088262 402.416364 455.095557 402.409885 455.10285 
z
" clip-path="url(#pd7e25dff67)" style="fill: #cc660b; opacity: 0.8; stroke: #000000; stroke-width: 0.3; stroke-linejoin: miter"/>
   </g>
   <g id="patch_15">
    <path d="M 409.345852 458.917743 
C 412.819502 454.923628 416.09422 450.76291 419.15824 446.45054 
C 422.222259 442.138169 425.071907 437.679317 427.696945 433.090002 
L 420.958995 429.285537 
C 418.458959 433.656314 415.745009 437.90284 412.826895 442.009859 
C 409.908781 446.116879 406.790002 450.079467 403.481764 453.883386 
z
" clip-path="url(#pd7e25dff67)" style="fill: #70453c; opacity: 0.8; stroke: #000000; stroke-width: 0.3; stroke-linejoin: miter"/>
   </g>
   <g id="patch_16">
    <path d="M 428.50458 431.661221 
C 429.661195 429.590555 430.771887 427.494894 431.835851 425.375755 
C 432.899815 423.256616 433.916795 421.114511 434.886055 418.950988 
L 427.805766 415.81981 
C 426.882662 417.880308 425.914109 419.920408 424.90081 421.938636 
C 423.887511 423.956864 422.82971 425.952731 421.728171 427.924794 
z
" clip-path="url(#pd7e25dff67)" style="fill: #70453c; opacity: 0.8; stroke: #000000; stroke-width: 0.3; stroke-linejoin: miter"/>
   </g>
   <g id="patch_17">
    <path d="M 435.549105 417.450549 
C 436.492909 415.285039 437.388887 413.099261 438.236396 410.894786 
C 439.083905 408.690311 439.882742 406.467667 440.632332 404.228452 
L 433.278412 401.798347 
C 432.564516 403.930933 431.803719 406.047736 430.996568 408.147236 
C 430.189416 410.246736 429.336104 412.32843 428.437243 414.39082 
z
" clip-path="url(#pd7e25dff67)" style="fill: #70453c; opacity: 0.8; stroke: #000000; stroke-width: 0.3; stroke-linejoin: miter"/>
   </g>
   <g id="patch_18">
    <path d="M 441.14492 402.670911 
C 441.260071 402.314919 441.373979 401.958532 441.486642 401.601754 
C 441.599304 401.244977 441.710721 400.887813 441.820889 400.530268 
L 434.410371 398.276267 
C 434.305448 398.616786 434.199337 398.956943 434.09204 399.29673 
C 433.984742 399.636518 433.876258 399.975935 433.766591 400.314975 
z
" clip-path="url(#pd7e25dff67)" style="fill: #70453c; opacity: 0.8; stroke: #000000; stroke-width: 0.3; stroke-linejoin: miter"/>
   </g>
   <g id="patch_19">
    <path d="M 442.295696 398.96095 
C 442.341222 398.807664 442.38652 398.654311 442.431589 398.500891 
C 442.476658 398.347471 442.521498 398.193985 442.566109 398.040433 
L 435.120104 395.904996 
C 435.077617 396.051236 435.034913 396.197413 434.99199 396.343527 
C 434.949067 396.489641 434.905926 396.635692 434.862568 396.781679 
z
" clip-path="url(#pd7e25dff67)" style="fill: #70453c; opacity: 0.8; stroke: #000000; stroke-width: 0.3; stroke-linejoin: miter"/>
   </g>
   <g id="patch_20">
    <path d="M 443.015481 396.46374 
C 449.407527 373.594849 450.65413 349.605686 446.66653 326.204351 
C 442.67893 302.803016 433.554071 280.558425 419.941669 261.05446 
L 413.573018 265.442165 
C 426.53721 284.01737 435.227553 305.202694 439.025267 327.489679 
C 442.822981 349.776665 441.63574 372.623487 435.548078 394.403383 
z
" clip-path="url(#pd7e25dff67)" style="fill: #ab1f20; opacity: 0.8; stroke: #000000; stroke-width: 0.3; stroke-linejoin: miter"/>
   </g>
   <g id="patch_21">
    <path d="M 418.994973 259.712598 
C 412.677784 250.854349 405.478724 242.650668 397.506831 235.225811 
C 389.534939 227.800955 380.830668 221.192598 371.525853 215.500834 
L 367.462718 222.057758 
C 376.324445 227.478486 384.614228 233.772159 392.206506 240.843451 
C 399.798784 247.914744 406.655032 255.727773 412.671403 264.164201 
z
" clip-path="url(#pd7e25dff67)" style="fill: #ab1f20; opacity: 0.8; stroke: #000000; stroke-width: 0.3; stroke-linejoin: miter"/>
   </g>
   <g id="patch_22">
    <path d="M 370.117006 214.648791 
C 370.044257 214.605295 369.971474 214.561855 369.898657 214.518471 
C 369.82584 214.475088 369.752989 214.431761 369.680104 214.388491 
L 365.704861 220.998385 
C 365.774275 221.039594 365.843657 221.080858 365.913007 221.122175 
C 365.982357 221.163493 366.051674 221.204864 366.120958 221.246289 
z
" clip-path="url(#pd7e25dff67)" style="fill: #ab1f20; opacity: 0.8; stroke: #000000; stroke-width: 0.3; stroke-linejoin: miter"/>
   </g>
   <g id="patch_23">
    <path d="M 368.260005 213.55509 
C 368.224368 213.534417 368.188722 213.513757 368.153069 213.493111 
C 368.117415 213.472465 368.081754 213.451832 368.046084 213.431213 
L 364.148652 220.086691 
C 364.182623 220.106328 364.216586 220.125979 364.250542 220.145642 
C 364.284497 220.165305 364.318445 220.18498 364.352386 220.204669 
z
" clip-path="url(#pd7e25dff67)" style="fill: #ab1f20; opacity: 0.8; stroke: #000000; stroke-width: 0.3; stroke-linejoin: miter"/>
   </g>
   <g id="patch_24">
    <path d="M 366.616306 212.614313 
C 366.587661 212.598138 366.55901 212.581972 366.530355 212.565814 
C 366.5017 212.549656 366.47304 212.533507 366.444374 212.517366 
L 362.623214 219.216361 
C 362.650514 219.231733 362.677809 219.247113 362.7051 219.262501 
C 362.732391 219.27789 362.759677 219.293286 362.786958 219.308691 
z
" clip-path="url(#pd7e25dff67)" style="fill: #ab1f20; opacity: 0.8; stroke: #000000; stroke-width: 0.3; stroke-linejoin: miter"/>
   </g>
   <g id="patch_25">
    <path d="M 365.005357 211.716641 
C 360.853853 209.433959 356.603861 207.332747 352.267563 205.419029 
C 347.931265 203.505311 343.512807 201.780916 339.024855 200.250787 
L 336.509386 207.533905 
C 340.783626 208.99117 344.991681 210.633451 349.121488 212.45604 
C 353.251296 214.278628 357.298908 216.279782 361.252721 218.453765 
z
" clip-path="url(#pd7e25dff67)" style="fill: #195f90; opacity: 0.8; stroke: #000000; stroke-width: 0.3; stroke-linejoin: miter"/>
   </g>
   <g id="patch_26">
    <path d="M 337.462129 199.726768 
C 335.404455 199.0483 333.333341 198.410751 331.250028 197.814502 
C 329.166715 197.218253 327.071618 196.663423 324.965992 196.150345 
L 323.119993 203.628721 
C 325.12535 204.117367 327.120681 204.645776 329.104789 205.213633 
C 331.088896 205.781489 333.061386 206.388679 335.021075 207.034839 
z
" clip-path="url(#pd7e25dff67)" style="fill: #195f90; opacity: 0.8; stroke: #000000; stroke-width: 0.3; stroke-linejoin: miter"/>
   </g>
   <g id="patch_27">
    <path d="M 323.362164 195.768089 
C 322.223265 195.502701 321.081519 195.24952 319.937125 195.008591 
C 318.792731 194.767662 317.645756 194.538999 316.496399 194.322641 
L 315.053714 201.888051 
C 316.148339 202.094106 317.240696 202.311881 318.330595 202.541337 
C 319.420494 202.770793 320.507871 203.011918 321.592538 203.264668 
z
" clip-path="url(#pd7e25dff67)" style="fill: #195f90; opacity: 0.8; stroke: #000000; stroke-width: 0.3; stroke-linejoin: miter"/>
   </g>
   <g id="patch_28">
    <path d="M 314.874364 194.025757 
C 314.549088 193.967912 314.223635 193.911052 313.898011 193.855178 
C 313.572386 193.799303 313.246591 193.744413 312.92063 193.69051 
L 311.648219 201.286022 
C 311.958658 201.337358 312.268939 201.389634 312.579058 201.442848 
C 312.889177 201.496062 313.199131 201.550214 313.508918 201.605304 
z
" clip-path="url(#pd7e25dff67)" style="fill: #195f90; opacity: 0.8; stroke: #000000; stroke-width: 0.3; stroke-linejoin: miter"/>
   </g>
   <g id="patch_29">
    <path d="M 311.292331 193.429661 
C 310.976944 193.380765 310.661413 193.33279 310.345741 193.285738 
C 310.03007 193.238687 309.714261 193.192558 309.398316 193.147352 
L 308.293635 200.768728 
C 308.594534 200.811781 308.895305 200.855713 309.195944 200.900525 
C 309.496583 200.945336 309.797089 200.991026 310.097458 201.037594 
z
" clip-path="url(#pd7e25dff67)" style="fill: #195f90; opacity: 0.8; stroke: #000000; stroke-width: 0.3; stroke-linejoin: miter"/>
   </g>
   <g id="patch_30">
    <path d="M 307.764658 192.921996 
C 307.624505 192.903381 307.484327 192.884947 307.344125 192.866695 
C 307.203923 192.848443 307.063697 192.830373 306.923448 192.812484 
L 305.936617 200.449807 
C 306.070188 200.466843 306.203736 200.484053 306.337262 200.501436 
C 306.470787 200.518819 306.60429 200.536375 306.73777 200.554103 
z
" clip-path="url(#pd7e25dff67)" style="fill: #195f90; opacity: 0.8; stroke: #000000; stroke-width: 0.3; stroke-linejoin: miter"/>
   </g>
   <g id="patch_31">
    <path d="M 305.286501 192.612064 
C 305.211559 192.603271 305.136611 192.59453 305.061657 192.585841 
C 304.986703 192.577152 304.911743 192.568514 304.836777 192.559929 
L 303.949311 200.209277 
C 304.020707 200.217454 304.092098 200.22568 304.163483 200.233955 
C 304.234868 200.242231 304.306247 200.250556 304.37762 200.25893 
z
" clip-path="url(#pd7e25dff67)" style="fill: #195f90; opacity: 0.8; stroke: #000000; stroke-width: 0.3; stroke-linejoin: miter"/>
   </g>
   <g id="patch_32">
    <path d="M 303.197361 192.380531 
C 303.135605 192.374087 303.073846 192.367679 303.012083 192.361306 
C 302.95032 192.354933 302.888554 192.348595 302.826783 192.342292 
L 302.035032 200.002005 
C 302.093861 200.008007 302.152686 200.014043 302.211508 200.020113 
C 302.27033 200.026183 302.329148 200.032286 302.387963 200.038422 
z
" clip-path="url(#pd7e25dff67)" style="fill: #195f90; opacity: 0.8; stroke: #000000; stroke-width: 0.3; stroke-linejoin: miter"/>
   </g>
   <g id="patch_33">
    <path d="M 301.185251 192.183144 
C 301.135204 192.178546 301.085155 192.173971 301.035103 192.169419 
C 300.985052 192.164867 300.934998 192.160338 300.884943 192.155833 
L 300.18566 199.824424 
C 300.233332 199.828715 300.281002 199.833028 300.32867 199.837363 
C 300.376338 199.841698 300.424004 199.846055 300.471668 199.850434 
z
" clip-path="url(#pd7e25dff67)" style="fill: #195f90; opacity: 0.8; stroke: #000000; stroke-width: 0.3; stroke-linejoin: miter"/>
   </g>
   <g id="patch_34">
    <path d="M 299.241608 192.016245 
C 299.197682 192.012737 299.153755 192.009246 299.109826 192.005773 
C 299.065898 192.0023 299.021968 191.998844 298.978036 191.995407 
L 298.369558 199.671638 
C 298.411398 199.674911 298.453236 199.678202 298.495073 199.68151 
C 298.53691 199.684817 298.578745 199.688142 298.620579 199.691483 
z
" clip-path="url(#pd7e25dff67)" style="fill: #195f90; opacity: 0.8; stroke: #000000; stroke-width: 0.3; stroke-linejoin: miter"/>
   </g>
   <g id="patch_35">
    <path d="M 297.333163 191.875027 
C 297.295459 191.872459 297.257754 191.869903 297.220049 191.867361 
C 297.182343 191.864818 297.144636 191.862289 297.106928 191.859773 
L 296.587551 199.542462 
C 296.623463 199.544859 296.659374 199.547268 296.695284 199.549689 
C 296.731195 199.55211 296.767104 199.554544 296.803013 199.55699 
z
" clip-path="url(#pd7e25dff67)" style="fill: #195f90; opacity: 0.8; stroke: #000000; stroke-width: 0.3; stroke-linejoin: miter"/>
   </g>
   <g id="patch_36">
    <path d="M 295.460768 191.75824 
C 295.446463 191.75743 295.432158 191.756621 295.417853 191.755815 
C 295.403548 191.755009 295.389243 191.754204 295.374938 191.753402 
L 294.938036 199.441157 
C 294.95166 199.441921 294.965284 199.442687 294.978908 199.443455 
C 294.992532 199.444223 295.006156 199.444992 295.019779 199.445764 
z
" clip-path="url(#pd7e25dff67)" style="fill: #195f90; opacity: 0.8; stroke: #000000; stroke-width: 0.3; stroke-linejoin: miter"/>
   </g>
   <g id="patch_37">
    <path d="M 293.727782 191.669313 
C 293.599681 191.66342 293.471574 191.657677 293.343461 191.652085 
C 293.215347 191.646493 293.087227 191.641051 292.9591 191.635759 
L 292.637238 199.329116 
C 292.759263 199.334155 292.881283 199.339338 293.003296 199.344664 
C 293.125309 199.34999 293.247316 199.355459 293.369316 199.361072 
z
" clip-path="url(#pd7e25dff67)" style="fill: #765297; opacity: 0.8; stroke: #000000; stroke-width: 0.3; stroke-linejoin: miter"/>
   </g>
   <g id="patch_38">
    <path d="M 291.310868 191.576001 
C 291.272685 191.574809 291.234502 191.57363 291.196319 191.572465 
C 291.158136 191.5713 291.119952 191.570148 291.081768 191.56901 
L 290.849303 199.265545 
C 290.885668 199.266629 290.922034 199.267726 290.958399 199.268836 
C 290.994764 199.269945 291.031129 199.271068 291.067493 199.272203 
z
" clip-path="url(#pd7e25dff67)" style="fill: #238023; opacity: 0.8; stroke: #000000; stroke-width: 0.3; stroke-linejoin: miter"/>
   </g>
   <g id="line2d_1">
    <path d="M 216.901638 206.887016 
L 212.281747 197.133068 
L 210.301794 192.952804 
" clip-path="url(#pd7e25dff67)" style="fill: none; stroke: #000000; stroke-width: 0.8; stroke-linecap: square"/>
   </g>
   <g id="line2d_2">
    <path d="M 142.943287 276.460624 
L 133.39284 271.344916 
L 129.299791 269.152469 
" clip-path="url(#pd7e25dff67)" style="fill: none; stroke: #000000; stroke-width: 0.8; stroke-linecap: square"/>
   </g>
   <g id="line2d_3">
    <path d="M 138.128151 420.305205 
L 128.256695 424.779135 
L 124.026071 426.696534 
" clip-path="url(#pd7e25dff67)" style="fill: none; stroke: #000000; stroke-width: 0.8; stroke-linecap: square"/>
   </g>
   <g id="line2d_4">
    <path d="M 246.037489 509.895353 
L 243.359988 520.34196 
L 240.421582 524.356117 
" clip-path="url(#pd7e25dff67)" style="fill: none; stroke: #000000; stroke-width: 0.8; stroke-linecap: square"/>
   </g>
   <g id="line2d_5">
    <path d="M 278.214916 514.701508 
L 277.682577 525.468526 
L 266.679525 529.231082 
" clip-path="url(#pd7e25dff67)" style="fill: none; stroke: #000000; stroke-width: 0.8; stroke-linecap: square"/>
   </g>
   <g id="line2d_6">
    <path d="M 281.194236 514.819746 
L 280.860518 525.594646 
L 293.375856 530.152684 
" clip-path="url(#pd7e25dff67)" style="fill: none; stroke: #000000; stroke-width: 0.8; stroke-linecap: square"/>
   </g>
   <g id="line2d_7">
    <path d="M 325.367283 510.143835 
L 327.978436 520.607008 
L 329.097501 525.091225 
" clip-path="url(#pd7e25dff67)" style="fill: none; stroke: #808080; stroke-opacity: 0.6; stroke-width: 0.5; stroke-linecap: square"/>
   </g>
   <g id="line2d_8">
    <path d="M 379.009982 486.026906 
L 385.197314 494.882283 
L 387.849028 498.677445 
" clip-path="url(#pd7e25dff67)" style="fill: none; stroke: #808080; stroke-opacity: 0.6; stroke-width: 0.5; stroke-linecap: square"/>
   </g>
   <g id="line2d_9">
    <path d="M 400.205627 468.594572 
L 407.806003 476.287794 
L 398.190823 490.977871 
" clip-path="url(#pd7e25dff67)" style="fill: none; stroke: #808080; stroke-opacity: 0.6; stroke-width: 0.5; stroke-linecap: square"/>
   </g>
   <g id="line2d_10">
    <path d="M 403.945812 464.825673 
L 411.795533 472.267634 
L 406.961939 483.459562 
" clip-path="url(#pd7e25dff67)" style="fill: none; stroke: #808080; stroke-opacity: 0.6; stroke-width: 0.5; stroke-linecap: square"/>
   </g>
   <g id="line2d_11">
    <path d="M 405.738821 462.928408 
L 413.708076 470.243885 
L 415.223016 475.391085 
" clip-path="url(#pd7e25dff67)" style="fill: none; stroke: #808080; stroke-opacity: 0.6; stroke-width: 0.5; stroke-linecap: square"/>
   </g>
   <g id="line2d_12">
    <path d="M 407.09074 461.456519 
L 415.150122 468.67387 
L 422.939163 466.806515 
" clip-path="url(#pd7e25dff67)" style="fill: none; stroke: #808080; stroke-opacity: 0.6; stroke-width: 0.5; stroke-linecap: square"/>
   </g>
   <g id="line2d_13">
    <path d="M 408.240787 460.175203 
L 416.376839 467.307133 
L 430.07779 457.742112 
" clip-path="url(#pd7e25dff67)" style="fill: none; stroke: #808080; stroke-opacity: 0.6; stroke-width: 0.5; stroke-linecap: square"/>
   </g>
   <g id="line2d_14">
    <path d="M 419.15824 446.45054 
L 428.022122 452.667493 
L 436.608748 448.236157 
" clip-path="url(#pd7e25dff67)" style="fill: none; stroke: #808080; stroke-opacity: 0.6; stroke-width: 0.5; stroke-linecap: square"/>
   </g>
   <g id="line2d_15">
    <path d="M 431.835851 425.375755 
L 441.544908 430.187722 
L 445.705932 432.249994 
" clip-path="url(#pd7e25dff67)" style="fill: none; stroke: #808080; stroke-opacity: 0.6; stroke-width: 0.5; stroke-linecap: square"/>
   </g>
   <g id="line2d_16">
    <path d="M 438.236396 410.894786 
L 448.372156 414.741355 
L 451.560669 419.316964 
" clip-path="url(#pd7e25dff67)" style="fill: none; stroke: #808080; stroke-opacity: 0.6; stroke-width: 0.5; stroke-linecap: square"/>
   </g>
   <g id="line2d_17">
    <path d="M 441.486642 401.601754 
L 451.839084 404.828788 
L 455.534176 408.505753 
" clip-path="url(#pd7e25dff67)" style="fill: none; stroke: #808080; stroke-opacity: 0.6; stroke-width: 0.5; stroke-linecap: square"/>
   </g>
   <g id="line2d_18">
    <path d="M 442.431589 398.500891 
L 452.847029 401.5212 
L 458.792499 397.460941 
" clip-path="url(#pd7e25dff67)" style="fill: none; stroke: #808080; stroke-opacity: 0.6; stroke-width: 0.5; stroke-linecap: square"/>
   </g>
   <g id="line2d_19">
    <path d="M 446.66653 326.204351 
L 457.364299 324.404891 
L 461.949057 323.633694 
" clip-path="url(#pd7e25dff67)" style="fill: none; stroke: #808080; stroke-opacity: 0.6; stroke-width: 0.5; stroke-linecap: square"/>
   </g>
   <g id="line2d_20">
    <path d="M 397.506831 235.225811 
L 404.927287 227.361116 
L 412.883589 228.608568 
" clip-path="url(#pd7e25dff67)" style="fill: none; stroke: #808080; stroke-opacity: 0.6; stroke-width: 0.5; stroke-linecap: square"/>
   </g>
   <g id="line2d_21">
    <path d="M 369.898657 214.518471 
L 375.478568 205.273286 
L 404.471018 220.696118 
" clip-path="url(#pd7e25dff67)" style="fill: none; stroke: #808080; stroke-opacity: 0.6; stroke-width: 0.5; stroke-linecap: square"/>
   </g>
   <g id="line2d_22">
    <path d="M 368.153069 213.493111 
L 373.616607 204.179569 
L 395.558927 213.343285 
" clip-path="url(#pd7e25dff67)" style="fill: none; stroke: #808080; stroke-opacity: 0.6; stroke-width: 0.5; stroke-linecap: square"/>
   </g>
   <g id="line2d_23">
    <path d="M 366.530355 212.565814 
L 371.885712 203.190452 
L 386.184957 206.581122 
" clip-path="url(#pd7e25dff67)" style="fill: none; stroke: #808080; stroke-opacity: 0.6; stroke-width: 0.5; stroke-linecap: square"/>
   </g>
   <g id="line2d_24">
    <path d="M 352.267563 205.419029 
L 356.672067 195.567214 
L 376.3887 200.438191 
" clip-path="url(#pd7e25dff67)" style="fill: none; stroke: #808080; stroke-opacity: 0.6; stroke-width: 0.5; stroke-linecap: square"/>
   </g>
   <g id="line2d_25">
    <path d="M 331.250028 197.814502 
L 334.253363 187.455719 
L 366.21153 194.940435 
" clip-path="url(#pd7e25dff67)" style="fill: none; stroke: #808080; stroke-opacity: 0.6; stroke-width: 0.5; stroke-linecap: square"/>
   </g>
   <g id="line2d_26">
    <path d="M 319.937125 195.008591 
L 322.186266 184.462747 
L 355.696429 190.111074 
" clip-path="url(#pd7e25dff67)" style="fill: none; stroke: #808080; stroke-opacity: 0.6; stroke-width: 0.5; stroke-linecap: square"/>
   </g>
   <g id="line2d_27">
    <path d="M 313.898011 193.855178 
L 315.744545 183.232439 
L 344.88781 185.970506 
" clip-path="url(#pd7e25dff67)" style="fill: none; stroke: #808080; stroke-opacity: 0.6; stroke-width: 0.5; stroke-linecap: square"/>
   </g>
   <g id="line2d_28">
    <path d="M 310.345741 193.285738 
L 311.955458 182.625038 
L 333.831322 182.536217 
" clip-path="url(#pd7e25dff67)" style="fill: none; stroke: #808080; stroke-opacity: 0.6; stroke-width: 0.5; stroke-linecap: square"/>
   </g>
   <g id="line2d_29">
    <path d="M 307.344125 192.866695 
L 308.753733 182.178058 
L 322.573663 179.822714 
" clip-path="url(#pd7e25dff67)" style="fill: none; stroke: #808080; stroke-opacity: 0.6; stroke-width: 0.5; stroke-linecap: square"/>
   </g>
   <g id="line2d_30">
    <path d="M 305.061657 192.585841 
L 306.319101 181.87848 
L 311.162379 177.841455 
" clip-path="url(#pd7e25dff67)" style="fill: none; stroke: #808080; stroke-opacity: 0.6; stroke-width: 0.5; stroke-linecap: square"/>
   </g>
   <g id="line2d_31">
    <path d="M 303.012083 192.361306 
L 304.132889 181.638977 
L 299.645666 176.60081 
" clip-path="url(#pd7e25dff67)" style="fill: none; stroke: #808080; stroke-opacity: 0.6; stroke-width: 0.5; stroke-linecap: square"/>
   </g>
   <g id="line2d_32">
    <path d="M 301.035103 192.169419 
L 302.02411 181.434297 
L 288.072165 176.106019 
" clip-path="url(#pd7e25dff67)" style="fill: none; stroke: #808080; stroke-opacity: 0.6; stroke-width: 0.5; stroke-linecap: square"/>
   </g>
   <g id="line2d_33">
    <path d="M 299.109826 192.005773 
L 299.970482 181.259741 
L 276.490757 176.359169 
" clip-path="url(#pd7e25dff67)" style="fill: none; stroke: #808080; stroke-opacity: 0.6; stroke-width: 0.5; stroke-linecap: square"/>
   </g>
   <g id="line2d_34">
    <path d="M 297.220049 191.867361 
L 297.954718 181.112102 
L 264.950356 177.359194 
" clip-path="url(#pd7e25dff67)" style="fill: none; stroke: #808080; stroke-opacity: 0.6; stroke-width: 0.5; stroke-linecap: square"/>
   </g>
   <g id="line2d_35">
    <path d="M 295.417853 191.755815 
L 296.032377 180.993119 
L 253.499703 179.101869 
" clip-path="url(#pd7e25dff67)" style="fill: none; stroke: #808080; stroke-opacity: 0.6; stroke-width: 0.5; stroke-linecap: square"/>
   </g>
   <g id="line2d_36">
    <path d="M 293.343461 191.652085 
L 293.819691 180.882474 
L 242.187161 181.579833 
" clip-path="url(#pd7e25dff67)" style="fill: none; stroke: #808080; stroke-opacity: 0.6; stroke-width: 0.5; stroke-linecap: square"/>
   </g>
   <g id="line2d_37">
    <path d="M 291.196319 191.572465 
L 291.529407 180.797546 
L 231.060507 184.782622 
" clip-path="url(#pd7e25dff67)" style="fill: none; stroke: #808080; stroke-opacity: 0.6; stroke-width: 0.5; stroke-linecap: square"/>
   </g>
   <g id="patch_39">
    <path d="M 281.550697 199.265545 
C 281.937849 199.265545 281.937849 335.311887 282.325 335.311887 
L 282.325 337.79625 
C 281.937849 337.79625 281.937849 201.379355 260.193673 201.379355 
L 261.707452 201.131032 
L 263.223631 200.897608 
L 264.742061 200.679107 
L 266.262594 200.47555 
L 267.78508 200.286956 
L 269.309371 200.113344 
L 270.835316 199.954732 
L 272.362767 199.811135 
L 273.891574 199.682566 
L 275.421587 199.569039 
L 276.952655 199.470564 
L 278.48463 199.387152 
L 280.017361 199.31881 
z
" clip-path="url(#pd7e25dff67)" style="fill: #cc660b; fill-opacity: 0.45"/>
   </g>
   <g id="patch_40">
    <path d="M 260.193673 201.379355 
C 271.259337 201.379355 271.259337 410.285921 282.325 410.285921 
L 282.325 422.49625 
C 271.259337 422.49625 271.259337 251.522259 169.783897 251.522259 
L 174.898261 246.017644 
L 180.276008 240.766655 
L 185.904412 235.781717 
L 191.770153 231.074627 
L 197.859351 226.656523 
L 204.157596 222.53786 
L 210.649985 218.728385 
L 217.321155 215.237112 
L 224.155317 212.072302 
L 231.136302 209.241446 
L 238.247588 206.751241 
L 245.472347 204.607582 
L 252.793484 202.815539 
z
" clip-path="url(#pd7e25dff67)" style="fill: #cc660b; fill-opacity: 0.12"/>
   </g>
   <g id="patch_41">
    <path d="M 168.262038 253.268608 
C 225.293519 253.268608 225.293519 334.584545 282.325 334.584545 
L 282.325 335.311887 
C 225.293519 335.311887 225.293519 258.103624 164.279638 258.103624 
L 164.557516 257.75298 
L 164.836416 257.403137 
L 165.116335 257.054099 
L 165.397271 256.705868 
L 165.679221 256.358447 
L 165.962184 256.01184 
L 166.246157 255.666049 
L 166.531137 255.321077 
L 166.817122 254.976927 
L 167.104109 254.633602 
L 167.392097 254.291104 
L 167.681083 253.949438 
L 167.971064 253.608604 
z
" clip-path="url(#pd7e25dff67)" style="fill: #70453c; fill-opacity: 0.45"/>
   </g>
   <g id="patch_42">
    <path d="M 164.279638 258.103624 
C 223.302319 258.103624 223.302319 403.42452 282.325 403.42452 
L 282.325 410.285921 
C 223.302319 410.285921 223.302319 310.222445 137.357162 310.222445 
L 138.595089 306.196157 
L 139.943327 302.204994 
L 141.400866 298.251938 
L 142.966619 294.339944 
L 144.639415 290.471935 
L 146.418004 286.650803 
L 148.301057 282.879401 
L 150.287166 279.16055 
L 152.374847 275.497029 
L 154.56254 271.891574 
L 156.84861 268.346881 
L 159.231348 264.865599 
L 161.708975 261.450329 
z
" clip-path="url(#pd7e25dff67)" style="fill: #70453c; fill-opacity: 0.12"/>
   </g>
   <g id="patch_43">
    <path d="M 136.725138 312.445434 
C 209.525069 312.445434 209.525069 330.162323 282.325 330.162323 
L 282.325 334.584545 
C 209.525069 334.584545 209.525069 349.942517 131.2346 349.942517 
L 131.316353 347.230336 
L 131.446189 344.520007 
L 131.624068 341.812371 
L 131.849934 339.108269 
L 132.123717 336.408541 
L 132.445333 333.714025 
L 132.814681 331.025557 
L 133.231647 328.343971 
L 133.696101 325.670101 
L 134.2079 323.004776 
L 134.766884 320.348824 
L 135.372879 317.70307 
L 136.025698 315.068334 
z
" clip-path="url(#pd7e25dff67)" style="fill: #ab1f20; fill-opacity: 0.45"/>
   </g>
   <g id="patch_44">
    <path d="M 131.2346 349.942517 
C 206.7798 349.942517 206.7798 382.900168 282.325 382.900168 
L 282.325 403.42452 
C 206.7798 403.42452 206.7798 492.061547 219.191194 492.061547 
L 207.998235 486.159175 
L 197.327948 479.368127 
L 187.25165 471.733793 
L 177.836685 463.307197 
L 169.145981 454.144661 
L 161.237623 444.307423 
L 154.164467 433.861231 
L 147.973788 422.875905 
L 142.706962 411.424865 
L 138.39919 399.584647 
L 135.079265 387.434386 
L 132.769375 375.055289 
L 131.484958 362.530095 
z
" clip-path="url(#pd7e25dff67)" style="fill: #ab1f20; fill-opacity: 0.12"/>
   </g>
   <g id="patch_45">
    <path d="M 221.295159 493.044535 
C 251.810079 493.044535 251.810079 329.331263 282.325 329.331263 
L 282.325 330.162323 
C 251.810079 330.162323 251.810079 495.882627 227.887638 495.882627 
L 227.412423 495.690005 
L 226.937851 495.49582 
L 226.46393 495.300076 
L 225.990663 495.102773 
L 225.518057 494.903914 
L 225.046116 494.703502 
L 224.574845 494.501538 
L 224.10425 494.298024 
L 223.634336 494.092964 
L 223.165108 493.886359 
L 222.696571 493.678211 
L 222.228731 493.468523 
L 221.761592 493.257297 
z
" clip-path="url(#pd7e25dff67)" style="fill: #195f90; fill-opacity: 0.45"/>
   </g>
   <g id="patch_46">
    <path d="M 227.887638 495.882627 
C 255.106319 495.882627 255.106319 377.180309 282.325 377.180309 
L 282.325 382.900168 
C 255.106319 382.900168 255.106319 506.854408 275.878144 506.854408 
L 272.356531 506.58081 
L 268.842107 506.22755 
L 265.336698 505.794812 
L 261.842124 505.28282 
L 258.360201 504.691841 
L 254.892737 504.022181 
L 251.441533 503.274189 
L 248.00838 502.448252 
L 244.595063 501.5448 
L 241.203354 500.564302 
L 237.835014 499.507267 
L 234.491793 498.374244 
L 231.175427 497.165821 
z
" clip-path="url(#pd7e25dff67)" style="fill: #195f90; fill-opacity: 0.12"/>
   </g>
   <g id="patch_47">
    <path d="M 278.199058 506.990945 
C 280.262029 506.990945 280.262029 329.314155 282.325 329.314155 
L 282.325 329.331263 
C 280.262029 329.331263 280.262029 506.998461 278.346784 506.998461 
L 278.336232 506.997929 
L 278.32568 506.997396 
L 278.315128 506.996863 
L 278.304576 506.996328 
L 278.294024 506.995793 
L 278.283472 506.995257 
L 278.27292 506.994721 
L 278.262368 506.994184 
L 278.251816 506.993646 
L 278.241265 506.993107 
L 278.230713 506.992568 
L 278.220161 506.992027 
L 278.209609 506.991487 
z
" clip-path="url(#pd7e25dff67)" style="fill: #765297; fill-opacity: 0.45"/>
   </g>
   <g id="patch_48">
    <path d="M 278.346784 506.998461 
C 280.335892 506.998461 280.335892 377.105675 282.325 377.105675 
L 282.325 377.180309 
C 280.335892 377.180309 280.335892 507.029612 278.991308 507.029612 
L 278.945266 507.027475 
L 278.899225 507.025325 
L 278.853185 507.023161 
L 278.807145 507.020984 
L 278.761106 507.018793 
L 278.715068 507.016588 
L 278.66903 507.01437 
L 278.622993 507.012138 
L 278.576956 507.009892 
L 278.530921 507.007633 
L 278.484886 507.005361 
L 278.438851 507.003075 
L 278.392817 507.000775 
z
" clip-path="url(#pd7e25dff67)" style="fill: #765297; fill-opacity: 0.12"/>
   </g>
   <g id="patch_49">
    <path d="M 281.314516 507.119734 
C 281.819758 507.119734 281.819758 329.311625 282.325 329.311625 
L 282.325 329.314155 
C 281.819758 329.314155 281.819758 507.120418 281.336377 507.120418 
L 281.334816 507.120369 
L 281.333254 507.12032 
L 281.331693 507.120272 
L 281.330131 507.120223 
L 281.32857 507.120174 
L 281.327008 507.120125 
L 281.325447 507.120076 
L 281.323885 507.120028 
L 281.322324 507.119979 
L 281.320762 507.11993 
L 281.319201 507.119881 
L 281.317639 507.119832 
L 281.316078 507.119783 
z
" clip-path="url(#pd7e25dff67)" style="fill: #238023; fill-opacity: 0.45"/>
   </g>
   <g id="patch_50">
    <path d="M 281.336377 507.120418 
C 281.830689 507.120418 281.830689 377.080875 282.325 377.080875 
L 282.325 377.105675 
C 281.830689 377.105675 281.830689 507.126955 281.550697 507.126955 
L 281.535389 507.126498 
L 281.52008 507.126039 
L 281.504771 507.125579 
L 281.489462 507.125117 
L 281.474154 507.124654 
L 281.458845 507.124189 
L 281.443536 507.123723 
L 281.428228 507.123256 
L 281.412919 507.122786 
L 281.397611 507.122316 
L 281.382302 507.121843 
L 281.366994 507.12137 
L 281.351686 507.120894 
z
" clip-path="url(#pd7e25dff67)" style="fill: #238023; fill-opacity: 0.12"/>
   </g>
   <g id="patch_51">
    <path d="M 300.637074 506.526781 
C 295.356037 506.526781 295.356037 336.568318 290.075 336.568318 
L 290.075 337.79625 
C 295.356037 337.79625 295.356037 507.126955 290.849303 507.126955 
L 291.549511 507.104504 
L 292.24961 507.07891 
L 292.949586 507.050171 
L 293.649424 507.018289 
L 294.349109 506.983265 
L 295.048628 506.9451 
L 295.747967 506.903793 
L 296.44711 506.859347 
L 297.146044 506.811761 
L 297.844754 506.761037 
L 298.543227 506.707176 
L 299.241447 506.650178 
L 299.939401 506.590046 
z
" clip-path="url(#pd7e25dff67)" style="fill: #cc660b; fill-opacity: 0.35"/>
   </g>
   <g id="patch_52">
    <path d="M 354.468364 491.454605 
C 322.271682 491.454605 322.271682 415.455708 290.075 415.455708 
L 290.075 422.49625 
C 322.271682 422.49625 322.271682 506.526781 300.637074 506.526781 
L 304.631167 506.103612 
L 308.612882 505.577757 
L 312.579546 504.949569 
L 316.528494 504.219469 
L 320.457075 503.387949 
L 324.36265 502.455567 
L 328.242597 501.422948 
L 332.09431 500.290786 
L 335.915202 499.059842 
L 339.702707 497.730942 
L 343.454283 496.304978 
L 347.167408 494.782909 
L 350.839591 493.165756 
z
" clip-path="url(#pd7e25dff67)" style="fill: #cc660b; fill-opacity: 0.08"/>
   </g>
   <g id="patch_53">
    <path d="M 363.535947 486.658135 
C 326.805473 486.658135 326.805473 335.478643 290.075 335.478643 
L 290.075 336.568318 
C 326.805473 336.568318 326.805473 490.760138 355.875066 490.760138 
L 356.429846 490.481373 
L 356.983496 490.2004 
L 357.536008 489.917223 
L 358.087371 489.631846 
L 358.637578 489.344275 
L 359.18662 489.054513 
L 359.734488 488.762566 
L 360.281172 488.468437 
L 360.826665 488.172133 
L 361.370958 487.873657 
L 361.914041 487.573014 
L 362.455906 487.270209 
L 362.996544 486.965248 
z
" clip-path="url(#pd7e25dff67)" style="fill: #cc660b; fill-opacity: 0.35"/>
   </g>
   <g id="patch_54">
    <path d="M 391.561405 466.146466 
C 340.818203 466.146466 340.818203 411.088584 290.075 411.088584 
L 290.075 415.455708 
C 340.818203 415.455708 340.818203 486.658135 363.535947 486.658135 
L 365.685155 485.405812 
L 367.813825 484.119328 
L 369.921407 482.799014 
L 372.007356 481.445212 
L 374.071133 480.058272 
L 376.112205 478.638552 
L 378.130045 477.186419 
L 380.124131 475.702247 
L 382.093947 474.186422 
L 384.038986 472.639333 
L 385.958743 471.061382 
L 387.852724 469.452975 
L 389.720439 467.814529 
z
" clip-path="url(#pd7e25dff67)" style="fill: #cc660b; fill-opacity: 0.08"/>
   </g>
   <g id="patch_55">
    <path d="M 393.45202 464.376065 
C 341.76351 464.376065 341.76351 335.350037 290.075 335.350037 
L 290.075 335.478643 
C 341.76351 335.478643 341.76351 465.079822 392.708065 465.079822 
L 392.76136 465.029716 
L 392.814631 464.979586 
L 392.867879 464.92943 
L 392.921102 464.879249 
L 392.974302 464.829043 
L 393.027477 464.778812 
L 393.080629 464.728556 
L 393.133757 464.678275 
L 393.186861 464.627969 
L 393.239941 464.577638 
L 393.292996 464.527282 
L 393.346028 464.476901 
L 393.399036 464.426495 
z
" clip-path="url(#pd7e25dff67)" style="fill: #cc660b; fill-opacity: 0.35"/>
   </g>
   <g id="patch_56">
    <path d="M 396.808215 461.081254 
C 343.441607 461.081254 343.441607 410.497861 290.075 410.497861 
L 290.075 411.088584 
C 343.441607 411.088584 343.441607 464.376065 393.45202 464.376065 
L 393.695081 464.144102 
L 393.937634 463.911614 
L 394.179678 463.678603 
L 394.421211 463.44507 
L 394.662233 463.211016 
L 394.902741 462.976441 
L 395.142736 462.741348 
L 395.382216 462.505736 
L 395.621179 462.269608 
L 395.859626 462.032964 
L 396.097553 461.795805 
L 396.334961 461.558133 
L 396.571849 461.319949 
z
" clip-path="url(#pd7e25dff67)" style="fill: #cc660b; fill-opacity: 0.08"/>
   </g>
   <g id="patch_57">
    <path d="M 398.033226 459.827322 
C 344.054113 459.827322 344.054113 335.326495 290.075 335.326495 
L 290.075 335.350037 
C 344.054113 335.350037 344.054113 459.962042 397.90294 459.962042 
L 397.912252 459.952424 
L 397.921563 459.942806 
L 397.930873 459.933187 
L 397.940182 459.923567 
L 397.94949 459.913946 
L 397.958797 459.904324 
L 397.968104 459.894702 
L 397.977409 459.885078 
L 397.986714 459.875454 
L 397.996018 459.865829 
L 398.005321 459.856204 
L 398.014624 459.846577 
L 398.023925 459.83695 
z
" clip-path="url(#pd7e25dff67)" style="fill: #cc660b; fill-opacity: 0.35"/>
   </g>
   <g id="patch_58">
    <path d="M 398.772943 459.056173 
C 344.423972 459.056173 344.423972 410.363626 290.075 410.363626 
L 290.075 410.497861 
C 344.423972 410.497861 344.423972 459.827322 398.033226 459.827322 
L 398.08624 459.772408 
L 398.139228 459.717469 
L 398.192188 459.662504 
L 398.245121 459.607513 
L 398.298027 459.552495 
L 398.350905 459.497452 
L 398.403756 459.442383 
L 398.456579 459.387288 
L 398.509375 459.332166 
L 398.562144 459.27702 
L 398.614885 459.221847 
L 398.667598 459.166648 
L 398.720285 459.111423 
z
" clip-path="url(#pd7e25dff67)" style="fill: #cc660b; fill-opacity: 0.08"/>
   </g>
   <g id="patch_59">
    <path d="M 399.911224 457.848346 
C 344.993112 457.848346 344.993112 335.314651 290.075 335.314651 
L 290.075 335.326495 
C 344.993112 335.326495 344.993112 457.917283 399.846913 457.917283 
L 399.851508 457.91236 
L 399.856103 457.907437 
L 399.860697 457.902514 
L 399.865292 457.897591 
L 399.869886 457.892667 
L 399.87448 457.887743 
L 399.879074 457.882819 
L 399.883667 457.877895 
L 399.888261 457.872971 
L 399.892854 457.868046 
L 399.897447 457.863121 
L 399.902039 457.858196 
L 399.906632 457.853271 
z
" clip-path="url(#pd7e25dff67)" style="fill: #cc660b; fill-opacity: 0.35"/>
   </g>
   <g id="patch_60">
    <path d="M 400.245671 457.488475 
C 345.160336 457.488475 345.160336 410.301904 290.075 410.301904 
L 290.075 410.363626 
C 345.160336 410.363626 345.160336 457.848346 399.911224 457.848346 
L 399.935151 457.822676 
L 399.959073 457.797 
L 399.982988 457.77132 
L 400.006898 457.745633 
L 400.030802 457.719942 
L 400.0547 457.694245 
L 400.078592 457.668542 
L 400.102478 457.642835 
L 400.126358 457.617122 
L 400.150233 457.591403 
L 400.174101 457.565679 
L 400.197964 457.53995 
L 400.22182 457.514215 
z
" clip-path="url(#pd7e25dff67)" style="fill: #cc660b; fill-opacity: 0.08"/>
   </g>
   <g id="patch_61">
    <path d="M 401.312961 456.324496 
C 345.693981 456.324496 345.693981 335.312896 290.075 335.312896 
L 290.075 335.314651 
C 345.693981 335.314651 345.693981 456.334838 401.303575 456.334838 
L 401.304245 456.334099 
L 401.304916 456.33336 
L 401.305586 456.332622 
L 401.306257 456.331883 
L 401.306927 456.331144 
L 401.307598 456.330406 
L 401.308268 456.329667 
L 401.308939 456.328928 
L 401.309609 456.32819 
L 401.31028 456.327451 
L 401.31095 456.326712 
L 401.31162 456.325974 
L 401.312291 456.325235 
z
" clip-path="url(#pd7e25dff67)" style="fill: #cc660b; fill-opacity: 0.35"/>
   </g>
   <g id="patch_62">
    <path d="M 401.364491 456.26769 
C 345.719745 456.26769 345.719745 410.292267 290.075 410.292267 
L 290.075 410.301904 
C 345.719745 410.301904 345.719745 456.324496 401.312961 456.324496 
L 401.316643 456.32044 
L 401.320324 456.316383 
L 401.324006 456.312326 
L 401.327687 456.308268 
L 401.331368 456.304211 
L 401.335049 456.300154 
L 401.338729 456.296096 
L 401.34241 456.292039 
L 401.34609 456.287981 
L 401.349771 456.283923 
L 401.353451 456.279865 
L 401.357131 456.275807 
L 401.360811 456.271748 
z
" clip-path="url(#pd7e25dff67)" style="fill: #cc660b; fill-opacity: 0.08"/>
   </g>
   <g id="patch_63">
    <path d="M 402.415218 455.096847 
C 346.245109 455.096847 346.245109 335.311887 290.075 335.311887 
L 290.075 335.312896 
C 346.245109 335.312896 346.245109 455.10285 402.409885 455.10285 
L 402.410266 455.102421 
L 402.410647 455.101993 
L 402.411028 455.101564 
L 402.411409 455.101135 
L 402.41179 455.100706 
L 402.412171 455.100277 
L 402.412551 455.099849 
L 402.412932 455.09942 
L 402.413313 455.098991 
L 402.413694 455.098562 
L 402.414075 455.098133 
L 402.414456 455.097705 
L 402.414837 455.097276 
z
" clip-path="url(#pd7e25dff67)" style="fill: #cc660b; fill-opacity: 0.35"/>
   </g>
   <g id="patch_64">
    <path d="M 402.448753 455.059081 
C 346.261876 455.059081 346.261876 410.285921 290.075 410.285921 
L 290.075 410.292267 
C 346.261876 410.292267 346.261876 455.096847 402.415218 455.096847 
L 402.417614 455.09415 
L 402.420009 455.091452 
L 402.422405 455.088755 
L 402.4248 455.086058 
L 402.427196 455.08336 
L 402.429591 455.080663 
L 402.431987 455.077965 
L 402.434382 455.075268 
L 402.436777 455.07257 
L 402.439173 455.069872 
L 402.441568 455.067174 
L 402.443963 455.064477 
L 402.446358 455.061779 
z
" clip-path="url(#pd7e25dff67)" style="fill: #cc660b; fill-opacity: 0.08"/>
   </g>
   <g id="patch_65">
    <path d="M 405.102944 451.988589 
C 347.588972 451.988589 347.588972 334.99851 290.075 334.99851 
L 290.075 335.311887 
C 347.588972 335.311887 347.588972 453.883386 403.481764 453.883386 
L 403.598582 453.748908 
L 403.715244 453.614297 
L 403.831749 453.479552 
L 403.948098 453.344673 
L 404.06429 453.209661 
L 404.180325 453.074516 
L 404.296204 452.939239 
L 404.411925 452.803828 
L 404.527489 452.668285 
L 404.642895 452.53261 
L 404.758144 452.396802 
L 404.873235 452.260863 
L 404.988169 452.124791 
z
" clip-path="url(#pd7e25dff67)" style="fill: #70453c; fill-opacity: 0.35"/>
   </g>
   <g id="patch_66">
    <path d="M 420.958995 429.285537 
C 355.516998 429.285537 355.516998 406.79915 290.075 406.79915 
L 290.075 410.285921 
C 355.516998 410.285921 355.516998 451.988589 405.102944 451.988589 
L 406.369277 450.464306 
L 407.615817 448.924003 
L 408.842357 447.367931 
L 410.048696 445.796348 
L 411.234635 444.209512 
L 412.399979 442.607685 
L 413.544536 440.99113 
L 414.668117 439.360114 
L 415.770538 437.714905 
L 416.851616 436.055775 
L 417.911173 434.382997 
L 418.949036 432.696845 
L 419.965032 430.997599 
z
" clip-path="url(#pd7e25dff67)" style="fill: #70453c; fill-opacity: 0.08"/>
   </g>
   <g id="patch_67">
    <path d="M 422.597438 426.346914 
C 356.336219 426.346914 356.336219 334.771845 290.075 334.771845 
L 290.075 334.99851 
C 356.336219 334.99851 356.336219 427.924794 421.728171 427.924794 
L 421.790876 427.812424 
L 421.853487 427.700002 
L 421.916003 427.587528 
L 421.978425 427.475002 
L 422.040752 427.362424 
L 422.102985 427.249795 
L 422.165123 427.137115 
L 422.227167 427.024383 
L 422.289115 426.911599 
L 422.350969 426.798765 
L 422.412729 426.685879 
L 422.474393 426.572941 
L 422.535963 426.459953 
z
" clip-path="url(#pd7e25dff67)" style="fill: #70453c; fill-opacity: 0.35"/>
   </g>
   <g id="patch_68">
    <path d="M 427.805766 415.81981 
C 358.940383 415.81981 358.940383 405.320675 290.075 405.320675 
L 290.075 406.79915 
C 358.940383 406.79915 358.940383 426.346914 422.597438 426.346914 
L 422.99609 425.608343 
L 423.390691 424.867627 
L 423.781229 424.124789 
L 424.167692 423.37985 
L 424.550069 422.632832 
L 424.928349 421.883758 
L 425.302521 421.13265 
L 425.672573 420.37953 
L 426.038494 419.62442 
L 426.400274 418.867343 
L 426.757901 418.108321 
L 427.111366 417.347376 
L 427.460658 416.584532 
z
" clip-path="url(#pd7e25dff67)" style="fill: #70453c; fill-opacity: 0.08"/>
   </g>
   <g id="patch_69">
    <path d="M 428.894988 413.329657 
C 359.484994 413.329657 359.484994 334.626365 290.075 334.626365 
L 290.075 334.771845 
C 359.484994 334.771845 359.484994 414.39082 428.437243 414.39082 
L 428.470204 414.315136 
L 428.503125 414.239435 
L 428.536005 414.163716 
L 428.568844 414.087979 
L 428.601642 414.012225 
L 428.634399 413.936454 
L 428.667116 413.860665 
L 428.699792 413.784859 
L 428.732427 413.709035 
L 428.765021 413.633194 
L 428.797574 413.557336 
L 428.830086 413.48146 
L 428.862557 413.405567 
z
" clip-path="url(#pd7e25dff67)" style="fill: #70453c; fill-opacity: 0.35"/>
   </g>
   <g id="patch_70">
    <path d="M 433.278412 401.798347 
C 361.676706 401.798347 361.676706 403.767025 290.075 403.767025 
L 290.075 405.320675 
C 361.676706 405.320675 361.676706 413.329657 428.894988 413.329657 
L 429.238773 412.517906 
L 429.577881 411.704215 
L 429.9123 410.888611 
L 430.242018 410.07112 
L 430.567026 409.251769 
L 430.887313 408.430584 
L 431.202868 407.607593 
L 431.51368 406.782823 
L 431.81974 405.9563 
L 432.121038 405.128052 
L 432.417564 404.298105 
L 432.709308 403.466487 
L 432.99626 402.633226 
z
" clip-path="url(#pd7e25dff67)" style="fill: #70453c; fill-opacity: 0.08"/>
   </g>
   <g id="patch_71">
    <path d="M 433.824444 400.135744 
C 361.949722 400.135744 361.949722 334.602648 290.075 334.602648 
L 290.075 334.626365 
C 361.949722 334.626365 361.949722 400.314975 433.766591 400.314975 
L 433.77073 400.302175 
L 433.774869 400.289375 
L 433.779006 400.276574 
L 433.783143 400.263773 
L 433.787278 400.250972 
L 433.791412 400.23817 
L 433.795545 400.225368 
L 433.799677 400.212566 
L 433.803808 400.199763 
L 433.807937 400.18696 
L 433.812066 400.174157 
L 433.816193 400.161353 
L 433.820319 400.148549 
z
" clip-path="url(#pd7e25dff67)" style="fill: #70453c; fill-opacity: 0.35"/>
   </g>
   <g id="patch_72">
    <path d="M 434.410371 398.276267 
C 362.242685 398.276267 362.242685 403.521497 290.075 403.521497 
L 290.075 403.767025 
C 362.242685 403.767025 362.242685 400.135744 433.824444 400.135744 
L 433.867081 400.00317 
L 433.909597 399.870558 
L 433.951993 399.737907 
L 433.994267 399.605219 
L 434.036422 399.472492 
L 434.078455 399.339728 
L 434.120368 399.206926 
L 434.162159 399.074087 
L 434.20383 398.94121 
L 434.24538 398.808296 
L 434.286809 398.675344 
L 434.328118 398.542356 
L 434.369305 398.40933 
z
" clip-path="url(#pd7e25dff67)" style="fill: #70453c; fill-opacity: 0.08"/>
   </g>
   <g id="patch_73">
    <path d="M 434.903426 396.643872 
C 362.489213 396.643872 362.489213 334.584545 290.075 334.584545 
L 290.075 334.602648 
C 362.489213 334.602648 362.489213 396.781679 434.862568 396.781679 
L 434.86549 396.771837 
L 434.868412 396.761995 
L 434.871334 396.752152 
L 434.874255 396.742309 
L 434.877175 396.732467 
L 434.880094 396.722624 
L 434.883013 396.71278 
L 434.885931 396.702937 
L 434.888849 396.693093 
L 434.891766 396.683249 
L 434.894682 396.673405 
L 434.897597 396.663561 
L 434.900512 396.653717 
z
" clip-path="url(#pd7e25dff67)" style="fill: #70453c; fill-opacity: 0.35"/>
   </g>
   <g id="patch_74">
    <path d="M 435.120104 395.904996 
C 362.597552 395.904996 362.597552 403.42452 290.075 403.42452 
L 290.075 403.521497 
C 362.597552 403.521497 362.597552 396.643872 434.903426 396.643872 
L 434.919027 396.591131 
L 434.934608 396.538384 
L 434.95017 396.485632 
L 434.965713 396.432874 
L 434.981238 396.380111 
L 434.996743 396.327343 
L 435.01223 396.274568 
L 435.027697 396.221789 
L 435.043146 396.169003 
L 435.058575 396.116213 
L 435.073986 396.063417 
L 435.089378 396.010615 
L 435.10475 395.957808 
z
" clip-path="url(#pd7e25dff67)" style="fill: #70453c; fill-opacity: 0.08"/>
   </g>
   <g id="patch_75">
    <path d="M 440.23922 370.316407 
C 365.15711 370.316407 365.15711 331.489776 290.075 331.489776 
L 290.075 334.584545 
C 365.15711 334.584545 365.15711 394.403383 435.548078 394.403383 
L 436.010831 392.710443 
L 436.454145 391.012375 
L 436.877962 389.3094 
L 437.282227 387.601739 
L 437.666886 385.889614 
L 438.031891 384.173246 
L 438.377195 382.452859 
L 438.702751 380.728675 
L 439.008518 379.000918 
L 439.294457 377.269813 
L 439.560529 375.535584 
L 439.806702 373.798457 
L 440.032942 372.058656 
z
" clip-path="url(#pd7e25dff67)" style="fill: #ab1f20; fill-opacity: 0.35"/>
   </g>
   <g id="patch_76">
    <path d="M 413.573018 265.442165 
C 351.824009 265.442165 351.824009 389.497192 290.075 389.497192 
L 290.075 403.42452 
C 351.824009 403.42452 351.824009 370.316407 440.23922 370.316407 
L 440.919821 362.451575 
L 441.193901 354.562425 
L 441.060741 346.669685 
L 440.52069 338.794093 
L 439.575168 330.956343 
L 438.226659 323.177027 
L 436.478705 315.476585 
L 434.335901 307.87525 
L 431.803875 300.392995 
L 428.889281 293.049478 
L 425.599777 285.863994 
L 421.944005 278.855423 
L 417.931571 272.042179 
z
" clip-path="url(#pd7e25dff67)" style="fill: #ab1f20; fill-opacity: 0.08"/>
   </g>
   <g id="patch_77">
    <path d="M 406.329667 255.879906 
C 348.202333 255.879906 348.202333 330.177999 290.075 330.177999 
L 290.075 331.489776 
C 348.202333 331.489776 348.202333 264.164201 412.671403 264.164201 
L 412.237252 263.558519 
L 411.800162 262.954928 
L 411.360144 262.35344 
L 410.917208 261.75407 
L 410.471365 261.156832 
L 410.022624 260.56174 
L 409.570997 259.968808 
L 409.116493 259.378049 
L 408.659123 258.789477 
L 408.198899 258.203107 
L 407.73583 257.618951 
L 407.269928 257.037023 
L 406.801203 256.457337 
z
" clip-path="url(#pd7e25dff67)" style="fill: #ab1f20; fill-opacity: 0.35"/>
   </g>
   <g id="patch_78">
    <path d="M 367.462718 222.057758 
C 328.768859 222.057758 328.768859 382.998329 290.075 382.998329 
L 290.075 389.497192 
C 328.768859 389.497192 328.768859 255.879906 406.329667 255.879906 
L 403.952469 253.0529 
L 401.507892 250.283196 
L 398.997337 247.572379 
L 396.422238 244.922 
L 393.78407 242.333576 
L 391.084342 239.808588 
L 388.324599 237.348481 
L 385.50642 234.954662 
L 382.631417 232.628501 
L 379.701237 230.37133 
L 376.717554 228.184439 
L 373.682078 226.06908 
L 370.596544 224.026463 
z
" clip-path="url(#pd7e25dff67)" style="fill: #ab1f20; fill-opacity: 0.08"/>
   </g>
   <g id="patch_79">
    <path d="M 366.068213 221.214767 
C 328.071606 221.214767 328.071606 330.170293 290.075 330.170293 
L 290.075 330.177999 
C 328.071606 330.177999 328.071606 221.246289 366.120958 221.246289 
L 366.117191 221.244037 
L 366.113424 221.241785 
L 366.109657 221.239533 
L 366.105889 221.237281 
L 366.102122 221.235029 
L 366.098355 221.232777 
L 366.094587 221.230526 
L 366.09082 221.228274 
L 366.087052 221.226023 
L 366.083284 221.223771 
L 366.079517 221.22152 
L 366.075749 221.219269 
L 366.071981 221.217018 
z
" clip-path="url(#pd7e25dff67)" style="fill: #ab1f20; fill-opacity: 0.35"/>
   </g>
   <g id="patch_80">
    <path d="M 365.704861 220.998385 
C 327.88993 220.998385 327.88993 382.945293 290.075 382.945293 
L 290.075 382.998329 
C 327.88993 382.998329 327.88993 221.214767 366.068213 221.214767 
L 366.042279 221.199278 
L 366.016342 221.183795 
L 365.990402 221.168316 
L 365.964459 221.152843 
L 365.938513 221.137374 
L 365.912563 221.121911 
L 365.886611 221.106452 
L 365.860656 221.090999 
L 365.834698 221.075551 
L 365.808736 221.060107 
L 365.782772 221.044669 
L 365.756805 221.029236 
L 365.730834 221.013808 
z
" clip-path="url(#pd7e25dff67)" style="fill: #ab1f20; fill-opacity: 0.08"/>
   </g>
   <g id="patch_81">
    <path d="M 364.321217 220.186593 
C 327.198109 220.186593 327.198109 330.165774 290.075 330.165774 
L 290.075 330.170293 
C 327.198109 330.170293 327.198109 220.204669 364.352386 220.204669 
L 364.35016 220.203378 
L 364.347934 220.202086 
L 364.345707 220.200795 
L 364.343481 220.199504 
L 364.341255 220.198213 
L 364.339028 220.196921 
L 364.336802 220.19563 
L 364.334576 220.194339 
L 364.332349 220.193048 
L 364.330123 220.191757 
L 364.327897 220.190466 
L 364.32567 220.189175 
L 364.323444 220.187884 
z
" clip-path="url(#pd7e25dff67)" style="fill: #ab1f20; fill-opacity: 0.35"/>
   </g>
   <g id="patch_82">
    <path d="M 364.148652 220.086691 
C 327.111826 220.086691 327.111826 382.920289 290.075 382.920289 
L 290.075 382.945293 
C 327.111826 382.945293 327.111826 220.186593 364.321217 220.186593 
L 364.308895 220.17945 
L 364.296573 220.172308 
L 364.28425 220.165167 
L 364.271926 220.158027 
L 364.259602 220.150888 
L 364.247276 220.143751 
L 364.234951 220.136614 
L 364.222624 220.129479 
L 364.210297 220.122345 
L 364.197969 220.115212 
L 364.185641 220.10808 
L 364.173312 220.100949 
L 364.160982 220.09382 
z
" clip-path="url(#pd7e25dff67)" style="fill: #ab1f20; fill-opacity: 0.08"/>
   </g>
   <g id="patch_83">
    <path d="M 362.762993 219.295162 
C 326.418996 219.295162 326.418996 330.162323 290.075 330.162323 
L 290.075 330.165774 
C 326.418996 330.165774 326.418996 219.308691 362.786958 219.308691 
L 362.785246 219.307725 
L 362.783535 219.306758 
L 362.781823 219.305792 
L 362.780111 219.304825 
L 362.778399 219.303859 
L 362.776687 219.302892 
L 362.774976 219.301926 
L 362.773264 219.300959 
L 362.771552 219.299993 
L 362.76984 219.299027 
L 362.768128 219.29806 
L 362.766416 219.297094 
L 362.764704 219.296128 
z
" clip-path="url(#pd7e25dff67)" style="fill: #ab1f20; fill-opacity: 0.35"/>
   </g>
   <g id="patch_84">
    <path d="M 362.623214 219.216361 
C 326.349107 219.216361 326.349107 382.900168 290.075 382.900168 
L 290.075 382.920289 
C 326.349107 382.920289 326.349107 219.295162 362.762993 219.295162 
L 362.753011 219.289528 
L 362.743029 219.283895 
L 362.733047 219.278264 
L 362.723064 219.272632 
L 362.713081 219.267002 
L 362.703097 219.261372 
L 362.693113 219.255743 
L 362.683129 219.250115 
L 362.673144 219.244487 
L 362.663159 219.238861 
L 362.653173 219.233235 
L 362.643187 219.227609 
L 362.633201 219.221985 
z
" clip-path="url(#pd7e25dff67)" style="fill: #ab1f20; fill-opacity: 0.08"/>
   </g>
   <g id="patch_85">
    <path d="M 358.005598 216.718152 
C 324.040299 216.718152 324.040299 329.700688 290.075 329.700688 
L 290.075 330.162323 
C 324.040299 330.162323 324.040299 218.453765 361.252721 218.453765 
L 361.022171 218.327252 
L 360.791404 218.201128 
L 360.560422 218.075395 
L 360.329225 217.950051 
L 360.097815 217.825098 
L 359.866191 217.700536 
L 359.634354 217.576365 
L 359.402305 217.452586 
L 359.170045 217.329198 
L 358.937574 217.206203 
L 358.704893 217.083601 
L 358.472003 216.961391 
L 358.238904 216.839575 
z
" clip-path="url(#pd7e25dff67)" style="fill: #195f90; fill-opacity: 0.35"/>
   </g>
   <g id="patch_86">
    <path d="M 336.509386 207.533905 
C 313.292193 207.533905 313.292193 379.967842 290.075 379.967842 
L 290.075 382.900168 
C 313.292193 382.900168 313.292193 216.718152 358.005598 216.718152 
L 356.51881 215.956087 
L 355.02383 215.210011 
L 353.520832 214.480009 
L 352.009991 213.766167 
L 350.491484 213.068568 
L 348.965487 212.387294 
L 347.432178 211.722424 
L 345.891736 211.074035 
L 344.34434 210.442203 
L 342.79017 209.827002 
L 341.229407 209.228503 
L 339.662234 208.646775 
L 338.088832 208.081887 
z
" clip-path="url(#pd7e25dff67)" style="fill: #195f90; fill-opacity: 0.08"/>
   </g>
   <g id="patch_87">
    <path d="M 333.723782 206.613379 
C 311.899391 206.613379 311.899391 329.529809 290.075 329.529809 
L 290.075 329.700688 
C 311.899391 329.700688 311.899391 207.034839 335.021075 207.034839 
L 334.928536 207.004358 
L 334.835977 206.973935 
L 334.743399 206.94357 
L 334.650802 206.913263 
L 334.558186 206.883014 
L 334.46555 206.852823 
L 334.372896 206.82269 
L 334.280222 206.792614 
L 334.187529 206.762597 
L 334.094818 206.732637 
L 334.002087 206.702736 
L 333.909338 206.672892 
L 333.816569 206.643106 
z
" clip-path="url(#pd7e25dff67)" style="fill: #195f90; fill-opacity: 0.35"/>
   </g>
   <g id="patch_88">
    <path d="M 323.119993 203.628721 
C 306.597496 203.628721 306.597496 378.587747 290.075 378.587747 
L 290.075 379.967842 
C 306.597496 379.967842 306.597496 206.613379 333.723782 206.613379 
L 332.973708 206.375412 
L 332.222427 206.141233 
L 331.469958 205.91085 
L 330.716321 205.684267 
L 329.961535 205.461491 
L 329.20562 205.242528 
L 328.448596 205.027382 
L 327.690481 204.81606 
L 326.931295 204.608567 
L 326.171058 204.404908 
L 325.40979 204.205089 
L 324.64751 204.009115 
L 323.884237 203.816991 
z
" clip-path="url(#pd7e25dff67)" style="fill: #195f90; fill-opacity: 0.08"/>
   </g>
   <g id="patch_89">
    <path d="M 320.724453 203.064999 
C 305.399726 203.064999 305.399726 329.418253 290.075 329.418253 
L 290.075 329.529809 
C 305.399726 329.529809 305.399726 203.264668 321.592538 203.264668 
L 321.53057 203.250242 
L 321.468596 203.235841 
L 321.406617 203.221465 
L 321.344631 203.207114 
L 321.28264 203.192789 
L 321.220643 203.178489 
L 321.15864 203.164214 
L 321.096631 203.149965 
L 321.034616 203.135741 
L 320.972595 203.121542 
L 320.910568 203.107368 
L 320.848536 203.09322 
L 320.786497 203.079097 
z
" clip-path="url(#pd7e25dff67)" style="fill: #195f90; fill-opacity: 0.35"/>
   </g>
   <g id="patch_90">
    <path d="M 315.053714 201.888051 
C 302.564357 201.888051 302.564357 377.862423 290.075 377.862423 
L 290.075 378.587747 
C 302.564357 378.587747 302.564357 203.064999 320.724453 203.064999 
L 320.320906 202.973956 
L 319.917116 202.883983 
L 319.513085 202.795081 
L 319.108818 202.707251 
L 318.704315 202.620494 
L 318.299581 202.534811 
L 317.894618 202.450201 
L 317.489429 202.366666 
L 317.084017 202.284206 
L 316.678385 202.202821 
L 316.272536 202.122513 
L 315.866472 202.043281 
L 315.460197 201.965127 
z
" clip-path="url(#pd7e25dff67)" style="fill: #195f90; fill-opacity: 0.08"/>
   </g>
   <g id="patch_91">
    <path d="M 313.280902 201.56493 
C 301.677951 201.56493 301.677951 329.389256 290.075 329.389256 
L 290.075 329.418253 
C 301.677951 329.418253 301.677951 201.605304 313.508918 201.605304 
L 313.492633 201.602409 
L 313.476348 201.599516 
L 313.460063 201.596624 
L 313.443777 201.593734 
L 313.427491 201.590846 
L 313.411205 201.58796 
L 313.394918 201.585075 
L 313.378631 201.582192 
L 313.362344 201.579311 
L 313.346056 201.576431 
L 313.329768 201.573553 
L 313.31348 201.570677 
L 313.297191 201.567803 
z
" clip-path="url(#pd7e25dff67)" style="fill: #195f90; fill-opacity: 0.35"/>
   </g>
   <g id="patch_92">
    <path d="M 311.648219 201.286022 
C 300.861609 201.286022 300.861609 377.655016 290.075 377.655016 
L 290.075 377.862423 
C 300.861609 377.862423 300.861609 201.56493 313.280902 201.56493 
L 313.164383 201.544433 
L 313.047847 201.524025 
L 312.931296 201.503705 
L 312.814729 201.483473 
L 312.698147 201.46333 
L 312.581549 201.443275 
L 312.464936 201.423309 
L 312.348307 201.403431 
L 312.231663 201.383641 
L 312.115005 201.36394 
L 311.998331 201.344328 
L 311.881641 201.324804 
L 311.764937 201.305369 
z
" clip-path="url(#pd7e25dff67)" style="fill: #195f90; fill-opacity: 0.08"/>
   </g>
   <g id="patch_93">
    <path d="M 309.922841 201.010623 
C 299.998921 201.010623 299.998921 329.367132 290.075 329.367132 
L 290.075 329.389256 
C 299.998921 329.389256 299.998921 201.037594 310.097458 201.037594 
L 310.084986 201.035661 
L 310.072514 201.033729 
L 310.060042 201.031798 
L 310.04757 201.029868 
L 310.035098 201.027939 
L 310.022626 201.026011 
L 310.010153 201.024084 
L 309.997681 201.022158 
L 309.985208 201.020233 
L 309.972735 201.018309 
L 309.960262 201.016386 
L 309.947788 201.014464 
L 309.935315 201.012543 
z
" clip-path="url(#pd7e25dff67)" style="fill: #195f90; fill-opacity: 0.35"/>
   </g>
   <g id="patch_94">
    <path d="M 308.293635 200.768728 
C 299.184317 200.768728 299.184317 377.448779 290.075 377.448779 
L 290.075 377.655016 
C 299.184317 377.655016 299.184317 201.010623 309.922841 201.010623 
L 309.806556 200.992775 
L 309.690257 200.975014 
L 309.573945 200.957341 
L 309.457619 200.939755 
L 309.34128 200.922257 
L 309.224927 200.904848 
L 309.108561 200.887525 
L 308.992182 200.870291 
L 308.87579 200.853144 
L 308.759385 200.836085 
L 308.642967 200.819114 
L 308.526536 200.802231 
L 308.410092 200.785436 
z
" clip-path="url(#pd7e25dff67)" style="fill: #195f90; fill-opacity: 0.08"/>
   </g>
   <g id="patch_95">
    <path d="M 306.648047 200.542213 
C 298.361523 200.542213 298.361523 329.3558 290.075 329.3558 
L 290.075 329.367132 
C 298.361523 329.367132 298.361523 200.554103 306.73777 200.554103 
L 306.731361 200.553252 
L 306.724953 200.552401 
L 306.718544 200.551551 
L 306.712135 200.5507 
L 306.705727 200.54985 
L 306.699318 200.549001 
L 306.692909 200.548151 
L 306.6865 200.547302 
L 306.680091 200.546453 
L 306.673683 200.545605 
L 306.667274 200.544756 
L 306.660865 200.543908 
L 306.654456 200.54306 
z
" clip-path="url(#pd7e25dff67)" style="fill: #195f90; fill-opacity: 0.35"/>
   </g>
   <g id="patch_96">
    <path d="M 305.936617 200.449807 
C 298.005808 200.449807 298.005808 377.358953 290.075 377.358953 
L 290.075 377.448779 
C 298.005808 377.448779 298.005808 200.542213 306.648047 200.542213 
L 306.597245 200.535504 
L 306.54644 200.528811 
L 306.495634 200.522136 
L 306.444825 200.515477 
L 306.394014 200.508835 
L 306.343201 200.502209 
L 306.292386 200.495601 
L 306.241568 200.489009 
L 306.190748 200.482433 
L 306.139926 200.475874 
L 306.089102 200.469332 
L 306.038276 200.462807 
L 305.987447 200.456298 
z
" clip-path="url(#pd7e25dff67)" style="fill: #195f90; fill-opacity: 0.08"/>
   </g>
   <g id="patch_97">
    <path d="M 304.313939 200.251471 
C 297.19447 200.251471 297.19447 329.347772 290.075 329.347772 
L 290.075 329.3558 
C 297.19447 329.3558 297.19447 200.25893 304.37762 200.25893 
L 304.373071 200.258396 
L 304.368523 200.257863 
L 304.363974 200.257329 
L 304.359426 200.256796 
L 304.354877 200.256263 
L 304.350329 200.25573 
L 304.34578 200.255197 
L 304.341231 200.254665 
L 304.336683 200.254132 
L 304.332134 200.2536 
L 304.327585 200.253067 
L 304.323037 200.252535 
L 304.318488 200.252003 
z
" clip-path="url(#pd7e25dff67)" style="fill: #195f90; fill-opacity: 0.35"/>
   </g>
   <g id="patch_98">
    <path d="M 303.949311 200.209277 
C 297.012156 200.209277 297.012156 377.312994 290.075 377.312994 
L 290.075 377.358953 
C 297.012156 377.358953 297.012156 200.251471 304.313939 200.251471 
L 304.287898 200.248429 
L 304.261856 200.245391 
L 304.235813 200.242358 
L 304.20977 200.239328 
L 304.183726 200.236304 
L 304.157682 200.233283 
L 304.131638 200.230267 
L 304.105593 200.227255 
L 304.079547 200.224248 
L 304.053501 200.221245 
L 304.027454 200.218247 
L 304.001407 200.215252 
L 303.975359 200.212263 
z
" clip-path="url(#pd7e25dff67)" style="fill: #195f90; fill-opacity: 0.08"/>
   </g>
   <g id="patch_99">
    <path d="M 302.356019 200.035093 
C 296.215509 200.035093 296.215509 329.343751 290.075 329.343751 
L 290.075 329.347772 
C 296.215509 329.347772 296.215509 200.038422 302.387963 200.038422 
L 302.385681 200.038184 
L 302.383399 200.037946 
L 302.381118 200.037708 
L 302.378836 200.03747 
L 302.376554 200.037232 
L 302.374273 200.036994 
L 302.371991 200.036757 
L 302.369709 200.036519 
L 302.367428 200.036281 
L 302.365146 200.036043 
L 302.362864 200.035805 
L 302.360582 200.035568 
L 302.358301 200.03533 
z
" clip-path="url(#pd7e25dff67)" style="fill: #195f90; fill-opacity: 0.35"/>
   </g>
   <g id="patch_100">
    <path d="M 302.035032 200.002005 
C 296.055016 200.002005 296.055016 377.272592 290.075 377.272592 
L 290.075 377.312994 
C 296.055016 377.312994 296.055016 200.035093 302.356019 200.035093 
L 302.333094 200.032707 
L 302.310168 200.030325 
L 302.287242 200.027946 
L 302.264315 200.025571 
L 302.241389 200.023199 
L 302.218462 200.020831 
L 302.195534 200.018466 
L 302.172606 200.016104 
L 302.149678 200.013746 
L 302.126749 200.011391 
L 302.103821 200.009039 
L 302.080891 200.006691 
L 302.057962 200.004346 
z
" clip-path="url(#pd7e25dff67)" style="fill: #195f90; fill-opacity: 0.08"/>
   </g>
   <g id="patch_101">
    <path d="M 300.447012 199.848171 
C 295.261006 199.848171 295.261006 329.340651 290.075 329.340651 
L 290.075 329.343751 
C 295.261006 329.343751 295.261006 199.850434 300.471668 199.850434 
L 300.469907 199.850273 
L 300.468145 199.850111 
L 300.466384 199.849949 
L 300.464623 199.849787 
L 300.462862 199.849626 
L 300.461101 199.849464 
L 300.45934 199.849302 
L 300.457579 199.849141 
L 300.455818 199.848979 
L 300.454056 199.848817 
L 300.452295 199.848656 
L 300.450534 199.848494 
L 300.448773 199.848333 
z
" clip-path="url(#pd7e25dff67)" style="fill: #195f90; fill-opacity: 0.35"/>
   </g>
   <g id="patch_102">
    <path d="M 300.18566 199.824424 
C 295.13033 199.824424 295.13033 377.239735 290.075 377.239735 
L 290.075 377.272592 
C 295.13033 377.272592 295.13033 199.848171 300.447012 199.848171 
L 300.428345 199.84646 
L 300.409678 199.844752 
L 300.391011 199.843045 
L 300.372344 199.841341 
L 300.353676 199.83964 
L 300.335009 199.83794 
L 300.316341 199.836243 
L 300.297673 199.834547 
L 300.279004 199.832855 
L 300.260336 199.831164 
L 300.241667 199.829476 
L 300.222998 199.827789 
L 300.204329 199.826106 
z
" clip-path="url(#pd7e25dff67)" style="fill: #195f90; fill-opacity: 0.08"/>
   </g>
   <g id="patch_103">
    <path d="M 298.599041 199.689765 
C 294.337021 199.689765 294.337021 329.337946 290.075 329.337946 
L 290.075 329.340651 
C 294.337021 329.340651 294.337021 199.691483 298.620579 199.691483 
L 298.619041 199.69136 
L 298.617502 199.691238 
L 298.615964 199.691115 
L 298.614425 199.690992 
L 298.612887 199.690869 
L 298.611349 199.690746 
L 298.60981 199.690624 
L 298.608272 199.690501 
L 298.606733 199.690378 
L 298.605195 199.690255 
L 298.603656 199.690133 
L 298.602118 199.69001 
L 298.60058 199.689887 
z
" clip-path="url(#pd7e25dff67)" style="fill: #195f90; fill-opacity: 0.35"/>
   </g>
   <g id="patch_104">
    <path d="M 298.369558 199.671638 
C 294.222279 199.671638 294.222279 377.210914 290.075 377.210914 
L 290.075 377.239735 
C 294.222279 377.239735 294.222279 199.689765 298.599041 199.689765 
L 298.58265 199.688459 
L 298.56626 199.687154 
L 298.549869 199.685852 
L 298.533477 199.684551 
L 298.517086 199.683252 
L 298.500695 199.681954 
L 298.484303 199.680659 
L 298.467911 199.679365 
L 298.45152 199.678073 
L 298.435128 199.676782 
L 298.418735 199.675493 
L 298.402343 199.674206 
L 298.385951 199.672921 
z
" clip-path="url(#pd7e25dff67)" style="fill: #195f90; fill-opacity: 0.08"/>
   </g>
   <g id="patch_105">
    <path d="M 296.765142 199.554415 
C 293.420071 199.554415 293.420071 329.333193 290.075 329.333193 
L 290.075 329.337946 
C 293.420071 329.337946 293.420071 199.55699 296.803013 199.55699 
L 296.800308 199.556806 
L 296.797603 199.556622 
L 296.794898 199.556438 
L 296.792193 199.556254 
L 296.789488 199.55607 
L 296.786783 199.555886 
L 296.784078 199.555702 
L 296.781373 199.555518 
L 296.778668 199.555334 
L 296.775963 199.55515 
L 296.773258 199.554966 
L 296.770552 199.554783 
L 296.767847 199.554599 
z
" clip-path="url(#pd7e25dff67)" style="fill: #195f90; fill-opacity: 0.35"/>
   </g>
   <g id="patch_106">
    <path d="M 296.587551 199.542462 
C 293.331275 199.542462 293.331275 377.188629 290.075 377.188629 
L 290.075 377.210914 
C 293.331275 377.210914 293.331275 199.554415 296.765142 199.554415 
L 296.752458 199.553555 
L 296.739773 199.552695 
L 296.727088 199.551837 
L 296.714403 199.550979 
L 296.701718 199.550123 
L 296.689033 199.549268 
L 296.676348 199.548413 
L 296.663663 199.54756 
L 296.650978 199.546708 
L 296.638293 199.545857 
L 296.625607 199.545006 
L 296.612922 199.544157 
L 296.600236 199.543309 
z
" clip-path="url(#pd7e25dff67)" style="fill: #195f90; fill-opacity: 0.08"/>
   </g>
   <g id="patch_107">
    <path d="M 295.004387 199.444893 
C 292.539693 199.444893 292.539693 329.331263 290.075 329.331263 
L 290.075 329.333193 
C 292.539693 329.333193 292.539693 199.445764 295.019779 199.445764 
L 295.01868 199.445702 
L 295.01758 199.445639 
L 295.016481 199.445577 
L 295.015381 199.445515 
L 295.014282 199.445453 
L 295.013183 199.44539 
L 295.012083 199.445328 
L 295.010984 199.445266 
L 295.009884 199.445204 
L 295.008785 199.445142 
L 295.007685 199.44508 
L 295.006586 199.445017 
L 295.005486 199.444955 
z
" clip-path="url(#pd7e25dff67)" style="fill: #195f90; fill-opacity: 0.35"/>
   </g>
   <g id="patch_108">
    <path d="M 294.938036 199.441157 
C 292.506518 199.441157 292.506518 377.180309 290.075 377.180309 
L 290.075 377.188629 
C 292.506518 377.188629 292.506518 199.444893 295.004387 199.444893 
L 294.999648 199.444625 
L 294.994908 199.444358 
L 294.990169 199.44409 
L 294.98543 199.443823 
L 294.98069 199.443555 
L 294.975951 199.443288 
L 294.971212 199.443021 
L 294.966472 199.442754 
L 294.961733 199.442488 
L 294.956993 199.442221 
L 294.952254 199.441955 
L 294.947515 199.441689 
L 294.942775 199.441423 
z
" clip-path="url(#pd7e25dff67)" style="fill: #195f90; fill-opacity: 0.08"/>
   </g>
   <g id="patch_109">
    <path d="M 293.232807 199.354852 
C 291.653903 199.354852 291.653903 329.314155 290.075 329.314155 
L 290.075 329.331263 
C 291.653903 329.331263 291.653903 199.361072 293.369316 199.361072 
L 293.359565 199.360624 
L 293.349815 199.360176 
L 293.340064 199.359729 
L 293.330314 199.359283 
L 293.320563 199.358837 
L 293.310813 199.358392 
L 293.301062 199.357947 
L 293.291311 199.357503 
L 293.281561 199.35706 
L 293.27181 199.356617 
L 293.262059 199.356175 
L 293.252308 199.355733 
L 293.242558 199.355292 
z
" clip-path="url(#pd7e25dff67)" style="fill: #765297; fill-opacity: 0.35"/>
   </g>
   <g id="patch_110">
    <path d="M 292.637238 199.329116 
C 291.356119 199.329116 291.356119 377.105675 290.075 377.105675 
L 290.075 377.180309 
C 291.356119 377.180309 291.356119 199.354852 293.232807 199.354852 
L 293.190269 199.352938 
L 293.147732 199.351036 
L 293.105193 199.349145 
L 293.062654 199.347267 
L 293.020115 199.345399 
L 292.977575 199.343544 
L 292.935035 199.341699 
L 292.892494 199.339867 
L 292.849953 199.338046 
L 292.807411 199.336237 
L 292.764868 199.334439 
L 292.722325 199.332653 
L 292.679782 199.330879 
z
" clip-path="url(#pd7e25dff67)" style="fill: #765297; fill-opacity: 0.08"/>
   </g>
   <g id="patch_111">
    <path d="M 291.047297 199.271574 
C 290.561149 199.271574 290.561149 329.311625 290.075 329.311625 
L 290.075 329.314155 
C 290.561149 329.314155 290.561149 199.272203 291.067493 199.272203 
L 291.066051 199.272158 
L 291.064608 199.272113 
L 291.063166 199.272068 
L 291.061723 199.272023 
L 291.06028 199.271978 
L 291.058838 199.271933 
L 291.057395 199.271888 
L 291.055953 199.271843 
L 291.05451 199.271798 
L 291.053068 199.271753 
L 291.051625 199.271709 
L 291.050182 199.271664 
L 291.04874 199.271619 
z
" clip-path="url(#pd7e25dff67)" style="fill: #238023; fill-opacity: 0.35"/>
   </g>
   <g id="patch_112">
    <path d="M 290.849303 199.265545 
C 290.462151 199.265545 290.462151 377.080875 290.075 377.080875 
L 290.075 377.105675 
C 290.462151 377.105675 290.462151 199.271574 291.047297 199.271574 
L 291.033155 199.271135 
L 291.019013 199.270697 
L 291.004871 199.270261 
L 290.990728 199.269826 
L 290.976586 199.269392 
L 290.962443 199.268959 
L 290.948301 199.268528 
L 290.934158 199.268098 
L 290.920016 199.267669 
L 290.905873 199.267242 
L 290.891731 199.266816 
L 290.877588 199.266391 
L 290.863445 199.265967 
z
" clip-path="url(#pd7e25dff67)" style="fill: #238023; fill-opacity: 0.08"/>
   </g>
   <g id="text_1">
    <text style="font: 700 10px 'DejaVu Sans', 'Bitstream Vera Sans', 'Computer Modern Sans Serif', 'Lucida Grande', 'Verdana', 'Geneva', 'Lucid', 'Arial', 'Helvetica', 'Avant Garde', sans-serif; text-anchor: end" x="207.805059" y="194.127736" transform="rotate(-295.201083 207.805059 194.127736)">LINE</text>
   </g>
   <g id="text_2">
    <text style="font: 700 10px 'DejaVu Sans', 'Bitstream Vera Sans', 'Computer Modern Sans Serif', 'Lucida Grande', 'Verdana', 'Geneva', 'Lucid', 'Arial', 'Helvetica', 'Avant Garde', sans-serif; text-anchor: end" x="127.990314" y="271.581342" transform="rotate(-331.669587 127.990314 271.581342)">LTR</text>
   </g>
   <g id="text_3">
    <text style="font: 700 10px 'DejaVu Sans', 'Bitstream Vera Sans', 'Computer Modern Sans Serif', 'Lucida Grande', 'Verdana', 'Geneva', 'Lucid', 'Arial', 'Helvetica', 'Avant Garde', sans-serif; text-anchor: end" x="125.17127" y="429.207045" transform="rotate(-24.520662 125.17127 429.207045)">SINE</text>
   </g>
   <g id="text_4">
    <text style="font: 700 10px 'DejaVu Sans', 'Bitstream Vera Sans', 'Computer Modern Sans Serif', 'Lucida Grande', 'Verdana', 'Geneva', 'Lucid', 'Arial', 'Helvetica', 'Avant Garde', sans-serif; text-anchor: end" x="243.088405" y="525.064784" transform="rotate(-75.11846 243.088405 525.064784)">DNA</text>
   </g>
   <g id="text_5">
    <text style="font: 700 10px 'DejaVu Sans', 'Bitstream Vera Sans', 'Computer Modern Sans Serif', 'Lucida Grande', 'Verdana', 'Geneva', 'Lucid', 'Arial', 'Helvetica', 'Avant Garde', sans-serif; text-anchor: end" x="269.422304" y="529.533266" transform="rotate(-83.712827 269.422304 529.533266)">Retroposon</text>
   </g>
   <g id="text_6">
    <text style="font: 700 10px 'DejaVu Sans', 'Bitstream Vera Sans', 'Computer Modern Sans Serif', 'Lucida Grande', 'Verdana', 'Geneva', 'Lucid', 'Arial', 'Helvetica', 'Avant Garde', sans-serif; text-anchor: end" x="296.132994" y="530.041599" transform="rotate(-92.307194 296.132994 530.041599)">RC</text>
   </g>
   <g id="text_7">
    <text style="font: 700 10px 'DejaVu Sans', 'Bitstream Vera Sans', 'Computer Modern Sans Serif', 'Lucida Grande', 'Verdana', 'Geneva', 'Lucid', 'Arial', 'Helvetica', 'Avant Garde', sans-serif; text-anchor: start" x="295.5" y="313.605625" transform="rotate(-0 295.5 313.605625)">Near TSS</text>
   </g>
   <g id="text_8">
    <text style="font: 700 10px 'DejaVu Sans', 'Bitstream Vera Sans', 'Computer Modern Sans Serif', 'Lucida Grande', 'Verdana', 'Geneva', 'Lucid', 'Arial', 'Helvetica', 'Avant Garde', sans-serif; text-anchor: start" x="295.5" y="398.305625" transform="rotate(-0 295.5 398.305625)">Distal</text>
   </g>
   <g id="text_9">
    <text style="fill: #333333; font: 10px 'DejaVu Sans', 'Bitstream Vera Sans', 'Computer Modern Sans Serif', 'Lucida Grande', 'Verdana', 'Geneva', 'Lucid', 'Arial', 'Helvetica', 'Avant Garde', sans-serif; text-anchor: start" x="326.419225" y="525.755294" transform="rotate(-283.92545 326.419225 525.755294)">L1</text>
   </g>
   <g id="text_10">
    <text style="fill: #333333; font: 10px 'DejaVu Sans', 'Bitstream Vera Sans', 'Computer Modern Sans Serif', 'Lucida Grande', 'Verdana', 'Geneva', 'Lucid', 'Arial', 'Helvetica', 'Avant Garde', sans-serif; text-anchor: start" x="385.582302" y="500.251009" transform="rotate(-304.76843 385.582302 500.251009)">L2</text>
   </g>
   <g id="text_11">
    <text style="fill: #333333; font: 10px 'DejaVu Sans', 'Bitstream Vera Sans', 'Computer Modern Sans Serif', 'Lucida Grande', 'Verdana', 'Geneva', 'Lucid', 'Arial', 'Helvetica', 'Avant Garde', sans-serif; text-anchor: start" x="396.044063" y="492.71153" transform="rotate(-308.923302 396.044063 492.71153)">CR1</text>
   </g>
   <g id="text_12">
    <text style="fill: #333333; font: 10px 'DejaVu Sans', 'Bitstream Vera Sans', 'Computer Modern Sans Serif', 'Lucida Grande', 'Verdana', 'Geneva', 'Lucid', 'Arial', 'Helvetica', 'Avant Garde', sans-serif; text-anchor: start" x="404.932321" y="485.329001" transform="rotate(-312.647527 404.932321 485.329001)">RTE-X</text>
   </g>
   <g id="text_13">
    <text style="fill: #333333; font: 10px 'DejaVu Sans', 'Bitstream Vera Sans', 'Computer Modern Sans Serif', 'Lucida Grande', 'Verdana', 'Geneva', 'Lucid', 'Arial', 'Helvetica', 'Avant Garde', sans-serif; text-anchor: start" x="413.319112" y="477.388408" transform="rotate(-316.371753 413.319112 477.388408)">RTE-BovB</text>
   </g>
   <g id="text_14">
    <text style="fill: #333333; font: 10px 'DejaVu Sans', 'Bitstream Vera Sans', 'Computer Modern Sans Serif', 'Lucida Grande', 'Verdana', 'Geneva', 'Lucid', 'Arial', 'Helvetica', 'Avant Garde', sans-serif; text-anchor: start" x="421.169014" y="468.923287" transform="rotate(-320.095979 421.169014 468.923287)">Penelope</text>
   </g>
   <g id="text_15">
    <text style="fill: #333333; font: 10px 'DejaVu Sans', 'Bitstream Vera Sans', 'Computer Modern Sans Serif', 'Lucida Grande', 'Verdana', 'Geneva', 'Lucid', 'Arial', 'Helvetica', 'Avant Garde', sans-serif; text-anchor: start" x="428.448873" y="459.969392" transform="rotate(-323.820204 428.448873 459.969392)">Dong-R4</text>
   </g>
   <g id="text_16">
    <text style="fill: #333333; font: 10px 'DejaVu Sans', 'Bitstream Vera Sans', 'Computer Modern Sans Serif', 'Lucida Grande', 'Verdana', 'Geneva', 'Lucid', 'Arial', 'Helvetica', 'Avant Garde', sans-serif; text-anchor: start" x="435.127942" y="450.56454" transform="rotate(-327.54443 435.127942 450.56454)">ERVL-MaLR</text>
   </g>
   <g id="text_17">
    <text style="fill: #333333; font: 10px 'DejaVu Sans', 'Bitstream Vera Sans', 'Computer Modern Sans Serif', 'Lucida Grande', 'Verdana', 'Geneva', 'Lucid', 'Arial', 'Helvetica', 'Avant Garde', sans-serif; text-anchor: start" x="444.474204" y="434.719204" transform="rotate(-333.488391 444.474204 434.719204)">ERV1</text>
   </g>
   <g id="text_18">
    <text style="fill: #333333; font: 10px 'DejaVu Sans', 'Bitstream Vera Sans', 'Computer Modern Sans Serif', 'Lucida Grande', 'Verdana', 'Geneva', 'Lucid', 'Arial', 'Helvetica', 'Avant Garde', sans-serif; text-anchor: start" x="450.530449" y="421.876807" transform="rotate(-338.077481 450.530449 421.876807)">ERVL</text>
   </g>
   <g id="text_19">
    <text style="fill: #333333; font: 10px 'DejaVu Sans', 'Bitstream Vera Sans', 'Computer Modern Sans Serif', 'Lucida Grande', 'Verdana', 'Geneva', 'Lucid', 'Arial', 'Helvetica', 'Avant Garde', sans-serif; text-anchor: start" x="454.672405" y="411.127108" transform="rotate(-341.801707 454.672405 411.127108)">Gypsy</text>
   </g>
   <g id="text_20">
    <text style="fill: #333333; font: 10px 'DejaVu Sans', 'Bitstream Vera Sans', 'Computer Modern Sans Serif', 'Lucida Grande', 'Verdana', 'Geneva', 'Lucid', 'Arial', 'Helvetica', 'Avant Garde', sans-serif; text-anchor: start" x="458.102816" y="400.132736" transform="rotate(-345.525932 458.102816 400.132736)">ERVK</text>
   </g>
   <g id="text_21">
    <text style="fill: #333333; font: 10px 'DejaVu Sans', 'Bitstream Vera Sans', 'Computer Modern Sans Serif', 'Lucida Grande', 'Verdana', 'Geneva', 'Lucid', 'Arial', 'Helvetica', 'Avant Garde', sans-serif; text-anchor: start" x="462.409668" y="326.354353" transform="rotate(-9.609125 462.409668 326.354353)">Alu</text>
   </g>
   <g id="text_22">
    <text style="fill: #333333; font: 10px 'DejaVu Sans', 'Bitstream Vera Sans', 'Computer Modern Sans Serif', 'Lucida Grande', 'Verdana', 'Geneva', 'Lucid', 'Arial', 'Helvetica', 'Avant Garde', sans-serif; text-anchor: start" x="414.824776" y="230.569676" transform="rotate(-44.707502 414.824776 230.569676)">MIR</text>
   </g>
   <g id="text_23">
    <text style="fill: #333333; font: 10px 'DejaVu Sans', 'Bitstream Vera Sans', 'Computer Modern Sans Serif', 'Lucida Grande', 'Verdana', 'Geneva', 'Lucid', 'Arial', 'Helvetica', 'Avant Garde', sans-serif; text-anchor: start" x="406.535487" y="222.526997" transform="rotate(-48.431727 406.535487 222.526997)">tRNA-RTE</text>
   </g>
   <g id="text_24">
    <text style="fill: #333333; font: 10px 'DejaVu Sans', 'Bitstream Vera Sans', 'Computer Modern Sans Serif', 'Lucida Grande', 'Verdana', 'Geneva', 'Lucid', 'Arial', 'Helvetica', 'Avant Garde', sans-serif; text-anchor: start" x="397.73796" y="215.036201" transform="rotate(-52.155953 397.73796 215.036201)">5S-Deu-L2</text>
   </g>
   <g id="text_25">
    <text style="fill: #333333; font: 10px 'DejaVu Sans', 'Bitstream Vera Sans', 'Computer Modern Sans Serif', 'Lucida Grande', 'Verdana', 'Geneva', 'Lucid', 'Arial', 'Helvetica', 'Avant Garde', sans-serif; text-anchor: start" x="388.469351" y="208.128926" transform="rotate(-55.880179 388.469351 208.128926)">tRNA</text>
   </g>
   <g id="text_26">
    <text style="fill: #333333; font: 10px 'DejaVu Sans', 'Bitstream Vera Sans', 'Computer Modern Sans Serif', 'Lucida Grande', 'Verdana', 'Geneva', 'Lucid', 'Arial', 'Helvetica', 'Avant Garde', sans-serif; text-anchor: start" x="378.768806" y="201.834345" transform="rotate(-59.604404 378.768806 201.834345)">hAT-Charlie</text>
   </g>
   <g id="text_27">
    <text style="fill: #333333; font: 10px 'DejaVu Sans', 'Bitstream Vera Sans', 'Computer Modern Sans Serif', 'Lucida Grande', 'Verdana', 'Geneva', 'Lucid', 'Arial', 'Helvetica', 'Avant Garde', sans-serif; text-anchor: start" x="368.677295" y="196.179042" transform="rotate(-63.32863 368.677295 196.179042)">TcMar-Tigger</text>
   </g>
   <g id="text_28">
    <text style="fill: #333333; font: 10px 'DejaVu Sans', 'Bitstream Vera Sans', 'Computer Modern Sans Serif', 'Lucida Grande', 'Verdana', 'Geneva', 'Lucid', 'Arial', 'Helvetica', 'Avant Garde', sans-serif; text-anchor: start" x="358.237441" y="191.186904" transform="rotate(-67.052856 358.237441 191.186904)">hAT-Tip100</text>
   </g>
   <g id="text_29">
    <text style="fill: #333333; font: 10px 'DejaVu Sans', 'Bitstream Vera Sans', 'Computer Modern Sans Serif', 'Lucida Grande', 'Verdana', 'Geneva', 'Lucid', 'Arial', 'Helvetica', 'Avant Garde', sans-serif; text-anchor: start" x="347.493336" y="186.879014" transform="rotate(-70.777081 347.493336 186.879014)">hAT-Blackjack</text>
   </g>
   <g id="text_30">
    <text style="fill: #333333; font: 10px 'DejaVu Sans', 'Bitstream Vera Sans', 'Computer Modern Sans Serif', 'Lucida Grande', 'Verdana', 'Geneva', 'Lucid', 'Arial', 'Helvetica', 'Avant Garde', sans-serif; text-anchor: start" x="336.490357" y="183.273567" transform="rotate(-74.501307 336.490357 183.273567)">TcMar-Mariner</text>
   </g>
   <g id="text_31">
    <text style="fill: #333333; font: 10px 'DejaVu Sans', 'Bitstream Vera Sans', 'Computer Modern Sans Serif', 'Lucida Grande', 'Verdana', 'Geneva', 'Lucid', 'Arial', 'Helvetica', 'Avant Garde', sans-serif; text-anchor: start" x="325.274976" y="180.385791" transform="rotate(-78.225533 325.274976 180.385791)">TcMar-Tc2</text>
   </g>
   <g id="text_32">
    <text style="fill: #333333; font: 10px 'DejaVu Sans', 'Bitstream Vera Sans', 'Computer Modern Sans Serif', 'Lucida Grande', 'Verdana', 'Geneva', 'Lucid', 'Arial', 'Helvetica', 'Avant Garde', sans-serif; text-anchor: start" x="313.894562" y="178.227882" transform="rotate(-81.949758 313.894562 178.227882)">hAT-Ac</text>
   </g>
   <g id="text_33">
    <text style="fill: #333333; font: 10px 'DejaVu Sans', 'Bitstream Vera Sans', 'Computer Modern Sans Serif', 'Lucida Grande', 'Verdana', 'Geneva', 'Lucid', 'Arial', 'Helvetica', 'Avant Garde', sans-serif; text-anchor: start" x="302.397179" y="176.808954" transform="rotate(-85.673984 302.397179 176.808954)">hAT</text>
   </g>
   <g id="text_34">
    <text style="fill: #333333; font: 10px 'DejaVu Sans', 'Bitstream Vera Sans', 'Computer Modern Sans Serif', 'Lucida Grande', 'Verdana', 'Geneva', 'Lucid', 'Arial', 'Helvetica', 'Avant Garde', sans-serif; text-anchor: start" x="290.831388" y="176.135" transform="rotate(-89.39821 290.831388 176.135)">MULE-MuDR</text>
   </g>
   <g id="text_35">
    <text style="fill: #333333; font: 10px 'DejaVu Sans', 'Bitstream Vera Sans', 'Computer Modern Sans Serif', 'Lucida Grande', 'Verdana', 'Geneva', 'Lucid', 'Arial', 'Helvetica', 'Avant Garde', sans-serif; text-anchor: start" x="279.246036" y="176.208867" transform="rotate(-93.122435 279.246036 176.208867)">PiggyBac</text>
   </g>
   <g id="text_36">
    <text style="fill: #333333; font: 10px 'DejaVu Sans', 'Bitstream Vera Sans', 'Computer Modern Sans Serif', 'Lucida Grande', 'Verdana', 'Geneva', 'Lucid', 'Arial', 'Helvetica', 'Avant Garde', sans-serif; text-anchor: start" x="267.690053" y="177.030242" transform="rotate(-96.846661 267.690053 177.030242)">hAT-Tag1</text>
   </g>
   <g id="text_37">
    <text style="fill: #333333; font: 10px 'DejaVu Sans', 'Bitstream Vera Sans', 'Computer Modern Sans Serif', 'Lucida Grande', 'Verdana', 'Geneva', 'Lucid', 'Arial', 'Helvetica', 'Avant Garde', sans-serif; text-anchor: start" x="256.212248" y="178.595656" transform="rotate(-100.570887 256.212248 178.595656)">TcMar-Tc1</text>
   </g>
   <g id="text_38">
    <text style="fill: #333333; font: 10px 'DejaVu Sans', 'Bitstream Vera Sans', 'Computer Modern Sans Serif', 'Lucida Grande', 'Verdana', 'Geneva', 'Lucid', 'Arial', 'Helvetica', 'Avant Garde', sans-serif; text-anchor: start" x="244.861097" y="180.898498" transform="rotate(-104.295112 244.861097 180.898498)">SVA</text>
   </g>
   <g id="text_39">
    <text style="fill: #333333; font: 10px 'DejaVu Sans', 'Bitstream Vera Sans', 'Computer Modern Sans Serif', 'Lucida Grande', 'Verdana', 'Geneva', 'Lucid', 'Arial', 'Helvetica', 'Avant Garde', sans-serif; text-anchor: start" x="233.684541" y="183.929042" transform="rotate(-108.019338 233.684541 183.929042)">Helitron</text>
   </g>
   <g id="text_40">
    <text style="font: 10px 'DejaVu Sans', 'Bitstream Vera Sans', 'Computer Modern Sans Serif', 'Lucida Grande', 'Verdana', 'Geneva', 'Lucid', 'Arial', 'Helvetica', 'Avant Garde', sans-serif" transform="translate(197.317187 14.798437)">Circular Transposable Element Flow</text>
    <text style="font: 10px 'DejaVu Sans', 'Bitstream Vera Sans', 'Computer Modern Sans Serif', 'Lucida Grande', 'Verdana', 'Geneva', 'Lucid', 'Arial', 'Helvetica', 'Avant Garde', sans-serif" transform="translate(183.322656 25.99625)">(Aligned Labels &amp; Configurable Distance)</text>
   </g>
   <g id="patch_113">
    <path d="M 282.325 337.79625 
L 290.075 337.79625 
L 290.075 283.89625 
L 282.325 283.89625 
z
" clip-path="url(#pd7e25dff67)" style="fill: #e64b35; stroke: #000000; stroke-width: 0.5; stroke-linejoin: miter"/>
   </g>
   <g id="patch_114">
    <path d="M 282.325 422.49625 
L 290.075 422.49625 
L 290.075 368.59625 
L 282.325 368.59625 
z
" clip-path="url(#pd7e25dff67)" style="fill: #808080; stroke: #000000; stroke-width: 0.5; stroke-linejoin: miter"/>
   </g>
  </g>
 </g>
 <defs>
  <clipPath id="pd7e25dff67">
   <rect x="7.2" y="75.99625" width="558" height="554.4"/>
  </clipPath>
 </defs>
</svg>
