<?xml version="1.0" encoding="utf-8" standalone="no"?>
<!DOCTYPE svg PUBLIC "-//W3C//DTD SVG 1.1//EN"
  "http://www.w3.org/Graphics/SVG/1.1/DTD/svg11.dtd">
<svg xmlns:xlink="http://www.w3.org/1999/xlink" width="487.7775pt" height="541.75325pt" viewBox="0 0 487.7775 541.75325" xmlns="http://www.w3.org/2000/svg" version="1.1">
 <metadata>
  <rdf:RDF xmlns:dc="http://purl.org/dc/elements/1.1/" xmlns:cc="http://creativecommons.org/ns#" xmlns:rdf="http://www.w3.org/1999/02/22-rdf-syntax-ns#">
   <cc:Work>
    <dc:type rdf:resource="http://purl.org/dc/dcmitype/StillImage"/>
    <dc:date>2025-12-29T17:36:48.549141</dc:date>
    <dc:format>image/svg+xml</dc:format>
    <dc:creator>
     <cc:Agent>
      <dc:title>Matplotlib v3.8.4, https://matplotlib.org/</dc:title>
     </cc:Agent>
    </dc:creator>
   </cc:Work>
  </rdf:RDF>
 </metadata>
 <defs>
  <style type="text/css">*{stroke-linejoin: round; stroke-linecap: butt}</style>
 </defs>
 <g id="figure_1">
  <g id="patch_1">
   <path d="M 0 541.75325 
L 487.7775 541.75325 
L 487.7775 0 
L 0 0 
L 0 541.75325 
z
" style="fill: none"/>
  </g>
  <g id="axes_1">
   <g id="patch_2">
    <path d="M 237.381462 183.594916 
C 220.837314 184.417472 204.602139 188.369426 189.54895 195.238269 
C 174.495761 202.107111 160.899299 211.767477 149.490688 223.699899 
L 153.985834 227.94244 
C 164.851178 216.578228 177.800189 207.37788 192.136559 200.836125 
C 206.47293 194.29437 221.935002 190.530605 237.691333 189.747218 
z
" clip-path="url(#pad283c2988)" style="fill: #cc660b; stroke: #000000; stroke-width: 0.5; stroke-linejoin: miter"/>
   </g>
   <g id="patch_3">
    <path d="M 145.126935 228.498741 
C 139.564805 234.931673 134.652841 241.892484 130.461993 249.280628 
C 126.271146 256.668773 122.82169 264.448507 120.163453 272.507456 
L 126.055134 274.425827 
C 128.586788 266.750638 131.871984 259.341367 135.863268 252.305039 
C 139.854551 245.268711 144.532612 238.639367 149.829879 232.512765 
z
" clip-path="url(#pad283c2988)" style="fill: #70453c; stroke: #000000; stroke-width: 0.5; stroke-linejoin: miter"/>
   </g>
   <g id="patch_4">
    <path d="M 118.291552 278.701595 
C 110.838989 305.804484 112.472697 334.595674 122.944106 360.694578 
C 133.415516 386.793482 152.165177 408.805729 176.340324 423.382149 
L 179.556915 418.11601 
C 156.532966 404.233706 138.676146 383.269661 128.703375 358.413562 
C 118.730604 333.557464 117.174692 306.137282 124.272371 280.325007 
z
" clip-path="url(#pad283c2988)" style="fill: #ab1f20; stroke: #000000; stroke-width: 0.5; stroke-linejoin: miter"/>
   </g>
   <g id="patch_5">
    <path d="M 181.987773 426.598175 
C 188.46884 430.078028 195.23549 433.005098 202.214841 435.347858 
C 209.194193 437.690617 216.361096 439.440624 223.638357 440.579029 
L 224.602661 434.493992 
C 217.671937 433.409797 210.846314 431.743123 204.199313 429.511924 
C 197.552312 427.280725 191.107883 424.493039 184.935439 421.178893 
z
" clip-path="url(#pad283c2988)" style="fill: #195f90; stroke: #000000; stroke-width: 0.5; stroke-linejoin: miter"/>
   </g>
   <g id="patch_6">
    <path d="M 230.091763 441.424899 
C 230.19429 441.435754 230.296831 441.446489 230.399384 441.457102 
C 230.501937 441.467716 230.604502 441.478209 230.70708 441.48858 
L 231.334779 435.360231 
C 231.237086 435.350353 231.139404 435.340361 231.041734 435.330252 
C 230.944065 435.320144 230.846407 435.309921 230.748762 435.299582 
z
" clip-path="url(#pad283c2988)" style="fill: #765297; stroke: #000000; stroke-width: 0.5; stroke-linejoin: miter"/>
   </g>
   <g id="patch_7">
    <path d="M 237.197406 441.982303 
C 237.228081 441.983871 237.258757 441.985429 237.289433 441.986976 
C 237.320109 441.988522 237.350785 441.990058 237.381462 441.991584 
L 237.691333 435.839282 
C 237.662117 435.837829 237.632901 435.836367 237.603686 435.834893 
C 237.574471 435.83342 237.545256 435.831937 237.516042 435.830443 
z
" clip-path="url(#pad283c2988)" style="fill: #238023; stroke: #000000; stroke-width: 0.5; stroke-linejoin: miter"/>
   </g>
   <g id="patch_8">
    <path d="M 250.396038 441.991584 
C 260.186329 441.504822 269.890051 439.921104 279.322596 437.27056 
C 288.755142 434.620015 297.856311 430.919561 306.45296 426.239595 
L 303.473712 420.837388 
C 295.286427 425.294498 286.618647 428.818741 277.63527 431.343069 
C 268.651894 433.867396 259.410254 435.375699 250.086167 435.839282 
z
" clip-path="url(#pad283c2988)" style="fill: #cc660b; opacity: 0.8; stroke: #000000; stroke-width: 0.3; stroke-linejoin: miter"/>
   </g>
   <g id="patch_9">
    <path d="M 307.606878 425.603834 
C 313.245094 422.460193 318.639812 418.903657 323.746242 414.963754 
C 328.852673 411.02385 333.656647 406.711511 338.118281 402.062538 
L 333.631161 397.81162 
C 329.381985 402.239213 324.806772 406.346202 319.943505 410.098491 
C 315.080237 413.850781 309.942411 417.237958 304.572681 420.231902 
z
" clip-path="url(#pad283c2988)" style="fill: #cc660b; opacity: 0.8; stroke: #000000; stroke-width: 0.3; stroke-linejoin: miter"/>
   </g>
   <g id="patch_10">
    <path d="M 339.023971 401.109194 
C 339.60557 400.490744 340.181046 399.866639 340.750316 399.236968 
C 341.319585 398.607296 341.882621 397.972089 342.439342 397.331437 
L 337.746457 393.305809 
C 337.216246 393.915953 336.680022 394.520913 336.13786 395.1206 
C 335.595699 395.720287 335.047627 396.314673 334.493723 396.903672 
z
" clip-path="url(#pad283c2988)" style="fill: #cc660b; opacity: 0.8; stroke: #000000; stroke-width: 0.3; stroke-linejoin: miter"/>
   </g>
   <g id="patch_11">
    <path d="M 343.296554 396.334828 
C 343.417225 396.193086 343.537589 396.051087 343.657644 395.90883 
C 343.777699 395.766573 343.897446 395.62406 344.016884 395.481291 
L 339.248878 391.543765 
C 339.135128 391.679736 339.021083 391.815463 338.906744 391.950945 
C 338.792406 392.086428 338.677774 392.221666 338.562849 392.356658 
z
" clip-path="url(#pad283c2988)" style="fill: #cc660b; opacity: 0.8; stroke: #000000; stroke-width: 0.3; stroke-linejoin: miter"/>
   </g>
   <g id="patch_12">
    <path d="M 344.855144 394.468893 
C 344.910152 394.401768 344.965092 394.334588 345.019964 394.267353 
C 345.074836 394.200118 345.129641 394.132828 345.184377 394.065484 
L 340.360775 390.195377 
C 340.308646 390.259515 340.256451 390.3236 340.204192 390.387634 
C 340.151933 390.451667 340.099609 390.515648 340.047221 390.579577 
z
" clip-path="url(#pad283c2988)" style="fill: #cc660b; opacity: 0.8; stroke: #000000; stroke-width: 0.3; stroke-linejoin: miter"/>
   </g>
   <g id="patch_13">
    <path d="M 346.008136 393.041404 
C 346.016504 393.030891 346.024871 393.020378 346.033237 393.009863 
C 346.041602 392.999348 346.049965 392.988831 346.058327 392.978314 
L 341.193109 389.159977 
C 341.185146 389.169994 341.17718 389.18001 341.169213 389.190024 
C 341.161246 389.200038 341.153278 389.210051 341.145308 389.220063 
z
" clip-path="url(#pad283c2988)" style="fill: #cc660b; opacity: 0.8; stroke: #000000; stroke-width: 0.3; stroke-linejoin: miter"/>
   </g>
   <g id="patch_14">
    <path d="M 346.870953 391.94549 
C 346.876282 391.938645 346.881612 391.931799 346.88694 391.924953 
C 346.892268 391.918107 346.897596 391.91126 346.902923 391.904413 
L 341.997486 388.137214 
C 341.992413 388.143736 341.987339 388.150256 341.982264 388.156777 
C 341.97719 388.163297 341.972114 388.169817 341.967038 388.176336 
z
" clip-path="url(#pad283c2988)" style="fill: #cc660b; opacity: 0.8; stroke: #000000; stroke-width: 0.3; stroke-linejoin: miter"/>
   </g>
   <g id="patch_15">
    <path d="M 347.704551 390.86314 
C 350.421208 387.297047 352.9499 383.593375 355.280438 379.767049 
C 357.610975 375.940722 359.740224 371.996887 361.659605 367.951435 
L 356.051469 365.324855 
C 354.223487 369.177666 352.195631 372.9337 349.976072 376.57782 
C 347.756512 380.22194 345.348234 383.749247 342.760942 387.145526 
z
" clip-path="url(#pad283c2988)" style="fill: #70453c; opacity: 0.8; stroke: #000000; stroke-width: 0.3; stroke-linejoin: miter"/>
   </g>
   <g id="patch_16">
    <path d="M 362.21616 366.762813 
C 363.058684 364.939352 363.858394 363.096662 364.614642 361.23624 
C 365.370889 359.375817 366.08347 357.498165 366.751805 355.604808 
L 360.901183 353.566163 
C 360.264674 355.36936 359.586025 357.1576 358.86579 358.92943 
C 358.145554 360.701261 357.383925 362.456204 356.581522 364.192834 
z
" clip-path="url(#pad283c2988)" style="fill: #70453c; opacity: 0.8; stroke: #000000; stroke-width: 0.3; stroke-linejoin: miter"/>
   </g>
   <g id="patch_17">
    <path d="M 367.182165 354.365549 
C 367.828866 352.472258 368.431302 350.564324 368.988987 348.643287 
C 369.546673 346.72225 370.059457 344.788625 370.526928 342.843972 
L 364.496539 341.412985 
C 364.051329 343.265036 363.562962 345.106583 363.031833 346.936143 
C 362.500704 348.765702 361.926956 350.582781 361.31105 352.385916 
z
" clip-path="url(#pad283c2988)" style="fill: #70453c; opacity: 0.8; stroke: #000000; stroke-width: 0.3; stroke-linejoin: miter"/>
   </g>
   <g id="patch_18">
    <path d="M 370.826937 341.567357 
C 370.897863 341.258489 370.967646 340.949363 371.036286 340.639986 
C 371.104926 340.330608 371.172422 340.020981 371.238772 339.711111 
L 365.174486 338.429308 
C 365.111295 338.724423 365.047013 339.019305 364.981642 339.313951 
C 364.91627 339.608596 364.84981 339.903002 364.782261 340.197162 
z
" clip-path="url(#pad283c2988)" style="fill: #70453c; opacity: 0.8; stroke: #000000; stroke-width: 0.3; stroke-linejoin: miter"/>
   </g>
   <g id="patch_19">
    <path d="M 371.50679 338.42749 
C 371.533797 338.294768 371.560594 338.162004 371.587181 338.029199 
C 371.613768 337.896393 371.640145 337.763546 371.666313 337.630659 
L 365.581667 336.447925 
C 365.556745 336.574485 365.531624 336.701006 365.506303 336.827487 
C 365.480982 336.953968 365.455461 337.08041 365.42974 337.206812 
z
" clip-path="url(#pad283c2988)" style="fill: #70453c; opacity: 0.8; stroke: #000000; stroke-width: 0.3; stroke-linejoin: miter"/>
   </g>
   <g id="patch_20">
    <path d="M 371.913088 336.34284 
C 375.599366 316.560603 374.590473 296.194031 368.96685 276.867045 
C 363.343228 257.540059 353.258423 239.780361 339.516546 225.004017 
L 334.962841 229.184457 
C 348.050344 243.257166 357.654919 260.171163 363.01075 278.577816 
C 368.366581 296.98447 369.327432 316.381205 365.816691 335.221431 
z
" clip-path="url(#pad283c2988)" style="fill: #ab1f20; opacity: 0.8; stroke: #000000; stroke-width: 0.3; stroke-linejoin: miter"/>
   </g>
   <g id="patch_21">
    <path d="M 338.616203 224.045686 
C 332.264254 217.352938 325.211853 211.352414 317.578768 206.146017 
C 309.945682 200.939621 301.775366 196.556991 293.20657 193.072555 
L 290.858102 198.77354 
C 299.01886 202.092051 306.800114 206.265984 314.069719 211.224457 
C 321.339325 216.18293 328.055896 221.897715 334.105372 228.27176 
z
" clip-path="url(#pad283c2988)" style="fill: #ab1f20; opacity: 0.8; stroke: #000000; stroke-width: 0.3; stroke-linejoin: miter"/>
   </g>
   <g id="patch_22">
    <path d="M 291.98291 192.58214 
C 291.916062 192.55574 291.849192 192.529394 291.7823 192.503104 
C 291.715408 192.476813 291.648494 192.450578 291.581558 192.424397 
L 289.310472 198.156247 
C 289.37422 198.181181 289.437948 198.206167 289.501655 198.231206 
C 289.565361 198.256244 289.629047 198.281335 289.692712 198.306479 
z
" clip-path="url(#pad283c2988)" style="fill: #ab1f20; opacity: 0.8; stroke: #000000; stroke-width: 0.3; stroke-linejoin: miter"/>
   </g>
   <g id="patch_23">
    <path d="M 290.351371 191.950378 
C 290.318709 191.937981 290.286043 191.925598 290.253371 191.913228 
C 290.2207 191.900857 290.188024 191.8885 290.155342 191.876156 
L 287.952171 197.634113 
C 287.983296 197.645869 288.014417 197.657638 288.045532 197.669419 
C 288.076648 197.6812 288.107759 197.692994 288.138865 197.7048 
z
" clip-path="url(#pad283c2988)" style="fill: #ab1f20; opacity: 0.8; stroke: #000000; stroke-width: 0.3; stroke-linejoin: miter"/>
   </g>
   <g id="patch_24">
    <path d="M 288.919636 191.416525 
C 288.893443 191.406932 288.867248 191.397348 288.841049 191.387772 
C 288.81485 191.378197 288.788648 191.368629 288.762443 191.35907 
L 286.625601 197.14165 
C 286.650558 197.150754 286.675512 197.159866 286.700463 197.168986 
C 286.725414 197.178105 286.750363 197.187233 286.775308 197.196369 
z
" clip-path="url(#pad283c2988)" style="fill: #ab1f20; opacity: 0.8; stroke: #000000; stroke-width: 0.3; stroke-linejoin: miter"/>
   </g>
   <g id="patch_25">
    <path d="M 287.521534 190.91349 
C 283.733887 189.574957 279.885875 188.411435 275.989868 187.426662 
C 272.09386 186.441889 268.154037 185.636922 264.183063 185.014349 
L 263.216667 191.099058 
C 266.998547 191.691985 270.75076 192.45862 274.461243 193.396499 
C 278.171726 194.334378 281.8365 195.442495 285.443783 196.717288 
z
" clip-path="url(#pad283c2988)" style="fill: #195f90; opacity: 0.8; stroke: #000000; stroke-width: 0.3; stroke-linejoin: miter"/>
   </g>
   <g id="patch_26">
    <path d="M 262.878701 184.816574 
C 261.061492 184.550394 259.238816 184.322451 257.411898 184.132898 
C 255.584981 183.943345 253.75423 183.792225 251.920876 183.67964 
L 251.538394 189.827907 
C 253.284445 189.935131 255.028017 190.079055 256.767939 190.259582 
C 258.50786 190.440108 260.243742 190.657197 261.974418 190.910702 
z
" clip-path="url(#pad283c2988)" style="fill: #195f90; opacity: 0.8; stroke: #000000; stroke-width: 0.3; stroke-linejoin: miter"/>
   </g>
   <g id="patch_27">
    <path d="M 250.603531 183.605398 
C 249.613741 183.554613 248.623399 183.515059 247.6327 183.486743 
C 246.642001 183.458427 245.651009 183.441351 244.659918 183.435519 
L 244.623195 189.595411 
C 245.567092 189.600966 246.510894 189.617228 247.454417 189.644196 
C 248.39794 189.671163 249.341122 189.708834 250.283779 189.7572 
z
" clip-path="url(#pad283c2988)" style="fill: #195f90; opacity: 0.8; stroke: #000000; stroke-width: 0.3; stroke-linejoin: miter"/>
   </g>
   <g id="patch_28">
    <path d="M 243.340455 183.434397 
C 243.06049 183.435568 242.780529 183.437637 242.500578 183.440603 
C 242.220626 183.443568 241.940685 183.447431 241.660759 183.452191 
L 241.766853 189.611289 
C 242.03345 189.606756 242.300061 189.603077 242.566681 189.600253 
C 242.833302 189.597428 243.099931 189.595458 243.366564 189.594342 
z
" clip-path="url(#pad283c2988)" style="fill: #195f90; opacity: 0.8; stroke: #000000; stroke-width: 0.3; stroke-linejoin: miter"/>
   </g>
   <g id="patch_29">
    <path d="M 240.34162 183.481266 
C 240.071277 183.488586 239.800958 183.496743 239.530667 183.505737 
C 239.260375 183.514731 238.990113 183.524562 238.719883 183.535229 
L 238.96602 189.690373 
C 239.223381 189.680213 239.480774 189.670851 239.738195 189.662285 
C 239.995615 189.65372 240.253062 189.645951 240.510531 189.638979 
z
" clip-path="url(#pad283c2988)" style="fill: #195f90; opacity: 0.8; stroke: #000000; stroke-width: 0.3; stroke-linejoin: miter"/>
   </g>
   <g id="patch_30">
    <path d="M 237.401742 183.59391 
C 237.282091 183.59984 237.162447 183.605934 237.042813 183.612193 
C 236.923178 183.618451 236.803552 183.624874 236.683935 183.63146 
L 237.027021 189.782022 
C 237.140942 189.775749 237.254872 189.769632 237.36881 189.763672 
C 237.482747 189.757711 237.596693 189.751907 237.710647 189.746259 
z
" clip-path="url(#pad283c2988)" style="fill: #195f90; opacity: 0.8; stroke: #000000; stroke-width: 0.3; stroke-linejoin: miter"/>
   </g>
   <g id="patch_31">
    <path d="M 235.36688 183.710635 
C 235.303082 183.714793 235.239287 183.718998 235.175496 183.723249 
C 235.111704 183.7275 235.047915 183.731797 234.98413 183.736142 
L 235.408159 189.881718 
C 235.468907 189.877581 235.529658 189.873488 235.590413 189.869439 
C 235.651167 189.865391 235.711924 189.861386 235.772684 189.857427 
z
" clip-path="url(#pad283c2988)" style="fill: #195f90; opacity: 0.8; stroke: #000000; stroke-width: 0.3; stroke-linejoin: miter"/>
   </g>
   <g id="patch_32">
    <path d="M 233.66823 183.832426 
C 233.615783 183.836529 233.563338 183.840664 233.510896 183.84483 
C 233.458454 183.848997 233.406014 183.853195 233.353577 183.857424 
L 233.855252 189.997225 
C 233.905192 189.993197 233.955134 189.989199 234.005079 189.985231 
C 234.055024 189.981263 234.104972 189.977326 234.154922 189.973418 
z
" clip-path="url(#pad283c2988)" style="fill: #195f90; opacity: 0.8; stroke: #000000; stroke-width: 0.3; stroke-linejoin: miter"/>
   </g>
   <g id="patch_33">
    <path d="M 232.038998 183.970119 
C 231.996592 183.97397 231.954187 183.977841 231.911785 183.981733 
C 231.869382 183.985625 231.826982 183.989538 231.784583 183.993471 
L 232.360972 190.126794 
C 232.401352 190.123048 232.441733 190.119321 232.482116 190.115615 
C 232.5225 190.111908 232.562885 190.108221 232.603272 190.104554 
z
" clip-path="url(#pad283c2988)" style="fill: #195f90; opacity: 0.8; stroke: #000000; stroke-width: 0.3; stroke-linejoin: miter"/>
   </g>
   <g id="patch_34">
    <path d="M 230.471472 184.121957 
C 230.434335 184.12578 230.3972 184.129618 230.360066 184.133473 
C 230.322932 184.137327 230.2858 184.141197 230.24867 184.145084 
L 230.898197 190.271187 
C 230.93356 190.267486 230.968924 190.2638 231.004289 190.260129 
C 231.039655 190.256458 231.075022 190.252802 231.11039 190.249161 
z
" clip-path="url(#pad283c2988)" style="fill: #195f90; opacity: 0.8; stroke: #000000; stroke-width: 0.3; stroke-linejoin: miter"/>
   </g>
   <g id="patch_35">
    <path d="M 228.937184 184.289026 
C 228.905377 184.29268 228.87357 184.296345 228.841765 184.300021 
C 228.80996 184.303698 228.778157 184.307386 228.746355 184.311086 
L 229.467421 190.429284 
C 229.497709 190.42576 229.527998 190.422248 229.558289 190.418746 
C 229.588579 190.415245 229.618871 190.411754 229.649164 190.408275 
z
" clip-path="url(#pad283c2988)" style="fill: #195f90; opacity: 0.8; stroke: #000000; stroke-width: 0.3; stroke-linejoin: miter"/>
   </g>
   <g id="patch_36">
    <path d="M 227.43664 184.470146 
C 227.424598 184.47167 227.412556 184.473196 227.400514 184.474723 
C 227.388472 184.476251 227.376431 184.47778 227.36439 184.479311 
L 228.151264 190.589498 
C 228.162732 190.58804 228.1742 190.586584 228.185668 190.585129 
C 228.197136 190.583675 228.208605 190.582222 228.220073 190.58077 
z
" clip-path="url(#pad283c2988)" style="fill: #195f90; opacity: 0.8; stroke: #000000; stroke-width: 0.3; stroke-linejoin: miter"/>
   </g>
   <g id="patch_37">
    <path d="M 226.056462 184.652277 
C 225.948837 184.667062 225.841232 184.68198 225.733645 184.697032 
C 225.626058 184.712084 225.518491 184.72727 225.410942 184.74259 
L 226.290838 190.84024 
C 226.393265 190.82565 226.49571 190.811187 226.598174 190.796852 
C 226.700637 190.782517 226.803119 190.768309 226.905618 190.754228 
z
" clip-path="url(#pad283c2988)" style="fill: #765297; opacity: 0.8; stroke: #000000; stroke-width: 0.3; stroke-linejoin: miter"/>
   </g>
   <g id="patch_38">
    <path d="M 224.1058 184.935211 
C 224.07381 184.940097 224.041821 184.944995 224.009835 184.949905 
C 223.977849 184.954815 223.945864 184.959736 223.913881 184.96467 
L 224.865066 191.051745 
C 224.895525 191.047046 224.925987 191.042359 224.95645 191.037683 
C 224.986913 191.033007 225.017378 191.028343 225.047845 191.023689 
z
" clip-path="url(#pad283c2988)" style="fill: #238023; opacity: 0.8; stroke: #000000; stroke-width: 0.3; stroke-linejoin: miter"/>
   </g>
   <g id="line2d_1">
    <path d="M 189.54895 195.238269 
L 184.373731 184.042556 
L 180.751078 176.205557 
" clip-path="url(#pad283c2988)" style="fill: none; stroke: #000000; stroke-width: 0.8; stroke-linecap: square"/>
   </g>
   <g id="line2d_2">
    <path d="M 130.461993 249.280628 
L 119.659445 243.231807 
L 112.097661 238.997633 
" clip-path="url(#pad283c2988)" style="fill: none; stroke: #000000; stroke-width: 0.8; stroke-linecap: square"/>
   </g>
   <g id="line2d_3">
    <path d="M 122.944106 360.694578 
L 111.425569 365.256609 
L 103.362593 368.450031 
" clip-path="url(#pad283c2988)" style="fill: none; stroke: #000000; stroke-width: 0.8; stroke-linecap: square"/>
   </g>
   <g id="line2d_4">
    <path d="M 202.214841 435.347858 
L 198.245898 447.019725 
L 195.467637 455.190032 
" clip-path="url(#pad283c2988)" style="fill: none; stroke: #000000; stroke-width: 0.8; stroke-linecap: square"/>
   </g>
   <g id="line2d_5">
    <path d="M 230.399384 441.457102 
L 229.114682 453.710803 
L 220.945328 461.358596 
" clip-path="url(#pad283c2988)" style="fill: none; stroke: #000000; stroke-width: 0.8; stroke-linecap: square"/>
   </g>
   <g id="line2d_6">
    <path d="M 237.289433 441.986976 
L 236.660926 454.29114 
L 243.54845 463.09687 
" clip-path="url(#pad283c2988)" style="fill: none; stroke: #000000; stroke-width: 0.8; stroke-linecap: square"/>
   </g>
   <g id="line2d_7">
    <path d="M 279.322596 437.27056 
L 282.697248 449.125541 
L 286.0719 460.980523 
" clip-path="url(#pad283c2988)" style="fill: none; stroke: #808080; stroke-opacity: 0.6; stroke-width: 0.5; stroke-linecap: square"/>
   </g>
   <g id="line2d_8">
    <path d="M 323.746242 414.963754 
L 331.351718 424.694278 
L 338.957193 434.424802 
" clip-path="url(#pad283c2988)" style="fill: none; stroke: #808080; stroke-opacity: 0.6; stroke-width: 0.5; stroke-linecap: square"/>
   </g>
   <g id="line2d_9">
    <path d="M 340.750316 399.236968 
L 349.975227 407.469703 
L 347.494566 427.335354 
" clip-path="url(#pad283c2988)" style="fill: none; stroke: #808080; stroke-opacity: 0.6; stroke-width: 0.5; stroke-linecap: square"/>
   </g>
   <g id="line2d_10">
    <path d="M 343.657644 395.90883 
L 353.159443 403.824599 
L 355.304258 419.855106 
" clip-path="url(#pad283c2988)" style="fill: none; stroke: #808080; stroke-opacity: 0.6; stroke-width: 0.5; stroke-linecap: square"/>
   </g>
   <g id="line2d_11">
    <path d="M 345.019964 394.267353 
L 354.651509 402.026791 
L 362.568237 411.850469 
" clip-path="url(#pad283c2988)" style="fill: none; stroke: #808080; stroke-opacity: 0.6; stroke-width: 0.5; stroke-linecap: square"/>
   </g>
   <g id="line2d_12">
    <path d="M 346.033237 393.009863 
L 355.761283 400.64954 
L 369.250924 403.36065 
" clip-path="url(#pad283c2988)" style="fill: none; stroke: #808080; stroke-opacity: 0.6; stroke-width: 0.5; stroke-linecap: square"/>
   </g>
   <g id="line2d_13">
    <path d="M 346.88694 391.924953 
L 356.696291 399.461306 
L 375.319588 394.427232 
" clip-path="url(#pad283c2988)" style="fill: none; stroke: #808080; stroke-opacity: 0.6; stroke-width: 0.5; stroke-linecap: square"/>
   </g>
   <g id="line2d_14">
    <path d="M 355.280438 379.767049 
L 365.88917 386.145506 
L 380.744503 385.093971 
" clip-path="url(#pad283c2988)" style="fill: none; stroke: #808080; stroke-opacity: 0.6; stroke-width: 0.5; stroke-linecap: square"/>
   </g>
   <g id="line2d_15">
    <path d="M 364.614642 361.23624 
L 376.112346 365.849858 
L 387.610049 370.463476 
" clip-path="url(#pad283c2988)" style="fill: none; stroke: #808080; stroke-opacity: 0.6; stroke-width: 0.5; stroke-linecap: square"/>
   </g>
   <g id="line2d_16">
    <path d="M 368.988987 348.643287 
L 380.903296 352.057576 
L 391.902927 358.505152 
" clip-path="url(#pad283c2988)" style="fill: none; stroke: #808080; stroke-opacity: 0.6; stroke-width: 0.5; stroke-linecap: square"/>
   </g>
   <g id="line2d_17">
    <path d="M 371.036286 340.639986 
L 383.145575 343.292056 
L 394.758422 348.107462 
" clip-path="url(#pad283c2988)" style="fill: none; stroke: #808080; stroke-opacity: 0.6; stroke-width: 0.5; stroke-linecap: square"/>
   </g>
   <g id="line2d_18">
    <path d="M 371.587181 338.029199 
L 383.748936 340.432623 
L 396.874957 337.536802 
" clip-path="url(#pad283c2988)" style="fill: none; stroke: #808080; stroke-opacity: 0.6; stroke-width: 0.5; stroke-linecap: square"/>
   </g>
   <g id="line2d_19">
    <path d="M 368.96685 276.867045 
L 380.87905 273.445501 
L 392.79125 270.023958 
" clip-path="url(#pad283c2988)" style="fill: none; stroke: #808080; stroke-opacity: 0.6; stroke-width: 0.5; stroke-linecap: square"/>
   </g>
   <g id="line2d_20">
    <path d="M 317.578768 206.146017 
L 324.596864 195.989138 
L 338.452739 190.774133 
" clip-path="url(#pad283c2988)" style="fill: none; stroke: #808080; stroke-opacity: 0.6; stroke-width: 0.5; stroke-linecap: square"/>
   </g>
   <g id="line2d_21">
    <path d="M 291.7823 192.503104 
L 296.34359 181.046899 
L 329.63137 184.501555 
" clip-path="url(#pad283c2988)" style="fill: none; stroke: #808080; stroke-opacity: 0.6; stroke-width: 0.5; stroke-linecap: square"/>
   </g>
   <g id="line2d_22">
    <path d="M 290.253371 191.913228 
L 294.66905 180.400845 
L 320.390034 178.85735 
" clip-path="url(#pad283c2988)" style="fill: none; stroke: #808080; stroke-opacity: 0.6; stroke-width: 0.5; stroke-linecap: square"/>
   </g>
   <g id="line2d_23">
    <path d="M 288.841049 191.387772 
L 293.12222 179.825346 
L 310.773995 173.869162 
" clip-path="url(#pad283c2988)" style="fill: none; stroke: #808080; stroke-opacity: 0.6; stroke-width: 0.5; stroke-linecap: square"/>
   </g>
   <g id="line2d_24">
    <path d="M 275.989868 187.426662 
L 279.047117 175.486987 
L 300.830352 169.561425 
" clip-path="url(#pad283c2988)" style="fill: none; stroke: #808080; stroke-opacity: 0.6; stroke-width: 0.5; stroke-linecap: square"/>
   </g>
   <g id="line2d_25">
    <path d="M 257.411898 184.132898 
L 258.699817 171.879531 
L 290.607809 165.955237 
" clip-path="url(#pad283c2988)" style="fill: none; stroke: #808080; stroke-opacity: 0.6; stroke-width: 0.5; stroke-linecap: square"/>
   </g>
   <g id="line2d_26">
    <path d="M 247.6327 183.486743 
L 247.989267 171.171838 
L 280.156437 163.068261 
" clip-path="url(#pad283c2988)" style="fill: none; stroke: #808080; stroke-opacity: 0.6; stroke-width: 0.5; stroke-linecap: square"/>
   </g>
   <g id="line2d_27">
    <path d="M 242.500578 183.440603 
L 242.368371 171.121303 
L 269.527425 160.914638 
" clip-path="url(#pad283c2988)" style="fill: none; stroke: #808080; stroke-opacity: 0.6; stroke-width: 0.5; stroke-linecap: square"/>
   </g>
   <g id="line2d_28">
    <path d="M 239.530667 183.505737 
L 239.115611 171.192641 
L 258.772836 159.504916 
" clip-path="url(#pad283c2988)" style="fill: none; stroke: #808080; stroke-opacity: 0.6; stroke-width: 0.5; stroke-linecap: square"/>
   </g>
   <g id="line2d_29">
    <path d="M 237.042813 183.612193 
L 236.390819 171.309235 
L 247.945344 158.846 
" clip-path="url(#pad283c2988)" style="fill: none; stroke: #808080; stroke-opacity: 0.6; stroke-width: 0.5; stroke-linecap: square"/>
   </g>
   <g id="line2d_30">
    <path d="M 235.175496 183.723249 
L 234.345662 171.430868 
L 237.097982 158.941118 
" clip-path="url(#pad283c2988)" style="fill: none; stroke: #808080; stroke-opacity: 0.6; stroke-width: 0.5; stroke-linecap: square"/>
   </g>
   <g id="line2d_31">
    <path d="M 233.510896 183.84483 
L 232.522529 171.564028 
L 226.283882 159.789803 
" clip-path="url(#pad283c2988)" style="fill: none; stroke: #808080; stroke-opacity: 0.6; stroke-width: 0.5; stroke-linecap: square"/>
   </g>
   <g id="line2d_32">
    <path d="M 231.911785 183.981733 
L 230.771121 171.71397 
L 215.556011 161.387899 
" clip-path="url(#pad283c2988)" style="fill: none; stroke: #808080; stroke-opacity: 0.6; stroke-width: 0.5; stroke-linecap: square"/>
   </g>
   <g id="line2d_33">
    <path d="M 230.360066 184.133473 
L 229.07162 171.880161 
L 204.966912 163.727577 
" clip-path="url(#pad283c2988)" style="fill: none; stroke: #808080; stroke-opacity: 0.6; stroke-width: 0.5; stroke-linecap: square"/>
   </g>
   <g id="line2d_34">
    <path d="M 228.841765 184.300021 
L 227.408719 172.062571 
L 194.568453 166.79738 
" clip-path="url(#pad283c2988)" style="fill: none; stroke: #808080; stroke-opacity: 0.6; stroke-width: 0.5; stroke-linecap: square"/>
   </g>
   <g id="line2d_35">
    <path d="M 227.400514 184.474723 
L 225.830206 172.253911 
L 184.411565 170.58227 
" clip-path="url(#pad283c2988)" style="fill: none; stroke: #808080; stroke-opacity: 0.6; stroke-width: 0.5; stroke-linecap: square"/>
   </g>
   <g id="line2d_36">
    <path d="M 225.733645 184.697032 
L 224.004587 172.497392 
L 174.545995 175.06371 
" clip-path="url(#pad283c2988)" style="fill: none; stroke: #808080; stroke-opacity: 0.6; stroke-width: 0.5; stroke-linecap: square"/>
   </g>
   <g id="line2d_37">
    <path d="M 224.009835 184.949905 
L 222.116605 172.774348 
L 165.020066 180.219748 
" clip-path="url(#pad283c2988)" style="fill: none; stroke: #808080; stroke-opacity: 0.6; stroke-width: 0.5; stroke-linecap: square"/>
   </g>
   <g id="patch_39">
    <path d="M 237.691333 189.747218 
C 239.240042 189.747218 239.240042 298.48576 240.78875 298.48576 
L 240.78875 300.47325 
C 239.240042 300.47325 239.240042 191.554486 221.85132 191.554486 
L 222.973744 191.358376 
L 224.097935 191.172523 
L 225.223797 190.996944 
L 226.351236 190.831652 
L 227.480157 190.676662 
L 228.610463 190.531988 
L 229.74206 190.397641 
L 230.874852 190.273632 
L 232.008743 190.159973 
L 233.143638 190.056672 
L 234.27944 189.963739 
L 235.416054 189.881181 
L 236.553384 189.809005 
z
" clip-path="url(#pad283c2988)" style="fill: #cc660b; fill-opacity: 0.45"/>
   </g>
   <g id="patch_40">
    <path d="M 221.85132 191.554486 
C 231.320035 191.554486 231.320035 358.464987 240.78875 358.464987 
L 240.78875 368.23325 
C 231.320035 368.23325 231.320035 227.94244 153.985834 227.94244 
L 157.933938 223.995532 
L 162.057398 220.229781 
L 166.347802 216.652868 
L 170.796397 213.272091 
L 175.394109 210.094348 
L 180.131556 207.12612 
L 184.999074 204.373464 
L 189.986732 201.841995 
L 195.084357 199.536878 
L 200.281547 197.462815 
L 205.5677 195.624037 
L 210.932032 194.024296 
L 216.363599 192.666856 
z
" clip-path="url(#pad283c2988)" style="fill: #cc660b; fill-opacity: 0.12"/>
   </g>
   <g id="patch_41">
    <path d="M 149.829879 232.512765 
C 195.309314 232.512765 195.309314 297.903886 240.78875 297.903886 
L 240.78875 298.48576 
C 195.309314 298.48576 195.309314 236.089278 146.85348 236.089278 
L 147.061563 235.830143 
L 147.270347 235.571564 
L 147.47983 235.313545 
L 147.690012 235.056087 
L 147.90089 234.799191 
L 148.112462 234.542861 
L 148.324729 234.287096 
L 148.537687 234.031901 
L 148.751335 233.777275 
L 148.965672 233.523221 
L 149.180697 233.269742 
L 149.396407 233.016838 
L 149.612802 232.764512 
z
" clip-path="url(#pad283c2988)" style="fill: #70453c; fill-opacity: 0.45"/>
   </g>
   <g id="patch_42">
    <path d="M 146.85348 236.089278 
C 193.821115 236.089278 193.821115 352.975866 240.78875 352.975866 
L 240.78875 358.464987 
C 193.821115 358.464987 193.821115 274.425827 126.055134 274.425827 
L 127.073203 271.466797 
L 128.166534 268.534392 
L 129.334422 265.630503 
L 130.576114 262.756999 
L 131.890812 259.915733 
L 133.277667 257.108534 
L 134.735786 254.337212 
L 136.26423 251.603551 
L 137.862015 248.909314 
L 139.528109 246.256236 
L 141.261441 243.646026 
L 143.060894 241.080366 
L 144.925307 238.560909 
z
" clip-path="url(#pad283c2988)" style="fill: #70453c; fill-opacity: 0.12"/>
   </g>
   <g id="patch_43">
    <path d="M 124.272371 280.325007 
C 182.530561 280.325007 182.530561 294.366109 240.78875 294.366109 
L 240.78875 297.903886 
C 182.530561 297.903886 182.530561 308.155244 119.97665 308.155244 
L 120.069597 306.141866 
L 120.195683 304.130268 
L 120.354873 302.120989 
L 120.547125 300.114567 
L 120.772387 298.111537 
L 121.0306 296.112437 
L 121.321693 294.117801 
L 121.64559 292.128163 
L 122.002203 290.144056 
L 122.391438 288.166011 
L 122.813189 286.194557 
L 123.267344 284.230221 
L 123.753782 282.27353 
z
" clip-path="url(#pad283c2988)" style="fill: #ab1f20; fill-opacity: 0.45"/>
   </g>
   <g id="patch_44">
    <path d="M 119.97665 308.155244 
C 180.3827 308.155244 180.3827 336.556384 240.78875 336.556384 
L 240.78875 352.975866 
C 180.3827 352.975866 180.3827 418.11601 179.556915 418.11601 
L 171.701073 412.964113 
L 164.261202 407.234995 
L 157.280175 400.961669 
L 150.798217 394.180285 
L 144.852682 386.929919 
L 139.477828 379.25235 
L 134.704628 371.191819 
L 130.560587 362.794775 
L 127.069584 354.109604 
L 124.251736 345.186352 
L 122.123279 336.07644 
L 120.69648 326.832362 
L 119.97956 317.507385 
z
" clip-path="url(#pad283c2988)" style="fill: #ab1f20; fill-opacity: 0.12"/>
   </g>
   <g id="patch_45">
    <path d="M 184.935439 421.178893 
C 212.862094 421.178893 212.862094 293.70126 240.78875 293.70126 
L 240.78875 294.366109 
C 212.862094 294.366109 212.862094 423.598847 189.684054 423.598847 
L 189.341432 423.432749 
L 188.999326 423.265605 
L 188.657738 423.097417 
L 188.316673 422.928186 
L 187.976133 422.757915 
L 187.636121 422.586604 
L 187.296641 422.414255 
L 186.957696 422.24087 
L 186.619289 422.06645 
L 186.281424 421.890998 
L 185.944103 421.714514 
L 185.60733 421.537001 
L 185.271107 421.35846 
z
" clip-path="url(#pad283c2988)" style="fill: #195f90; fill-opacity: 0.45"/>
   </g>
   <g id="patch_46">
    <path d="M 189.684054 423.598847 
C 215.236402 423.598847 215.236402 331.980497 240.78875 331.980497 
L 240.78875 336.556384 
C 215.236402 336.556384 215.236402 434.493992 224.602661 434.493992 
L 222.015233 434.061312 
L 219.437598 433.574335 
L 216.870912 433.03328 
L 214.316322 432.438389 
L 211.774973 431.789928 
L 209.248002 431.088188 
L 206.736542 430.333482 
L 204.241716 429.526149 
L 201.764641 428.66655 
L 199.306428 427.75507 
L 196.868175 426.792117 
L 194.450975 425.778122 
L 192.055911 424.71354 
z
" clip-path="url(#pad283c2988)" style="fill: #195f90; fill-opacity: 0.12"/>
   </g>
   <g id="patch_47">
    <path d="M 230.748762 435.299582 
C 235.768756 435.299582 235.768756 293.687574 240.78875 293.687574 
L 240.78875 293.70126 
C 235.768756 293.70126 235.768756 435.311102 230.858023 435.311102 
L 230.850218 435.310282 
L 230.842414 435.309462 
L 230.834609 435.308642 
L 230.826805 435.30782 
L 230.819 435.306999 
L 230.811196 435.306177 
L 230.803391 435.305354 
L 230.795587 435.304531 
L 230.787783 435.303707 
L 230.779979 435.302883 
L 230.772175 435.302059 
L 230.76437 435.301234 
L 230.756566 435.300408 
z
" clip-path="url(#pad283c2988)" style="fill: #765297; fill-opacity: 0.45"/>
   </g>
   <g id="patch_48">
    <path d="M 230.858023 435.311102 
C 235.823386 435.311102 235.823386 331.92079 240.78875 331.92079 
L 240.78875 331.980497 
C 235.823386 331.980497 235.823386 435.360231 231.334779 435.360231 
L 231.300719 435.356782 
L 231.266659 435.353325 
L 231.232601 435.349857 
L 231.198543 435.346381 
L 231.164487 435.342895 
L 231.130432 435.3394 
L 231.096377 435.335895 
L 231.062324 435.332381 
L 231.028271 435.328858 
L 230.994219 435.325326 
L 230.960169 435.321784 
L 230.926119 435.318232 
L 230.892071 435.314672 
z
" clip-path="url(#pad283c2988)" style="fill: #765297; fill-opacity: 0.12"/>
   </g>
   <g id="patch_49">
    <path d="M 237.516042 435.830443 
C 239.152396 435.830443 239.152396 293.68555 240.78875 293.68555 
L 240.78875 293.687574 
C 239.152396 293.687574 239.152396 435.831272 237.532267 435.831272 
L 237.531108 435.831213 
L 237.529949 435.831154 
L 237.52879 435.831094 
L 237.527631 435.831035 
L 237.526472 435.830976 
L 237.525313 435.830917 
L 237.524154 435.830858 
L 237.522995 435.830799 
L 237.521837 435.830739 
L 237.520678 435.83068 
L 237.519519 435.830621 
L 237.51836 435.830562 
L 237.517201 435.830502 
z
" clip-path="url(#pad283c2988)" style="fill: #238023; fill-opacity: 0.45"/>
   </g>
   <g id="patch_50">
    <path d="M 237.532267 435.831272 
C 239.160508 435.831272 239.160508 331.90095 240.78875 331.90095 
L 240.78875 331.92079 
C 239.160508 331.92079 239.160508 435.839282 237.691333 435.839282 
L 237.679971 435.838717 
L 237.668609 435.83815 
L 237.657247 435.837583 
L 237.645884 435.837014 
L 237.634522 435.836445 
L 237.623161 435.835874 
L 237.611799 435.835302 
L 237.600437 435.83473 
L 237.589075 435.834156 
L 237.577713 435.833581 
L 237.566352 435.833005 
L 237.55499 435.832429 
L 237.543628 435.831851 
z
" clip-path="url(#pad283c2988)" style="fill: #238023; fill-opacity: 0.12"/>
   </g>
   <g id="patch_51">
    <path d="M 258.365444 435.150762 
C 252.677097 435.150762 252.677097 299.490905 246.98875 299.490905 
L 246.98875 300.47325 
C 252.677097 300.47325 252.677097 435.839282 250.086167 435.839282 
L 250.678908 435.808398 
L 251.271493 435.774696 
L 251.863909 435.738176 
L 252.456143 435.698839 
L 253.04818 435.656686 
L 253.640007 435.611717 
L 254.231611 435.563935 
L 254.822978 435.513339 
L 255.414094 435.459932 
L 256.004946 435.403714 
L 256.595521 435.344687 
L 257.185805 435.282851 
L 257.775783 435.218209 
z
" clip-path="url(#pad283c2988)" style="fill: #cc660b; fill-opacity: 0.35"/>
   </g>
   <g id="patch_52">
    <path d="M 303.473712 420.837388 
C 275.231231 420.837388 275.231231 362.600816 246.98875 362.600816 
L 246.98875 368.23325 
C 275.231231 368.23325 275.231231 435.150762 258.365444 435.150762 
L 261.739542 434.709974 
L 265.100195 434.177357 
L 268.444872 433.553312 
L 271.771052 432.838309 
L 275.076231 432.032887 
L 278.35792 431.137652 
L 281.613645 430.153279 
L 284.840956 429.08051 
L 288.037422 427.920151 
L 291.200634 426.673078 
L 294.32821 425.340229 
L 297.417795 423.922609 
L 300.467061 422.421285 
z
" clip-path="url(#pad283c2988)" style="fill: #cc660b; fill-opacity: 0.08"/>
   </g>
   <g id="patch_53">
    <path d="M 310.892378 416.458557 
C 278.940564 416.458557 278.940564 298.619164 246.98875 298.619164 
L 246.98875 299.490905 
C 278.940564 299.490905 278.940564 420.231902 304.572681 420.231902 
L 305.031473 419.974824 
L 305.489161 419.715812 
L 305.945737 419.454871 
L 306.401194 419.192005 
L 306.855523 418.927219 
L 307.308715 418.660519 
L 307.760763 418.391908 
L 308.211659 418.121392 
L 308.661395 417.848975 
L 309.109961 417.574662 
L 309.557351 417.29846 
L 310.003555 417.020371 
L 310.448567 416.740402 
z
" clip-path="url(#pad283c2988)" style="fill: #cc660b; fill-opacity: 0.35"/>
   </g>
   <g id="patch_54">
    <path d="M 333.631161 397.81162 
C 290.309955 397.81162 290.309955 359.107117 246.98875 359.107117 
L 246.98875 362.600816 
C 290.309955 362.600816 290.309955 416.458557 310.892378 416.458557 
L 312.658839 415.31028 
L 314.405371 414.132294 
L 316.131465 412.924938 
L 317.836624 411.688563 
L 319.520351 410.423527 
L 321.18216 409.130198 
L 322.821568 407.808949 
L 324.438101 406.460163 
L 326.03129 405.084232 
L 327.600674 403.681555 
L 329.145797 402.252537 
L 330.666211 400.797592 
L 332.161477 399.317144 
z
" clip-path="url(#pad283c2988)" style="fill: #cc660b; fill-opacity: 0.08"/>
   </g>
   <g id="patch_55">
    <path d="M 335.085662 396.269784 
C 291.037206 396.269784 291.037206 298.51628 246.98875 298.51628 
L 246.98875 298.619164 
C 291.037206 298.619164 291.037206 396.903672 334.493723 396.903672 
L 334.536153 396.858532 
L 334.578559 396.81337 
L 334.620944 396.768187 
L 334.663305 396.722983 
L 334.705643 396.677758 
L 334.747959 396.632511 
L 334.790252 396.587244 
L 334.832522 396.541956 
L 334.874769 396.496646 
L 334.916993 396.451316 
L 334.959195 396.405964 
L 335.001373 396.360592 
L 335.043529 396.315198 
z
" clip-path="url(#pad283c2988)" style="fill: #cc660b; fill-opacity: 0.35"/>
   </g>
   <g id="patch_56">
    <path d="M 337.746457 393.305809 
C 292.367603 393.305809 292.367603 358.634539 246.98875 358.634539 
L 246.98875 359.107117 
C 292.367603 359.107117 292.367603 396.269784 335.085662 396.269784 
L 335.278895 396.060912 
L 335.471643 395.851599 
L 335.663906 395.641846 
L 335.855683 395.431653 
L 336.046971 395.221022 
L 336.237771 395.009954 
L 336.428081 394.79845 
L 336.617901 394.586511 
L 336.807229 394.374139 
L 336.996064 394.161333 
L 337.184405 393.948097 
L 337.372252 393.73443 
L 337.559603 393.520334 
z
" clip-path="url(#pad283c2988)" style="fill: #cc660b; fill-opacity: 0.08"/>
   </g>
   <g id="patch_57">
    <path d="M 338.66566 392.235737 
C 292.827205 392.235737 292.827205 298.497446 246.98875 298.497446 
L 246.98875 298.51628 
C 292.827205 298.51628 292.827205 392.356658 338.562849 392.356658 
L 338.570198 392.348025 
L 338.577546 392.339391 
L 338.584893 392.330757 
L 338.59224 392.322122 
L 338.599585 392.313487 
L 338.60693 392.304851 
L 338.614274 392.296214 
L 338.621617 392.287576 
L 338.62896 392.278938 
L 338.636301 392.270299 
L 338.643642 392.26166 
L 338.650982 392.25302 
L 338.658322 392.244379 
z
" clip-path="url(#pad283c2988)" style="fill: #cc660b; fill-opacity: 0.35"/>
   </g>
   <g id="patch_58">
    <path d="M 339.248878 391.543765 
C 293.118814 391.543765 293.118814 358.52715 246.98875 358.52715 
L 246.98875 358.634539 
C 293.118814 358.634539 293.118814 392.235737 338.66566 392.235737 
L 338.707487 392.186452 
L 338.749289 392.137144 
L 338.791065 392.087815 
L 338.832814 392.038464 
L 338.874538 391.989092 
L 338.916235 391.939698 
L 338.957907 391.890282 
L 338.999552 391.840844 
L 339.041172 391.791385 
L 339.082765 391.741905 
L 339.124332 391.692402 
L 339.165874 391.642878 
L 339.207389 391.593333 
z
" clip-path="url(#pad283c2988)" style="fill: #cc660b; fill-opacity: 0.08"/>
   </g>
   <g id="patch_59">
    <path d="M 340.097808 390.517805 
C 293.543279 390.517805 293.543279 298.48797 246.98875 298.48797 
L 246.98875 298.497446 
C 293.543279 298.497446 293.543279 390.579577 340.047221 390.579577 
L 340.050836 390.575166 
L 340.05445 390.570754 
L 340.058064 390.566343 
L 340.061679 390.561931 
L 340.065292 390.557519 
L 340.068906 390.553107 
L 340.07252 390.548695 
L 340.076133 390.544283 
L 340.079746 390.53987 
L 340.083359 390.535457 
L 340.086972 390.531044 
L 340.090584 390.526631 
L 340.094196 390.522218 
z
" clip-path="url(#pad283c2988)" style="fill: #cc660b; fill-opacity: 0.35"/>
   </g>
   <g id="patch_60">
    <path d="M 340.360775 390.195377 
C 293.674763 390.195377 293.674763 358.477773 246.98875 358.477773 
L 246.98875 358.52715 
C 293.674763 358.52715 293.674763 390.517805 340.097808 390.517805 
L 340.116628 390.494803 
L 340.135442 390.471798 
L 340.154251 390.448787 
L 340.173053 390.425773 
L 340.191851 390.402753 
L 340.210642 390.379729 
L 340.229429 390.356701 
L 340.248209 390.333668 
L 340.266984 390.310631 
L 340.285754 390.287589 
L 340.304517 390.264543 
L 340.323276 390.241492 
L 340.342028 390.218437 
z
" clip-path="url(#pad283c2988)" style="fill: #cc660b; fill-opacity: 0.08"/>
   </g>
   <g id="patch_61">
    <path d="M 341.152674 389.210809 
C 294.070712 389.210809 294.070712 298.486567 246.98875 298.486567 
L 246.98875 298.48797 
C 294.070712 298.48797 294.070712 389.220063 341.145308 389.220063 
L 341.145834 389.219402 
L 341.14636 389.218741 
L 341.146886 389.21808 
L 341.147413 389.217419 
L 341.147939 389.216758 
L 341.148465 389.216097 
L 341.148991 389.215436 
L 341.149517 389.214775 
L 341.150043 389.214114 
L 341.150569 389.213453 
L 341.151096 389.212792 
L 341.151622 389.212131 
L 341.152148 389.21147 
z
" clip-path="url(#pad283c2988)" style="fill: #cc660b; fill-opacity: 0.35"/>
   </g>
   <g id="patch_62">
    <path d="M 341.193109 389.159977 
C 294.09093 389.159977 294.09093 358.470064 246.98875 358.470064 
L 246.98875 358.477773 
C 294.09093 358.477773 294.09093 389.210809 341.152674 389.210809 
L 341.155563 389.207179 
L 341.158452 389.203549 
L 341.161341 389.199918 
L 341.16423 389.196288 
L 341.167118 389.192657 
L 341.170007 389.189027 
L 341.172895 389.185396 
L 341.175783 389.181765 
L 341.178671 389.178134 
L 341.181559 389.174503 
L 341.184447 389.170872 
L 341.187335 389.16724 
L 341.190222 389.163609 
z
" clip-path="url(#pad283c2988)" style="fill: #cc660b; fill-opacity: 0.08"/>
   </g>
   <g id="patch_63">
    <path d="M 341.971216 388.17097 
C 294.479983 388.17097 294.479983 298.48576 246.98875 298.48576 
L 246.98875 298.486567 
C 294.479983 298.486567 294.479983 388.176336 341.967038 388.176336 
L 341.967337 388.175953 
L 341.967635 388.175569 
L 341.967934 388.175186 
L 341.968232 388.174803 
L 341.96853 388.174419 
L 341.968829 388.174036 
L 341.969127 388.173653 
L 341.969426 388.17327 
L 341.969724 388.172886 
L 341.970022 388.172503 
L 341.970321 388.17212 
L 341.970619 388.171737 
L 341.970918 388.171353 
z
" clip-path="url(#pad283c2988)" style="fill: #cc660b; fill-opacity: 0.35"/>
   </g>
   <g id="patch_64">
    <path d="M 341.997486 388.137214 
C 294.493118 388.137214 294.493118 358.464987 246.98875 358.464987 
L 246.98875 358.470064 
C 294.493118 358.470064 294.493118 388.17097 341.971216 388.17097 
L 341.973093 388.168559 
L 341.97497 388.166148 
L 341.976846 388.163737 
L 341.978723 388.161326 
L 341.9806 388.158915 
L 341.982476 388.156504 
L 341.984353 388.154093 
L 341.986229 388.151682 
L 341.988105 388.149271 
L 341.989982 388.14686 
L 341.991858 388.144448 
L 341.993734 388.142037 
L 341.99561 388.139626 
z
" clip-path="url(#pad283c2988)" style="fill: #cc660b; fill-opacity: 0.08"/>
   </g>
   <g id="patch_65">
    <path d="M 344.026289 385.454679 
C 295.50752 385.454679 295.50752 298.235058 246.98875 298.235058 
L 246.98875 298.48576 
C 295.50752 298.48576 295.50752 387.145526 342.760942 387.145526 
L 342.852287 387.025467 
L 342.943485 386.905297 
L 343.034535 386.785016 
L 343.125437 386.664625 
L 343.216191 386.544123 
L 343.306797 386.423512 
L 343.397254 386.30279 
L 343.487563 386.181959 
L 343.577723 386.061019 
L 343.667734 385.939969 
L 343.757597 385.818809 
L 343.84731 385.697541 
L 343.936874 385.576165 
z
" clip-path="url(#pad283c2988)" style="fill: #70453c; fill-opacity: 0.35"/>
   </g>
   <g id="patch_66">
    <path d="M 356.051469 365.324855 
C 301.52011 365.324855 301.52011 355.67557 246.98875 355.67557 
L 246.98875 358.464987 
C 301.52011 358.464987 301.52011 385.454679 344.026289 385.454679 
L 345.011049 384.095702 
L 345.977127 382.723553 
L 346.924345 381.338485 
L 347.852528 379.940753 
L 348.761503 378.530616 
L 349.651105 377.108334 
L 350.521167 375.674171 
L 351.371529 374.22839 
L 352.202035 372.77126 
L 353.01253 371.303049 
L 353.802865 369.824029 
L 354.572894 368.334473 
L 355.322475 366.834656 
z
" clip-path="url(#pad283c2988)" style="fill: #70453c; fill-opacity: 0.08"/>
   </g>
   <g id="patch_67">
    <path d="M 357.212836 362.803895 
C 302.100793 362.803895 302.100793 298.053726 246.98875 298.053726 
L 246.98875 298.235058 
C 302.100793 298.235058 302.100793 364.192834 356.581522 364.192834 
L 356.627189 364.093882 
L 356.672768 363.994891 
L 356.718258 363.895859 
L 356.763661 363.796787 
L 356.808976 363.697676 
L 356.854202 363.598525 
L 356.899341 363.499334 
L 356.944391 363.400104 
L 356.989353 363.300834 
L 357.034226 363.201525 
L 357.079011 363.102176 
L 357.123708 363.002788 
L 357.168317 362.903361 
z
" clip-path="url(#pad283c2988)" style="fill: #70453c; fill-opacity: 0.35"/>
   </g>
   <g id="patch_68">
    <path d="M 360.901183 353.566163 
C 303.944967 353.566163 303.944967 354.49279 246.98875 354.49279 
L 246.98875 355.67557 
C 303.944967 355.67557 303.944967 362.803895 357.212836 362.803895 
L 357.501056 362.154148 
L 357.785502 361.502762 
L 358.066165 360.849757 
L 358.343035 360.195157 
L 358.616104 359.538981 
L 358.885361 358.881253 
L 359.150799 358.221994 
L 359.412408 357.561227 
L 359.67018 356.898972 
L 359.924106 356.235252 
L 360.174177 355.570089 
L 360.420386 354.903505 
L 360.662724 354.235522 
z
" clip-path="url(#pad283c2988)" style="fill: #70453c; fill-opacity: 0.08"/>
   </g>
   <g id="patch_69">
    <path d="M 361.623736 351.458409 
C 304.306243 351.458409 304.306243 297.937342 246.98875 297.937342 
L 246.98875 298.053726 
C 304.306243 298.053726 304.306243 352.385916 361.31105 352.385916 
L 361.33363 352.319747 
L 361.356173 352.253566 
L 361.378678 352.187372 
L 361.401145 352.121166 
L 361.423574 352.054947 
L 361.445966 351.988715 
L 361.46832 351.922471 
L 361.490635 351.856214 
L 361.512913 351.789944 
L 361.535154 351.723662 
L 361.557356 351.657368 
L 361.579521 351.59106 
L 361.601647 351.524741 
z
" clip-path="url(#pad283c2988)" style="fill: #70453c; fill-opacity: 0.35"/>
   </g>
   <g id="patch_70">
    <path d="M 364.496539 341.412985 
C 305.742644 341.412985 305.742644 353.24987 246.98875 353.24987 
L 246.98875 354.49279 
C 305.742644 354.49279 305.742644 351.458409 361.623736 351.458409 
L 361.85727 350.749247 
L 362.086477 350.038693 
L 362.311348 349.326773 
L 362.531875 348.613513 
L 362.748051 347.898938 
L 362.959866 347.183077 
L 363.167314 346.465953 
L 363.370387 345.747595 
L 363.569077 345.028028 
L 363.763378 344.307278 
L 363.953281 343.585372 
L 364.13878 342.862337 
L 364.319868 342.138199 
z
" clip-path="url(#pad283c2988)" style="fill: #70453c; fill-opacity: 0.08"/>
   </g>
   <g id="patch_71">
    <path d="M 364.817862 340.041664 
C 305.903306 340.041664 305.903306 297.918368 246.98875 297.918368 
L 246.98875 297.937342 
C 305.903306 297.937342 305.903306 340.197162 364.782261 340.197162 
L 364.784811 340.186056 
L 364.787359 340.174951 
L 364.789907 340.163845 
L 364.792453 340.152738 
L 364.794999 340.141632 
L 364.797543 340.130525 
L 364.800087 340.119418 
L 364.802629 340.108311 
L 364.805171 340.097204 
L 364.807711 340.086096 
L 364.81025 340.074989 
L 364.812788 340.063881 
L 364.815326 340.052772 
z
" clip-path="url(#pad283c2988)" style="fill: #70453c; fill-opacity: 0.35"/>
   </g>
   <g id="patch_72">
    <path d="M 365.174486 338.429308 
C 306.081618 338.429308 306.081618 353.053448 246.98875 353.053448 
L 246.98875 353.24987 
C 306.081618 353.24987 306.081618 340.041664 364.817862 340.041664 
L 364.844056 339.926654 
L 364.870139 339.81162 
L 364.896111 339.696561 
L 364.921973 339.581477 
L 364.947723 339.466369 
L 364.973363 339.351236 
L 364.998892 339.236079 
L 365.02431 339.120898 
L 365.049617 339.005693 
L 365.074812 338.890463 
L 365.099897 338.77521 
L 365.124871 338.659933 
L 365.149734 338.544632 
z
" clip-path="url(#pad283c2988)" style="fill: #70453c; fill-opacity: 0.08"/>
   </g>
   <g id="patch_73">
    <path d="M 365.453957 337.087497 
C 306.221354 337.087497 306.221354 297.903886 246.98875 297.903886 
L 246.98875 297.918368 
C 306.221354 297.918368 306.221354 337.206812 365.42974 337.206812 
L 365.431474 337.19829 
L 365.433207 337.189769 
L 365.43494 337.181247 
L 365.436671 337.172725 
L 365.438403 337.164202 
L 365.440133 337.15568 
L 365.441864 337.147158 
L 365.443593 337.138635 
L 365.445322 337.130113 
L 365.44705 337.12159 
L 365.448778 337.113067 
L 365.450505 337.104544 
L 365.452231 337.096021 
z
" clip-path="url(#pad283c2988)" style="fill: #70453c; fill-opacity: 0.35"/>
   </g>
   <g id="patch_74">
    <path d="M 365.581667 336.447925 
C 306.285208 336.447925 306.285208 352.975866 246.98875 352.975866 
L 246.98875 353.053448 
C 306.285208 353.053448 306.285208 337.087497 365.453957 337.087497 
L 365.463192 337.041836 
L 365.47241 336.996171 
L 365.48161 336.950503 
L 365.490793 336.904831 
L 365.499959 336.859156 
L 365.509107 336.813477 
L 365.518238 336.767795 
L 365.527351 336.72211 
L 365.536447 336.676421 
L 365.545526 336.630728 
L 365.554587 336.585032 
L 365.563631 336.539333 
L 365.572658 336.493631 
z
" clip-path="url(#pad283c2988)" style="fill: #70453c; fill-opacity: 0.08"/>
   </g>
   <g id="patch_75">
    <path d="M 367.8763 314.53903 
C 307.432525 314.53903 307.432525 295.428071 246.98875 295.428071 
L 246.98875 297.903886 
C 307.432525 297.903886 307.432525 335.221431 365.816691 335.221431 
L 366.080144 333.758377 
L 366.325813 332.292272 
L 366.553662 330.823328 
L 366.763659 329.351761 
L 366.955773 327.877784 
L 367.129975 326.401611 
L 367.286241 324.923458 
L 367.424548 323.44354 
L 367.544876 321.962071 
L 367.647206 320.479268 
L 367.731525 318.995346 
L 367.797819 317.510522 
L 367.84608 316.025011 
z
" clip-path="url(#pad283c2988)" style="fill: #ab1f20; fill-opacity: 0.35"/>
   </g>
   <g id="patch_76">
    <path d="M 334.962841 229.184457 
C 290.975796 229.184457 290.975796 341.834004 246.98875 341.834004 
L 246.98875 352.975866 
C 290.975796 352.975866 290.975796 314.53903 367.8763 314.53903 
L 367.788963 307.851676 
L 367.336508 301.178883 
L 366.520269 294.540317 
L 365.342652 287.95554 
L 363.807126 281.443956 
L 361.918217 275.024754 
L 359.681491 268.716851 
L 357.103539 262.538835 
L 354.191959 256.508912 
L 350.955329 250.644852 
L 347.403189 244.963935 
L 343.546006 239.482901 
L 339.395146 234.217903 
z
" clip-path="url(#pad283c2988)" style="fill: #ab1f20; fill-opacity: 0.08"/>
   </g>
   <g id="patch_77">
    <path d="M 327.789275 222.076777 
C 287.389013 222.076777 287.389013 294.378649 246.98875 294.378649 
L 246.98875 295.428071 
C 287.389013 295.428071 287.389013 228.27176 334.105372 228.27176 
L 333.669179 227.814513 
L 333.230639 227.359487 
L 332.789763 226.906696 
L 332.346562 226.45615 
L 331.901048 226.007862 
L 331.453232 225.561843 
L 331.003127 225.118106 
L 330.550744 224.676661 
L 330.096095 224.23752 
L 329.639191 223.800694 
L 329.180046 223.366196 
L 328.71867 222.934036 
L 328.255075 222.504226 
z
" clip-path="url(#pad283c2988)" style="fill: #ab1f20; fill-opacity: 0.35"/>
   </g>
   <g id="patch_78">
    <path d="M 290.858102 198.77354 
C 268.923426 198.77354 268.923426 336.634914 246.98875 336.634914 
L 246.98875 341.834004 
C 268.923426 341.834004 268.923426 222.076777 327.789275 222.076777 
L 325.449469 219.994293 
L 323.057319 217.971365 
L 320.614361 216.009292 
L 318.122162 214.109332 
L 315.582321 212.272705 
L 312.99647 210.500589 
L 310.366267 208.794123 
L 307.6934 207.1544 
L 304.979586 205.582474 
L 302.226564 204.079353 
L 299.436103 202.646002 
L 296.609993 201.283341 
L 293.750047 199.992244 
z
" clip-path="url(#pad283c2988)" style="fill: #ab1f20; fill-opacity: 0.08"/>
   </g>
   <g id="patch_79">
    <path d="M 289.644247 198.28735 
C 268.316498 198.28735 268.316498 294.372484 246.98875 294.372484 
L 246.98875 294.378649 
C 268.316498 294.378649 268.316498 198.306479 289.692712 198.306479 
L 289.689251 198.305112 
L 289.685789 198.303745 
L 289.682327 198.302378 
L 289.678866 198.301011 
L 289.675404 198.299645 
L 289.671942 198.298278 
L 289.66848 198.296912 
L 289.665019 198.295546 
L 289.661557 198.294179 
L 289.658095 198.292813 
L 289.654633 198.291447 
L 289.651171 198.290081 
L 289.647709 198.288716 
z
" clip-path="url(#pad283c2988)" style="fill: #ab1f20; fill-opacity: 0.35"/>
   </g>
   <g id="patch_80">
    <path d="M 289.310472 198.156247 
C 268.149611 198.156247 268.149611 336.592485 246.98875 336.592485 
L 246.98875 336.634914 
C 268.149611 336.634914 268.149611 198.28735 289.644247 198.28735 
L 289.620418 198.277954 
L 289.596588 198.268562 
L 289.572756 198.259176 
L 289.548922 198.249794 
L 289.525085 198.240417 
L 289.501247 198.231046 
L 289.477407 198.221679 
L 289.453565 198.212317 
L 289.429721 198.20296 
L 289.405875 198.193607 
L 289.382027 198.18426 
L 289.358178 198.174918 
L 289.334326 198.16558 
z
" clip-path="url(#pad283c2988)" style="fill: #ab1f20; fill-opacity: 0.08"/>
   </g>
   <g id="patch_81">
    <path d="M 288.1103 197.693962 
C 267.549525 197.693962 267.549525 294.368869 246.98875 294.368869 
L 246.98875 294.372484 
C 267.549525 294.372484 267.549525 197.7048 288.138865 197.7048 
L 288.136825 197.704026 
L 288.134784 197.703252 
L 288.132744 197.702477 
L 288.130704 197.701703 
L 288.128663 197.700929 
L 288.126623 197.700155 
L 288.124583 197.69938 
L 288.122542 197.698606 
L 288.120502 197.697832 
L 288.118461 197.697058 
L 288.116421 197.696284 
L 288.114381 197.69551 
L 288.11234 197.694736 
z
" clip-path="url(#pad283c2988)" style="fill: #ab1f20; fill-opacity: 0.35"/>
   </g>
   <g id="patch_82">
    <path d="M 287.952171 197.634113 
C 267.47046 197.634113 267.47046 336.572481 246.98875 336.572481 
L 246.98875 336.592485 
C 267.47046 336.592485 267.47046 197.693962 288.1103 197.693962 
L 288.099007 197.68968 
L 288.087715 197.685399 
L 288.076422 197.68112 
L 288.065128 197.676841 
L 288.053835 197.672563 
L 288.04254 197.668286 
L 288.031246 197.664011 
L 288.01995 197.659737 
L 288.008655 197.655463 
L 287.997359 197.651191 
L 287.986063 197.64692 
L 287.974766 197.64265 
L 287.963469 197.638381 
z
" clip-path="url(#pad283c2988)" style="fill: #ab1f20; fill-opacity: 0.08"/>
   </g>
   <g id="patch_83">
    <path d="M 286.753395 197.188346 
C 266.871072 197.188346 266.871072 294.366109 246.98875 294.366109 
L 246.98875 294.368869 
C 266.871072 294.368869 266.871072 197.196369 286.775308 197.196369 
L 286.773743 197.195796 
L 286.772178 197.195222 
L 286.770612 197.194649 
L 286.769047 197.194076 
L 286.767482 197.193503 
L 286.765917 197.19293 
L 286.764352 197.192357 
L 286.762786 197.191784 
L 286.761221 197.191211 
L 286.759656 197.190638 
L 286.758091 197.190065 
L 286.756525 197.189492 
L 286.75496 197.188919 
z
" clip-path="url(#pad283c2988)" style="fill: #ab1f20; fill-opacity: 0.35"/>
   </g>
   <g id="patch_84">
    <path d="M 286.625601 197.14165 
C 266.807175 197.14165 266.807175 336.556384 246.98875 336.556384 
L 246.98875 336.572481 
C 266.807175 336.572481 266.807175 197.188346 286.753395 197.188346 
L 286.744268 197.185006 
L 286.735142 197.181667 
L 286.726015 197.178328 
L 286.716888 197.17499 
L 286.70776 197.171653 
L 286.698632 197.168316 
L 286.689504 197.164981 
L 286.680376 197.161646 
L 286.671247 197.158311 
L 286.662119 197.154978 
L 286.652989 197.151645 
L 286.64386 197.148313 
L 286.634731 197.144981 
z
" clip-path="url(#pad283c2988)" style="fill: #ab1f20; fill-opacity: 0.08"/>
   </g>
   <g id="patch_85">
    <path d="M 282.48753 195.714062 
C 264.73814 195.714062 264.73814 293.9968 246.98875 293.9968 
L 246.98875 294.366109 
C 264.73814 294.366109 264.73814 196.717288 285.443783 196.717288 
L 285.233474 196.643178 
L 285.023032 196.569444 
L 284.812457 196.496087 
L 284.601749 196.423106 
L 284.390909 196.350502 
L 284.179938 196.278275 
L 283.968836 196.206425 
L 283.757605 196.134953 
L 283.546245 196.063859 
L 283.334756 195.993142 
L 283.123139 195.922804 
L 282.911396 195.852845 
L 282.699526 195.783264 
z
" clip-path="url(#pad283c2988)" style="fill: #195f90; fill-opacity: 0.35"/>
   </g>
   <g id="patch_86">
    <path d="M 263.216667 191.099058 
C 255.102708 191.099058 255.102708 334.210524 246.98875 334.210524 
L 246.98875 336.556384 
C 255.102708 336.556384 255.102708 195.714062 282.48753 195.714062 
L 281.138034 195.283351 
L 279.783672 194.867994 
L 278.424619 194.468045 
L 277.061053 194.083557 
L 275.693153 193.71458 
L 274.321098 193.361162 
L 272.945066 193.023349 
L 271.565237 192.701186 
L 270.181793 192.394714 
L 268.794913 192.103974 
L 267.404778 191.829003 
L 266.011571 191.569838 
L 264.615473 191.326513 
z
" clip-path="url(#pad283c2988)" style="fill: #195f90; fill-opacity: 0.08"/>
   </g>
   <g id="patch_87">
    <path d="M 260.829621 190.74843 
C 253.909185 190.74843 253.909185 293.860097 246.98875 293.860097 
L 246.98875 293.9968 
C 253.909185 293.9968 253.909185 190.910702 261.974418 190.910702 
L 261.892698 190.898759 
L 261.810969 190.886871 
L 261.729233 190.875036 
L 261.647489 190.863256 
L 261.565737 190.85153 
L 261.483977 190.839858 
L 261.40221 190.82824 
L 261.320434 190.816676 
L 261.238651 190.805166 
L 261.15686 190.793711 
L 261.075062 190.782309 
L 260.993256 190.770962 
L 260.911442 190.759669 
z
" clip-path="url(#pad283c2988)" style="fill: #195f90; fill-opacity: 0.35"/>
   </g>
   <g id="patch_88">
    <path d="M 251.538394 189.827907 
C 249.263572 189.827907 249.263572 333.106448 246.98875 333.106448 
L 246.98875 334.210524 
C 249.263572 334.210524 249.263572 190.74843 260.829621 190.74843 
L 260.168526 190.659644 
L 259.506959 190.574394 
L 258.844941 190.49268 
L 258.18249 190.414507 
L 257.519625 190.339875 
L 256.856366 190.268788 
L 256.192731 190.201247 
L 255.528741 190.137255 
L 254.864413 190.076812 
L 254.199768 190.019921 
L 253.534824 189.966584 
L 252.869601 189.916801 
L 252.204118 189.870575 
z
" clip-path="url(#pad283c2988)" style="fill: #195f90; fill-opacity: 0.08"/>
   </g>
   <g id="patch_89">
    <path d="M 249.529739 189.720798 
C 248.259245 189.720798 248.259245 293.770852 246.98875 293.770852 
L 246.98875 293.860097 
C 248.259245 293.860097 248.259245 189.7572 250.283779 189.7572 
L 250.229927 189.754449 
L 250.176073 189.75172 
L 250.122218 189.749016 
L 250.068362 189.746334 
L 250.014505 189.743676 
L 249.960647 189.741041 
L 249.906787 189.738429 
L 249.852926 189.73584 
L 249.799065 189.733275 
L 249.745202 189.730733 
L 249.691338 189.728214 
L 249.637473 189.725719 
L 249.583606 189.723247 
z
" clip-path="url(#pad283c2988)" style="fill: #195f90; fill-opacity: 0.35"/>
   </g>
   <g id="patch_90">
    <path d="M 244.623195 189.595411 
C 245.805973 189.595411 245.805973 332.526189 246.98875 332.526189 
L 246.98875 333.106448 
C 245.805973 333.106448 245.805973 189.720798 249.529739 189.720798 
L 249.179474 189.705443 
L 248.829166 189.691072 
L 248.478819 189.677685 
L 248.128435 189.665283 
L 247.778017 189.653865 
L 247.427569 189.643431 
L 247.077092 189.633982 
L 246.726589 189.625518 
L 246.376064 189.618038 
L 246.025519 189.611543 
L 245.674956 189.606033 
L 245.32438 189.601507 
L 244.973792 189.597967 
z
" clip-path="url(#pad283c2988)" style="fill: #195f90; fill-opacity: 0.08"/>
   </g>
   <g id="patch_91">
    <path d="M 243.170338 189.595318 
C 245.079544 189.595318 245.079544 293.747655 246.98875 293.747655 
L 246.98875 293.770852 
C 245.079544 293.770852 245.079544 189.594342 243.366564 189.594342 
L 243.352548 189.594402 
L 243.338532 189.594463 
L 243.324515 189.594525 
L 243.310499 189.59459 
L 243.296483 189.594655 
L 243.282467 189.594723 
L 243.268451 189.594791 
L 243.254435 189.594862 
L 243.240418 189.594934 
L 243.226402 189.595008 
L 243.212386 189.595083 
L 243.19837 189.595159 
L 243.184354 189.595238 
z
" clip-path="url(#pad283c2988)" style="fill: #195f90; fill-opacity: 0.35"/>
   </g>
   <g id="patch_92">
    <path d="M 241.766853 189.611289 
C 244.377802 189.611289 244.377802 332.360263 246.98875 332.360263 
L 246.98875 332.526189 
C 244.377802 332.526189 244.377802 189.595318 243.170338 189.595318 
L 243.070084 189.595935 
L 242.96983 189.596633 
L 242.869577 189.597411 
L 242.769325 189.59827 
L 242.669074 189.59921 
L 242.568823 189.60023 
L 242.468573 189.60133 
L 242.368324 189.602512 
L 242.268076 189.603773 
L 242.167829 189.605115 
L 242.067583 189.606538 
L 241.967339 189.608041 
L 241.867095 189.609625 
z
" clip-path="url(#pad283c2988)" style="fill: #195f90; fill-opacity: 0.08"/>
   </g>
   <g id="patch_93">
    <path d="M 240.360869 189.643122 
C 243.67481 189.643122 243.67481 293.729956 246.98875 293.729956 
L 246.98875 293.747655 
C 243.67481 293.747655 243.67481 189.638979 240.510531 189.638979 
L 240.499841 189.639269 
L 240.48915 189.63956 
L 240.47846 189.639852 
L 240.46777 189.640144 
L 240.45708 189.640438 
L 240.44639 189.640733 
L 240.435699 189.641028 
L 240.425009 189.641324 
L 240.414319 189.641622 
L 240.403629 189.64192 
L 240.392939 189.642219 
L 240.382249 189.642519 
L 240.371559 189.64282 
z
" clip-path="url(#pad283c2988)" style="fill: #195f90; fill-opacity: 0.35"/>
   </g>
   <g id="patch_94">
    <path d="M 238.96602 189.690373 
C 242.977385 189.690373 242.977385 332.195274 246.98875 332.195274 
L 246.98875 332.360263 
C 242.977385 332.360263 242.977385 189.643122 240.360869 189.643122 
L 240.26122 189.645979 
L 240.161574 189.648917 
L 240.061929 189.651934 
L 239.962287 189.65503 
L 239.862648 189.658206 
L 239.763012 189.661462 
L 239.663378 189.664797 
L 239.563746 189.668212 
L 239.464118 189.671707 
L 239.364492 189.675281 
L 239.264869 189.678934 
L 239.16525 189.682668 
L 239.065633 189.68648 
z
" clip-path="url(#pad283c2988)" style="fill: #195f90; fill-opacity: 0.08"/>
   </g>
   <g id="patch_95">
    <path d="M 237.634053 189.750079 
C 242.311402 189.750079 242.311402 293.72089 246.98875 293.72089 
L 246.98875 293.729956 
C 242.311402 293.729956 242.311402 189.746259 237.710647 189.746259 
L 237.705176 189.74653 
L 237.699705 189.746802 
L 237.694234 189.747074 
L 237.688763 189.747346 
L 237.683292 189.747618 
L 237.677821 189.74789 
L 237.67235 189.748163 
L 237.666879 189.748436 
L 237.661408 189.748709 
L 237.655937 189.748983 
L 237.650466 189.749256 
L 237.644995 189.74953 
L 237.639524 189.749805 
z
" clip-path="url(#pad283c2988)" style="fill: #195f90; fill-opacity: 0.35"/>
   </g>
   <g id="patch_96">
    <path d="M 237.027021 189.782022 
C 242.007886 189.782022 242.007886 332.123412 246.98875 332.123412 
L 246.98875 332.195274 
C 242.007886 332.195274 242.007886 189.750079 237.634053 189.750079 
L 237.590689 189.752263 
L 237.547325 189.754461 
L 237.503962 189.756675 
L 237.4606 189.758904 
L 237.417238 189.761148 
L 237.373878 189.763407 
L 237.330518 189.765681 
L 237.287159 189.76797 
L 237.2438 189.770274 
L 237.200443 189.772594 
L 237.157086 189.774928 
L 237.113731 189.777278 
L 237.070376 189.779642 
z
" clip-path="url(#pad283c2988)" style="fill: #195f90; fill-opacity: 0.08"/>
   </g>
   <g id="patch_97">
    <path d="M 235.718474 189.860971 
C 241.353612 189.860971 241.353612 293.714468 246.98875 293.714468 
L 246.98875 293.72089 
C 241.353612 293.72089 241.353612 189.857427 235.772684 189.857427 
L 235.768812 189.857679 
L 235.764939 189.857932 
L 235.761067 189.858184 
L 235.757195 189.858437 
L 235.753323 189.85869 
L 235.749451 189.858943 
L 235.745579 189.859196 
L 235.741707 189.859449 
L 235.737835 189.859703 
L 235.733963 189.859956 
L 235.730091 189.86021 
L 235.726219 189.860463 
L 235.722347 189.860717 
z
" clip-path="url(#pad283c2988)" style="fill: #195f90; fill-opacity: 0.35"/>
   </g>
   <g id="patch_98">
    <path d="M 235.408159 189.881718 
C 241.198455 189.881718 241.198455 332.086645 246.98875 332.086645 
L 246.98875 332.123412 
C 241.198455 332.123412 241.198455 189.860971 235.718474 189.860971 
L 235.696307 189.862428 
L 235.674141 189.863888 
L 235.651974 189.865352 
L 235.629808 189.86682 
L 235.607642 189.868292 
L 235.585476 189.869768 
L 235.56331 189.871248 
L 235.541145 189.872732 
L 235.51898 189.87422 
L 235.496815 189.875712 
L 235.474651 189.877208 
L 235.452487 189.878707 
L 235.430323 189.880211 
z
" clip-path="url(#pad283c2988)" style="fill: #195f90; fill-opacity: 0.08"/>
   </g>
   <g id="patch_99">
    <path d="M 234.127793 189.975543 
C 240.558272 189.975543 240.558272 293.711251 246.98875 293.711251 
L 246.98875 293.714468 
C 240.558272 293.714468 240.558272 189.973418 234.154922 189.973418 
L 234.152984 189.973569 
L 234.151046 189.973721 
L 234.149108 189.973873 
L 234.147171 189.974024 
L 234.145233 189.974176 
L 234.143295 189.974328 
L 234.141357 189.97448 
L 234.13942 189.974632 
L 234.137482 189.974783 
L 234.135544 189.974935 
L 234.133606 189.975087 
L 234.131669 189.975239 
L 234.129731 189.975391 
z
" clip-path="url(#pad283c2988)" style="fill: #195f90; fill-opacity: 0.35"/>
   </g>
   <g id="patch_100">
    <path d="M 233.855252 189.997225 
C 240.422001 189.997225 240.422001 332.054323 246.98875 332.054323 
L 246.98875 332.086645 
C 240.422001 332.086645 240.422001 189.975543 234.127793 189.975543 
L 234.108324 189.977072 
L 234.088856 189.978604 
L 234.069387 189.980139 
L 234.049919 189.981677 
L 234.030451 189.983218 
L 234.010984 189.984762 
L 233.991516 189.98631 
L 233.972049 189.98786 
L 233.952582 189.989413 
L 233.933116 189.990969 
L 233.913649 189.992529 
L 233.894183 189.994091 
L 233.874717 189.995657 
z
" clip-path="url(#pad283c2988)" style="fill: #195f90; fill-opacity: 0.08"/>
   </g>
   <g id="patch_101">
    <path d="M 232.58238 190.106453 
C 239.785565 190.106453 239.785565 293.708771 246.98875 293.708771 
L 246.98875 293.711251 
C 239.785565 293.711251 239.785565 190.104554 232.603272 190.104554 
L 232.601779 190.10469 
L 232.600287 190.104825 
L 232.598795 190.104961 
L 232.597303 190.105096 
L 232.59581 190.105232 
L 232.594318 190.105368 
L 232.592826 190.105503 
L 232.591334 190.105639 
L 232.589842 190.105774 
L 232.588349 190.10591 
L 232.586857 190.106046 
L 232.585365 190.106182 
L 232.583873 190.106317 
z
" clip-path="url(#pad283c2988)" style="fill: #195f90; fill-opacity: 0.35"/>
   </g>
   <g id="patch_102">
    <path d="M 232.360972 190.126794 
C 239.674861 190.126794 239.674861 332.028038 246.98875 332.028038 
L 246.98875 332.054323 
C 239.674861 332.054323 239.674861 190.106453 232.58238 190.106453 
L 232.566564 190.107893 
L 232.550748 190.109335 
L 232.534933 190.110779 
L 232.519117 190.112224 
L 232.503302 190.113672 
L 232.487487 190.115122 
L 232.471672 190.116574 
L 232.455857 190.118028 
L 232.440042 190.119484 
L 232.424228 190.120942 
L 232.408414 190.122402 
L 232.3926 190.123864 
L 232.376786 190.125328 
z
" clip-path="url(#pad283c2988)" style="fill: #195f90; fill-opacity: 0.08"/>
   </g>
   <g id="patch_103">
    <path d="M 231.092181 190.251037 
C 239.040466 190.251037 239.040466 293.706606 246.98875 293.706606 
L 246.98875 293.708771 
C 239.040466 293.708771 239.040466 190.249161 231.11039 190.249161 
L 231.10909 190.249295 
L 231.107789 190.249429 
L 231.106488 190.249563 
L 231.105188 190.249697 
L 231.103887 190.249831 
L 231.102587 190.249965 
L 231.101286 190.250099 
L 231.099985 190.250233 
L 231.098685 190.250367 
L 231.097384 190.250501 
L 231.096083 190.250635 
L 231.094783 190.250769 
L 231.093482 190.250903 
z
" clip-path="url(#pad283c2988)" style="fill: #195f90; fill-opacity: 0.35"/>
   </g>
   <g id="patch_104">
    <path d="M 230.898197 190.271187 
C 238.943474 190.271187 238.943474 332.004981 246.98875 332.004981 
L 246.98875 332.028038 
C 238.943474 332.028038 238.943474 190.251037 231.092181 190.251037 
L 231.078324 190.252466 
L 231.064467 190.253897 
L 231.050611 190.255329 
L 231.036754 190.256763 
L 231.022898 190.258199 
L 231.009041 190.259636 
L 230.995185 190.261074 
L 230.981329 190.262514 
L 230.967474 190.263956 
L 230.953618 190.265399 
L 230.939763 190.266843 
L 230.925907 190.26829 
L 230.912052 190.269737 
z
" clip-path="url(#pad283c2988)" style="fill: #195f90; fill-opacity: 0.08"/>
   </g>
   <g id="patch_105">
    <path d="M 229.617216 190.411949 
C 238.302983 190.411949 238.302983 293.702805 246.98875 293.702805 
L 246.98875 293.706606 
C 238.302983 293.706606 238.302983 190.408275 229.649164 190.408275 
L 229.646882 190.408537 
L 229.6446 190.408799 
L 229.642318 190.409062 
L 229.640036 190.409324 
L 229.637754 190.409586 
L 229.635472 190.409848 
L 229.63319 190.410111 
L 229.630908 190.410373 
L 229.628626 190.410636 
L 229.626344 190.410898 
L 229.624062 190.411161 
L 229.62178 190.411423 
L 229.619498 190.411686 
z
" clip-path="url(#pad283c2988)" style="fill: #195f90; fill-opacity: 0.35"/>
   </g>
   <g id="patch_106">
    <path d="M 229.467421 190.429284 
C 238.228086 190.429284 238.228086 331.987153 246.98875 331.987153 
L 246.98875 332.004981 
C 238.228086 332.004981 238.228086 190.411949 229.617216 190.411949 
L 229.606516 190.413181 
L 229.595816 190.414414 
L 229.585116 190.415648 
L 229.574416 190.416883 
L 229.563716 190.418119 
L 229.553016 190.419356 
L 229.542316 190.420594 
L 229.531617 190.421832 
L 229.520917 190.423072 
L 229.510218 190.424313 
L 229.499518 190.425554 
L 229.488819 190.426796 
L 229.47812 190.42804 
z
" clip-path="url(#pad283c2988)" style="fill: #195f90; fill-opacity: 0.08"/>
   </g>
   <g id="patch_107">
    <path d="M 228.207116 190.582411 
C 237.597933 190.582411 237.597933 293.70126 246.98875 293.70126 
L 246.98875 293.702805 
C 237.597933 293.702805 237.597933 190.58077 228.220073 190.58077 
L 228.219148 190.580887 
L 228.218222 190.581005 
L 228.217297 190.581122 
L 228.216371 190.581239 
L 228.215446 190.581356 
L 228.21452 190.581473 
L 228.213595 190.58159 
L 228.212669 190.581708 
L 228.211744 190.581825 
L 228.210818 190.581942 
L 228.209893 190.582059 
L 228.208967 190.582176 
L 228.208042 190.582294 
z
" clip-path="url(#pad283c2988)" style="fill: #195f90; fill-opacity: 0.35"/>
   </g>
   <g id="patch_108">
    <path d="M 228.151264 190.589498 
C 237.570007 190.589498 237.570007 331.980497 246.98875 331.980497 
L 246.98875 331.987153 
C 237.570007 331.987153 237.570007 190.582411 228.207116 190.582411 
L 228.203127 190.582916 
L 228.199137 190.583422 
L 228.195148 190.583927 
L 228.191158 190.584433 
L 228.187169 190.584939 
L 228.183179 190.585445 
L 228.17919 190.585951 
L 228.1752 190.586458 
L 228.171211 190.586964 
L 228.167222 190.587471 
L 228.163232 190.587977 
L 228.159243 190.588484 
L 228.155254 190.588991 
z
" clip-path="url(#pad283c2988)" style="fill: #195f90; fill-opacity: 0.08"/>
   </g>
   <g id="patch_109">
    <path d="M 226.790939 190.770036 
C 236.889844 190.770036 236.889844 293.687574 246.98875 293.687574 
L 246.98875 293.70126 
C 236.889844 293.70126 236.889844 190.754228 226.905618 190.754228 
L 226.897426 190.755354 
L 226.889235 190.75648 
L 226.881043 190.757607 
L 226.872851 190.758734 
L 226.86466 190.759862 
L 226.856468 190.76099 
L 226.848277 190.762119 
L 226.840085 190.763248 
L 226.831894 190.764378 
L 226.823703 190.765509 
L 226.815512 190.76664 
L 226.807321 190.767771 
L 226.79913 190.768903 
z
" clip-path="url(#pad283c2988)" style="fill: #765297; fill-opacity: 0.35"/>
   </g>
   <g id="patch_110">
    <path d="M 226.290838 190.84024 
C 236.639794 190.84024 236.639794 331.92079 246.98875 331.92079 
L 246.98875 331.980497 
C 236.639794 331.980497 236.639794 190.770036 226.790939 190.770036 
L 226.755208 190.774983 
L 226.719478 190.779941 
L 226.68375 190.784909 
L 226.648024 190.789888 
L 226.612298 190.794877 
L 226.576575 190.799876 
L 226.540852 190.804885 
L 226.505132 190.809905 
L 226.469412 190.814935 
L 226.433694 190.819975 
L 226.397978 190.825026 
L 226.362263 190.830087 
L 226.32655 190.835159 
z
" clip-path="url(#pad283c2988)" style="fill: #765297; fill-opacity: 0.08"/>
   </g>
   <g id="patch_111">
    <path d="M 225.030925 191.026275 
C 236.009837 191.026275 236.009837 293.68555 246.98875 293.68555 
L 246.98875 293.687574 
C 236.009837 293.687574 236.009837 191.023689 225.047845 191.023689 
L 225.046636 191.023874 
L 225.045428 191.024059 
L 225.044219 191.024243 
L 225.043011 191.024428 
L 225.041802 191.024612 
L 225.040593 191.024797 
L 225.039385 191.024982 
L 225.038176 191.025166 
L 225.036968 191.025351 
L 225.035759 191.025536 
L 225.03455 191.025721 
L 225.033342 191.025905 
L 225.032133 191.02609 
z
" clip-path="url(#pad283c2988)" style="fill: #238023; fill-opacity: 0.35"/>
   </g>
   <g id="patch_112">
    <path d="M 224.865066 191.051745 
C 235.926908 191.051745 235.926908 331.90095 246.98875 331.90095 
L 246.98875 331.92079 
C 235.926908 331.92079 235.926908 191.026275 225.030925 191.026275 
L 225.019076 191.028087 
L 225.007228 191.0299 
L 224.995381 191.031714 
L 224.983533 191.033529 
L 224.971685 191.035346 
L 224.959838 191.037163 
L 224.947991 191.038982 
L 224.936144 191.040802 
L 224.924297 191.042623 
L 224.91245 191.044445 
L 224.900604 191.046268 
L 224.888758 191.048093 
L 224.876912 191.049918 
z
" clip-path="url(#pad283c2988)" style="fill: #238023; fill-opacity: 0.08"/>
   </g>
   <g id="text_1">
    <text style="font: 700 11px 'DejaVu Sans', 'Bitstream Vera Sans', 'Computer Modern Sans Serif', 'Lucida Grande', 'Verdana', 'Geneva', 'Lucid', 'Arial', 'Helvetica', 'Avant Garde', sans-serif" transform="translate(160.509064 162.591969) rotate(-294.667797)">LINE</text>
   </g>
   <g id="text_2">
    <text style="font: 700 11px 'DejaVu Sans', 'Bitstream Vera Sans', 'Computer Modern Sans Serif', 'Lucida Grande', 'Verdana', 'Geneva', 'Lucid', 'Arial', 'Helvetica', 'Avant Garde', sans-serif" transform="translate(87.392334 235.235633) rotate(-330.595266)">LTR</text>
   </g>
   <g id="text_3">
    <text style="font: 700 11px 'DejaVu Sans', 'Bitstream Vera Sans', 'Computer Modern Sans Serif', 'Lucida Grande', 'Verdana', 'Geneva', 'Lucid', 'Arial', 'Helvetica', 'Avant Garde', sans-serif" transform="translate(73.520296 377.502019) rotate(-21.733796)">SINE</text>
   </g>
   <g id="text_4">
    <text style="font: 700 11px 'DejaVu Sans', 'Bitstream Vera Sans', 'Computer Modern Sans Serif', 'Lucida Grande', 'Verdana', 'Geneva', 'Lucid', 'Arial', 'Helvetica', 'Avant Garde', sans-serif" transform="translate(183.912398 471.21482) rotate(-71.332473)">DNA</text>
   </g>
   <g id="text_5">
    <text style="font: 700 11px 'DejaVu Sans', 'Bitstream Vera Sans', 'Computer Modern Sans Serif', 'Lucida Grande', 'Verdana', 'Geneva', 'Lucid', 'Arial', 'Helvetica', 'Avant Garde', sans-serif" transform="translate(207.458708 499.608732) rotate(-81.276748)">Retroposon</text>
   </g>
   <g id="text_6">
    <text style="font: 700 11px 'DejaVu Sans', 'Bitstream Vera Sans', 'Computer Modern Sans Serif', 'Lucida Grande', 'Verdana', 'Geneva', 'Lucid', 'Arial', 'Helvetica', 'Avant Garde', sans-serif" transform="translate(241.218008 473.839155) rotate(-89.871115)">RC</text>
   </g>
   <g id="text_7">
    <text style="font: 700 10px 'DejaVu Sans', 'Bitstream Vera Sans', 'Computer Modern Sans Serif', 'Lucida Grande', 'Verdana', 'Geneva', 'Lucid', 'Arial', 'Helvetica', 'Avant Garde', sans-serif; text-anchor: start" x="251.32875" y="281.672625" transform="rotate(-0 251.32875 281.672625)">Near TSS</text>
   </g>
   <g id="text_8">
    <text style="font: 700 10px 'DejaVu Sans', 'Bitstream Vera Sans', 'Computer Modern Sans Serif', 'Lucida Grande', 'Verdana', 'Geneva', 'Lucid', 'Arial', 'Helvetica', 'Avant Garde', sans-serif; text-anchor: start" x="251.32875" y="349.432625" transform="rotate(-0 251.32875 349.432625)">Distal</text>
   </g>
   <g id="text_9">
    <text style="fill: #333333; font: 7px 'DejaVu Sans', 'Bitstream Vera Sans', 'Computer Modern Sans Serif', 'Lucida Grande', 'Verdana', 'Geneva', 'Lucid', 'Arial', 'Helvetica', 'Avant Garde', sans-serif" transform="translate(288.485129 461.043322) rotate(-285.792206)">L1</text>
   </g>
   <g id="text_10">
    <text style="fill: #333333; font: 7px 'DejaVu Sans', 'Bitstream Vera Sans', 'Computer Modern Sans Serif', 'Lucida Grande', 'Verdana', 'Geneva', 'Lucid', 'Arial', 'Helvetica', 'Avant Garde', sans-serif" transform="translate(342.388634 435.22959) rotate(-307.831748)">L2</text>
   </g>
   <g id="text_11">
    <text style="fill: #333333; font: 7px 'DejaVu Sans', 'Bitstream Vera Sans', 'Computer Modern Sans Serif', 'Lucida Grande', 'Verdana', 'Geneva', 'Lucid', 'Arial', 'Helvetica', 'Avant Garde', sans-serif" transform="translate(351.063886 426.092539) rotate(-311.945592)">CR1</text>
   </g>
   <g id="text_12">
    <text style="fill: #333333; font: 7px 'DejaVu Sans', 'Bitstream Vera Sans', 'Computer Modern Sans Serif', 'Lucida Grande', 'Verdana', 'Geneva', 'Lucid', 'Arial', 'Helvetica', 'Avant Garde', sans-serif" transform="translate(358.990299 416.852095) rotate(-315.956297)">RTE-X</text>
   </g>
   <g id="text_13">
    <text style="fill: #333333; font: 7px 'DejaVu Sans', 'Bitstream Vera Sans', 'Computer Modern Sans Serif', 'Lucida Grande', 'Verdana', 'Geneva', 'Lucid', 'Arial', 'Helvetica', 'Avant Garde', sans-serif" transform="translate(366.352945 404.978288) rotate(-319.967001)">RTE-BovB</text>
   </g>
   <g id="text_14">
    <text style="fill: #333333; font: 7px 'DejaVu Sans', 'Bitstream Vera Sans', 'Computer Modern Sans Serif', 'Lucida Grande', 'Verdana', 'Geneva', 'Lucid', 'Arial', 'Helvetica', 'Avant Garde', sans-serif" transform="translate(373.115762 397.687904) rotate(-323.977706)">Penelope</text>
   </g>
   <g id="text_15">
    <text style="fill: #333333; font: 7px 'DejaVu Sans', 'Bitstream Vera Sans', 'Computer Modern Sans Serif', 'Lucida Grande', 'Verdana', 'Geneva', 'Lucid', 'Arial', 'Helvetica', 'Avant Garde', sans-serif" transform="translate(379.245624 389.967871) rotate(-327.98841)">Dong-R4</text>
   </g>
   <g id="text_16">
    <text style="fill: #333333; font: 7px 'DejaVu Sans', 'Bitstream Vera Sans', 'Computer Modern Sans Serif', 'Lucida Grande', 'Verdana', 'Geneva', 'Lucid', 'Arial', 'Helvetica', 'Avant Garde', sans-serif" transform="translate(384.712509 379.359178) rotate(-331.999115)">ERVL-MaLR</text>
   </g>
   <g id="text_17">
    <text style="fill: #333333; font: 7px 'DejaVu Sans', 'Bitstream Vera Sans', 'Computer Modern Sans Serif', 'Lucida Grande', 'Verdana', 'Geneva', 'Lucid', 'Arial', 'Helvetica', 'Avant Garde', sans-serif" transform="translate(391.604525 370.24123) rotate(-338.0077)">ERV1</text>
   </g>
   <g id="text_18">
    <text style="fill: #333333; font: 7px 'DejaVu Sans', 'Bitstream Vera Sans', 'Computer Modern Sans Serif', 'Lucida Grande', 'Verdana', 'Geneva', 'Lucid', 'Arial', 'Helvetica', 'Avant Garde', sans-serif" transform="translate(395.887387 358.836005) rotate(-342.732663)">ERVL</text>
   </g>
   <g id="text_19">
    <text style="fill: #333333; font: 7px 'DejaVu Sans', 'Bitstream Vera Sans', 'Computer Modern Sans Serif', 'Lucida Grande', 'Verdana', 'Geneva', 'Lucid', 'Arial', 'Helvetica', 'Avant Garde', sans-serif" transform="translate(398.713124 348.33551) rotate(-346.743368)">Gypsy</text>
   </g>
   <g id="text_20">
    <text style="fill: #333333; font: 7px 'DejaVu Sans', 'Bitstream Vera Sans', 'Computer Modern Sans Serif', 'Lucida Grande', 'Verdana', 'Geneva', 'Lucid', 'Arial', 'Helvetica', 'Avant Garde', sans-serif" transform="translate(400.78053 338.568493) rotate(-350.754072)">ERVK</text>
   </g>
   <g id="text_21">
    <text style="fill: #333333; font: 7px 'DejaVu Sans', 'Bitstream Vera Sans', 'Computer Modern Sans Serif', 'Lucida Grande', 'Verdana', 'Geneva', 'Lucid', 'Arial', 'Helvetica', 'Avant Garde', sans-serif" transform="translate(397.842091 272.404067) rotate(-16.124334)">Alu</text>
   </g>
   <g id="text_22">
    <text style="fill: #333333; font: 7px 'DejaVu Sans', 'Bitstream Vera Sans', 'Computer Modern Sans Serif', 'Lucida Grande', 'Verdana', 'Geneva', 'Lucid', 'Arial', 'Helvetica', 'Avant Garde', sans-serif" transform="translate(344.936614 194.161817) rotate(-52.403971)">MIR</text>
   </g>
   <g id="text_23">
    <text style="fill: #333333; font: 7px 'DejaVu Sans', 'Bitstream Vera Sans', 'Computer Modern Sans Serif', 'Lucida Grande', 'Verdana', 'Geneva', 'Lucid', 'Arial', 'Helvetica', 'Avant Garde', sans-serif" transform="translate(336.120177 196.260086) rotate(-56.414675)">tRNA-RTE</text>
   </g>
   <g id="text_24">
    <text style="fill: #333333; font: 7px 'DejaVu Sans', 'Bitstream Vera Sans', 'Computer Modern Sans Serif', 'Lucida Grande', 'Verdana', 'Geneva', 'Lucid', 'Arial', 'Helvetica', 'Avant Garde', sans-serif" transform="translate(326.85199 192.440707) rotate(-60.42538)">5S-Deu-L2</text>
   </g>
   <g id="text_25">
    <text style="fill: #333333; font: 7px 'DejaVu Sans', 'Bitstream Vera Sans', 'Computer Modern Sans Serif', 'Lucida Grande', 'Verdana', 'Geneva', 'Lucid', 'Arial', 'Helvetica', 'Avant Garde', sans-serif" transform="translate(317.17745 179.322089) rotate(-64.436084)">tRNA</text>
   </g>
   <g id="text_26">
    <text style="fill: #333333; font: 7px 'DejaVu Sans', 'Bitstream Vera Sans', 'Computer Modern Sans Serif', 'Lucida Grande', 'Verdana', 'Geneva', 'Lucid', 'Arial', 'Helvetica', 'Avant Garde', sans-serif" transform="translate(307.143941 185.21758) rotate(-68.446788)">hAT-Charlie</text>
   </g>
   <g id="text_27">
    <text style="fill: #333333; font: 7px 'DejaVu Sans', 'Bitstream Vera Sans', 'Computer Modern Sans Serif', 'Lucida Grande', 'Verdana', 'Geneva', 'Lucid', 'Arial', 'Helvetica', 'Avant Garde', sans-serif" transform="translate(296.80061 183.826151) rotate(-72.457492)">TcMar-Tigger</text>
   </g>
   <g id="text_28">
    <text style="fill: #333333; font: 7px 'DejaVu Sans', 'Bitstream Vera Sans', 'Computer Modern Sans Serif', 'Lucida Grande', 'Verdana', 'Geneva', 'Lucid', 'Arial', 'Helvetica', 'Avant Garde', sans-serif" transform="translate(286.198116 178.405306) rotate(-76.468196)">hAT-Tip100</text>
   </g>
   <g id="text_29">
    <text style="fill: #333333; font: 7px 'DejaVu Sans', 'Bitstream Vera Sans', 'Computer Modern Sans Serif', 'Lucida Grande', 'Verdana', 'Geneva', 'Lucid', 'Arial', 'Helvetica', 'Avant Garde', sans-serif" transform="translate(275.38839 181.094102) rotate(-80.4789)">hAT-Blackjack</text>
   </g>
   <g id="text_30">
    <text style="fill: #333333; font: 7px 'DejaVu Sans', 'Bitstream Vera Sans', 'Computer Modern Sans Serif', 'Lucida Grande', 'Verdana', 'Geneva', 'Lucid', 'Arial', 'Helvetica', 'Avant Garde', sans-serif" transform="translate(264.42438 180.394991) rotate(-84.489604)">TcMar-Mariner</text>
   </g>
   <g id="text_31">
    <text style="fill: #333333; font: 7px 'DejaVu Sans', 'Bitstream Vera Sans', 'Computer Modern Sans Serif', 'Lucida Grande', 'Verdana', 'Geneva', 'Lucid', 'Arial', 'Helvetica', 'Avant Garde', sans-serif" transform="translate(253.359786 171.681172) rotate(-88.500308)">TcMar-Tc2</text>
   </g>
   <g id="text_32">
    <text style="fill: #333333; font: 7px 'DejaVu Sans', 'Bitstream Vera Sans', 'Computer Modern Sans Serif', 'Lucida Grande', 'Verdana', 'Geneva', 'Lucid', 'Arial', 'Helvetica', 'Avant Garde', sans-serif" transform="translate(243.265303 166.753763) rotate(-92.511012)">hAT-Ac</text>
   </g>
   <g id="text_33">
    <text style="fill: #333333; font: 7px 'DejaVu Sans', 'Bitstream Vera Sans', 'Computer Modern Sans Serif', 'Lucida Grande', 'Verdana', 'Geneva', 'Lucid', 'Arial', 'Helvetica', 'Avant Garde', sans-serif" transform="translate(232.61758 162.335236) rotate(-96.521716)">hAT</text>
   </g>
   <g id="text_34">
    <text style="fill: #333333; font: 7px 'DejaVu Sans', 'Bitstream Vera Sans', 'Computer Modern Sans Serif', 'Lucida Grande', 'Verdana', 'Geneva', 'Lucid', 'Arial', 'Helvetica', 'Avant Garde', sans-serif" transform="translate(227.918126 178.411815) rotate(-100.532421)">MULE-MuDR</text>
   </g>
   <g id="text_35">
    <text style="fill: #333333; font: 7px 'DejaVu Sans', 'Bitstream Vera Sans', 'Computer Modern Sans Serif', 'Lucida Grande', 'Verdana', 'Geneva', 'Lucid', 'Arial', 'Helvetica', 'Avant Garde', sans-serif" transform="translate(217.211764 175.142708) rotate(-104.543125)">PiggyBac</text>
   </g>
   <g id="text_36">
    <text style="fill: #333333; font: 7px 'DejaVu Sans', 'Bitstream Vera Sans', 'Computer Modern Sans Serif', 'Lucida Grande', 'Verdana', 'Geneva', 'Lucid', 'Arial', 'Helvetica', 'Avant Garde', sans-serif" transform="translate(208.13646 177.142617) rotate(-108.553829)">hAT-Tag1</text>
   </g>
   <g id="text_37">
    <text style="fill: #333333; font: 7px 'DejaVu Sans', 'Bitstream Vera Sans', 'Computer Modern Sans Serif', 'Lucida Grande', 'Verdana', 'Geneva', 'Lucid', 'Arial', 'Helvetica', 'Avant Garde', sans-serif" transform="translate(200.547218 181.651059) rotate(-112.564534)">TcMar-Tc1</text>
   </g>
   <g id="text_38">
    <text style="fill: #333333; font: 7px 'DejaVu Sans', 'Bitstream Vera Sans', 'Computer Modern Sans Serif', 'Lucida Grande', 'Verdana', 'Geneva', 'Lucid', 'Arial', 'Helvetica', 'Avant Garde', sans-serif" transform="translate(183.711594 176.964248) rotate(-116.575238)">SVA</text>
   </g>
   <g id="text_39">
    <text style="fill: #333333; font: 7px 'DejaVu Sans', 'Bitstream Vera Sans', 'Computer Modern Sans Serif', 'Lucida Grande', 'Verdana', 'Geneva', 'Lucid', 'Arial', 'Helvetica', 'Avant Garde', sans-serif" transform="translate(181.772461 187.954278) rotate(-120.585943)">Helitron</text>
   </g>
   <g id="text_40">
    <text style="font: 18px 'DejaVu Sans', 'Bitstream Vera Sans', 'Computer Modern Sans Serif', 'Lucida Grande', 'Verdana', 'Geneva', 'Lucid', 'Arial', 'Helvetica', 'Avant Garde', sans-serif" transform="translate(83.899687 20.877187)">Circular Transposable Element Flow</text>
    <text style="font: 18px 'DejaVu Sans', 'Bitstream Vera Sans', 'Computer Modern Sans Serif', 'Lucida Grande', 'Verdana', 'Geneva', 'Lucid', 'Arial', 'Helvetica', 'Avant Garde', sans-serif" transform="translate(7.2 41.03325)">(Balanced Label Distribution with Elbow Connectors)</text>
   </g>
   <g id="patch_113">
    <path d="M 240.78875 300.47325 
L 246.98875 300.47325 
L 246.98875 257.35325 
L 240.78875 257.35325 
z
" clip-path="url(#pad283c2988)" style="fill: #e64b35; stroke: #000000; stroke-width: 0.5; stroke-linejoin: miter"/>
   </g>
   <g id="patch_114">
    <path d="M 240.78875 368.23325 
L 246.98875 368.23325 
L 246.98875 325.11325 
L 240.78875 325.11325 
z
" clip-path="url(#pad283c2988)" style="fill: #808080; stroke: #000000; stroke-width: 0.5; stroke-linejoin: miter"/>
   </g>
  </g>
 </g>
 <defs>
  <clipPath id="pad283c2988">
   <rect x="20.68875" y="91.03325" width="446.4" height="443.52"/>
  </clipPath>
 </defs>
</svg>
