<?xml version="1.0" encoding="utf-8" standalone="no"?>
<!DOCTYPE svg PUBLIC "-//W3C//DTD SVG 1.1//EN"
  "http://www.w3.org/Graphics/SVG/1.1/DTD/svg11.dtd">
<svg xmlns:xlink="http://www.w3.org/1999/xlink" width="360pt" height="288pt" viewBox="0 0 360 288" xmlns="http://www.w3.org/2000/svg" version="1.1">
 <metadata>
  <rdf:RDF xmlns:dc="http://purl.org/dc/elements/1.1/" xmlns:cc="http://creativecommons.org/ns#" xmlns:rdf="http://www.w3.org/1999/02/22-rdf-syntax-ns#">
   <cc:Work>
    <dc:type rdf:resource="http://purl.org/dc/dcmitype/StillImage"/>
    <dc:date>2025-12-28T11:20:24.974569</dc:date>
    <dc:format>image/svg+xml</dc:format>
    <dc:creator>
     <cc:Agent>
      <dc:title>Matplotlib v3.8.4, https://matplotlib.org/</dc:title>
     </cc:Agent>
    </dc:creator>
   </cc:Work>
  </rdf:RDF>
 </metadata>
 <defs>
  <style type="text/css">*{stroke-linejoin: round; stroke-linecap: butt}</style>
 </defs>
 <g id="figure_1">
  <g id="patch_1">
   <path d="M 0 288 
L 360 288 
L 360 0 
L 0 0 
L 0 288 
z
" style="fill: none"/>
  </g>
  <g id="axes_1">
   <g id="patch_2">
    <path d="M 53.91 232.02 
L 338.59 232.02 
L 338.59 55.68 
L 53.91 55.68 
L 53.91 232.02 
z
" style="fill: none"/>
   </g>
   <g id="matplotlib.axis_1">
    <g id="xtick_1">
     <g id="line2d_1">
      <defs>
       <path id="macf58c9546" d="M 0 0 
L 0 6 
" style="stroke: #262626; stroke-width: 1.25"/>
      </defs>
      <g>
       <use xlink:href="#macf58c9546" x="66.85" y="232.02" style="fill: #262626; stroke: #262626; stroke-width: 1.25"/>
      </g>
     </g>
     <g id="text_1">
      <text style="fill: #262626; font: 11px 'Arial', 'DejaVu Sans', 'Liberation Sans', 'Bitstream Vera Sans', sans-serif; text-anchor: middle" x="66.85" y="249.878281" transform="rotate(-0 66.85 249.878281)">0</text>
     </g>
    </g>
    <g id="xtick_2">
     <g id="line2d_2">
      <g>
       <use xlink:href="#macf58c9546" x="120.766667" y="232.02" style="fill: #262626; stroke: #262626; stroke-width: 1.25"/>
      </g>
     </g>
     <g id="text_2">
      <text style="fill: #262626; font: 11px 'Arial', 'DejaVu Sans', 'Liberation Sans', 'Bitstream Vera Sans', sans-serif; text-anchor: middle" x="120.766667" y="249.878281" transform="rotate(-0 120.766667 249.878281)">100</text>
     </g>
    </g>
    <g id="xtick_3">
     <g id="line2d_3">
      <g>
       <use xlink:href="#macf58c9546" x="174.683333" y="232.02" style="fill: #262626; stroke: #262626; stroke-width: 1.25"/>
      </g>
     </g>
     <g id="text_3">
      <text style="fill: #262626; font: 11px 'Arial', 'DejaVu Sans', 'Liberation Sans', 'Bitstream Vera Sans', sans-serif; text-anchor: middle" x="174.683333" y="249.878281" transform="rotate(-0 174.683333 249.878281)">200</text>
     </g>
    </g>
    <g id="xtick_4">
     <g id="line2d_4">
      <g>
       <use xlink:href="#macf58c9546" x="228.6" y="232.02" style="fill: #262626; stroke: #262626; stroke-width: 1.25"/>
      </g>
     </g>
     <g id="text_4">
      <text style="fill: #262626; font: 11px 'Arial', 'DejaVu Sans', 'Liberation Sans', 'Bitstream Vera Sans', sans-serif; text-anchor: middle" x="228.6" y="249.878281" transform="rotate(-0 228.6 249.878281)">300</text>
     </g>
    </g>
    <g id="xtick_5">
     <g id="line2d_5">
      <g>
       <use xlink:href="#macf58c9546" x="282.516667" y="232.02" style="fill: #262626; stroke: #262626; stroke-width: 1.25"/>
      </g>
     </g>
     <g id="text_5">
      <text style="fill: #262626; font: 11px 'Arial', 'DejaVu Sans', 'Liberation Sans', 'Bitstream Vera Sans', sans-serif; text-anchor: middle" x="282.516667" y="249.878281" transform="rotate(-0 282.516667 249.878281)">400</text>
     </g>
    </g>
    <g id="xtick_6">
     <g id="line2d_6">
      <g>
       <use xlink:href="#macf58c9546" x="336.433333" y="232.02" style="fill: #262626; stroke: #262626; stroke-width: 1.25"/>
      </g>
     </g>
     <g id="text_6">
      <text style="fill: #262626; font: 11px 'Arial', 'DejaVu Sans', 'Liberation Sans', 'Bitstream Vera Sans', sans-serif; text-anchor: middle" x="336.433333" y="249.878281" transform="rotate(-0 336.433333 249.878281)">500</text>
     </g>
    </g>
    <g id="text_7">
     <text style="fill: #262626; font: 10px 'Arial', 'DejaVu Sans', 'Liberation Sans', 'Bitstream Vera Sans', sans-serif; text-anchor: middle" x="196.25" y="263.764375" transform="rotate(-0 196.25 263.764375)">Divergence Score</text>
    </g>
   </g>
   <g id="matplotlib.axis_2">
    <g id="ytick_1">
     <g id="line2d_7">
      <defs>
       <path id="m44a2d77cb9" d="M 0 0 
L -6 0 
" style="stroke: #262626; stroke-width: 1.25"/>
      </defs>
      <g>
       <use xlink:href="#m44a2d77cb9" x="53.91" y="224.004545" style="fill: #262626; stroke: #262626; stroke-width: 1.25"/>
      </g>
     </g>
     <g id="text_8">
      <text style="fill: #262626; font: 11px 'Arial', 'DejaVu Sans', 'Liberation Sans', 'Bitstream Vera Sans', sans-serif; text-anchor: end" x="44.41" y="228.183686" transform="rotate(-0 44.41 228.183686)">1.0</text>
     </g>
    </g>
    <g id="ytick_2">
     <g id="line2d_8">
      <g>
       <use xlink:href="#m44a2d77cb9" x="53.91" y="183.927273" style="fill: #262626; stroke: #262626; stroke-width: 1.25"/>
      </g>
     </g>
     <g id="text_9">
      <text style="fill: #262626; font: 11px 'Arial', 'DejaVu Sans', 'Liberation Sans', 'Bitstream Vera Sans', sans-serif; text-anchor: end" x="44.41" y="188.106413" transform="rotate(-0 44.41 188.106413)">0.5</text>
     </g>
    </g>
    <g id="ytick_3">
     <g id="line2d_9">
      <g>
       <use xlink:href="#m44a2d77cb9" x="53.91" y="143.85" style="fill: #262626; stroke: #262626; stroke-width: 1.25"/>
      </g>
     </g>
     <g id="text_10">
      <text style="fill: #262626; font: 11px 'Arial', 'DejaVu Sans', 'Liberation Sans', 'Bitstream Vera Sans', sans-serif; text-anchor: end" x="44.41" y="148.029141" transform="rotate(-0 44.41 148.029141)">0</text>
     </g>
    </g>
    <g id="ytick_4">
     <g id="line2d_10">
      <g>
       <use xlink:href="#m44a2d77cb9" x="53.91" y="103.772727" style="fill: #262626; stroke: #262626; stroke-width: 1.25"/>
      </g>
     </g>
     <g id="text_11">
      <text style="fill: #262626; font: 11px 'Arial', 'DejaVu Sans', 'Liberation Sans', 'Bitstream Vera Sans', sans-serif; text-anchor: end" x="44.41" y="107.951868" transform="rotate(-0 44.41 107.951868)">0.5</text>
     </g>
    </g>
    <g id="ytick_5">
     <g id="line2d_11">
      <g>
       <use xlink:href="#m44a2d77cb9" x="53.91" y="63.695455" style="fill: #262626; stroke: #262626; stroke-width: 1.25"/>
      </g>
     </g>
     <g id="text_12">
      <text style="fill: #262626; font: 11px 'Arial', 'DejaVu Sans', 'Liberation Sans', 'Bitstream Vera Sans', sans-serif; text-anchor: end" x="44.41" y="67.874595" transform="rotate(-0 44.41 67.874595)">1.0</text>
     </g>
    </g>
    <g id="text_13">
     <text style="fill: #262626; font: 10px 'Arial', 'DejaVu Sans', 'Liberation Sans', 'Bitstream Vera Sans', sans-serif; text-anchor: middle" x="20.836875" y="143.85" transform="rotate(-90 20.836875 143.85)">Normalized Count (Max=1.0)</text>
    </g>
   </g>
   <g id="patch_3">
    <path d="M 66.85 143.85 
L 72.026 143.85 
L 72.026 141.240289 
L 66.85 141.240289 
z
" clip-path="url(#p013ed3078c)" style="fill: #1f77b4; stroke: #000000; stroke-linejoin: miter"/>
   </g>
   <g id="patch_4">
    <path d="M 72.026 143.85 
L 77.202 143.85 
L 77.202 139.452219 
L 72.026 139.452219 
z
" clip-path="url(#p013ed3078c)" style="fill: #1f77b4; stroke: #000000; stroke-linejoin: miter"/>
   </g>
   <g id="patch_5">
    <path d="M 77.202 143.85 
L 82.378 143.85 
L 82.378 138.383585 
L 77.202 138.383585 
z
" clip-path="url(#p013ed3078c)" style="fill: #1f77b4; stroke: #000000; stroke-linejoin: miter"/>
   </g>
   <g id="patch_6">
    <path d="M 82.378 143.85 
L 87.554 143.85 
L 87.554 136.061449 
L 82.378 136.061449 
z
" clip-path="url(#p013ed3078c)" style="fill: #1f77b4; stroke: #000000; stroke-linejoin: miter"/>
   </g>
   <g id="patch_7">
    <path d="M 87.554 143.85 
L 92.73 143.85 
L 92.73 134.040413 
L 87.554 134.040413 
z
" clip-path="url(#p013ed3078c)" style="fill: #1f77b4; stroke: #000000; stroke-linejoin: miter"/>
   </g>
   <g id="patch_8">
    <path d="M 92.73 143.85 
L 97.906 143.85 
L 97.906 127.342038 
L 92.73 127.342038 
z
" clip-path="url(#p013ed3078c)" style="fill: #1f77b4; stroke: #000000; stroke-linejoin: miter"/>
   </g>
   <g id="patch_9">
    <path d="M 97.906 143.85 
L 103.082 143.85 
L 103.082 119.398678 
L 97.906 119.398678 
z
" clip-path="url(#p013ed3078c)" style="fill: #1f77b4; stroke: #000000; stroke-linejoin: miter"/>
   </g>
   <g id="patch_10">
    <path d="M 103.082 143.85 
L 108.258 143.85 
L 108.258 114.38667 
L 103.082 114.38667 
z
" clip-path="url(#p013ed3078c)" style="fill: #1f77b4; stroke: #000000; stroke-linejoin: miter"/>
   </g>
   <g id="patch_11">
    <path d="M 108.258 143.85 
L 113.434 143.85 
L 113.434 100.78902 
L 108.258 100.78902 
z
" clip-path="url(#p013ed3078c)" style="fill: #1f77b4; stroke: #000000; stroke-linejoin: miter"/>
   </g>
   <g id="patch_12">
    <path d="M 113.434 143.85 
L 118.61 143.85 
L 118.61 91.677827 
L 113.434 91.677827 
z
" clip-path="url(#p013ed3078c)" style="fill: #1f77b4; stroke: #000000; stroke-linejoin: miter"/>
   </g>
   <g id="patch_13">
    <path d="M 118.61 143.85 
L 123.786 143.85 
L 123.786 71.856249 
L 118.61 71.856249 
z
" clip-path="url(#p013ed3078c)" style="fill: #1f77b4; stroke: #000000; stroke-linejoin: miter"/>
   </g>
   <g id="patch_14">
    <path d="M 123.786 143.85 
L 128.962 143.85 
L 128.962 63.695455 
L 123.786 63.695455 
z
" clip-path="url(#p013ed3078c)" style="fill: #1f77b4; stroke: #000000; stroke-linejoin: miter"/>
   </g>
   <g id="patch_15">
    <path d="M 128.962 143.85 
L 134.138 143.85 
L 134.138 71.973483 
L 128.962 71.973483 
z
" clip-path="url(#p013ed3078c)" style="fill: #1f77b4; stroke: #000000; stroke-linejoin: miter"/>
   </g>
   <g id="patch_16">
    <path d="M 134.138 143.85 
L 139.314 143.85 
L 139.314 69.784112 
L 134.138 69.784112 
z
" clip-path="url(#p013ed3078c)" style="fill: #1f77b4; stroke: #000000; stroke-linejoin: miter"/>
   </g>
   <g id="patch_17">
    <path d="M 139.314 143.85 
L 144.49 143.85 
L 144.49 82.255514 
L 139.314 82.255514 
z
" clip-path="url(#p013ed3078c)" style="fill: #1f77b4; stroke: #000000; stroke-linejoin: miter"/>
   </g>
   <g id="patch_18">
    <path d="M 144.49 143.85 
L 149.666 143.85 
L 149.666 79.052618 
L 144.49 79.052618 
z
" clip-path="url(#p013ed3078c)" style="fill: #1f77b4; stroke: #000000; stroke-linejoin: miter"/>
   </g>
   <g id="patch_19">
    <path d="M 149.666 143.85 
L 154.842 143.85 
L 154.842 79.845702 
L 149.666 79.845702 
z
" clip-path="url(#p013ed3078c)" style="fill: #1f77b4; stroke: #000000; stroke-linejoin: miter"/>
   </g>
   <g id="patch_20">
    <path d="M 154.842 143.85 
L 160.018 143.85 
L 160.018 85.680352 
L 154.842 85.680352 
z
" clip-path="url(#p013ed3078c)" style="fill: #1f77b4; stroke: #000000; stroke-linejoin: miter"/>
   </g>
   <g id="patch_21">
    <path d="M 160.018 143.85 
L 165.194 143.85 
L 165.194 80.351712 
L 160.018 80.351712 
z
" clip-path="url(#p013ed3078c)" style="fill: #1f77b4; stroke: #000000; stroke-linejoin: miter"/>
   </g>
   <g id="patch_22">
    <path d="M 165.194 143.85 
L 170.37 143.85 
L 170.37 87.243974 
L 165.194 87.243974 
z
" clip-path="url(#p013ed3078c)" style="fill: #1f77b4; stroke: #000000; stroke-linejoin: miter"/>
   </g>
   <g id="patch_23">
    <path d="M 170.37 143.85 
L 175.546 143.85 
L 175.546 83.744988 
L 170.37 83.744988 
z
" clip-path="url(#p013ed3078c)" style="fill: #1f77b4; stroke: #000000; stroke-linejoin: miter"/>
   </g>
   <g id="patch_24">
    <path d="M 175.546 143.85 
L 180.722 143.85 
L 180.722 85.162318 
L 175.546 85.162318 
z
" clip-path="url(#p013ed3078c)" style="fill: #1f77b4; stroke: #000000; stroke-linejoin: miter"/>
   </g>
   <g id="patch_25">
    <path d="M 180.722 143.85 
L 185.898 143.85 
L 185.898 92.190852 
L 180.722 92.190852 
z
" clip-path="url(#p013ed3078c)" style="fill: #1f77b4; stroke: #000000; stroke-linejoin: miter"/>
   </g>
   <g id="patch_26">
    <path d="M 185.898 143.85 
L 191.074 143.85 
L 191.074 85.342678 
L 185.898 85.342678 
z
" clip-path="url(#p013ed3078c)" style="fill: #1f77b4; stroke: #000000; stroke-linejoin: miter"/>
   </g>
   <g id="patch_27">
    <path d="M 191.074 143.85 
L 196.25 143.85 
L 196.25 87.58766 
L 191.074 87.58766 
z
" clip-path="url(#p013ed3078c)" style="fill: #1f77b4; stroke: #000000; stroke-linejoin: miter"/>
   </g>
   <g id="patch_28">
    <path d="M 196.25 143.85 
L 201.426 143.85 
L 201.426 81.192391 
L 196.25 81.192391 
z
" clip-path="url(#p013ed3078c)" style="fill: #1f77b4; stroke: #000000; stroke-linejoin: miter"/>
   </g>
   <g id="patch_29">
    <path d="M 201.426 143.85 
L 206.602 143.85 
L 206.602 72.532099 
L 201.426 72.532099 
z
" clip-path="url(#p013ed3078c)" style="fill: #1f77b4; stroke: #000000; stroke-linejoin: miter"/>
   </g>
   <g id="patch_30">
    <path d="M 206.602 143.85 
L 211.778 143.85 
L 211.778 79.097708 
L 206.602 79.097708 
z
" clip-path="url(#p013ed3078c)" style="fill: #1f77b4; stroke: #000000; stroke-linejoin: miter"/>
   </g>
   <g id="patch_31">
    <path d="M 211.778 143.85 
L 216.954 143.85 
L 216.954 69.430406 
L 211.778 69.430406 
z
" clip-path="url(#p013ed3078c)" style="fill: #1f77b4; stroke: #000000; stroke-linejoin: miter"/>
   </g>
   <g id="patch_32">
    <path d="M 216.954 143.85 
L 222.13 143.85 
L 222.13 77.233486 
L 216.954 77.233486 
z
" clip-path="url(#p013ed3078c)" style="fill: #1f77b4; stroke: #000000; stroke-linejoin: miter"/>
   </g>
   <g id="patch_33">
    <path d="M 222.13 143.85 
L 227.306 143.85 
L 227.306 72.373282 
L 222.13 72.373282 
z
" clip-path="url(#p013ed3078c)" style="fill: #1f77b4; stroke: #000000; stroke-linejoin: miter"/>
   </g>
   <g id="patch_34">
    <path d="M 227.306 143.85 
L 232.482 143.85 
L 232.482 77.941901 
L 227.306 77.941901 
z
" clip-path="url(#p013ed3078c)" style="fill: #1f77b4; stroke: #000000; stroke-linejoin: miter"/>
   </g>
   <g id="patch_35">
    <path d="M 232.482 143.85 
L 237.658 143.85 
L 237.658 89.692864 
L 232.482 89.692864 
z
" clip-path="url(#p013ed3078c)" style="fill: #1f77b4; stroke: #000000; stroke-linejoin: miter"/>
   </g>
   <g id="patch_36">
    <path d="M 237.658 143.85 
L 242.834 143.85 
L 242.834 93.43233 
L 237.658 93.43233 
z
" clip-path="url(#p013ed3078c)" style="fill: #1f77b4; stroke: #000000; stroke-linejoin: miter"/>
   </g>
   <g id="patch_37">
    <path d="M 242.834 143.85 
L 248.01 143.85 
L 248.01 106.843609 
L 242.834 106.843609 
z
" clip-path="url(#p013ed3078c)" style="fill: #1f77b4; stroke: #000000; stroke-linejoin: miter"/>
   </g>
   <g id="patch_38">
    <path d="M 248.01 143.85 
L 253.186 143.85 
L 253.186 111.241891 
L 248.01 111.241891 
z
" clip-path="url(#p013ed3078c)" style="fill: #1f77b4; stroke: #000000; stroke-linejoin: miter"/>
   </g>
   <g id="patch_39">
    <path d="M 253.186 143.85 
L 258.362 143.85 
L 258.362 120.879635 
L 253.186 120.879635 
z
" clip-path="url(#p013ed3078c)" style="fill: #1f77b4; stroke: #000000; stroke-linejoin: miter"/>
   </g>
   <g id="patch_40">
    <path d="M 258.362 143.85 
L 263.538 143.85 
L 263.538 129.772892 
L 258.362 129.772892 
z
" clip-path="url(#p013ed3078c)" style="fill: #1f77b4; stroke: #000000; stroke-linejoin: miter"/>
   </g>
   <g id="patch_41">
    <path d="M 263.538 143.85 
L 268.714 143.85 
L 268.714 133.594523 
L 263.538 133.594523 
z
" clip-path="url(#p013ed3078c)" style="fill: #1f77b4; stroke: #000000; stroke-linejoin: miter"/>
   </g>
   <g id="patch_42">
    <path d="M 268.714 143.85 
L 273.89 143.85 
L 273.89 138.293906 
L 268.714 138.293906 
z
" clip-path="url(#p013ed3078c)" style="fill: #1f77b4; stroke: #000000; stroke-linejoin: miter"/>
   </g>
   <g id="patch_43">
    <path d="M 273.89 143.85 
L 279.066 143.85 
L 279.066 140.360533 
L 273.89 140.360533 
z
" clip-path="url(#p013ed3078c)" style="fill: #1f77b4; stroke: #000000; stroke-linejoin: miter"/>
   </g>
   <g id="patch_44">
    <path d="M 279.066 143.85 
L 284.242 143.85 
L 284.242 142.141088 
L 279.066 142.141088 
z
" clip-path="url(#p013ed3078c)" style="fill: #1f77b4; stroke: #000000; stroke-linejoin: miter"/>
   </g>
   <g id="patch_45">
    <path d="M 284.242 143.85 
L 289.418 143.85 
L 289.418 143.091485 
L 284.242 143.091485 
z
" clip-path="url(#p013ed3078c)" style="fill: #1f77b4; stroke: #000000; stroke-linejoin: miter"/>
   </g>
   <g id="patch_46">
    <path d="M 289.418 143.85 
L 294.594 143.85 
L 294.594 143.497296 
L 289.418 143.497296 
z
" clip-path="url(#p013ed3078c)" style="fill: #1f77b4; stroke: #000000; stroke-linejoin: miter"/>
   </g>
   <g id="patch_47">
    <path d="M 294.594 143.85 
L 299.77 143.85 
L 299.77 143.70471 
L 294.594 143.70471 
z
" clip-path="url(#p013ed3078c)" style="fill: #1f77b4; stroke: #000000; stroke-linejoin: miter"/>
   </g>
   <g id="patch_48">
    <path d="M 299.77 143.85 
L 304.946 143.85 
L 304.946 143.804409 
L 299.77 143.804409 
z
" clip-path="url(#p013ed3078c)" style="fill: #1f77b4; stroke: #000000; stroke-linejoin: miter"/>
   </g>
   <g id="patch_49">
    <path d="M 304.946 143.85 
L 310.122 143.85 
L 310.122 143.837475 
L 304.946 143.837475 
z
" clip-path="url(#p013ed3078c)" style="fill: #1f77b4; stroke: #000000; stroke-linejoin: miter"/>
   </g>
   <g id="patch_50">
    <path d="M 310.122 143.85 
L 315.298 143.85 
L 315.298 143.846994 
L 310.122 143.846994 
z
" clip-path="url(#p013ed3078c)" style="fill: #1f77b4; stroke: #000000; stroke-linejoin: miter"/>
   </g>
   <g id="patch_51">
    <path d="M 315.298 143.85 
L 320.474 143.85 
L 320.474 143.848998 
L 315.298 143.848998 
z
" clip-path="url(#p013ed3078c)" style="fill: #1f77b4; stroke: #000000; stroke-linejoin: miter"/>
   </g>
   <g id="patch_52">
    <path d="M 320.474 143.85 
L 325.65 143.85 
L 325.65 143.848998 
L 320.474 143.848998 
z
" clip-path="url(#p013ed3078c)" style="fill: #1f77b4; stroke: #000000; stroke-linejoin: miter"/>
   </g>
   <g id="patch_53">
    <path d="M 66.85 143.85 
L 72.026 143.85 
L 72.026 145.570728 
L 66.85 145.570728 
z
" clip-path="url(#p013ed3078c)" style="fill: #d62728; stroke: #000000; stroke-linejoin: miter"/>
   </g>
   <g id="patch_54">
    <path d="M 72.026 143.85 
L 77.202 143.85 
L 77.202 146.509577 
L 72.026 146.509577 
z
" clip-path="url(#p013ed3078c)" style="fill: #d62728; stroke: #000000; stroke-linejoin: miter"/>
   </g>
   <g id="patch_55">
    <path d="M 77.202 143.85 
L 82.378 143.85 
L 82.378 147.167067 
L 77.202 147.167067 
z
" clip-path="url(#p013ed3078c)" style="fill: #d62728; stroke: #000000; stroke-linejoin: miter"/>
   </g>
   <g id="patch_56">
    <path d="M 82.378 143.85 
L 87.554 143.85 
L 87.554 149.903647 
L 82.378 149.903647 
z
" clip-path="url(#p013ed3078c)" style="fill: #d62728; stroke: #000000; stroke-linejoin: miter"/>
   </g>
   <g id="patch_57">
    <path d="M 87.554 143.85 
L 92.73 143.85 
L 92.73 153.448762 
L 87.554 153.448762 
z
" clip-path="url(#p013ed3078c)" style="fill: #d62728; stroke: #000000; stroke-linejoin: miter"/>
   </g>
   <g id="patch_58">
    <path d="M 92.73 143.85 
L 97.906 143.85 
L 97.906 161.036551 
L 92.73 161.036551 
z
" clip-path="url(#p013ed3078c)" style="fill: #d62728; stroke: #000000; stroke-linejoin: miter"/>
   </g>
   <g id="patch_59">
    <path d="M 97.906 143.85 
L 103.082 143.85 
L 103.082 170.057788 
L 97.906 170.057788 
z
" clip-path="url(#p013ed3078c)" style="fill: #d62728; stroke: #000000; stroke-linejoin: miter"/>
   </g>
   <g id="patch_60">
    <path d="M 103.082 143.85 
L 108.258 143.85 
L 108.258 176.481643 
L 103.082 176.481643 
z
" clip-path="url(#p013ed3078c)" style="fill: #d62728; stroke: #000000; stroke-linejoin: miter"/>
   </g>
   <g id="patch_61">
    <path d="M 108.258 143.85 
L 113.434 143.85 
L 113.434 193.259484 
L 108.258 193.259484 
z
" clip-path="url(#p013ed3078c)" style="fill: #d62728; stroke: #000000; stroke-linejoin: miter"/>
   </g>
   <g id="patch_62">
    <path d="M 113.434 143.85 
L 118.61 143.85 
L 118.61 201.863126 
L 113.434 201.863126 
z
" clip-path="url(#p013ed3078c)" style="fill: #d62728; stroke: #000000; stroke-linejoin: miter"/>
   </g>
   <g id="patch_63">
    <path d="M 118.61 143.85 
L 123.786 143.85 
L 123.786 219.784171 
L 118.61 219.784171 
z
" clip-path="url(#p013ed3078c)" style="fill: #d62728; stroke: #000000; stroke-linejoin: miter"/>
   </g>
   <g id="patch_64">
    <path d="M 123.786 143.85 
L 128.962 143.85 
L 128.962 224.004545 
L 123.786 224.004545 
z
" clip-path="url(#p013ed3078c)" style="fill: #d62728; stroke: #000000; stroke-linejoin: miter"/>
   </g>
   <g id="patch_65">
    <path d="M 128.962 143.85 
L 134.138 143.85 
L 134.138 211.648472 
L 128.962 211.648472 
z
" clip-path="url(#p013ed3078c)" style="fill: #d62728; stroke: #000000; stroke-linejoin: miter"/>
   </g>
   <g id="patch_66">
    <path d="M 134.138 143.85 
L 139.314 143.85 
L 139.314 211.485581 
L 134.138 211.485581 
z
" clip-path="url(#p013ed3078c)" style="fill: #d62728; stroke: #000000; stroke-linejoin: miter"/>
   </g>
   <g id="patch_67">
    <path d="M 139.314 143.85 
L 144.49 143.85 
L 144.49 199.914349 
L 139.314 199.914349 
z
" clip-path="url(#p013ed3078c)" style="fill: #d62728; stroke: #000000; stroke-linejoin: miter"/>
   </g>
   <g id="patch_68">
    <path d="M 144.49 143.85 
L 149.666 143.85 
L 149.666 204.516779 
L 144.49 204.516779 
z
" clip-path="url(#p013ed3078c)" style="fill: #d62728; stroke: #000000; stroke-linejoin: miter"/>
   </g>
   <g id="patch_69">
    <path d="M 149.666 143.85 
L 154.842 143.85 
L 154.842 202.914517 
L 149.666 202.914517 
z
" clip-path="url(#p013ed3078c)" style="fill: #d62728; stroke: #000000; stroke-linejoin: miter"/>
   </g>
   <g id="patch_70">
    <path d="M 154.842 143.85 
L 160.018 143.85 
L 160.018 197.681253 
L 154.842 197.681253 
z
" clip-path="url(#p013ed3078c)" style="fill: #d62728; stroke: #000000; stroke-linejoin: miter"/>
   </g>
   <g id="patch_71">
    <path d="M 160.018 143.85 
L 165.194 143.85 
L 165.194 201.643962 
L 160.018 201.643962 
z
" clip-path="url(#p013ed3078c)" style="fill: #d62728; stroke: #000000; stroke-linejoin: miter"/>
   </g>
   <g id="patch_72">
    <path d="M 165.194 143.85 
L 170.37 143.85 
L 170.37 193.339449 
L 165.194 193.339449 
z
" clip-path="url(#p013ed3078c)" style="fill: #d62728; stroke: #000000; stroke-linejoin: miter"/>
   </g>
   <g id="patch_73">
    <path d="M 170.37 143.85 
L 175.546 143.85 
L 175.546 196.123416 
L 170.37 196.123416 
z
" clip-path="url(#p013ed3078c)" style="fill: #d62728; stroke: #000000; stroke-linejoin: miter"/>
   </g>
   <g id="patch_74">
    <path d="M 175.546 143.85 
L 180.722 143.85 
L 180.722 195.883521 
L 175.546 195.883521 
z
" clip-path="url(#p013ed3078c)" style="fill: #d62728; stroke: #000000; stroke-linejoin: miter"/>
   </g>
   <g id="patch_75">
    <path d="M 180.722 143.85 
L 185.898 143.85 
L 185.898 191.094506 
L 180.722 191.094506 
z
" clip-path="url(#p013ed3078c)" style="fill: #d62728; stroke: #000000; stroke-linejoin: miter"/>
   </g>
   <g id="patch_76">
    <path d="M 185.898 143.85 
L 191.074 143.85 
L 191.074 196.970453 
L 185.898 196.970453 
z
" clip-path="url(#p013ed3078c)" style="fill: #d62728; stroke: #000000; stroke-linejoin: miter"/>
   </g>
   <g id="patch_77">
    <path d="M 191.074 143.85 
L 196.25 143.85 
L 196.25 195.933869 
L 191.074 195.933869 
z
" clip-path="url(#p013ed3078c)" style="fill: #d62728; stroke: #000000; stroke-linejoin: miter"/>
   </g>
   <g id="patch_78">
    <path d="M 196.25 143.85 
L 201.426 143.85 
L 201.426 203.222531 
L 196.25 203.222531 
z
" clip-path="url(#p013ed3078c)" style="fill: #d62728; stroke: #000000; stroke-linejoin: miter"/>
   </g>
   <g id="patch_79">
    <path d="M 201.426 143.85 
L 206.602 143.85 
L 206.602 212.365196 
L 201.426 212.365196 
z
" clip-path="url(#p013ed3078c)" style="fill: #d62728; stroke: #000000; stroke-linejoin: miter"/>
   </g>
   <g id="patch_80">
    <path d="M 206.602 143.85 
L 211.778 143.85 
L 211.778 204.830716 
L 206.602 204.830716 
z
" clip-path="url(#p013ed3078c)" style="fill: #d62728; stroke: #000000; stroke-linejoin: miter"/>
   </g>
   <g id="patch_81">
    <path d="M 211.778 143.85 
L 216.954 143.85 
L 216.954 212.916066 
L 211.778 212.916066 
z
" clip-path="url(#p013ed3078c)" style="fill: #d62728; stroke: #000000; stroke-linejoin: miter"/>
   </g>
   <g id="patch_82">
    <path d="M 216.954 143.85 
L 222.13 143.85 
L 222.13 205.147614 
L 216.954 205.147614 
z
" clip-path="url(#p013ed3078c)" style="fill: #d62728; stroke: #000000; stroke-linejoin: miter"/>
   </g>
   <g id="patch_83">
    <path d="M 222.13 143.85 
L 227.306 143.85 
L 227.306 208.005622 
L 222.13 208.005622 
z
" clip-path="url(#p013ed3078c)" style="fill: #d62728; stroke: #000000; stroke-linejoin: miter"/>
   </g>
   <g id="patch_84">
    <path d="M 227.306 143.85 
L 232.482 143.85 
L 232.482 201.439607 
L 227.306 201.439607 
z
" clip-path="url(#p013ed3078c)" style="fill: #d62728; stroke: #000000; stroke-linejoin: miter"/>
   </g>
   <g id="patch_85">
    <path d="M 232.482 143.85 
L 237.658 143.85 
L 237.658 191.236666 
L 232.482 191.236666 
z
" clip-path="url(#p013ed3078c)" style="fill: #d62728; stroke: #000000; stroke-linejoin: miter"/>
   </g>
   <g id="patch_86">
    <path d="M 237.658 143.85 
L 242.834 143.85 
L 242.834 186.829706 
L 237.658 186.829706 
z
" clip-path="url(#p013ed3078c)" style="fill: #d62728; stroke: #000000; stroke-linejoin: miter"/>
   </g>
   <g id="patch_87">
    <path d="M 242.834 143.85 
L 248.01 143.85 
L 248.01 175.151855 
L 242.834 175.151855 
z
" clip-path="url(#p013ed3078c)" style="fill: #d62728; stroke: #000000; stroke-linejoin: miter"/>
   </g>
   <g id="patch_88">
    <path d="M 248.01 143.85 
L 253.186 143.85 
L 253.186 169.583921 
L 248.01 169.583921 
z
" clip-path="url(#p013ed3078c)" style="fill: #d62728; stroke: #000000; stroke-linejoin: miter"/>
   </g>
   <g id="patch_89">
    <path d="M 253.186 143.85 
L 258.362 143.85 
L 258.362 161.824355 
L 253.186 161.824355 
z
" clip-path="url(#p013ed3078c)" style="fill: #d62728; stroke: #000000; stroke-linejoin: miter"/>
   </g>
   <g id="patch_90">
    <path d="M 258.362 143.85 
L 263.538 143.85 
L 263.538 154.766703 
L 258.362 154.766703 
z
" clip-path="url(#p013ed3078c)" style="fill: #d62728; stroke: #000000; stroke-linejoin: miter"/>
   </g>
   <g id="patch_91">
    <path d="M 263.538 143.85 
L 268.714 143.85 
L 268.714 151.191972 
L 263.538 151.191972 
z
" clip-path="url(#p013ed3078c)" style="fill: #d62728; stroke: #000000; stroke-linejoin: miter"/>
   </g>
   <g id="patch_92">
    <path d="M 268.714 143.85 
L 273.89 143.85 
L 273.89 148.020027 
L 268.714 148.020027 
z
" clip-path="url(#p013ed3078c)" style="fill: #d62728; stroke: #000000; stroke-linejoin: miter"/>
   </g>
   <g id="patch_93">
    <path d="M 273.89 143.85 
L 279.066 143.85 
L 279.066 146.207487 
L 273.89 146.207487 
z
" clip-path="url(#p013ed3078c)" style="fill: #d62728; stroke: #000000; stroke-linejoin: miter"/>
   </g>
   <g id="patch_94">
    <path d="M 279.066 143.85 
L 284.242 143.85 
L 284.242 145.108708 
L 279.066 145.108708 
z
" clip-path="url(#p013ed3078c)" style="fill: #d62728; stroke: #000000; stroke-linejoin: miter"/>
   </g>
   <g id="patch_95">
    <path d="M 284.242 143.85 
L 289.418 143.85 
L 289.418 144.36533 
L 284.242 144.36533 
z
" clip-path="url(#p013ed3078c)" style="fill: #d62728; stroke: #000000; stroke-linejoin: miter"/>
   </g>
   <g id="patch_96">
    <path d="M 289.418 143.85 
L 294.594 143.85 
L 294.594 144.066202 
L 289.418 144.066202 
z
" clip-path="url(#p013ed3078c)" style="fill: #d62728; stroke: #000000; stroke-linejoin: miter"/>
   </g>
   <g id="patch_97">
    <path d="M 294.594 143.85 
L 299.77 143.85 
L 299.77 143.989198 
L 294.594 143.989198 
z
" clip-path="url(#p013ed3078c)" style="fill: #d62728; stroke: #000000; stroke-linejoin: miter"/>
   </g>
   <g id="patch_98">
    <path d="M 299.77 143.85 
L 304.946 143.85 
L 304.946 143.873693 
L 299.77 143.873693 
z
" clip-path="url(#p013ed3078c)" style="fill: #d62728; stroke: #000000; stroke-linejoin: miter"/>
   </g>
   <g id="patch_99">
    <path d="M 304.946 143.85 
L 310.122 143.85 
L 310.122 143.855923 
L 304.946 143.855923 
z
" clip-path="url(#p013ed3078c)" style="fill: #d62728; stroke: #000000; stroke-linejoin: miter"/>
   </g>
   <g id="patch_100">
    <path d="M 310.122 143.85 
L 315.298 143.85 
L 315.298 143.85 
L 310.122 143.85 
z
" clip-path="url(#p013ed3078c)" style="fill: #d62728; stroke: #000000; stroke-linejoin: miter"/>
   </g>
   <g id="patch_101">
    <path d="M 315.298 143.85 
L 320.474 143.85 
L 320.474 143.85 
L 315.298 143.85 
z
" clip-path="url(#p013ed3078c)" style="fill: #d62728; stroke: #000000; stroke-linejoin: miter"/>
   </g>
   <g id="patch_102">
    <path d="M 320.474 143.85 
L 325.65 143.85 
L 325.65 143.852962 
L 320.474 143.852962 
z
" clip-path="url(#p013ed3078c)" style="fill: #d62728; stroke: #000000; stroke-linejoin: miter"/>
   </g>
   <g id="line2d_12">
    <path d="M 53.91 143.85 
L 338.59 143.85 
" clip-path="url(#p013ed3078c)" style="fill: none; stroke: #808080; stroke-width: 0.8; stroke-linecap: round"/>
   </g>
   <g id="patch_103">
    <path d="M 53.91 232.02 
L 53.91 55.68 
" style="fill: none; stroke: #262626; stroke-width: 1.25; stroke-linejoin: miter; stroke-linecap: square"/>
   </g>
   <g id="patch_104">
    <path d="M 338.59 232.02 
L 338.59 55.68 
" style="fill: none; stroke: #262626; stroke-width: 1.25; stroke-linejoin: miter; stroke-linecap: square"/>
   </g>
   <g id="patch_105">
    <path d="M 53.91 232.02 
L 338.59 232.02 
" style="fill: none; stroke: #262626; stroke-width: 1.25; stroke-linejoin: miter; stroke-linecap: square"/>
   </g>
   <g id="patch_106">
    <path d="M 53.91 55.68 
L 338.59 55.68 
" style="fill: none; stroke: #262626; stroke-width: 1.25; stroke-linejoin: miter; stroke-linecap: square"/>
   </g>
   <g id="text_14">
    <text style="fill: #262626; font: 10px 'Arial', 'DejaVu Sans', 'Liberation Sans', 'Bitstream Vera Sans', sans-serif; text-anchor: middle" x="196.25" y="49.68" transform="rotate(-0 196.25 49.68)">p &lt; 0.001 (K-S)</text>
   </g>
   <g id="legend_1">
    <g id="patch_107">
     <path d="M 224.710094 73.938281 
L 246.710094 73.938281 
L 246.710094 66.238281 
L 224.710094 66.238281 
z
" style="fill: #1f77b4; stroke: #000000; stroke-linejoin: miter"/>
    </g>
    <g id="text_15">
     <text style="fill: #262626; font: 11px 'Arial', 'DejaVu Sans', 'Liberation Sans', 'Bitstream Vera Sans', sans-serif; text-anchor: start" x="255.510094" y="73.938281" transform="rotate(-0 255.510094 73.938281)">All TEs</text>
    </g>
    <g id="patch_108">
     <path d="M 224.710094 90.084219 
L 246.710094 90.084219 
L 246.710094 82.384219 
L 224.710094 82.384219 
z
" style="fill: #d62728; stroke: #000000; stroke-linejoin: miter"/>
    </g>
    <g id="text_16">
     <text style="fill: #262626; font: 11px 'Arial', 'DejaVu Sans', 'Liberation Sans', 'Bitstream Vera Sans', sans-serif; text-anchor: start" x="255.510094" y="90.084219" transform="rotate(-0 255.510094 90.084219)">TEs Near Genes</text>
    </g>
   </g>
  </g>
  <g id="text_17">
   <text style="fill: #262626; font: 10px 'Arial', 'DejaVu Sans', 'Liberation Sans', 'Bitstream Vera Sans', sans-serif; text-anchor: middle" x="180" y="1.838437" transform="rotate(-0 180 1.838437)">Divergence Distribution: All TEs vs. Near Genes (Normalized Height)</text>
  </g>
 </g>
 <defs>
  <clipPath id="p013ed3078c">
   <rect x="53.91" y="55.68" width="284.68" height="176.34"/>
  </clipPath>
 </defs>
</svg>
