<?xml version="1.0" encoding="utf-8" standalone="no"?>
<!DOCTYPE svg PUBLIC "-//W3C//DTD SVG 1.1//EN"
  "http://www.w3.org/Graphics/SVG/1.1/DTD/svg11.dtd">
<svg xmlns:xlink="http://www.w3.org/1999/xlink" width="504pt" height="288pt" viewBox="0 0 504 288" xmlns="http://www.w3.org/2000/svg" version="1.1">
 <metadata>
  <rdf:RDF xmlns:dc="http://purl.org/dc/elements/1.1/" xmlns:cc="http://creativecommons.org/ns#" xmlns:rdf="http://www.w3.org/1999/02/22-rdf-syntax-ns#">
   <cc:Work>
    <dc:type rdf:resource="http://purl.org/dc/dcmitype/StillImage"/>
    <dc:date>2025-12-06T17:51:32.075261</dc:date>
    <dc:format>image/svg+xml</dc:format>
    <dc:creator>
     <cc:Agent>
      <dc:title>Matplotlib v3.8.4, https://matplotlib.org/</dc:title>
     </cc:Agent>
    </dc:creator>
   </cc:Work>
  </rdf:RDF>
 </metadata>
 <defs>
  <style type="text/css">*{stroke-linejoin: round; stroke-linecap: butt}</style>
 </defs>
 <g id="figure_1">
  <g id="patch_1">
   <path d="M 0 288 
L 504 288 
L 504 0 
L 0 0 
L 0 288 
z
" style="fill: none"/>
  </g>
  <g id="axes_1">
   <g id="patch_2">
    <path d="M 50.87 246.04 
L 266.44 246.04 
L 266.44 24.72 
L 50.87 24.72 
L 50.87 246.04 
z
" style="fill: none"/>
   </g>
   <g id="PathCollection_1">
    <defs>
     <path id="C0_0_cdd589c28e" d="M 0 3 
C 0.795609 3 1.55874 2.683901 2.12132 2.12132 
C 2.683901 1.55874 3 0.795609 3 -0 
C 3 -0.795609 2.683901 -1.55874 2.12132 -2.12132 
C 1.55874 -2.683901 0.795609 -3 0 -3 
C -0.795609 -3 -1.55874 -2.683901 -2.12132 -2.12132 
C -2.683901 -1.55874 -3 -0.795609 -3 0 
C -3 0.795609 -2.683901 1.55874 -2.12132 2.12132 
C -1.55874 2.683901 -0.795609 3 0 3 
z
"/>
    </defs>
    <g clip-path="url(#pb2538cc06d)">
     <use xlink:href="#C0_0_cdd589c28e" x="218.100174" y="77.041433" style="fill: #195f90; stroke: #ffffff; stroke-width: 0.48"/>
    </g>
    <g clip-path="url(#pb2538cc06d)">
     <use xlink:href="#C0_0_cdd589c28e" x="179.611572" y="133.450107" style="fill: #195f90; stroke: #ffffff; stroke-width: 0.48"/>
    </g>
    <g clip-path="url(#pb2538cc06d)">
     <use xlink:href="#C0_0_cdd589c28e" x="182.790015" y="34.78" style="fill: #195f90; stroke: #ffffff; stroke-width: 0.48"/>
    </g>
    <g clip-path="url(#pb2538cc06d)">
     <use xlink:href="#C0_0_cdd589c28e" x="217.562544" y="88.229843" style="fill: #195f90; stroke: #ffffff; stroke-width: 0.48"/>
    </g>
    <g clip-path="url(#pb2538cc06d)">
     <use xlink:href="#C0_0_cdd589c28e" x="216.79094" y="68.769434" style="fill: #195f90; stroke: #ffffff; stroke-width: 0.48"/>
    </g>
    <g clip-path="url(#pb2538cc06d)">
     <use xlink:href="#C0_0_cdd589c28e" x="220.290684" y="93.108201" style="fill: #195f90; stroke: #ffffff; stroke-width: 0.48"/>
    </g>
    <g clip-path="url(#pb2538cc06d)">
     <use xlink:href="#C0_0_cdd589c28e" x="204.226297" y="119.903824" style="fill: #195f90; stroke: #ffffff; stroke-width: 0.48"/>
    </g>
    <g clip-path="url(#pb2538cc06d)">
     <use xlink:href="#C0_0_cdd589c28e" x="205.624428" y="81.596818" style="fill: #195f90; stroke: #ffffff; stroke-width: 0.48"/>
    </g>
    <g clip-path="url(#pb2538cc06d)">
     <use xlink:href="#C0_0_cdd589c28e" x="210.438" y="82.630335" style="fill: #195f90; stroke: #ffffff; stroke-width: 0.48"/>
    </g>
    <g clip-path="url(#pb2538cc06d)">
     <use xlink:href="#C0_0_cdd589c28e" x="165.645345" y="124.368372" style="fill: #70453c; stroke: #ffffff; stroke-width: 0.48"/>
    </g>
    <g clip-path="url(#pb2538cc06d)">
     <use xlink:href="#C0_0_cdd589c28e" x="192.224998" y="106.056605" style="fill: #70453c; stroke: #ffffff; stroke-width: 0.48"/>
    </g>
    <g clip-path="url(#pb2538cc06d)">
     <use xlink:href="#C0_0_cdd589c28e" x="96.717664" y="190.419705" style="fill: #195f90; stroke: #ffffff; stroke-width: 0.48"/>
    </g>
    <g clip-path="url(#pb2538cc06d)">
     <use xlink:href="#C0_0_cdd589c28e" x="230.870711" y="75.895264" style="fill: #cc660b; stroke: #ffffff; stroke-width: 0.48"/>
    </g>
    <g clip-path="url(#pb2538cc06d)">
     <use xlink:href="#C0_0_cdd589c28e" x="147.555236" y="138.005909" style="fill: #195f90; stroke: #ffffff; stroke-width: 0.48"/>
    </g>
    <g clip-path="url(#pb2538cc06d)">
     <use xlink:href="#C0_0_cdd589c28e" x="229.476535" y="68.980033" style="fill: #70453c; stroke: #ffffff; stroke-width: 0.48"/>
    </g>
    <g clip-path="url(#pb2538cc06d)">
     <use xlink:href="#C0_0_cdd589c28e" x="182.980063" y="109.722901" style="fill: #195f90; stroke: #ffffff; stroke-width: 0.48"/>
    </g>
    <g clip-path="url(#pb2538cc06d)">
     <use xlink:href="#C0_0_cdd589c28e" x="213.058204" y="85.493334" style="fill: #195f90; stroke: #ffffff; stroke-width: 0.48"/>
    </g>
    <g clip-path="url(#pb2538cc06d)">
     <use xlink:href="#C0_0_cdd589c28e" x="222.952476" y="77.465332" style="fill: #238023; stroke: #ffffff; stroke-width: 0.48"/>
    </g>
    <g clip-path="url(#pb2538cc06d)">
     <use xlink:href="#C0_0_cdd589c28e" x="120.879388" y="168.297785" style="fill: #195f90; stroke: #ffffff; stroke-width: 0.48"/>
    </g>
    <g clip-path="url(#pb2538cc06d)">
     <use xlink:href="#C0_0_cdd589c28e" x="169.080209" y="123.08218" style="fill: #195f90; stroke: #ffffff; stroke-width: 0.48"/>
    </g>
    <g clip-path="url(#pb2538cc06d)">
     <use xlink:href="#C0_0_cdd589c28e" x="196.696878" y="99.086209" style="fill: #195f90; stroke: #ffffff; stroke-width: 0.48"/>
    </g>
    <g clip-path="url(#pb2538cc06d)">
     <use xlink:href="#C0_0_cdd589c28e" x="183.788048" y="116.934602" style="fill: #195f90; stroke: #ffffff; stroke-width: 0.48"/>
    </g>
    <g clip-path="url(#pb2538cc06d)">
     <use xlink:href="#C0_0_cdd589c28e" x="228.287308" y="58.944541" style="fill: #ab1f20; stroke: #ffffff; stroke-width: 0.48"/>
    </g>
    <g clip-path="url(#pb2538cc06d)">
     <use xlink:href="#C0_0_cdd589c28e" x="256.641364" y="40.530515" style="fill: #ab1f20; stroke: #ffffff; stroke-width: 0.48"/>
    </g>
    <g clip-path="url(#pb2538cc06d)">
     <use xlink:href="#C0_0_cdd589c28e" x="127.659856" y="169.997572" style="fill: #70453c; stroke: #ffffff; stroke-width: 0.48"/>
    </g>
    <g clip-path="url(#pb2538cc06d)">
     <use xlink:href="#C0_0_cdd589c28e" x="209.021436" y="90.496496" style="fill: #195f90; stroke: #ffffff; stroke-width: 0.48"/>
    </g>
    <g clip-path="url(#pb2538cc06d)">
     <use xlink:href="#C0_0_cdd589c28e" x="188.770779" y="108.565701" style="fill: #195f90; stroke: #ffffff; stroke-width: 0.48"/>
    </g>
    <g clip-path="url(#pb2538cc06d)">
     <use xlink:href="#C0_0_cdd589c28e" x="216.994195" y="81.536829" style="fill: #cc660b; stroke: #ffffff; stroke-width: 0.48"/>
    </g>
    <g clip-path="url(#pb2538cc06d)">
     <use xlink:href="#C0_0_cdd589c28e" x="239.06426" y="58.387936" style="fill: #cc660b; stroke: #ffffff; stroke-width: 0.48"/>
    </g>
    <g clip-path="url(#pb2538cc06d)">
     <use xlink:href="#C0_0_cdd589c28e" x="241.826654" y="76.736761" style="fill: #ab1f20; stroke: #ffffff; stroke-width: 0.48"/>
    </g>
    <g clip-path="url(#pb2538cc06d)">
     <use xlink:href="#C0_0_cdd589c28e" x="149.779893" y="133.59784" style="fill: #cc660b; stroke: #ffffff; stroke-width: 0.48"/>
    </g>
    <g clip-path="url(#pb2538cc06d)">
     <use xlink:href="#C0_0_cdd589c28e" x="208.56958" y="89.441416" style="fill: #195f90; stroke: #ffffff; stroke-width: 0.48"/>
    </g>
    <g clip-path="url(#pb2538cc06d)">
     <use xlink:href="#C0_0_cdd589c28e" x="232.654176" y="69.420957" style="fill: #cc660b; stroke: #ffffff; stroke-width: 0.48"/>
    </g>
    <g clip-path="url(#pb2538cc06d)">
     <use xlink:href="#C0_0_cdd589c28e" x="224.776572" y="81.18996" style="fill: #ab1f20; stroke: #ffffff; stroke-width: 0.48"/>
    </g>
    <g clip-path="url(#pb2538cc06d)">
     <use xlink:href="#C0_0_cdd589c28e" x="191.699239" y="101.26001" style="fill: #cc660b; stroke: #ffffff; stroke-width: 0.48"/>
    </g>
    <g clip-path="url(#pb2538cc06d)">
     <use xlink:href="#C0_0_cdd589c28e" x="60.668636" y="235.98" style="fill: #70453c; stroke: #ffffff; stroke-width: 0.48"/>
    </g>
    <g clip-path="url(#pb2538cc06d)">
     <use xlink:href="#C0_0_cdd589c28e" x="251.815698" y="51.728303" style="fill: #cc660b; stroke: #ffffff; stroke-width: 0.48"/>
    </g>
    <g clip-path="url(#pb2538cc06d)">
     <use xlink:href="#C0_0_cdd589c28e" x="232.460221" y="67.462656" style="fill: #ab1f20; stroke: #ffffff; stroke-width: 0.48"/>
    </g>
    <g clip-path="url(#pb2538cc06d)">
     <use xlink:href="#C0_0_cdd589c28e" x="212.136206" y="82.771302" style="fill: #195f90; stroke: #ffffff; stroke-width: 0.48"/>
    </g>
    <g clip-path="url(#pb2538cc06d)">
     <use xlink:href="#C0_0_cdd589c28e" x="244.386851" y="54.803253" style="fill: #cc660b; stroke: #ffffff; stroke-width: 0.48"/>
    </g>
    <g clip-path="url(#pb2538cc06d)">
     <use xlink:href="#C0_0_cdd589c28e" x="97.942464" y="195.912906" style="fill: #ab1f20; stroke: #ffffff; stroke-width: 0.48"/>
    </g>
    <g clip-path="url(#pb2538cc06d)">
     <use xlink:href="#C0_0_cdd589c28e" x="130.501486" y="145.367007" style="fill: #765297; stroke: #ffffff; stroke-width: 0.48"/>
    </g>
    <g clip-path="url(#pb2538cc06d)">
     <use xlink:href="#C0_0_cdd589c28e" x="181.642474" y="130.110456" style="fill: #195f90; stroke: #ffffff; stroke-width: 0.48"/>
    </g>
    <g clip-path="url(#pb2538cc06d)">
     <use xlink:href="#C0_0_cdd589c28e" x="241.299836" y="58.238679" style="fill: #cc660b; stroke: #ffffff; stroke-width: 0.48"/>
    </g>
   </g>
   <g id="matplotlib.axis_1">
    <g id="xtick_1">
     <g id="line2d_1">
      <defs>
       <path id="ma108867c5f" d="M 0 0 
L 0 3.5 
" style="stroke: #000000; stroke-width: 0.8"/>
      </defs>
      <g>
       <use xlink:href="#ma108867c5f" x="73.231431" y="246.04" style="stroke: #000000; stroke-width: 0.8"/>
      </g>
     </g>
     <g id="text_1">
      <text style="font: 10px 'DejaVu Sans', 'Bitstream Vera Sans', 'Computer Modern Sans Serif', 'Lucida Grande', 'Verdana', 'Geneva', 'Lucid', 'Arial', 'Helvetica', 'Avant Garde', sans-serif; text-anchor: middle" x="73.231431" y="260.638438" transform="rotate(-0 73.231431 260.638438)">100</text>
     </g>
    </g>
    <g id="xtick_2">
     <g id="line2d_2">
      <g>
       <use xlink:href="#ma108867c5f" x="116.630518" y="246.04" style="stroke: #000000; stroke-width: 0.8"/>
      </g>
     </g>
     <g id="text_2">
      <text style="font: 10px 'DejaVu Sans', 'Bitstream Vera Sans', 'Computer Modern Sans Serif', 'Lucida Grande', 'Verdana', 'Geneva', 'Lucid', 'Arial', 'Helvetica', 'Avant Garde', sans-serif; text-anchor: middle" x="116.630518" y="260.638438" transform="rotate(-0 116.630518 260.638438)">150</text>
     </g>
    </g>
    <g id="xtick_3">
     <g id="line2d_3">
      <g>
       <use xlink:href="#ma108867c5f" x="160.029605" y="246.04" style="stroke: #000000; stroke-width: 0.8"/>
      </g>
     </g>
     <g id="text_3">
      <text style="font: 10px 'DejaVu Sans', 'Bitstream Vera Sans', 'Computer Modern Sans Serif', 'Lucida Grande', 'Verdana', 'Geneva', 'Lucid', 'Arial', 'Helvetica', 'Avant Garde', sans-serif; text-anchor: middle" x="160.029605" y="260.638438" transform="rotate(-0 160.029605 260.638438)">200</text>
     </g>
    </g>
    <g id="xtick_4">
     <g id="line2d_4">
      <g>
       <use xlink:href="#ma108867c5f" x="203.428692" y="246.04" style="stroke: #000000; stroke-width: 0.8"/>
      </g>
     </g>
     <g id="text_4">
      <text style="font: 10px 'DejaVu Sans', 'Bitstream Vera Sans', 'Computer Modern Sans Serif', 'Lucida Grande', 'Verdana', 'Geneva', 'Lucid', 'Arial', 'Helvetica', 'Avant Garde', sans-serif; text-anchor: middle" x="203.428692" y="260.638438" transform="rotate(-0 203.428692 260.638438)">250</text>
     </g>
    </g>
    <g id="xtick_5">
     <g id="line2d_5">
      <g>
       <use xlink:href="#ma108867c5f" x="246.827779" y="246.04" style="stroke: #000000; stroke-width: 0.8"/>
      </g>
     </g>
     <g id="text_5">
      <text style="font: 10px 'DejaVu Sans', 'Bitstream Vera Sans', 'Computer Modern Sans Serif', 'Lucida Grande', 'Verdana', 'Geneva', 'Lucid', 'Arial', 'Helvetica', 'Avant Garde', sans-serif; text-anchor: middle" x="246.827779" y="260.638438" transform="rotate(-0 246.827779 260.638438)">300</text>
     </g>
    </g>
    <g id="text_6">
     <text style="font: 10px 'DejaVu Sans', 'Bitstream Vera Sans', 'Computer Modern Sans Serif', 'Lucida Grande', 'Verdana', 'Geneva', 'Lucid', 'Arial', 'Helvetica', 'Avant Garde', sans-serif; text-anchor: middle" x="158.655" y="274.316562" transform="rotate(-0 158.655 274.316562)">Average divergence in a family</text>
    </g>
   </g>
   <g id="matplotlib.axis_2">
    <g id="ytick_1">
     <g id="line2d_6">
      <defs>
       <path id="m9f6986a0df" d="M 0 0 
L -3.5 0 
" style="stroke: #000000; stroke-width: 0.8"/>
      </defs>
      <g>
       <use xlink:href="#m9f6986a0df" x="50.87" y="216.339784" style="stroke: #000000; stroke-width: 0.8"/>
      </g>
     </g>
     <g id="text_7">
      <text style="font: 10px 'DejaVu Sans', 'Bitstream Vera Sans', 'Computer Modern Sans Serif', 'Lucida Grande', 'Verdana', 'Geneva', 'Lucid', 'Arial', 'Helvetica', 'Avant Garde', sans-serif; text-anchor: end" x="43.87" y="220.139002" transform="rotate(-0 43.87 220.139002)">100</text>
     </g>
    </g>
    <g id="ytick_2">
     <g id="line2d_7">
      <g>
       <use xlink:href="#m9f6986a0df" x="50.87" y="173.919273" style="stroke: #000000; stroke-width: 0.8"/>
      </g>
     </g>
     <g id="text_8">
      <text style="font: 10px 'DejaVu Sans', 'Bitstream Vera Sans', 'Computer Modern Sans Serif', 'Lucida Grande', 'Verdana', 'Geneva', 'Lucid', 'Arial', 'Helvetica', 'Avant Garde', sans-serif; text-anchor: end" x="43.87" y="177.718492" transform="rotate(-0 43.87 177.718492)">150</text>
     </g>
    </g>
    <g id="ytick_3">
     <g id="line2d_8">
      <g>
       <use xlink:href="#m9f6986a0df" x="50.87" y="131.498763" style="stroke: #000000; stroke-width: 0.8"/>
      </g>
     </g>
     <g id="text_9">
      <text style="font: 10px 'DejaVu Sans', 'Bitstream Vera Sans', 'Computer Modern Sans Serif', 'Lucida Grande', 'Verdana', 'Geneva', 'Lucid', 'Arial', 'Helvetica', 'Avant Garde', sans-serif; text-anchor: end" x="43.87" y="135.297982" transform="rotate(-0 43.87 135.297982)">200</text>
     </g>
    </g>
    <g id="ytick_4">
     <g id="line2d_9">
      <g>
       <use xlink:href="#m9f6986a0df" x="50.87" y="89.078253" style="stroke: #000000; stroke-width: 0.8"/>
      </g>
     </g>
     <g id="text_10">
      <text style="font: 10px 'DejaVu Sans', 'Bitstream Vera Sans', 'Computer Modern Sans Serif', 'Lucida Grande', 'Verdana', 'Geneva', 'Lucid', 'Arial', 'Helvetica', 'Avant Garde', sans-serif; text-anchor: end" x="43.87" y="92.877472" transform="rotate(-0 43.87 92.877472)">250</text>
     </g>
    </g>
    <g id="ytick_5">
     <g id="line2d_10">
      <g>
       <use xlink:href="#m9f6986a0df" x="50.87" y="46.657743" style="stroke: #000000; stroke-width: 0.8"/>
      </g>
     </g>
     <g id="text_11">
      <text style="font: 10px 'DejaVu Sans', 'Bitstream Vera Sans', 'Computer Modern Sans Serif', 'Lucida Grande', 'Verdana', 'Geneva', 'Lucid', 'Arial', 'Helvetica', 'Avant Garde', sans-serif; text-anchor: end" x="43.87" y="50.456962" transform="rotate(-0 43.87 50.456962)">300</text>
     </g>
    </g>
    <g id="text_12">
     <text style="font: 10px 'DejaVu Sans', 'Bitstream Vera Sans', 'Computer Modern Sans Serif', 'Lucida Grande', 'Verdana', 'Geneva', 'Lucid', 'Arial', 'Helvetica', 'Avant Garde', sans-serif; text-anchor: middle" x="18.702813" y="135.38" transform="rotate(-90 18.702813 135.38)">Average divergence in TSS-mapped TEs</text>
    </g>
   </g>
   <g id="line2d_11"/>
   <g id="line2d_12"/>
   <g id="line2d_13"/>
   <g id="line2d_14"/>
   <g id="line2d_15"/>
   <g id="line2d_16"/>
   <g id="line2d_17">
    <path d="M 60.668636 222.620568 
L 62.648159 220.82773 
L 64.627681 219.034893 
L 66.607204 217.242055 
L 68.586726 215.449217 
L 70.566249 213.656379 
L 72.545771 211.863542 
L 74.525294 210.070704 
L 76.504816 208.277866 
L 78.484339 206.485029 
L 80.463861 204.692191 
L 82.443384 202.899353 
L 84.422906 201.106516 
L 86.402429 199.313678 
L 88.381951 197.52084 
L 90.361474 195.728002 
L 92.340996 193.935165 
L 94.320519 192.142327 
L 96.300041 190.349489 
L 98.279564 188.556652 
L 100.259086 186.763814 
L 102.238609 184.970976 
L 104.218131 183.178139 
L 106.197654 181.385301 
L 108.177176 179.592463 
L 110.156699 177.799626 
L 112.136221 176.006788 
L 114.115744 174.21395 
L 116.095266 172.421112 
L 118.074789 170.628275 
L 120.054311 168.835437 
L 122.033834 167.042599 
L 124.013356 165.249762 
L 125.992879 163.456924 
L 127.972401 161.664086 
L 129.951924 159.871249 
L 131.931446 158.078411 
L 133.910969 156.285573 
L 135.890491 154.492736 
L 137.870014 152.699898 
L 139.849536 150.90706 
L 141.829059 149.114222 
L 143.808581 147.321385 
L 145.788104 145.528547 
L 147.767626 143.735709 
L 149.747149 141.942872 
L 151.726671 140.150034 
L 153.706194 138.357196 
L 155.685716 136.564359 
L 157.665239 134.771521 
L 159.644761 132.978683 
L 161.624284 131.185846 
L 163.603806 129.393008 
L 165.583329 127.60017 
L 167.562851 125.807332 
L 169.542374 124.014495 
L 171.521896 122.221657 
L 173.501419 120.428819 
L 175.480941 118.635982 
L 177.460464 116.843144 
L 179.439986 115.050306 
L 181.419509 113.257469 
L 183.399031 111.464631 
L 185.378554 109.671793 
L 187.358076 107.878956 
L 189.337599 106.086118 
L 191.317121 104.29328 
L 193.296644 102.500442 
L 195.276166 100.707605 
L 197.255689 98.914767 
L 199.235211 97.121929 
L 201.214734 95.329092 
L 203.194256 93.536254 
L 205.173779 91.743416 
L 207.153301 89.950579 
L 209.132824 88.157741 
L 211.112346 86.364903 
L 213.091869 84.572065 
L 215.071391 82.779228 
L 217.050914 80.98639 
L 219.030436 79.193552 
L 221.009959 77.400715 
L 222.989481 75.607877 
L 224.969004 73.815039 
L 226.948526 72.022202 
L 228.928049 70.229364 
L 230.907571 68.436526 
L 232.887094 66.643689 
L 234.866616 64.850851 
L 236.846139 63.058013 
L 238.825661 61.265175 
L 240.805184 59.472338 
L 242.784706 57.6795 
L 244.764229 55.886662 
L 246.743751 54.093825 
L 248.723274 52.300987 
L 250.702796 50.508149 
L 252.682319 48.715312 
L 254.661841 46.922474 
L 256.641364 45.129636 
" clip-path="url(#pb2538cc06d)" style="fill: none; stroke: #000000; stroke-width: 1.5; stroke-linecap: square"/>
   </g>
   <g id="patch_3">
    <path d="M 50.87 246.04 
L 50.87 24.72 
" style="fill: none; stroke: #000000; stroke-width: 0.8; stroke-linejoin: miter; stroke-linecap: square"/>
   </g>
   <g id="patch_4">
    <path d="M 266.44 246.04 
L 266.44 24.72 
" style="fill: none; stroke: #000000; stroke-width: 0.8; stroke-linejoin: miter; stroke-linecap: square"/>
   </g>
   <g id="patch_5">
    <path d="M 50.87 246.04 
L 266.44 246.04 
" style="fill: none; stroke: #000000; stroke-width: 0.8; stroke-linejoin: miter; stroke-linecap: square"/>
   </g>
   <g id="patch_6">
    <path d="M 50.87 24.72 
L 266.44 24.72 
" style="fill: none; stroke: #000000; stroke-width: 0.8; stroke-linejoin: miter; stroke-linecap: square"/>
   </g>
   <g id="text_13">
    <g id="patch_7">
     <path d="M 61.6485 59.074344 
L 137.891156 59.074344 
Q 142.391156 59.074344 142.391156 54.574344 
L 142.391156 35.786 
Q 142.391156 31.286 137.891156 31.286 
L 61.6485 31.286 
Q 57.1485 31.286 57.1485 35.786 
L 57.1485 54.574344 
Q 57.1485 59.074344 61.6485 59.074344 
z
" style="fill: #ffffff; opacity: 0.8; stroke: #000000; stroke-linejoin: miter"/>
    </g>
    <text style="font: 9px 'DejaVu Sans', 'Bitstream Vera Sans', 'Computer Modern Sans Serif', 'Lucida Grande', 'Verdana', 'Geneva', 'Lucid', 'Arial', 'Helvetica', 'Avant Garde', sans-serif" transform="translate(61.6485 42.624594)">Pearson R: 0.940</text>
    <text style="font: 9px 'DejaVu Sans', 'Bitstream Vera Sans', 'Computer Modern Sans Serif', 'Lucida Grande', 'Verdana', 'Geneva', 'Lucid', 'Arial', 'Helvetica', 'Avant Garde', sans-serif" transform="translate(61.6485 52.702625)">p &lt; 0.001</text>
   </g>
   <g id="text_14">
    <text style="font: 10px 'DejaVu Sans', 'Bitstream Vera Sans', 'Computer Modern Sans Serif', 'Lucida Grande', 'Verdana', 'Geneva', 'Lucid', 'Arial', 'Helvetica', 'Avant Garde', sans-serif; text-anchor: middle" x="158.655" y="18.72" transform="rotate(-0 158.655 18.72)">Average divergence of TEs in TSS vs average divergence by family</text>
   </g>
   <g id="legend_1">
    <g id="patch_8">
     <path d="M 273.44 188.253438 
L 415.630625 188.253438 
Q 417.630625 188.253438 417.630625 186.253438 
L 417.630625 84.506563 
Q 417.630625 82.506563 415.630625 82.506563 
L 273.44 82.506563 
Q 271.44 82.506563 271.44 84.506563 
L 271.44 186.253438 
Q 271.44 188.253438 273.44 188.253438 
z
" style="fill: #ffffff; opacity: 0.8; stroke: #cccccc; stroke-linejoin: miter"/>
    </g>
    <g id="line2d_18">
     <defs>
      <path id="m3d0ce7dc90" d="M 0 3 
C 0.795609 3 1.55874 2.683901 2.12132 2.12132 
C 2.683901 1.55874 3 0.795609 3 0 
C 3 -0.795609 2.683901 -1.55874 2.12132 -2.12132 
C 1.55874 -2.683901 0.795609 -3 0 -3 
C -0.795609 -3 -1.55874 -2.683901 -2.12132 -2.12132 
C -2.683901 -1.55874 -3 -0.795609 -3 0 
C -3 0.795609 -2.683901 1.55874 -2.12132 2.12132 
C -1.55874 2.683901 -0.795609 3 0 3 
z
" style="stroke: #ffffff; stroke-width: 0.48"/>
     </defs>
     <g>
      <use xlink:href="#m3d0ce7dc90" x="285.44" y="90.605" style="fill: #195f90; stroke: #ffffff; stroke-width: 0.48"/>
     </g>
    </g>
    <g id="text_15">
     <text style="font: 10px 'DejaVu Sans', 'Bitstream Vera Sans', 'Computer Modern Sans Serif', 'Lucida Grande', 'Verdana', 'Geneva', 'Lucid', 'Arial', 'Helvetica', 'Avant Garde', sans-serif; text-anchor: start" x="303.44" y="94.105" transform="rotate(-0 303.44 94.105)">DNA</text>
    </g>
    <g id="line2d_19">
     <defs>
      <path id="m4e685e6ce4" d="M 0 3 
C 0.795609 3 1.55874 2.683901 2.12132 2.12132 
C 2.683901 1.55874 3 0.795609 3 0 
C 3 -0.795609 2.683901 -1.55874 2.12132 -2.12132 
C 1.55874 -2.683901 0.795609 -3 0 -3 
C -0.795609 -3 -1.55874 -2.683901 -2.12132 -2.12132 
C -2.683901 -1.55874 -3 -0.795609 -3 0 
C -3 0.795609 -2.683901 1.55874 -2.12132 2.12132 
C -1.55874 2.683901 -0.795609 3 0 3 
z
" style="stroke: #ffffff; stroke-width: 0.48"/>
     </defs>
     <g>
      <use xlink:href="#m4e685e6ce4" x="285.44" y="105.283125" style="fill: #70453c; stroke: #ffffff; stroke-width: 0.48"/>
     </g>
    </g>
    <g id="text_16">
     <text style="font: 10px 'DejaVu Sans', 'Bitstream Vera Sans', 'Computer Modern Sans Serif', 'Lucida Grande', 'Verdana', 'Geneva', 'Lucid', 'Arial', 'Helvetica', 'Avant Garde', sans-serif; text-anchor: start" x="303.44" y="108.783125" transform="rotate(-0 303.44 108.783125)">LTR</text>
    </g>
    <g id="line2d_20">
     <defs>
      <path id="md4f656a816" d="M 0 3 
C 0.795609 3 1.55874 2.683901 2.12132 2.12132 
C 2.683901 1.55874 3 0.795609 3 0 
C 3 -0.795609 2.683901 -1.55874 2.12132 -2.12132 
C 1.55874 -2.683901 0.795609 -3 0 -3 
C -0.795609 -3 -1.55874 -2.683901 -2.12132 -2.12132 
C -2.683901 -1.55874 -3 -0.795609 -3 0 
C -3 0.795609 -2.683901 1.55874 -2.12132 2.12132 
C -1.55874 2.683901 -0.795609 3 0 3 
z
" style="stroke: #ffffff; stroke-width: 0.48"/>
     </defs>
     <g>
      <use xlink:href="#md4f656a816" x="285.44" y="119.96125" style="fill: #cc660b; stroke: #ffffff; stroke-width: 0.48"/>
     </g>
    </g>
    <g id="text_17">
     <text style="font: 10px 'DejaVu Sans', 'Bitstream Vera Sans', 'Computer Modern Sans Serif', 'Lucida Grande', 'Verdana', 'Geneva', 'Lucid', 'Arial', 'Helvetica', 'Avant Garde', sans-serif; text-anchor: start" x="303.44" y="123.46125" transform="rotate(-0 303.44 123.46125)">LINE</text>
    </g>
    <g id="line2d_21">
     <defs>
      <path id="mda11aace30" d="M 0 3 
C 0.795609 3 1.55874 2.683901 2.12132 2.12132 
C 2.683901 1.55874 3 0.795609 3 0 
C 3 -0.795609 2.683901 -1.55874 2.12132 -2.12132 
C 1.55874 -2.683901 0.795609 -3 0 -3 
C -0.795609 -3 -1.55874 -2.683901 -2.12132 -2.12132 
C -2.683901 -1.55874 -3 -0.795609 -3 0 
C -3 0.795609 -2.683901 1.55874 -2.12132 2.12132 
C -1.55874 2.683901 -0.795609 3 0 3 
z
" style="stroke: #ffffff; stroke-width: 0.48"/>
     </defs>
     <g>
      <use xlink:href="#mda11aace30" x="285.44" y="134.639375" style="fill: #238023; stroke: #ffffff; stroke-width: 0.48"/>
     </g>
    </g>
    <g id="text_18">
     <text style="font: 10px 'DejaVu Sans', 'Bitstream Vera Sans', 'Computer Modern Sans Serif', 'Lucida Grande', 'Verdana', 'Geneva', 'Lucid', 'Arial', 'Helvetica', 'Avant Garde', sans-serif; text-anchor: start" x="303.44" y="138.139375" transform="rotate(-0 303.44 138.139375)">RC</text>
    </g>
    <g id="line2d_22">
     <defs>
      <path id="mc9940dcf8d" d="M 0 3 
C 0.795609 3 1.55874 2.683901 2.12132 2.12132 
C 2.683901 1.55874 3 0.795609 3 0 
C 3 -0.795609 2.683901 -1.55874 2.12132 -2.12132 
C 1.55874 -2.683901 0.795609 -3 0 -3 
C -0.795609 -3 -1.55874 -2.683901 -2.12132 -2.12132 
C -2.683901 -1.55874 -3 -0.795609 -3 0 
C -3 0.795609 -2.683901 1.55874 -2.12132 2.12132 
C -1.55874 2.683901 -0.795609 3 0 3 
z
" style="stroke: #ffffff; stroke-width: 0.48"/>
     </defs>
     <g>
      <use xlink:href="#mc9940dcf8d" x="285.44" y="149.3175" style="fill: #ab1f20; stroke: #ffffff; stroke-width: 0.48"/>
     </g>
    </g>
    <g id="text_19">
     <text style="font: 10px 'DejaVu Sans', 'Bitstream Vera Sans', 'Computer Modern Sans Serif', 'Lucida Grande', 'Verdana', 'Geneva', 'Lucid', 'Arial', 'Helvetica', 'Avant Garde', sans-serif; text-anchor: start" x="303.44" y="152.8175" transform="rotate(-0 303.44 152.8175)">SINE</text>
    </g>
    <g id="line2d_23">
     <defs>
      <path id="m73ba00cec0" d="M 0 3 
C 0.795609 3 1.55874 2.683901 2.12132 2.12132 
C 2.683901 1.55874 3 0.795609 3 0 
C 3 -0.795609 2.683901 -1.55874 2.12132 -2.12132 
C 1.55874 -2.683901 0.795609 -3 0 -3 
C -0.795609 -3 -1.55874 -2.683901 -2.12132 -2.12132 
C -2.683901 -1.55874 -3 -0.795609 -3 0 
C -3 0.795609 -2.683901 1.55874 -2.12132 2.12132 
C -1.55874 2.683901 -0.795609 3 0 3 
z
" style="stroke: #ffffff; stroke-width: 0.48"/>
     </defs>
     <g>
      <use xlink:href="#m73ba00cec0" x="285.44" y="163.995625" style="fill: #765297; stroke: #ffffff; stroke-width: 0.48"/>
     </g>
    </g>
    <g id="text_20">
     <text style="font: 10px 'DejaVu Sans', 'Bitstream Vera Sans', 'Computer Modern Sans Serif', 'Lucida Grande', 'Verdana', 'Geneva', 'Lucid', 'Arial', 'Helvetica', 'Avant Garde', sans-serif; text-anchor: start" x="303.44" y="167.495625" transform="rotate(-0 303.44 167.495625)">Retroposon</text>
    </g>
    <g id="line2d_24">
     <path d="M 275.44 178.67375 
L 285.44 178.67375 
L 295.44 178.67375 
" style="fill: none; stroke: #000000; stroke-width: 1.5; stroke-linecap: square"/>
    </g>
    <g id="text_21">
     <text style="font: 10px 'DejaVu Sans', 'Bitstream Vera Sans', 'Computer Modern Sans Serif', 'Lucida Grande', 'Verdana', 'Geneva', 'Lucid', 'Arial', 'Helvetica', 'Avant Garde', sans-serif; text-anchor: start" x="303.44" y="182.17375" transform="rotate(-0 303.44 182.17375)">Linear Trend (R=0.94)</text>
    </g>
   </g>
  </g>
 </g>
 <defs>
  <clipPath id="pb2538cc06d">
   <rect x="50.87" y="24.72" width="215.57" height="221.32"/>
  </clipPath>
 </defs>
</svg>
