<?xml version="1.0" encoding="utf-8" standalone="no"?>
<!DOCTYPE svg PUBLIC "-//W3C//DTD SVG 1.1//EN"
  "http://www.w3.org/Graphics/SVG/1.1/DTD/svg11.dtd">
<svg xmlns:xlink="http://www.w3.org/1999/xlink" width="504pt" height="288pt" viewBox="0 0 504 288" xmlns="http://www.w3.org/2000/svg" version="1.1">
 <metadata>
  <rdf:RDF xmlns:dc="http://purl.org/dc/elements/1.1/" xmlns:cc="http://creativecommons.org/ns#" xmlns:rdf="http://www.w3.org/1999/02/22-rdf-syntax-ns#">
   <cc:Work>
    <dc:type rdf:resource="http://purl.org/dc/dcmitype/StillImage"/>
    <dc:date>2026-01-25T18:23:05.660400</dc:date>
    <dc:format>image/svg+xml</dc:format>
    <dc:creator>
     <cc:Agent>
      <dc:title>Matplotlib v3.10.8, https://matplotlib.org/</dc:title>
     </cc:Agent>
    </dc:creator>
   </cc:Work>
  </rdf:RDF>
 </metadata>
 <defs>
  <style type="text/css">*{stroke-linejoin: round; stroke-linecap: butt}</style>
 </defs>
 <g id="figure_1">
  <g id="patch_1">
   <path d="M 0 288 
L 504 288 
L 504 0 
L 0 0 
L 0 288 
z
" style="fill: none"/>
  </g>
  <g id="axes_1">
   <g id="patch_2">
    <path d="M 44.57 245.93875 
L 266.17 245.93875 
L 266.17 24.72 
L 44.57 24.72 
L 44.57 245.93875 
z
" style="fill: none"/>
   </g>
   <g id="PathCollection_1">
    <path d="M 162.984987 194.464315 
C 165.334143 194.464315 167.5874 193.530985 169.248504 191.869881 
C 170.909608 190.208777 171.842938 187.95552 171.842938 185.606364 
C 171.842938 183.257208 170.909608 181.00395 169.248504 179.342846 
C 167.5874 177.681742 165.334143 176.748412 162.984987 176.748412 
C 160.635831 176.748412 158.382573 177.681742 156.721469 179.342846 
C 155.060365 181.00395 154.127035 183.257208 154.127035 185.606364 
C 154.127035 187.95552 155.060365 190.208777 156.721469 191.869881 
C 158.382573 193.530985 160.635831 194.464315 162.984987 194.464315 
z
" clip-path="url(#pcf1a1cfdff)" style="fill: #1f77b4; fill-opacity: 0.5; stroke: #ffffff; stroke-opacity: 0.5; stroke-width: 1.016031"/>
    <path d="M 67.990246 186.450543 
C 70.436394 186.450543 72.782684 185.478678 74.512371 183.74899 
C 76.242059 182.019303 77.213924 179.673013 77.213924 177.226866 
C 77.213924 174.780718 76.242059 172.434428 74.512371 170.704741 
C 72.782684 168.975053 70.436394 168.003188 67.990246 168.003188 
C 65.544099 168.003188 63.197809 168.975053 61.468122 170.704741 
C 59.738434 172.434428 58.766569 174.780718 58.766569 177.226866 
C 58.766569 179.673013 59.738434 182.019303 61.468122 183.74899 
C 63.197809 185.478678 65.544099 186.450543 67.990246 186.450543 
z
" clip-path="url(#pcf1a1cfdff)" style="fill: #ff7f0e; fill-opacity: 0.5; stroke: #ffffff; stroke-opacity: 0.5; stroke-width: 1.016031"/>
    <path d="M 240.757752 219.150266 
L 244.960456 214.947562 
L 249.16316 219.150266 
L 253.365865 214.947562 
L 249.16316 210.744858 
L 253.365865 206.542154 
L 249.16316 202.33945 
L 244.960456 206.542154 
L 240.757752 202.33945 
L 236.555048 206.542154 
L 240.757752 210.744858 
L 236.555048 214.947562 
z
" clip-path="url(#pcf1a1cfdff)" style="fill: #1f77b4; fill-opacity: 0.5; stroke: #ffffff; stroke-opacity: 0.5; stroke-width: 1.016031"/>
    <path d="M 193.885447 244.99581 
L 198.441676 240.439581 
L 202.997905 244.99581 
L 207.554134 240.439581 
L 202.997905 235.883352 
L 207.554134 231.327123 
L 202.997905 226.770895 
L 198.441676 231.327123 
L 193.885447 226.770895 
L 189.329218 231.327123 
L 193.885447 235.883352 
L 189.329218 240.439581 
z
" clip-path="url(#pcf1a1cfdff)" style="fill: #1f77b4; fill-opacity: 0.5; stroke: #ffffff; stroke-opacity: 0.5; stroke-width: 1.016031"/>
    <path d="M 88.39128 185.752081 
C 90.652193 185.752081 92.82081 184.853811 94.419518 183.255104 
C 96.018225 181.656396 96.916496 179.487779 96.916496 177.226866 
C 96.916496 174.965952 96.018225 172.797335 94.419518 171.198628 
C 92.82081 169.59992 90.652193 168.70165 88.39128 168.70165 
C 86.130366 168.70165 83.961749 169.59992 82.363042 171.198628 
C 80.764334 172.797335 79.866064 174.965952 79.866064 177.226866 
C 79.866064 179.487779 80.764334 181.656396 82.363042 183.255104 
C 83.961749 184.853811 86.130366 185.752081 88.39128 185.752081 
z
" clip-path="url(#pcf1a1cfdff)" style="fill: #ff7f0e; fill-opacity: 0.5; stroke: #ffffff; stroke-opacity: 0.5; stroke-width: 1.016031"/>
    <path d="M 75.267863 211.51364 
C 77.694015 211.51364 80.021125 210.549719 81.736673 208.83417 
C 83.452222 207.118622 84.416142 204.791512 84.416142 202.36536 
C 84.416142 199.939208 83.452222 197.612098 81.736673 195.896549 
C 80.021125 194.181001 77.694015 193.21708 75.267863 193.21708 
C 72.841711 193.21708 70.514601 194.181001 68.799052 195.896549 
C 67.083504 197.612098 66.119583 199.939208 66.119583 202.36536 
C 66.119583 204.791512 67.083504 207.118622 68.799052 208.83417 
C 70.514601 210.549719 72.841711 211.51364 75.267863 211.51364 
z
" clip-path="url(#pcf1a1cfdff)" style="fill: #ff7f0e; fill-opacity: 0.5; stroke: #ffffff; stroke-opacity: 0.5; stroke-width: 1.016031"/>
    <path d="M 156.045546 177.13186 
C 158.242619 177.13186 160.350001 176.258954 161.903567 174.705388 
C 163.457132 173.151823 164.330038 171.044441 164.330038 168.847367 
C 164.330038 166.650294 163.457132 164.542912 161.903567 162.989347 
C 160.350001 161.435781 158.242619 160.562875 156.045546 160.562875 
C 153.848473 160.562875 151.74109 161.435781 150.187525 162.989347 
C 148.63396 164.542912 147.761053 166.650294 147.761053 168.847367 
C 147.761053 171.044441 148.63396 173.151823 150.187525 174.705388 
C 151.74109 176.258954 153.848473 177.13186 156.045546 177.13186 
z
" clip-path="url(#pcf1a1cfdff)" style="fill: #2ca02c; fill-opacity: 0.5; stroke: #ffffff; stroke-opacity: 0.5; stroke-width: 1.016031"/>
    <path d="M 121.090843 211.118922 
C 123.412314 211.118922 125.639017 210.196591 127.280546 208.555063 
C 128.922074 206.913534 129.844405 204.686832 129.844405 202.36536 
C 129.844405 200.043888 128.922074 197.817185 127.280546 196.175657 
C 125.639017 194.534128 123.412314 193.611798 121.090843 193.611798 
C 118.769371 193.611798 116.542668 194.534128 114.90114 196.175657 
C 113.259611 197.817185 112.337281 200.043888 112.337281 202.36536 
C 112.337281 204.686832 113.259611 206.913534 114.90114 208.555063 
C 116.542668 210.196591 118.769371 211.118922 121.090843 211.118922 
z
" clip-path="url(#pcf1a1cfdff)" style="fill: #ff7f0e; fill-opacity: 0.5; stroke: #ffffff; stroke-opacity: 0.5; stroke-width: 1.016031"/>
    <path d="M 159.8871 202.867827 
C 162.242625 202.867827 164.50199 201.931967 166.167598 200.266359 
C 167.833205 198.600752 168.769065 196.341386 168.769065 193.985862 
C 168.769065 191.630337 167.833205 189.370972 166.167598 187.705364 
C 164.50199 186.039757 162.242625 185.103897 159.8871 185.103897 
C 157.531575 185.103897 155.27221 186.039757 153.606602 187.705364 
C 151.940995 189.370972 151.005135 191.630337 151.005135 193.985862 
C 151.005135 196.341386 151.940995 198.600752 153.606602 200.266359 
C 155.27221 201.931967 157.531575 202.867827 159.8871 202.867827 
z
" clip-path="url(#pcf1a1cfdff)" style="fill: #1f77b4; fill-opacity: 0.5; stroke: #ffffff; stroke-opacity: 0.5; stroke-width: 1.016031"/>
    <path d="M 99.614056 135.774251 
C 101.954308 135.774251 104.199024 134.844459 105.853831 133.189652 
C 107.508639 131.534844 108.43843 129.290128 108.43843 126.949877 
C 108.43843 124.609626 107.508639 122.36491 105.853831 120.710102 
C 104.199024 119.055295 101.954308 118.125503 99.614056 118.125503 
C 97.273805 118.125503 95.029089 119.055295 93.374282 120.710102 
C 91.719474 122.36491 90.789682 124.609626 90.789682 126.949877 
C 90.789682 129.290128 91.719474 131.534844 93.374282 133.189652 
C 95.029089 134.844459 97.273805 135.774251 99.614056 135.774251 
z
" clip-path="url(#pcf1a1cfdff)" style="fill: #ff7f0e; fill-opacity: 0.5; stroke: #ffffff; stroke-opacity: 0.5; stroke-width: 1.016031"/>
    <path d="M 192.946303 226.050865 
C 194.783234 226.050865 196.545177 225.321044 197.844084 224.022138 
C 199.142991 222.723231 199.872812 220.961288 199.872812 219.124356 
C 199.872812 217.287424 199.142991 215.525481 197.844084 214.226575 
C 196.545177 212.927668 194.783234 212.197847 192.946303 212.197847 
C 191.109371 212.197847 189.347428 212.927668 188.048521 214.226575 
C 186.749614 215.525481 186.019793 217.287424 186.019793 219.124356 
C 186.019793 220.961288 186.749614 222.723231 188.048521 224.022138 
C 189.347428 225.321044 191.109371 226.050865 192.946303 226.050865 
z
" clip-path="url(#pcf1a1cfdff)" style="fill: #ff7f0e; fill-opacity: 0.5; stroke: #ffffff; stroke-opacity: 0.5; stroke-width: 1.016031"/>
    <path d="M 186.548098 43.461864 
C 188.851775 43.461864 191.061411 42.546603 192.690357 40.917657 
C 194.319303 39.288711 195.234564 37.079076 195.234564 34.775398 
C 195.234564 32.47172 194.319303 30.262085 192.690357 28.633138 
C 191.061411 27.004192 188.851775 26.088931 186.548098 26.088931 
C 184.24442 26.088931 182.034784 27.004192 180.405838 28.633138 
C 178.776892 30.262085 177.861631 32.47172 177.861631 34.775398 
C 177.861631 37.079076 178.776892 39.288711 180.405838 40.917657 
C 182.034784 42.546603 184.24442 43.461864 186.548098 43.461864 
z
" clip-path="url(#pcf1a1cfdff)" style="fill: #1f77b4; fill-opacity: 0.5; stroke: #ffffff; stroke-opacity: 0.5; stroke-width: 1.016031"/>
    <path d="M 165.931195 202.741305 
C 168.253166 202.741305 170.480347 201.818777 172.122229 200.176895 
C 173.76411 198.535014 174.686639 196.307833 174.686639 193.985862 
C 174.686639 191.663891 173.76411 189.436709 172.122229 187.794828 
C 170.480347 186.152947 168.253166 185.230418 165.931195 185.230418 
C 163.609224 185.230418 161.382043 186.152947 159.740161 187.794828 
C 158.09828 189.436709 157.175751 191.663891 157.175751 193.985862 
C 157.175751 196.307833 158.09828 198.535014 159.740161 200.176895 
C 161.382043 201.818777 163.609224 202.741305 165.931195 202.741305 
z
" clip-path="url(#pcf1a1cfdff)" style="fill: #1f77b4; fill-opacity: 0.5; stroke: #ffffff; stroke-opacity: 0.5; stroke-width: 1.016031"/>
    <path d="M 91.859054 178.022125 
C 94.292229 178.022125 96.626074 177.055415 98.346588 175.334901 
C 100.067102 173.614387 101.033812 171.280542 101.033812 168.847367 
C 101.033812 166.414193 100.067102 164.080348 98.346588 162.359834 
C 96.626074 160.63932 94.292229 159.67261 91.859054 159.67261 
C 89.42588 159.67261 87.092035 160.63932 85.371521 162.359834 
C 83.651007 164.080348 82.684297 166.414193 82.684297 168.847367 
C 82.684297 171.280542 83.651007 173.614387 85.371521 175.334901 
C 87.092035 177.055415 89.42588 178.022125 91.859054 178.022125 
z
" clip-path="url(#pcf1a1cfdff)" style="fill: #ff7f0e; fill-opacity: 0.5; stroke: #ffffff; stroke-opacity: 0.5; stroke-width: 1.016031"/>
    <path d="M 256.097273 226.824578 
C 258.139395 226.824578 260.098153 226.013234 261.542152 224.569235 
C 262.986151 223.125236 263.797495 221.166479 263.797495 219.124356 
C 263.797495 217.082233 262.986151 215.123476 261.542152 213.679477 
C 260.098153 212.235478 258.139395 211.424134 256.097273 211.424134 
C 254.05515 211.424134 252.096392 212.235478 250.652393 213.679477 
C 249.208395 215.123476 248.397051 217.082233 248.397051 219.124356 
C 248.397051 221.166479 249.208395 223.125236 250.652393 224.569235 
C 252.096392 226.013234 254.05515 226.824578 256.097273 226.824578 
z
" clip-path="url(#pcf1a1cfdff)" style="fill: #1f77b4; fill-opacity: 0.5; stroke: #ffffff; stroke-opacity: 0.5; stroke-width: 1.016031"/>
    <path d="M 207.820368 149.376017 
L 210.65394 146.542445 
L 213.487511 149.376017 
L 216.321083 146.542445 
L 213.487511 143.708873 
L 216.321083 140.875301 
L 213.487511 138.041729 
L 210.65394 140.875301 
L 207.820368 138.041729 
L 204.986796 140.875301 
L 207.820368 143.708873 
L 204.986796 146.542445 
z
" clip-path="url(#pcf1a1cfdff)" style="fill: #1f77b4; fill-opacity: 0.5; stroke: #ffffff; stroke-opacity: 0.5; stroke-width: 1.016031"/>
    <path d="M 185.8977 245.129077 
C 188.349695 245.129077 190.701592 244.154889 192.435415 242.421067 
C 194.169237 240.687245 195.143425 238.335347 195.143425 235.883352 
C 195.143425 233.431357 194.169237 231.07946 192.435415 229.345638 
C 190.701592 227.611816 188.349695 226.637628 185.8977 226.637628 
C 183.445705 226.637628 181.093808 227.611816 179.359985 229.345638 
C 177.626163 231.07946 176.651975 233.431357 176.651975 235.883352 
C 176.651975 238.335347 177.626163 240.687245 179.359985 242.421067 
C 181.093808 244.154889 183.445705 245.129077 185.8977 245.129077 
z
" clip-path="url(#pcf1a1cfdff)" style="fill: #1f77b4; fill-opacity: 0.5; stroke: #ffffff; stroke-opacity: 0.5; stroke-width: 1.016031"/>
    <path d="M 246.314007 220.206631 
C 248.823298 220.206631 251.230154 219.209679 253.004491 217.435342 
C 254.778828 215.661005 255.77578 213.254149 255.77578 210.744858 
C 255.77578 208.235566 254.778828 205.828711 253.004491 204.054374 
C 251.230154 202.280037 248.823298 201.283085 246.314007 201.283085 
C 243.804715 201.283085 241.39786 202.280037 239.623523 204.054374 
C 237.849186 205.828711 236.852234 208.235566 236.852234 210.744858 
C 236.852234 213.254149 237.849186 215.661005 239.623523 217.435342 
C 241.39786 219.209679 243.804715 220.206631 246.314007 220.206631 
z
" clip-path="url(#pcf1a1cfdff)" style="fill: #1f77b4; fill-opacity: 0.5; stroke: #ffffff; stroke-opacity: 0.5; stroke-width: 1.016031"/>
    <path d="M 61.268086 194.646707 
C 63.665612 194.646707 65.965266 193.694159 67.660573 191.998851 
C 69.355881 190.303544 70.308428 188.003891 70.308428 185.606364 
C 70.308428 183.208837 69.355881 180.909183 67.660573 179.213876 
C 65.965266 177.518568 63.665612 176.566021 61.268086 176.566021 
C 58.870559 176.566021 56.570905 177.518568 54.875598 179.213876 
C 53.18029 180.909183 52.227743 183.208837 52.227743 185.606364 
C 52.227743 188.003891 53.18029 190.303544 54.875598 191.998851 
C 56.570905 193.694159 58.870559 194.646707 61.268086 194.646707 
z
" clip-path="url(#pcf1a1cfdff)" style="fill: #ff7f0e; fill-opacity: 0.5; stroke: #ffffff; stroke-opacity: 0.5; stroke-width: 1.016031"/>
    <path d="M 234.293096 244.758652 
C 236.646853 244.758652 238.904523 243.823495 240.568881 242.159137 
C 242.233238 240.494779 243.168396 238.237109 243.168396 235.883352 
C 243.168396 233.529595 242.233238 231.271925 240.568881 229.607568 
C 238.904523 227.94321 236.646853 227.008052 234.293096 227.008052 
C 231.939339 227.008052 229.681669 227.94321 228.017311 229.607568 
C 226.352954 231.271925 225.417796 233.529595 225.417796 235.883352 
C 225.417796 238.237109 226.352954 240.494779 228.017311 242.159137 
C 229.681669 243.823495 231.939339 244.758652 234.293096 244.758652 
z
" clip-path="url(#pcf1a1cfdff)" style="fill: #1f77b4; fill-opacity: 0.5; stroke: #ffffff; stroke-opacity: 0.5; stroke-width: 1.016031"/>
    <path d="M 233.755216 244.346694 
C 235.99972 244.346694 238.152598 243.454943 239.739702 241.867839 
C 241.326806 240.280734 242.218557 238.127857 242.218557 235.883352 
C 242.218557 233.638848 241.326806 231.48597 239.739702 229.898866 
C 238.152598 228.311762 235.99972 227.420011 233.755216 227.420011 
C 231.510711 227.420011 229.357834 228.311762 227.77073 229.898866 
C 226.183625 231.48597 225.291874 233.638848 225.291874 235.883352 
C 225.291874 238.127857 226.183625 240.280734 227.77073 241.867839 
C 229.357834 243.454943 231.510711 244.346694 233.755216 244.346694 
z
" clip-path="url(#pcf1a1cfdff)" style="fill: #1f77b4; fill-opacity: 0.5; stroke: #ffffff; stroke-opacity: 0.5; stroke-width: 1.016031"/>
    <path d="M 117.65492 211.282315 
C 120.019725 211.282315 122.287991 210.342769 123.96016 208.6706 
C 125.632329 206.99843 126.571876 204.730164 126.571876 202.36536 
C 126.571876 200.000556 125.632329 197.732289 123.96016 196.06012 
C 122.287991 194.387951 120.019725 193.448404 117.65492 193.448404 
C 115.290116 193.448404 113.02185 194.387951 111.349681 196.06012 
C 109.677511 197.732289 108.737965 200.000556 108.737965 202.36536 
C 108.737965 204.730164 109.677511 206.99843 111.349681 208.6706 
C 113.02185 210.342769 115.290116 211.282315 117.65492 211.282315 
z
" clip-path="url(#pcf1a1cfdff)" style="fill: #d62728; fill-opacity: 0.5; stroke: #ffffff; stroke-opacity: 0.5; stroke-width: 1.016031"/>
    <path d="M 248.193458 236.942703 
L 252.912882 232.223279 
L 257.632307 236.942703 
L 262.351731 232.223279 
L 257.632307 227.503854 
L 262.351731 222.78443 
L 257.632307 218.065005 
L 252.912882 222.78443 
L 248.193458 218.065005 
L 243.474034 222.78443 
L 248.193458 227.503854 
L 243.474034 232.223279 
z
" clip-path="url(#pcf1a1cfdff)" style="fill: #1f77b4; fill-opacity: 0.5; stroke: #ffffff; stroke-opacity: 0.5; stroke-width: 1.016031"/>
    <path d="M 151.980611 161.20091 
C 154.397285 161.20091 156.715303 160.240755 158.424149 158.531909 
C 160.132996 156.823063 161.09315 154.505045 161.09315 152.088371 
C 161.09315 149.671698 160.132996 147.35368 158.424149 145.644833 
C 156.715303 143.935987 154.397285 142.975833 151.980611 142.975833 
C 149.563938 142.975833 147.24592 143.935987 145.537074 145.644833 
C 143.828227 147.35368 142.868073 149.671698 142.868073 152.088371 
C 142.868073 154.505045 143.828227 156.823063 145.537074 158.531909 
C 147.24592 160.240755 149.563938 161.20091 151.980611 161.20091 
z
" clip-path="url(#pcf1a1cfdff)" style="fill: #ff7f0e; fill-opacity: 0.5; stroke: #ffffff; stroke-opacity: 0.5; stroke-width: 1.016031"/>
    <path d="M 164.235199 236.12352 
L 168.545032 231.813687 
L 172.854865 236.12352 
L 177.164699 231.813687 
L 172.854865 227.503854 
L 177.164699 223.194021 
L 172.854865 218.884188 
L 168.545032 223.194021 
L 164.235199 218.884188 
L 159.925366 223.194021 
L 164.235199 227.503854 
L 159.925366 231.813687 
z
" clip-path="url(#pcf1a1cfdff)" style="fill: #1f77b4; fill-opacity: 0.5; stroke: #ffffff; stroke-opacity: 0.5; stroke-width: 1.016031"/>
    <path d="M 184.119999 202.672624 
C 186.423755 202.672624 188.633465 201.757332 190.262467 200.12833 
C 191.891468 198.499328 192.806761 196.289618 192.806761 193.985862 
C 192.806761 191.682106 191.891468 189.472395 190.262467 187.843393 
C 188.633465 186.214392 186.423755 185.2991 184.119999 185.2991 
C 181.816242 185.2991 179.606532 186.214392 177.97753 187.843393 
C 176.348529 189.472395 175.433237 191.682106 175.433237 193.985862 
C 175.433237 196.289618 176.348529 198.499328 177.97753 200.12833 
C 179.606532 201.757332 181.816242 202.672624 184.119999 202.672624 
z
" clip-path="url(#pcf1a1cfdff)" style="fill: #1f77b4; fill-opacity: 0.5; stroke: #ffffff; stroke-opacity: 0.5; stroke-width: 1.016031"/>
    <path d="M 233.741 228.216936 
C 236.152381 228.216936 238.465322 227.258885 240.170425 225.553781 
C 241.875529 223.848678 242.83358 221.535736 242.83358 219.124356 
C 242.83358 216.712976 241.875529 214.400034 240.170425 212.694931 
C 238.465322 210.989828 236.152381 210.031776 233.741 210.031776 
C 231.32962 210.031776 229.016679 210.989828 227.311575 212.694931 
C 225.606472 214.400034 224.64842 216.712976 224.64842 219.124356 
C 224.64842 221.535736 225.606472 223.848678 227.311575 225.553781 
C 229.016679 227.258885 231.32962 228.216936 233.741 228.216936 
z
" clip-path="url(#pcf1a1cfdff)" style="fill: #1f77b4; fill-opacity: 0.5; stroke: #ffffff; stroke-opacity: 0.5; stroke-width: 1.016031"/>
    <path d="M 149.196884 194.294453 
C 151.500993 194.294453 153.711041 193.379021 155.340292 191.749771 
C 156.969542 190.12052 157.884974 187.910472 157.884974 185.606364 
C 157.884974 183.302255 156.969542 181.092207 155.340292 179.462957 
C 153.711041 177.833706 151.500993 176.918274 149.196884 176.918274 
C 146.892776 176.918274 144.682728 177.833706 143.053477 179.462957 
C 141.424227 181.092207 140.508795 183.302255 140.508795 185.606364 
C 140.508795 187.910472 141.424227 190.12052 143.053477 191.749771 
C 144.682728 193.379021 146.892776 194.294453 149.196884 194.294453 
z
" clip-path="url(#pcf1a1cfdff)" style="fill: #ff7f0e; fill-opacity: 0.5; stroke: #ffffff; stroke-opacity: 0.5; stroke-width: 1.016031"/>
    <path d="M 174.718977 152.037884 
C 176.927857 152.037884 179.046563 151.160287 180.608477 149.598373 
C 182.170391 148.036459 183.047988 145.917753 183.047988 143.708873 
C 183.047988 141.499994 182.170391 139.381287 180.608477 137.819373 
C 179.046563 136.257459 176.927857 135.379862 174.718977 135.379862 
C 172.510098 135.379862 170.391391 136.257459 168.829477 137.819373 
C 167.267563 139.381287 166.389966 141.499994 166.389966 143.708873 
C 166.389966 145.917753 167.267563 148.036459 168.829477 149.598373 
C 170.391391 151.160287 172.510098 152.037884 174.718977 152.037884 
z
" clip-path="url(#pcf1a1cfdff)" style="fill: #1f77b4; fill-opacity: 0.5; stroke: #ffffff; stroke-opacity: 0.5; stroke-width: 1.016031"/>
    <path d="M 169.641661 219.424945 
C 171.943646 219.424945 174.151659 218.510356 175.779409 216.882606 
C 177.407159 215.254856 178.321747 213.046844 178.321747 210.744858 
C 178.321747 208.442872 177.407159 206.23486 175.779409 204.60711 
C 174.151659 202.97936 171.943646 202.064771 169.641661 202.064771 
C 167.339675 202.064771 165.131662 202.97936 163.503913 204.60711 
C 161.876163 206.23486 160.961574 208.442872 160.961574 210.744858 
C 160.961574 213.046844 161.876163 215.254856 163.503913 216.882606 
C 165.131662 218.510356 167.339675 219.424945 169.641661 219.424945 
z
" clip-path="url(#pcf1a1cfdff)" style="fill: #d62728; fill-opacity: 0.5; stroke: #ffffff; stroke-opacity: 0.5; stroke-width: 1.016031"/>
    <path d="M 139.720608 210.333683 
C 141.833833 210.333683 143.860789 209.49409 145.355064 207.999815 
C 146.849339 206.50554 147.688932 204.478584 147.688932 202.36536 
C 147.688932 200.252136 146.849339 198.225179 145.355064 196.730904 
C 143.860789 195.236629 141.833833 194.397037 139.720608 194.397037 
C 137.607384 194.397037 135.580428 195.236629 134.086153 196.730904 
C 132.591878 198.225179 131.752285 200.252136 131.752285 202.36536 
C 131.752285 204.478584 132.591878 206.50554 134.086153 207.999815 
C 135.580428 209.49409 137.607384 210.333683 139.720608 210.333683 
z
" clip-path="url(#pcf1a1cfdff)" style="fill: #1f77b4; fill-opacity: 0.5; stroke: #ffffff; stroke-opacity: 0.5; stroke-width: 1.016031"/>
    <path d="M 127.015135 152.544016 
C 129.358242 152.544016 131.605697 151.61309 133.262524 149.956263 
C 134.919351 148.299436 135.850278 146.05198 135.850278 143.708873 
C 135.850278 141.365766 134.919351 139.118311 133.262524 137.461484 
C 131.605697 135.804657 129.358242 134.87373 127.015135 134.87373 
C 124.672028 134.87373 122.424572 135.804657 120.767745 137.461484 
C 119.110918 139.118311 118.179992 141.365766 118.179992 143.708873 
C 118.179992 146.05198 119.110918 148.299436 120.767745 149.956263 
C 122.424572 151.61309 124.672028 152.544016 127.015135 152.544016 
z
" clip-path="url(#pcf1a1cfdff)" style="fill: #ff7f0e; fill-opacity: 0.5; stroke: #ffffff; stroke-opacity: 0.5; stroke-width: 1.016031"/>
    <path d="M 183.043849 186.352954 
C 185.464116 186.352954 187.785581 185.391372 189.496968 183.679985 
C 191.208356 181.968598 192.169938 179.647133 192.169938 177.226866 
C 192.169938 174.806598 191.208356 172.485133 189.496968 170.773746 
C 187.785581 169.062359 185.464116 168.100777 183.043849 168.100777 
C 180.623582 168.100777 178.302117 169.062359 176.59073 170.773746 
C 174.879343 172.485133 173.91776 174.806598 173.91776 177.226866 
C 173.91776 179.647133 174.879343 181.968598 176.59073 183.679985 
C 178.302117 185.391372 180.623582 186.352954 183.043849 186.352954 
z
" clip-path="url(#pcf1a1cfdff)" style="fill: #1f77b4; fill-opacity: 0.5; stroke: #ffffff; stroke-opacity: 0.5; stroke-width: 1.016031"/>
    <path d="M 93.126998 218.052317 
C 95.064959 218.052317 96.923807 217.282357 98.294152 215.912012 
C 99.664497 214.541666 100.434457 212.682819 100.434457 210.744858 
C 100.434457 208.806897 99.664497 206.94805 98.294152 205.577704 
C 96.923807 204.207359 95.064959 203.437399 93.126998 203.437399 
C 91.189038 203.437399 89.33019 204.207359 87.959845 205.577704 
C 86.5895 206.94805 85.81954 208.806897 85.81954 210.744858 
C 85.81954 212.682819 86.5895 214.541666 87.959845 215.912012 
C 89.33019 217.282357 91.189038 218.052317 93.126998 218.052317 
z
" clip-path="url(#pcf1a1cfdff)" style="fill: #2ca02c; fill-opacity: 0.5; stroke: #ffffff; stroke-opacity: 0.5; stroke-width: 1.016031"/>
    <path d="M 121.785586 202.156134 
C 123.952367 202.156134 126.030695 201.295263 127.562841 199.763117 
C 129.094987 198.230971 129.955859 196.152643 129.955859 193.985862 
C 129.955859 191.81908 129.094987 189.740753 127.562841 188.208607 
C 126.030695 186.676461 123.952367 185.815589 121.785586 185.815589 
C 119.618804 185.815589 117.540477 186.676461 116.008331 188.208607 
C 114.476185 189.740753 113.615313 191.81908 113.615313 193.985862 
C 113.615313 196.152643 114.476185 198.230971 116.008331 199.763117 
C 117.540477 201.295263 119.618804 202.156134 121.785586 202.156134 
z
" clip-path="url(#pcf1a1cfdff)" style="fill: #1f77b4; fill-opacity: 0.5; stroke: #ffffff; stroke-opacity: 0.5; stroke-width: 1.016031"/>
    <path d="M 198.952534 244.000551 
C 201.105241 244.000551 203.170067 243.145272 204.692261 241.623079 
C 206.214454 240.100886 207.069733 238.036059 207.069733 235.883352 
C 207.069733 233.730646 206.214454 231.665819 204.692261 230.143626 
C 203.170067 228.621433 201.105241 227.766153 198.952534 227.766153 
C 196.799828 227.766153 194.735001 228.621433 193.212808 230.143626 
C 191.690614 231.665819 190.835335 233.730646 190.835335 235.883352 
C 190.835335 238.036059 191.690614 240.100886 193.212808 241.623079 
C 194.735001 243.145272 196.799828 244.000551 198.952534 244.000551 
z
" clip-path="url(#pcf1a1cfdff)" style="fill: #1f77b4; fill-opacity: 0.5; stroke: #ffffff; stroke-opacity: 0.5; stroke-width: 1.016031"/>
    <path d="M 110.234062 210.606321 
C 112.41959 210.606321 114.515899 209.738001 116.061301 208.192599 
C 117.606703 206.647197 118.475023 204.550888 118.475023 202.36536 
C 118.475023 200.179831 117.606703 198.083522 116.061301 196.53812 
C 114.515899 194.992718 112.41959 194.124399 110.234062 194.124399 
C 108.048533 194.124399 105.952224 194.992718 104.406822 196.53812 
C 102.86142 198.083522 101.993101 200.179831 101.993101 202.36536 
C 101.993101 204.550888 102.86142 206.647197 104.406822 208.192599 
C 105.952224 209.738001 108.048533 210.606321 110.234062 210.606321 
z
" clip-path="url(#pcf1a1cfdff)" style="fill: #2ca02c; fill-opacity: 0.5; stroke: #ffffff; stroke-opacity: 0.5; stroke-width: 1.016031"/>
    <path d="M 240.611816 243.865429 
L 244.602854 239.87439 
L 248.593892 243.865429 
L 252.584931 239.87439 
L 248.593892 235.883352 
L 252.584931 231.892314 
L 248.593892 227.901276 
L 244.602854 231.892314 
L 240.611816 227.901276 
L 236.620778 231.892314 
L 240.611816 235.883352 
L 236.620778 239.87439 
z
" clip-path="url(#pcf1a1cfdff)" style="fill: #1f77b4; fill-opacity: 0.5; stroke: #ffffff; stroke-opacity: 0.5; stroke-width: 1.016031"/>
    <path d="M 188.616858 243.99385 
C 190.767788 243.99385 192.83091 243.139277 194.351846 241.61834 
C 195.872783 240.097404 196.727356 238.034281 196.727356 235.883352 
C 196.727356 233.732423 195.872783 231.669301 194.351846 230.148364 
C 192.83091 228.627427 190.767788 227.772854 188.616858 227.772854 
C 186.465929 227.772854 184.402807 228.627427 182.88187 230.148364 
C 181.360933 231.669301 180.50636 233.732423 180.50636 235.883352 
C 180.50636 238.034281 181.360933 240.097404 182.88187 241.61834 
C 184.402807 243.139277 186.465929 243.99385 188.616858 243.99385 
z
" clip-path="url(#pcf1a1cfdff)" style="fill: #1f77b4; fill-opacity: 0.5; stroke: #ffffff; stroke-opacity: 0.5; stroke-width: 1.016031"/>
    <path d="M 144.657724 135.793496 
C 147.003079 135.793496 149.25269 134.861676 150.911107 133.20326 
C 152.569523 131.544843 153.501343 129.295232 153.501343 126.949877 
C 153.501343 124.604522 152.569523 122.354911 150.911107 120.696494 
C 149.25269 119.038078 147.003079 118.106258 144.657724 118.106258 
C 142.312369 118.106258 140.062758 119.038078 138.404341 120.696494 
C 136.745925 122.354911 135.814105 124.604522 135.814105 126.949877 
C 135.814105 129.295232 136.745925 131.544843 138.404341 133.20326 
C 140.062758 134.861676 142.312369 135.793496 144.657724 135.793496 
z
" clip-path="url(#pcf1a1cfdff)" style="fill: #2ca02c; fill-opacity: 0.5; stroke: #ffffff; stroke-opacity: 0.5; stroke-width: 1.016031"/>
    <path d="M 169.175214 210.652142 
C 171.372894 210.652142 173.480859 209.778994 175.034854 208.225 
C 176.588848 206.671005 177.461996 204.56304 177.461996 202.36536 
C 177.461996 200.16768 176.588848 198.059715 175.034854 196.50572 
C 173.480859 194.951725 171.372894 194.078578 169.175214 194.078578 
C 166.977533 194.078578 164.869568 194.951725 163.315574 196.50572 
C 161.761579 198.059715 160.888431 200.16768 160.888431 202.36536 
C 160.888431 204.56304 161.761579 206.671005 163.315574 208.225 
C 164.869568 209.778994 166.977533 210.652142 169.175214 210.652142 
z
" clip-path="url(#pcf1a1cfdff)" style="fill: #1f77b4; fill-opacity: 0.5; stroke: #ffffff; stroke-opacity: 0.5; stroke-width: 1.016031"/>
    <path d="M 54.642727 210.941305 
C 56.917095 210.941305 59.098616 210.03769 60.706837 208.429469 
C 62.315057 206.821249 63.218673 204.639727 63.218673 202.36536 
C 63.218673 200.090992 62.315057 197.909471 60.706837 196.301251 
C 59.098616 194.69303 56.917095 193.789414 54.642727 193.789414 
C 52.36836 193.789414 50.186839 194.69303 48.578618 196.301251 
C 46.970397 197.909471 46.066782 200.090992 46.066782 202.36536 
C 46.066782 204.639727 46.970397 206.821249 48.578618 208.429469 
C 50.186839 210.03769 52.36836 210.941305 54.642727 210.941305 
z
" clip-path="url(#pcf1a1cfdff)" style="fill: #ff7f0e; fill-opacity: 0.5; stroke: #ffffff; stroke-opacity: 0.5; stroke-width: 1.016031"/>
    <path d="M 168.27653 211.06804 
C 170.584508 211.06804 172.798267 210.151071 174.430254 208.519084 
C 176.062241 206.887097 176.97921 204.673338 176.97921 202.36536 
C 176.97921 200.057382 176.062241 197.843622 174.430254 196.211636 
C 172.798267 194.579649 170.584508 193.66268 168.27653 193.66268 
C 165.968552 193.66268 163.754793 194.579649 162.122806 196.211636 
C 160.490819 197.843622 159.57385 200.057382 159.57385 202.36536 
C 159.57385 204.673338 160.490819 206.887097 162.122806 208.519084 
C 163.754793 210.151071 165.968552 211.06804 168.27653 211.06804 
z
" clip-path="url(#pcf1a1cfdff)" style="fill: #1f77b4; fill-opacity: 0.5; stroke: #ffffff; stroke-opacity: 0.5; stroke-width: 1.016031"/>
    <path d="M 225.704794 182.96622 
C 227.226888 182.96622 228.686847 182.361485 229.76313 181.285202 
C 230.839413 180.208918 231.444148 178.74896 231.444148 177.226866 
C 231.444148 175.704771 230.839413 174.244813 229.76313 173.168529 
C 228.686847 172.092246 227.226888 171.487512 225.704794 171.487512 
C 224.182699 171.487512 222.722741 172.092246 221.646458 173.168529 
C 220.570174 174.244813 219.96544 175.704771 219.96544 177.226866 
C 219.96544 178.74896 220.570174 180.208918 221.646458 181.285202 
C 222.722741 182.361485 224.182699 182.96622 225.704794 182.96622 
z
" clip-path="url(#pcf1a1cfdff)" style="fill: #1f77b4; fill-opacity: 0.5; stroke: #ffffff; stroke-opacity: 0.5; stroke-width: 1.016031"/>
    <path d="M 231.94265 217.145128 
L 235.142785 213.944993 
L 238.34292 217.145128 
L 241.543055 213.944993 
L 238.34292 210.744858 
L 241.543055 207.544723 
L 238.34292 204.344588 
L 235.142785 207.544723 
L 231.94265 204.344588 
L 228.742515 207.544723 
L 231.94265 210.744858 
L 228.742515 213.944993 
z
" clip-path="url(#pcf1a1cfdff)" style="fill: #1f77b4; fill-opacity: 0.5; stroke: #ffffff; stroke-opacity: 0.5; stroke-width: 1.016031"/>
    <path d="M 232.534785 225.356135 
C 234.187472 225.356135 235.772692 224.699515 236.941318 223.530889 
C 238.109944 222.362263 238.766564 220.777043 238.766564 219.124356 
C 238.766564 217.471669 238.109944 215.886449 236.941318 214.717823 
C 235.772692 213.549197 234.187472 212.892577 232.534785 212.892577 
C 230.882098 212.892577 229.296878 213.549197 228.128251 214.717823 
C 226.959625 215.886449 226.303006 217.471669 226.303006 219.124356 
C 226.303006 220.777043 226.959625 222.362263 228.128251 223.530889 
C 229.296878 224.699515 230.882098 225.356135 232.534785 225.356135 
z
" clip-path="url(#pcf1a1cfdff)" style="fill: #1f77b4; fill-opacity: 0.5; stroke: #ffffff; stroke-opacity: 0.5; stroke-width: 1.016031"/>
    <path d="M 204.820222 215.918892 
C 206.192392 215.918892 207.508546 215.373723 208.478816 214.403452 
C 209.449087 213.433182 209.994256 212.117028 209.994256 210.744858 
C 209.994256 209.372688 209.449087 208.056534 208.478816 207.086263 
C 207.508546 206.115993 206.192392 205.570824 204.820222 205.570824 
C 203.448052 205.570824 202.131898 206.115993 201.161628 207.086263 
C 200.191357 208.056534 199.646188 209.372688 199.646188 210.744858 
C 199.646188 212.117028 200.191357 213.433182 201.161628 214.403452 
C 202.131898 215.373723 203.448052 215.918892 204.820222 215.918892 
z
" clip-path="url(#pcf1a1cfdff)" style="fill: #2ca02c; fill-opacity: 0.5; stroke: #ffffff; stroke-opacity: 0.5; stroke-width: 1.016031"/>
    <path d="M 216.566149 155.250649 
C 217.404795 155.250649 218.209205 154.917451 218.802217 154.324439 
C 219.395229 153.731427 219.728427 152.927017 219.728427 152.088371 
C 219.728427 151.249725 219.395229 150.445315 218.802217 149.852303 
C 218.209205 149.259291 217.404795 148.926094 216.566149 148.926094 
C 215.727503 148.926094 214.923093 149.259291 214.330081 149.852303 
C 213.737069 150.445315 213.403871 151.249725 213.403871 152.088371 
C 213.403871 152.927017 213.737069 153.731427 214.330081 154.324439 
C 214.923093 154.917451 215.727503 155.250649 216.566149 155.250649 
z
" clip-path="url(#pcf1a1cfdff)" style="fill: #2ca02c; fill-opacity: 0.5; stroke: #ffffff; stroke-opacity: 0.5; stroke-width: 1.016031"/>
   </g>
   <g id="matplotlib.axis_1">
    <g id="xtick_1">
     <g id="line2d_1">
      <defs>
       <path id="mb20d12767e" d="M 0 0 
L 0 3.5 
" style="stroke: #000000; stroke-width: 0.8"/>
      </defs>
      <g>
       <use xlink:href="#mb20d12767e" x="76.738493" y="245.93875" style="stroke: #000000; stroke-width: 0.8"/>
      </g>
     </g>
     <g id="text_1">
      <text style="font-size: 10px; font-family: 'DejaVu Sans', 'Bitstream Vera Sans', 'Computer Modern Sans Serif', 'Lucida Grande', 'Verdana', 'Geneva', 'Lucid', 'Arial', 'Helvetica', 'Avant Garde', sans-serif; text-anchor: middle" x="76.738493" y="260.537188" transform="rotate(-0 76.738493 260.537188)">50</text>
     </g>
    </g>
    <g id="xtick_2">
     <g id="line2d_2">
      <g>
       <use xlink:href="#mb20d12767e" x="117.821312" y="245.93875" style="stroke: #000000; stroke-width: 0.8"/>
      </g>
     </g>
     <g id="text_2">
      <text style="font-size: 10px; font-family: 'DejaVu Sans', 'Bitstream Vera Sans', 'Computer Modern Sans Serif', 'Lucida Grande', 'Verdana', 'Geneva', 'Lucid', 'Arial', 'Helvetica', 'Avant Garde', sans-serif; text-anchor: middle" x="117.821312" y="260.537188" transform="rotate(-0 117.821312 260.537188)">100</text>
     </g>
    </g>
    <g id="xtick_3">
     <g id="line2d_3">
      <g>
       <use xlink:href="#mb20d12767e" x="158.90413" y="245.93875" style="stroke: #000000; stroke-width: 0.8"/>
      </g>
     </g>
     <g id="text_3">
      <text style="font-size: 10px; font-family: 'DejaVu Sans', 'Bitstream Vera Sans', 'Computer Modern Sans Serif', 'Lucida Grande', 'Verdana', 'Geneva', 'Lucid', 'Arial', 'Helvetica', 'Avant Garde', sans-serif; text-anchor: middle" x="158.90413" y="260.537188" transform="rotate(-0 158.90413 260.537188)">150</text>
     </g>
    </g>
    <g id="xtick_4">
     <g id="line2d_4">
      <g>
       <use xlink:href="#mb20d12767e" x="199.986949" y="245.93875" style="stroke: #000000; stroke-width: 0.8"/>
      </g>
     </g>
     <g id="text_4">
      <text style="font-size: 10px; font-family: 'DejaVu Sans', 'Bitstream Vera Sans', 'Computer Modern Sans Serif', 'Lucida Grande', 'Verdana', 'Geneva', 'Lucid', 'Arial', 'Helvetica', 'Avant Garde', sans-serif; text-anchor: middle" x="199.986949" y="260.537188" transform="rotate(-0 199.986949 260.537188)">200</text>
     </g>
    </g>
    <g id="xtick_5">
     <g id="line2d_5">
      <g>
       <use xlink:href="#mb20d12767e" x="241.069768" y="245.93875" style="stroke: #000000; stroke-width: 0.8"/>
      </g>
     </g>
     <g id="text_5">
      <text style="font-size: 10px; font-family: 'DejaVu Sans', 'Bitstream Vera Sans', 'Computer Modern Sans Serif', 'Lucida Grande', 'Verdana', 'Geneva', 'Lucid', 'Arial', 'Helvetica', 'Avant Garde', sans-serif; text-anchor: middle" x="241.069768" y="260.537188" transform="rotate(-0 241.069768 260.537188)">250</text>
     </g>
    </g>
    <g id="text_6">
     <text style="font-size: 10px; font-family: 'DejaVu Sans', 'Bitstream Vera Sans', 'Computer Modern Sans Serif', 'Lucida Grande', 'Verdana', 'Geneva', 'Lucid', 'Arial', 'Helvetica', 'Avant Garde', sans-serif; text-anchor: middle" x="155.37" y="274.215312" transform="rotate(-0 155.37 274.215312)">Average_divergence_all</text>
    </g>
   </g>
   <g id="matplotlib.axis_2">
    <g id="ytick_1">
     <g id="line2d_6">
      <defs>
       <path id="m627b10fb42" d="M 0 0 
L -3.5 0 
" style="stroke: #000000; stroke-width: 0.8"/>
      </defs>
      <g>
       <use xlink:href="#m627b10fb42" x="44.57" y="244.26285" style="stroke: #000000; stroke-width: 0.8"/>
      </g>
     </g>
     <g id="text_7">
      <text style="font-size: 10px; font-family: 'DejaVu Sans', 'Bitstream Vera Sans', 'Computer Modern Sans Serif', 'Lucida Grande', 'Verdana', 'Geneva', 'Lucid', 'Arial', 'Helvetica', 'Avant Garde', sans-serif; text-anchor: end" x="37.57" y="248.062069" transform="rotate(-0 37.57 248.062069)">0</text>
     </g>
    </g>
    <g id="ytick_2">
     <g id="line2d_7">
      <g>
       <use xlink:href="#m627b10fb42" x="44.57" y="202.36536" style="stroke: #000000; stroke-width: 0.8"/>
      </g>
     </g>
     <g id="text_8">
      <text style="font-size: 10px; font-family: 'DejaVu Sans', 'Bitstream Vera Sans', 'Computer Modern Sans Serif', 'Lucida Grande', 'Verdana', 'Geneva', 'Lucid', 'Arial', 'Helvetica', 'Avant Garde', sans-serif; text-anchor: end" x="37.57" y="206.164579" transform="rotate(-0 37.57 206.164579)">5</text>
     </g>
    </g>
    <g id="ytick_3">
     <g id="line2d_8">
      <g>
       <use xlink:href="#m627b10fb42" x="44.57" y="160.467869" style="stroke: #000000; stroke-width: 0.8"/>
      </g>
     </g>
     <g id="text_9">
      <text style="font-size: 10px; font-family: 'DejaVu Sans', 'Bitstream Vera Sans', 'Computer Modern Sans Serif', 'Lucida Grande', 'Verdana', 'Geneva', 'Lucid', 'Arial', 'Helvetica', 'Avant Garde', sans-serif; text-anchor: end" x="37.57" y="164.267088" transform="rotate(-0 37.57 164.267088)">10</text>
     </g>
    </g>
    <g id="ytick_4">
     <g id="line2d_9">
      <g>
       <use xlink:href="#m627b10fb42" x="44.57" y="118.570379" style="stroke: #000000; stroke-width: 0.8"/>
      </g>
     </g>
     <g id="text_10">
      <text style="font-size: 10px; font-family: 'DejaVu Sans', 'Bitstream Vera Sans', 'Computer Modern Sans Serif', 'Lucida Grande', 'Verdana', 'Geneva', 'Lucid', 'Arial', 'Helvetica', 'Avant Garde', sans-serif; text-anchor: end" x="37.57" y="122.369598" transform="rotate(-0 37.57 122.369598)">15</text>
     </g>
    </g>
    <g id="ytick_5">
     <g id="line2d_10">
      <g>
       <use xlink:href="#m627b10fb42" x="44.57" y="76.672888" style="stroke: #000000; stroke-width: 0.8"/>
      </g>
     </g>
     <g id="text_11">
      <text style="font-size: 10px; font-family: 'DejaVu Sans', 'Bitstream Vera Sans', 'Computer Modern Sans Serif', 'Lucida Grande', 'Verdana', 'Geneva', 'Lucid', 'Arial', 'Helvetica', 'Avant Garde', sans-serif; text-anchor: end" x="37.57" y="80.472107" transform="rotate(-0 37.57 80.472107)">20</text>
     </g>
    </g>
    <g id="ytick_6">
     <g id="line2d_11">
      <g>
       <use xlink:href="#m627b10fb42" x="44.57" y="34.775398" style="stroke: #000000; stroke-width: 0.8"/>
      </g>
     </g>
     <g id="text_12">
      <text style="font-size: 10px; font-family: 'DejaVu Sans', 'Bitstream Vera Sans', 'Computer Modern Sans Serif', 'Lucida Grande', 'Verdana', 'Geneva', 'Lucid', 'Arial', 'Helvetica', 'Avant Garde', sans-serif; text-anchor: end" x="37.57" y="38.574616" transform="rotate(-0 37.57 38.574616)">25</text>
     </g>
    </g>
    <g id="text_13">
     <text style="font-size: 10px; font-family: 'DejaVu Sans', 'Bitstream Vera Sans', 'Computer Modern Sans Serif', 'Lucida Grande', 'Verdana', 'Geneva', 'Lucid', 'Arial', 'Helvetica', 'Avant Garde', sans-serif; text-anchor: middle" x="18.487188" y="135.329375" transform="rotate(-90 18.487188 135.329375)">GO_terms_count</text>
    </g>
   </g>
   <g id="line2d_12"/>
   <g id="line2d_13"/>
   <g id="line2d_14"/>
   <g id="line2d_15"/>
   <g id="line2d_16"/>
   <g id="line2d_17"/>
   <g id="line2d_18"/>
   <g id="line2d_19"/>
   <g id="line2d_20"/>
   <g id="line2d_21"/>
   <g id="line2d_22"/>
   <g id="line2d_23"/>
   <g id="line2d_24"/>
   <g id="line2d_25"/>
   <g id="line2d_26"/>
   <g id="line2d_27"/>
   <g id="patch_3">
    <path d="M 44.57 245.93875 
L 44.57 24.72 
" style="fill: none; stroke: #000000; stroke-width: 0.8; stroke-linejoin: miter; stroke-linecap: square"/>
   </g>
   <g id="patch_4">
    <path d="M 266.17 245.93875 
L 266.17 24.72 
" style="fill: none; stroke: #000000; stroke-width: 0.8; stroke-linejoin: miter; stroke-linecap: square"/>
   </g>
   <g id="patch_5">
    <path d="M 44.57 245.93875 
L 266.17 245.93875 
" style="fill: none; stroke: #000000; stroke-width: 0.8; stroke-linejoin: miter; stroke-linecap: square"/>
   </g>
   <g id="patch_6">
    <path d="M 44.57 24.72 
L 266.17 24.72 
" style="fill: none; stroke: #000000; stroke-width: 0.8; stroke-linejoin: miter; stroke-linecap: square"/>
   </g>
   <g id="text_14">
    <g id="patch_7">
     <path d="M 55.65 59.069281 
L 135.139688 59.069281 
Q 139.639688 59.069281 139.639688 54.569281 
L 139.639688 35.780937 
Q 139.639688 31.280937 135.139688 31.280937 
L 55.65 31.280937 
Q 51.15 31.280937 51.15 35.780937 
L 51.15 54.569281 
Q 51.15 59.069281 55.65 59.069281 
z
" style="fill: #ffffff; opacity: 0.8; stroke: #000000; stroke-linejoin: miter"/>
    </g>
    <text style="font-size: 9px; font-family: 'DejaVu Sans', 'Bitstream Vera Sans', 'Computer Modern Sans Serif', 'Lucida Grande', 'Verdana', 'Geneva', 'Lucid', 'Arial', 'Helvetica', 'Avant Garde', sans-serif" transform="translate(55.65 42.619531)">Pearson R: -0.285</text>
    <text style="font-size: 9px; font-family: 'DejaVu Sans', 'Bitstream Vera Sans', 'Computer Modern Sans Serif', 'Lucida Grande', 'Verdana', 'Geneva', 'Lucid', 'Arial', 'Helvetica', 'Avant Garde', sans-serif" transform="translate(55.65 52.697563)">p = 0.050</text>
   </g>
   <g id="text_15">
    <text style="font-size: 10px; font-family: 'DejaVu Sans', 'Bitstream Vera Sans', 'Computer Modern Sans Serif', 'Lucida Grande', 'Verdana', 'Geneva', 'Lucid', 'Arial', 'Helvetica', 'Avant Garde', sans-serif; text-anchor: middle" x="155.37" y="18.72" transform="rotate(-0 155.37 18.72)">GO_terms_count vs Average_divergence_all</text>
   </g>
   <g id="legend_1">
    <g id="patch_8">
     <path d="M 273.17 254.5325 
L 415.4325 254.5325 
Q 417.4325 254.5325 417.4325 252.5325 
L 417.4325 18.12625 
Q 417.4325 16.12625 415.4325 16.12625 
L 273.17 16.12625 
Q 271.17 16.12625 271.17 18.12625 
L 271.17 252.5325 
Q 271.17 254.5325 273.17 254.5325 
z
" style="fill: #ffffff; opacity: 0.8; stroke: #cccccc; stroke-linejoin: miter"/>
    </g>
    <g id="line2d_28"/>
    <g id="text_16">
     <text style="font-size: 10px; font-family: 'DejaVu Sans', 'Bitstream Vera Sans', 'Computer Modern Sans Serif', 'Lucida Grande', 'Verdana', 'Geneva', 'Lucid', 'Arial', 'Helvetica', 'Avant Garde', sans-serif; text-anchor: start" x="303.17" y="27.724687" transform="rotate(-0 303.17 27.724687)">subgroup_name</text>
    </g>
    <g id="line2d_29">
     <defs>
      <path id="m2d68ece481" d="M 0 3 
C 0.795609 3 1.55874 2.683901 2.12132 2.12132 
C 2.683901 1.55874 3 0.795609 3 0 
C 3 -0.795609 2.683901 -1.55874 2.12132 -2.12132 
C 1.55874 -2.683901 0.795609 -3 0 -3 
C -0.795609 -3 -1.55874 -2.683901 -2.12132 -2.12132 
C -2.683901 -1.55874 -3 -0.795609 -3 0 
C -3 0.795609 -2.683901 1.55874 -2.12132 2.12132 
C -1.55874 2.683901 -0.795609 3 0 3 
z
" style="stroke: #ffffff; stroke-opacity: 0.5; stroke-width: 1.016031"/>
     </defs>
     <g>
      <use xlink:href="#m2d68ece481" x="285.17" y="39.180937" style="fill: #1f77b4; fill-opacity: 0.5; stroke: #ffffff; stroke-opacity: 0.5; stroke-width: 1.016031"/>
     </g>
    </g>
    <g id="text_17">
     <text style="font-size: 10px; font-family: 'DejaVu Sans', 'Bitstream Vera Sans', 'Computer Modern Sans Serif', 'Lucida Grande', 'Verdana', 'Geneva', 'Lucid', 'Arial', 'Helvetica', 'Avant Garde', sans-serif; text-anchor: start" x="303.17" y="42.680937" transform="rotate(-0 303.17 42.680937)">L1M</text>
    </g>
    <g id="line2d_30">
     <defs>
      <path id="m81402e84d0" d="M 0 3 
C 0.795609 3 1.55874 2.683901 2.12132 2.12132 
C 2.683901 1.55874 3 0.795609 3 0 
C 3 -0.795609 2.683901 -1.55874 2.12132 -2.12132 
C 1.55874 -2.683901 0.795609 -3 0 -3 
C -0.795609 -3 -1.55874 -2.683901 -2.12132 -2.12132 
C -2.683901 -1.55874 -3 -0.795609 -3 0 
C -3 0.795609 -2.683901 1.55874 -2.12132 2.12132 
C -1.55874 2.683901 -0.795609 3 0 3 
z
" style="stroke: #ffffff; stroke-opacity: 0.5; stroke-width: 1.016031"/>
     </defs>
     <g>
      <use xlink:href="#m81402e84d0" x="285.17" y="53.859062" style="fill: #ff7f0e; fill-opacity: 0.5; stroke: #ffffff; stroke-opacity: 0.5; stroke-width: 1.016031"/>
     </g>
    </g>
    <g id="text_18">
     <text style="font-size: 10px; font-family: 'DejaVu Sans', 'Bitstream Vera Sans', 'Computer Modern Sans Serif', 'Lucida Grande', 'Verdana', 'Geneva', 'Lucid', 'Arial', 'Helvetica', 'Avant Garde', sans-serif; text-anchor: start" x="303.17" y="57.359062" transform="rotate(-0 303.17 57.359062)">L1PA</text>
    </g>
    <g id="line2d_31">
     <defs>
      <path id="m5ad0e88973" d="M 0 3 
C 0.795609 3 1.55874 2.683901 2.12132 2.12132 
C 2.683901 1.55874 3 0.795609 3 0 
C 3 -0.795609 2.683901 -1.55874 2.12132 -2.12132 
C 1.55874 -2.683901 0.795609 -3 0 -3 
C -0.795609 -3 -1.55874 -2.683901 -2.12132 -2.12132 
C -2.683901 -1.55874 -3 -0.795609 -3 0 
C -3 0.795609 -2.683901 1.55874 -2.12132 2.12132 
C -1.55874 2.683901 -0.795609 3 0 3 
z
" style="stroke: #ffffff; stroke-opacity: 0.5; stroke-width: 1.016031"/>
     </defs>
     <g>
      <use xlink:href="#m5ad0e88973" x="285.17" y="68.537187" style="fill: #2ca02c; fill-opacity: 0.5; stroke: #ffffff; stroke-opacity: 0.5; stroke-width: 1.016031"/>
     </g>
    </g>
    <g id="text_19">
     <text style="font-size: 10px; font-family: 'DejaVu Sans', 'Bitstream Vera Sans', 'Computer Modern Sans Serif', 'Lucida Grande', 'Verdana', 'Geneva', 'Lucid', 'Arial', 'Helvetica', 'Avant Garde', sans-serif; text-anchor: start" x="303.17" y="72.037187" transform="rotate(-0 303.17 72.037187)">L1P</text>
    </g>
    <g id="line2d_32">
     <defs>
      <path id="m7e56db2ce4" d="M 0 3 
C 0.795609 3 1.55874 2.683901 2.12132 2.12132 
C 2.683901 1.55874 3 0.795609 3 0 
C 3 -0.795609 2.683901 -1.55874 2.12132 -2.12132 
C 1.55874 -2.683901 0.795609 -3 0 -3 
C -0.795609 -3 -1.55874 -2.683901 -2.12132 -2.12132 
C -2.683901 -1.55874 -3 -0.795609 -3 0 
C -3 0.795609 -2.683901 1.55874 -2.12132 2.12132 
C -1.55874 2.683901 -0.795609 3 0 3 
z
" style="stroke: #ffffff; stroke-opacity: 0.5; stroke-width: 1.016031"/>
     </defs>
     <g>
      <use xlink:href="#m7e56db2ce4" x="285.17" y="83.215312" style="fill: #d62728; fill-opacity: 0.5; stroke: #ffffff; stroke-opacity: 0.5; stroke-width: 1.016031"/>
     </g>
    </g>
    <g id="text_20">
     <text style="font-size: 10px; font-family: 'DejaVu Sans', 'Bitstream Vera Sans', 'Computer Modern Sans Serif', 'Lucida Grande', 'Verdana', 'Geneva', 'Lucid', 'Arial', 'Helvetica', 'Avant Garde', sans-serif; text-anchor: start" x="303.17" y="86.715312" transform="rotate(-0 303.17 86.715312)">L1PB</text>
    </g>
    <g id="line2d_33">
     <defs>
      <path id="m1122c6a526" d="M 0 3 
C 0.795609 3 1.55874 2.683901 2.12132 2.12132 
C 2.683901 1.55874 3 0.795609 3 0 
C 3 -0.795609 2.683901 -1.55874 2.12132 -2.12132 
C 1.55874 -2.683901 0.795609 -3 0 -3 
C -0.795609 -3 -1.55874 -2.683901 -2.12132 -2.12132 
C -2.683901 -1.55874 -3 -0.795609 -3 0 
C -3 0.795609 -2.683901 1.55874 -2.12132 2.12132 
C -1.55874 2.683901 -0.795609 3 0 3 
z
" style="stroke: #ffffff; stroke-opacity: 0.5; stroke-width: 1.016031"/>
     </defs>
     <g>
      <use xlink:href="#m1122c6a526" x="285.17" y="97.893437" style="fill: #9467bd; fill-opacity: 0.5; stroke: #ffffff; stroke-opacity: 0.5; stroke-width: 1.016031"/>
     </g>
    </g>
    <g id="text_21">
     <text style="font-size: 10px; font-family: 'DejaVu Sans', 'Bitstream Vera Sans', 'Computer Modern Sans Serif', 'Lucida Grande', 'Verdana', 'Geneva', 'Lucid', 'Arial', 'Helvetica', 'Avant Garde', sans-serif; text-anchor: start" x="303.17" y="101.393437" transform="rotate(-0 303.17 101.393437)">L1HS</text>
    </g>
    <g id="line2d_34"/>
    <g id="text_22">
     <text style="font-size: 10px; font-family: 'DejaVu Sans', 'Bitstream Vera Sans', 'Computer Modern Sans Serif', 'Lucida Grande', 'Verdana', 'Geneva', 'Lucid', 'Arial', 'Helvetica', 'Avant Garde', sans-serif; text-anchor: start" x="303.17" y="116.071562" transform="rotate(-0 303.17 116.071562)">Total_TEs_number_log</text>
    </g>
    <g id="line2d_35">
     <defs>
      <path id="mc37025f3e3" d="M 0 4.576325 
C 1.213656 4.576325 2.377767 4.094135 3.235951 3.235951 
C 4.094135 2.377767 4.576325 1.213656 4.576325 0 
C 4.576325 -1.213656 4.094135 -2.377767 3.235951 -3.235951 
C 2.377767 -4.094135 1.213656 -4.576325 0 -4.576325 
C -1.213656 -4.576325 -2.377767 -4.094135 -3.235951 -3.235951 
C -4.094135 -2.377767 -4.576325 -1.213656 -4.576325 0 
C -4.576325 1.213656 -4.094135 2.377767 -3.235951 3.235951 
C -2.377767 4.094135 -1.213656 4.576325 0 4.576325 
z
" style="stroke: #ffffff; stroke-opacity: 0.5; stroke-width: 1.016031"/>
     </defs>
     <g>
      <use xlink:href="#mc37025f3e3" x="285.17" y="127.527812" style="fill: #333333; fill-opacity: 0.5; stroke: #ffffff; stroke-opacity: 0.5; stroke-width: 1.016031"/>
     </g>
    </g>
    <g id="text_23">
     <text style="font-size: 10px; font-family: 'DejaVu Sans', 'Bitstream Vera Sans', 'Computer Modern Sans Serif', 'Lucida Grande', 'Verdana', 'Geneva', 'Lucid', 'Arial', 'Helvetica', 'Avant Garde', sans-serif; text-anchor: start" x="303.17" y="131.027812" transform="rotate(-0 303.17 131.027812)">2.0</text>
    </g>
    <g id="line2d_36">
     <defs>
      <path id="mc5a019908e" d="M 0 6.059709 
C 1.607054 6.059709 3.148503 5.42122 4.284861 4.284861 
C 5.42122 3.148503 6.059709 1.607054 6.059709 0 
C 6.059709 -1.607054 5.42122 -3.148503 4.284861 -4.284861 
C 3.148503 -5.42122 1.607054 -6.059709 0 -6.059709 
C -1.607054 -6.059709 -3.148503 -5.42122 -4.284861 -4.284861 
C -5.42122 -3.148503 -6.059709 -1.607054 -6.059709 0 
C -6.059709 1.607054 -5.42122 3.148503 -4.284861 4.284861 
C -3.148503 5.42122 -1.607054 6.059709 0 6.059709 
z
" style="stroke: #ffffff; stroke-opacity: 0.5; stroke-width: 1.016031"/>
     </defs>
     <g>
      <use xlink:href="#mc5a019908e" x="285.17" y="142.205938" style="fill: #333333; fill-opacity: 0.5; stroke: #ffffff; stroke-opacity: 0.5; stroke-width: 1.016031"/>
     </g>
    </g>
    <g id="text_24">
     <text style="font-size: 10px; font-family: 'DejaVu Sans', 'Bitstream Vera Sans', 'Computer Modern Sans Serif', 'Lucida Grande', 'Verdana', 'Geneva', 'Lucid', 'Arial', 'Helvetica', 'Avant Garde', sans-serif; text-anchor: start" x="303.17" y="145.705938" transform="rotate(-0 303.17 145.705938)">2.5</text>
    </g>
    <g id="line2d_37">
     <defs>
      <path id="m03d855aac0" d="M 0 7.245509 
C 1.921531 7.245509 3.76462 6.482076 5.123348 5.123348 
C 6.482076 3.76462 7.245509 1.921531 7.245509 0 
C 7.245509 -1.921531 6.482076 -3.76462 5.123348 -5.123348 
C 3.76462 -6.482076 1.921531 -7.245509 0 -7.245509 
C -1.921531 -7.245509 -3.76462 -6.482076 -5.123348 -5.123348 
C -6.482076 -3.76462 -7.245509 -1.921531 -7.245509 0 
C -7.245509 1.921531 -6.482076 3.76462 -5.123348 5.123348 
C -3.76462 6.482076 -1.921531 7.245509 0 7.245509 
z
" style="stroke: #ffffff; stroke-opacity: 0.5; stroke-width: 1.016031"/>
     </defs>
     <g>
      <use xlink:href="#m03d855aac0" x="285.17" y="156.884062" style="fill: #333333; fill-opacity: 0.5; stroke: #ffffff; stroke-opacity: 0.5; stroke-width: 1.016031"/>
     </g>
    </g>
    <g id="text_25">
     <text style="font-size: 10px; font-family: 'DejaVu Sans', 'Bitstream Vera Sans', 'Computer Modern Sans Serif', 'Lucida Grande', 'Verdana', 'Geneva', 'Lucid', 'Arial', 'Helvetica', 'Avant Garde', sans-serif; text-anchor: start" x="303.17" y="160.384062" transform="rotate(-0 303.17 160.384062)">3.0</text>
    </g>
    <g id="line2d_38">
     <defs>
      <path id="m658acc8404" d="M 0 8.262852 
C 2.191334 8.262852 4.293211 7.392226 5.842718 5.842718 
C 7.392226 4.293211 8.262852 2.191334 8.262852 0 
C 8.262852 -2.191334 7.392226 -4.293211 5.842718 -5.842718 
C 4.293211 -7.392226 2.191334 -8.262852 0 -8.262852 
C -2.191334 -8.262852 -4.293211 -7.392226 -5.842718 -5.842718 
C -7.392226 -4.293211 -8.262852 -2.191334 -8.262852 0 
C -8.262852 2.191334 -7.392226 4.293211 -5.842718 5.842718 
C -4.293211 7.392226 -2.191334 8.262852 0 8.262852 
z
" style="stroke: #ffffff; stroke-opacity: 0.5; stroke-width: 1.016031"/>
     </defs>
     <g>
      <use xlink:href="#m658acc8404" x="285.17" y="171.562187" style="fill: #333333; fill-opacity: 0.5; stroke: #ffffff; stroke-opacity: 0.5; stroke-width: 1.016031"/>
     </g>
    </g>
    <g id="text_26">
     <text style="font-size: 10px; font-family: 'DejaVu Sans', 'Bitstream Vera Sans', 'Computer Modern Sans Serif', 'Lucida Grande', 'Verdana', 'Geneva', 'Lucid', 'Arial', 'Helvetica', 'Avant Garde', sans-serif; text-anchor: start" x="303.17" y="175.062187" transform="rotate(-0 303.17 175.062187)">3.5</text>
    </g>
    <g id="line2d_39">
     <defs>
      <path id="mea6f6a2381" d="M 0 9.16799 
C 2.431379 9.16799 4.763503 8.201993 6.482748 6.482748 
C 8.201993 4.763503 9.16799 2.431379 9.16799 0 
C 9.16799 -2.431379 8.201993 -4.763503 6.482748 -6.482748 
C 4.763503 -8.201993 2.431379 -9.16799 0 -9.16799 
C -2.431379 -9.16799 -4.763503 -8.201993 -6.482748 -6.482748 
C -8.201993 -4.763503 -9.16799 -2.431379 -9.16799 0 
C -9.16799 2.431379 -8.201993 4.763503 -6.482748 6.482748 
C -4.763503 8.201993 -2.431379 9.16799 0 9.16799 
z
" style="stroke: #ffffff; stroke-opacity: 0.5; stroke-width: 1.016031"/>
     </defs>
     <g>
      <use xlink:href="#mea6f6a2381" x="285.17" y="186.240312" style="fill: #333333; fill-opacity: 0.5; stroke: #ffffff; stroke-opacity: 0.5; stroke-width: 1.016031"/>
     </g>
    </g>
    <g id="text_27">
     <text style="font-size: 10px; font-family: 'DejaVu Sans', 'Bitstream Vera Sans', 'Computer Modern Sans Serif', 'Lucida Grande', 'Verdana', 'Geneva', 'Lucid', 'Arial', 'Helvetica', 'Avant Garde', sans-serif; text-anchor: start" x="303.17" y="189.740312" transform="rotate(-0 303.17 189.740312)">4.0</text>
    </g>
    <g id="line2d_40">
     <defs>
      <path id="m85dd401339" d="M 0 9.991464 
C 2.649767 9.991464 5.191364 8.938701 7.065032 7.065032 
C 8.938701 5.191364 9.991464 2.649767 9.991464 0 
C 9.991464 -2.649767 8.938701 -5.191364 7.065032 -7.065032 
C 5.191364 -8.938701 2.649767 -9.991464 0 -9.991464 
C -2.649767 -9.991464 -5.191364 -8.938701 -7.065032 -7.065032 
C -8.938701 -5.191364 -9.991464 -2.649767 -9.991464 0 
C -9.991464 2.649767 -8.938701 5.191364 -7.065032 7.065032 
C -5.191364 8.938701 -2.649767 9.991464 0 9.991464 
z
" style="stroke: #ffffff; stroke-opacity: 0.5; stroke-width: 1.016031"/>
     </defs>
     <g>
      <use xlink:href="#m85dd401339" x="285.17" y="200.918437" style="fill: #333333; fill-opacity: 0.5; stroke: #ffffff; stroke-opacity: 0.5; stroke-width: 1.016031"/>
     </g>
    </g>
    <g id="text_28">
     <text style="font-size: 10px; font-family: 'DejaVu Sans', 'Bitstream Vera Sans', 'Computer Modern Sans Serif', 'Lucida Grande', 'Verdana', 'Geneva', 'Lucid', 'Arial', 'Helvetica', 'Avant Garde', sans-serif; text-anchor: start" x="303.17" y="204.418437" transform="rotate(-0 303.17 204.418437)">4.5</text>
    </g>
    <g id="line2d_41"/>
    <g id="text_29">
     <text style="font-size: 10px; font-family: 'DejaVu Sans', 'Bitstream Vera Sans', 'Computer Modern Sans Serif', 'Lucida Grande', 'Verdana', 'Geneva', 'Lucid', 'Arial', 'Helvetica', 'Avant Garde', sans-serif; text-anchor: start" x="303.17" y="219.096562" transform="rotate(-0 303.17 219.096562)">Status</text>
    </g>
    <g id="line2d_42">
     <defs>
      <path id="m9e4972cefa" d="M 0 3 
C 0.795609 3 1.55874 2.683901 2.12132 2.12132 
C 2.683901 1.55874 3 0.795609 3 0 
C 3 -0.795609 2.683901 -1.55874 2.12132 -2.12132 
C 1.55874 -2.683901 0.795609 -3 0 -3 
C -0.795609 -3 -1.55874 -2.683901 -2.12132 -2.12132 
C -2.683901 -1.55874 -3 -0.795609 -3 0 
C -3 0.795609 -2.683901 1.55874 -2.12132 2.12132 
C -1.55874 2.683901 -0.795609 3 0 3 
z
" style="stroke: #ffffff; stroke-opacity: 0.5; stroke-width: 1.016031"/>
     </defs>
     <g>
      <use xlink:href="#m9e4972cefa" x="285.17" y="230.274687" style="fill: #333333; fill-opacity: 0.5; stroke: #ffffff; stroke-opacity: 0.5; stroke-width: 1.016031"/>
     </g>
    </g>
    <g id="text_30">
     <text style="font-size: 10px; font-family: 'DejaVu Sans', 'Bitstream Vera Sans', 'Computer Modern Sans Serif', 'Lucida Grande', 'Verdana', 'Geneva', 'Lucid', 'Arial', 'Helvetica', 'Avant Garde', sans-serif; text-anchor: start" x="303.17" y="233.774687" transform="rotate(-0 303.17 233.774687)">Significant</text>
    </g>
    <g id="line2d_43">
     <defs>
      <path id="ma6ad1851b8" d="M -1.5 3 
L 0 1.5 
L 1.5 3 
L 3 1.5 
L 1.5 0 
L 3 -1.5 
L 1.5 -3 
L 0 -1.5 
L -1.5 -3 
L -3 -1.5 
L -1.5 0 
L -3 1.5 
z
" style="stroke: #ffffff; stroke-opacity: 0.5; stroke-width: 1.016031; stroke-linejoin: miter"/>
     </defs>
     <g>
      <use xlink:href="#ma6ad1851b8" x="285.17" y="244.952812" style="fill: #333333; fill-opacity: 0.5; stroke: #ffffff; stroke-opacity: 0.5; stroke-width: 1.016031; stroke-linejoin: miter"/>
     </g>
    </g>
    <g id="text_31">
     <text style="font-size: 10px; font-family: 'DejaVu Sans', 'Bitstream Vera Sans', 'Computer Modern Sans Serif', 'Lucida Grande', 'Verdana', 'Geneva', 'Lucid', 'Arial', 'Helvetica', 'Avant Garde', sans-serif; text-anchor: start" x="303.17" y="248.452812" transform="rotate(-0 303.17 248.452812)">Non-Significant</text>
    </g>
   </g>
  </g>
 </g>
 <defs>
  <clipPath id="pcf1a1cfdff">
   <rect x="44.57" y="24.72" width="221.6" height="221.21875"/>
  </clipPath>
 </defs>
</svg>
