<?xml version="1.0" encoding="utf-8" standalone="no"?>
<!DOCTYPE svg PUBLIC "-//W3C//DTD SVG 1.1//EN"
  "http://www.w3.org/Graphics/SVG/1.1/DTD/svg11.dtd">
<svg xmlns:xlink="http://www.w3.org/1999/xlink" width="504pt" height="288pt" viewBox="0 0 504 288" xmlns="http://www.w3.org/2000/svg" version="1.1">
 <metadata>
  <rdf:RDF xmlns:dc="http://purl.org/dc/elements/1.1/" xmlns:cc="http://creativecommons.org/ns#" xmlns:rdf="http://www.w3.org/1999/02/22-rdf-syntax-ns#">
   <cc:Work>
    <dc:type rdf:resource="http://purl.org/dc/dcmitype/StillImage"/>
    <dc:date>2026-01-11T13:46:20.606709</dc:date>
    <dc:format>image/svg+xml</dc:format>
    <dc:creator>
     <cc:Agent>
      <dc:title>Matplotlib v3.10.8, https://matplotlib.org/</dc:title>
     </cc:Agent>
    </dc:creator>
   </cc:Work>
  </rdf:RDF>
 </metadata>
 <defs>
  <style type="text/css">*{stroke-linejoin: round; stroke-linecap: butt}</style>
 </defs>
 <g id="figure_1">
  <g id="patch_1">
   <path d="M 0 288 
L 504 288 
L 504 0 
L 0 0 
L 0 288 
z
" style="fill: none"/>
  </g>
  <g id="axes_1">
   <g id="patch_2">
    <path d="M 44.57 245.93875 
L 263.02 245.93875 
L 263.02 24.72 
L 44.57 24.72 
L 44.57 245.93875 
z
" style="fill: none"/>
   </g>
   <g id="PathCollection_1">
    <path d="M 167.974522 191.563834 
C 168.770131 191.563834 169.533261 191.247735 170.095842 190.685154 
C 170.658423 190.122573 170.974522 189.359443 170.974522 188.563834 
C 170.974522 187.768224 170.658423 187.005094 170.095842 186.442513 
C 169.533261 185.879932 168.770131 185.563834 167.974522 185.563834 
C 167.178912 185.563834 166.415782 185.879932 165.853201 186.442513 
C 165.290621 187.005094 164.974522 187.768224 164.974522 188.563834 
C 164.974522 189.359443 165.290621 190.122573 165.853201 190.685154 
C 166.415782 191.247735 167.178912 191.563834 167.974522 191.563834 
z
" clip-path="url(#pfa49dbc97e)" style="fill: #70453c; stroke: #ffffff; stroke-width: 0.48"/>
    <path d="M 196.7059 179.733954 
C 197.501509 179.733954 198.264639 179.417855 198.82722 178.855274 
C 199.389801 178.292693 199.7059 177.529563 199.7059 176.733954 
C 199.7059 175.938345 199.389801 175.175214 198.82722 174.612634 
C 198.264639 174.050053 197.501509 173.733954 196.7059 173.733954 
C 195.910291 173.733954 195.14716 174.050053 194.58458 174.612634 
C 194.021999 175.175214 193.7059 175.938345 193.7059 176.733954 
C 193.7059 177.529563 194.021999 178.292693 194.58458 178.855274 
C 195.14716 179.417855 195.910291 179.733954 196.7059 179.733954 
z
" clip-path="url(#pfa49dbc97e)" style="fill: #70453c; stroke: #ffffff; stroke-width: 0.48"/>
    <path d="M 236.973092 219.166886 
C 237.768701 219.166886 238.531831 218.850787 239.094412 218.288206 
C 239.656993 217.725626 239.973092 216.962495 239.973092 216.166886 
C 239.973092 215.371277 239.656993 214.608147 239.094412 214.045566 
C 238.531831 213.482985 237.768701 213.166886 236.973092 213.166886 
C 236.177482 213.166886 235.414352 213.482985 234.851771 214.045566 
C 234.289191 214.608147 233.973092 215.371277 233.973092 216.166886 
C 233.973092 216.962495 234.289191 217.725626 234.851771 218.288206 
C 235.414352 218.850787 236.177482 219.166886 236.973092 219.166886 
z
" clip-path="url(#pfa49dbc97e)" style="fill: #70453c; stroke: #ffffff; stroke-width: 0.48"/>
    <path d="M 126.913961 144.244315 
C 127.709571 144.244315 128.472701 143.928216 129.035282 143.365635 
C 129.597863 142.803054 129.913961 142.039924 129.913961 141.244315 
C 129.913961 140.448706 129.597863 139.685575 129.035282 139.122994 
C 128.472701 138.560414 127.709571 138.244315 126.913961 138.244315 
C 126.118352 138.244315 125.355222 138.560414 124.792641 139.122994 
C 124.23006 139.685575 123.913961 140.448706 123.913961 141.244315 
C 123.913961 142.039924 124.23006 142.803054 124.792641 143.365635 
C 125.355222 143.928216 126.118352 144.244315 126.913961 144.244315 
z
" clip-path="url(#pfa49dbc97e)" style="fill: #70453c; stroke: #ffffff; stroke-width: 0.48"/>
    <path d="M 213.362073 238.883352 
L 214.862073 237.383352 
L 216.362073 238.883352 
L 217.862073 237.383352 
L 216.362073 235.883352 
L 217.862073 234.383352 
L 216.362073 232.883352 
L 214.862073 234.383352 
L 213.362073 232.883352 
L 211.862073 234.383352 
L 213.362073 235.883352 
L 211.862073 237.383352 
z
" clip-path="url(#pfa49dbc97e)" style="fill: #195f90; stroke: #ffffff; stroke-width: 0.48"/>
    <path d="M 192.972048 215.223593 
C 193.767657 215.223593 194.530788 214.907494 195.093368 214.344913 
C 195.655949 213.782333 195.972048 213.019202 195.972048 212.223593 
C 195.972048 211.427984 195.655949 210.664853 195.093368 210.102273 
C 194.530788 209.539692 193.767657 209.223593 192.972048 209.223593 
C 192.176439 209.223593 191.413309 209.539692 190.850728 210.102273 
C 190.288147 210.664853 189.972048 211.427984 189.972048 212.223593 
C 189.972048 213.019202 190.288147 213.782333 190.850728 214.344913 
C 191.413309 214.907494 192.176439 215.223593 192.972048 215.223593 
z
" clip-path="url(#pfa49dbc97e)" style="fill: #195f90; stroke: #ffffff; stroke-width: 0.48"/>
    <path d="M 245.83698 238.883352 
L 247.33698 237.383352 
L 248.83698 238.883352 
L 250.33698 237.383352 
L 248.83698 235.883352 
L 250.33698 234.383352 
L 248.83698 232.883352 
L 247.33698 234.383352 
L 245.83698 232.883352 
L 244.33698 234.383352 
L 245.83698 235.883352 
L 244.33698 237.383352 
z
" clip-path="url(#pfa49dbc97e)" style="fill: #cc660b; stroke: #ffffff; stroke-width: 0.48"/>
    <path d="M 150.824701 156.074195 
C 151.62031 156.074195 152.38344 155.758096 152.946021 155.195515 
C 153.508602 154.632934 153.824701 153.869804 153.824701 153.074195 
C 153.824701 152.278585 153.508602 151.515455 152.946021 150.952874 
C 152.38344 150.390293 151.62031 150.074195 150.824701 150.074195 
C 150.029091 150.074195 149.265961 150.390293 148.70338 150.952874 
C 148.1408 151.515455 147.824701 152.278585 147.824701 153.074195 
C 147.824701 153.869804 148.1408 154.632934 148.70338 155.195515 
C 149.265961 155.758096 150.029091 156.074195 150.824701 156.074195 
z
" clip-path="url(#pfa49dbc97e)" style="fill: #cc660b; stroke: #ffffff; stroke-width: 0.48"/>
    <path d="M 52.999545 230.996766 
L 54.499545 229.496766 
L 55.999545 230.996766 
L 57.499545 229.496766 
L 55.999545 227.996766 
L 57.499545 226.496766 
L 55.999545 224.996766 
L 54.499545 226.496766 
L 52.999545 224.996766 
L 51.499545 226.496766 
L 52.999545 227.996766 
L 51.499545 229.496766 
z
" clip-path="url(#pfa49dbc97e)" style="fill: #70453c; stroke: #ffffff; stroke-width: 0.48"/>
    <path d="M 240.198318 112.697969 
C 240.993928 112.697969 241.757058 112.38187 242.319639 111.819289 
C 242.88222 111.256709 243.198318 110.493578 243.198318 109.697969 
C 243.198318 108.90236 242.88222 108.139229 242.319639 107.576649 
C 241.757058 107.014068 240.993928 106.697969 240.198318 106.697969 
C 239.402709 106.697969 238.639579 107.014068 238.076998 107.576649 
C 237.514417 108.139229 237.198318 108.90236 237.198318 109.697969 
C 237.198318 110.493578 237.514417 111.256709 238.076998 111.819289 
C 238.639579 112.38187 239.402709 112.697969 240.198318 112.697969 
z
" clip-path="url(#pfa49dbc97e)" style="fill: #ab1f20; stroke: #ffffff; stroke-width: 0.48"/>
    <path d="M 253.090455 207.337006 
C 253.886064 207.337006 254.649194 207.020908 255.211775 206.458327 
C 255.774356 205.895746 256.090455 205.132616 256.090455 204.337006 
C 256.090455 203.541397 255.774356 202.778267 255.211775 202.215686 
C 254.649194 201.653105 253.886064 201.337006 253.090455 201.337006 
C 252.294845 201.337006 251.531715 201.653105 250.969134 202.215686 
C 250.406553 202.778267 250.090455 203.541397 250.090455 204.337006 
C 250.090455 205.132616 250.406553 205.895746 250.969134 206.458327 
C 251.531715 207.020908 252.294845 207.337006 253.090455 207.337006 
z
" clip-path="url(#pfa49dbc97e)" style="fill: #cc660b; stroke: #ffffff; stroke-width: 0.48"/>
    <path d="M 94.790833 37.775398 
C 95.586442 37.775398 96.349572 37.459299 96.912153 36.896718 
C 97.474734 36.334137 97.790833 35.571007 97.790833 34.775398 
C 97.790833 33.979788 97.474734 33.216658 96.912153 32.654077 
C 96.349572 32.091497 95.586442 31.775398 94.790833 31.775398 
C 93.995223 31.775398 93.232093 32.091497 92.669512 32.654077 
C 92.106932 33.216658 91.790833 33.979788 91.790833 34.775398 
C 91.790833 35.571007 92.106932 36.334137 92.669512 36.896718 
C 93.232093 37.459299 93.995223 37.775398 94.790833 37.775398 
z
" clip-path="url(#pfa49dbc97e)" style="fill: #ab1f20; stroke: #ffffff; stroke-width: 0.48"/>
    <path d="M 129.985633 219.166886 
C 130.781242 219.166886 131.544372 218.850787 132.106953 218.288206 
C 132.669534 217.725626 132.985633 216.962495 132.985633 216.166886 
C 132.985633 215.371277 132.669534 214.608147 132.106953 214.045566 
C 131.544372 213.482985 130.781242 213.166886 129.985633 213.166886 
C 129.190023 213.166886 128.426893 213.482985 127.864312 214.045566 
C 127.301732 214.608147 126.985633 215.371277 126.985633 216.166886 
C 126.985633 216.962495 127.301732 217.725626 127.864312 218.288206 
C 128.426893 218.850787 129.190023 219.166886 129.985633 219.166886 
z
" clip-path="url(#pfa49dbc97e)" style="fill: #765297; stroke: #ffffff; stroke-width: 0.48"/>
    <path d="M 249.753534 238.883352 
C 250.549143 238.883352 251.312274 238.567253 251.874854 238.004673 
C 252.437435 237.442092 252.753534 236.678962 252.753534 235.883352 
C 252.753534 235.087743 252.437435 234.324613 251.874854 233.762032 
C 251.312274 233.199451 250.549143 232.883352 249.753534 232.883352 
C 248.957925 232.883352 248.194794 233.199451 247.632214 233.762032 
C 247.069633 234.324613 246.753534 235.087743 246.753534 235.883352 
C 246.753534 236.678962 247.069633 237.442092 247.632214 238.004673 
C 248.194794 238.567253 248.957925 238.883352 249.753534 238.883352 
z
" clip-path="url(#pfa49dbc97e)" style="fill: #cc660b; stroke: #ffffff; stroke-width: 0.48"/>
   </g>
   <g id="matplotlib.axis_1">
    <g id="xtick_1">
     <g id="line2d_1">
      <defs>
       <path id="ma0d536a879" d="M 0 0 
L 0 3.5 
" style="stroke: #000000; stroke-width: 0.8"/>
      </defs>
      <g>
       <use xlink:href="#ma0d536a879" x="68.079347" y="245.93875" style="stroke: #000000; stroke-width: 0.8"/>
      </g>
     </g>
     <g id="text_1">
      <text style="font-size: 10px; font-family: 'DejaVu Sans', 'Bitstream Vera Sans', 'Computer Modern Sans Serif', 'Lucida Grande', 'Verdana', 'Geneva', 'Lucid', 'Arial', 'Helvetica', 'Avant Garde', sans-serif; text-anchor: middle" x="68.079347" y="260.537188" transform="rotate(-0 68.079347 260.537188)">100</text>
     </g>
    </g>
    <g id="xtick_2">
     <g id="line2d_2">
      <g>
       <use xlink:href="#ma0d536a879" x="114.991757" y="245.93875" style="stroke: #000000; stroke-width: 0.8"/>
      </g>
     </g>
     <g id="text_2">
      <text style="font-size: 10px; font-family: 'DejaVu Sans', 'Bitstream Vera Sans', 'Computer Modern Sans Serif', 'Lucida Grande', 'Verdana', 'Geneva', 'Lucid', 'Arial', 'Helvetica', 'Avant Garde', sans-serif; text-anchor: middle" x="114.991757" y="260.537188" transform="rotate(-0 114.991757 260.537188)">150</text>
     </g>
    </g>
    <g id="xtick_3">
     <g id="line2d_3">
      <g>
       <use xlink:href="#ma0d536a879" x="161.904166" y="245.93875" style="stroke: #000000; stroke-width: 0.8"/>
      </g>
     </g>
     <g id="text_3">
      <text style="font-size: 10px; font-family: 'DejaVu Sans', 'Bitstream Vera Sans', 'Computer Modern Sans Serif', 'Lucida Grande', 'Verdana', 'Geneva', 'Lucid', 'Arial', 'Helvetica', 'Avant Garde', sans-serif; text-anchor: middle" x="161.904166" y="260.537188" transform="rotate(-0 161.904166 260.537188)">200</text>
     </g>
    </g>
    <g id="xtick_4">
     <g id="line2d_4">
      <g>
       <use xlink:href="#ma0d536a879" x="208.816576" y="245.93875" style="stroke: #000000; stroke-width: 0.8"/>
      </g>
     </g>
     <g id="text_4">
      <text style="font-size: 10px; font-family: 'DejaVu Sans', 'Bitstream Vera Sans', 'Computer Modern Sans Serif', 'Lucida Grande', 'Verdana', 'Geneva', 'Lucid', 'Arial', 'Helvetica', 'Avant Garde', sans-serif; text-anchor: middle" x="208.816576" y="260.537188" transform="rotate(-0 208.816576 260.537188)">250</text>
     </g>
    </g>
    <g id="xtick_5">
     <g id="line2d_5">
      <g>
       <use xlink:href="#ma0d536a879" x="255.728986" y="245.93875" style="stroke: #000000; stroke-width: 0.8"/>
      </g>
     </g>
     <g id="text_5">
      <text style="font-size: 10px; font-family: 'DejaVu Sans', 'Bitstream Vera Sans', 'Computer Modern Sans Serif', 'Lucida Grande', 'Verdana', 'Geneva', 'Lucid', 'Arial', 'Helvetica', 'Avant Garde', sans-serif; text-anchor: middle" x="255.728986" y="260.537188" transform="rotate(-0 255.728986 260.537188)">300</text>
     </g>
    </g>
    <g id="text_6">
     <text style="font-size: 10px; font-family: 'DejaVu Sans', 'Bitstream Vera Sans', 'Computer Modern Sans Serif', 'Lucida Grande', 'Verdana', 'Geneva', 'Lucid', 'Arial', 'Helvetica', 'Avant Garde', sans-serif; text-anchor: middle" x="153.795" y="274.215312" transform="rotate(-0 153.795 274.215312)">Average_divergence_all</text>
    </g>
   </g>
   <g id="matplotlib.axis_2">
    <g id="ytick_1">
     <g id="line2d_6">
      <defs>
       <path id="m88c0eba235" d="M 0 0 
L -3.5 0 
" style="stroke: #000000; stroke-width: 0.8"/>
      </defs>
      <g>
       <use xlink:href="#m88c0eba235" x="44.57" y="239.826645" style="stroke: #000000; stroke-width: 0.8"/>
      </g>
     </g>
     <g id="text_7">
      <text style="font-size: 10px; font-family: 'DejaVu Sans', 'Bitstream Vera Sans', 'Computer Modern Sans Serif', 'Lucida Grande', 'Verdana', 'Geneva', 'Lucid', 'Arial', 'Helvetica', 'Avant Garde', sans-serif; text-anchor: end" x="37.57" y="243.625864" transform="rotate(-0 37.57 243.625864)">0</text>
     </g>
    </g>
    <g id="ytick_2">
     <g id="line2d_7">
      <g>
       <use xlink:href="#m88c0eba235" x="44.57" y="200.393713" style="stroke: #000000; stroke-width: 0.8"/>
      </g>
     </g>
     <g id="text_8">
      <text style="font-size: 10px; font-family: 'DejaVu Sans', 'Bitstream Vera Sans', 'Computer Modern Sans Serif', 'Lucida Grande', 'Verdana', 'Geneva', 'Lucid', 'Arial', 'Helvetica', 'Avant Garde', sans-serif; text-anchor: end" x="37.57" y="204.192932" transform="rotate(-0 37.57 204.192932)">10</text>
     </g>
    </g>
    <g id="ytick_3">
     <g id="line2d_8">
      <g>
       <use xlink:href="#m88c0eba235" x="44.57" y="160.960781" style="stroke: #000000; stroke-width: 0.8"/>
      </g>
     </g>
     <g id="text_9">
      <text style="font-size: 10px; font-family: 'DejaVu Sans', 'Bitstream Vera Sans', 'Computer Modern Sans Serif', 'Lucida Grande', 'Verdana', 'Geneva', 'Lucid', 'Arial', 'Helvetica', 'Avant Garde', sans-serif; text-anchor: end" x="37.57" y="164.76" transform="rotate(-0 37.57 164.76)">20</text>
     </g>
    </g>
    <g id="ytick_4">
     <g id="line2d_9">
      <g>
       <use xlink:href="#m88c0eba235" x="44.57" y="121.527849" style="stroke: #000000; stroke-width: 0.8"/>
      </g>
     </g>
     <g id="text_10">
      <text style="font-size: 10px; font-family: 'DejaVu Sans', 'Bitstream Vera Sans', 'Computer Modern Sans Serif', 'Lucida Grande', 'Verdana', 'Geneva', 'Lucid', 'Arial', 'Helvetica', 'Avant Garde', sans-serif; text-anchor: end" x="37.57" y="125.327067" transform="rotate(-0 37.57 125.327067)">30</text>
     </g>
    </g>
    <g id="ytick_5">
     <g id="line2d_10">
      <g>
       <use xlink:href="#m88c0eba235" x="44.57" y="82.094916" style="stroke: #000000; stroke-width: 0.8"/>
      </g>
     </g>
     <g id="text_11">
      <text style="font-size: 10px; font-family: 'DejaVu Sans', 'Bitstream Vera Sans', 'Computer Modern Sans Serif', 'Lucida Grande', 'Verdana', 'Geneva', 'Lucid', 'Arial', 'Helvetica', 'Avant Garde', sans-serif; text-anchor: end" x="37.57" y="85.894135" transform="rotate(-0 37.57 85.894135)">40</text>
     </g>
    </g>
    <g id="ytick_6">
     <g id="line2d_11">
      <g>
       <use xlink:href="#m88c0eba235" x="44.57" y="42.661984" style="stroke: #000000; stroke-width: 0.8"/>
      </g>
     </g>
     <g id="text_12">
      <text style="font-size: 10px; font-family: 'DejaVu Sans', 'Bitstream Vera Sans', 'Computer Modern Sans Serif', 'Lucida Grande', 'Verdana', 'Geneva', 'Lucid', 'Arial', 'Helvetica', 'Avant Garde', sans-serif; text-anchor: end" x="37.57" y="46.461203" transform="rotate(-0 37.57 46.461203)">50</text>
     </g>
    </g>
    <g id="text_13">
     <text style="font-size: 10px; font-family: 'DejaVu Sans', 'Bitstream Vera Sans', 'Computer Modern Sans Serif', 'Lucida Grande', 'Verdana', 'Geneva', 'Lucid', 'Arial', 'Helvetica', 'Avant Garde', sans-serif; text-anchor: middle" x="18.487188" y="135.329375" transform="rotate(-90 18.487188 135.329375)">GO_terms_count</text>
    </g>
   </g>
   <g id="line2d_12"/>
   <g id="line2d_13"/>
   <g id="line2d_14"/>
   <g id="line2d_15"/>
   <g id="line2d_16"/>
   <g id="line2d_17"/>
   <g id="line2d_18"/>
   <g id="line2d_19"/>
   <g id="line2d_20"/>
   <g id="line2d_21"/>
   <g id="line2d_22">
    <path d="M 54.499545 144.191967 
L 56.505514 144.829291 
L 58.511483 145.466616 
L 60.517452 146.10394 
L 62.523421 146.741264 
L 64.529389 147.378589 
L 66.535358 148.015913 
L 68.541327 148.653237 
L 70.547296 149.290562 
L 72.553264 149.927886 
L 74.559233 150.565211 
L 76.565202 151.202535 
L 78.571171 151.839859 
L 80.57714 152.477184 
L 82.583108 153.114508 
L 84.589077 153.751832 
L 86.595046 154.389157 
L 88.601015 155.026481 
L 90.606983 155.663805 
L 92.612952 156.30113 
L 94.618921 156.938454 
L 96.62489 157.575779 
L 98.630859 158.213103 
L 100.636827 158.850427 
L 102.642796 159.487752 
L 104.648765 160.125076 
L 106.654734 160.7624 
L 108.660702 161.399725 
L 110.666671 162.037049 
L 112.67264 162.674373 
L 114.678609 163.311698 
L 116.684578 163.949022 
L 118.690546 164.586347 
L 120.696515 165.223671 
L 122.702484 165.860995 
L 124.708453 166.49832 
L 126.714421 167.135644 
L 128.72039 167.772968 
L 130.726359 168.410293 
L 132.732328 169.047617 
L 134.738297 169.684942 
L 136.744265 170.322266 
L 138.750234 170.95959 
L 140.756203 171.596915 
L 142.762172 172.234239 
L 144.76814 172.871563 
L 146.774109 173.508888 
L 148.780078 174.146212 
L 150.786047 174.783536 
L 152.792016 175.420861 
L 154.797984 176.058185 
L 156.803953 176.69551 
L 158.809922 177.332834 
L 160.815891 177.970158 
L 162.82186 178.607483 
L 164.827828 179.244807 
L 166.833797 179.882131 
L 168.839766 180.519456 
L 170.845735 181.15678 
L 172.851703 181.794105 
L 174.857672 182.431429 
L 176.863641 183.068753 
L 178.86961 183.706078 
L 180.875579 184.343402 
L 182.881547 184.980726 
L 184.887516 185.618051 
L 186.893485 186.255375 
L 188.899454 186.892699 
L 190.905422 187.530024 
L 192.911391 188.167348 
L 194.91736 188.804673 
L 196.923329 189.441997 
L 198.929298 190.079321 
L 200.935266 190.716646 
L 202.941235 191.35397 
L 204.947204 191.991294 
L 206.953173 192.628619 
L 208.959141 193.265943 
L 210.96511 193.903268 
L 212.971079 194.540592 
L 214.977048 195.177916 
L 216.983017 195.815241 
L 218.988985 196.452565 
L 220.994954 197.089889 
L 223.000923 197.727214 
L 225.006892 198.364538 
L 227.01286 199.001862 
L 229.018829 199.639187 
L 231.024798 200.276511 
L 233.030767 200.913836 
L 235.036736 201.55116 
L 237.042704 202.188484 
L 239.048673 202.825809 
L 241.054642 203.463133 
L 243.060611 204.100457 
L 245.066579 204.737782 
L 247.072548 205.375106 
L 249.078517 206.012431 
L 251.084486 206.649755 
L 253.090455 207.287079 
" clip-path="url(#pfa49dbc97e)" style="fill: none; stroke: #000000; stroke-width: 1.5; stroke-linecap: square"/>
   </g>
   <g id="patch_3">
    <path d="M 44.57 245.93875 
L 44.57 24.72 
" style="fill: none; stroke: #000000; stroke-width: 0.8; stroke-linejoin: miter; stroke-linecap: square"/>
   </g>
   <g id="patch_4">
    <path d="M 263.02 245.93875 
L 263.02 24.72 
" style="fill: none; stroke: #000000; stroke-width: 0.8; stroke-linejoin: miter; stroke-linecap: square"/>
   </g>
   <g id="patch_5">
    <path d="M 44.57 245.93875 
L 263.02 245.93875 
" style="fill: none; stroke: #000000; stroke-width: 0.8; stroke-linejoin: miter; stroke-linecap: square"/>
   </g>
   <g id="patch_6">
    <path d="M 44.57 24.72 
L 263.02 24.72 
" style="fill: none; stroke: #000000; stroke-width: 0.8; stroke-linejoin: miter; stroke-linecap: square"/>
   </g>
   <g id="text_14">
    <g id="patch_7">
     <path d="M 55.4925 59.069281 
L 134.982188 59.069281 
Q 139.482188 59.069281 139.482188 54.569281 
L 139.482188 35.780937 
Q 139.482188 31.280937 134.982188 31.280937 
L 55.4925 31.280937 
Q 50.9925 31.280937 50.9925 35.780937 
L 50.9925 54.569281 
Q 50.9925 59.069281 55.4925 59.069281 
z
" style="fill: #ffffff; opacity: 0.8; stroke: #000000; stroke-linejoin: miter"/>
    </g>
    <text style="font-size: 9px; font-family: 'DejaVu Sans', 'Bitstream Vera Sans', 'Computer Modern Sans Serif', 'Lucida Grande', 'Verdana', 'Geneva', 'Lucid', 'Arial', 'Helvetica', 'Avant Garde', sans-serif" transform="translate(55.4925 42.619531)">Pearson R: -0.347</text>
    <text style="font-size: 9px; font-family: 'DejaVu Sans', 'Bitstream Vera Sans', 'Computer Modern Sans Serif', 'Lucida Grande', 'Verdana', 'Geneva', 'Lucid', 'Arial', 'Helvetica', 'Avant Garde', sans-serif" transform="translate(55.4925 52.697563)">p = 0.224</text>
   </g>
   <g id="text_15">
    <text style="font-size: 10px; font-family: 'DejaVu Sans', 'Bitstream Vera Sans', 'Computer Modern Sans Serif', 'Lucida Grande', 'Verdana', 'Geneva', 'Lucid', 'Arial', 'Helvetica', 'Avant Garde', sans-serif; text-anchor: middle" x="153.795" y="18.72" transform="rotate(-0 153.795 18.72)">GO_terms_count vs Average_divergence_all</text>
   </g>
   <g id="legend_1">
    <g id="patch_8">
     <path d="M 270.02 217.698125 
L 415.818437 217.698125 
Q 417.818437 217.698125 417.818437 215.698125 
L 417.818437 54.960625 
Q 417.818437 52.960625 415.818437 52.960625 
L 270.02 52.960625 
Q 268.02 52.960625 268.02 54.960625 
L 268.02 215.698125 
Q 268.02 217.698125 270.02 217.698125 
z
" style="fill: #ffffff; opacity: 0.8; stroke: #cccccc; stroke-linejoin: miter"/>
    </g>
    <g id="line2d_23"/>
    <g id="text_16">
     <text style="font-size: 10px; font-family: 'DejaVu Sans', 'Bitstream Vera Sans', 'Computer Modern Sans Serif', 'Lucida Grande', 'Verdana', 'Geneva', 'Lucid', 'Arial', 'Helvetica', 'Avant Garde', sans-serif; text-anchor: start" x="300.02" y="64.559062" transform="rotate(-0 300.02 64.559062)">class_name</text>
    </g>
    <g id="line2d_24">
     <defs>
      <path id="m64053ba2a5" d="M 0 3 
C 0.795609 3 1.55874 2.683901 2.12132 2.12132 
C 2.683901 1.55874 3 0.795609 3 0 
C 3 -0.795609 2.683901 -1.55874 2.12132 -2.12132 
C 1.55874 -2.683901 0.795609 -3 0 -3 
C -0.795609 -3 -1.55874 -2.683901 -2.12132 -2.12132 
C -2.683901 -1.55874 -3 -0.795609 -3 0 
C -3 0.795609 -2.683901 1.55874 -2.12132 2.12132 
C -1.55874 2.683901 -0.795609 3 0 3 
z
" style="stroke: #ffffff; stroke-width: 0.48"/>
     </defs>
     <g>
      <use xlink:href="#m64053ba2a5" x="282.02" y="76.015312" style="fill: #195f90; stroke: #ffffff; stroke-width: 0.48"/>
     </g>
    </g>
    <g id="text_17">
     <text style="font-size: 10px; font-family: 'DejaVu Sans', 'Bitstream Vera Sans', 'Computer Modern Sans Serif', 'Lucida Grande', 'Verdana', 'Geneva', 'Lucid', 'Arial', 'Helvetica', 'Avant Garde', sans-serif; text-anchor: start" x="300.02" y="79.515312" transform="rotate(-0 300.02 79.515312)">DNA</text>
    </g>
    <g id="line2d_25">
     <defs>
      <path id="m96a0bc364f" d="M 0 3 
C 0.795609 3 1.55874 2.683901 2.12132 2.12132 
C 2.683901 1.55874 3 0.795609 3 0 
C 3 -0.795609 2.683901 -1.55874 2.12132 -2.12132 
C 1.55874 -2.683901 0.795609 -3 0 -3 
C -0.795609 -3 -1.55874 -2.683901 -2.12132 -2.12132 
C -2.683901 -1.55874 -3 -0.795609 -3 0 
C -3 0.795609 -2.683901 1.55874 -2.12132 2.12132 
C -1.55874 2.683901 -0.795609 3 0 3 
z
" style="stroke: #ffffff; stroke-width: 0.48"/>
     </defs>
     <g>
      <use xlink:href="#m96a0bc364f" x="282.02" y="90.693437" style="fill: #70453c; stroke: #ffffff; stroke-width: 0.48"/>
     </g>
    </g>
    <g id="text_18">
     <text style="font-size: 10px; font-family: 'DejaVu Sans', 'Bitstream Vera Sans', 'Computer Modern Sans Serif', 'Lucida Grande', 'Verdana', 'Geneva', 'Lucid', 'Arial', 'Helvetica', 'Avant Garde', sans-serif; text-anchor: start" x="300.02" y="94.193437" transform="rotate(-0 300.02 94.193437)">LTR</text>
    </g>
    <g id="line2d_26">
     <defs>
      <path id="m9d3c56ec9d" d="M 0 3 
C 0.795609 3 1.55874 2.683901 2.12132 2.12132 
C 2.683901 1.55874 3 0.795609 3 0 
C 3 -0.795609 2.683901 -1.55874 2.12132 -2.12132 
C 1.55874 -2.683901 0.795609 -3 0 -3 
C -0.795609 -3 -1.55874 -2.683901 -2.12132 -2.12132 
C -2.683901 -1.55874 -3 -0.795609 -3 0 
C -3 0.795609 -2.683901 1.55874 -2.12132 2.12132 
C -1.55874 2.683901 -0.795609 3 0 3 
z
" style="stroke: #ffffff; stroke-width: 0.48"/>
     </defs>
     <g>
      <use xlink:href="#m9d3c56ec9d" x="282.02" y="105.371562" style="fill: #cc660b; stroke: #ffffff; stroke-width: 0.48"/>
     </g>
    </g>
    <g id="text_19">
     <text style="font-size: 10px; font-family: 'DejaVu Sans', 'Bitstream Vera Sans', 'Computer Modern Sans Serif', 'Lucida Grande', 'Verdana', 'Geneva', 'Lucid', 'Arial', 'Helvetica', 'Avant Garde', sans-serif; text-anchor: start" x="300.02" y="108.871562" transform="rotate(-0 300.02 108.871562)">LINE</text>
    </g>
    <g id="line2d_27">
     <defs>
      <path id="m246a4ff75e" d="M 0 3 
C 0.795609 3 1.55874 2.683901 2.12132 2.12132 
C 2.683901 1.55874 3 0.795609 3 0 
C 3 -0.795609 2.683901 -1.55874 2.12132 -2.12132 
C 1.55874 -2.683901 0.795609 -3 0 -3 
C -0.795609 -3 -1.55874 -2.683901 -2.12132 -2.12132 
C -2.683901 -1.55874 -3 -0.795609 -3 0 
C -3 0.795609 -2.683901 1.55874 -2.12132 2.12132 
C -1.55874 2.683901 -0.795609 3 0 3 
z
" style="stroke: #ffffff; stroke-width: 0.48"/>
     </defs>
     <g>
      <use xlink:href="#m246a4ff75e" x="282.02" y="120.049688" style="fill: #238023; stroke: #ffffff; stroke-width: 0.48"/>
     </g>
    </g>
    <g id="text_20">
     <text style="font-size: 10px; font-family: 'DejaVu Sans', 'Bitstream Vera Sans', 'Computer Modern Sans Serif', 'Lucida Grande', 'Verdana', 'Geneva', 'Lucid', 'Arial', 'Helvetica', 'Avant Garde', sans-serif; text-anchor: start" x="300.02" y="123.549688" transform="rotate(-0 300.02 123.549688)">RC</text>
    </g>
    <g id="line2d_28">
     <defs>
      <path id="m22f0d275ba" d="M 0 3 
C 0.795609 3 1.55874 2.683901 2.12132 2.12132 
C 2.683901 1.55874 3 0.795609 3 0 
C 3 -0.795609 2.683901 -1.55874 2.12132 -2.12132 
C 1.55874 -2.683901 0.795609 -3 0 -3 
C -0.795609 -3 -1.55874 -2.683901 -2.12132 -2.12132 
C -2.683901 -1.55874 -3 -0.795609 -3 0 
C -3 0.795609 -2.683901 1.55874 -2.12132 2.12132 
C -1.55874 2.683901 -0.795609 3 0 3 
z
" style="stroke: #ffffff; stroke-width: 0.48"/>
     </defs>
     <g>
      <use xlink:href="#m22f0d275ba" x="282.02" y="134.727812" style="fill: #ab1f20; stroke: #ffffff; stroke-width: 0.48"/>
     </g>
    </g>
    <g id="text_21">
     <text style="font-size: 10px; font-family: 'DejaVu Sans', 'Bitstream Vera Sans', 'Computer Modern Sans Serif', 'Lucida Grande', 'Verdana', 'Geneva', 'Lucid', 'Arial', 'Helvetica', 'Avant Garde', sans-serif; text-anchor: start" x="300.02" y="138.227812" transform="rotate(-0 300.02 138.227812)">SINE</text>
    </g>
    <g id="line2d_29">
     <defs>
      <path id="me2ce49158a" d="M 0 3 
C 0.795609 3 1.55874 2.683901 2.12132 2.12132 
C 2.683901 1.55874 3 0.795609 3 0 
C 3 -0.795609 2.683901 -1.55874 2.12132 -2.12132 
C 1.55874 -2.683901 0.795609 -3 0 -3 
C -0.795609 -3 -1.55874 -2.683901 -2.12132 -2.12132 
C -2.683901 -1.55874 -3 -0.795609 -3 0 
C -3 0.795609 -2.683901 1.55874 -2.12132 2.12132 
C -1.55874 2.683901 -0.795609 3 0 3 
z
" style="stroke: #ffffff; stroke-width: 0.48"/>
     </defs>
     <g>
      <use xlink:href="#me2ce49158a" x="282.02" y="149.405937" style="fill: #765297; stroke: #ffffff; stroke-width: 0.48"/>
     </g>
    </g>
    <g id="text_22">
     <text style="font-size: 10px; font-family: 'DejaVu Sans', 'Bitstream Vera Sans', 'Computer Modern Sans Serif', 'Lucida Grande', 'Verdana', 'Geneva', 'Lucid', 'Arial', 'Helvetica', 'Avant Garde', sans-serif; text-anchor: start" x="300.02" y="152.905937" transform="rotate(-0 300.02 152.905937)">Retroposon</text>
    </g>
    <g id="line2d_30"/>
    <g id="text_23">
     <text style="font-size: 10px; font-family: 'DejaVu Sans', 'Bitstream Vera Sans', 'Computer Modern Sans Serif', 'Lucida Grande', 'Verdana', 'Geneva', 'Lucid', 'Arial', 'Helvetica', 'Avant Garde', sans-serif; text-anchor: start" x="300.02" y="167.584063" transform="rotate(-0 300.02 167.584063)">Status</text>
    </g>
    <g id="line2d_31">
     <defs>
      <path id="me2062591c6" d="M 0 3 
C 0.795609 3 1.55874 2.683901 2.12132 2.12132 
C 2.683901 1.55874 3 0.795609 3 0 
C 3 -0.795609 2.683901 -1.55874 2.12132 -2.12132 
C 1.55874 -2.683901 0.795609 -3 0 -3 
C -0.795609 -3 -1.55874 -2.683901 -2.12132 -2.12132 
C -2.683901 -1.55874 -3 -0.795609 -3 0 
C -3 0.795609 -2.683901 1.55874 -2.12132 2.12132 
C -1.55874 2.683901 -0.795609 3 0 3 
z
" style="stroke: #ffffff; stroke-width: 0.48"/>
     </defs>
     <g>
      <use xlink:href="#me2062591c6" x="282.02" y="178.762187" style="fill: #333333; stroke: #ffffff; stroke-width: 0.48"/>
     </g>
    </g>
    <g id="text_24">
     <text style="font-size: 10px; font-family: 'DejaVu Sans', 'Bitstream Vera Sans', 'Computer Modern Sans Serif', 'Lucida Grande', 'Verdana', 'Geneva', 'Lucid', 'Arial', 'Helvetica', 'Avant Garde', sans-serif; text-anchor: start" x="300.02" y="182.262187" transform="rotate(-0 300.02 182.262187)">Significant</text>
    </g>
    <g id="line2d_32">
     <defs>
      <path id="me19e62aa27" d="M -1.5 3 
L 0 1.5 
L 1.5 3 
L 3 1.5 
L 1.5 0 
L 3 -1.5 
L 1.5 -3 
L 0 -1.5 
L -1.5 -3 
L -3 -1.5 
L -1.5 0 
L -3 1.5 
z
" style="stroke: #ffffff; stroke-width: 0.48; stroke-linejoin: miter"/>
     </defs>
     <g>
      <use xlink:href="#me19e62aa27" x="282.02" y="193.440312" style="fill: #333333; stroke: #ffffff; stroke-width: 0.48; stroke-linejoin: miter"/>
     </g>
    </g>
    <g id="text_25">
     <text style="font-size: 10px; font-family: 'DejaVu Sans', 'Bitstream Vera Sans', 'Computer Modern Sans Serif', 'Lucida Grande', 'Verdana', 'Geneva', 'Lucid', 'Arial', 'Helvetica', 'Avant Garde', sans-serif; text-anchor: start" x="300.02" y="196.940312" transform="rotate(-0 300.02 196.940312)">Non-Significant</text>
    </g>
    <g id="line2d_33">
     <path d="M 272.02 208.118437 
L 282.02 208.118437 
L 292.02 208.118437 
" style="fill: none; stroke: #000000; stroke-width: 1.5; stroke-linecap: square"/>
    </g>
    <g id="text_26">
     <text style="font-size: 10px; font-family: 'DejaVu Sans', 'Bitstream Vera Sans', 'Computer Modern Sans Serif', 'Lucida Grande', 'Verdana', 'Geneva', 'Lucid', 'Arial', 'Helvetica', 'Avant Garde', sans-serif; text-anchor: start" x="300.02" y="211.618437" transform="rotate(-0 300.02 211.618437)">Linear Trend (R=-0.35)</text>
    </g>
   </g>
  </g>
 </g>
 <defs>
  <clipPath id="pfa49dbc97e">
   <rect x="44.57" y="24.72" width="218.45" height="221.21875"/>
  </clipPath>
 </defs>
</svg>
