<?xml version="1.0" encoding="utf-8" standalone="no"?>
<!DOCTYPE svg PUBLIC "-//W3C//DTD SVG 1.1//EN"
  "http://www.w3.org/Graphics/SVG/1.1/DTD/svg11.dtd">
<svg xmlns:xlink="http://www.w3.org/1999/xlink" width="504pt" height="288pt" viewBox="0 0 504 288" xmlns="http://www.w3.org/2000/svg" version="1.1">
 <metadata>
  <rdf:RDF xmlns:dc="http://purl.org/dc/elements/1.1/" xmlns:cc="http://creativecommons.org/ns#" xmlns:rdf="http://www.w3.org/1999/02/22-rdf-syntax-ns#">
   <cc:Work>
    <dc:type rdf:resource="http://purl.org/dc/dcmitype/StillImage"/>
    <dc:date>2026-01-11T13:47:15.762753</dc:date>
    <dc:format>image/svg+xml</dc:format>
    <dc:creator>
     <cc:Agent>
      <dc:title>Matplotlib v3.10.8, https://matplotlib.org/</dc:title>
     </cc:Agent>
    </dc:creator>
   </cc:Work>
  </rdf:RDF>
 </metadata>
 <defs>
  <style type="text/css">*{stroke-linejoin: round; stroke-linecap: butt}</style>
 </defs>
 <g id="figure_1">
  <g id="patch_1">
   <path d="M 0 288 
L 504 288 
L 504 0 
L 0 0 
L 0 288 
z
" style="fill: none"/>
  </g>
  <g id="axes_1">
   <g id="patch_2">
    <path d="M 52.94 245.93875 
L 266.44 245.93875 
L 266.44 24.72 
L 52.94 24.72 
L 52.94 245.93875 
z
" style="fill: none"/>
   </g>
   <g id="PathCollection_1">
    <path d="M 219.167489 169.003124 
C 219.963098 169.003124 220.726229 168.687025 221.288809 168.124444 
C 221.85139 167.561863 222.167489 166.798733 222.167489 166.003124 
C 222.167489 165.207515 221.85139 164.444384 221.288809 163.881804 
C 220.726229 163.319223 219.963098 163.003124 219.167489 163.003124 
C 218.37188 163.003124 217.608749 163.319223 217.046169 163.881804 
C 216.483588 164.444384 216.167489 165.207515 216.167489 166.003124 
C 216.167489 166.798733 216.483588 167.561863 217.046169 168.124444 
C 217.608749 168.687025 218.37188 169.003124 219.167489 169.003124 
z
" clip-path="url(#p555798edc3)" style="fill: #70453c; stroke: #ffffff; stroke-width: 0.48"/>
    <path d="M 199.000839 158.908683 
C 199.796448 158.908683 200.559578 158.592584 201.122159 158.030004 
C 201.68474 157.467423 202.000839 156.704293 202.000839 155.908683 
C 202.000839 155.113074 201.68474 154.349944 201.122159 153.787363 
C 200.559578 153.224782 199.796448 152.908683 199.000839 152.908683 
C 198.205229 152.908683 197.442099 153.224782 196.879518 153.787363 
C 196.316938 154.349944 196.000839 155.113074 196.000839 155.908683 
C 196.000839 156.704293 196.316938 157.467423 196.879518 158.030004 
C 197.442099 158.592584 198.205229 158.908683 199.000839 158.908683 
z
" clip-path="url(#p555798edc3)" style="fill: #70453c; stroke: #ffffff; stroke-width: 0.48"/>
    <path d="M 152.844949 192.556818 
C 153.640559 192.556818 154.403689 192.240719 154.96627 191.678139 
C 155.52885 191.115558 155.844949 190.352428 155.844949 189.556818 
C 155.844949 188.761209 155.52885 187.998079 154.96627 187.435498 
C 154.403689 186.872917 153.640559 186.556818 152.844949 186.556818 
C 152.04934 186.556818 151.28621 186.872917 150.723629 187.435498 
C 150.161048 187.998079 149.844949 188.761209 149.844949 189.556818 
C 149.844949 190.352428 150.161048 191.115558 150.723629 191.678139 
C 151.28621 192.240719 152.04934 192.556818 152.844949 192.556818 
z
" clip-path="url(#p555798edc3)" style="fill: #70453c; stroke: #ffffff; stroke-width: 0.48"/>
    <path d="M 199.0893 128.625362 
C 199.884909 128.625362 200.648039 128.309263 201.21062 127.746682 
C 201.773201 127.184102 202.0893 126.420971 202.0893 125.625362 
C 202.0893 124.829753 201.773201 124.066622 201.21062 123.504042 
C 200.648039 122.941461 199.884909 122.625362 199.0893 122.625362 
C 198.29369 122.625362 197.53056 122.941461 196.967979 123.504042 
C 196.405399 124.066622 196.0893 124.829753 196.0893 125.625362 
C 196.0893 126.420971 196.405399 127.184102 196.967979 127.746682 
C 197.53056 128.309263 198.29369 128.625362 199.0893 128.625362 
z
" clip-path="url(#p555798edc3)" style="fill: #70453c; stroke: #ffffff; stroke-width: 0.48"/>
    <path d="M 179.757733 209.380886 
L 181.257733 207.880886 
L 182.757733 209.380886 
L 184.257733 207.880886 
L 182.757733 206.380886 
L 184.257733 204.880886 
L 182.757733 203.380886 
L 181.257733 204.880886 
L 179.757733 203.380886 
L 178.257733 204.880886 
L 179.757733 206.380886 
L 178.257733 207.880886 
z
" clip-path="url(#p555798edc3)" style="fill: #195f90; stroke: #ffffff; stroke-width: 0.48"/>
    <path d="M 216.335318 189.192005 
C 217.130927 189.192005 217.894057 188.875906 218.456638 188.313325 
C 219.019219 187.750744 219.335318 186.987614 219.335318 186.192005 
C 219.335318 185.396396 219.019219 184.633265 218.456638 184.070684 
C 217.894057 183.508104 217.130927 183.192005 216.335318 183.192005 
C 215.539708 183.192005 214.776578 183.508104 214.213997 184.070684 
C 213.651417 184.633265 213.335318 185.396396 213.335318 186.192005 
C 213.335318 186.987614 213.651417 187.750744 214.213997 188.313325 
C 214.776578 188.875906 215.539708 189.192005 216.335318 189.192005 
z
" clip-path="url(#p555798edc3)" style="fill: #195f90; stroke: #ffffff; stroke-width: 0.48"/>
    <path d="M 61.144545 209.380886 
L 62.644545 207.880886 
L 64.144545 209.380886 
L 65.644545 207.880886 
L 64.144545 206.380886 
L 65.644545 204.880886 
L 64.144545 203.380886 
L 62.644545 204.880886 
L 61.144545 203.380886 
L 59.644545 204.880886 
L 61.144545 206.380886 
L 59.644545 207.880886 
z
" clip-path="url(#p555798edc3)" style="fill: #cc660b; stroke: #ffffff; stroke-width: 0.48"/>
    <path d="M 238.644817 138.719802 
C 239.440426 138.719802 240.203557 138.403704 240.766137 137.841123 
C 241.328718 137.278542 241.644817 136.515412 241.644817 135.719802 
C 241.644817 134.924193 241.328718 134.161063 240.766137 133.598482 
C 240.203557 133.035901 239.440426 132.719802 238.644817 132.719802 
C 237.849208 132.719802 237.086077 133.035901 236.523497 133.598482 
C 235.960916 134.161063 235.644817 134.924193 235.644817 135.719802 
C 235.644817 136.515412 235.960916 137.278542 236.523497 137.841123 
C 237.086077 138.403704 237.849208 138.719802 238.644817 138.719802 
z
" clip-path="url(#p555798edc3)" style="fill: #cc660b; stroke: #ffffff; stroke-width: 0.48"/>
    <path d="M 130.048973 202.651259 
L 131.548973 201.151259 
L 133.048973 202.651259 
L 134.548973 201.151259 
L 133.048973 199.651259 
L 134.548973 198.151259 
L 133.048973 196.651259 
L 131.548973 198.151259 
L 130.048973 196.651259 
L 128.548973 198.151259 
L 130.048973 199.651259 
L 128.548973 201.151259 
z
" clip-path="url(#p555798edc3)" style="fill: #70453c; stroke: #ffffff; stroke-width: 0.48"/>
    <path d="M 237.21766 101.706854 
C 238.013269 101.706854 238.7764 101.390755 239.33898 100.828174 
C 239.901561 100.265594 240.21766 99.502463 240.21766 98.706854 
C 240.21766 97.911245 239.901561 97.148114 239.33898 96.585534 
C 238.7764 96.022953 238.013269 95.706854 237.21766 95.706854 
C 236.422051 95.706854 235.65892 96.022953 235.09634 96.585534 
C 234.533759 97.148114 234.21766 97.911245 234.21766 98.706854 
C 234.21766 99.502463 234.533759 100.265594 235.09634 100.828174 
C 235.65892 101.390755 236.422051 101.706854 237.21766 101.706854 
z
" clip-path="url(#p555798edc3)" style="fill: #ab1f20; stroke: #ffffff; stroke-width: 0.48"/>
    <path d="M 177.465495 182.462378 
C 178.261104 182.462378 179.024235 182.146279 179.586815 181.583698 
C 180.149396 181.021117 180.465495 180.257987 180.465495 179.462378 
C 180.465495 178.666769 180.149396 177.903638 179.586815 177.341057 
C 179.024235 176.778477 178.261104 176.462378 177.465495 176.462378 
C 176.669886 176.462378 175.906755 176.778477 175.344175 177.341057 
C 174.781594 177.903638 174.465495 178.666769 174.465495 179.462378 
C 174.465495 180.257987 174.781594 181.021117 175.344175 181.583698 
C 175.906755 182.146279 176.669886 182.462378 177.465495 182.462378 
z
" clip-path="url(#p555798edc3)" style="fill: #cc660b; stroke: #ffffff; stroke-width: 0.48"/>
    <path d="M 256.735455 37.775398 
C 257.531064 37.775398 258.294194 37.459299 258.856775 36.896718 
C 259.419356 36.334137 259.735455 35.571007 259.735455 34.775398 
C 259.735455 33.979788 259.419356 33.216658 258.856775 32.654077 
C 258.294194 32.091497 257.531064 31.775398 256.735455 31.775398 
C 255.939845 31.775398 255.176715 32.091497 254.614134 32.654077 
C 254.051553 33.216658 253.735455 33.979788 253.735455 34.775398 
C 253.735455 35.571007 254.051553 36.334137 254.614134 36.896718 
C 255.176715 37.459299 255.939845 37.775398 256.735455 37.775398 
z
" clip-path="url(#p555798edc3)" style="fill: #ab1f20; stroke: #ffffff; stroke-width: 0.48"/>
    <path d="M 125.870608 192.556818 
C 126.666217 192.556818 127.429348 192.240719 127.991928 191.678139 
C 128.554509 191.115558 128.870608 190.352428 128.870608 189.556818 
C 128.870608 188.761209 128.554509 187.998079 127.991928 187.435498 
C 127.429348 186.872917 126.666217 186.556818 125.870608 186.556818 
C 125.074999 186.556818 124.311868 186.872917 123.749288 187.435498 
C 123.186707 187.998079 122.870608 188.761209 122.870608 189.556818 
C 122.870608 190.352428 123.186707 191.115558 123.749288 191.678139 
C 124.311868 192.240719 125.074999 192.556818 125.870608 192.556818 
z
" clip-path="url(#p555798edc3)" style="fill: #765297; stroke: #ffffff; stroke-width: 0.48"/>
    <path d="M 228.232634 209.380886 
C 229.028243 209.380886 229.791373 209.064787 230.353954 208.502206 
C 230.916535 207.939625 231.232634 207.176495 231.232634 206.380886 
C 231.232634 205.585276 230.916535 204.822146 230.353954 204.259565 
C 229.791373 203.696985 229.028243 203.380886 228.232634 203.380886 
C 227.437024 203.380886 226.673894 203.696985 226.111313 204.259565 
C 225.548733 204.822146 225.232634 205.585276 225.232634 206.380886 
C 225.232634 207.176495 225.548733 207.939625 226.111313 208.502206 
C 226.673894 209.064787 227.437024 209.380886 228.232634 209.380886 
z
" clip-path="url(#p555798edc3)" style="fill: #cc660b; stroke: #ffffff; stroke-width: 0.48"/>
   </g>
   <g id="matplotlib.axis_1">
    <g id="xtick_1">
     <g id="line2d_1">
      <defs>
       <path id="maced8ba9ba" d="M 0 0 
L 0 3.5 
" style="stroke: #000000; stroke-width: 0.8"/>
      </defs>
      <g>
       <use xlink:href="#maced8ba9ba" x="79.860864" y="245.93875" style="stroke: #000000; stroke-width: 0.8"/>
      </g>
     </g>
     <g id="text_1">
      <text style="font-size: 10px; font-family: 'DejaVu Sans', 'Bitstream Vera Sans', 'Computer Modern Sans Serif', 'Lucida Grande', 'Verdana', 'Geneva', 'Lucid', 'Arial', 'Helvetica', 'Avant Garde', sans-serif; text-anchor: middle" x="79.860864" y="260.537188" transform="rotate(-0 79.860864 260.537188)">3</text>
     </g>
    </g>
    <g id="xtick_2">
     <g id="line2d_2">
      <g>
       <use xlink:href="#maced8ba9ba" x="137.550113" y="245.93875" style="stroke: #000000; stroke-width: 0.8"/>
      </g>
     </g>
     <g id="text_2">
      <text style="font-size: 10px; font-family: 'DejaVu Sans', 'Bitstream Vera Sans', 'Computer Modern Sans Serif', 'Lucida Grande', 'Verdana', 'Geneva', 'Lucid', 'Arial', 'Helvetica', 'Avant Garde', sans-serif; text-anchor: middle" x="137.550113" y="260.537188" transform="rotate(-0 137.550113 260.537188)">4</text>
     </g>
    </g>
    <g id="xtick_3">
     <g id="line2d_3">
      <g>
       <use xlink:href="#maced8ba9ba" x="195.239362" y="245.93875" style="stroke: #000000; stroke-width: 0.8"/>
      </g>
     </g>
     <g id="text_3">
      <text style="font-size: 10px; font-family: 'DejaVu Sans', 'Bitstream Vera Sans', 'Computer Modern Sans Serif', 'Lucida Grande', 'Verdana', 'Geneva', 'Lucid', 'Arial', 'Helvetica', 'Avant Garde', sans-serif; text-anchor: middle" x="195.239362" y="260.537188" transform="rotate(-0 195.239362 260.537188)">5</text>
     </g>
    </g>
    <g id="xtick_4">
     <g id="line2d_4">
      <g>
       <use xlink:href="#maced8ba9ba" x="252.92861" y="245.93875" style="stroke: #000000; stroke-width: 0.8"/>
      </g>
     </g>
     <g id="text_4">
      <text style="font-size: 10px; font-family: 'DejaVu Sans', 'Bitstream Vera Sans', 'Computer Modern Sans Serif', 'Lucida Grande', 'Verdana', 'Geneva', 'Lucid', 'Arial', 'Helvetica', 'Avant Garde', sans-serif; text-anchor: middle" x="252.92861" y="260.537188" transform="rotate(-0 252.92861 260.537188)">6</text>
     </g>
    </g>
    <g id="text_5">
     <text style="font-size: 10px; font-family: 'DejaVu Sans', 'Bitstream Vera Sans', 'Computer Modern Sans Serif', 'Lucida Grande', 'Verdana', 'Geneva', 'Lucid', 'Arial', 'Helvetica', 'Avant Garde', sans-serif; text-anchor: middle" x="159.69" y="274.215312" transform="rotate(-0 159.69 274.215312)">Total_TEs_number_log</text>
    </g>
   </g>
   <g id="matplotlib.axis_2">
    <g id="ytick_1">
     <g id="line2d_5">
      <defs>
       <path id="m59e31aa0f6" d="M 0 0 
L -3.5 0 
" style="stroke: #000000; stroke-width: 0.8"/>
      </defs>
      <g>
       <use xlink:href="#m59e31aa0f6" x="52.94" y="243.393834" style="stroke: #000000; stroke-width: 0.8"/>
      </g>
     </g>
     <g id="text_6">
      <text style="font-size: 10px; font-family: 'DejaVu Sans', 'Bitstream Vera Sans', 'Computer Modern Sans Serif', 'Lucida Grande', 'Verdana', 'Geneva', 'Lucid', 'Arial', 'Helvetica', 'Avant Garde', sans-serif; text-anchor: end" x="45.94" y="247.193053" transform="rotate(-0 45.94 247.193053)">−10</text>
     </g>
    </g>
    <g id="ytick_2">
     <g id="line2d_6">
      <g>
       <use xlink:href="#m59e31aa0f6" x="52.94" y="209.745699" style="stroke: #000000; stroke-width: 0.8"/>
      </g>
     </g>
     <g id="text_7">
      <text style="font-size: 10px; font-family: 'DejaVu Sans', 'Bitstream Vera Sans', 'Computer Modern Sans Serif', 'Lucida Grande', 'Verdana', 'Geneva', 'Lucid', 'Arial', 'Helvetica', 'Avant Garde', sans-serif; text-anchor: end" x="45.94" y="213.544918" transform="rotate(-0 45.94 213.544918)">0</text>
     </g>
    </g>
    <g id="ytick_3">
     <g id="line2d_7">
      <g>
       <use xlink:href="#m59e31aa0f6" x="52.94" y="176.097564" style="stroke: #000000; stroke-width: 0.8"/>
      </g>
     </g>
     <g id="text_8">
      <text style="font-size: 10px; font-family: 'DejaVu Sans', 'Bitstream Vera Sans', 'Computer Modern Sans Serif', 'Lucida Grande', 'Verdana', 'Geneva', 'Lucid', 'Arial', 'Helvetica', 'Avant Garde', sans-serif; text-anchor: end" x="45.94" y="179.896783" transform="rotate(-0 45.94 179.896783)">10</text>
     </g>
    </g>
    <g id="ytick_4">
     <g id="line2d_8">
      <g>
       <use xlink:href="#m59e31aa0f6" x="52.94" y="142.449429" style="stroke: #000000; stroke-width: 0.8"/>
      </g>
     </g>
     <g id="text_9">
      <text style="font-size: 10px; font-family: 'DejaVu Sans', 'Bitstream Vera Sans', 'Computer Modern Sans Serif', 'Lucida Grande', 'Verdana', 'Geneva', 'Lucid', 'Arial', 'Helvetica', 'Avant Garde', sans-serif; text-anchor: end" x="45.94" y="146.248648" transform="rotate(-0 45.94 146.248648)">20</text>
     </g>
    </g>
    <g id="ytick_5">
     <g id="line2d_9">
      <g>
       <use xlink:href="#m59e31aa0f6" x="52.94" y="108.801295" style="stroke: #000000; stroke-width: 0.8"/>
      </g>
     </g>
     <g id="text_10">
      <text style="font-size: 10px; font-family: 'DejaVu Sans', 'Bitstream Vera Sans', 'Computer Modern Sans Serif', 'Lucida Grande', 'Verdana', 'Geneva', 'Lucid', 'Arial', 'Helvetica', 'Avant Garde', sans-serif; text-anchor: end" x="45.94" y="112.600513" transform="rotate(-0 45.94 112.600513)">30</text>
     </g>
    </g>
    <g id="ytick_6">
     <g id="line2d_10">
      <g>
       <use xlink:href="#m59e31aa0f6" x="52.94" y="75.15316" style="stroke: #000000; stroke-width: 0.8"/>
      </g>
     </g>
     <g id="text_11">
      <text style="font-size: 10px; font-family: 'DejaVu Sans', 'Bitstream Vera Sans', 'Computer Modern Sans Serif', 'Lucida Grande', 'Verdana', 'Geneva', 'Lucid', 'Arial', 'Helvetica', 'Avant Garde', sans-serif; text-anchor: end" x="45.94" y="78.952378" transform="rotate(-0 45.94 78.952378)">40</text>
     </g>
    </g>
    <g id="ytick_7">
     <g id="line2d_11">
      <g>
       <use xlink:href="#m59e31aa0f6" x="52.94" y="41.505025" style="stroke: #000000; stroke-width: 0.8"/>
      </g>
     </g>
     <g id="text_12">
      <text style="font-size: 10px; font-family: 'DejaVu Sans', 'Bitstream Vera Sans', 'Computer Modern Sans Serif', 'Lucida Grande', 'Verdana', 'Geneva', 'Lucid', 'Arial', 'Helvetica', 'Avant Garde', sans-serif; text-anchor: end" x="45.94" y="45.304243" transform="rotate(-0 45.94 45.304243)">50</text>
     </g>
    </g>
    <g id="text_13">
     <text style="font-size: 10px; font-family: 'DejaVu Sans', 'Bitstream Vera Sans', 'Computer Modern Sans Serif', 'Lucida Grande', 'Verdana', 'Geneva', 'Lucid', 'Arial', 'Helvetica', 'Avant Garde', sans-serif; text-anchor: middle" x="18.4775" y="135.329375" transform="rotate(-90 18.4775 135.329375)">GO_terms_count</text>
    </g>
   </g>
   <g id="line2d_12"/>
   <g id="line2d_13"/>
   <g id="line2d_14"/>
   <g id="line2d_15"/>
   <g id="line2d_16"/>
   <g id="line2d_17"/>
   <g id="line2d_18"/>
   <g id="line2d_19"/>
   <g id="line2d_20"/>
   <g id="line2d_21"/>
   <g id="line2d_22">
    <path d="M 62.644545 235.883352 
L 64.60506 234.737705 
L 66.565574 233.592057 
L 68.526088 232.44641 
L 70.486602 231.300762 
L 72.447117 230.155114 
L 74.407631 229.009467 
L 76.368145 227.863819 
L 78.328659 226.718172 
L 80.289174 225.572524 
L 82.249688 224.426876 
L 84.210202 223.281229 
L 86.170716 222.135581 
L 88.13123 220.989934 
L 90.091745 219.844286 
L 92.052259 218.698638 
L 94.012773 217.552991 
L 95.973287 216.407343 
L 97.933802 215.261696 
L 99.894316 214.116048 
L 101.85483 212.970401 
L 103.815344 211.824753 
L 105.775859 210.679105 
L 107.736373 209.533458 
L 109.696887 208.38781 
L 111.657401 207.242163 
L 113.617916 206.096515 
L 115.57843 204.950867 
L 117.538944 203.80522 
L 119.499458 202.659572 
L 121.459972 201.513925 
L 123.420487 200.368277 
L 125.381001 199.222629 
L 127.341515 198.076982 
L 129.302029 196.931334 
L 131.262544 195.785687 
L 133.223058 194.640039 
L 135.183572 193.494392 
L 137.144086 192.348744 
L 139.104601 191.203096 
L 141.065115 190.057449 
L 143.025629 188.911801 
L 144.986143 187.766154 
L 146.946657 186.620506 
L 148.907172 185.474858 
L 150.867686 184.329211 
L 152.8282 183.183563 
L 154.788714 182.037916 
L 156.749229 180.892268 
L 158.709743 179.74662 
L 160.670257 178.600973 
L 162.630771 177.455325 
L 164.591286 176.309678 
L 166.5518 175.16403 
L 168.512314 174.018383 
L 170.472828 172.872735 
L 172.433343 171.727087 
L 174.393857 170.58144 
L 176.354371 169.435792 
L 178.314885 168.290145 
L 180.275399 167.144497 
L 182.235914 165.998849 
L 184.196428 164.853202 
L 186.156942 163.707554 
L 188.117456 162.561907 
L 190.077971 161.416259 
L 192.038485 160.270612 
L 193.998999 159.124964 
L 195.959513 157.979316 
L 197.920028 156.833669 
L 199.880542 155.688021 
L 201.841056 154.542374 
L 203.80157 153.396726 
L 205.762084 152.251078 
L 207.722599 151.105431 
L 209.683113 149.959783 
L 211.643627 148.814136 
L 213.604141 147.668488 
L 215.564656 146.52284 
L 217.52517 145.377193 
L 219.485684 144.231545 
L 221.446198 143.085898 
L 223.406713 141.94025 
L 225.367227 140.794603 
L 227.327741 139.648955 
L 229.288255 138.503307 
L 231.24877 137.35766 
L 233.209284 136.212012 
L 235.169798 135.066365 
L 237.130312 133.920717 
L 239.090826 132.775069 
L 241.051341 131.629422 
L 243.011855 130.483774 
L 244.972369 129.338127 
L 246.932883 128.192479 
L 248.893398 127.046831 
L 250.853912 125.901184 
L 252.814426 124.755536 
L 254.77494 123.609889 
L 256.735455 122.464241 
" clip-path="url(#p555798edc3)" style="fill: none; stroke: #000000; stroke-width: 1.5; stroke-linecap: square"/>
   </g>
   <g id="patch_3">
    <path d="M 52.94 245.93875 
L 52.94 24.72 
" style="fill: none; stroke: #000000; stroke-width: 0.8; stroke-linejoin: miter; stroke-linecap: square"/>
   </g>
   <g id="patch_4">
    <path d="M 266.44 245.93875 
L 266.44 24.72 
" style="fill: none; stroke: #000000; stroke-width: 0.8; stroke-linejoin: miter; stroke-linecap: square"/>
   </g>
   <g id="patch_5">
    <path d="M 52.94 245.93875 
L 266.44 245.93875 
" style="fill: none; stroke: #000000; stroke-width: 0.8; stroke-linejoin: miter; stroke-linecap: square"/>
   </g>
   <g id="patch_6">
    <path d="M 52.94 24.72 
L 266.44 24.72 
" style="fill: none; stroke: #000000; stroke-width: 0.8; stroke-linejoin: miter; stroke-linecap: square"/>
   </g>
   <g id="text_14">
    <g id="patch_7">
     <path d="M 63.615 59.069281 
L 139.857656 59.069281 
Q 144.357656 59.069281 144.357656 54.569281 
L 144.357656 35.780937 
Q 144.357656 31.280937 139.857656 31.280937 
L 63.615 31.280937 
Q 59.115 31.280937 59.115 35.780937 
L 59.115 54.569281 
Q 59.115 59.069281 63.615 59.069281 
z
" style="fill: #ffffff; opacity: 0.8; stroke: #000000; stroke-linejoin: miter"/>
    </g>
    <text style="font-size: 9px; font-family: 'DejaVu Sans', 'Bitstream Vera Sans', 'Computer Modern Sans Serif', 'Lucida Grande', 'Verdana', 'Geneva', 'Lucid', 'Arial', 'Helvetica', 'Avant Garde', sans-serif" transform="translate(63.615 42.619531)">Pearson R: 0.633</text>
    <text style="font-size: 9px; font-family: 'DejaVu Sans', 'Bitstream Vera Sans', 'Computer Modern Sans Serif', 'Lucida Grande', 'Verdana', 'Geneva', 'Lucid', 'Arial', 'Helvetica', 'Avant Garde', sans-serif" transform="translate(63.615 52.697563)">p = 0.015</text>
   </g>
   <g id="text_15">
    <text style="font-size: 10px; font-family: 'DejaVu Sans', 'Bitstream Vera Sans', 'Computer Modern Sans Serif', 'Lucida Grande', 'Verdana', 'Geneva', 'Lucid', 'Arial', 'Helvetica', 'Avant Garde', sans-serif; text-anchor: middle" x="159.69" y="18.72" transform="rotate(-0 159.69 18.72)">GO_terms_count vs Total_TEs_number_log</text>
   </g>
   <g id="legend_1">
    <g id="patch_8">
     <path d="M 273.44 217.698125 
L 415.630625 217.698125 
Q 417.630625 217.698125 417.630625 215.698125 
L 417.630625 54.960625 
Q 417.630625 52.960625 415.630625 52.960625 
L 273.44 52.960625 
Q 271.44 52.960625 271.44 54.960625 
L 271.44 215.698125 
Q 271.44 217.698125 273.44 217.698125 
z
" style="fill: #ffffff; opacity: 0.8; stroke: #cccccc; stroke-linejoin: miter"/>
    </g>
    <g id="line2d_23"/>
    <g id="text_16">
     <text style="font-size: 10px; font-family: 'DejaVu Sans', 'Bitstream Vera Sans', 'Computer Modern Sans Serif', 'Lucida Grande', 'Verdana', 'Geneva', 'Lucid', 'Arial', 'Helvetica', 'Avant Garde', sans-serif; text-anchor: start" x="303.44" y="64.559062" transform="rotate(-0 303.44 64.559062)">class_name</text>
    </g>
    <g id="line2d_24">
     <defs>
      <path id="mb965982037" d="M 0 3 
C 0.795609 3 1.55874 2.683901 2.12132 2.12132 
C 2.683901 1.55874 3 0.795609 3 0 
C 3 -0.795609 2.683901 -1.55874 2.12132 -2.12132 
C 1.55874 -2.683901 0.795609 -3 0 -3 
C -0.795609 -3 -1.55874 -2.683901 -2.12132 -2.12132 
C -2.683901 -1.55874 -3 -0.795609 -3 0 
C -3 0.795609 -2.683901 1.55874 -2.12132 2.12132 
C -1.55874 2.683901 -0.795609 3 0 3 
z
" style="stroke: #ffffff; stroke-width: 0.48"/>
     </defs>
     <g>
      <use xlink:href="#mb965982037" x="285.44" y="76.015312" style="fill: #195f90; stroke: #ffffff; stroke-width: 0.48"/>
     </g>
    </g>
    <g id="text_17">
     <text style="font-size: 10px; font-family: 'DejaVu Sans', 'Bitstream Vera Sans', 'Computer Modern Sans Serif', 'Lucida Grande', 'Verdana', 'Geneva', 'Lucid', 'Arial', 'Helvetica', 'Avant Garde', sans-serif; text-anchor: start" x="303.44" y="79.515312" transform="rotate(-0 303.44 79.515312)">DNA</text>
    </g>
    <g id="line2d_25">
     <defs>
      <path id="mbd2bab226f" d="M 0 3 
C 0.795609 3 1.55874 2.683901 2.12132 2.12132 
C 2.683901 1.55874 3 0.795609 3 0 
C 3 -0.795609 2.683901 -1.55874 2.12132 -2.12132 
C 1.55874 -2.683901 0.795609 -3 0 -3 
C -0.795609 -3 -1.55874 -2.683901 -2.12132 -2.12132 
C -2.683901 -1.55874 -3 -0.795609 -3 0 
C -3 0.795609 -2.683901 1.55874 -2.12132 2.12132 
C -1.55874 2.683901 -0.795609 3 0 3 
z
" style="stroke: #ffffff; stroke-width: 0.48"/>
     </defs>
     <g>
      <use xlink:href="#mbd2bab226f" x="285.44" y="90.693437" style="fill: #70453c; stroke: #ffffff; stroke-width: 0.48"/>
     </g>
    </g>
    <g id="text_18">
     <text style="font-size: 10px; font-family: 'DejaVu Sans', 'Bitstream Vera Sans', 'Computer Modern Sans Serif', 'Lucida Grande', 'Verdana', 'Geneva', 'Lucid', 'Arial', 'Helvetica', 'Avant Garde', sans-serif; text-anchor: start" x="303.44" y="94.193437" transform="rotate(-0 303.44 94.193437)">LTR</text>
    </g>
    <g id="line2d_26">
     <defs>
      <path id="mfc4663eccc" d="M 0 3 
C 0.795609 3 1.55874 2.683901 2.12132 2.12132 
C 2.683901 1.55874 3 0.795609 3 0 
C 3 -0.795609 2.683901 -1.55874 2.12132 -2.12132 
C 1.55874 -2.683901 0.795609 -3 0 -3 
C -0.795609 -3 -1.55874 -2.683901 -2.12132 -2.12132 
C -2.683901 -1.55874 -3 -0.795609 -3 0 
C -3 0.795609 -2.683901 1.55874 -2.12132 2.12132 
C -1.55874 2.683901 -0.795609 3 0 3 
z
" style="stroke: #ffffff; stroke-width: 0.48"/>
     </defs>
     <g>
      <use xlink:href="#mfc4663eccc" x="285.44" y="105.371562" style="fill: #cc660b; stroke: #ffffff; stroke-width: 0.48"/>
     </g>
    </g>
    <g id="text_19">
     <text style="font-size: 10px; font-family: 'DejaVu Sans', 'Bitstream Vera Sans', 'Computer Modern Sans Serif', 'Lucida Grande', 'Verdana', 'Geneva', 'Lucid', 'Arial', 'Helvetica', 'Avant Garde', sans-serif; text-anchor: start" x="303.44" y="108.871562" transform="rotate(-0 303.44 108.871562)">LINE</text>
    </g>
    <g id="line2d_27">
     <defs>
      <path id="m88a83faccd" d="M 0 3 
C 0.795609 3 1.55874 2.683901 2.12132 2.12132 
C 2.683901 1.55874 3 0.795609 3 0 
C 3 -0.795609 2.683901 -1.55874 2.12132 -2.12132 
C 1.55874 -2.683901 0.795609 -3 0 -3 
C -0.795609 -3 -1.55874 -2.683901 -2.12132 -2.12132 
C -2.683901 -1.55874 -3 -0.795609 -3 0 
C -3 0.795609 -2.683901 1.55874 -2.12132 2.12132 
C -1.55874 2.683901 -0.795609 3 0 3 
z
" style="stroke: #ffffff; stroke-width: 0.48"/>
     </defs>
     <g>
      <use xlink:href="#m88a83faccd" x="285.44" y="120.049688" style="fill: #238023; stroke: #ffffff; stroke-width: 0.48"/>
     </g>
    </g>
    <g id="text_20">
     <text style="font-size: 10px; font-family: 'DejaVu Sans', 'Bitstream Vera Sans', 'Computer Modern Sans Serif', 'Lucida Grande', 'Verdana', 'Geneva', 'Lucid', 'Arial', 'Helvetica', 'Avant Garde', sans-serif; text-anchor: start" x="303.44" y="123.549688" transform="rotate(-0 303.44 123.549688)">RC</text>
    </g>
    <g id="line2d_28">
     <defs>
      <path id="ma5239f64d5" d="M 0 3 
C 0.795609 3 1.55874 2.683901 2.12132 2.12132 
C 2.683901 1.55874 3 0.795609 3 0 
C 3 -0.795609 2.683901 -1.55874 2.12132 -2.12132 
C 1.55874 -2.683901 0.795609 -3 0 -3 
C -0.795609 -3 -1.55874 -2.683901 -2.12132 -2.12132 
C -2.683901 -1.55874 -3 -0.795609 -3 0 
C -3 0.795609 -2.683901 1.55874 -2.12132 2.12132 
C -1.55874 2.683901 -0.795609 3 0 3 
z
" style="stroke: #ffffff; stroke-width: 0.48"/>
     </defs>
     <g>
      <use xlink:href="#ma5239f64d5" x="285.44" y="134.727812" style="fill: #ab1f20; stroke: #ffffff; stroke-width: 0.48"/>
     </g>
    </g>
    <g id="text_21">
     <text style="font-size: 10px; font-family: 'DejaVu Sans', 'Bitstream Vera Sans', 'Computer Modern Sans Serif', 'Lucida Grande', 'Verdana', 'Geneva', 'Lucid', 'Arial', 'Helvetica', 'Avant Garde', sans-serif; text-anchor: start" x="303.44" y="138.227812" transform="rotate(-0 303.44 138.227812)">SINE</text>
    </g>
    <g id="line2d_29">
     <defs>
      <path id="mce1fc7f68e" d="M 0 3 
C 0.795609 3 1.55874 2.683901 2.12132 2.12132 
C 2.683901 1.55874 3 0.795609 3 0 
C 3 -0.795609 2.683901 -1.55874 2.12132 -2.12132 
C 1.55874 -2.683901 0.795609 -3 0 -3 
C -0.795609 -3 -1.55874 -2.683901 -2.12132 -2.12132 
C -2.683901 -1.55874 -3 -0.795609 -3 0 
C -3 0.795609 -2.683901 1.55874 -2.12132 2.12132 
C -1.55874 2.683901 -0.795609 3 0 3 
z
" style="stroke: #ffffff; stroke-width: 0.48"/>
     </defs>
     <g>
      <use xlink:href="#mce1fc7f68e" x="285.44" y="149.405937" style="fill: #765297; stroke: #ffffff; stroke-width: 0.48"/>
     </g>
    </g>
    <g id="text_22">
     <text style="font-size: 10px; font-family: 'DejaVu Sans', 'Bitstream Vera Sans', 'Computer Modern Sans Serif', 'Lucida Grande', 'Verdana', 'Geneva', 'Lucid', 'Arial', 'Helvetica', 'Avant Garde', sans-serif; text-anchor: start" x="303.44" y="152.905937" transform="rotate(-0 303.44 152.905937)">Retroposon</text>
    </g>
    <g id="line2d_30"/>
    <g id="text_23">
     <text style="font-size: 10px; font-family: 'DejaVu Sans', 'Bitstream Vera Sans', 'Computer Modern Sans Serif', 'Lucida Grande', 'Verdana', 'Geneva', 'Lucid', 'Arial', 'Helvetica', 'Avant Garde', sans-serif; text-anchor: start" x="303.44" y="167.584063" transform="rotate(-0 303.44 167.584063)">Status</text>
    </g>
    <g id="line2d_31">
     <defs>
      <path id="mb373b0bb1e" d="M 0 3 
C 0.795609 3 1.55874 2.683901 2.12132 2.12132 
C 2.683901 1.55874 3 0.795609 3 0 
C 3 -0.795609 2.683901 -1.55874 2.12132 -2.12132 
C 1.55874 -2.683901 0.795609 -3 0 -3 
C -0.795609 -3 -1.55874 -2.683901 -2.12132 -2.12132 
C -2.683901 -1.55874 -3 -0.795609 -3 0 
C -3 0.795609 -2.683901 1.55874 -2.12132 2.12132 
C -1.55874 2.683901 -0.795609 3 0 3 
z
" style="stroke: #ffffff; stroke-width: 0.48"/>
     </defs>
     <g>
      <use xlink:href="#mb373b0bb1e" x="285.44" y="178.762187" style="fill: #333333; stroke: #ffffff; stroke-width: 0.48"/>
     </g>
    </g>
    <g id="text_24">
     <text style="font-size: 10px; font-family: 'DejaVu Sans', 'Bitstream Vera Sans', 'Computer Modern Sans Serif', 'Lucida Grande', 'Verdana', 'Geneva', 'Lucid', 'Arial', 'Helvetica', 'Avant Garde', sans-serif; text-anchor: start" x="303.44" y="182.262187" transform="rotate(-0 303.44 182.262187)">Significant</text>
    </g>
    <g id="line2d_32">
     <defs>
      <path id="mf7caacecb1" d="M -1.5 3 
L 0 1.5 
L 1.5 3 
L 3 1.5 
L 1.5 0 
L 3 -1.5 
L 1.5 -3 
L 0 -1.5 
L -1.5 -3 
L -3 -1.5 
L -1.5 0 
L -3 1.5 
z
" style="stroke: #ffffff; stroke-width: 0.48; stroke-linejoin: miter"/>
     </defs>
     <g>
      <use xlink:href="#mf7caacecb1" x="285.44" y="193.440312" style="fill: #333333; stroke: #ffffff; stroke-width: 0.48; stroke-linejoin: miter"/>
     </g>
    </g>
    <g id="text_25">
     <text style="font-size: 10px; font-family: 'DejaVu Sans', 'Bitstream Vera Sans', 'Computer Modern Sans Serif', 'Lucida Grande', 'Verdana', 'Geneva', 'Lucid', 'Arial', 'Helvetica', 'Avant Garde', sans-serif; text-anchor: start" x="303.44" y="196.940312" transform="rotate(-0 303.44 196.940312)">Non-Significant</text>
    </g>
    <g id="line2d_33">
     <path d="M 275.44 208.118437 
L 285.44 208.118437 
L 295.44 208.118437 
" style="fill: none; stroke: #000000; stroke-width: 1.5; stroke-linecap: square"/>
    </g>
    <g id="text_26">
     <text style="font-size: 10px; font-family: 'DejaVu Sans', 'Bitstream Vera Sans', 'Computer Modern Sans Serif', 'Lucida Grande', 'Verdana', 'Geneva', 'Lucid', 'Arial', 'Helvetica', 'Avant Garde', sans-serif; text-anchor: start" x="303.44" y="211.618437" transform="rotate(-0 303.44 211.618437)">Linear Trend (R=0.63)</text>
    </g>
   </g>
  </g>
 </g>
 <defs>
  <clipPath id="p555798edc3">
   <rect x="52.94" y="24.72" width="213.5" height="221.21875"/>
  </clipPath>
 </defs>
</svg>
