<?xml version="1.0" encoding="utf-8" standalone="no"?>
<!DOCTYPE svg PUBLIC "-//W3C//DTD SVG 1.1//EN"
  "http://www.w3.org/Graphics/SVG/1.1/DTD/svg11.dtd">
<svg xmlns:xlink="http://www.w3.org/1999/xlink" width="777.3125pt" height="567.2085pt" viewBox="0 0 777.3125 567.2085" xmlns="http://www.w3.org/2000/svg" version="1.1">
 <metadata>
  <rdf:RDF xmlns:dc="http://purl.org/dc/elements/1.1/" xmlns:cc="http://creativecommons.org/ns#" xmlns:rdf="http://www.w3.org/1999/02/22-rdf-syntax-ns#">
   <cc:Work>
    <dc:type rdf:resource="http://purl.org/dc/dcmitype/StillImage"/>
    <dc:date>2026-01-26T17:56:25.080559</dc:date>
    <dc:format>image/svg+xml</dc:format>
    <dc:creator>
     <cc:Agent>
      <dc:title>Matplotlib v3.10.8, https://matplotlib.org/</dc:title>
     </cc:Agent>
    </dc:creator>
   </cc:Work>
  </rdf:RDF>
 </metadata>
 <defs>
  <style type="text/css">*{stroke-linejoin: round; stroke-linecap: butt}</style>
 </defs>
 <g id="figure_1">
  <g id="patch_1">
   <path d="M -0 567.2085 
L 777.3125 567.2085 
L 777.3125 0 
L -0 0 
L -0 567.2085 
z
" style="fill: none"/>
  </g>
  <g id="axes_1">
   <g id="patch_2">
    <path d="M 40.603125 529.65225 
L 556.103125 529.65225 
L 556.103125 45.99625 
L 40.603125 45.99625 
L 40.603125 529.65225 
z
" style="fill: none"/>
   </g>
   <g id="PathCollection_1">
    <path d="M 316.067591 407.099202 
C 318.548071 407.099202 320.927291 406.113697 322.681255 404.359733 
C 324.43522 402.605768 325.420725 400.226548 325.420725 397.746068 
C 325.420725 395.265588 324.43522 392.886368 322.681255 391.132404 
C 320.927291 389.378439 318.548071 388.392934 316.067591 388.392934 
C 313.587111 388.392934 311.207891 389.378439 309.453926 391.132404 
C 307.699962 392.886368 306.714457 395.265588 306.714457 397.746068 
C 306.714457 400.226548 307.699962 402.605768 309.453926 404.359733 
C 311.207891 406.113697 313.587111 407.099202 316.067591 407.099202 
z
" clip-path="url(#p4e7b904595)" style="fill: #a6d5e7; fill-opacity: 0.8; stroke: #000000; stroke-opacity: 0.8; stroke-width: 0.5"/>
    <path d="M 95.08479 389.170768 
C 97.669195 389.170768 100.148098 388.143973 101.975548 386.316523 
C 103.802998 384.489072 104.829793 382.01017 104.829793 379.425765 
C 104.829793 376.84136 103.802998 374.362458 101.975548 372.535008 
C 100.148098 370.707557 97.669195 369.680762 95.08479 369.680762 
C 92.500385 369.680762 90.021483 370.707557 88.194033 372.535008 
C 86.366583 374.362458 85.339788 376.84136 85.339788 379.425765 
C 85.339788 382.01017 86.366583 384.489072 88.194033 386.316523 
C 90.021483 388.143973 92.500385 389.170768 95.08479 389.170768 
z
" clip-path="url(#p4e7b904595)" style="fill: #5c90c2; fill-opacity: 0.8; stroke: #000000; stroke-opacity: 0.8; stroke-width: 0.5"/>
    <path d="M 502.330186 461.574879 
L 506.764137 457.140928 
L 511.198087 461.574879 
L 515.632038 457.140928 
L 511.198087 452.706977 
L 515.632038 448.273027 
L 511.198087 443.839076 
L 506.764137 448.273027 
L 502.330186 443.839076 
L 497.896236 448.273027 
L 502.330186 452.706977 
L 497.896236 457.140928 
z
" clip-path="url(#p4e7b904595)" style="fill: #e9f6e8; fill-opacity: 0.8; stroke: #000000; stroke-opacity: 0.8; stroke-width: 0.5"/>
    <path d="M 393.736266 517.293743 
L 398.549194 512.480815 
L 403.362123 517.293743 
L 408.175051 512.480815 
L 403.362123 507.667886 
L 408.175051 502.854958 
L 403.362123 498.042029 
L 398.549194 502.854958 
L 393.736266 498.042029 
L 388.923337 502.854958 
L 393.736266 507.667886 
L 388.923337 512.480815 
z
" clip-path="url(#p4e7b904595)" style="fill: #eaf7e6; fill-opacity: 0.8; stroke: #000000; stroke-opacity: 0.8; stroke-width: 0.5"/>
    <path d="M 142.54297 388.422168 
C 144.928844 388.422168 147.21732 387.474251 148.904388 385.787183 
C 150.591455 384.100115 151.539373 381.811639 151.539373 379.425765 
C 151.539373 377.039891 150.591455 374.751415 148.904388 373.064347 
C 147.21732 371.37728 144.928844 370.429362 142.54297 370.429362 
C 140.157096 370.429362 137.86862 371.37728 136.181552 373.064347 
C 134.494484 374.751415 133.546567 377.039891 133.546567 379.425765 
C 133.546567 381.811639 134.494484 384.100115 136.181552 385.787183 
C 137.86862 387.474251 140.157096 388.422168 142.54297 388.422168 
z
" clip-path="url(#p4e7b904595)" style="fill: #8ec2dc; fill-opacity: 0.8; stroke: #000000; stroke-opacity: 0.8; stroke-width: 0.5"/>
    <path d="M 112.014444 444.050908 
C 114.577429 444.050908 117.035785 443.032624 118.848089 441.22032 
C 120.660393 439.408016 121.678678 436.949659 121.678678 434.386674 
C 121.678678 431.823689 120.660393 429.365333 118.848089 427.553029 
C 117.035785 425.740725 114.577429 424.72244 112.014444 424.72244 
C 109.451459 424.72244 106.993102 425.740725 105.180798 427.553029 
C 103.368494 429.365333 102.35021 431.823689 102.35021 434.386674 
C 102.35021 436.949659 103.368494 439.408016 105.180798 441.22032 
C 106.993102 443.032624 109.451459 444.050908 112.014444 444.050908 
z
" clip-path="url(#p4e7b904595)" style="fill: #83b9d8; fill-opacity: 0.8; stroke: #000000; stroke-opacity: 0.8; stroke-width: 0.5"/>
    <path d="M 299.924623 369.843642 
C 302.242015 369.843642 304.464805 368.922932 306.103449 367.284288 
C 307.742093 365.645644 308.662802 363.422854 308.662802 361.105462 
C 308.662802 358.78807 307.742093 356.56528 306.103449 354.926636 
C 304.464805 353.287992 302.242015 352.367282 299.924623 352.367282 
C 297.60723 352.367282 295.38444 353.287992 293.745796 354.926636 
C 292.107153 356.56528 291.186443 358.78807 291.186443 361.105462 
C 291.186443 363.422854 292.107153 365.645644 293.745796 367.284288 
C 295.38444 368.922932 297.60723 369.843642 299.924623 369.843642 
z
" clip-path="url(#p4e7b904595)" style="fill: #8ec2dc; fill-opacity: 0.8; stroke: #000000; stroke-opacity: 0.8; stroke-width: 0.5"/>
    <path d="M 218.610771 443.627914 
C 221.061577 443.627914 223.412333 442.654198 225.145314 440.921217 
C 226.878295 439.188236 227.852011 436.83748 227.852011 434.386674 
C 227.852011 431.935869 226.878295 429.585112 225.145314 427.852131 
C 223.412333 426.11915 221.061577 425.145435 218.610771 425.145435 
C 216.159966 425.145435 213.809209 426.11915 212.076228 427.852131 
C 210.343247 429.585112 209.369532 431.935869 209.369532 434.386674 
C 209.369532 436.83748 210.343247 439.188236 212.076228 440.921217 
C 213.809209 442.654198 216.159966 443.627914 218.610771 443.627914 
z
" clip-path="url(#p4e7b904595)" style="fill: #8cc0db; fill-opacity: 0.8; stroke: #000000; stroke-opacity: 0.8; stroke-width: 0.5"/>
    <path d="M 308.86109 425.445243 
C 311.348396 425.445243 313.734163 424.457026 315.492954 422.698235 
C 317.251745 420.939444 318.239962 418.553677 318.239962 416.066371 
C 318.239962 413.579065 317.251745 411.193298 315.492954 409.434508 
C 313.734163 407.675717 311.348396 406.6875 308.86109 406.6875 
C 306.373785 406.6875 303.988017 407.675717 302.229227 409.434508 
C 300.470436 411.193298 299.482219 413.579065 299.482219 416.066371 
C 299.482219 418.553677 300.470436 420.939444 302.229227 422.698235 
C 303.988017 424.457026 306.373785 425.445243 308.86109 425.445243 
z
" clip-path="url(#p4e7b904595)" style="fill: #a8d6e8; fill-opacity: 0.8; stroke: #000000; stroke-opacity: 0.8; stroke-width: 0.5"/>
    <path d="M 168.650106 278.821092 
C 171.121042 278.821092 173.491107 277.839379 175.238323 276.092163 
C 176.985538 274.344948 177.967251 271.974883 177.967251 269.503947 
C 177.967251 267.033011 176.985538 264.662946 175.238323 262.915731 
C 173.491107 261.168515 171.121042 260.186802 168.650106 260.186802 
C 166.179171 260.186802 163.809105 261.168515 162.06189 262.915731 
C 160.314675 264.662946 159.332961 267.033011 159.332961 269.503947 
C 159.332961 271.974883 160.314675 274.344948 162.06189 276.092163 
C 163.809105 277.839379 166.179171 278.821092 168.650106 278.821092 
z
" clip-path="url(#p4e7b904595)" style="fill: #8cc0db; fill-opacity: 0.8; stroke: #000000; stroke-opacity: 0.8; stroke-width: 0.5"/>
    <path d="M 385.765508 478.305927 
C 387.695827 478.305927 389.547346 477.539003 390.912288 476.174061 
C 392.27723 474.809119 393.044155 472.9576 393.044155 471.02728 
C 393.044155 469.096961 392.27723 467.245442 390.912288 465.8805 
C 389.547346 464.515557 387.695827 463.748633 385.765508 463.748633 
C 383.835188 463.748633 381.983669 464.515557 380.618727 465.8805 
C 379.253785 467.245442 378.486861 469.096961 378.486861 471.02728 
C 378.486861 472.9576 379.253785 474.809119 380.618727 476.174061 
C 381.983669 477.539003 383.835188 478.305927 385.765508 478.305927 
z
" clip-path="url(#p4e7b904595)" style="fill: #4574b3; fill-opacity: 0.8; stroke: #000000; stroke-opacity: 0.8; stroke-width: 0.5"/>
    <path d="M 370.881596 77.149923 
C 373.313326 77.149923 375.645785 76.183787 377.365277 74.464294 
C 379.084769 72.744802 380.050906 70.412343 380.050906 67.980614 
C 380.050906 65.548884 379.084769 63.216425 377.365277 61.496933 
C 375.645785 59.777441 373.313326 58.811304 370.881596 58.811304 
C 368.449867 58.811304 366.117408 59.777441 364.397916 61.496933 
C 362.678424 63.216425 361.712287 65.548884 361.712287 67.980614 
C 361.712287 70.412343 362.678424 72.744802 364.397916 74.464294 
C 366.117408 76.183787 368.449867 77.149923 370.881596 77.149923 
z
" clip-path="url(#p4e7b904595)" style="fill: #e2f4f4; fill-opacity: 0.8; stroke: #000000; stroke-opacity: 0.8; stroke-width: 0.5"/>
    <path d="M 322.921248 425.309628 
C 325.372588 425.309628 327.723858 424.3357 329.457217 422.602341 
C 331.190577 420.868981 332.164505 418.517712 332.164505 416.066371 
C 332.164505 413.615031 331.190577 411.263761 329.457217 409.530402 
C 327.723858 407.797042 325.372588 406.823115 322.921248 406.823115 
C 320.469908 406.823115 318.118638 407.797042 316.385278 409.530402 
C 314.651919 411.263761 313.677991 413.615031 313.677991 416.066371 
C 313.677991 418.517712 314.651919 420.868981 316.385278 422.602341 
C 318.118638 424.3357 320.469908 425.309628 322.921248 425.309628 
z
" clip-path="url(#p4e7b904595)" style="fill: #9fd0e4; fill-opacity: 0.8; stroke: #000000; stroke-opacity: 0.8; stroke-width: 0.5"/>
    <path d="M 150.609928 370.798062 
C 153.180436 370.798062 155.646008 369.776788 157.463631 367.959165 
C 159.281254 366.141542 160.302528 363.67597 160.302528 361.105462 
C 160.302528 358.534955 159.281254 356.069383 157.463631 354.251759 
C 155.646008 352.434136 153.180436 351.412863 150.609928 351.412863 
C 148.039421 351.412863 145.573849 352.434136 143.756225 354.251759 
C 141.938602 356.069383 140.917329 358.534955 140.917329 361.105462 
C 140.917329 363.67597 141.938602 366.141542 143.756225 367.959165 
C 145.573849 369.776788 148.039421 370.798062 150.609928 370.798062 
z
" clip-path="url(#p4e7b904595)" style="fill: #588cc0; fill-opacity: 0.8; stroke: #000000; stroke-opacity: 0.8; stroke-width: 0.5"/>
    <path d="M 532.671307 479.138151 
C 534.822335 479.138151 536.885552 478.283539 538.406559 476.762532 
C 539.927565 475.241526 540.782178 473.178308 540.782178 471.02728 
C 540.782178 468.876252 539.927565 466.813035 538.406559 465.292028 
C 536.885552 463.771022 534.822335 462.916409 532.671307 462.916409 
C 530.520279 462.916409 528.457062 463.771022 526.936055 465.292028 
C 525.415048 466.813035 524.560436 468.876252 524.560436 471.02728 
C 524.560436 473.178308 525.415048 475.241526 526.936055 476.762532 
C 528.457062 478.283539 530.520279 479.138151 532.671307 479.138151 
z
" clip-path="url(#p4e7b904595)" style="fill: #a8d6e8; fill-opacity: 0.8; stroke: #000000; stroke-opacity: 0.8; stroke-width: 0.5"/>
    <path d="M 423.998845 312.063138 
L 426.958138 309.103846 
L 429.91743 312.063138 
L 432.876723 309.103846 
L 429.91743 306.144553 
L 432.876723 303.18526 
L 429.91743 300.225968 
L 426.958138 303.18526 
L 423.998845 300.225968 
L 421.039552 303.18526 
L 423.998845 306.144553 
L 421.039552 309.103846 
z
" clip-path="url(#p4e7b904595)" style="fill: #a3d3e6; fill-opacity: 0.8; stroke: #000000; stroke-opacity: 0.8; stroke-width: 0.5"/>
    <path d="M 369.3686 517.436505 
C 371.959268 517.436505 374.444178 516.407222 376.276057 514.575343 
C 378.107936 512.743464 379.137219 510.258554 379.137219 507.667886 
C 379.137219 505.077218 378.107936 502.592309 376.276057 500.76043 
C 374.444178 498.928551 371.959268 497.899268 369.3686 497.899268 
C 366.777932 497.899268 364.293023 498.928551 362.461144 500.76043 
C 360.629265 502.592309 359.599981 505.077218 359.599981 507.667886 
C 359.599981 510.258554 360.629265 512.743464 362.461144 514.575343 
C 364.293023 516.407222 366.777932 517.436505 369.3686 517.436505 
z
" clip-path="url(#p4e7b904595)" style="fill: #e6f5ed; fill-opacity: 0.8; stroke: #000000; stroke-opacity: 0.8; stroke-width: 0.5"/>
    <path d="M 509.912852 462.706977 
C 512.564883 462.706977 515.108651 461.653314 516.98392 459.778045 
C 518.859189 457.902776 519.912852 455.359008 519.912852 452.706977 
C 519.912852 450.054946 518.859189 447.511179 516.98392 445.635909 
C 515.108651 443.76064 512.564883 442.706977 509.912852 442.706977 
C 507.260821 442.706977 504.717053 443.76064 502.841784 445.635909 
C 500.966515 447.511179 499.912852 450.054946 499.912852 452.706977 
C 499.912852 455.359008 500.966515 457.902776 502.841784 459.778045 
C 504.717053 461.653314 507.260821 462.706977 509.912852 462.706977 
z
" clip-path="url(#p4e7b904595)" style="fill: #fffcba; fill-opacity: 0.8; stroke: #000000; stroke-opacity: 0.8; stroke-width: 0.5"/>
    <path d="M 79.447272 407.29466 
C 81.979589 407.29466 84.408529 406.28856 86.199147 404.497942 
C 87.989765 402.707324 88.995864 400.278384 88.995864 397.746068 
C 88.995864 395.213752 87.989765 392.784812 86.199147 390.994194 
C 84.408529 389.203576 81.979589 388.197476 79.447272 388.197476 
C 76.914956 388.197476 74.486016 389.203576 72.695398 390.994194 
C 70.90478 392.784812 69.89868 395.213752 69.89868 397.746068 
C 69.89868 400.278384 70.90478 402.707324 72.695398 404.497942 
C 74.486016 406.28856 76.914956 407.29466 79.447272 407.29466 
z
" clip-path="url(#p4e7b904595)" style="fill: #578abf; fill-opacity: 0.8; stroke: #000000; stroke-opacity: 0.8; stroke-width: 0.5"/>
    <path d="M 481.949046 517.039614 
C 484.434457 517.039614 486.818407 516.05215 488.575858 514.294699 
C 490.333309 512.537248 491.320774 510.153298 491.320774 507.667886 
C 491.320774 505.182475 490.333309 502.798525 488.575858 501.041074 
C 486.818407 499.283623 484.434457 498.296158 481.949046 498.296158 
C 479.463634 498.296158 477.079684 499.283623 475.322233 501.041074 
C 473.564782 502.798525 472.577318 505.182475 472.577318 507.667886 
C 472.577318 510.153298 473.564782 512.537248 475.322233 514.294699 
C 477.079684 516.05215 479.463634 517.039614 481.949046 517.039614 
z
" clip-path="url(#p4e7b904595)" style="fill: #a8d6e8; fill-opacity: 0.8; stroke: #000000; stroke-opacity: 0.8; stroke-width: 0.5"/>
    <path d="M 480.697794 516.597929 
C 483.066069 516.597929 485.337665 515.657003 487.012288 513.98238 
C 488.686911 512.307757 489.627837 510.036161 489.627837 507.667886 
C 489.627837 505.299611 488.686911 503.028016 487.012288 501.353393 
C 485.337665 499.678769 483.066069 498.737844 480.697794 498.737844 
C 478.329519 498.737844 476.057924 499.678769 474.383301 501.353393 
C 472.708677 503.028016 471.767752 505.299611 471.767752 507.667886 
C 471.767752 510.036161 472.708677 512.307757 474.383301 513.98238 
C 476.057924 515.657003 478.329519 516.597929 480.697794 516.597929 
z
" clip-path="url(#p4e7b904595)" style="fill: #92c5de; fill-opacity: 0.8; stroke: #000000; stroke-opacity: 0.8; stroke-width: 0.5"/>
    <path d="M 210.61791 443.803046 
C 213.115161 443.803046 215.510468 442.810878 217.276291 441.045055 
C 219.042114 439.279232 220.034282 436.883925 220.034282 434.386674 
C 220.034282 431.889423 219.042114 429.494117 217.276291 427.728294 
C 215.510468 425.962471 213.115161 424.970302 210.61791 424.970302 
C 208.120659 424.970302 205.725353 425.962471 203.95953 427.728294 
C 202.193707 429.494117 201.201539 431.889423 201.201539 434.386674 
C 201.201539 436.883925 202.193707 439.279232 203.95953 441.045055 
C 205.725353 442.810878 208.120659 443.803046 210.61791 443.803046 
z
" clip-path="url(#p4e7b904595)" style="fill: #7fb6d6; fill-opacity: 0.8; stroke: #000000; stroke-opacity: 0.8; stroke-width: 0.5"/>
    <path d="M 520.27585 499.323036 
L 525.263576 494.33531 
L 530.251302 499.323036 
L 535.239028 494.33531 
L 530.251302 489.347583 
L 535.239028 484.359857 
L 530.251302 479.372131 
L 525.263576 484.359857 
L 520.27585 479.372131 
L 515.288123 484.359857 
L 520.27585 489.347583 
L 515.288123 494.33531 
z
" clip-path="url(#p4e7b904595)" style="fill: #f0f9db; fill-opacity: 0.8; stroke: #000000; stroke-opacity: 0.8; stroke-width: 0.5"/>
    <path d="M 290.468514 334.0908 
C 293.021344 334.0908 295.469961 333.07655 297.275084 331.271426 
C 299.080208 329.466303 300.094458 327.017686 300.094458 324.464856 
C 300.094458 321.912026 299.080208 319.463409 297.275084 317.658286 
C 295.469961 315.853163 293.021344 314.838912 290.468514 314.838912 
C 287.915684 314.838912 285.467068 315.853163 283.661944 317.658286 
C 281.856821 319.463409 280.84257 321.912026 280.84257 324.464856 
C 280.84257 327.017686 281.856821 329.466303 283.661944 331.271426 
C 285.467068 333.07655 287.915684 334.0908 290.468514 334.0908 
z
" clip-path="url(#p4e7b904595)" style="fill: #72abd0; fill-opacity: 0.8; stroke: #000000; stroke-opacity: 0.8; stroke-width: 0.5"/>
    <path d="M 324.452879 498.44527 
L 329.001723 493.896427 
L 333.550566 498.44527 
L 338.099409 493.896427 
L 333.550566 489.347583 
L 338.099409 484.79874 
L 333.550566 480.249897 
L 329.001723 484.79874 
L 324.452879 480.249897 
L 319.904036 484.79874 
L 324.452879 489.347583 
L 319.904036 493.896427 
z
" clip-path="url(#p4e7b904595)" style="fill: #eaf7e6; fill-opacity: 0.8; stroke: #000000; stroke-opacity: 0.8; stroke-width: 0.5"/>
    <path d="M 365.233198 425.235997 
C 367.665012 425.235997 369.997552 424.269828 371.717103 422.550276 
C 373.436655 420.830724 374.402824 418.498184 374.402824 416.066371 
C 374.402824 413.634558 373.436655 411.302018 371.717103 409.582467 
C 369.997552 407.862915 367.665012 406.896745 365.233198 406.896745 
C 362.801385 406.896745 360.468845 407.862915 358.749294 409.582467 
C 357.029742 411.302018 356.063573 413.634558 356.063573 416.066371 
C 356.063573 418.498184 357.029742 420.830724 358.749294 422.550276 
C 360.468845 424.269828 362.801385 425.235997 365.233198 425.235997 
z
" clip-path="url(#p4e7b904595)" style="fill: #92c5de; fill-opacity: 0.8; stroke: #000000; stroke-opacity: 0.8; stroke-width: 0.5"/>
    <path d="M 480.664725 480.631841 
C 483.211884 480.631841 485.655062 479.619844 487.456175 477.81873 
C 489.257289 476.017617 490.269286 473.57444 490.269286 471.02728 
C 490.269286 468.480121 489.257289 466.036944 487.456175 464.23583 
C 485.655062 462.434717 483.211884 461.42272 480.664725 461.42272 
C 478.117566 461.42272 475.674389 462.434717 473.873275 464.23583 
C 472.072162 466.036944 471.060165 468.480121 471.060165 471.02728 
C 471.060165 473.57444 472.072162 476.017617 473.873275 477.81873 
C 475.674389 479.619844 478.117566 480.631841 480.664725 480.631841 
z
" clip-path="url(#p4e7b904595)" style="fill: #daf0f6; fill-opacity: 0.8; stroke: #000000; stroke-opacity: 0.8; stroke-width: 0.5"/>
    <path d="M 283.992831 406.917118 
C 286.425022 406.917118 288.757924 405.950798 290.477743 404.230979 
C 292.197561 402.511161 293.163881 400.178259 293.163881 397.746068 
C 293.163881 395.313877 292.197561 392.980976 290.477743 391.261157 
C 288.757924 389.541338 286.425022 388.575019 283.992831 388.575019 
C 281.560641 388.575019 279.227739 389.541338 277.50792 391.261157 
C 275.788102 392.980976 274.821782 395.313877 274.821782 397.746068 
C 274.821782 400.178259 275.788102 402.511161 277.50792 404.230979 
C 279.227739 405.950798 281.560641 406.917118 283.992831 406.917118 
z
" clip-path="url(#p4e7b904595)" style="fill: #70a9cf; fill-opacity: 0.8; stroke: #000000; stroke-opacity: 0.8; stroke-width: 0.5"/>
    <path d="M 343.363945 314.930497 
C 345.694004 314.930497 347.928944 314.004754 349.576545 312.357153 
C 351.224146 310.709553 352.149889 308.474613 352.149889 306.144553 
C 352.149889 303.814493 351.224146 301.579553 349.576545 299.931953 
C 347.928944 298.284352 345.694004 297.358609 343.363945 297.358609 
C 341.033885 297.358609 338.798945 298.284352 337.151344 299.931953 
C 335.503744 301.579553 334.578001 303.814493 334.578001 306.144553 
C 334.578001 308.474613 335.503744 310.709553 337.151344 312.357153 
C 338.798945 314.004754 341.033885 314.930497 343.363945 314.930497 
z
" clip-path="url(#p4e7b904595)" style="fill: #cbe9f2; fill-opacity: 0.8; stroke: #000000; stroke-opacity: 0.8; stroke-width: 0.5"/>
    <path d="M 331.552769 461.869446 
C 333.982684 461.869446 336.313403 460.904031 338.031613 459.185821 
C 339.749822 457.467612 340.715238 455.136892 340.715238 452.706977 
C 340.715238 450.277062 339.749822 447.946343 338.031613 446.228133 
C 336.313403 444.509924 333.982684 443.544508 331.552769 443.544508 
C 329.122854 443.544508 326.792134 444.509924 325.073925 446.228133 
C 323.355715 447.946343 322.3903 450.277062 322.3903 452.706977 
C 322.3903 455.136892 323.355715 457.467612 325.073925 459.185821 
C 326.792134 460.904031 329.122854 461.869446 331.552769 461.869446 
z
" clip-path="url(#p4e7b904595)" style="fill: #9fd0e4; fill-opacity: 0.8; stroke: #000000; stroke-opacity: 0.8; stroke-width: 0.5"/>
    <path d="M 261.948516 442.785501 
C 264.175911 442.785501 266.312378 441.900548 267.887384 440.325542 
C 269.46239 438.750536 270.347343 436.614069 270.347343 434.386674 
C 270.347343 432.159279 269.46239 430.022813 267.887384 428.447807 
C 266.312378 426.872801 264.175911 425.987847 261.948516 425.987847 
C 259.721121 425.987847 257.584655 426.872801 256.009648 428.447807 
C 254.434642 430.022813 253.549689 432.159279 253.549689 434.386674 
C 253.549689 436.614069 254.434642 438.750536 256.009648 440.325542 
C 257.584655 441.900548 259.721121 442.785501 261.948516 442.785501 
z
" clip-path="url(#p4e7b904595)" style="fill: #b6dfec; fill-opacity: 0.8; stroke: #000000; stroke-opacity: 0.8; stroke-width: 0.5"/>
    <path d="M 232.392236 315.473241 
C 234.866233 315.473241 237.239235 314.490311 238.988615 312.740931 
C 240.737994 310.991551 241.720924 308.61855 241.720924 306.144553 
C 241.720924 303.670556 240.737994 301.297555 238.988615 299.548175 
C 237.239235 297.798795 234.866233 296.815865 232.392236 296.815865 
C 229.918239 296.815865 227.545238 297.798795 225.795858 299.548175 
C 224.046478 301.297555 223.063549 303.670556 223.063549 306.144553 
C 223.063549 308.61855 224.046478 310.991551 225.795858 312.740931 
C 227.545238 314.490311 229.918239 315.473241 232.392236 315.473241 
z
" clip-path="url(#p4e7b904595)" style="fill: #74add1; fill-opacity: 0.8; stroke: #000000; stroke-opacity: 0.8; stroke-width: 0.5"/>
    <path d="M 362.729791 389.066226 
C 365.286471 389.066226 367.73878 388.050446 369.546626 386.2426 
C 371.354472 384.434754 372.370252 381.982445 372.370252 379.425765 
C 372.370252 376.869085 371.354472 374.416776 369.546626 372.60893 
C 367.73878 370.801084 365.286471 369.785305 362.729791 369.785305 
C 360.173111 369.785305 357.720802 370.801084 355.912956 372.60893 
C 354.10511 374.416776 353.08933 376.869085 353.08933 379.425765 
C 353.08933 381.982445 354.10511 384.434754 355.912956 386.2426 
C 357.720802 388.050446 360.173111 389.066226 362.729791 389.066226 
z
" clip-path="url(#p4e7b904595)" style="fill: #9fd0e4; fill-opacity: 0.8; stroke: #000000; stroke-opacity: 0.8; stroke-width: 0.5"/>
    <path d="M 153.5595 460.395628 
C 155.598554 460.395628 157.554368 459.585504 158.996197 458.143675 
C 160.438026 456.701846 161.248151 454.746031 161.248151 452.706977 
C 161.248151 450.667923 160.438026 448.712109 158.996197 447.27028 
C 157.554368 445.828451 155.598554 445.018326 153.5595 445.018326 
C 151.520446 445.018326 149.564632 445.828451 148.122803 447.27028 
C 146.680974 448.712109 145.870849 450.667923 145.870849 452.706977 
C 145.870849 454.746031 146.680974 456.701846 148.122803 458.143675 
C 149.564632 459.585504 151.520446 460.395628 153.5595 460.395628 
z
" clip-path="url(#p4e7b904595)" style="fill: #5183bb; fill-opacity: 0.8; stroke: #000000; stroke-opacity: 0.8; stroke-width: 0.5"/>
    <path d="M 220.226927 424.681983 
C 222.511814 424.681983 224.703425 423.774188 226.319084 422.158529 
C 227.934743 420.54287 228.842539 418.351258 228.842539 416.066371 
C 228.842539 413.781484 227.934743 411.589873 226.319084 409.974214 
C 224.703425 408.358555 222.511814 407.450759 220.226927 407.450759 
C 217.94204 407.450759 215.750428 408.358555 214.134769 409.974214 
C 212.51911 411.589873 211.611315 413.781484 211.611315 416.066371 
C 211.611315 418.351258 212.51911 420.54287 214.134769 422.158529 
C 215.750428 423.774188 217.94204 424.681983 220.226927 424.681983 
z
" clip-path="url(#p4e7b904595)" style="fill: #76afd2; fill-opacity: 0.8; stroke: #000000; stroke-opacity: 0.8; stroke-width: 0.5"/>
    <path d="M 399.737585 516.226535 
C 402.007366 516.226535 404.184487 515.324742 405.789464 513.719765 
C 407.394441 512.114788 408.296234 509.937667 408.296234 507.667886 
C 408.296234 505.398106 407.394441 503.220985 405.789464 501.616008 
C 404.184487 500.011031 402.007366 499.109237 399.737585 499.109237 
C 397.467805 499.109237 395.290684 500.011031 393.685707 501.616008 
C 392.08073 503.220985 391.178936 505.398106 391.178936 507.667886 
C 391.178936 509.937667 392.08073 512.114788 393.685707 513.719765 
C 395.290684 515.324742 397.467805 516.226535 399.737585 516.226535 
z
" clip-path="url(#p4e7b904595)" style="fill: #8cc0db; fill-opacity: 0.8; stroke: #000000; stroke-opacity: 0.8; stroke-width: 0.5"/>
    <path d="M 193.355038 443.078144 
C 195.660043 443.078144 197.870951 442.162356 199.500835 440.532472 
C 201.13072 438.902587 202.046508 436.691679 202.046508 434.386674 
C 202.046508 432.081669 201.13072 429.870761 199.500835 428.240877 
C 197.870951 426.610992 195.660043 425.695204 193.355038 425.695204 
C 191.050033 425.695204 188.839125 426.610992 187.20924 428.240877 
C 185.579356 429.870761 184.663568 432.081669 184.663568 434.386674 
C 184.663568 436.691679 185.579356 438.902587 187.20924 440.532472 
C 188.839125 442.162356 191.050033 443.078144 193.355038 443.078144 
z
" clip-path="url(#p4e7b904595)" style="fill: #578abf; fill-opacity: 0.8; stroke: #000000; stroke-opacity: 0.8; stroke-width: 0.5"/>
    <path d="M 501.725463 516.08148 
L 505.93226 511.874683 
L 510.139057 516.08148 
L 514.345854 511.874683 
L 510.139057 507.667886 
L 514.345854 503.46109 
L 510.139057 499.254293 
L 505.93226 503.46109 
L 501.725463 499.254293 
L 497.518667 503.46109 
L 501.725463 507.667886 
L 497.518667 511.874683 
z
" clip-path="url(#p4e7b904595)" style="fill: #e0f3f8; fill-opacity: 0.8; stroke: #000000; stroke-opacity: 0.8; stroke-width: 0.5"/>
    <path d="M 375.694079 516.219343 
C 377.961952 516.219343 380.137244 515.318307 381.740872 513.714679 
C 383.3445 512.111051 384.245536 509.935759 384.245536 507.667886 
C 384.245536 505.400014 383.3445 503.224722 381.740872 501.621094 
C 380.137244 500.017465 377.961952 499.11643 375.694079 499.11643 
C 373.426206 499.11643 371.250915 500.017465 369.647286 501.621094 
C 368.043658 503.224722 367.142623 505.400014 367.142623 507.667886 
C 367.142623 509.935759 368.043658 512.111051 369.647286 513.714679 
C 371.250915 515.318307 373.426206 516.219343 375.694079 516.219343 
z
" clip-path="url(#p4e7b904595)" style="fill: #bde2ee; fill-opacity: 0.8; stroke: #000000; stroke-opacity: 0.8; stroke-width: 0.5"/>
    <path d="M 273.433547 278.841719 
C 275.909954 278.841719 278.285266 277.857833 280.03635 276.106749 
C 281.787433 274.355665 282.77132 271.980353 282.77132 269.503947 
C 282.77132 267.027541 281.787433 264.652228 280.03635 262.901145 
C 278.285266 261.150061 275.909954 260.166175 273.433547 260.166175 
C 270.957141 260.166175 268.581829 261.150061 266.830745 262.901145 
C 265.079662 264.652228 264.095775 267.027541 264.095775 269.503947 
C 264.095775 271.980353 265.079662 274.355665 266.830745 276.106749 
C 268.581829 277.857833 270.957141 278.841719 273.433547 278.841719 
z
" clip-path="url(#p4e7b904595)" style="fill: #7fb6d6; fill-opacity: 0.8; stroke: #000000; stroke-opacity: 0.8; stroke-width: 0.5"/>
    <path d="M 330.46769 443.127311 
C 332.785734 443.127311 335.009149 442.206342 336.648254 440.567238 
C 338.287358 438.928133 339.208327 436.704718 339.208327 434.386674 
C 339.208327 432.06863 338.287358 429.845215 336.648254 428.206111 
C 335.009149 426.567006 332.785734 425.646038 330.46769 425.646038 
C 328.149646 425.646038 325.926232 426.567006 324.287127 428.206111 
C 322.648022 429.845215 321.727054 432.06863 321.727054 434.386674 
C 321.727054 436.704718 322.648022 438.928133 324.287127 440.567238 
C 325.926232 442.206342 328.149646 443.127311 330.46769 443.127311 
z
" clip-path="url(#p4e7b904595)" style="fill: #90c3dd; fill-opacity: 0.8; stroke: #000000; stroke-opacity: 0.8; stroke-width: 0.5"/>
    <path d="M 64.034943 443.437479 
C 66.435245 443.437479 68.737559 442.48383 70.434829 440.78656 
C 72.132098 439.08929 73.085748 436.786976 73.085748 434.386674 
C 73.085748 431.986373 72.132098 429.684058 70.434829 427.986788 
C 68.737559 426.289519 66.435245 425.335869 64.034943 425.335869 
C 61.634642 425.335869 59.332327 426.289519 57.635057 427.986788 
C 55.937788 429.684058 54.984138 431.986373 54.984138 434.386674 
C 54.984138 436.786976 55.937788 439.08929 57.635057 440.78656 
C 59.332327 442.48383 61.634642 443.437479 64.034943 443.437479 
z
" clip-path="url(#p4e7b904595)" style="fill: #5e93c3; fill-opacity: 0.8; stroke: #000000; stroke-opacity: 0.8; stroke-width: 0.5"/>
    <path d="M 328.377115 443.573366 
C 330.813454 443.573366 333.150335 442.605398 334.873087 440.882646 
C 336.595839 439.159894 337.563807 436.823013 337.563807 434.386674 
C 337.563807 431.950335 336.595839 429.613454 334.873087 427.890702 
C 333.150335 426.16795 330.813454 425.199982 328.377115 425.199982 
C 325.940776 425.199982 323.603895 426.16795 321.881143 427.890702 
C 320.158391 429.613454 319.190423 431.950335 319.190423 434.386674 
C 319.190423 436.823013 320.158391 439.159894 321.881143 440.882646 
C 323.603895 442.605398 325.940776 443.573366 328.377115 443.573366 
z
" clip-path="url(#p4e7b904595)" style="fill: #78b0d3; fill-opacity: 0.8; stroke: #000000; stroke-opacity: 0.8; stroke-width: 0.5"/>
    <path d="M 461.970391 385.422582 
C 463.560766 385.422582 465.086216 384.790719 466.210781 383.666155 
C 467.335345 382.54159 467.967208 381.016139 467.967208 379.425765 
C 467.967208 377.835391 467.335345 376.30994 466.210781 375.185375 
C 465.086216 374.060811 463.560766 373.428949 461.970391 373.428949 
C 460.380017 373.428949 458.854566 374.060811 457.730002 375.185375 
C 456.605437 376.30994 455.973575 377.835391 455.973575 379.425765 
C 455.973575 381.016139 456.605437 382.54159 457.730002 383.666155 
C 458.854566 384.790719 460.380017 385.422582 461.970391 385.422582 
z
" clip-path="url(#p4e7b904595)" style="fill: #4d7fb9; fill-opacity: 0.8; stroke: #000000; stroke-opacity: 0.8; stroke-width: 0.5"/>
    <path d="M 480.569984 459.418303 
L 483.925646 456.06264 
L 487.281309 459.418303 
L 490.636972 456.06264 
L 487.281309 452.706977 
L 490.636972 449.351315 
L 487.281309 445.995652 
L 483.925646 449.351315 
L 480.569984 445.995652 
L 477.214321 449.351315 
L 480.569984 452.706977 
L 477.214321 456.06264 
z
" clip-path="url(#p4e7b904595)" style="fill: #c9e8f2; fill-opacity: 0.8; stroke: #000000; stroke-opacity: 0.8; stroke-width: 0.5"/>
    <path d="M 477.85875 477.556687 
C 479.590369 477.556687 481.251298 476.868708 482.475738 475.644268 
C 483.700177 474.419829 484.388157 472.758899 484.388157 471.02728 
C 484.388157 469.295661 483.700177 467.634732 482.475738 466.410292 
C 481.251298 465.185853 479.590369 464.497874 477.85875 464.497874 
C 476.127131 464.497874 474.466202 465.185853 473.241762 466.410292 
C 472.017323 467.634732 471.329343 469.295661 471.329343 471.02728 
C 471.329343 472.758899 472.017323 474.419829 473.241762 475.644268 
C 474.466202 476.868708 476.127131 477.556687 477.85875 477.556687 
z
" clip-path="url(#p4e7b904595)" style="fill: #97c9e0; fill-opacity: 0.8; stroke: #000000; stroke-opacity: 0.8; stroke-width: 0.5"/>
    <path d="M 413.387373 458.090249 
C 414.815034 458.090249 416.184413 457.523033 417.193921 456.513525 
C 418.20343 455.504017 418.770645 454.134638 418.770645 452.706977 
C 418.770645 451.279317 418.20343 449.909938 417.193921 448.900429 
C 416.184413 447.890921 414.815034 447.323706 413.387373 447.323706 
C 411.959713 447.323706 410.590334 447.890921 409.580826 448.900429 
C 408.571317 449.909938 408.004102 451.279317 408.004102 452.706977 
C 408.004102 454.134638 408.571317 455.504017 409.580826 456.513525 
C 410.590334 457.523033 411.959713 458.090249 413.387373 458.090249 
z
" clip-path="url(#p4e7b904595)" style="fill: #313695; fill-opacity: 0.8; stroke: #000000; stroke-opacity: 0.8; stroke-width: 0.5"/>
    <path d="M 440.711495 327.627134 
C 441.550141 327.627134 442.354551 327.293936 442.947563 326.700924 
C 443.540575 326.107912 443.873773 325.303502 443.873773 324.464856 
C 443.873773 323.62621 443.540575 322.8218 442.947563 322.228788 
C 442.354551 321.635776 441.550141 321.302578 440.711495 321.302578 
C 439.872849 321.302578 439.068439 321.635776 438.475427 322.228788 
C 437.882415 322.8218 437.549217 323.62621 437.549217 324.464856 
C 437.549217 325.303502 437.882415 326.107912 438.475427 326.700924 
C 439.068439 327.293936 439.872849 327.627134 440.711495 327.627134 
z
" clip-path="url(#p4e7b904595)" style="fill: #a50026; fill-opacity: 0.8; stroke: #000000; stroke-opacity: 0.8; stroke-width: 0.5"/>
   </g>
   <g id="matplotlib.axis_1">
    <g id="xtick_1">
     <g id="line2d_1">
      <defs>
       <path id="m160773b4df" d="M 0 0 
L 0 3.5 
" style="stroke: #000000; stroke-width: 0.8"/>
      </defs>
      <g>
       <use xlink:href="#m160773b4df" x="115.435517" y="529.65225" style="stroke: #000000; stroke-width: 0.8"/>
      </g>
     </g>
     <g id="text_1">
      <text style="font-size: 10px; font-family: 'DejaVu Sans', 'Bitstream Vera Sans', 'Computer Modern Sans Serif', 'Lucida Grande', 'Verdana', 'Geneva', 'Lucid', 'Arial', 'Helvetica', 'Avant Garde', sans-serif; text-anchor: middle" x="115.435517" y="544.250687" transform="rotate(-0 115.435517 544.250687)">50</text>
     </g>
    </g>
    <g id="xtick_2">
     <g id="line2d_2">
      <g>
       <use xlink:href="#m160773b4df" x="211.00498" y="529.65225" style="stroke: #000000; stroke-width: 0.8"/>
      </g>
     </g>
     <g id="text_2">
      <text style="font-size: 10px; font-family: 'DejaVu Sans', 'Bitstream Vera Sans', 'Computer Modern Sans Serif', 'Lucida Grande', 'Verdana', 'Geneva', 'Lucid', 'Arial', 'Helvetica', 'Avant Garde', sans-serif; text-anchor: middle" x="211.00498" y="544.250687" transform="rotate(-0 211.00498 544.250687)">100</text>
     </g>
    </g>
    <g id="xtick_3">
     <g id="line2d_3">
      <g>
       <use xlink:href="#m160773b4df" x="306.574444" y="529.65225" style="stroke: #000000; stroke-width: 0.8"/>
      </g>
     </g>
     <g id="text_3">
      <text style="font-size: 10px; font-family: 'DejaVu Sans', 'Bitstream Vera Sans', 'Computer Modern Sans Serif', 'Lucida Grande', 'Verdana', 'Geneva', 'Lucid', 'Arial', 'Helvetica', 'Avant Garde', sans-serif; text-anchor: middle" x="306.574444" y="544.250687" transform="rotate(-0 306.574444 544.250687)">150</text>
     </g>
    </g>
    <g id="xtick_4">
     <g id="line2d_4">
      <g>
       <use xlink:href="#m160773b4df" x="402.143907" y="529.65225" style="stroke: #000000; stroke-width: 0.8"/>
      </g>
     </g>
     <g id="text_4">
      <text style="font-size: 10px; font-family: 'DejaVu Sans', 'Bitstream Vera Sans', 'Computer Modern Sans Serif', 'Lucida Grande', 'Verdana', 'Geneva', 'Lucid', 'Arial', 'Helvetica', 'Avant Garde', sans-serif; text-anchor: middle" x="402.143907" y="544.250687" transform="rotate(-0 402.143907 544.250687)">200</text>
     </g>
    </g>
    <g id="xtick_5">
     <g id="line2d_5">
      <g>
       <use xlink:href="#m160773b4df" x="497.713371" y="529.65225" style="stroke: #000000; stroke-width: 0.8"/>
      </g>
     </g>
     <g id="text_5">
      <text style="font-size: 10px; font-family: 'DejaVu Sans', 'Bitstream Vera Sans', 'Computer Modern Sans Serif', 'Lucida Grande', 'Verdana', 'Geneva', 'Lucid', 'Arial', 'Helvetica', 'Avant Garde', sans-serif; text-anchor: middle" x="497.713371" y="544.250687" transform="rotate(-0 497.713371 544.250687)">250</text>
     </g>
    </g>
    <g id="text_6">
     <text style="font-size: 10px; font-family: 'DejaVu Sans', 'Bitstream Vera Sans', 'Computer Modern Sans Serif', 'Lucida Grande', 'Verdana', 'Geneva', 'Lucid', 'Arial', 'Helvetica', 'Avant Garde', sans-serif; text-anchor: middle" x="298.353125" y="557.928812" transform="rotate(-0 298.353125 557.928812)">Average divergence all</text>
    </g>
   </g>
   <g id="matplotlib.axis_2">
    <g id="ytick_1">
     <g id="line2d_6">
      <defs>
       <path id="m53016f3dda" d="M 0 0 
L -3.5 0 
" style="stroke: #000000; stroke-width: 0.8"/>
      </defs>
      <g>
       <use xlink:href="#m53016f3dda" x="40.603125" y="525.988189" style="stroke: #000000; stroke-width: 0.8"/>
      </g>
     </g>
     <g id="text_7">
      <text style="font-size: 10px; font-family: 'DejaVu Sans', 'Bitstream Vera Sans', 'Computer Modern Sans Serif', 'Lucida Grande', 'Verdana', 'Geneva', 'Lucid', 'Arial', 'Helvetica', 'Avant Garde', sans-serif; text-anchor: end" x="33.603125" y="529.787408" transform="rotate(-0 33.603125 529.787408)">0</text>
     </g>
    </g>
    <g id="ytick_2">
     <g id="line2d_7">
      <g>
       <use xlink:href="#m53016f3dda" x="40.603125" y="434.386674" style="stroke: #000000; stroke-width: 0.8"/>
      </g>
     </g>
     <g id="text_8">
      <text style="font-size: 10px; font-family: 'DejaVu Sans', 'Bitstream Vera Sans', 'Computer Modern Sans Serif', 'Lucida Grande', 'Verdana', 'Geneva', 'Lucid', 'Arial', 'Helvetica', 'Avant Garde', sans-serif; text-anchor: end" x="33.603125" y="438.185893" transform="rotate(-0 33.603125 438.185893)">5</text>
     </g>
    </g>
    <g id="ytick_3">
     <g id="line2d_8">
      <g>
       <use xlink:href="#m53016f3dda" x="40.603125" y="342.785159" style="stroke: #000000; stroke-width: 0.8"/>
      </g>
     </g>
     <g id="text_9">
      <text style="font-size: 10px; font-family: 'DejaVu Sans', 'Bitstream Vera Sans', 'Computer Modern Sans Serif', 'Lucida Grande', 'Verdana', 'Geneva', 'Lucid', 'Arial', 'Helvetica', 'Avant Garde', sans-serif; text-anchor: end" x="33.603125" y="346.584378" transform="rotate(-0 33.603125 346.584378)">10</text>
     </g>
    </g>
    <g id="ytick_4">
     <g id="line2d_9">
      <g>
       <use xlink:href="#m53016f3dda" x="40.603125" y="251.183644" style="stroke: #000000; stroke-width: 0.8"/>
      </g>
     </g>
     <g id="text_10">
      <text style="font-size: 10px; font-family: 'DejaVu Sans', 'Bitstream Vera Sans', 'Computer Modern Sans Serif', 'Lucida Grande', 'Verdana', 'Geneva', 'Lucid', 'Arial', 'Helvetica', 'Avant Garde', sans-serif; text-anchor: end" x="33.603125" y="254.982863" transform="rotate(-0 33.603125 254.982863)">15</text>
     </g>
    </g>
    <g id="ytick_5">
     <g id="line2d_10">
      <g>
       <use xlink:href="#m53016f3dda" x="40.603125" y="159.582129" style="stroke: #000000; stroke-width: 0.8"/>
      </g>
     </g>
     <g id="text_11">
      <text style="font-size: 10px; font-family: 'DejaVu Sans', 'Bitstream Vera Sans', 'Computer Modern Sans Serif', 'Lucida Grande', 'Verdana', 'Geneva', 'Lucid', 'Arial', 'Helvetica', 'Avant Garde', sans-serif; text-anchor: end" x="33.603125" y="163.381348" transform="rotate(-0 33.603125 163.381348)">20</text>
     </g>
    </g>
    <g id="ytick_6">
     <g id="line2d_11">
      <g>
       <use xlink:href="#m53016f3dda" x="40.603125" y="67.980614" style="stroke: #000000; stroke-width: 0.8"/>
      </g>
     </g>
     <g id="text_12">
      <text style="font-size: 10px; font-family: 'DejaVu Sans', 'Bitstream Vera Sans', 'Computer Modern Sans Serif', 'Lucida Grande', 'Verdana', 'Geneva', 'Lucid', 'Arial', 'Helvetica', 'Avant Garde', sans-serif; text-anchor: end" x="33.603125" y="71.779832" transform="rotate(-0 33.603125 71.779832)">25</text>
     </g>
    </g>
    <g id="text_13">
     <text style="font-size: 10px; font-family: 'DejaVu Sans', 'Bitstream Vera Sans', 'Computer Modern Sans Serif', 'Lucida Grande', 'Verdana', 'Geneva', 'Lucid', 'Arial', 'Helvetica', 'Avant Garde', sans-serif; text-anchor: middle" x="14.798438" y="287.82425" transform="rotate(-90 14.798438 287.82425)">GO terms count</text>
    </g>
   </g>
   <g id="line2d_12"/>
   <g id="line2d_13"/>
   <g id="line2d_14"/>
   <g id="line2d_15"/>
   <g id="line2d_16"/>
   <g id="line2d_17"/>
   <g id="line2d_18"/>
   <g id="line2d_19"/>
   <g id="line2d_20"/>
   <g id="line2d_21"/>
   <g id="line2d_22"/>
   <g id="line2d_23"/>
   <g id="line2d_24"/>
   <g id="line2d_25"/>
   <g id="line2d_26"/>
   <g id="patch_3">
    <path d="M 40.603125 529.65225 
L 40.603125 45.99625 
" style="fill: none; stroke: #000000; stroke-width: 0.8; stroke-linejoin: miter; stroke-linecap: square"/>
   </g>
   <g id="patch_4">
    <path d="M 556.103125 529.65225 
L 556.103125 45.99625 
" style="fill: none; stroke: #000000; stroke-width: 0.8; stroke-linejoin: miter; stroke-linecap: square"/>
   </g>
   <g id="patch_5">
    <path d="M 40.603125 529.65225 
L 556.103125 529.65225 
" style="fill: none; stroke: #000000; stroke-width: 0.8; stroke-linejoin: miter; stroke-linecap: square"/>
   </g>
   <g id="patch_6">
    <path d="M 40.603125 45.99625 
L 556.103125 45.99625 
" style="fill: none; stroke: #000000; stroke-width: 0.8; stroke-linejoin: miter; stroke-linecap: square"/>
   </g>
   <g id="patch_7">
    <path d="M 322.439349 386.910304 
Q 319.759819 391.467092 317.08029 396.02388 
" style="fill: none; opacity: 0.6; stroke: #808080; stroke-width: 0.5; stroke-linecap: round"/>
   </g>
   <g id="patch_8">
    <path d="M 507.45415 447.62455 
Q 507.243743 449.174343 507.033336 450.724136 
" style="fill: none; opacity: 0.6; stroke: #808080; stroke-width: 0.5; stroke-linecap: round"/>
   </g>
   <g id="patch_9">
    <path d="M 400.572274 497.071349 
Q 399.748175 501.387834 398.924077 505.704319 
" style="fill: none; opacity: 0.6; stroke: #808080; stroke-width: 0.5; stroke-linecap: round"/>
   </g>
   <g id="patch_10">
    <path d="M 152.455463 380.73423 
Q 148.489014 380.210653 144.522564 379.687075 
" style="fill: none; opacity: 0.6; stroke: #808080; stroke-width: 0.5; stroke-linecap: round"/>
   </g>
   <g id="patch_11">
    <path d="M 242.207403 422.712082 
Q 231.306347 428.105453 220.405291 433.498824 
" style="fill: none; opacity: 0.6; stroke: #808080; stroke-width: 0.5; stroke-linecap: round"/>
   </g>
   <g id="patch_12">
    <path d="M 403.699 472.440791 
Q 395.728316 471.812545 387.757631 471.184299 
" style="fill: none; opacity: 0.6; stroke: #808080; stroke-width: 0.5; stroke-linecap: round"/>
   </g>
   <g id="patch_13">
    <path d="M 344.254283 409.582222 
Q 334.544783 412.533412 324.835284 415.484602 
" style="fill: none; opacity: 0.6; stroke: #808080; stroke-width: 0.5; stroke-linecap: round"/>
   </g>
   <g id="patch_14">
    <path d="M 374.449921 502.081702 
Q 372.582883 504.134243 370.715845 506.186784 
" style="fill: none; opacity: 0.6; stroke: #808080; stroke-width: 0.5; stroke-linecap: round"/>
   </g>
   <g id="patch_15">
    <path d="M 539.06177 446.083087 
Q 525.464042 449.173077 511.866314 452.263067 
" style="fill: none; opacity: 0.6; stroke: #808080; stroke-width: 0.5; stroke-linecap: round"/>
   </g>
   <g id="patch_16">
    <path d="M 89.327326 399.053767 
Q 85.378682 398.531134 81.430037 398.008502 
" style="fill: none; opacity: 0.6; stroke: #808080; stroke-width: 0.5; stroke-linecap: round"/>
   </g>
   <g id="patch_17">
    <path d="M 481.859012 511.952506 
Q 481.883059 510.808128 481.907106 509.663749 
" style="fill: none; opacity: 0.6; stroke: #808080; stroke-width: 0.5; stroke-linecap: round"/>
   </g>
   <g id="patch_18">
    <path d="M 495.456846 496.324531 
Q 488.871845 501.385562 482.286843 506.446593 
" style="fill: none; opacity: 0.6; stroke: #808080; stroke-width: 0.5; stroke-linecap: round"/>
   </g>
   <g id="patch_19">
    <path d="M 211.361826 444.171411 
Q 211.065604 440.275194 210.769382 436.378977 
" style="fill: none; opacity: 0.6; stroke: #808080; stroke-width: 0.5; stroke-linecap: round"/>
   </g>
   <g id="patch_20">
    <path d="M 498.596402 466.064562 
Q 490.59588 468.278763 482.595357 470.492964 
" style="fill: none; opacity: 0.6; stroke: #808080; stroke-width: 0.5; stroke-linecap: round"/>
   </g>
   <g id="patch_21">
    <path d="M 291.051723 391.013395 
Q 288.244366 393.691013 285.437009 396.368632 
" style="fill: none; opacity: 0.6; stroke: #808080; stroke-width: 0.5; stroke-linecap: round"/>
   </g>
   <g id="patch_22">
    <path d="M 341.687295 454.020043 
Q 337.612206 453.49206 333.537117 452.964077 
" style="fill: none; opacity: 0.6; stroke: #808080; stroke-width: 0.5; stroke-linecap: round"/>
   </g>
   <g id="patch_23">
    <path d="M 279.629601 441.491606 
Q 271.714984 438.311212 263.800368 435.130819 
" style="fill: none; opacity: 0.6; stroke: #808080; stroke-width: 0.5; stroke-linecap: round"/>
   </g>
   <g id="patch_24">
    <path d="M 226.629891 405.224473 
Q 223.937238 409.783841 221.244585 414.343208 
" style="fill: none; opacity: 0.6; stroke: #808080; stroke-width: 0.5; stroke-linecap: round"/>
   </g>
   <g id="patch_25">
    <path d="M 426.815008 495.901283 
Q 414.193531 501.385997 401.572054 506.87071 
" style="fill: none; opacity: 0.6; stroke: #808080; stroke-width: 0.5; stroke-linecap: round"/>
   </g>
   <g id="patch_26">
    <path d="M 196.61609 426.549492 
Q 195.370107 429.543923 194.124124 432.538355 
" style="fill: none; opacity: 0.6; stroke: #808080; stroke-width: 0.5; stroke-linecap: round"/>
   </g>
   <g id="patch_27">
    <path d="M 522.388446 509.068362 
Q 515.158732 508.45309 507.929019 507.837817 
" style="fill: none; opacity: 0.6; stroke: #808080; stroke-width: 0.5; stroke-linecap: round"/>
   </g>
   <g id="patch_28">
    <path d="M 346.124676 435.083078 
Q 339.295769 434.779337 332.466861 434.475595 
" style="fill: none; opacity: 0.6; stroke: #808080; stroke-width: 0.5; stroke-linecap: round"/>
   </g>
   <g id="patch_29">
    <path d="M 73.914997 435.694373 
Q 69.966352 435.17174 66.017708 434.649108 
" style="fill: none; opacity: 0.6; stroke: #808080; stroke-width: 0.5; stroke-linecap: round"/>
   </g>
   <g id="patch_30">
    <path d="M 323.064057 439.309233 
Q 324.987706 437.526969 326.911354 435.744704 
" style="fill: none; opacity: 0.6; stroke: #808080; stroke-width: 0.5; stroke-linecap: round"/>
   </g>
   <g id="patch_31">
    <path d="M 480.46446 447.320916 
Q 481.655088 449.173689 482.845716 451.026463 
" style="fill: none; opacity: 0.6; stroke: #808080; stroke-width: 0.5; stroke-linecap: round"/>
   </g>
   <g id="patch_32">
    <path d="M 470.750508 476.141528 
Q 473.494192 474.167498 476.237876 472.193469 
" style="fill: none; opacity: 0.6; stroke: #808080; stroke-width: 0.5; stroke-linecap: round"/>
   </g>
   <g id="text_14">
    <text style="font-size: 10px; font-family: 'DejaVu Sans', 'Bitstream Vera Sans', 'Computer Modern Sans Serif', 'Lucida Grande', 'Verdana', 'Geneva', 'Lucid', 'Arial', 'Helvetica', 'Avant Garde', sans-serif" transform="translate(203.985937 14.798437)">L1 Subfamilies: Length vs Divergence</text>
    <text style="font-size: 10px; font-family: 'DejaVu Sans', 'Bitstream Vera Sans', 'Computer Modern Sans Serif', 'Lucida Grande', 'Verdana', 'Geneva', 'Lucid', 'Arial', 'Helvetica', 'Avant Garde', sans-serif" transform="translate(182.130469 25.99625)">(Sized by Copy Count, Colored by Enrichment)</text>
   </g>
   <g id="text_15">
    <g id="patch_33">
     <path d="M 66.378125 96.054987 
L 154.7 96.054987 
Q 159.7 96.054987 159.7 91.054987 
L 159.7 70.17905 
Q 159.7 65.17905 154.7 65.17905 
L 66.378125 65.17905 
Q 61.378125 65.17905 61.378125 70.17905 
L 61.378125 91.054987 
Q 61.378125 96.054987 66.378125 96.054987 
z
" style="fill: #ffffff; opacity: 0.8; stroke: #808080; stroke-linejoin: miter"/>
    </g>
    <text style="font-size: 10px; font-family: 'DejaVu Sans', 'Bitstream Vera Sans', 'Computer Modern Sans Serif', 'Lucida Grande', 'Verdana', 'Geneva', 'Lucid', 'Arial', 'Helvetica', 'Avant Garde', sans-serif" transform="translate(66.378125 77.777487)">Pearson R: -0.285</text>
    <text style="font-size: 10px; font-family: 'DejaVu Sans', 'Bitstream Vera Sans', 'Computer Modern Sans Serif', 'Lucida Grande', 'Verdana', 'Geneva', 'Lucid', 'Arial', 'Helvetica', 'Avant Garde', sans-serif" transform="translate(66.378125 88.9753)">p = 0.050</text>
   </g>
   <g id="legend_1">
    <g id="line2d_27"/>
    <g id="text_16">
     <text style="font-size: 10px; font-family: 'DejaVu Sans', 'Bitstream Vera Sans', 'Computer Modern Sans Serif', 'Lucida Grande', 'Verdana', 'Geneva', 'Lucid', 'Arial', 'Helvetica', 'Avant Garde', sans-serif; text-anchor: start" x="613.878125" y="57.594687" transform="rotate(-0 613.878125 57.594687)">OR_Observed_to_Random_Log</text>
    </g>
    <g id="line2d_28">
     <defs>
      <path id="m36df5ccb1e" d="M 0 3 
C 0.795609 3 1.55874 2.683901 2.12132 2.12132 
C 2.683901 1.55874 3 0.795609 3 0 
C 3 -0.795609 2.683901 -1.55874 2.12132 -2.12132 
C 1.55874 -2.683901 0.795609 -3 0 -3 
C -0.795609 -3 -1.55874 -2.683901 -2.12132 -2.12132 
C -2.683901 -1.55874 -3 -0.795609 -3 0 
C -3 0.795609 -2.683901 1.55874 -2.12132 2.12132 
C -1.55874 2.683901 -0.795609 3 0 3 
z
" style="stroke: #000000; stroke-opacity: 0.8; stroke-width: 0.5"/>
     </defs>
     <g>
      <use xlink:href="#m36df5ccb1e" x="595.878125" y="69.050937" style="fill: #4065ac; fill-opacity: 0.8; stroke: #000000; stroke-opacity: 0.8; stroke-width: 0.5"/>
     </g>
    </g>
    <g id="text_17">
     <text style="font-size: 10px; font-family: 'DejaVu Sans', 'Bitstream Vera Sans', 'Computer Modern Sans Serif', 'Lucida Grande', 'Verdana', 'Geneva', 'Lucid', 'Arial', 'Helvetica', 'Avant Garde', sans-serif; text-anchor: start" x="613.878125" y="72.550937" transform="rotate(-0 613.878125 72.550937)">−0.6</text>
    </g>
    <g id="line2d_29">
     <defs>
      <path id="m5dfcb3a4f8" d="M 0 3 
C 0.795609 3 1.55874 2.683901 2.12132 2.12132 
C 2.683901 1.55874 3 0.795609 3 0 
C 3 -0.795609 2.683901 -1.55874 2.12132 -2.12132 
C 1.55874 -2.683901 0.795609 -3 0 -3 
C -0.795609 -3 -1.55874 -2.683901 -2.12132 -2.12132 
C -2.683901 -1.55874 -3 -0.795609 -3 0 
C -3 0.795609 -2.683901 1.55874 -2.12132 2.12132 
C -1.55874 2.683901 -0.795609 3 0 3 
z
" style="stroke: #000000; stroke-opacity: 0.8; stroke-width: 0.5"/>
     </defs>
     <g>
      <use xlink:href="#m5dfcb3a4f8" x="595.878125" y="83.729062" style="fill: #97c9e0; fill-opacity: 0.8; stroke: #000000; stroke-opacity: 0.8; stroke-width: 0.5"/>
     </g>
    </g>
    <g id="text_18">
     <text style="font-size: 10px; font-family: 'DejaVu Sans', 'Bitstream Vera Sans', 'Computer Modern Sans Serif', 'Lucida Grande', 'Verdana', 'Geneva', 'Lucid', 'Arial', 'Helvetica', 'Avant Garde', sans-serif; text-anchor: start" x="613.878125" y="87.229062" transform="rotate(-0 613.878125 87.229062)">−0.3</text>
    </g>
    <g id="line2d_30">
     <defs>
      <path id="mf0e175ca9e" d="M 0 3 
C 0.795609 3 1.55874 2.683901 2.12132 2.12132 
C 2.683901 1.55874 3 0.795609 3 0 
C 3 -0.795609 2.683901 -1.55874 2.12132 -2.12132 
C 1.55874 -2.683901 0.795609 -3 0 -3 
C -0.795609 -3 -1.55874 -2.683901 -2.12132 -2.12132 
C -2.683901 -1.55874 -3 -0.795609 -3 0 
C -3 0.795609 -2.683901 1.55874 -2.12132 2.12132 
C -1.55874 2.683901 -0.795609 3 0 3 
z
" style="stroke: #000000; stroke-opacity: 0.8; stroke-width: 0.5"/>
     </defs>
     <g>
      <use xlink:href="#mf0e175ca9e" x="595.878125" y="98.407187" style="fill: #f0f9db; fill-opacity: 0.8; stroke: #000000; stroke-opacity: 0.8; stroke-width: 0.5"/>
     </g>
    </g>
    <g id="text_19">
     <text style="font-size: 10px; font-family: 'DejaVu Sans', 'Bitstream Vera Sans', 'Computer Modern Sans Serif', 'Lucida Grande', 'Verdana', 'Geneva', 'Lucid', 'Arial', 'Helvetica', 'Avant Garde', sans-serif; text-anchor: start" x="613.878125" y="101.907187" transform="rotate(-0 613.878125 101.907187)">0.0</text>
    </g>
    <g id="line2d_31">
     <defs>
      <path id="m3923996b53" d="M 0 3 
C 0.795609 3 1.55874 2.683901 2.12132 2.12132 
C 2.683901 1.55874 3 0.795609 3 0 
C 3 -0.795609 2.683901 -1.55874 2.12132 -2.12132 
C 1.55874 -2.683901 0.795609 -3 0 -3 
C -0.795609 -3 -1.55874 -2.683901 -2.12132 -2.12132 
C -2.683901 -1.55874 -3 -0.795609 -3 0 
C -3 0.795609 -2.683901 1.55874 -2.12132 2.12132 
C -1.55874 2.683901 -0.795609 3 0 3 
z
" style="stroke: #000000; stroke-opacity: 0.8; stroke-width: 0.5"/>
     </defs>
     <g>
      <use xlink:href="#m3923996b53" x="595.878125" y="113.085312" style="fill: #fecc7e; fill-opacity: 0.8; stroke: #000000; stroke-opacity: 0.8; stroke-width: 0.5"/>
     </g>
    </g>
    <g id="text_20">
     <text style="font-size: 10px; font-family: 'DejaVu Sans', 'Bitstream Vera Sans', 'Computer Modern Sans Serif', 'Lucida Grande', 'Verdana', 'Geneva', 'Lucid', 'Arial', 'Helvetica', 'Avant Garde', sans-serif; text-anchor: start" x="613.878125" y="116.585312" transform="rotate(-0 613.878125 116.585312)">0.3</text>
    </g>
    <g id="line2d_32">
     <defs>
      <path id="m0ea0e19573" d="M 0 3 
C 0.795609 3 1.55874 2.683901 2.12132 2.12132 
C 2.683901 1.55874 3 0.795609 3 0 
C 3 -0.795609 2.683901 -1.55874 2.12132 -2.12132 
C 1.55874 -2.683901 0.795609 -3 0 -3 
C -0.795609 -3 -1.55874 -2.683901 -2.12132 -2.12132 
C -2.683901 -1.55874 -3 -0.795609 -3 0 
C -3 0.795609 -2.683901 1.55874 -2.12132 2.12132 
C -1.55874 2.683901 -0.795609 3 0 3 
z
" style="stroke: #000000; stroke-opacity: 0.8; stroke-width: 0.5"/>
     </defs>
     <g>
      <use xlink:href="#m0ea0e19573" x="595.878125" y="127.763437" style="fill: #ec5c3b; fill-opacity: 0.8; stroke: #000000; stroke-opacity: 0.8; stroke-width: 0.5"/>
     </g>
    </g>
    <g id="text_21">
     <text style="font-size: 10px; font-family: 'DejaVu Sans', 'Bitstream Vera Sans', 'Computer Modern Sans Serif', 'Lucida Grande', 'Verdana', 'Geneva', 'Lucid', 'Arial', 'Helvetica', 'Avant Garde', sans-serif; text-anchor: start" x="613.878125" y="131.263437" transform="rotate(-0 613.878125 131.263437)">0.6</text>
    </g>
    <g id="line2d_33"/>
    <g id="text_22">
     <text style="font-size: 10px; font-family: 'DejaVu Sans', 'Bitstream Vera Sans', 'Computer Modern Sans Serif', 'Lucida Grande', 'Verdana', 'Geneva', 'Lucid', 'Arial', 'Helvetica', 'Avant Garde', sans-serif; text-anchor: start" x="613.878125" y="145.941562" transform="rotate(-0 613.878125 145.941562)">Total_TEs_number_log</text>
    </g>
    <g id="line2d_34">
     <defs>
      <path id="m203c04ab88" d="M 0 4.731185 
C 1.254725 4.731185 2.458228 4.232677 3.345453 3.345453 
C 4.232677 2.458228 4.731185 1.254725 4.731185 0 
C 4.731185 -1.254725 4.232677 -2.458228 3.345453 -3.345453 
C 2.458228 -4.232677 1.254725 -4.731185 0 -4.731185 
C -1.254725 -4.731185 -2.458228 -4.232677 -3.345453 -3.345453 
C -4.232677 -2.458228 -4.731185 -1.254725 -4.731185 0 
C -4.731185 1.254725 -4.232677 2.458228 -3.345453 3.345453 
C -2.458228 4.232677 -1.254725 4.731185 0 4.731185 
z
" style="stroke: #000000; stroke-opacity: 0.8; stroke-width: 0.5"/>
     </defs>
     <g>
      <use xlink:href="#m203c04ab88" x="595.878125" y="157.397812" style="fill: #333333; fill-opacity: 0.8; stroke: #000000; stroke-opacity: 0.8; stroke-width: 0.5"/>
     </g>
    </g>
    <g id="text_23">
     <text style="font-size: 10px; font-family: 'DejaVu Sans', 'Bitstream Vera Sans', 'Computer Modern Sans Serif', 'Lucida Grande', 'Verdana', 'Geneva', 'Lucid', 'Arial', 'Helvetica', 'Avant Garde', sans-serif; text-anchor: start" x="613.878125" y="160.897812" transform="rotate(-0 613.878125 160.897812)">2.0</text>
    </g>
    <g id="line2d_35">
     <defs>
      <path id="m1c5bd16525" d="M 0 6.343467 
C 1.682307 6.343467 3.295938 5.67508 4.485509 4.485509 
C 5.67508 3.295938 6.343467 1.682307 6.343467 0 
C 6.343467 -1.682307 5.67508 -3.295938 4.485509 -4.485509 
C 3.295938 -5.67508 1.682307 -6.343467 0 -6.343467 
C -1.682307 -6.343467 -3.295938 -5.67508 -4.485509 -4.485509 
C -5.67508 -3.295938 -6.343467 -1.682307 -6.343467 0 
C -6.343467 1.682307 -5.67508 3.295938 -4.485509 4.485509 
C -3.295938 5.67508 -1.682307 6.343467 0 6.343467 
z
" style="stroke: #000000; stroke-opacity: 0.8; stroke-width: 0.5"/>
     </defs>
     <g>
      <use xlink:href="#m1c5bd16525" x="595.878125" y="172.075937" style="fill: #333333; fill-opacity: 0.8; stroke: #000000; stroke-opacity: 0.8; stroke-width: 0.5"/>
     </g>
    </g>
    <g id="text_24">
     <text style="font-size: 10px; font-family: 'DejaVu Sans', 'Bitstream Vera Sans', 'Computer Modern Sans Serif', 'Lucida Grande', 'Verdana', 'Geneva', 'Lucid', 'Arial', 'Helvetica', 'Avant Garde', sans-serif; text-anchor: start" x="613.878125" y="175.575937" transform="rotate(-0 613.878125 175.575937)">2.5</text>
    </g>
    <g id="line2d_36">
     <defs>
      <path id="mc513222361" d="M 0 7.622011 
C 2.021381 7.622011 3.960243 6.818908 5.389576 5.389576 
C 6.818908 3.960243 7.622011 2.021381 7.622011 0 
C 7.622011 -2.021381 6.818908 -3.960243 5.389576 -5.389576 
C 3.960243 -6.818908 2.021381 -7.622011 0 -7.622011 
C -2.021381 -7.622011 -3.960243 -6.818908 -5.389576 -5.389576 
C -6.818908 -3.960243 -7.622011 -2.021381 -7.622011 0 
C -7.622011 2.021381 -6.818908 3.960243 -5.389576 5.389576 
C -3.960243 6.818908 -2.021381 7.622011 0 7.622011 
z
" style="stroke: #000000; stroke-opacity: 0.8; stroke-width: 0.5"/>
     </defs>
     <g>
      <use xlink:href="#mc513222361" x="595.878125" y="186.754062" style="fill: #333333; fill-opacity: 0.8; stroke: #000000; stroke-opacity: 0.8; stroke-width: 0.5"/>
     </g>
    </g>
    <g id="text_25">
     <text style="font-size: 10px; font-family: 'DejaVu Sans', 'Bitstream Vera Sans', 'Computer Modern Sans Serif', 'Lucida Grande', 'Verdana', 'Geneva', 'Lucid', 'Arial', 'Helvetica', 'Avant Garde', sans-serif; text-anchor: start" x="613.878125" y="190.254062" transform="rotate(-0 613.878125 190.254062)">3.0</text>
    </g>
    <g id="line2d_37">
     <defs>
      <path id="m0e543dab68" d="M 0 8.71496 
C 2.311234 8.71496 4.528118 7.796696 6.162407 6.162407 
C 7.796696 4.528118 8.71496 2.311234 8.71496 0 
C 8.71496 -2.311234 7.796696 -4.528118 6.162407 -6.162407 
C 4.528118 -7.796696 2.311234 -8.71496 0 -8.71496 
C -2.311234 -8.71496 -4.528118 -7.796696 -6.162407 -6.162407 
C -7.796696 -4.528118 -8.71496 -2.311234 -8.71496 0 
C -8.71496 2.311234 -7.796696 4.528118 -6.162407 6.162407 
C -4.528118 7.796696 -2.311234 8.71496 0 8.71496 
z
" style="stroke: #000000; stroke-opacity: 0.8; stroke-width: 0.5"/>
     </defs>
     <g>
      <use xlink:href="#m0e543dab68" x="595.878125" y="201.432187" style="fill: #333333; fill-opacity: 0.8; stroke: #000000; stroke-opacity: 0.8; stroke-width: 0.5"/>
     </g>
    </g>
    <g id="text_26">
     <text style="font-size: 10px; font-family: 'DejaVu Sans', 'Bitstream Vera Sans', 'Computer Modern Sans Serif', 'Lucida Grande', 'Verdana', 'Geneva', 'Lucid', 'Arial', 'Helvetica', 'Avant Garde', sans-serif; text-anchor: start" x="613.878125" y="204.932187" transform="rotate(-0 613.878125 204.932187)">3.5</text>
    </g>
    <g id="line2d_38">
     <defs>
      <path id="m7e991c3095" d="M 0 9.685349 
C 2.568585 9.685349 5.032313 8.66484 6.848576 6.848576 
C 8.66484 5.032313 9.685349 2.568585 9.685349 0 
C 9.685349 -2.568585 8.66484 -5.032313 6.848576 -6.848576 
C 5.032313 -8.66484 2.568585 -9.685349 0 -9.685349 
C -2.568585 -9.685349 -5.032313 -8.66484 -6.848576 -6.848576 
C -8.66484 -5.032313 -9.685349 -2.568585 -9.685349 0 
C -9.685349 2.568585 -8.66484 5.032313 -6.848576 6.848576 
C -5.032313 8.66484 -2.568585 9.685349 0 9.685349 
z
" style="stroke: #000000; stroke-opacity: 0.8; stroke-width: 0.5"/>
     </defs>
     <g>
      <use xlink:href="#m7e991c3095" x="595.878125" y="216.110312" style="fill: #333333; fill-opacity: 0.8; stroke: #000000; stroke-opacity: 0.8; stroke-width: 0.5"/>
     </g>
    </g>
    <g id="text_27">
     <text style="font-size: 10px; font-family: 'DejaVu Sans', 'Bitstream Vera Sans', 'Computer Modern Sans Serif', 'Lucida Grande', 'Verdana', 'Geneva', 'Lucid', 'Arial', 'Helvetica', 'Avant Garde', sans-serif; text-anchor: start" x="613.878125" y="219.610312" transform="rotate(-0 613.878125 219.610312)">4.0</text>
    </g>
    <g id="line2d_39"/>
    <g id="text_28">
     <text style="font-size: 10px; font-family: 'DejaVu Sans', 'Bitstream Vera Sans', 'Computer Modern Sans Serif', 'Lucida Grande', 'Verdana', 'Geneva', 'Lucid', 'Arial', 'Helvetica', 'Avant Garde', sans-serif; text-anchor: start" x="613.878125" y="234.288437" transform="rotate(-0 613.878125 234.288437)">Status</text>
    </g>
    <g id="line2d_40">
     <defs>
      <path id="mbe4d241290" d="M 0 3 
C 0.795609 3 1.55874 2.683901 2.12132 2.12132 
C 2.683901 1.55874 3 0.795609 3 0 
C 3 -0.795609 2.683901 -1.55874 2.12132 -2.12132 
C 1.55874 -2.683901 0.795609 -3 0 -3 
C -0.795609 -3 -1.55874 -2.683901 -2.12132 -2.12132 
C -2.683901 -1.55874 -3 -0.795609 -3 0 
C -3 0.795609 -2.683901 1.55874 -2.12132 2.12132 
C -1.55874 2.683901 -0.795609 3 0 3 
z
" style="stroke: #000000; stroke-opacity: 0.8; stroke-width: 0.5"/>
     </defs>
     <g>
      <use xlink:href="#mbe4d241290" x="595.878125" y="245.466562" style="fill: #333333; fill-opacity: 0.8; stroke: #000000; stroke-opacity: 0.8; stroke-width: 0.5"/>
     </g>
    </g>
    <g id="text_29">
     <text style="font-size: 10px; font-family: 'DejaVu Sans', 'Bitstream Vera Sans', 'Computer Modern Sans Serif', 'Lucida Grande', 'Verdana', 'Geneva', 'Lucid', 'Arial', 'Helvetica', 'Avant Garde', sans-serif; text-anchor: start" x="613.878125" y="248.966562" transform="rotate(-0 613.878125 248.966562)">Significant</text>
    </g>
    <g id="line2d_41">
     <defs>
      <path id="m72db10ca43" d="M -1.5 3 
L 0 1.5 
L 1.5 3 
L 3 1.5 
L 1.5 0 
L 3 -1.5 
L 1.5 -3 
L 0 -1.5 
L -1.5 -3 
L -3 -1.5 
L -1.5 0 
L -3 1.5 
z
" style="stroke: #000000; stroke-opacity: 0.8; stroke-width: 0.5; stroke-linejoin: miter"/>
     </defs>
     <g>
      <use xlink:href="#m72db10ca43" x="595.878125" y="260.144687" style="fill: #333333; fill-opacity: 0.8; stroke: #000000; stroke-opacity: 0.8; stroke-width: 0.5; stroke-linejoin: miter"/>
     </g>
    </g>
    <g id="text_30">
     <text style="font-size: 10px; font-family: 'DejaVu Sans', 'Bitstream Vera Sans', 'Computer Modern Sans Serif', 'Lucida Grande', 'Verdana', 'Geneva', 'Lucid', 'Arial', 'Helvetica', 'Avant Garde', sans-serif; text-anchor: start" x="613.878125" y="263.644687" transform="rotate(-0 613.878125 263.644687)">Non-Significant</text>
    </g>
   </g>
   <g id="text_31">
    <text style="font-size: 10px; font-family: 'DejaVu Sans', 'Bitstream Vera Sans', 'Computer Modern Sans Serif', 'Lucida Grande', 'Verdana', 'Geneva', 'Lucid', 'Arial', 'Helvetica', 'Avant Garde', sans-serif; text-anchor: middle; fill: #444444" x="323.454719" y="387.94295" transform="rotate(-0 323.454719 387.94295)">L1MA4</text>
   </g>
   <g id="text_32">
    <text style="font-size: 10px; font-family: 'DejaVu Sans', 'Bitstream Vera Sans', 'Computer Modern Sans Serif', 'Lucida Grande', 'Verdana', 'Geneva', 'Lucid', 'Arial', 'Helvetica', 'Avant Garde', sans-serif; text-anchor: middle; fill: #444444" x="106.437303" y="375.118738" transform="rotate(-0 106.437303 375.118738)">L1PA4</text>
   </g>
   <g id="text_33">
    <text style="font-size: 10px; font-family: 'DejaVu Sans', 'Bitstream Vera Sans', 'Computer Modern Sans Serif', 'Lucida Grande', 'Verdana', 'Geneva', 'Lucid', 'Arial', 'Helvetica', 'Avant Garde', sans-serif; text-anchor: middle; fill: #444444" x="507.723504" y="448.39995" transform="rotate(-0 507.723504 448.39995)">L1ME3B</text>
   </g>
   <g id="text_34">
    <text style="font-size: 10px; font-family: 'DejaVu Sans', 'Bitstream Vera Sans', 'Computer Modern Sans Serif', 'Lucida Grande', 'Verdana', 'Geneva', 'Lucid', 'Arial', 'Helvetica', 'Avant Garde', sans-serif; text-anchor: middle; fill: #444444" x="400.947613" y="497.864768" transform="rotate(-0 400.947613 497.864768)">L1M4</text>
   </g>
   <g id="text_35">
    <text style="font-size: 10px; font-family: 'DejaVu Sans', 'Bitstream Vera Sans', 'Computer Modern Sans Serif', 'Lucida Grande', 'Verdana', 'Geneva', 'Lucid', 'Arial', 'Helvetica', 'Avant Garde', sans-serif; text-anchor: middle; fill: #444444" x="154.439124" y="383.755452" transform="rotate(-0 154.439124 383.755452)">L1PA6</text>
   </g>
   <g id="text_36">
    <text style="font-size: 10px; font-family: 'DejaVu Sans', 'Bitstream Vera Sans', 'Computer Modern Sans Serif', 'Lucida Grande', 'Verdana', 'Geneva', 'Lucid', 'Arial', 'Helvetica', 'Avant Garde', sans-serif; text-anchor: middle; fill: #444444" x="123.878619" y="431.649958" transform="rotate(-0 123.878619 431.649958)">L1PA5</text>
   </g>
   <g id="text_37">
    <text style="font-size: 10px; font-family: 'DejaVu Sans', 'Bitstream Vera Sans', 'Computer Modern Sans Serif', 'Lucida Grande', 'Verdana', 'Geneva', 'Lucid', 'Arial', 'Helvetica', 'Avant Garde', sans-serif; text-anchor: middle; fill: #444444" x="309.07059" y="359.153902" transform="rotate(-0 309.07059 359.153902)">L1P4</text>
   </g>
   <g id="text_38">
    <text style="font-size: 10px; font-family: 'DejaVu Sans', 'Bitstream Vera Sans', 'Computer Modern Sans Serif', 'Lucida Grande', 'Verdana', 'Geneva', 'Lucid', 'Arial', 'Helvetica', 'Avant Garde', sans-serif; text-anchor: middle; fill: #444444" x="244.002024" y="424.583556" transform="rotate(-0 244.002024 424.583556)">L1PA10</text>
   </g>
   <g id="text_39">
    <text style="font-size: 10px; font-family: 'DejaVu Sans', 'Bitstream Vera Sans', 'Computer Modern Sans Serif', 'Lucida Grande', 'Verdana', 'Geneva', 'Lucid', 'Arial', 'Helvetica', 'Avant Garde', sans-serif; text-anchor: middle; fill: #444444" x="320.373497" y="411.759344" transform="rotate(-0 320.373497 411.759344)">L1MA8</text>
   </g>
   <g id="text_40">
    <text style="font-size: 10px; font-family: 'DejaVu Sans', 'Bitstream Vera Sans', 'Computer Modern Sans Serif', 'Lucida Grande', 'Verdana', 'Geneva', 'Lucid', 'Arial', 'Helvetica', 'Avant Garde', sans-serif; text-anchor: middle; fill: #444444" x="180.54626" y="266.767231" transform="rotate(-0 180.54626 266.767231)">L1PA8</text>
   </g>
   <g id="text_41">
    <text style="font-size: 10px; font-family: 'DejaVu Sans', 'Bitstream Vera Sans', 'Computer Modern Sans Serif', 'Lucida Grande', 'Verdana', 'Geneva', 'Lucid', 'Arial', 'Helvetica', 'Avant Garde', sans-serif; text-anchor: middle; fill: #444444" x="405.688367" y="475.356967" transform="rotate(-0 405.688367 475.356967)">L1PA15-16</text>
   </g>
   <g id="text_42">
    <text style="font-size: 10px; font-family: 'DejaVu Sans', 'Bitstream Vera Sans', 'Computer Modern Sans Serif', 'Lucida Grande', 'Verdana', 'Geneva', 'Lucid', 'Arial', 'Helvetica', 'Avant Garde', sans-serif; text-anchor: middle; fill: #444444" x="380.954953" y="66.029054" transform="rotate(-0 380.954953 66.029054)">L1M3</text>
   </g>
   <g id="text_43">
    <text style="font-size: 10px; font-family: 'DejaVu Sans', 'Bitstream Vera Sans', 'Computer Modern Sans Serif', 'Lucida Grande', 'Verdana', 'Geneva', 'Lucid', 'Arial', 'Helvetica', 'Avant Garde', sans-serif; text-anchor: middle; fill: #444444" x="346.169914" y="411.759344" transform="rotate(-0 346.169914 411.759344)">L1MA7</text>
   </g>
   <g id="text_44">
    <text style="font-size: 10px; font-family: 'DejaVu Sans', 'Bitstream Vera Sans', 'Computer Modern Sans Serif', 'Lucida Grande', 'Verdana', 'Geneva', 'Lucid', 'Arial', 'Helvetica', 'Avant Garde', sans-serif; text-anchor: middle; fill: #444444" x="161.962441" y="356.798435" transform="rotate(-0 161.962441 356.798435)">L1PA7</text>
   </g>
   <g id="text_45">
    <text style="font-size: 10px; font-family: 'DejaVu Sans', 'Bitstream Vera Sans', 'Computer Modern Sans Serif', 'Lucida Grande', 'Verdana', 'Geneva', 'Lucid', 'Arial', 'Helvetica', 'Avant Garde', sans-serif; text-anchor: middle; fill: #444444" x="542.744663" y="466.720253" transform="rotate(-0 542.744663 466.720253)">L1M7</text>
   </g>
   <g id="text_46">
    <text style="font-size: 10px; font-family: 'DejaVu Sans', 'Bitstream Vera Sans', 'Computer Modern Sans Serif', 'Lucida Grande', 'Verdana', 'Geneva', 'Lucid', 'Arial', 'Helvetica', 'Avant Garde', sans-serif; text-anchor: middle; fill: #444444" x="438.115093" y="301.837525" transform="rotate(-0 438.115093 301.837525)">L1M2c</text>
   </g>
   <g id="text_47">
    <text style="font-size: 10px; font-family: 'DejaVu Sans', 'Bitstream Vera Sans', 'Computer Modern Sans Serif', 'Lucida Grande', 'Verdana', 'Geneva', 'Lucid', 'Arial', 'Helvetica', 'Avant Garde', sans-serif; text-anchor: middle; fill: #444444" x="375.796361" y="503.360859" transform="rotate(-0 375.796361 503.360859)">L1MB8</text>
   </g>
   <g id="text_48">
    <text style="font-size: 10px; font-family: 'DejaVu Sans', 'Bitstream Vera Sans', 'Computer Modern Sans Serif', 'Lucida Grande', 'Verdana', 'Geneva', 'Lucid', 'Arial', 'Helvetica', 'Avant Garde', sans-serif; text-anchor: middle; fill: #444444" x="541.00908" y="448.39995" transform="rotate(-0 541.00908 448.39995)">L1ME4b</text>
   </g>
   <g id="text_49">
    <text style="font-size: 10px; font-family: 'DejaVu Sans', 'Bitstream Vera Sans', 'Computer Modern Sans Serif', 'Lucida Grande', 'Verdana', 'Geneva', 'Lucid', 'Arial', 'Helvetica', 'Avant Garde', sans-serif; text-anchor: middle; fill: #444444" x="91.311447" y="402.075755" transform="rotate(-0 91.311447 402.075755)">L1PA3</text>
   </g>
   <g id="text_50">
    <text style="font-size: 10px; font-family: 'DejaVu Sans', 'Bitstream Vera Sans', 'Computer Modern Sans Serif', 'Lucida Grande', 'Verdana', 'Geneva', 'Lucid', 'Arial', 'Helvetica', 'Avant Garde', sans-serif; text-anchor: middle; fill: #444444" x="481.817056" y="516.708508" transform="rotate(-0 481.817056 516.708508)">L1MEc</text>
   </g>
   <g id="text_51">
    <text style="font-size: 10px; font-family: 'DejaVu Sans', 'Bitstream Vera Sans', 'Computer Modern Sans Serif', 'Lucida Grande', 'Verdana', 'Geneva', 'Lucid', 'Arial', 'Helvetica', 'Avant Garde', sans-serif; text-anchor: middle; fill: #444444" x="497.04309" y="497.864768" transform="rotate(-0 497.04309 497.864768)">L1MEf</text>
   </g>
   <g id="text_52">
    <text style="font-size: 10px; font-family: 'DejaVu Sans', 'Bitstream Vera Sans', 'Computer Modern Sans Serif', 'Lucida Grande', 'Verdana', 'Geneva', 'Lucid', 'Arial', 'Helvetica', 'Avant Garde', sans-serif; text-anchor: middle; fill: #444444" x="211.51332" y="448.923387" transform="rotate(-0 211.51332 448.923387)">L1PB1</text>
   </g>
   <g id="text_53">
    <text style="font-size: 10px; font-family: 'DejaVu Sans', 'Bitstream Vera Sans', 'Computer Modern Sans Serif', 'Lucida Grande', 'Verdana', 'Geneva', 'Lucid', 'Arial', 'Helvetica', 'Avant Garde', sans-serif; text-anchor: middle; fill: #444444" x="540.837304" y="485.040556" transform="rotate(-0 540.837304 485.040556)">L1ME3G</text>
   </g>
   <g id="text_54">
    <text style="font-size: 10px; font-family: 'DejaVu Sans', 'Bitstream Vera Sans', 'Computer Modern Sans Serif', 'Lucida Grande', 'Verdana', 'Geneva', 'Lucid', 'Arial', 'Helvetica', 'Avant Garde', sans-serif; text-anchor: middle; fill: #444444" x="304.63517" y="321.72814" transform="rotate(-0 304.63517 321.72814)">L1PA16</text>
   </g>
   <g id="text_55">
    <text style="font-size: 10px; font-family: 'DejaVu Sans', 'Bitstream Vera Sans', 'Computer Modern Sans Serif', 'Lucida Grande', 'Verdana', 'Geneva', 'Lucid', 'Arial', 'Helvetica', 'Avant Garde', sans-serif; text-anchor: middle; fill: #444444" x="342.049117" y="486.610867" transform="rotate(-0 342.049117 486.610867)">L1MB2</text>
   </g>
   <g id="text_56">
    <text style="font-size: 10px; font-family: 'DejaVu Sans', 'Bitstream Vera Sans', 'Computer Modern Sans Serif', 'Lucida Grande', 'Verdana', 'Geneva', 'Lucid', 'Arial', 'Helvetica', 'Avant Garde', sans-serif; text-anchor: middle; fill: #444444" x="375.306555" y="414.114811" transform="rotate(-0 375.306555 414.114811)">L1M2</text>
   </g>
   <g id="text_57">
    <text style="font-size: 10px; font-family: 'DejaVu Sans', 'Bitstream Vera Sans', 'Computer Modern Sans Serif', 'Lucida Grande', 'Verdana', 'Geneva', 'Lucid', 'Arial', 'Helvetica', 'Avant Garde', sans-serif; text-anchor: middle; fill: #444444" x="500.523627" y="468.290564" transform="rotate(-0 500.523627 468.290564)">L1ME3A</text>
   </g>
   <g id="text_58">
    <text style="font-size: 10px; font-family: 'DejaVu Sans', 'Bitstream Vera Sans', 'Computer Modern Sans Serif', 'Lucida Grande', 'Verdana', 'Geneva', 'Lucid', 'Arial', 'Helvetica', 'Avant Garde', sans-serif; text-anchor: middle; fill: #444444" x="292.499221" y="392.392166" transform="rotate(-0 292.499221 392.392166)">L1PA15</text>
   </g>
   <g id="text_59">
    <text style="font-size: 10px; font-family: 'DejaVu Sans', 'Bitstream Vera Sans', 'Computer Modern Sans Serif', 'Lucida Grande', 'Verdana', 'Geneva', 'Lucid', 'Arial', 'Helvetica', 'Avant Garde', sans-serif; text-anchor: middle; fill: #444444" x="356.443318" y="303.407837" transform="rotate(-0 356.443318 303.407837)">L1MC2</text>
   </g>
   <g id="text_60">
    <text style="font-size: 10px; font-family: 'DejaVu Sans', 'Bitstream Vera Sans', 'Computer Modern Sans Serif', 'Lucida Grande', 'Verdana', 'Geneva', 'Lucid', 'Arial', 'Helvetica', 'Avant Garde', sans-serif; text-anchor: middle; fill: #444444" x="343.672775" y="457.036664" transform="rotate(-0 343.672775 457.036664)">L1PB4</text>
   </g>
   <g id="text_61">
    <text style="font-size: 10px; font-family: 'DejaVu Sans', 'Bitstream Vera Sans', 'Computer Modern Sans Serif', 'Lucida Grande', 'Verdana', 'Geneva', 'Lucid', 'Arial', 'Helvetica', 'Avant Garde', sans-serif; text-anchor: middle; fill: #444444" x="281.487629" y="444.997608" transform="rotate(-0 281.487629 444.997608)">L1MA5A</text>
   </g>
   <g id="text_62">
    <text style="font-size: 10px; font-family: 'DejaVu Sans', 'Bitstream Vera Sans', 'Computer Modern Sans Serif', 'Lucida Grande', 'Verdana', 'Geneva', 'Lucid', 'Arial', 'Helvetica', 'Avant Garde', sans-serif; text-anchor: middle; fill: #444444" x="246.526914" y="303.407837" transform="rotate(-0 246.526914 303.407837)">L1PA13</text>
   </g>
   <g id="text_63">
    <text style="font-size: 10px; font-family: 'DejaVu Sans', 'Bitstream Vera Sans', 'Computer Modern Sans Serif', 'Lucida Grande', 'Verdana', 'Geneva', 'Lucid', 'Arial', 'Helvetica', 'Avant Garde', sans-serif; text-anchor: middle; fill: #444444" x="375.777186" y="376.689049" transform="rotate(-0 375.777186 376.689049)">L1MA9</text>
   </g>
   <g id="text_64">
    <text style="font-size: 10px; font-family: 'DejaVu Sans', 'Bitstream Vera Sans', 'Computer Modern Sans Serif', 'Lucida Grande', 'Verdana', 'Geneva', 'Lucid', 'Arial', 'Helvetica', 'Avant Garde', sans-serif; text-anchor: middle; fill: #444444" x="162.705468" y="450.755417" transform="rotate(-0 162.705468 450.755417)">L1P2</text>
   </g>
   <g id="text_65">
    <text style="font-size: 10px; font-family: 'DejaVu Sans', 'Bitstream Vera Sans', 'Computer Modern Sans Serif', 'Lucida Grande', 'Verdana', 'Geneva', 'Lucid', 'Arial', 'Helvetica', 'Avant Garde', sans-serif; text-anchor: middle; fill: #444444" x="227.646033" y="406.263253" transform="rotate(-0 227.646033 406.263253)">L1MA1</text>
   </g>
   <g id="text_66">
    <text style="font-size: 10px; font-family: 'DejaVu Sans', 'Bitstream Vera Sans', 'Computer Modern Sans Serif', 'Lucida Grande', 'Verdana', 'Geneva', 'Lucid', 'Arial', 'Helvetica', 'Avant Garde', sans-serif; text-anchor: middle; fill: #444444" x="428.646518" y="497.864768" transform="rotate(-0 428.646518 497.864768)">L1MCa</text>
   </g>
   <g id="text_67">
    <text style="font-size: 10px; font-family: 'DejaVu Sans', 'Bitstream Vera Sans', 'Computer Modern Sans Serif', 'Lucida Grande', 'Verdana', 'Geneva', 'Lucid', 'Arial', 'Helvetica', 'Avant Garde', sans-serif; text-anchor: middle; fill: #444444" x="197.38438" y="427.46246" transform="rotate(-0 197.38438 427.46246)">L1P3</text>
   </g>
   <g id="text_68">
    <text style="font-size: 10px; font-family: 'DejaVu Sans', 'Bitstream Vera Sans', 'Computer Modern Sans Serif', 'Lucida Grande', 'Verdana', 'Geneva', 'Lucid', 'Arial', 'Helvetica', 'Avant Garde', sans-serif; text-anchor: middle; fill: #444444" x="524.38409" y="511.997573" transform="rotate(-0 524.38409 511.997573)">L1ME3F</text>
   </g>
   <g id="text_69">
    <text style="font-size: 10px; font-family: 'DejaVu Sans', 'Bitstream Vera Sans', 'Computer Modern Sans Serif', 'Lucida Grande', 'Verdana', 'Geneva', 'Lucid', 'Arial', 'Helvetica', 'Avant Garde', sans-serif; text-anchor: middle; fill: #444444" x="388.5496" y="519.063976" transform="rotate(-0 388.5496 519.063976)">L1MD1</text>
   </g>
   <g id="text_70">
    <text style="font-size: 10px; font-family: 'DejaVu Sans', 'Bitstream Vera Sans', 'Computer Modern Sans Serif', 'Lucida Grande', 'Verdana', 'Geneva', 'Lucid', 'Arial', 'Helvetica', 'Avant Garde', sans-serif; text-anchor: middle; fill: #444444" x="290.286432" y="266.767231" transform="rotate(-0 290.286432 266.767231)">L1PREC2</text>
   </g>
   <g id="text_71">
    <text style="font-size: 10px; font-family: 'DejaVu Sans', 'Bitstream Vera Sans', 'Computer Modern Sans Serif', 'Lucida Grande', 'Verdana', 'Geneva', 'Lucid', 'Arial', 'Helvetica', 'Avant Garde', sans-serif; text-anchor: middle; fill: #444444" x="348.120048" y="437.931205" transform="rotate(-0 348.120048 437.931205)">L1MA6</text>
   </g>
   <g id="text_72">
    <text style="font-size: 10px; font-family: 'DejaVu Sans', 'Bitstream Vera Sans', 'Computer Modern Sans Serif', 'Lucida Grande', 'Verdana', 'Geneva', 'Lucid', 'Arial', 'Helvetica', 'Avant Garde', sans-serif; text-anchor: middle; fill: #444444" x="75.899118" y="438.716361" transform="rotate(-0 75.899118 438.716361)">L1PA2</text>
   </g>
   <g id="text_73">
    <text style="font-size: 10px; font-family: 'DejaVu Sans', 'Bitstream Vera Sans', 'Computer Modern Sans Serif', 'Lucida Grande', 'Verdana', 'Geneva', 'Lucid', 'Arial', 'Helvetica', 'Avant Garde', sans-serif; text-anchor: middle; fill: #444444" x="321.597587" y="443.427296" transform="rotate(-0 321.597587 443.427296)">L1M1</text>
   </g>
   <g id="text_74">
    <text style="font-size: 10px; font-family: 'DejaVu Sans', 'Bitstream Vera Sans', 'Computer Modern Sans Serif', 'Lucida Grande', 'Verdana', 'Geneva', 'Lucid', 'Arial', 'Helvetica', 'Avant Garde', sans-serif; text-anchor: middle; fill: #444444" x="474.761955" y="376.689049" transform="rotate(-0 474.761955 376.689049)">L1M2a</text>
   </g>
   <g id="text_75">
    <text style="font-size: 10px; font-family: 'DejaVu Sans', 'Bitstream Vera Sans', 'Computer Modern Sans Serif', 'Lucida Grande', 'Verdana', 'Geneva', 'Lucid', 'Arial', 'Helvetica', 'Avant Garde', sans-serif; text-anchor: middle; fill: #444444" x="479.384641" y="448.39995" transform="rotate(-0 479.384641 448.39995)">L1MDb</text>
   </g>
   <g id="text_76">
    <text style="font-size: 10px; font-family: 'DejaVu Sans', 'Bitstream Vera Sans', 'Computer Modern Sans Serif', 'Lucida Grande', 'Verdana', 'Geneva', 'Lucid', 'Arial', 'Helvetica', 'Avant Garde', sans-serif; text-anchor: middle; fill: #444444" x="469.128508" y="480.067902" transform="rotate(-0 469.128508 480.067902)">L1M3e</text>
   </g>
   <g id="text_77">
    <text style="font-size: 10px; font-family: 'DejaVu Sans', 'Bitstream Vera Sans', 'Computer Modern Sans Serif', 'Lucida Grande', 'Verdana', 'Geneva', 'Lucid', 'Arial', 'Helvetica', 'Avant Garde', sans-serif; text-anchor: middle; fill: #444444" x="425.219569" y="449.970261" transform="rotate(-0 425.219569 449.970261)">L1P4e</text>
   </g>
   <g id="text_78">
    <text style="font-size: 10px; font-family: 'DejaVu Sans', 'Bitstream Vera Sans', 'Computer Modern Sans Serif', 'Lucida Grande', 'Verdana', 'Geneva', 'Lucid', 'Arial', 'Helvetica', 'Avant Garde', sans-serif; text-anchor: middle; fill: #444444" x="452.319839" y="321.72814" transform="rotate(-0 452.319839 321.72814)">L1P4c</text>
   </g>
  </g>
 </g>
 <defs>
  <clipPath id="p4e7b904595">
   <rect x="40.603125" y="45.99625" width="515.5" height="483.656"/>
  </clipPath>
 </defs>
</svg>
