<?xml version="1.0" encoding="utf-8" standalone="no"?>
<!DOCTYPE svg PUBLIC "-//W3C//DTD SVG 1.1//EN"
  "http://www.w3.org/Graphics/SVG/1.1/DTD/svg11.dtd">
<svg xmlns:xlink="http://www.w3.org/1999/xlink" width="504pt" height="288pt" viewBox="0 0 504 288" xmlns="http://www.w3.org/2000/svg" version="1.1">
 <metadata>
  <rdf:RDF xmlns:dc="http://purl.org/dc/elements/1.1/" xmlns:cc="http://creativecommons.org/ns#" xmlns:rdf="http://www.w3.org/1999/02/22-rdf-syntax-ns#">
   <cc:Work>
    <dc:type rdf:resource="http://purl.org/dc/dcmitype/StillImage"/>
    <dc:date>2026-01-11T11:54:26.833761</dc:date>
    <dc:format>image/svg+xml</dc:format>
    <dc:creator>
     <cc:Agent>
      <dc:title>Matplotlib v3.10.8, https://matplotlib.org/</dc:title>
     </cc:Agent>
    </dc:creator>
   </cc:Work>
  </rdf:RDF>
 </metadata>
 <defs>
  <style type="text/css">*{stroke-linejoin: round; stroke-linecap: butt}</style>
 </defs>
 <g id="figure_1">
  <g id="patch_1">
   <path d="M 0 288 
L 504 288 
L 504 0 
L 0 0 
L 0 288 
z
" style="fill: none"/>
  </g>
  <g id="axes_1">
   <g id="patch_2">
    <path d="M 44.57 245.93875 
L 266.44 245.93875 
L 266.44 24.72 
L 44.57 24.72 
L 44.57 245.93875 
z
" style="fill: none"/>
   </g>
   <g id="PathCollection_1">
    <path d="M 57.021571 191.563834 
C 57.817181 191.563834 58.580311 191.247735 59.142892 190.685154 
C 59.705472 190.122573 60.021571 189.359443 60.021571 188.563834 
C 60.021571 187.768224 59.705472 187.005094 59.142892 186.442513 
C 58.580311 185.879932 57.817181 185.563834 57.021571 185.563834 
C 56.225962 185.563834 55.462832 185.879932 54.900251 186.442513 
C 54.33767 187.005094 54.021571 187.768224 54.021571 188.563834 
C 54.021571 189.359443 54.33767 190.122573 54.900251 190.685154 
C 55.462832 191.247735 56.225962 191.563834 57.021571 191.563834 
z
" clip-path="url(#pd60f53f73d)" style="fill: #70453c; stroke: #ffffff; stroke-width: 0.48"/>
    <path d="M 54.655 179.733954 
C 55.450609 179.733954 56.21374 179.417855 56.77632 178.855274 
C 57.338901 178.292693 57.655 177.529563 57.655 176.733954 
C 57.655 175.938345 57.338901 175.175214 56.77632 174.612634 
C 56.21374 174.050053 55.450609 173.733954 54.655 173.733954 
C 53.859391 173.733954 53.09626 174.050053 52.53368 174.612634 
C 51.971099 175.175214 51.655 175.938345 51.655 176.733954 
C 51.655 177.529563 51.971099 178.292693 52.53368 178.855274 
C 53.09626 179.417855 53.859391 179.733954 54.655 179.733954 
z
" clip-path="url(#pd60f53f73d)" style="fill: #70453c; stroke: #ffffff; stroke-width: 0.48"/>
    <path d="M 57.923165 219.166886 
C 58.718774 219.166886 59.481904 218.850787 60.044485 218.288206 
C 60.607066 217.725626 60.923165 216.962495 60.923165 216.166886 
C 60.923165 215.371277 60.607066 214.608147 60.044485 214.045566 
C 59.481904 213.482985 58.718774 213.166886 57.923165 213.166886 
C 57.127556 213.166886 56.364425 213.482985 55.801845 214.045566 
C 55.239264 214.608147 54.923165 215.371277 54.923165 216.166886 
C 54.923165 216.962495 55.239264 217.725626 55.801845 218.288206 
C 56.364425 218.850787 57.127556 219.166886 57.923165 219.166886 
z
" clip-path="url(#pd60f53f73d)" style="fill: #70453c; stroke: #ffffff; stroke-width: 0.48"/>
    <path d="M 124.645843 144.244315 
C 125.441453 144.244315 126.204583 143.928216 126.767164 143.365635 
C 127.329744 142.803054 127.645843 142.039924 127.645843 141.244315 
C 127.645843 140.448706 127.329744 139.685575 126.767164 139.122994 
C 126.204583 138.560414 125.441453 138.244315 124.645843 138.244315 
C 123.850234 138.244315 123.087104 138.560414 122.524523 139.122994 
C 121.961942 139.685575 121.645843 140.448706 121.645843 141.244315 
C 121.645843 142.039924 121.961942 142.803054 122.524523 143.365635 
C 123.087104 143.928216 123.850234 144.244315 124.645843 144.244315 
z
" clip-path="url(#pd60f53f73d)" style="fill: #70453c; stroke: #ffffff; stroke-width: 0.48"/>
    <path d="M 141.940714 238.883352 
L 143.440714 237.383352 
L 144.940714 238.883352 
L 146.440714 237.383352 
L 144.940714 235.883352 
L 146.440714 234.383352 
L 144.940714 232.883352 
L 143.440714 234.383352 
L 141.940714 232.883352 
L 140.440714 234.383352 
L 141.940714 235.883352 
L 140.440714 237.383352 
z
" clip-path="url(#pd60f53f73d)" style="fill: #195f90; stroke: #ffffff; stroke-width: 0.48"/>
    <path d="M 154.678686 215.223593 
C 155.474295 215.223593 156.237426 214.907494 156.800006 214.344913 
C 157.362587 213.782333 157.678686 213.019202 157.678686 212.223593 
C 157.678686 211.427984 157.362587 210.664853 156.800006 210.102273 
C 156.237426 209.539692 155.474295 209.223593 154.678686 209.223593 
C 153.883077 209.223593 153.119946 209.539692 152.557366 210.102273 
C 151.994785 210.664853 151.678686 211.427984 151.678686 212.223593 
C 151.678686 213.019202 151.994785 213.782333 152.557366 214.344913 
C 153.119946 214.907494 153.883077 215.223593 154.678686 215.223593 
z
" clip-path="url(#pd60f53f73d)" style="fill: #195f90; stroke: #ffffff; stroke-width: 0.48"/>
    <path d="M 92.563512 238.883352 
L 94.063512 237.383352 
L 95.563512 238.883352 
L 97.063512 237.383352 
L 95.563512 235.883352 
L 97.063512 234.383352 
L 95.563512 232.883352 
L 94.063512 234.383352 
L 92.563512 232.883352 
L 91.063512 234.383352 
L 92.563512 235.883352 
L 91.063512 237.383352 
z
" clip-path="url(#pd60f53f73d)" style="fill: #cc660b; stroke: #ffffff; stroke-width: 0.48"/>
    <path d="M 77.909507 156.074195 
C 78.705116 156.074195 79.468247 155.758096 80.030827 155.195515 
C 80.593408 154.632934 80.909507 153.869804 80.909507 153.074195 
C 80.909507 152.278585 80.593408 151.515455 80.030827 150.952874 
C 79.468247 150.390293 78.705116 150.074195 77.909507 150.074195 
C 77.113898 150.074195 76.350767 150.390293 75.788187 150.952874 
C 75.225606 151.515455 74.909507 152.278585 74.909507 153.074195 
C 74.909507 153.869804 75.225606 154.632934 75.788187 155.195515 
C 76.350767 155.758096 77.113898 156.074195 77.909507 156.074195 
z
" clip-path="url(#pd60f53f73d)" style="fill: #cc660b; stroke: #ffffff; stroke-width: 0.48"/>
    <path d="M 165.238437 230.996766 
L 166.738437 229.496766 
L 168.238437 230.996766 
L 169.738437 229.496766 
L 168.238437 227.996766 
L 169.738437 226.496766 
L 168.238437 224.996766 
L 166.738437 226.496766 
L 165.238437 224.996766 
L 163.738437 226.496766 
L 165.238437 227.996766 
L 163.738437 229.496766 
z
" clip-path="url(#pd60f53f73d)" style="fill: #70453c; stroke: #ffffff; stroke-width: 0.48"/>
    <path d="M 226.912774 112.697969 
C 227.708383 112.697969 228.471514 112.38187 229.034094 111.819289 
C 229.596675 111.256709 229.912774 110.493578 229.912774 109.697969 
C 229.912774 108.90236 229.596675 108.139229 229.034094 107.576649 
C 228.471514 107.014068 227.708383 106.697969 226.912774 106.697969 
C 226.117165 106.697969 225.354034 107.014068 224.791454 107.576649 
C 224.228873 108.139229 223.912774 108.90236 223.912774 109.697969 
C 223.912774 110.493578 224.228873 111.256709 224.791454 111.819289 
C 225.354034 112.38187 226.117165 112.697969 226.912774 112.697969 
z
" clip-path="url(#pd60f53f73d)" style="fill: #ab1f20; stroke: #ffffff; stroke-width: 0.48"/>
    <path d="M 156.886307 207.337006 
C 157.681916 207.337006 158.445046 207.020908 159.007627 206.458327 
C 159.570208 205.895746 159.886307 205.132616 159.886307 204.337006 
C 159.886307 203.541397 159.570208 202.778267 159.007627 202.215686 
C 158.445046 201.653105 157.681916 201.337006 156.886307 201.337006 
C 156.090697 201.337006 155.327567 201.653105 154.764986 202.215686 
C 154.202406 202.778267 153.886307 203.541397 153.886307 204.337006 
C 153.886307 205.132616 154.202406 205.895746 154.764986 206.458327 
C 155.327567 207.020908 156.090697 207.337006 156.886307 207.337006 
z
" clip-path="url(#pd60f53f73d)" style="fill: #cc660b; stroke: #ffffff; stroke-width: 0.48"/>
    <path d="M 256.355 37.775398 
C 257.150609 37.775398 257.91374 37.459299 258.47632 36.896718 
C 259.038901 36.334137 259.355 35.571007 259.355 34.775398 
C 259.355 33.979788 259.038901 33.216658 258.47632 32.654077 
C 257.91374 32.091497 257.150609 31.775398 256.355 31.775398 
C 255.559391 31.775398 254.79626 32.091497 254.23368 32.654077 
C 253.671099 33.216658 253.355 33.979788 253.355 34.775398 
C 253.355 35.571007 253.671099 36.334137 254.23368 36.896718 
C 254.79626 37.459299 255.559391 37.775398 256.355 37.775398 
z
" clip-path="url(#pd60f53f73d)" style="fill: #ab1f20; stroke: #ffffff; stroke-width: 0.48"/>
    <path d="M 225.143963 219.166886 
C 225.939573 219.166886 226.702703 218.850787 227.265284 218.288206 
C 227.827864 217.725626 228.143963 216.962495 228.143963 216.166886 
C 228.143963 215.371277 227.827864 214.608147 227.265284 214.045566 
C 226.702703 213.482985 225.939573 213.166886 225.143963 213.166886 
C 224.348354 213.166886 223.585224 213.482985 223.022643 214.045566 
C 222.460062 214.608147 222.143963 215.371277 222.143963 216.166886 
C 222.143963 216.962495 222.460062 217.725626 223.022643 218.288206 
C 223.585224 218.850787 224.348354 219.166886 225.143963 219.166886 
z
" clip-path="url(#pd60f53f73d)" style="fill: #765297; stroke: #ffffff; stroke-width: 0.48"/>
    <path d="M 195.430686 238.883352 
C 196.226295 238.883352 196.989426 238.567253 197.552006 238.004673 
C 198.114587 237.442092 198.430686 236.678962 198.430686 235.883352 
C 198.430686 235.087743 198.114587 234.324613 197.552006 233.762032 
C 196.989426 233.199451 196.226295 232.883352 195.430686 232.883352 
C 194.635077 232.883352 193.871946 233.199451 193.309366 233.762032 
C 192.746785 234.324613 192.430686 235.087743 192.430686 235.883352 
C 192.430686 236.678962 192.746785 237.442092 193.309366 238.004673 
C 193.871946 238.567253 194.635077 238.883352 195.430686 238.883352 
z
" clip-path="url(#pd60f53f73d)" style="fill: #cc660b; stroke: #ffffff; stroke-width: 0.48"/>
   </g>
   <g id="matplotlib.axis_1">
    <g id="xtick_1">
     <g id="line2d_1">
      <defs>
       <path id="mb4cf40a48c" d="M 0 0 
L 0 3.5 
" style="stroke: #000000; stroke-width: 0.8"/>
      </defs>
      <g>
       <use xlink:href="#mb4cf40a48c" x="59.737337" y="245.93875" style="stroke: #000000; stroke-width: 0.8"/>
      </g>
     </g>
     <g id="text_1">
      <text style="font-size: 10px; font-family: 'DejaVu Sans', 'Bitstream Vera Sans', 'Computer Modern Sans Serif', 'Lucida Grande', 'Verdana', 'Geneva', 'Lucid', 'Arial', 'Helvetica', 'Avant Garde', sans-serif; text-anchor: middle" x="59.737337" y="260.537188" transform="rotate(-0 59.737337 260.537188)">0.6</text>
     </g>
    </g>
    <g id="xtick_2">
     <g id="line2d_2">
      <g>
       <use xlink:href="#mb4cf40a48c" x="102.789552" y="245.93875" style="stroke: #000000; stroke-width: 0.8"/>
      </g>
     </g>
     <g id="text_2">
      <text style="font-size: 10px; font-family: 'DejaVu Sans', 'Bitstream Vera Sans', 'Computer Modern Sans Serif', 'Lucida Grande', 'Verdana', 'Geneva', 'Lucid', 'Arial', 'Helvetica', 'Avant Garde', sans-serif; text-anchor: middle" x="102.789552" y="260.537188" transform="rotate(-0 102.789552 260.537188)">0.8</text>
     </g>
    </g>
    <g id="xtick_3">
     <g id="line2d_3">
      <g>
       <use xlink:href="#mb4cf40a48c" x="145.841767" y="245.93875" style="stroke: #000000; stroke-width: 0.8"/>
      </g>
     </g>
     <g id="text_3">
      <text style="font-size: 10px; font-family: 'DejaVu Sans', 'Bitstream Vera Sans', 'Computer Modern Sans Serif', 'Lucida Grande', 'Verdana', 'Geneva', 'Lucid', 'Arial', 'Helvetica', 'Avant Garde', sans-serif; text-anchor: middle" x="145.841767" y="260.537188" transform="rotate(-0 145.841767 260.537188)">1.0</text>
     </g>
    </g>
    <g id="xtick_4">
     <g id="line2d_4">
      <g>
       <use xlink:href="#mb4cf40a48c" x="188.893982" y="245.93875" style="stroke: #000000; stroke-width: 0.8"/>
      </g>
     </g>
     <g id="text_4">
      <text style="font-size: 10px; font-family: 'DejaVu Sans', 'Bitstream Vera Sans', 'Computer Modern Sans Serif', 'Lucida Grande', 'Verdana', 'Geneva', 'Lucid', 'Arial', 'Helvetica', 'Avant Garde', sans-serif; text-anchor: middle" x="188.893982" y="260.537188" transform="rotate(-0 188.893982 260.537188)">1.2</text>
     </g>
    </g>
    <g id="xtick_5">
     <g id="line2d_5">
      <g>
       <use xlink:href="#mb4cf40a48c" x="231.946197" y="245.93875" style="stroke: #000000; stroke-width: 0.8"/>
      </g>
     </g>
     <g id="text_5">
      <text style="font-size: 10px; font-family: 'DejaVu Sans', 'Bitstream Vera Sans', 'Computer Modern Sans Serif', 'Lucida Grande', 'Verdana', 'Geneva', 'Lucid', 'Arial', 'Helvetica', 'Avant Garde', sans-serif; text-anchor: middle" x="231.946197" y="260.537188" transform="rotate(-0 231.946197 260.537188)">1.4</text>
     </g>
    </g>
    <g id="text_6">
     <text style="font-size: 10px; font-family: 'DejaVu Sans', 'Bitstream Vera Sans', 'Computer Modern Sans Serif', 'Lucida Grande', 'Verdana', 'Geneva', 'Lucid', 'Arial', 'Helvetica', 'Avant Garde', sans-serif; text-anchor: middle" x="155.505" y="274.215312" transform="rotate(-0 155.505 274.215312)">OR_Observed_to_Random</text>
    </g>
   </g>
   <g id="matplotlib.axis_2">
    <g id="ytick_1">
     <g id="line2d_6">
      <defs>
       <path id="m58e26c0f8e" d="M 0 0 
L -3.5 0 
" style="stroke: #000000; stroke-width: 0.8"/>
      </defs>
      <g>
       <use xlink:href="#m58e26c0f8e" x="44.57" y="239.826645" style="stroke: #000000; stroke-width: 0.8"/>
      </g>
     </g>
     <g id="text_7">
      <text style="font-size: 10px; font-family: 'DejaVu Sans', 'Bitstream Vera Sans', 'Computer Modern Sans Serif', 'Lucida Grande', 'Verdana', 'Geneva', 'Lucid', 'Arial', 'Helvetica', 'Avant Garde', sans-serif; text-anchor: end" x="37.57" y="243.625864" transform="rotate(-0 37.57 243.625864)">0</text>
     </g>
    </g>
    <g id="ytick_2">
     <g id="line2d_7">
      <g>
       <use xlink:href="#m58e26c0f8e" x="44.57" y="200.393713" style="stroke: #000000; stroke-width: 0.8"/>
      </g>
     </g>
     <g id="text_8">
      <text style="font-size: 10px; font-family: 'DejaVu Sans', 'Bitstream Vera Sans', 'Computer Modern Sans Serif', 'Lucida Grande', 'Verdana', 'Geneva', 'Lucid', 'Arial', 'Helvetica', 'Avant Garde', sans-serif; text-anchor: end" x="37.57" y="204.192932" transform="rotate(-0 37.57 204.192932)">10</text>
     </g>
    </g>
    <g id="ytick_3">
     <g id="line2d_8">
      <g>
       <use xlink:href="#m58e26c0f8e" x="44.57" y="160.960781" style="stroke: #000000; stroke-width: 0.8"/>
      </g>
     </g>
     <g id="text_9">
      <text style="font-size: 10px; font-family: 'DejaVu Sans', 'Bitstream Vera Sans', 'Computer Modern Sans Serif', 'Lucida Grande', 'Verdana', 'Geneva', 'Lucid', 'Arial', 'Helvetica', 'Avant Garde', sans-serif; text-anchor: end" x="37.57" y="164.76" transform="rotate(-0 37.57 164.76)">20</text>
     </g>
    </g>
    <g id="ytick_4">
     <g id="line2d_9">
      <g>
       <use xlink:href="#m58e26c0f8e" x="44.57" y="121.527849" style="stroke: #000000; stroke-width: 0.8"/>
      </g>
     </g>
     <g id="text_10">
      <text style="font-size: 10px; font-family: 'DejaVu Sans', 'Bitstream Vera Sans', 'Computer Modern Sans Serif', 'Lucida Grande', 'Verdana', 'Geneva', 'Lucid', 'Arial', 'Helvetica', 'Avant Garde', sans-serif; text-anchor: end" x="37.57" y="125.327067" transform="rotate(-0 37.57 125.327067)">30</text>
     </g>
    </g>
    <g id="ytick_5">
     <g id="line2d_10">
      <g>
       <use xlink:href="#m58e26c0f8e" x="44.57" y="82.094916" style="stroke: #000000; stroke-width: 0.8"/>
      </g>
     </g>
     <g id="text_11">
      <text style="font-size: 10px; font-family: 'DejaVu Sans', 'Bitstream Vera Sans', 'Computer Modern Sans Serif', 'Lucida Grande', 'Verdana', 'Geneva', 'Lucid', 'Arial', 'Helvetica', 'Avant Garde', sans-serif; text-anchor: end" x="37.57" y="85.894135" transform="rotate(-0 37.57 85.894135)">40</text>
     </g>
    </g>
    <g id="ytick_6">
     <g id="line2d_11">
      <g>
       <use xlink:href="#m58e26c0f8e" x="44.57" y="42.661984" style="stroke: #000000; stroke-width: 0.8"/>
      </g>
     </g>
     <g id="text_12">
      <text style="font-size: 10px; font-family: 'DejaVu Sans', 'Bitstream Vera Sans', 'Computer Modern Sans Serif', 'Lucida Grande', 'Verdana', 'Geneva', 'Lucid', 'Arial', 'Helvetica', 'Avant Garde', sans-serif; text-anchor: end" x="37.57" y="46.461203" transform="rotate(-0 37.57 46.461203)">50</text>
     </g>
    </g>
    <g id="text_13">
     <text style="font-size: 10px; font-family: 'DejaVu Sans', 'Bitstream Vera Sans', 'Computer Modern Sans Serif', 'Lucida Grande', 'Verdana', 'Geneva', 'Lucid', 'Arial', 'Helvetica', 'Avant Garde', sans-serif; text-anchor: middle" x="18.487188" y="135.329375" transform="rotate(-90 18.487188 135.329375)">GO_terms_count</text>
    </g>
   </g>
   <g id="line2d_12"/>
   <g id="line2d_13"/>
   <g id="line2d_14"/>
   <g id="line2d_15"/>
   <g id="line2d_16"/>
   <g id="line2d_17"/>
   <g id="line2d_18"/>
   <g id="line2d_19"/>
   <g id="line2d_20"/>
   <g id="line2d_21"/>
   <g id="line2d_22">
    <path d="M 54.655 211.810661 
L 56.692374 211.184953 
L 58.729747 210.559244 
L 60.767121 209.933536 
L 62.804495 209.307827 
L 64.841869 208.682118 
L 66.879242 208.05641 
L 68.916616 207.430701 
L 70.95399 206.804993 
L 72.991364 206.179284 
L 75.028737 205.553575 
L 77.066111 204.927867 
L 79.103485 204.302158 
L 81.140859 203.676449 
L 83.178232 203.050741 
L 85.215606 202.425032 
L 87.25298 201.799324 
L 89.290354 201.173615 
L 91.327727 200.547906 
L 93.365101 199.922198 
L 95.402475 199.296489 
L 97.439848 198.670781 
L 99.477222 198.045072 
L 101.514596 197.419363 
L 103.55197 196.793655 
L 105.589343 196.167946 
L 107.626717 195.542238 
L 109.664091 194.916529 
L 111.701465 194.29082 
L 113.738838 193.665112 
L 115.776212 193.039403 
L 117.813586 192.413695 
L 119.85096 191.787986 
L 121.888333 191.162277 
L 123.925707 190.536569 
L 125.963081 189.91086 
L 128.000455 189.285152 
L 130.037828 188.659443 
L 132.075202 188.033734 
L 134.112576 187.408026 
L 136.149949 186.782317 
L 138.187323 186.156609 
L 140.224697 185.5309 
L 142.262071 184.905191 
L 144.299444 184.279483 
L 146.336818 183.653774 
L 148.374192 183.028066 
L 150.411566 182.402357 
L 152.448939 181.776648 
L 154.486313 181.15094 
L 156.523687 180.525231 
L 158.561061 179.899523 
L 160.598434 179.273814 
L 162.635808 178.648105 
L 164.673182 178.022397 
L 166.710556 177.396688 
L 168.747929 176.77098 
L 170.785303 176.145271 
L 172.822677 175.519562 
L 174.860051 174.893854 
L 176.897424 174.268145 
L 178.934798 173.642437 
L 180.972172 173.016728 
L 183.009545 172.391019 
L 185.046919 171.765311 
L 187.084293 171.139602 
L 189.121667 170.513894 
L 191.15904 169.888185 
L 193.196414 169.262476 
L 195.233788 168.636768 
L 197.271162 168.011059 
L 199.308535 167.38535 
L 201.345909 166.759642 
L 203.383283 166.133933 
L 205.420657 165.508225 
L 207.45803 164.882516 
L 209.495404 164.256807 
L 211.532778 163.631099 
L 213.570152 163.00539 
L 215.607525 162.379682 
L 217.644899 161.753973 
L 219.682273 161.128264 
L 221.719646 160.502556 
L 223.75702 159.876847 
L 225.794394 159.251139 
L 227.831768 158.62543 
L 229.869141 157.999721 
L 231.906515 157.374013 
L 233.943889 156.748304 
L 235.981263 156.122596 
L 238.018636 155.496887 
L 240.05601 154.871178 
L 242.093384 154.24547 
L 244.130758 153.619761 
L 246.168131 152.994053 
L 248.205505 152.368344 
L 250.242879 151.742635 
L 252.280253 151.116927 
L 254.317626 150.491218 
L 256.355 149.86551 
" clip-path="url(#pd60f53f73d)" style="fill: none; stroke: #000000; stroke-width: 1.5; stroke-linecap: square"/>
   </g>
   <g id="patch_3">
    <path d="M 44.57 245.93875 
L 44.57 24.72 
" style="fill: none; stroke: #000000; stroke-width: 0.8; stroke-linejoin: miter; stroke-linecap: square"/>
   </g>
   <g id="patch_4">
    <path d="M 266.44 245.93875 
L 266.44 24.72 
" style="fill: none; stroke: #000000; stroke-width: 0.8; stroke-linejoin: miter; stroke-linecap: square"/>
   </g>
   <g id="patch_5">
    <path d="M 44.57 245.93875 
L 266.44 245.93875 
" style="fill: none; stroke: #000000; stroke-width: 0.8; stroke-linejoin: miter; stroke-linecap: square"/>
   </g>
   <g id="patch_6">
    <path d="M 44.57 24.72 
L 266.44 24.72 
" style="fill: none; stroke: #000000; stroke-width: 0.8; stroke-linejoin: miter; stroke-linecap: square"/>
   </g>
   <g id="text_14">
    <g id="patch_7">
     <path d="M 55.6635 59.069281 
L 131.906156 59.069281 
Q 136.406156 59.069281 136.406156 54.569281 
L 136.406156 35.780937 
Q 136.406156 31.280937 131.906156 31.280937 
L 55.6635 31.280937 
Q 51.1635 31.280937 51.1635 35.780937 
L 51.1635 54.569281 
Q 51.1635 59.069281 55.6635 59.069281 
z
" style="fill: #ffffff; opacity: 0.8; stroke: #000000; stroke-linejoin: miter"/>
    </g>
    <text style="font-size: 9px; font-family: 'DejaVu Sans', 'Bitstream Vera Sans', 'Computer Modern Sans Serif', 'Lucida Grande', 'Verdana', 'Geneva', 'Lucid', 'Arial', 'Helvetica', 'Avant Garde', sans-serif" transform="translate(55.6635 42.619531)">Pearson R: 0.358</text>
    <text style="font-size: 9px; font-family: 'DejaVu Sans', 'Bitstream Vera Sans', 'Computer Modern Sans Serif', 'Lucida Grande', 'Verdana', 'Geneva', 'Lucid', 'Arial', 'Helvetica', 'Avant Garde', sans-serif" transform="translate(55.6635 52.697563)">p = 0.209</text>
   </g>
   <g id="text_15">
    <text style="font-size: 10px; font-family: 'DejaVu Sans', 'Bitstream Vera Sans', 'Computer Modern Sans Serif', 'Lucida Grande', 'Verdana', 'Geneva', 'Lucid', 'Arial', 'Helvetica', 'Avant Garde', sans-serif; text-anchor: middle" x="155.505" y="18.72" transform="rotate(-0 155.505 18.72)">GO_terms_count vs OR_Observed_to_Random</text>
   </g>
   <g id="legend_1">
    <g id="patch_8">
     <path d="M 273.44 217.698125 
L 415.630625 217.698125 
Q 417.630625 217.698125 417.630625 215.698125 
L 417.630625 54.960625 
Q 417.630625 52.960625 415.630625 52.960625 
L 273.44 52.960625 
Q 271.44 52.960625 271.44 54.960625 
L 271.44 215.698125 
Q 271.44 217.698125 273.44 217.698125 
z
" style="fill: #ffffff; opacity: 0.8; stroke: #cccccc; stroke-linejoin: miter"/>
    </g>
    <g id="line2d_23"/>
    <g id="text_16">
     <text style="font-size: 10px; font-family: 'DejaVu Sans', 'Bitstream Vera Sans', 'Computer Modern Sans Serif', 'Lucida Grande', 'Verdana', 'Geneva', 'Lucid', 'Arial', 'Helvetica', 'Avant Garde', sans-serif; text-anchor: start" x="303.44" y="64.559062" transform="rotate(-0 303.44 64.559062)">class_name</text>
    </g>
    <g id="line2d_24">
     <defs>
      <path id="m03187cc082" d="M 0 3 
C 0.795609 3 1.55874 2.683901 2.12132 2.12132 
C 2.683901 1.55874 3 0.795609 3 0 
C 3 -0.795609 2.683901 -1.55874 2.12132 -2.12132 
C 1.55874 -2.683901 0.795609 -3 0 -3 
C -0.795609 -3 -1.55874 -2.683901 -2.12132 -2.12132 
C -2.683901 -1.55874 -3 -0.795609 -3 0 
C -3 0.795609 -2.683901 1.55874 -2.12132 2.12132 
C -1.55874 2.683901 -0.795609 3 0 3 
z
" style="stroke: #ffffff; stroke-width: 0.48"/>
     </defs>
     <g>
      <use xlink:href="#m03187cc082" x="285.44" y="76.015312" style="fill: #195f90; stroke: #ffffff; stroke-width: 0.48"/>
     </g>
    </g>
    <g id="text_17">
     <text style="font-size: 10px; font-family: 'DejaVu Sans', 'Bitstream Vera Sans', 'Computer Modern Sans Serif', 'Lucida Grande', 'Verdana', 'Geneva', 'Lucid', 'Arial', 'Helvetica', 'Avant Garde', sans-serif; text-anchor: start" x="303.44" y="79.515312" transform="rotate(-0 303.44 79.515312)">DNA</text>
    </g>
    <g id="line2d_25">
     <defs>
      <path id="m7d88b19ca7" d="M 0 3 
C 0.795609 3 1.55874 2.683901 2.12132 2.12132 
C 2.683901 1.55874 3 0.795609 3 0 
C 3 -0.795609 2.683901 -1.55874 2.12132 -2.12132 
C 1.55874 -2.683901 0.795609 -3 0 -3 
C -0.795609 -3 -1.55874 -2.683901 -2.12132 -2.12132 
C -2.683901 -1.55874 -3 -0.795609 -3 0 
C -3 0.795609 -2.683901 1.55874 -2.12132 2.12132 
C -1.55874 2.683901 -0.795609 3 0 3 
z
" style="stroke: #ffffff; stroke-width: 0.48"/>
     </defs>
     <g>
      <use xlink:href="#m7d88b19ca7" x="285.44" y="90.693437" style="fill: #70453c; stroke: #ffffff; stroke-width: 0.48"/>
     </g>
    </g>
    <g id="text_18">
     <text style="font-size: 10px; font-family: 'DejaVu Sans', 'Bitstream Vera Sans', 'Computer Modern Sans Serif', 'Lucida Grande', 'Verdana', 'Geneva', 'Lucid', 'Arial', 'Helvetica', 'Avant Garde', sans-serif; text-anchor: start" x="303.44" y="94.193437" transform="rotate(-0 303.44 94.193437)">LTR</text>
    </g>
    <g id="line2d_26">
     <defs>
      <path id="m28c19af952" d="M 0 3 
C 0.795609 3 1.55874 2.683901 2.12132 2.12132 
C 2.683901 1.55874 3 0.795609 3 0 
C 3 -0.795609 2.683901 -1.55874 2.12132 -2.12132 
C 1.55874 -2.683901 0.795609 -3 0 -3 
C -0.795609 -3 -1.55874 -2.683901 -2.12132 -2.12132 
C -2.683901 -1.55874 -3 -0.795609 -3 0 
C -3 0.795609 -2.683901 1.55874 -2.12132 2.12132 
C -1.55874 2.683901 -0.795609 3 0 3 
z
" style="stroke: #ffffff; stroke-width: 0.48"/>
     </defs>
     <g>
      <use xlink:href="#m28c19af952" x="285.44" y="105.371562" style="fill: #cc660b; stroke: #ffffff; stroke-width: 0.48"/>
     </g>
    </g>
    <g id="text_19">
     <text style="font-size: 10px; font-family: 'DejaVu Sans', 'Bitstream Vera Sans', 'Computer Modern Sans Serif', 'Lucida Grande', 'Verdana', 'Geneva', 'Lucid', 'Arial', 'Helvetica', 'Avant Garde', sans-serif; text-anchor: start" x="303.44" y="108.871562" transform="rotate(-0 303.44 108.871562)">LINE</text>
    </g>
    <g id="line2d_27">
     <defs>
      <path id="m7cd0f7b4e5" d="M 0 3 
C 0.795609 3 1.55874 2.683901 2.12132 2.12132 
C 2.683901 1.55874 3 0.795609 3 0 
C 3 -0.795609 2.683901 -1.55874 2.12132 -2.12132 
C 1.55874 -2.683901 0.795609 -3 0 -3 
C -0.795609 -3 -1.55874 -2.683901 -2.12132 -2.12132 
C -2.683901 -1.55874 -3 -0.795609 -3 0 
C -3 0.795609 -2.683901 1.55874 -2.12132 2.12132 
C -1.55874 2.683901 -0.795609 3 0 3 
z
" style="stroke: #ffffff; stroke-width: 0.48"/>
     </defs>
     <g>
      <use xlink:href="#m7cd0f7b4e5" x="285.44" y="120.049688" style="fill: #238023; stroke: #ffffff; stroke-width: 0.48"/>
     </g>
    </g>
    <g id="text_20">
     <text style="font-size: 10px; font-family: 'DejaVu Sans', 'Bitstream Vera Sans', 'Computer Modern Sans Serif', 'Lucida Grande', 'Verdana', 'Geneva', 'Lucid', 'Arial', 'Helvetica', 'Avant Garde', sans-serif; text-anchor: start" x="303.44" y="123.549688" transform="rotate(-0 303.44 123.549688)">RC</text>
    </g>
    <g id="line2d_28">
     <defs>
      <path id="m6b31e25866" d="M 0 3 
C 0.795609 3 1.55874 2.683901 2.12132 2.12132 
C 2.683901 1.55874 3 0.795609 3 0 
C 3 -0.795609 2.683901 -1.55874 2.12132 -2.12132 
C 1.55874 -2.683901 0.795609 -3 0 -3 
C -0.795609 -3 -1.55874 -2.683901 -2.12132 -2.12132 
C -2.683901 -1.55874 -3 -0.795609 -3 0 
C -3 0.795609 -2.683901 1.55874 -2.12132 2.12132 
C -1.55874 2.683901 -0.795609 3 0 3 
z
" style="stroke: #ffffff; stroke-width: 0.48"/>
     </defs>
     <g>
      <use xlink:href="#m6b31e25866" x="285.44" y="134.727812" style="fill: #ab1f20; stroke: #ffffff; stroke-width: 0.48"/>
     </g>
    </g>
    <g id="text_21">
     <text style="font-size: 10px; font-family: 'DejaVu Sans', 'Bitstream Vera Sans', 'Computer Modern Sans Serif', 'Lucida Grande', 'Verdana', 'Geneva', 'Lucid', 'Arial', 'Helvetica', 'Avant Garde', sans-serif; text-anchor: start" x="303.44" y="138.227812" transform="rotate(-0 303.44 138.227812)">SINE</text>
    </g>
    <g id="line2d_29">
     <defs>
      <path id="m1057a87264" d="M 0 3 
C 0.795609 3 1.55874 2.683901 2.12132 2.12132 
C 2.683901 1.55874 3 0.795609 3 0 
C 3 -0.795609 2.683901 -1.55874 2.12132 -2.12132 
C 1.55874 -2.683901 0.795609 -3 0 -3 
C -0.795609 -3 -1.55874 -2.683901 -2.12132 -2.12132 
C -2.683901 -1.55874 -3 -0.795609 -3 0 
C -3 0.795609 -2.683901 1.55874 -2.12132 2.12132 
C -1.55874 2.683901 -0.795609 3 0 3 
z
" style="stroke: #ffffff; stroke-width: 0.48"/>
     </defs>
     <g>
      <use xlink:href="#m1057a87264" x="285.44" y="149.405937" style="fill: #765297; stroke: #ffffff; stroke-width: 0.48"/>
     </g>
    </g>
    <g id="text_22">
     <text style="font-size: 10px; font-family: 'DejaVu Sans', 'Bitstream Vera Sans', 'Computer Modern Sans Serif', 'Lucida Grande', 'Verdana', 'Geneva', 'Lucid', 'Arial', 'Helvetica', 'Avant Garde', sans-serif; text-anchor: start" x="303.44" y="152.905937" transform="rotate(-0 303.44 152.905937)">Retroposon</text>
    </g>
    <g id="line2d_30"/>
    <g id="text_23">
     <text style="font-size: 10px; font-family: 'DejaVu Sans', 'Bitstream Vera Sans', 'Computer Modern Sans Serif', 'Lucida Grande', 'Verdana', 'Geneva', 'Lucid', 'Arial', 'Helvetica', 'Avant Garde', sans-serif; text-anchor: start" x="303.44" y="167.584063" transform="rotate(-0 303.44 167.584063)">Status</text>
    </g>
    <g id="line2d_31">
     <defs>
      <path id="ma59a4eae03" d="M 0 3 
C 0.795609 3 1.55874 2.683901 2.12132 2.12132 
C 2.683901 1.55874 3 0.795609 3 0 
C 3 -0.795609 2.683901 -1.55874 2.12132 -2.12132 
C 1.55874 -2.683901 0.795609 -3 0 -3 
C -0.795609 -3 -1.55874 -2.683901 -2.12132 -2.12132 
C -2.683901 -1.55874 -3 -0.795609 -3 0 
C -3 0.795609 -2.683901 1.55874 -2.12132 2.12132 
C -1.55874 2.683901 -0.795609 3 0 3 
z
" style="stroke: #ffffff; stroke-width: 0.48"/>
     </defs>
     <g>
      <use xlink:href="#ma59a4eae03" x="285.44" y="178.762187" style="fill: #333333; stroke: #ffffff; stroke-width: 0.48"/>
     </g>
    </g>
    <g id="text_24">
     <text style="font-size: 10px; font-family: 'DejaVu Sans', 'Bitstream Vera Sans', 'Computer Modern Sans Serif', 'Lucida Grande', 'Verdana', 'Geneva', 'Lucid', 'Arial', 'Helvetica', 'Avant Garde', sans-serif; text-anchor: start" x="303.44" y="182.262187" transform="rotate(-0 303.44 182.262187)">Significant</text>
    </g>
    <g id="line2d_32">
     <defs>
      <path id="m16aff2112d" d="M -1.5 3 
L 0 1.5 
L 1.5 3 
L 3 1.5 
L 1.5 0 
L 3 -1.5 
L 1.5 -3 
L 0 -1.5 
L -1.5 -3 
L -3 -1.5 
L -1.5 0 
L -3 1.5 
z
" style="stroke: #ffffff; stroke-width: 0.48; stroke-linejoin: miter"/>
     </defs>
     <g>
      <use xlink:href="#m16aff2112d" x="285.44" y="193.440312" style="fill: #333333; stroke: #ffffff; stroke-width: 0.48; stroke-linejoin: miter"/>
     </g>
    </g>
    <g id="text_25">
     <text style="font-size: 10px; font-family: 'DejaVu Sans', 'Bitstream Vera Sans', 'Computer Modern Sans Serif', 'Lucida Grande', 'Verdana', 'Geneva', 'Lucid', 'Arial', 'Helvetica', 'Avant Garde', sans-serif; text-anchor: start" x="303.44" y="196.940312" transform="rotate(-0 303.44 196.940312)">Non-Significant</text>
    </g>
    <g id="line2d_33">
     <path d="M 275.44 208.118437 
L 285.44 208.118437 
L 295.44 208.118437 
" style="fill: none; stroke: #000000; stroke-width: 1.5; stroke-linecap: square"/>
    </g>
    <g id="text_26">
     <text style="font-size: 10px; font-family: 'DejaVu Sans', 'Bitstream Vera Sans', 'Computer Modern Sans Serif', 'Lucida Grande', 'Verdana', 'Geneva', 'Lucid', 'Arial', 'Helvetica', 'Avant Garde', sans-serif; text-anchor: start" x="303.44" y="211.618437" transform="rotate(-0 303.44 211.618437)">Linear Trend (R=0.36)</text>
    </g>
   </g>
  </g>
 </g>
 <defs>
  <clipPath id="pd60f53f73d">
   <rect x="44.57" y="24.72" width="221.87" height="221.21875"/>
  </clipPath>
 </defs>
</svg>
