<?xml version="1.0" encoding="utf-8" standalone="no"?>
<!DOCTYPE svg PUBLIC "-//W3C//DTD SVG 1.1//EN"
  "http://www.w3.org/Graphics/SVG/1.1/DTD/svg11.dtd">
<svg xmlns:xlink="http://www.w3.org/1999/xlink" width="360pt" height="288pt" viewBox="0 0 360 288" xmlns="http://www.w3.org/2000/svg" version="1.1">
 <metadata>
  <rdf:RDF xmlns:dc="http://purl.org/dc/elements/1.1/" xmlns:cc="http://creativecommons.org/ns#" xmlns:rdf="http://www.w3.org/1999/02/22-rdf-syntax-ns#">
   <cc:Work>
    <dc:type rdf:resource="http://purl.org/dc/dcmitype/StillImage"/>
    <dc:date>2025-12-28T15:08:58.112757</dc:date>
    <dc:format>image/svg+xml</dc:format>
    <dc:creator>
     <cc:Agent>
      <dc:title>Matplotlib v3.8.4, https://matplotlib.org/</dc:title>
     </cc:Agent>
    </dc:creator>
   </cc:Work>
  </rdf:RDF>
 </metadata>
 <defs>
  <style type="text/css">*{stroke-linejoin: round; stroke-linecap: butt}</style>
 </defs>
 <g id="figure_1">
  <g id="patch_1">
   <path d="M 0 288 
L 360 288 
L 360 0 
L 0 0 
L 0 288 
z
" style="fill: none"/>
  </g>
  <g id="axes_1">
   <g id="patch_2">
    <path d="M 53.91 232.02 
L 338.59 232.02 
L 338.59 32.64 
L 53.91 32.64 
L 53.91 232.02 
z
" style="fill: none"/>
   </g>
   <g id="matplotlib.axis_1">
    <g id="xtick_1">
     <g id="line2d_1">
      <defs>
       <path id="m33579f5671" d="M 0 0 
L 0 6 
" style="stroke: #262626; stroke-width: 1.25"/>
      </defs>
      <g>
       <use xlink:href="#m33579f5671" x="66.357344" y="232.02" style="fill: #262626; stroke: #262626; stroke-width: 1.25"/>
      </g>
     </g>
     <g id="text_1">
      <text style="fill: #262626; font: 11px 'Arial', 'DejaVu Sans', 'Liberation Sans', 'Bitstream Vera Sans', sans-serif; text-anchor: middle" x="66.357344" y="249.878281" transform="rotate(-0 66.357344 249.878281)">0</text>
     </g>
    </g>
    <g id="xtick_2">
     <g id="line2d_2">
      <g>
       <use xlink:href="#m33579f5671" x="118.215875" y="232.02" style="fill: #262626; stroke: #262626; stroke-width: 1.25"/>
      </g>
     </g>
     <g id="text_2">
      <text style="fill: #262626; font: 11px 'Arial', 'DejaVu Sans', 'Liberation Sans', 'Bitstream Vera Sans', sans-serif; text-anchor: middle" x="118.215875" y="249.878281" transform="rotate(-0 118.215875 249.878281)">2000</text>
     </g>
    </g>
    <g id="xtick_3">
     <g id="line2d_3">
      <g>
       <use xlink:href="#m33579f5671" x="170.074406" y="232.02" style="fill: #262626; stroke: #262626; stroke-width: 1.25"/>
      </g>
     </g>
     <g id="text_3">
      <text style="fill: #262626; font: 11px 'Arial', 'DejaVu Sans', 'Liberation Sans', 'Bitstream Vera Sans', sans-serif; text-anchor: middle" x="170.074406" y="249.878281" transform="rotate(-0 170.074406 249.878281)">4000</text>
     </g>
    </g>
    <g id="xtick_4">
     <g id="line2d_4">
      <g>
       <use xlink:href="#m33579f5671" x="221.932938" y="232.02" style="fill: #262626; stroke: #262626; stroke-width: 1.25"/>
      </g>
     </g>
     <g id="text_4">
      <text style="fill: #262626; font: 11px 'Arial', 'DejaVu Sans', 'Liberation Sans', 'Bitstream Vera Sans', sans-serif; text-anchor: middle" x="221.932938" y="249.878281" transform="rotate(-0 221.932938 249.878281)">6000</text>
     </g>
    </g>
    <g id="xtick_5">
     <g id="line2d_5">
      <g>
       <use xlink:href="#m33579f5671" x="273.791469" y="232.02" style="fill: #262626; stroke: #262626; stroke-width: 1.25"/>
      </g>
     </g>
     <g id="text_5">
      <text style="fill: #262626; font: 11px 'Arial', 'DejaVu Sans', 'Liberation Sans', 'Bitstream Vera Sans', sans-serif; text-anchor: middle" x="273.791469" y="249.878281" transform="rotate(-0 273.791469 249.878281)">8000</text>
     </g>
    </g>
    <g id="xtick_6">
     <g id="line2d_6">
      <g>
       <use xlink:href="#m33579f5671" x="325.65" y="232.02" style="fill: #262626; stroke: #262626; stroke-width: 1.25"/>
      </g>
     </g>
     <g id="text_6">
      <text style="fill: #262626; font: 11px 'Arial', 'DejaVu Sans', 'Liberation Sans', 'Bitstream Vera Sans', sans-serif; text-anchor: middle" x="325.65" y="249.878281" transform="rotate(-0 325.65 249.878281)">10000</text>
     </g>
    </g>
    <g id="text_7">
     <text style="fill: #262626; font: 10px 'Arial', 'DejaVu Sans', 'Liberation Sans', 'Bitstream Vera Sans', sans-serif; text-anchor: middle" x="196.25" y="263.764375" transform="rotate(-0 196.25 263.764375)">length</text>
    </g>
   </g>
   <g id="matplotlib.axis_2">
    <g id="ytick_1">
     <g id="line2d_7">
      <defs>
       <path id="m3ae07113a3" d="M 0 0 
L -6 0 
" style="stroke: #262626; stroke-width: 1.25"/>
      </defs>
      <g>
       <use xlink:href="#m3ae07113a3" x="53.91" y="222.957273" style="fill: #262626; stroke: #262626; stroke-width: 1.25"/>
      </g>
     </g>
     <g id="text_8">
      <text style="fill: #262626; font: 11px 'Arial', 'DejaVu Sans', 'Liberation Sans', 'Bitstream Vera Sans', sans-serif; text-anchor: end" x="44.41" y="227.136413" transform="rotate(-0 44.41 227.136413)">1.0</text>
     </g>
    </g>
    <g id="ytick_2">
     <g id="line2d_8">
      <g>
       <use xlink:href="#m3ae07113a3" x="53.91" y="177.643636" style="fill: #262626; stroke: #262626; stroke-width: 1.25"/>
      </g>
     </g>
     <g id="text_9">
      <text style="fill: #262626; font: 11px 'Arial', 'DejaVu Sans', 'Liberation Sans', 'Bitstream Vera Sans', sans-serif; text-anchor: end" x="44.41" y="181.822777" transform="rotate(-0 44.41 181.822777)">0.5</text>
     </g>
    </g>
    <g id="ytick_3">
     <g id="line2d_9">
      <g>
       <use xlink:href="#m3ae07113a3" x="53.91" y="132.33" style="fill: #262626; stroke: #262626; stroke-width: 1.25"/>
      </g>
     </g>
     <g id="text_10">
      <text style="fill: #262626; font: 11px 'Arial', 'DejaVu Sans', 'Liberation Sans', 'Bitstream Vera Sans', sans-serif; text-anchor: end" x="44.41" y="136.509141" transform="rotate(-0 44.41 136.509141)">0</text>
     </g>
    </g>
    <g id="ytick_4">
     <g id="line2d_10">
      <g>
       <use xlink:href="#m3ae07113a3" x="53.91" y="87.016364" style="fill: #262626; stroke: #262626; stroke-width: 1.25"/>
      </g>
     </g>
     <g id="text_11">
      <text style="fill: #262626; font: 11px 'Arial', 'DejaVu Sans', 'Liberation Sans', 'Bitstream Vera Sans', sans-serif; text-anchor: end" x="44.41" y="91.195504" transform="rotate(-0 44.41 91.195504)">0.5</text>
     </g>
    </g>
    <g id="ytick_5">
     <g id="line2d_11">
      <g>
       <use xlink:href="#m3ae07113a3" x="53.91" y="41.702727" style="fill: #262626; stroke: #262626; stroke-width: 1.25"/>
      </g>
     </g>
     <g id="text_12">
      <text style="fill: #262626; font: 11px 'Arial', 'DejaVu Sans', 'Liberation Sans', 'Bitstream Vera Sans', sans-serif; text-anchor: end" x="44.41" y="45.881868" transform="rotate(-0 44.41 45.881868)">1.0</text>
     </g>
    </g>
    <g id="text_13">
     <text style="fill: #262626; font: 10px 'Arial', 'DejaVu Sans', 'Liberation Sans', 'Bitstream Vera Sans', sans-serif; text-anchor: middle" x="20.836875" y="132.33" transform="rotate(-90 20.836875 132.33)">Normalized Count (Max=1.0)</text>
    </g>
   </g>
   <g id="patch_3">
    <path d="M 66.85 132.33 
L 72.026 132.33 
L 72.026 117.307997 
L 66.85 117.307997 
z
" clip-path="url(#p0f516b3ad2)" style="fill: #1f77b4; stroke: #000000; stroke-linejoin: miter"/>
   </g>
   <g id="patch_4">
    <path d="M 72.026 132.33 
L 77.202 132.33 
L 77.202 41.702727 
L 72.026 41.702727 
z
" clip-path="url(#p0f516b3ad2)" style="fill: #1f77b4; stroke: #000000; stroke-linejoin: miter"/>
   </g>
   <g id="patch_5">
    <path d="M 77.202 132.33 
L 82.378 132.33 
L 82.378 117.174493 
L 77.202 117.174493 
z
" clip-path="url(#p0f516b3ad2)" style="fill: #1f77b4; stroke: #000000; stroke-linejoin: miter"/>
   </g>
   <g id="patch_6">
    <path d="M 82.378 132.33 
L 87.554 132.33 
L 87.554 126.151239 
L 82.378 126.151239 
z
" clip-path="url(#p0f516b3ad2)" style="fill: #1f77b4; stroke: #000000; stroke-linejoin: miter"/>
   </g>
   <g id="patch_7">
    <path d="M 87.554 132.33 
L 92.73 132.33 
L 92.73 129.070432 
L 87.554 129.070432 
z
" clip-path="url(#p0f516b3ad2)" style="fill: #1f77b4; stroke: #000000; stroke-linejoin: miter"/>
   </g>
   <g id="patch_8">
    <path d="M 92.73 132.33 
L 97.906 132.33 
L 97.906 130.542922 
L 92.73 130.542922 
z
" clip-path="url(#p0f516b3ad2)" style="fill: #1f77b4; stroke: #000000; stroke-linejoin: miter"/>
   </g>
   <g id="patch_9">
    <path d="M 97.906 132.33 
L 103.082 132.33 
L 103.082 130.894868 
L 97.906 130.894868 
z
" clip-path="url(#p0f516b3ad2)" style="fill: #1f77b4; stroke: #000000; stroke-linejoin: miter"/>
   </g>
   <g id="patch_10">
    <path d="M 103.082 132.33 
L 108.258 132.33 
L 108.258 131.46505 
L 103.082 131.46505 
z
" clip-path="url(#p0f516b3ad2)" style="fill: #1f77b4; stroke: #000000; stroke-linejoin: miter"/>
   </g>
   <g id="patch_11">
    <path d="M 108.258 132.33 
L 113.434 132.33 
L 113.434 131.792766 
L 108.258 131.792766 
z
" clip-path="url(#p0f516b3ad2)" style="fill: #1f77b4; stroke: #000000; stroke-linejoin: miter"/>
   </g>
   <g id="patch_12">
    <path d="M 113.434 132.33 
L 118.61 132.33 
L 118.61 131.904945 
L 113.434 131.904945 
z
" clip-path="url(#p0f516b3ad2)" style="fill: #1f77b4; stroke: #000000; stroke-linejoin: miter"/>
   </g>
   <g id="patch_13">
    <path d="M 118.61 132.33 
L 123.786 132.33 
L 123.786 131.727026 
L 118.61 131.727026 
z
" clip-path="url(#p0f516b3ad2)" style="fill: #1f77b4; stroke: #000000; stroke-linejoin: miter"/>
   </g>
   <g id="patch_14">
    <path d="M 123.786 132.33 
L 128.962 132.33 
L 128.962 131.499036 
L 123.786 131.499036 
z
" clip-path="url(#p0f516b3ad2)" style="fill: #1f77b4; stroke: #000000; stroke-linejoin: miter"/>
   </g>
   <g id="patch_15">
    <path d="M 128.962 132.33 
L 134.138 132.33 
L 134.138 130.781496 
L 128.962 130.781496 
z
" clip-path="url(#p0f516b3ad2)" style="fill: #1f77b4; stroke: #000000; stroke-linejoin: miter"/>
   </g>
   <g id="patch_16">
    <path d="M 134.138 132.33 
L 139.314 132.33 
L 139.314 131.343428 
L 134.138 131.343428 
z
" clip-path="url(#p0f516b3ad2)" style="fill: #1f77b4; stroke: #000000; stroke-linejoin: miter"/>
   </g>
   <g id="patch_17">
    <path d="M 139.314 132.33 
L 144.49 132.33 
L 144.49 131.636899 
L 139.314 131.636899 
z
" clip-path="url(#p0f516b3ad2)" style="fill: #1f77b4; stroke: #000000; stroke-linejoin: miter"/>
   </g>
   <g id="patch_18">
    <path d="M 144.49 132.33 
L 149.666 132.33 
L 149.666 131.782493 
L 144.49 131.782493 
z
" clip-path="url(#p0f516b3ad2)" style="fill: #1f77b4; stroke: #000000; stroke-linejoin: miter"/>
   </g>
   <g id="patch_19">
    <path d="M 149.666 132.33 
L 154.842 132.33 
L 154.842 122.557573 
L 149.666 122.557573 
z
" clip-path="url(#p0f516b3ad2)" style="fill: #1f77b4; stroke: #000000; stroke-linejoin: miter"/>
   </g>
   <g id="patch_20">
    <path d="M 154.842 132.33 
L 160.018 132.33 
L 160.018 125.525331 
L 154.842 125.525331 
z
" clip-path="url(#p0f516b3ad2)" style="fill: #1f77b4; stroke: #000000; stroke-linejoin: miter"/>
   </g>
   <g id="patch_21">
    <path d="M 160.018 132.33 
L 165.194 132.33 
L 165.194 131.017373 
L 160.018 131.017373 
z
" clip-path="url(#p0f516b3ad2)" style="fill: #1f77b4; stroke: #000000; stroke-linejoin: miter"/>
   </g>
   <g id="patch_22">
    <path d="M 165.194 132.33 
L 170.37 132.33 
L 170.37 131.549885 
L 165.194 131.549885 
z
" clip-path="url(#p0f516b3ad2)" style="fill: #1f77b4; stroke: #000000; stroke-linejoin: miter"/>
   </g>
   <g id="patch_23">
    <path d="M 170.37 132.33 
L 175.546 132.33 
L 175.546 130.586662 
L 170.37 130.586662 
z
" clip-path="url(#p0f516b3ad2)" style="fill: #1f77b4; stroke: #000000; stroke-linejoin: miter"/>
   </g>
   <g id="patch_24">
    <path d="M 175.546 132.33 
L 180.722 132.33 
L 180.722 131.918072 
L 175.546 131.918072 
z
" clip-path="url(#p0f516b3ad2)" style="fill: #1f77b4; stroke: #000000; stroke-linejoin: miter"/>
   </g>
   <g id="patch_25">
    <path d="M 180.722 132.33 
L 185.898 132.33 
L 185.898 132.017954 
L 180.722 132.017954 
z
" clip-path="url(#p0f516b3ad2)" style="fill: #1f77b4; stroke: #000000; stroke-linejoin: miter"/>
   </g>
   <g id="patch_26">
    <path d="M 185.898 132.33 
L 191.074 132.33 
L 191.074 132.052199 
L 185.898 132.052199 
z
" clip-path="url(#p0f516b3ad2)" style="fill: #1f77b4; stroke: #000000; stroke-linejoin: miter"/>
   </g>
   <g id="patch_27">
    <path d="M 191.074 132.33 
L 196.25 132.33 
L 196.25 131.749026 
L 191.074 131.749026 
z
" clip-path="url(#p0f516b3ad2)" style="fill: #1f77b4; stroke: #000000; stroke-linejoin: miter"/>
   </g>
   <g id="patch_28">
    <path d="M 196.25 132.33 
L 201.426 132.33 
L 201.426 131.828308 
L 196.25 131.828308 
z
" clip-path="url(#p0f516b3ad2)" style="fill: #1f77b4; stroke: #000000; stroke-linejoin: miter"/>
   </g>
   <g id="patch_29">
    <path d="M 201.426 132.33 
L 206.602 132.33 
L 206.602 131.663413 
L 201.426 131.663413 
z
" clip-path="url(#p0f516b3ad2)" style="fill: #1f77b4; stroke: #000000; stroke-linejoin: miter"/>
   </g>
   <g id="patch_30">
    <path d="M 206.602 132.33 
L 211.778 132.33 
L 211.778 131.989209 
L 206.602 131.989209 
z
" clip-path="url(#p0f516b3ad2)" style="fill: #1f77b4; stroke: #000000; stroke-linejoin: miter"/>
   </g>
   <g id="patch_31">
    <path d="M 211.778 132.33 
L 216.954 132.33 
L 216.954 131.864992 
L 211.778 131.864992 
z
" clip-path="url(#p0f516b3ad2)" style="fill: #1f77b4; stroke: #000000; stroke-linejoin: miter"/>
   </g>
   <g id="patch_32">
    <path d="M 216.954 132.33 
L 222.13 132.33 
L 222.13 131.854719 
L 216.954 131.854719 
z
" clip-path="url(#p0f516b3ad2)" style="fill: #1f77b4; stroke: #000000; stroke-linejoin: miter"/>
   </g>
   <g id="patch_33">
    <path d="M 222.13 132.33 
L 227.306 132.33 
L 227.306 119.891795 
L 222.13 119.891795 
z
" clip-path="url(#p0f516b3ad2)" style="fill: #1f77b4; stroke: #000000; stroke-linejoin: miter"/>
   </g>
   <g id="patch_34">
    <path d="M 227.306 132.33 
L 232.482 132.33 
L 232.482 127.727658 
L 227.306 127.727658 
z
" clip-path="url(#p0f516b3ad2)" style="fill: #1f77b4; stroke: #000000; stroke-linejoin: miter"/>
   </g>
   <g id="patch_35">
    <path d="M 232.482 132.33 
L 237.658 132.33 
L 237.658 129.938079 
L 232.482 129.938079 
z
" clip-path="url(#p0f516b3ad2)" style="fill: #1f77b4; stroke: #000000; stroke-linejoin: miter"/>
   </g>
   <g id="patch_36">
    <path d="M 237.658 132.33 
L 242.834 132.33 
L 242.834 131.150981 
L 237.658 131.150981 
z
" clip-path="url(#p0f516b3ad2)" style="fill: #1f77b4; stroke: #000000; stroke-linejoin: miter"/>
   </g>
   <g id="patch_37">
    <path d="M 242.834 132.33 
L 248.01 132.33 
L 248.01 131.545059 
L 242.834 131.545059 
z
" clip-path="url(#p0f516b3ad2)" style="fill: #1f77b4; stroke: #000000; stroke-linejoin: miter"/>
   </g>
   <g id="patch_38">
    <path d="M 248.01 132.33 
L 253.186 132.33 
L 253.186 131.654021 
L 248.01 131.654021 
z
" clip-path="url(#p0f516b3ad2)" style="fill: #1f77b4; stroke: #000000; stroke-linejoin: miter"/>
   </g>
   <g id="patch_39">
    <path d="M 253.186 132.33 
L 258.362 132.33 
L 258.362 131.935558 
L 253.186 131.935558 
z
" clip-path="url(#p0f516b3ad2)" style="fill: #1f77b4; stroke: #000000; stroke-linejoin: miter"/>
   </g>
   <g id="patch_40">
    <path d="M 258.362 132.33 
L 263.538 132.33 
L 263.538 131.887719 
L 258.362 131.887719 
z
" clip-path="url(#p0f516b3ad2)" style="fill: #1f77b4; stroke: #000000; stroke-linejoin: miter"/>
   </g>
   <g id="patch_41">
    <path d="M 263.538 132.33 
L 268.714 132.33 
L 268.714 131.832407 
L 263.538 131.832407 
z
" clip-path="url(#p0f516b3ad2)" style="fill: #1f77b4; stroke: #000000; stroke-linejoin: miter"/>
   </g>
   <g id="patch_42">
    <path d="M 268.714 132.33 
L 273.89 132.33 
L 273.89 131.284485 
L 268.714 131.284485 
z
" clip-path="url(#p0f516b3ad2)" style="fill: #1f77b4; stroke: #000000; stroke-linejoin: miter"/>
   </g>
   <g id="patch_43">
    <path d="M 273.89 132.33 
L 279.066 132.33 
L 279.066 131.378659 
L 273.89 131.378659 
z
" clip-path="url(#p0f516b3ad2)" style="fill: #1f77b4; stroke: #000000; stroke-linejoin: miter"/>
   </g>
   <g id="patch_44">
    <path d="M 279.066 132.33 
L 284.242 132.33 
L 284.242 131.927516 
L 279.066 131.927516 
z
" clip-path="url(#p0f516b3ad2)" style="fill: #1f77b4; stroke: #000000; stroke-linejoin: miter"/>
   </g>
   <g id="patch_45">
    <path d="M 284.242 132.33 
L 289.418 132.33 
L 289.418 132.087015 
L 284.242 132.087015 
z
" clip-path="url(#p0f516b3ad2)" style="fill: #1f77b4; stroke: #000000; stroke-linejoin: miter"/>
   </g>
   <g id="patch_46">
    <path d="M 289.418 132.33 
L 294.594 132.33 
L 294.594 132.143312 
L 289.418 132.143312 
z
" clip-path="url(#p0f516b3ad2)" style="fill: #1f77b4; stroke: #000000; stroke-linejoin: miter"/>
   </g>
   <g id="patch_47">
    <path d="M 294.594 132.33 
L 299.77 132.33 
L 299.77 132.186378 
L 294.594 132.186378 
z
" clip-path="url(#p0f516b3ad2)" style="fill: #1f77b4; stroke: #000000; stroke-linejoin: miter"/>
   </g>
   <g id="patch_48">
    <path d="M 299.77 132.33 
L 304.946 132.33 
L 304.946 132.207081 
L 299.77 132.207081 
z
" clip-path="url(#p0f516b3ad2)" style="fill: #1f77b4; stroke: #000000; stroke-linejoin: miter"/>
   </g>
   <g id="patch_49">
    <path d="M 304.946 132.33 
L 310.122 132.33 
L 310.122 132.234217 
L 304.946 132.234217 
z
" clip-path="url(#p0f516b3ad2)" style="fill: #1f77b4; stroke: #000000; stroke-linejoin: miter"/>
   </g>
   <g id="patch_50">
    <path d="M 310.122 132.33 
L 315.298 132.33 
L 315.298 132.245477 
L 310.122 132.245477 
z
" clip-path="url(#p0f516b3ad2)" style="fill: #1f77b4; stroke: #000000; stroke-linejoin: miter"/>
   </g>
   <g id="patch_51">
    <path d="M 315.298 132.33 
L 320.474 132.33 
L 320.474 132.258708 
L 315.298 132.258708 
z
" clip-path="url(#p0f516b3ad2)" style="fill: #1f77b4; stroke: #000000; stroke-linejoin: miter"/>
   </g>
   <g id="patch_52">
    <path d="M 320.474 132.33 
L 325.65 132.33 
L 325.65 131.561663 
L 320.474 131.561663 
z
" clip-path="url(#p0f516b3ad2)" style="fill: #1f77b4; stroke: #000000; stroke-linejoin: miter"/>
   </g>
   <g id="patch_53">
    <path d="M 66.85 132.33 
L 72.026 132.33 
L 72.026 146.774909 
L 66.85 146.774909 
z
" clip-path="url(#p0f516b3ad2)" style="fill: #d62728; stroke: #000000; stroke-linejoin: miter"/>
   </g>
   <g id="patch_54">
    <path d="M 72.026 132.33 
L 77.202 132.33 
L 77.202 222.957273 
L 72.026 222.957273 
z
" clip-path="url(#p0f516b3ad2)" style="fill: #d62728; stroke: #000000; stroke-linejoin: miter"/>
   </g>
   <g id="patch_55">
    <path d="M 77.202 132.33 
L 82.378 132.33 
L 82.378 142.591737 
L 77.202 142.591737 
z
" clip-path="url(#p0f516b3ad2)" style="fill: #d62728; stroke: #000000; stroke-linejoin: miter"/>
   </g>
   <g id="patch_56">
    <path d="M 82.378 132.33 
L 87.554 132.33 
L 87.554 137.148984 
L 82.378 137.148984 
z
" clip-path="url(#p0f516b3ad2)" style="fill: #d62728; stroke: #000000; stroke-linejoin: miter"/>
   </g>
   <g id="patch_57">
    <path d="M 87.554 132.33 
L 92.73 132.33 
L 92.73 134.922692 
L 87.554 134.922692 
z
" clip-path="url(#p0f516b3ad2)" style="fill: #d62728; stroke: #000000; stroke-linejoin: miter"/>
   </g>
   <g id="patch_58">
    <path d="M 92.73 132.33 
L 97.906 132.33 
L 97.906 133.679595 
L 92.73 133.679595 
z
" clip-path="url(#p0f516b3ad2)" style="fill: #d62728; stroke: #000000; stroke-linejoin: miter"/>
   </g>
   <g id="patch_59">
    <path d="M 97.906 132.33 
L 103.082 132.33 
L 103.082 133.506854 
L 97.906 133.506854 
z
" clip-path="url(#p0f516b3ad2)" style="fill: #d62728; stroke: #000000; stroke-linejoin: miter"/>
   </g>
   <g id="patch_60">
    <path d="M 103.082 132.33 
L 108.258 132.33 
L 108.258 133.016525 
L 103.082 133.016525 
z
" clip-path="url(#p0f516b3ad2)" style="fill: #d62728; stroke: #000000; stroke-linejoin: miter"/>
   </g>
   <g id="patch_61">
    <path d="M 108.258 132.33 
L 113.434 132.33 
L 113.434 132.739823 
L 108.258 132.739823 
z
" clip-path="url(#p0f516b3ad2)" style="fill: #d62728; stroke: #000000; stroke-linejoin: miter"/>
   </g>
   <g id="patch_62">
    <path d="M 113.434 132.33 
L 118.61 132.33 
L 118.61 132.558208 
L 113.434 132.558208 
z
" clip-path="url(#p0f516b3ad2)" style="fill: #d62728; stroke: #000000; stroke-linejoin: miter"/>
   </g>
   <g id="patch_63">
    <path d="M 118.61 132.33 
L 123.786 132.33 
L 123.786 132.725243 
L 118.61 132.725243 
z
" clip-path="url(#p0f516b3ad2)" style="fill: #d62728; stroke: #000000; stroke-linejoin: miter"/>
   </g>
   <g id="patch_64">
    <path d="M 123.786 132.33 
L 128.962 132.33 
L 128.962 132.784197 
L 123.786 132.784197 
z
" clip-path="url(#p0f516b3ad2)" style="fill: #d62728; stroke: #000000; stroke-linejoin: miter"/>
   </g>
   <g id="patch_65">
    <path d="M 128.962 132.33 
L 134.138 132.33 
L 134.138 133.467235 
L 128.962 133.467235 
z
" clip-path="url(#p0f516b3ad2)" style="fill: #d62728; stroke: #000000; stroke-linejoin: miter"/>
   </g>
   <g id="patch_66">
    <path d="M 134.138 132.33 
L 139.314 132.33 
L 139.314 133.104321 
L 134.138 133.104321 
z
" clip-path="url(#p0f516b3ad2)" style="fill: #d62728; stroke: #000000; stroke-linejoin: miter"/>
   </g>
   <g id="patch_67">
    <path d="M 139.314 132.33 
L 144.49 132.33 
L 144.49 132.932532 
L 139.314 132.932532 
z
" clip-path="url(#p0f516b3ad2)" style="fill: #d62728; stroke: #000000; stroke-linejoin: miter"/>
   </g>
   <g id="patch_68">
    <path d="M 144.49 132.33 
L 149.666 132.33 
L 149.666 132.846003 
L 144.49 132.846003 
z
" clip-path="url(#p0f516b3ad2)" style="fill: #d62728; stroke: #000000; stroke-linejoin: miter"/>
   </g>
   <g id="patch_69">
    <path d="M 149.666 132.33 
L 154.842 132.33 
L 154.842 144.158445 
L 149.666 144.158445 
z
" clip-path="url(#p0f516b3ad2)" style="fill: #d62728; stroke: #000000; stroke-linejoin: miter"/>
   </g>
   <g id="patch_70">
    <path d="M 154.842 132.33 
L 160.018 132.33 
L 160.018 139.96101 
L 154.842 139.96101 
z
" clip-path="url(#p0f516b3ad2)" style="fill: #d62728; stroke: #000000; stroke-linejoin: miter"/>
   </g>
   <g id="patch_71">
    <path d="M 160.018 132.33 
L 165.194 132.33 
L 165.194 134.000987 
L 160.018 134.000987 
z
" clip-path="url(#p0f516b3ad2)" style="fill: #d62728; stroke: #000000; stroke-linejoin: miter"/>
   </g>
   <g id="patch_72">
    <path d="M 165.194 132.33 
L 170.37 132.33 
L 170.37 133.184511 
L 165.194 133.184511 
z
" clip-path="url(#p0f516b3ad2)" style="fill: #d62728; stroke: #000000; stroke-linejoin: miter"/>
   </g>
   <g id="patch_73">
    <path d="M 170.37 132.33 
L 175.546 132.33 
L 175.546 134.265327 
L 170.37 134.265327 
z
" clip-path="url(#p0f516b3ad2)" style="fill: #d62728; stroke: #000000; stroke-linejoin: miter"/>
   </g>
   <g id="patch_74">
    <path d="M 175.546 132.33 
L 180.722 132.33 
L 180.722 132.791487 
L 175.546 132.791487 
z
" clip-path="url(#p0f516b3ad2)" style="fill: #d62728; stroke: #000000; stroke-linejoin: miter"/>
   </g>
   <g id="patch_75">
    <path d="M 180.722 132.33 
L 185.898 132.33 
L 185.898 132.637446 
L 180.722 132.637446 
z
" clip-path="url(#p0f516b3ad2)" style="fill: #d62728; stroke: #000000; stroke-linejoin: miter"/>
   </g>
   <g id="patch_76">
    <path d="M 185.898 132.33 
L 191.074 132.33 
L 191.074 132.596242 
L 185.898 132.596242 
z
" clip-path="url(#p0f516b3ad2)" style="fill: #d62728; stroke: #000000; stroke-linejoin: miter"/>
   </g>
   <g id="patch_77">
    <path d="M 191.074 132.33 
L 196.25 132.33 
L 196.25 132.858364 
L 191.074 132.858364 
z
" clip-path="url(#p0f516b3ad2)" style="fill: #d62728; stroke: #000000; stroke-linejoin: miter"/>
   </g>
   <g id="patch_78">
    <path d="M 196.25 132.33 
L 201.426 132.33 
L 201.426 132.7693 
L 196.25 132.7693 
z
" clip-path="url(#p0f516b3ad2)" style="fill: #d62728; stroke: #000000; stroke-linejoin: miter"/>
   </g>
   <g id="patch_79">
    <path d="M 201.426 132.33 
L 206.602 132.33 
L 206.602 133.075161 
L 201.426 133.075161 
z
" clip-path="url(#p0f516b3ad2)" style="fill: #d62728; stroke: #000000; stroke-linejoin: miter"/>
   </g>
   <g id="patch_80">
    <path d="M 206.602 132.33 
L 211.778 132.33 
L 211.778 132.629206 
L 206.602 132.629206 
z
" clip-path="url(#p0f516b3ad2)" style="fill: #d62728; stroke: #000000; stroke-linejoin: miter"/>
   </g>
   <g id="patch_81">
    <path d="M 211.778 132.33 
L 216.954 132.33 
L 216.954 132.701788 
L 211.778 132.701788 
z
" clip-path="url(#p0f516b3ad2)" style="fill: #d62728; stroke: #000000; stroke-linejoin: miter"/>
   </g>
   <g id="patch_82">
    <path d="M 216.954 132.33 
L 222.13 132.33 
L 222.13 132.729363 
L 216.954 132.729363 
z
" clip-path="url(#p0f516b3ad2)" style="fill: #d62728; stroke: #000000; stroke-linejoin: miter"/>
   </g>
   <g id="patch_83">
    <path d="M 222.13 132.33 
L 227.306 132.33 
L 227.306 143.480795 
L 222.13 143.480795 
z
" clip-path="url(#p0f516b3ad2)" style="fill: #d62728; stroke: #000000; stroke-linejoin: miter"/>
   </g>
   <g id="patch_84">
    <path d="M 227.306 132.33 
L 232.482 132.33 
L 232.482 136.266582 
L 227.306 136.266582 
z
" clip-path="url(#p0f516b3ad2)" style="fill: #d62728; stroke: #000000; stroke-linejoin: miter"/>
   </g>
   <g id="patch_85">
    <path d="M 232.482 132.33 
L 237.658 132.33 
L 237.658 134.837431 
L 232.482 134.837431 
z
" clip-path="url(#p0f516b3ad2)" style="fill: #d62728; stroke: #000000; stroke-linejoin: miter"/>
   </g>
   <g id="patch_86">
    <path d="M 237.658 132.33 
L 242.834 132.33 
L 242.834 133.521117 
L 237.658 133.521117 
z
" clip-path="url(#p0f516b3ad2)" style="fill: #d62728; stroke: #000000; stroke-linejoin: miter"/>
   </g>
   <g id="patch_87">
    <path d="M 242.834 132.33 
L 248.01 132.33 
L 248.01 133.126191 
L 242.834 133.126191 
z
" clip-path="url(#p0f516b3ad2)" style="fill: #d62728; stroke: #000000; stroke-linejoin: miter"/>
   </g>
   <g id="patch_88">
    <path d="M 248.01 132.33 
L 253.186 132.33 
L 253.186 133.020962 
L 248.01 133.020962 
z
" clip-path="url(#p0f516b3ad2)" style="fill: #d62728; stroke: #000000; stroke-linejoin: miter"/>
   </g>
   <g id="patch_89">
    <path d="M 253.186 132.33 
L 258.362 132.33 
L 258.362 132.747113 
L 253.186 132.747113 
z
" clip-path="url(#p0f516b3ad2)" style="fill: #d62728; stroke: #000000; stroke-linejoin: miter"/>
   </g>
   <g id="patch_90">
    <path d="M 258.362 132.33 
L 263.538 132.33 
L 263.538 132.729363 
L 258.362 132.729363 
z
" clip-path="url(#p0f516b3ad2)" style="fill: #d62728; stroke: #000000; stroke-linejoin: miter"/>
   </g>
   <g id="patch_91">
    <path d="M 263.538 132.33 
L 268.714 132.33 
L 268.714 132.812406 
L 263.538 132.812406 
z
" clip-path="url(#p0f516b3ad2)" style="fill: #d62728; stroke: #000000; stroke-linejoin: miter"/>
   </g>
   <g id="patch_92">
    <path d="M 268.714 132.33 
L 273.89 132.33 
L 273.89 133.610815 
L 268.714 133.610815 
z
" clip-path="url(#p0f516b3ad2)" style="fill: #d62728; stroke: #000000; stroke-linejoin: miter"/>
   </g>
   <g id="patch_93">
    <path d="M 273.89 132.33 
L 279.066 132.33 
L 279.066 133.548058 
L 273.89 133.548058 
z
" clip-path="url(#p0f516b3ad2)" style="fill: #d62728; stroke: #000000; stroke-linejoin: miter"/>
   </g>
   <g id="patch_94">
    <path d="M 279.066 132.33 
L 284.242 132.33 
L 284.242 132.88277 
L 279.066 132.88277 
z
" clip-path="url(#p0f516b3ad2)" style="fill: #d62728; stroke: #000000; stroke-linejoin: miter"/>
   </g>
   <g id="patch_95">
    <path d="M 284.242 132.33 
L 289.418 132.33 
L 289.418 132.623183 
L 284.242 132.623183 
z
" clip-path="url(#p0f516b3ad2)" style="fill: #d62728; stroke: #000000; stroke-linejoin: miter"/>
   </g>
   <g id="patch_96">
    <path d="M 289.418 132.33 
L 294.594 132.33 
L 294.594 132.549016 
L 289.418 132.549016 
z
" clip-path="url(#p0f516b3ad2)" style="fill: #d62728; stroke: #000000; stroke-linejoin: miter"/>
   </g>
   <g id="patch_97">
    <path d="M 294.594 132.33 
L 299.77 132.33 
L 299.77 132.494817 
L 294.594 132.494817 
z
" clip-path="url(#p0f516b3ad2)" style="fill: #d62728; stroke: #000000; stroke-linejoin: miter"/>
   </g>
   <g id="patch_98">
    <path d="M 299.77 132.33 
L 304.946 132.33 
L 304.946 132.490696 
L 299.77 132.490696 
z
" clip-path="url(#p0f516b3ad2)" style="fill: #d62728; stroke: #000000; stroke-linejoin: miter"/>
   </g>
   <g id="patch_99">
    <path d="M 304.946 132.33 
L 310.122 132.33 
L 310.122 132.430158 
L 304.946 132.430158 
z
" clip-path="url(#p0f516b3ad2)" style="fill: #d62728; stroke: #000000; stroke-linejoin: miter"/>
   </g>
   <g id="patch_100">
    <path d="M 310.122 132.33 
L 315.298 132.33 
L 315.298 132.423185 
L 310.122 132.423185 
z
" clip-path="url(#p0f516b3ad2)" style="fill: #d62728; stroke: #000000; stroke-linejoin: miter"/>
   </g>
   <g id="patch_101">
    <path d="M 315.298 132.33 
L 320.474 132.33 
L 320.474 132.415578 
L 315.298 132.415578 
z
" clip-path="url(#p0f516b3ad2)" style="fill: #d62728; stroke: #000000; stroke-linejoin: miter"/>
   </g>
   <g id="patch_102">
    <path d="M 320.474 132.33 
L 325.65 132.33 
L 325.65 133.013989 
L 320.474 133.013989 
z
" clip-path="url(#p0f516b3ad2)" style="fill: #d62728; stroke: #000000; stroke-linejoin: miter"/>
   </g>
   <g id="line2d_12">
    <path d="M 53.91 132.33 
L 338.59 132.33 
" clip-path="url(#p0f516b3ad2)" style="fill: none; stroke: #808080; stroke-width: 0.8; stroke-linecap: round"/>
   </g>
   <g id="patch_103">
    <path d="M 53.91 232.02 
L 53.91 32.64 
" style="fill: none; stroke: #262626; stroke-width: 1.25; stroke-linejoin: miter; stroke-linecap: square"/>
   </g>
   <g id="patch_104">
    <path d="M 338.59 232.02 
L 338.59 32.64 
" style="fill: none; stroke: #262626; stroke-width: 1.25; stroke-linejoin: miter; stroke-linecap: square"/>
   </g>
   <g id="patch_105">
    <path d="M 53.91 232.02 
L 338.59 232.02 
" style="fill: none; stroke: #262626; stroke-width: 1.25; stroke-linejoin: miter; stroke-linecap: square"/>
   </g>
   <g id="patch_106">
    <path d="M 53.91 32.64 
L 338.59 32.64 
" style="fill: none; stroke: #262626; stroke-width: 1.25; stroke-linejoin: miter; stroke-linecap: square"/>
   </g>
   <g id="text_14">
    <text style="fill: #262626; font: 10px 'Arial', 'DejaVu Sans', 'Liberation Sans', 'Bitstream Vera Sans', sans-serif; text-anchor: middle" x="196.25" y="26.64" transform="rotate(-0 196.25 26.64)">p &lt; 0.001 (K-S)</text>
   </g>
   <g id="legend_1">
    <g id="patch_107">
     <path d="M 224.710094 50.898281 
L 246.710094 50.898281 
L 246.710094 43.198281 
L 224.710094 43.198281 
z
" style="fill: #1f77b4; stroke: #000000; stroke-linejoin: miter"/>
    </g>
    <g id="text_15">
     <text style="fill: #262626; font: 11px 'Arial', 'DejaVu Sans', 'Liberation Sans', 'Bitstream Vera Sans', sans-serif; text-anchor: start" x="255.510094" y="50.898281" transform="rotate(-0 255.510094 50.898281)">All TEs</text>
    </g>
    <g id="patch_108">
     <path d="M 224.710094 67.044219 
L 246.710094 67.044219 
L 246.710094 59.344219 
L 224.710094 59.344219 
z
" style="fill: #d62728; stroke: #000000; stroke-linejoin: miter"/>
    </g>
    <g id="text_16">
     <text style="fill: #262626; font: 11px 'Arial', 'DejaVu Sans', 'Liberation Sans', 'Bitstream Vera Sans', sans-serif; text-anchor: start" x="255.510094" y="67.044219" transform="rotate(-0 255.510094 67.044219)">TEs Near Genes</text>
    </g>
   </g>
  </g>
 </g>
 <defs>
  <clipPath id="p0f516b3ad2">
   <rect x="53.91" y="32.64" width="284.68" height="199.38"/>
  </clipPath>
 </defs>
</svg>
