<?xml version="1.0" encoding="utf-8" standalone="no"?>
<!DOCTYPE svg PUBLIC "-//W3C//DTD SVG 1.1//EN"
  "http://www.w3.org/Graphics/SVG/1.1/DTD/svg11.dtd">
<svg xmlns:xlink="http://www.w3.org/1999/xlink" width="288pt" height="288pt" viewBox="0 0 288 288" xmlns="http://www.w3.org/2000/svg" version="1.1">
 <metadata>
  <rdf:RDF xmlns:dc="http://purl.org/dc/elements/1.1/" xmlns:cc="http://creativecommons.org/ns#" xmlns:rdf="http://www.w3.org/1999/02/22-rdf-syntax-ns#">
   <cc:Work>
    <dc:type rdf:resource="http://purl.org/dc/dcmitype/StillImage"/>
    <dc:date>2025-12-28T18:34:52.603883</dc:date>
    <dc:format>image/svg+xml</dc:format>
    <dc:creator>
     <cc:Agent>
      <dc:title>Matplotlib v3.8.4, https://matplotlib.org/</dc:title>
     </cc:Agent>
    </dc:creator>
   </cc:Work>
  </rdf:RDF>
 </metadata>
 <defs>
  <style type="text/css">*{stroke-linejoin: round; stroke-linecap: butt}</style>
 </defs>
 <g id="figure_1">
  <g id="patch_1">
   <path d="M 0 288 
L 288 288 
L 288 0 
L 0 0 
L 0 288 
z
" style="fill: none"/>
  </g>
  <g id="axes_1">
   <g id="patch_2">
    <path d="M 51.75 234.18 
L 271.54 234.18 
L 271.54 30.48 
L 51.75 30.48 
L 51.75 234.18 
z
" style="fill: none"/>
   </g>
   <g id="matplotlib.axis_1">
    <g id="xtick_1">
     <g id="line2d_1">
      <defs>
       <path id="m0c039d57b6" d="M 0 0 
L 0 6 
" style="stroke: #262626; stroke-width: 1.25"/>
      </defs>
      <g>
       <use xlink:href="#m0c039d57b6" x="60.466931" y="234.18" style="fill: #262626; stroke: #262626; stroke-width: 1.25"/>
      </g>
     </g>
     <g id="text_1">
      <text style="fill: #262626; font: 11px 'Arial', 'DejaVu Sans', 'Liberation Sans', 'Bitstream Vera Sans', sans-serif; text-anchor: middle" x="60.466931" y="252.038281" transform="rotate(-0 60.466931 252.038281)">0</text>
     </g>
    </g>
    <g id="xtick_2">
     <g id="line2d_2">
      <g>
       <use xlink:href="#m0c039d57b6" x="127.494469" y="234.18" style="fill: #262626; stroke: #262626; stroke-width: 1.25"/>
      </g>
     </g>
     <g id="text_2">
      <text style="fill: #262626; font: 11px 'Arial', 'DejaVu Sans', 'Liberation Sans', 'Bitstream Vera Sans', sans-serif; text-anchor: middle" x="127.494469" y="252.038281" transform="rotate(-0 127.494469 252.038281)">1000</text>
     </g>
    </g>
    <g id="xtick_3">
     <g id="line2d_3">
      <g>
       <use xlink:href="#m0c039d57b6" x="194.522007" y="234.18" style="fill: #262626; stroke: #262626; stroke-width: 1.25"/>
      </g>
     </g>
     <g id="text_3">
      <text style="fill: #262626; font: 11px 'Arial', 'DejaVu Sans', 'Liberation Sans', 'Bitstream Vera Sans', sans-serif; text-anchor: middle" x="194.522007" y="252.038281" transform="rotate(-0 194.522007 252.038281)">2000</text>
     </g>
    </g>
    <g id="xtick_4">
     <g id="line2d_4">
      <g>
       <use xlink:href="#m0c039d57b6" x="261.549545" y="234.18" style="fill: #262626; stroke: #262626; stroke-width: 1.25"/>
      </g>
     </g>
     <g id="text_4">
      <text style="fill: #262626; font: 11px 'Arial', 'DejaVu Sans', 'Liberation Sans', 'Bitstream Vera Sans', sans-serif; text-anchor: middle" x="261.549545" y="252.038281" transform="rotate(-0 261.549545 252.038281)">3000</text>
     </g>
    </g>
    <g id="text_5">
     <text style="fill: #262626; font: 10px 'Arial', 'DejaVu Sans', 'Liberation Sans', 'Bitstream Vera Sans', sans-serif; text-anchor: middle" x="161.645" y="265.924375" transform="rotate(-0 161.645 265.924375)">length</text>
    </g>
   </g>
   <g id="matplotlib.axis_2">
    <g id="ytick_1">
     <g id="line2d_5">
      <defs>
       <path id="m19d101976f" d="M 0 0 
L -6 0 
" style="stroke: #262626; stroke-width: 1.25"/>
      </defs>
      <g>
       <use xlink:href="#m19d101976f" x="51.75" y="224.920909" style="fill: #262626; stroke: #262626; stroke-width: 1.25"/>
      </g>
     </g>
     <g id="text_6">
      <text style="fill: #262626; font: 11px 'Arial', 'DejaVu Sans', 'Liberation Sans', 'Bitstream Vera Sans', sans-serif; text-anchor: end" x="42.25" y="229.10005" transform="rotate(-0 42.25 229.10005)">1.0</text>
     </g>
    </g>
    <g id="ytick_2">
     <g id="line2d_6">
      <g>
       <use xlink:href="#m19d101976f" x="51.75" y="178.625455" style="fill: #262626; stroke: #262626; stroke-width: 1.25"/>
      </g>
     </g>
     <g id="text_7">
      <text style="fill: #262626; font: 11px 'Arial', 'DejaVu Sans', 'Liberation Sans', 'Bitstream Vera Sans', sans-serif; text-anchor: end" x="42.25" y="182.804595" transform="rotate(-0 42.25 182.804595)">0.5</text>
     </g>
    </g>
    <g id="ytick_3">
     <g id="line2d_7">
      <g>
       <use xlink:href="#m19d101976f" x="51.75" y="132.33" style="fill: #262626; stroke: #262626; stroke-width: 1.25"/>
      </g>
     </g>
     <g id="text_8">
      <text style="fill: #262626; font: 11px 'Arial', 'DejaVu Sans', 'Liberation Sans', 'Bitstream Vera Sans', sans-serif; text-anchor: end" x="42.25" y="136.509141" transform="rotate(-0 42.25 136.509141)">0</text>
     </g>
    </g>
    <g id="ytick_4">
     <g id="line2d_8">
      <g>
       <use xlink:href="#m19d101976f" x="51.75" y="86.034545" style="fill: #262626; stroke: #262626; stroke-width: 1.25"/>
      </g>
     </g>
     <g id="text_9">
      <text style="fill: #262626; font: 11px 'Arial', 'DejaVu Sans', 'Liberation Sans', 'Bitstream Vera Sans', sans-serif; text-anchor: end" x="42.25" y="90.213686" transform="rotate(-0 42.25 90.213686)">0.5</text>
     </g>
    </g>
    <g id="ytick_5">
     <g id="line2d_9">
      <g>
       <use xlink:href="#m19d101976f" x="51.75" y="39.739091" style="fill: #262626; stroke: #262626; stroke-width: 1.25"/>
      </g>
     </g>
     <g id="text_10">
      <text style="fill: #262626; font: 11px 'Arial', 'DejaVu Sans', 'Liberation Sans', 'Bitstream Vera Sans', sans-serif; text-anchor: end" x="42.25" y="43.918232" transform="rotate(-0 42.25 43.918232)">1.0</text>
     </g>
    </g>
    <g id="text_11">
     <text style="fill: #262626; font: 10px 'Arial', 'DejaVu Sans', 'Liberation Sans', 'Bitstream Vera Sans', sans-serif; text-anchor: middle" x="18.676875" y="132.33" transform="rotate(-90 18.676875 132.33)">Normalized Count (Max=1.0)</text>
    </g>
   </g>
   <g id="patch_3">
    <path d="M 61.740455 132.33 
L 65.736636 132.33 
L 65.736636 132.33 
L 61.740455 132.33 
z
" clip-path="url(#p510d63dfa9)" style="fill: #1f77b4; stroke: #000000; stroke-linejoin: miter"/>
   </g>
   <g id="patch_4">
    <path d="M 65.736636 132.33 
L 69.732818 132.33 
L 69.732818 132.33 
L 65.736636 132.33 
z
" clip-path="url(#p510d63dfa9)" style="fill: #1f77b4; stroke: #000000; stroke-linejoin: miter"/>
   </g>
   <g id="patch_5">
    <path d="M 69.732818 132.33 
L 73.729 132.33 
L 73.729 132.33 
L 69.732818 132.33 
z
" clip-path="url(#p510d63dfa9)" style="fill: #1f77b4; stroke: #000000; stroke-linejoin: miter"/>
   </g>
   <g id="patch_6">
    <path d="M 73.729 132.33 
L 77.725182 132.33 
L 77.725182 132.33 
L 73.729 132.33 
z
" clip-path="url(#p510d63dfa9)" style="fill: #1f77b4; stroke: #000000; stroke-linejoin: miter"/>
   </g>
   <g id="patch_7">
    <path d="M 77.725182 132.33 
L 81.721364 132.33 
L 81.721364 132.33 
L 77.725182 132.33 
z
" clip-path="url(#p510d63dfa9)" style="fill: #1f77b4; stroke: #000000; stroke-linejoin: miter"/>
   </g>
   <g id="patch_8">
    <path d="M 81.721364 132.33 
L 85.717545 132.33 
L 85.717545 132.33 
L 81.721364 132.33 
z
" clip-path="url(#p510d63dfa9)" style="fill: #1f77b4; stroke: #000000; stroke-linejoin: miter"/>
   </g>
   <g id="patch_9">
    <path d="M 85.717545 132.33 
L 89.713727 132.33 
L 89.713727 132.33 
L 85.717545 132.33 
z
" clip-path="url(#p510d63dfa9)" style="fill: #1f77b4; stroke: #000000; stroke-linejoin: miter"/>
   </g>
   <g id="patch_10">
    <path d="M 89.713727 132.33 
L 93.709909 132.33 
L 93.709909 132.33 
L 89.713727 132.33 
z
" clip-path="url(#p510d63dfa9)" style="fill: #1f77b4; stroke: #000000; stroke-linejoin: miter"/>
   </g>
   <g id="patch_11">
    <path d="M 93.709909 132.33 
L 97.706091 132.33 
L 97.706091 132.33 
L 93.709909 132.33 
z
" clip-path="url(#p510d63dfa9)" style="fill: #1f77b4; stroke: #000000; stroke-linejoin: miter"/>
   </g>
   <g id="patch_12">
    <path d="M 97.706091 132.33 
L 101.702273 132.33 
L 101.702273 132.33 
L 97.706091 132.33 
z
" clip-path="url(#p510d63dfa9)" style="fill: #1f77b4; stroke: #000000; stroke-linejoin: miter"/>
   </g>
   <g id="patch_13">
    <path d="M 101.702273 132.33 
L 105.698455 132.33 
L 105.698455 132.33 
L 101.702273 132.33 
z
" clip-path="url(#p510d63dfa9)" style="fill: #1f77b4; stroke: #000000; stroke-linejoin: miter"/>
   </g>
   <g id="patch_14">
    <path d="M 105.698455 132.33 
L 109.694636 132.33 
L 109.694636 132.33 
L 105.698455 132.33 
z
" clip-path="url(#p510d63dfa9)" style="fill: #1f77b4; stroke: #000000; stroke-linejoin: miter"/>
   </g>
   <g id="patch_15">
    <path d="M 109.694636 132.33 
L 113.690818 132.33 
L 113.690818 132.33 
L 109.694636 132.33 
z
" clip-path="url(#p510d63dfa9)" style="fill: #1f77b4; stroke: #000000; stroke-linejoin: miter"/>
   </g>
   <g id="patch_16">
    <path d="M 113.690818 132.33 
L 117.687 132.33 
L 117.687 132.33 
L 113.690818 132.33 
z
" clip-path="url(#p510d63dfa9)" style="fill: #1f77b4; stroke: #000000; stroke-linejoin: miter"/>
   </g>
   <g id="patch_17">
    <path d="M 117.687 132.33 
L 121.683182 132.33 
L 121.683182 132.33 
L 117.687 132.33 
z
" clip-path="url(#p510d63dfa9)" style="fill: #1f77b4; stroke: #000000; stroke-linejoin: miter"/>
   </g>
   <g id="patch_18">
    <path d="M 121.683182 132.33 
L 125.679364 132.33 
L 125.679364 132.33 
L 121.683182 132.33 
z
" clip-path="url(#p510d63dfa9)" style="fill: #1f77b4; stroke: #000000; stroke-linejoin: miter"/>
   </g>
   <g id="patch_19">
    <path d="M 125.679364 132.33 
L 129.675545 132.33 
L 129.675545 132.14168 
L 125.679364 132.14168 
z
" clip-path="url(#p510d63dfa9)" style="fill: #1f77b4; stroke: #000000; stroke-linejoin: miter"/>
   </g>
   <g id="patch_20">
    <path d="M 129.675545 132.33 
L 133.671727 132.33 
L 133.671727 131.890586 
L 129.675545 131.890586 
z
" clip-path="url(#p510d63dfa9)" style="fill: #1f77b4; stroke: #000000; stroke-linejoin: miter"/>
   </g>
   <g id="patch_21">
    <path d="M 133.671727 132.33 
L 137.667909 132.33 
L 137.667909 131.639492 
L 133.671727 131.639492 
z
" clip-path="url(#p510d63dfa9)" style="fill: #1f77b4; stroke: #000000; stroke-linejoin: miter"/>
   </g>
   <g id="patch_22">
    <path d="M 137.667909 132.33 
L 141.664091 132.33 
L 141.664091 131.294237 
L 137.667909 131.294237 
z
" clip-path="url(#p510d63dfa9)" style="fill: #1f77b4; stroke: #000000; stroke-linejoin: miter"/>
   </g>
   <g id="patch_23">
    <path d="M 141.664091 132.33 
L 145.660273 132.33 
L 145.660273 126.805932 
L 141.664091 126.805932 
z
" clip-path="url(#p510d63dfa9)" style="fill: #1f77b4; stroke: #000000; stroke-linejoin: miter"/>
   </g>
   <g id="patch_24">
    <path d="M 145.660273 132.33 
L 149.656455 132.33 
L 149.656455 119.335886 
L 145.660273 119.335886 
z
" clip-path="url(#p510d63dfa9)" style="fill: #1f77b4; stroke: #000000; stroke-linejoin: miter"/>
   </g>
   <g id="patch_25">
    <path d="M 149.656455 132.33 
L 153.652636 132.33 
L 153.652636 39.739091 
L 149.656455 39.739091 
z
" clip-path="url(#p510d63dfa9)" style="fill: #1f77b4; stroke: #000000; stroke-linejoin: miter"/>
   </g>
   <g id="patch_26">
    <path d="M 153.652636 132.33 
L 157.648818 132.33 
L 157.648818 111.551972 
L 153.652636 111.551972 
z
" clip-path="url(#p510d63dfa9)" style="fill: #1f77b4; stroke: #000000; stroke-linejoin: miter"/>
   </g>
   <g id="patch_27">
    <path d="M 157.648818 132.33 
L 161.645 132.33 
L 161.645 125.016888 
L 157.648818 125.016888 
z
" clip-path="url(#p510d63dfa9)" style="fill: #1f77b4; stroke: #000000; stroke-linejoin: miter"/>
   </g>
   <g id="patch_28">
    <path d="M 161.645 132.33 
L 165.641182 132.33 
L 165.641182 126.05265 
L 161.645 126.05265 
z
" clip-path="url(#p510d63dfa9)" style="fill: #1f77b4; stroke: #000000; stroke-linejoin: miter"/>
   </g>
   <g id="patch_29">
    <path d="M 165.641182 132.33 
L 169.637364 132.33 
L 169.637364 125.707396 
L 165.641182 125.707396 
z
" clip-path="url(#p510d63dfa9)" style="fill: #1f77b4; stroke: #000000; stroke-linejoin: miter"/>
   </g>
   <g id="patch_30">
    <path d="M 169.637364 132.33 
L 173.633545 132.33 
L 173.633545 126.021263 
L 169.637364 126.021263 
z
" clip-path="url(#p510d63dfa9)" style="fill: #1f77b4; stroke: #000000; stroke-linejoin: miter"/>
   </g>
   <g id="patch_31">
    <path d="M 173.633545 132.33 
L 177.629727 132.33 
L 177.629727 127.684761 
L 173.633545 127.684761 
z
" clip-path="url(#p510d63dfa9)" style="fill: #1f77b4; stroke: #000000; stroke-linejoin: miter"/>
   </g>
   <g id="patch_32">
    <path d="M 177.629727 132.33 
L 181.625909 132.33 
L 181.625909 128.971618 
L 177.629727 128.971618 
z
" clip-path="url(#p510d63dfa9)" style="fill: #1f77b4; stroke: #000000; stroke-linejoin: miter"/>
   </g>
   <g id="patch_33">
    <path d="M 181.625909 132.33 
L 185.622091 132.33 
L 185.622091 129.756287 
L 181.625909 129.756287 
z
" clip-path="url(#p510d63dfa9)" style="fill: #1f77b4; stroke: #000000; stroke-linejoin: miter"/>
   </g>
   <g id="patch_34">
    <path d="M 185.622091 132.33 
L 189.618273 132.33 
L 189.618273 129.159938 
L 185.622091 129.159938 
z
" clip-path="url(#p510d63dfa9)" style="fill: #1f77b4; stroke: #000000; stroke-linejoin: miter"/>
   </g>
   <g id="patch_35">
    <path d="M 189.618273 132.33 
L 193.614455 132.33 
L 193.614455 129.975994 
L 189.618273 129.975994 
z
" clip-path="url(#p510d63dfa9)" style="fill: #1f77b4; stroke: #000000; stroke-linejoin: miter"/>
   </g>
   <g id="patch_36">
    <path d="M 193.614455 132.33 
L 197.610636 132.33 
L 197.610636 130.415408 
L 193.614455 130.415408 
z
" clip-path="url(#p510d63dfa9)" style="fill: #1f77b4; stroke: #000000; stroke-linejoin: miter"/>
   </g>
   <g id="patch_37">
    <path d="M 197.610636 132.33 
L 201.606818 132.33 
L 201.606818 130.540955 
L 197.610636 130.540955 
z
" clip-path="url(#p510d63dfa9)" style="fill: #1f77b4; stroke: #000000; stroke-linejoin: miter"/>
   </g>
   <g id="patch_38">
    <path d="M 201.606818 132.33 
L 205.603 132.33 
L 205.603 130.352635 
L 201.606818 130.352635 
z
" clip-path="url(#p510d63dfa9)" style="fill: #1f77b4; stroke: #000000; stroke-linejoin: miter"/>
   </g>
   <g id="patch_39">
    <path d="M 205.603 132.33 
L 209.599182 132.33 
L 209.599182 130.948983 
L 205.603 130.948983 
z
" clip-path="url(#p510d63dfa9)" style="fill: #1f77b4; stroke: #000000; stroke-linejoin: miter"/>
   </g>
   <g id="patch_40">
    <path d="M 209.599182 132.33 
L 213.595364 132.33 
L 213.595364 130.760663 
L 209.599182 130.760663 
z
" clip-path="url(#p510d63dfa9)" style="fill: #1f77b4; stroke: #000000; stroke-linejoin: miter"/>
   </g>
   <g id="patch_41">
    <path d="M 213.595364 132.33 
L 217.591545 132.33 
L 217.591545 130.98037 
L 213.595364 130.98037 
z
" clip-path="url(#p510d63dfa9)" style="fill: #1f77b4; stroke: #000000; stroke-linejoin: miter"/>
   </g>
   <g id="patch_42">
    <path d="M 217.591545 132.33 
L 221.587727 132.33 
L 221.587727 131.262851 
L 217.591545 131.262851 
z
" clip-path="url(#p510d63dfa9)" style="fill: #1f77b4; stroke: #000000; stroke-linejoin: miter"/>
   </g>
   <g id="patch_43">
    <path d="M 221.587727 132.33 
L 225.583909 132.33 
L 225.583909 131.07453 
L 221.587727 131.07453 
z
" clip-path="url(#p510d63dfa9)" style="fill: #1f77b4; stroke: #000000; stroke-linejoin: miter"/>
   </g>
   <g id="patch_44">
    <path d="M 225.583909 132.33 
L 229.580091 132.33 
L 229.580091 130.88621 
L 225.583909 130.88621 
z
" clip-path="url(#p510d63dfa9)" style="fill: #1f77b4; stroke: #000000; stroke-linejoin: miter"/>
   </g>
   <g id="patch_45">
    <path d="M 229.580091 132.33 
L 233.576273 132.33 
L 233.576273 131.451171 
L 229.580091 131.451171 
z
" clip-path="url(#p510d63dfa9)" style="fill: #1f77b4; stroke: #000000; stroke-linejoin: miter"/>
   </g>
   <g id="patch_46">
    <path d="M 233.576273 132.33 
L 237.572455 132.33 
L 237.572455 131.294237 
L 233.576273 131.294237 
z
" clip-path="url(#p510d63dfa9)" style="fill: #1f77b4; stroke: #000000; stroke-linejoin: miter"/>
   </g>
   <g id="patch_47">
    <path d="M 237.572455 132.33 
L 241.568636 132.33 
L 241.568636 131.796425 
L 237.572455 131.796425 
z
" clip-path="url(#p510d63dfa9)" style="fill: #1f77b4; stroke: #000000; stroke-linejoin: miter"/>
   </g>
   <g id="patch_48">
    <path d="M 241.568636 132.33 
L 245.564818 132.33 
L 245.564818 131.670878 
L 241.568636 131.670878 
z
" clip-path="url(#p510d63dfa9)" style="fill: #1f77b4; stroke: #000000; stroke-linejoin: miter"/>
   </g>
   <g id="patch_49">
    <path d="M 245.564818 132.33 
L 249.561 132.33 
L 249.561 131.796425 
L 245.564818 131.796425 
z
" clip-path="url(#p510d63dfa9)" style="fill: #1f77b4; stroke: #000000; stroke-linejoin: miter"/>
   </g>
   <g id="patch_50">
    <path d="M 249.561 132.33 
L 253.557182 132.33 
L 253.557182 131.702265 
L 249.561 131.702265 
z
" clip-path="url(#p510d63dfa9)" style="fill: #1f77b4; stroke: #000000; stroke-linejoin: miter"/>
   </g>
   <g id="patch_51">
    <path d="M 253.557182 132.33 
L 257.553364 132.33 
L 257.553364 132.016133 
L 253.557182 132.016133 
z
" clip-path="url(#p510d63dfa9)" style="fill: #1f77b4; stroke: #000000; stroke-linejoin: miter"/>
   </g>
   <g id="patch_52">
    <path d="M 257.553364 132.33 
L 261.549545 132.33 
L 261.549545 130.603729 
L 257.553364 130.603729 
z
" clip-path="url(#p510d63dfa9)" style="fill: #1f77b4; stroke: #000000; stroke-linejoin: miter"/>
   </g>
   <g id="patch_53">
    <path d="M 61.740455 132.33 
L 65.736636 132.33 
L 65.736636 132.33 
L 61.740455 132.33 
z
" clip-path="url(#p510d63dfa9)" style="fill: #d62728; stroke: #000000; stroke-linejoin: miter"/>
   </g>
   <g id="patch_54">
    <path d="M 65.736636 132.33 
L 69.732818 132.33 
L 69.732818 132.33 
L 65.736636 132.33 
z
" clip-path="url(#p510d63dfa9)" style="fill: #d62728; stroke: #000000; stroke-linejoin: miter"/>
   </g>
   <g id="patch_55">
    <path d="M 69.732818 132.33 
L 73.729 132.33 
L 73.729 132.33 
L 69.732818 132.33 
z
" clip-path="url(#p510d63dfa9)" style="fill: #d62728; stroke: #000000; stroke-linejoin: miter"/>
   </g>
   <g id="patch_56">
    <path d="M 73.729 132.33 
L 77.725182 132.33 
L 77.725182 132.33 
L 73.729 132.33 
z
" clip-path="url(#p510d63dfa9)" style="fill: #d62728; stroke: #000000; stroke-linejoin: miter"/>
   </g>
   <g id="patch_57">
    <path d="M 77.725182 132.33 
L 81.721364 132.33 
L 81.721364 132.33 
L 77.725182 132.33 
z
" clip-path="url(#p510d63dfa9)" style="fill: #d62728; stroke: #000000; stroke-linejoin: miter"/>
   </g>
   <g id="patch_58">
    <path d="M 81.721364 132.33 
L 85.717545 132.33 
L 85.717545 132.33 
L 81.721364 132.33 
z
" clip-path="url(#p510d63dfa9)" style="fill: #d62728; stroke: #000000; stroke-linejoin: miter"/>
   </g>
   <g id="patch_59">
    <path d="M 85.717545 132.33 
L 89.713727 132.33 
L 89.713727 132.33 
L 85.717545 132.33 
z
" clip-path="url(#p510d63dfa9)" style="fill: #d62728; stroke: #000000; stroke-linejoin: miter"/>
   </g>
   <g id="patch_60">
    <path d="M 89.713727 132.33 
L 93.709909 132.33 
L 93.709909 132.33 
L 89.713727 132.33 
z
" clip-path="url(#p510d63dfa9)" style="fill: #d62728; stroke: #000000; stroke-linejoin: miter"/>
   </g>
   <g id="patch_61">
    <path d="M 93.709909 132.33 
L 97.706091 132.33 
L 97.706091 132.33 
L 93.709909 132.33 
z
" clip-path="url(#p510d63dfa9)" style="fill: #d62728; stroke: #000000; stroke-linejoin: miter"/>
   </g>
   <g id="patch_62">
    <path d="M 97.706091 132.33 
L 101.702273 132.33 
L 101.702273 132.33 
L 97.706091 132.33 
z
" clip-path="url(#p510d63dfa9)" style="fill: #d62728; stroke: #000000; stroke-linejoin: miter"/>
   </g>
   <g id="patch_63">
    <path d="M 101.702273 132.33 
L 105.698455 132.33 
L 105.698455 132.33 
L 101.702273 132.33 
z
" clip-path="url(#p510d63dfa9)" style="fill: #d62728; stroke: #000000; stroke-linejoin: miter"/>
   </g>
   <g id="patch_64">
    <path d="M 105.698455 132.33 
L 109.694636 132.33 
L 109.694636 132.33 
L 105.698455 132.33 
z
" clip-path="url(#p510d63dfa9)" style="fill: #d62728; stroke: #000000; stroke-linejoin: miter"/>
   </g>
   <g id="patch_65">
    <path d="M 109.694636 132.33 
L 113.690818 132.33 
L 113.690818 132.33 
L 109.694636 132.33 
z
" clip-path="url(#p510d63dfa9)" style="fill: #d62728; stroke: #000000; stroke-linejoin: miter"/>
   </g>
   <g id="patch_66">
    <path d="M 113.690818 132.33 
L 117.687 132.33 
L 117.687 132.33 
L 113.690818 132.33 
z
" clip-path="url(#p510d63dfa9)" style="fill: #d62728; stroke: #000000; stroke-linejoin: miter"/>
   </g>
   <g id="patch_67">
    <path d="M 117.687 132.33 
L 121.683182 132.33 
L 121.683182 132.33 
L 117.687 132.33 
z
" clip-path="url(#p510d63dfa9)" style="fill: #d62728; stroke: #000000; stroke-linejoin: miter"/>
   </g>
   <g id="patch_68">
    <path d="M 121.683182 132.33 
L 125.679364 132.33 
L 125.679364 132.33 
L 121.683182 132.33 
z
" clip-path="url(#p510d63dfa9)" style="fill: #d62728; stroke: #000000; stroke-linejoin: miter"/>
   </g>
   <g id="patch_69">
    <path d="M 125.679364 132.33 
L 129.675545 132.33 
L 129.675545 132.33 
L 125.679364 132.33 
z
" clip-path="url(#p510d63dfa9)" style="fill: #d62728; stroke: #000000; stroke-linejoin: miter"/>
   </g>
   <g id="patch_70">
    <path d="M 129.675545 132.33 
L 133.671727 132.33 
L 133.671727 132.483805 
L 129.675545 132.483805 
z
" clip-path="url(#p510d63dfa9)" style="fill: #d62728; stroke: #000000; stroke-linejoin: miter"/>
   </g>
   <g id="patch_71">
    <path d="M 133.671727 132.33 
L 137.667909 132.33 
L 137.667909 133.252833 
L 133.671727 133.252833 
z
" clip-path="url(#p510d63dfa9)" style="fill: #d62728; stroke: #000000; stroke-linejoin: miter"/>
   </g>
   <g id="patch_72">
    <path d="M 137.667909 132.33 
L 141.664091 132.33 
L 141.664091 132.483805 
L 137.667909 132.483805 
z
" clip-path="url(#p510d63dfa9)" style="fill: #d62728; stroke: #000000; stroke-linejoin: miter"/>
   </g>
   <g id="patch_73">
    <path d="M 141.664091 132.33 
L 145.660273 132.33 
L 145.660273 138.943636 
L 141.664091 138.943636 
z
" clip-path="url(#p510d63dfa9)" style="fill: #d62728; stroke: #000000; stroke-linejoin: miter"/>
   </g>
   <g id="patch_74">
    <path d="M 145.660273 132.33 
L 149.656455 132.33 
L 149.656455 148.018161 
L 145.660273 148.018161 
z
" clip-path="url(#p510d63dfa9)" style="fill: #d62728; stroke: #000000; stroke-linejoin: miter"/>
   </g>
   <g id="patch_75">
    <path d="M 149.656455 132.33 
L 153.652636 132.33 
L 153.652636 224.920909 
L 149.656455 224.920909 
z
" clip-path="url(#p510d63dfa9)" style="fill: #d62728; stroke: #000000; stroke-linejoin: miter"/>
   </g>
   <g id="patch_76">
    <path d="M 153.652636 132.33 
L 157.648818 132.33 
L 157.648818 150.940465 
L 153.652636 150.940465 
z
" clip-path="url(#p510d63dfa9)" style="fill: #d62728; stroke: #000000; stroke-linejoin: miter"/>
   </g>
   <g id="patch_77">
    <path d="M 157.648818 132.33 
L 161.645 132.33 
L 161.645 137.251776 
L 157.648818 137.251776 
z
" clip-path="url(#p510d63dfa9)" style="fill: #d62728; stroke: #000000; stroke-linejoin: miter"/>
   </g>
   <g id="patch_78">
    <path d="M 161.645 132.33 
L 165.641182 132.33 
L 165.641182 135.559915 
L 161.645 135.559915 
z
" clip-path="url(#p510d63dfa9)" style="fill: #d62728; stroke: #000000; stroke-linejoin: miter"/>
   </g>
   <g id="patch_79">
    <path d="M 165.641182 132.33 
L 169.637364 132.33 
L 169.637364 137.866998 
L 165.641182 137.866998 
z
" clip-path="url(#p510d63dfa9)" style="fill: #d62728; stroke: #000000; stroke-linejoin: miter"/>
   </g>
   <g id="patch_80">
    <path d="M 169.637364 132.33 
L 173.633545 132.33 
L 173.633545 136.944165 
L 169.637364 136.944165 
z
" clip-path="url(#p510d63dfa9)" style="fill: #d62728; stroke: #000000; stroke-linejoin: miter"/>
   </g>
   <g id="patch_81">
    <path d="M 173.633545 132.33 
L 177.629727 132.33 
L 177.629727 136.790359 
L 173.633545 136.790359 
z
" clip-path="url(#p510d63dfa9)" style="fill: #d62728; stroke: #000000; stroke-linejoin: miter"/>
   </g>
   <g id="patch_82">
    <path d="M 177.629727 132.33 
L 181.625909 132.33 
L 181.625909 134.175666 
L 177.629727 134.175666 
z
" clip-path="url(#p510d63dfa9)" style="fill: #d62728; stroke: #000000; stroke-linejoin: miter"/>
   </g>
   <g id="patch_83">
    <path d="M 181.625909 132.33 
L 185.622091 132.33 
L 185.622091 133.868055 
L 181.625909 133.868055 
z
" clip-path="url(#p510d63dfa9)" style="fill: #d62728; stroke: #000000; stroke-linejoin: miter"/>
   </g>
   <g id="patch_84">
    <path d="M 185.622091 132.33 
L 189.618273 132.33 
L 189.618273 134.483277 
L 185.622091 134.483277 
z
" clip-path="url(#p510d63dfa9)" style="fill: #d62728; stroke: #000000; stroke-linejoin: miter"/>
   </g>
   <g id="patch_85">
    <path d="M 189.618273 132.33 
L 193.614455 132.33 
L 193.614455 134.329471 
L 189.618273 134.329471 
z
" clip-path="url(#p510d63dfa9)" style="fill: #d62728; stroke: #000000; stroke-linejoin: miter"/>
   </g>
   <g id="patch_86">
    <path d="M 193.614455 132.33 
L 197.610636 132.33 
L 197.610636 133.099027 
L 193.614455 133.099027 
z
" clip-path="url(#p510d63dfa9)" style="fill: #d62728; stroke: #000000; stroke-linejoin: miter"/>
   </g>
   <g id="patch_87">
    <path d="M 197.610636 132.33 
L 201.606818 132.33 
L 201.606818 133.868055 
L 197.610636 133.868055 
z
" clip-path="url(#p510d63dfa9)" style="fill: #d62728; stroke: #000000; stroke-linejoin: miter"/>
   </g>
   <g id="patch_88">
    <path d="M 201.606818 132.33 
L 205.603 132.33 
L 205.603 134.790888 
L 201.606818 134.790888 
z
" clip-path="url(#p510d63dfa9)" style="fill: #d62728; stroke: #000000; stroke-linejoin: miter"/>
   </g>
   <g id="patch_89">
    <path d="M 205.603 132.33 
L 209.599182 132.33 
L 209.599182 133.714249 
L 205.603 133.714249 
z
" clip-path="url(#p510d63dfa9)" style="fill: #d62728; stroke: #000000; stroke-linejoin: miter"/>
   </g>
   <g id="patch_90">
    <path d="M 209.599182 132.33 
L 213.595364 132.33 
L 213.595364 132.945222 
L 209.599182 132.945222 
z
" clip-path="url(#p510d63dfa9)" style="fill: #d62728; stroke: #000000; stroke-linejoin: miter"/>
   </g>
   <g id="patch_91">
    <path d="M 213.595364 132.33 
L 217.591545 132.33 
L 217.591545 133.252833 
L 213.595364 133.252833 
z
" clip-path="url(#p510d63dfa9)" style="fill: #d62728; stroke: #000000; stroke-linejoin: miter"/>
   </g>
   <g id="patch_92">
    <path d="M 217.591545 132.33 
L 221.587727 132.33 
L 221.587727 133.406638 
L 217.591545 133.406638 
z
" clip-path="url(#p510d63dfa9)" style="fill: #d62728; stroke: #000000; stroke-linejoin: miter"/>
   </g>
   <g id="patch_93">
    <path d="M 221.587727 132.33 
L 225.583909 132.33 
L 225.583909 132.945222 
L 221.587727 132.945222 
z
" clip-path="url(#p510d63dfa9)" style="fill: #d62728; stroke: #000000; stroke-linejoin: miter"/>
   </g>
   <g id="patch_94">
    <path d="M 225.583909 132.33 
L 229.580091 132.33 
L 229.580091 132.791416 
L 225.583909 132.791416 
z
" clip-path="url(#p510d63dfa9)" style="fill: #d62728; stroke: #000000; stroke-linejoin: miter"/>
   </g>
   <g id="patch_95">
    <path d="M 229.580091 132.33 
L 233.576273 132.33 
L 233.576273 132.483805 
L 229.580091 132.483805 
z
" clip-path="url(#p510d63dfa9)" style="fill: #d62728; stroke: #000000; stroke-linejoin: miter"/>
   </g>
   <g id="patch_96">
    <path d="M 233.576273 132.33 
L 237.572455 132.33 
L 237.572455 133.406638 
L 233.576273 133.406638 
z
" clip-path="url(#p510d63dfa9)" style="fill: #d62728; stroke: #000000; stroke-linejoin: miter"/>
   </g>
   <g id="patch_97">
    <path d="M 237.572455 132.33 
L 241.568636 132.33 
L 241.568636 133.099027 
L 237.572455 133.099027 
z
" clip-path="url(#p510d63dfa9)" style="fill: #d62728; stroke: #000000; stroke-linejoin: miter"/>
   </g>
   <g id="patch_98">
    <path d="M 241.568636 132.33 
L 245.564818 132.33 
L 245.564818 132.637611 
L 241.568636 132.637611 
z
" clip-path="url(#p510d63dfa9)" style="fill: #d62728; stroke: #000000; stroke-linejoin: miter"/>
   </g>
   <g id="patch_99">
    <path d="M 245.564818 132.33 
L 249.561 132.33 
L 249.561 132.637611 
L 245.564818 132.637611 
z
" clip-path="url(#p510d63dfa9)" style="fill: #d62728; stroke: #000000; stroke-linejoin: miter"/>
   </g>
   <g id="patch_100">
    <path d="M 249.561 132.33 
L 253.557182 132.33 
L 253.557182 133.560444 
L 249.561 133.560444 
z
" clip-path="url(#p510d63dfa9)" style="fill: #d62728; stroke: #000000; stroke-linejoin: miter"/>
   </g>
   <g id="patch_101">
    <path d="M 253.557182 132.33 
L 257.553364 132.33 
L 257.553364 132.33 
L 253.557182 132.33 
z
" clip-path="url(#p510d63dfa9)" style="fill: #d62728; stroke: #000000; stroke-linejoin: miter"/>
   </g>
   <g id="patch_102">
    <path d="M 257.553364 132.33 
L 261.549545 132.33 
L 261.549545 133.560444 
L 257.553364 133.560444 
z
" clip-path="url(#p510d63dfa9)" style="fill: #d62728; stroke: #000000; stroke-linejoin: miter"/>
   </g>
   <g id="line2d_10">
    <path d="M 51.75 132.33 
L 271.54 132.33 
" clip-path="url(#p510d63dfa9)" style="fill: none; stroke: #808080; stroke-width: 0.8; stroke-linecap: round"/>
   </g>
   <g id="patch_103">
    <path d="M 51.75 234.18 
L 51.75 30.48 
" style="fill: none; stroke: #262626; stroke-width: 1.25; stroke-linejoin: miter; stroke-linecap: square"/>
   </g>
   <g id="patch_104">
    <path d="M 271.54 234.18 
L 271.54 30.48 
" style="fill: none; stroke: #262626; stroke-width: 1.25; stroke-linejoin: miter; stroke-linecap: square"/>
   </g>
   <g id="patch_105">
    <path d="M 51.75 234.18 
L 271.54 234.18 
" style="fill: none; stroke: #262626; stroke-width: 1.25; stroke-linejoin: miter; stroke-linecap: square"/>
   </g>
   <g id="patch_106">
    <path d="M 51.75 30.48 
L 271.54 30.48 
" style="fill: none; stroke: #262626; stroke-width: 1.25; stroke-linejoin: miter; stroke-linecap: square"/>
   </g>
   <g id="text_12">
    <text style="fill: #262626; font: 10px 'Arial', 'DejaVu Sans', 'Liberation Sans', 'Bitstream Vera Sans', sans-serif; text-anchor: middle" x="161.645" y="24.48" transform="rotate(-0 161.645 24.48)">p &lt; 0.001 (K-S)</text>
   </g>
   <g id="legend_1">
    <g id="patch_107">
     <path d="M 154.415594 48.738281 
L 176.415594 48.738281 
L 176.415594 41.038281 
L 154.415594 41.038281 
z
" style="fill: #1f77b4; stroke: #000000; stroke-linejoin: miter"/>
    </g>
    <g id="text_13">
     <text style="fill: #262626; font: 11px 'Arial', 'DejaVu Sans', 'Liberation Sans', 'Bitstream Vera Sans', sans-serif; text-anchor: start" x="185.215594" y="48.738281" transform="rotate(-0 185.215594 48.738281)">All TEs</text>
    </g>
    <g id="patch_108">
     <path d="M 154.415594 64.884219 
L 176.415594 64.884219 
L 176.415594 57.184219 
L 154.415594 57.184219 
z
" style="fill: #d62728; stroke: #000000; stroke-linejoin: miter"/>
    </g>
    <g id="text_14">
     <text style="fill: #262626; font: 11px 'Arial', 'DejaVu Sans', 'Liberation Sans', 'Bitstream Vera Sans', sans-serif; text-anchor: start" x="185.215594" y="64.884219" transform="rotate(-0 185.215594 64.884219)">TEs Near Genes</text>
    </g>
   </g>
  </g>
 </g>
 <defs>
  <clipPath id="p510d63dfa9">
   <rect x="51.75" y="30.48" width="219.79" height="203.7"/>
  </clipPath>
 </defs>
</svg>
