<?xml version="1.0" encoding="utf-8" standalone="no"?>
<!DOCTYPE svg PUBLIC "-//W3C//DTD SVG 1.1//EN"
  "http://www.w3.org/Graphics/SVG/1.1/DTD/svg11.dtd">
<svg xmlns:xlink="http://www.w3.org/1999/xlink" width="504pt" height="288pt" viewBox="0 0 504 288" xmlns="http://www.w3.org/2000/svg" version="1.1">
 <metadata>
  <rdf:RDF xmlns:dc="http://purl.org/dc/elements/1.1/" xmlns:cc="http://creativecommons.org/ns#" xmlns:rdf="http://www.w3.org/1999/02/22-rdf-syntax-ns#">
   <cc:Work>
    <dc:type rdf:resource="http://purl.org/dc/dcmitype/StillImage"/>
    <dc:date>2025-12-06T17:56:51.534585</dc:date>
    <dc:format>image/svg+xml</dc:format>
    <dc:creator>
     <cc:Agent>
      <dc:title>Matplotlib v3.8.4, https://matplotlib.org/</dc:title>
     </cc:Agent>
    </dc:creator>
   </cc:Work>
  </rdf:RDF>
 </metadata>
 <defs>
  <style type="text/css">*{stroke-linejoin: round; stroke-linecap: butt}</style>
 </defs>
 <g id="figure_1">
  <g id="patch_1">
   <path d="M 0 288 
L 504 288 
L 504 0 
L 0 0 
L 0 288 
z
" style="fill: none"/>
  </g>
  <g id="axes_1">
   <g id="patch_2">
    <path d="M 38.37125 245.93875 
L 266.35 245.93875 
L 266.35 24.72 
L 38.37125 24.72 
L 38.37125 245.93875 
z
" style="fill: none"/>
   </g>
   <g id="PathCollection_1">
    <defs>
     <path id="C0_0_c4f956e24b" d="M 0 3 
C 0.795609 3 1.55874 2.683901 2.12132 2.12132 
C 2.683901 1.55874 3 0.795609 3 -0 
C 3 -0.795609 2.683901 -1.55874 2.12132 -2.12132 
C 1.55874 -2.683901 0.795609 -3 0 -3 
C -0.795609 -3 -1.55874 -2.683901 -2.12132 -2.12132 
C -2.683901 -1.55874 -3 -0.795609 -3 0 
C -3 0.795609 -2.683901 1.55874 -2.12132 2.12132 
C -1.55874 2.683901 -0.795609 3 0 3 
z
"/>
    </defs>
    <g clip-path="url(#p1f92c4268e)">
     <use xlink:href="#C0_0_c4f956e24b" x="106.849013" y="190.412808" style="fill: #195f90; stroke: #ffffff; stroke-width: 0.48"/>
    </g>
    <g clip-path="url(#p1f92c4268e)">
     <use xlink:href="#C0_0_c4f956e24b" x="96.563792" y="198.120883" style="fill: #195f90; stroke: #ffffff; stroke-width: 0.48"/>
    </g>
    <g clip-path="url(#p1f92c4268e)">
     <use xlink:href="#C0_0_c4f956e24b" x="48.73392" y="235.883352" style="fill: #195f90; stroke: #ffffff; stroke-width: 0.48"/>
    </g>
    <g clip-path="url(#p1f92c4268e)">
     <use xlink:href="#C0_0_c4f956e24b" x="73.325003" y="213.14808" style="fill: #195f90; stroke: #ffffff; stroke-width: 0.48"/>
    </g>
    <g clip-path="url(#p1f92c4268e)">
     <use xlink:href="#C0_0_c4f956e24b" x="95.823516" y="190.412808" style="fill: #195f90; stroke: #ffffff; stroke-width: 0.48"/>
    </g>
    <g clip-path="url(#p1f92c4268e)">
     <use xlink:href="#C0_0_c4f956e24b" x="88.404276" y="195.130804" style="fill: #195f90; stroke: #ffffff; stroke-width: 0.48"/>
    </g>
    <g clip-path="url(#p1f92c4268e)">
     <use xlink:href="#C0_0_c4f956e24b" x="62.215415" y="217.866076" style="fill: #195f90; stroke: #ffffff; stroke-width: 0.48"/>
    </g>
    <g clip-path="url(#p1f92c4268e)">
     <use xlink:href="#C0_0_c4f956e24b" x="106.941867" y="178.540516" style="fill: #195f90; stroke: #ffffff; stroke-width: 0.48"/>
    </g>
    <g clip-path="url(#p1f92c4268e)">
     <use xlink:href="#C0_0_c4f956e24b" x="101.682398" y="183.093685" style="fill: #195f90; stroke: #ffffff; stroke-width: 0.48"/>
    </g>
    <g clip-path="url(#p1f92c4268e)">
     <use xlink:href="#C0_0_c4f956e24b" x="227.932042" y="72.332495" style="fill: #70453c; stroke: #ffffff; stroke-width: 0.48"/>
    </g>
    <g clip-path="url(#p1f92c4268e)">
     <use xlink:href="#C0_0_c4f956e24b" x="212.871839" y="84.917329" style="fill: #70453c; stroke: #ffffff; stroke-width: 0.48"/>
    </g>
    <g clip-path="url(#p1f92c4268e)">
     <use xlink:href="#C0_0_c4f956e24b" x="138.273718" y="150.269349" style="fill: #195f90; stroke: #ffffff; stroke-width: 0.48"/>
    </g>
    <g clip-path="url(#p1f92c4268e)">
     <use xlink:href="#C0_0_c4f956e24b" x="88.528596" y="193.818101" style="fill: #cc660b; stroke: #ffffff; stroke-width: 0.48"/>
    </g>
    <g clip-path="url(#p1f92c4268e)">
     <use xlink:href="#C0_0_c4f956e24b" x="140.734099" y="148.035166" style="fill: #195f90; stroke: #ffffff; stroke-width: 0.48"/>
    </g>
    <g clip-path="url(#p1f92c4268e)">
     <use xlink:href="#C0_0_c4f956e24b" x="178.403196" y="114.663905" style="fill: #70453c; stroke: #ffffff; stroke-width: 0.48"/>
    </g>
    <g clip-path="url(#p1f92c4268e)">
     <use xlink:href="#C0_0_c4f956e24b" x="60.633338" y="217.866076" style="fill: #195f90; stroke: #ffffff; stroke-width: 0.48"/>
    </g>
    <g clip-path="url(#p1f92c4268e)">
     <use xlink:href="#C0_0_c4f956e24b" x="144.690251" y="143.768126" style="fill: #195f90; stroke: #ffffff; stroke-width: 0.48"/>
    </g>
    <g clip-path="url(#p1f92c4268e)">
     <use xlink:href="#C0_0_c4f956e24b" x="135.600958" y="151.369205" style="fill: #238023; stroke: #ffffff; stroke-width: 0.48"/>
    </g>
    <g clip-path="url(#p1f92c4268e)">
     <use xlink:href="#C0_0_c4f956e24b" x="175.3217" y="115.804782" style="fill: #195f90; stroke: #ffffff; stroke-width: 0.48"/>
    </g>
    <g clip-path="url(#p1f92c4268e)">
     <use xlink:href="#C0_0_c4f956e24b" x="211.164855" y="82.278244" style="fill: #195f90; stroke: #ffffff; stroke-width: 0.48"/>
    </g>
    <g clip-path="url(#p1f92c4268e)">
     <use xlink:href="#C0_0_c4f956e24b" x="160.087308" y="126.776185" style="fill: #195f90; stroke: #ffffff; stroke-width: 0.48"/>
    </g>
    <g clip-path="url(#p1f92c4268e)">
     <use xlink:href="#C0_0_c4f956e24b" x="175.969296" y="111.368304" style="fill: #195f90; stroke: #ffffff; stroke-width: 0.48"/>
    </g>
    <g clip-path="url(#p1f92c4268e)">
     <use xlink:href="#C0_0_c4f956e24b" x="109.166172" y="169.867455" style="fill: #ab1f20; stroke: #ffffff; stroke-width: 0.48"/>
    </g>
    <g clip-path="url(#p1f92c4268e)">
     <use xlink:href="#C0_0_c4f956e24b" x="150.544125" y="133.101062" style="fill: #ab1f20; stroke: #ffffff; stroke-width: 0.48"/>
    </g>
    <g clip-path="url(#p1f92c4268e)">
     <use xlink:href="#C0_0_c4f956e24b" x="212.9379" y="77.645022" style="fill: #70453c; stroke: #ffffff; stroke-width: 0.48"/>
    </g>
    <g clip-path="url(#p1f92c4268e)">
     <use xlink:href="#C0_0_c4f956e24b" x="199.621509" y="89.271788" style="fill: #195f90; stroke: #ffffff; stroke-width: 0.48"/>
    </g>
    <g clip-path="url(#p1f92c4268e)">
     <use xlink:href="#C0_0_c4f956e24b" x="225.817011" y="65.979634" style="fill: #195f90; stroke: #ffffff; stroke-width: 0.48"/>
    </g>
    <g clip-path="url(#p1f92c4268e)">
     <use xlink:href="#C0_0_c4f956e24b" x="86.0125" y="188.481163" style="fill: #cc660b; stroke: #ffffff; stroke-width: 0.48"/>
    </g>
    <g clip-path="url(#p1f92c4268e)">
     <use xlink:href="#C0_0_c4f956e24b" x="111.04266" y="166.44387" style="fill: #cc660b; stroke: #ffffff; stroke-width: 0.48"/>
    </g>
    <g clip-path="url(#p1f92c4268e)">
     <use xlink:href="#C0_0_c4f956e24b" x="132.833212" y="146.276335" style="fill: #ab1f20; stroke: #ffffff; stroke-width: 0.48"/>
    </g>
    <g clip-path="url(#p1f92c4268e)">
     <use xlink:href="#C0_0_c4f956e24b" x="242.477467" y="49.935288" style="fill: #cc660b; stroke: #ffffff; stroke-width: 0.48"/>
    </g>
    <g clip-path="url(#p1f92c4268e)">
     <use xlink:href="#C0_0_c4f956e24b" x="148.33814" y="132.430335" style="fill: #195f90; stroke: #ffffff; stroke-width: 0.48"/>
    </g>
    <g clip-path="url(#p1f92c4268e)">
     <use xlink:href="#C0_0_c4f956e24b" x="168.40382" y="114.785688" style="fill: #cc660b; stroke: #ffffff; stroke-width: 0.48"/>
    </g>
    <g clip-path="url(#p1f92c4268e)">
     <use xlink:href="#C0_0_c4f956e24b" x="137.045356" y="141.856371" style="fill: #ab1f20; stroke: #ffffff; stroke-width: 0.48"/>
    </g>
    <g clip-path="url(#p1f92c4268e)">
     <use xlink:href="#C0_0_c4f956e24b" x="119.226851" y="157.368334" style="fill: #cc660b; stroke: #ffffff; stroke-width: 0.48"/>
    </g>
    <g clip-path="url(#p1f92c4268e)">
     <use xlink:href="#C0_0_c4f956e24b" x="162.499627" y="119.094584" style="fill: #70453c; stroke: #ffffff; stroke-width: 0.48"/>
    </g>
    <g clip-path="url(#p1f92c4268e)">
     <use xlink:href="#C0_0_c4f956e24b" x="154.127991" y="126.051776" style="fill: #cc660b; stroke: #ffffff; stroke-width: 0.48"/>
    </g>
    <g clip-path="url(#p1f92c4268e)">
     <use xlink:href="#C0_0_c4f956e24b" x="241.411684" y="48.852034" style="fill: #ab1f20; stroke: #ffffff; stroke-width: 0.48"/>
    </g>
    <g clip-path="url(#p1f92c4268e)">
     <use xlink:href="#C0_0_c4f956e24b" x="135.399664" y="141.028434" style="fill: #195f90; stroke: #ffffff; stroke-width: 0.48"/>
    </g>
    <g clip-path="url(#p1f92c4268e)">
     <use xlink:href="#C0_0_c4f956e24b" x="196.789513" y="86.939267" style="fill: #cc660b; stroke: #ffffff; stroke-width: 0.48"/>
    </g>
    <g clip-path="url(#p1f92c4268e)">
     <use xlink:href="#C0_0_c4f956e24b" x="255.98733" y="34.775398" style="fill: #ab1f20; stroke: #ffffff; stroke-width: 0.48"/>
    </g>
    <g clip-path="url(#p1f92c4268e)">
     <use xlink:href="#C0_0_c4f956e24b" x="158.259095" y="120.021078" style="fill: #765297; stroke: #ffffff; stroke-width: 0.48"/>
    </g>
    <g clip-path="url(#p1f92c4268e)">
     <use xlink:href="#C0_0_c4f956e24b" x="117.252876" y="155.805244" style="fill: #195f90; stroke: #ffffff; stroke-width: 0.48"/>
    </g>
    <g clip-path="url(#p1f92c4268e)">
     <use xlink:href="#C0_0_c4f956e24b" x="234.701779" y="51.894298" style="fill: #cc660b; stroke: #ffffff; stroke-width: 0.48"/>
    </g>
   </g>
   <g id="matplotlib.axis_1">
    <g id="xtick_1">
     <g id="line2d_1">
      <defs>
       <path id="m7b539ec57f" d="M 0 0 
L 0 3.5 
" style="stroke: #000000; stroke-width: 0.8"/>
      </defs>
      <g>
       <use xlink:href="#m7b539ec57f" x="80.817981" y="245.93875" style="stroke: #000000; stroke-width: 0.8"/>
      </g>
     </g>
     <g id="text_1">
      <text style="font: 10px 'DejaVu Sans', 'Bitstream Vera Sans', 'Computer Modern Sans Serif', 'Lucida Grande', 'Verdana', 'Geneva', 'Lucid', 'Arial', 'Helvetica', 'Avant Garde', sans-serif; text-anchor: middle" x="80.817981" y="260.537188" transform="rotate(-0 80.817981 260.537188)">2</text>
     </g>
    </g>
    <g id="xtick_2">
     <g id="line2d_2">
      <g>
       <use xlink:href="#m7b539ec57f" x="123.899592" y="245.93875" style="stroke: #000000; stroke-width: 0.8"/>
      </g>
     </g>
     <g id="text_2">
      <text style="font: 10px 'DejaVu Sans', 'Bitstream Vera Sans', 'Computer Modern Sans Serif', 'Lucida Grande', 'Verdana', 'Geneva', 'Lucid', 'Arial', 'Helvetica', 'Avant Garde', sans-serif; text-anchor: middle" x="123.899592" y="260.537188" transform="rotate(-0 123.899592 260.537188)">3</text>
     </g>
    </g>
    <g id="xtick_3">
     <g id="line2d_3">
      <g>
       <use xlink:href="#m7b539ec57f" x="166.981203" y="245.93875" style="stroke: #000000; stroke-width: 0.8"/>
      </g>
     </g>
     <g id="text_3">
      <text style="font: 10px 'DejaVu Sans', 'Bitstream Vera Sans', 'Computer Modern Sans Serif', 'Lucida Grande', 'Verdana', 'Geneva', 'Lucid', 'Arial', 'Helvetica', 'Avant Garde', sans-serif; text-anchor: middle" x="166.981203" y="260.537188" transform="rotate(-0 166.981203 260.537188)">4</text>
     </g>
    </g>
    <g id="xtick_4">
     <g id="line2d_4">
      <g>
       <use xlink:href="#m7b539ec57f" x="210.062815" y="245.93875" style="stroke: #000000; stroke-width: 0.8"/>
      </g>
     </g>
     <g id="text_4">
      <text style="font: 10px 'DejaVu Sans', 'Bitstream Vera Sans', 'Computer Modern Sans Serif', 'Lucida Grande', 'Verdana', 'Geneva', 'Lucid', 'Arial', 'Helvetica', 'Avant Garde', sans-serif; text-anchor: middle" x="210.062815" y="260.537188" transform="rotate(-0 210.062815 260.537188)">5</text>
     </g>
    </g>
    <g id="xtick_5">
     <g id="line2d_5">
      <g>
       <use xlink:href="#m7b539ec57f" x="253.144426" y="245.93875" style="stroke: #000000; stroke-width: 0.8"/>
      </g>
     </g>
     <g id="text_5">
      <text style="font: 10px 'DejaVu Sans', 'Bitstream Vera Sans', 'Computer Modern Sans Serif', 'Lucida Grande', 'Verdana', 'Geneva', 'Lucid', 'Arial', 'Helvetica', 'Avant Garde', sans-serif; text-anchor: middle" x="253.144426" y="260.537188" transform="rotate(-0 253.144426 260.537188)">6</text>
     </g>
    </g>
    <g id="text_6">
     <text style="font: 10px 'DejaVu Sans', 'Bitstream Vera Sans', 'Computer Modern Sans Serif', 'Lucida Grande', 'Verdana', 'Geneva', 'Lucid', 'Arial', 'Helvetica', 'Avant Garde', sans-serif; text-anchor: middle" x="152.360625" y="274.215312" transform="rotate(-0 152.360625 274.215312)">Total_TEs_number_log</text>
    </g>
   </g>
   <g id="matplotlib.axis_2">
    <g id="ytick_1">
     <g id="line2d_6">
      <defs>
       <path id="m6362f26aa9" d="M 0 0 
L -3.5 0 
" style="stroke: #000000; stroke-width: 0.8"/>
      </defs>
      <g>
       <use xlink:href="#m6362f26aa9" x="38.37125" y="235.883352" style="stroke: #000000; stroke-width: 0.8"/>
      </g>
     </g>
     <g id="text_7">
      <text style="font: 10px 'DejaVu Sans', 'Bitstream Vera Sans', 'Computer Modern Sans Serif', 'Lucida Grande', 'Verdana', 'Geneva', 'Lucid', 'Arial', 'Helvetica', 'Avant Garde', sans-serif; text-anchor: end" x="31.37125" y="239.682571" transform="rotate(-0 31.37125 239.682571)">0</text>
     </g>
    </g>
    <g id="ytick_2">
     <g id="line2d_7">
      <g>
       <use xlink:href="#m6362f26aa9" x="38.37125" y="198.120883" style="stroke: #000000; stroke-width: 0.8"/>
      </g>
     </g>
     <g id="text_8">
      <text style="font: 10px 'DejaVu Sans', 'Bitstream Vera Sans', 'Computer Modern Sans Serif', 'Lucida Grande', 'Verdana', 'Geneva', 'Lucid', 'Arial', 'Helvetica', 'Avant Garde', sans-serif; text-anchor: end" x="31.37125" y="201.920102" transform="rotate(-0 31.37125 201.920102)">1</text>
     </g>
    </g>
    <g id="ytick_3">
     <g id="line2d_8">
      <g>
       <use xlink:href="#m6362f26aa9" x="38.37125" y="160.358414" style="stroke: #000000; stroke-width: 0.8"/>
      </g>
     </g>
     <g id="text_9">
      <text style="font: 10px 'DejaVu Sans', 'Bitstream Vera Sans', 'Computer Modern Sans Serif', 'Lucida Grande', 'Verdana', 'Geneva', 'Lucid', 'Arial', 'Helvetica', 'Avant Garde', sans-serif; text-anchor: end" x="31.37125" y="164.157632" transform="rotate(-0 31.37125 164.157632)">2</text>
     </g>
    </g>
    <g id="ytick_4">
     <g id="line2d_9">
      <g>
       <use xlink:href="#m6362f26aa9" x="38.37125" y="122.595944" style="stroke: #000000; stroke-width: 0.8"/>
      </g>
     </g>
     <g id="text_10">
      <text style="font: 10px 'DejaVu Sans', 'Bitstream Vera Sans', 'Computer Modern Sans Serif', 'Lucida Grande', 'Verdana', 'Geneva', 'Lucid', 'Arial', 'Helvetica', 'Avant Garde', sans-serif; text-anchor: end" x="31.37125" y="126.395163" transform="rotate(-0 31.37125 126.395163)">3</text>
     </g>
    </g>
    <g id="ytick_5">
     <g id="line2d_10">
      <g>
       <use xlink:href="#m6362f26aa9" x="38.37125" y="84.833475" style="stroke: #000000; stroke-width: 0.8"/>
      </g>
     </g>
     <g id="text_11">
      <text style="font: 10px 'DejaVu Sans', 'Bitstream Vera Sans', 'Computer Modern Sans Serif', 'Lucida Grande', 'Verdana', 'Geneva', 'Lucid', 'Arial', 'Helvetica', 'Avant Garde', sans-serif; text-anchor: end" x="31.37125" y="88.632693" transform="rotate(-0 31.37125 88.632693)">4</text>
     </g>
    </g>
    <g id="ytick_6">
     <g id="line2d_11">
      <g>
       <use xlink:href="#m6362f26aa9" x="38.37125" y="47.071005" style="stroke: #000000; stroke-width: 0.8"/>
      </g>
     </g>
     <g id="text_12">
      <text style="font: 10px 'DejaVu Sans', 'Bitstream Vera Sans', 'Computer Modern Sans Serif', 'Lucida Grande', 'Verdana', 'Geneva', 'Lucid', 'Arial', 'Helvetica', 'Avant Garde', sans-serif; text-anchor: end" x="31.37125" y="50.870224" transform="rotate(-0 31.37125 50.870224)">5</text>
     </g>
    </g>
    <g id="text_13">
     <text style="font: 10px 'DejaVu Sans', 'Bitstream Vera Sans', 'Computer Modern Sans Serif', 'Lucida Grande', 'Verdana', 'Geneva', 'Lucid', 'Arial', 'Helvetica', 'Avant Garde', sans-serif; text-anchor: middle" x="18.650938" y="135.329375" transform="rotate(-90 18.650938 135.329375)">Observed_TEs_number_log</text>
    </g>
   </g>
   <g id="line2d_12"/>
   <g id="line2d_13"/>
   <g id="line2d_14"/>
   <g id="line2d_15"/>
   <g id="line2d_16"/>
   <g id="line2d_17"/>
   <g id="line2d_18">
    <path d="M 48.73392 230.668168 
L 50.827389 228.703912 
L 52.920858 226.739657 
L 55.014327 224.775402 
L 57.107796 222.811147 
L 59.201264 220.846891 
L 61.294733 218.882636 
L 63.388202 216.918381 
L 65.481671 214.954126 
L 67.575139 212.989871 
L 69.668608 211.025615 
L 71.762077 209.06136 
L 73.855546 207.097105 
L 75.949015 205.13285 
L 78.042483 203.168594 
L 80.135952 201.204339 
L 82.229421 199.240084 
L 84.32289 197.275829 
L 86.416358 195.311574 
L 88.509827 193.347318 
L 90.603296 191.383063 
L 92.696765 189.418808 
L 94.790234 187.454553 
L 96.883702 185.490297 
L 98.977171 183.526042 
L 101.07064 181.561787 
L 103.164109 179.597532 
L 105.257577 177.633276 
L 107.351046 175.669021 
L 109.444515 173.704766 
L 111.537984 171.740511 
L 113.631453 169.776256 
L 115.724921 167.812 
L 117.81839 165.847745 
L 119.911859 163.88349 
L 122.005328 161.919235 
L 124.098796 159.954979 
L 126.192265 157.990724 
L 128.285734 156.026469 
L 130.379203 154.062214 
L 132.472672 152.097959 
L 134.56614 150.133703 
L 136.659609 148.169448 
L 138.753078 146.205193 
L 140.846547 144.240938 
L 142.940015 142.276682 
L 145.033484 140.312427 
L 147.126953 138.348172 
L 149.220422 136.383917 
L 151.313891 134.419661 
L 153.407359 132.455406 
L 155.500828 130.491151 
L 157.594297 128.526896 
L 159.687766 126.562641 
L 161.781235 124.598385 
L 163.874703 122.63413 
L 165.968172 120.669875 
L 168.061641 118.70562 
L 170.15511 116.741364 
L 172.248578 114.777109 
L 174.342047 112.812854 
L 176.435516 110.848599 
L 178.528985 108.884344 
L 180.622454 106.920088 
L 182.715922 104.955833 
L 184.809391 102.991578 
L 186.90286 101.027323 
L 188.996329 99.063067 
L 191.089797 97.098812 
L 193.183266 95.134557 
L 195.276735 93.170302 
L 197.370204 91.206046 
L 199.463673 89.241791 
L 201.557141 87.277536 
L 203.65061 85.313281 
L 205.744079 83.349026 
L 207.837548 81.38477 
L 209.931016 79.420515 
L 212.024485 77.45626 
L 214.117954 75.492005 
L 216.211423 73.527749 
L 218.304892 71.563494 
L 220.39836 69.599239 
L 222.491829 67.634984 
L 224.585298 65.670729 
L 226.678767 63.706473 
L 228.772235 61.742218 
L 230.865704 59.777963 
L 232.959173 57.813708 
L 235.052642 55.849452 
L 237.146111 53.885197 
L 239.239579 51.920942 
L 241.333048 49.956687 
L 243.426517 47.992431 
L 245.519986 46.028176 
L 247.613454 44.063921 
L 249.706923 42.099666 
L 251.800392 40.135411 
L 253.893861 38.171155 
L 255.98733 36.2069 
" clip-path="url(#p1f92c4268e)" style="fill: none; stroke: #000000; stroke-width: 1.5; stroke-linecap: square"/>
   </g>
   <g id="patch_3">
    <path d="M 38.37125 245.93875 
L 38.37125 24.72 
" style="fill: none; stroke: #000000; stroke-width: 0.8; stroke-linejoin: miter; stroke-linecap: square"/>
   </g>
   <g id="patch_4">
    <path d="M 266.35 245.93875 
L 266.35 24.72 
" style="fill: none; stroke: #000000; stroke-width: 0.8; stroke-linejoin: miter; stroke-linecap: square"/>
   </g>
   <g id="patch_5">
    <path d="M 38.37125 245.93875 
L 266.35 245.93875 
" style="fill: none; stroke: #000000; stroke-width: 0.8; stroke-linejoin: miter; stroke-linecap: square"/>
   </g>
   <g id="patch_6">
    <path d="M 38.37125 24.72 
L 266.35 24.72 
" style="fill: none; stroke: #000000; stroke-width: 0.8; stroke-linejoin: miter; stroke-linecap: square"/>
   </g>
   <g id="text_14">
    <g id="patch_7">
     <path d="M 49.770188 59.069281 
L 126.012844 59.069281 
Q 130.512844 59.069281 130.512844 54.569281 
L 130.512844 35.780937 
Q 130.512844 31.280937 126.012844 31.280937 
L 49.770188 31.280937 
Q 45.270188 31.280937 45.270188 35.780937 
L 45.270188 54.569281 
Q 45.270188 59.069281 49.770188 59.069281 
z
" style="fill: #ffffff; opacity: 0.8; stroke: #000000; stroke-linejoin: miter"/>
    </g>
    <text style="font: 9px 'DejaVu Sans', 'Bitstream Vera Sans', 'Computer Modern Sans Serif', 'Lucida Grande', 'Verdana', 'Geneva', 'Lucid', 'Arial', 'Helvetica', 'Avant Garde', sans-serif" transform="translate(49.770188 42.619531)">Pearson R: 0.994</text>
    <text style="font: 9px 'DejaVu Sans', 'Bitstream Vera Sans', 'Computer Modern Sans Serif', 'Lucida Grande', 'Verdana', 'Geneva', 'Lucid', 'Arial', 'Helvetica', 'Avant Garde', sans-serif" transform="translate(49.770188 52.697563)">p &lt; 0.001</text>
   </g>
   <g id="text_15">
    <text style="font: 10px 'DejaVu Sans', 'Bitstream Vera Sans', 'Computer Modern Sans Serif', 'Lucida Grande', 'Verdana', 'Geneva', 'Lucid', 'Arial', 'Helvetica', 'Avant Garde', sans-serif; text-anchor: middle" x="152.360625" y="18.72" transform="rotate(-0 152.360625 18.72)">Observed_TEs_number_log vs Total_TEs_number_log</text>
   </g>
   <g id="legend_1">
    <g id="patch_8">
     <path d="M 273.35 188.202812 
L 415.540625 188.202812 
Q 417.540625 188.202812 417.540625 186.202812 
L 417.540625 84.455938 
Q 417.540625 82.455938 415.540625 82.455938 
L 273.35 82.455938 
Q 271.35 82.455938 271.35 84.455938 
L 271.35 186.202812 
Q 271.35 188.202812 273.35 188.202812 
z
" style="fill: #ffffff; opacity: 0.8; stroke: #cccccc; stroke-linejoin: miter"/>
    </g>
    <g id="line2d_19">
     <defs>
      <path id="m79bc245884" d="M 0 3 
C 0.795609 3 1.55874 2.683901 2.12132 2.12132 
C 2.683901 1.55874 3 0.795609 3 0 
C 3 -0.795609 2.683901 -1.55874 2.12132 -2.12132 
C 1.55874 -2.683901 0.795609 -3 0 -3 
C -0.795609 -3 -1.55874 -2.683901 -2.12132 -2.12132 
C -2.683901 -1.55874 -3 -0.795609 -3 0 
C -3 0.795609 -2.683901 1.55874 -2.12132 2.12132 
C -1.55874 2.683901 -0.795609 3 0 3 
z
" style="stroke: #ffffff; stroke-width: 0.48"/>
     </defs>
     <g>
      <use xlink:href="#m79bc245884" x="285.35" y="90.554375" style="fill: #195f90; stroke: #ffffff; stroke-width: 0.48"/>
     </g>
    </g>
    <g id="text_16">
     <text style="font: 10px 'DejaVu Sans', 'Bitstream Vera Sans', 'Computer Modern Sans Serif', 'Lucida Grande', 'Verdana', 'Geneva', 'Lucid', 'Arial', 'Helvetica', 'Avant Garde', sans-serif; text-anchor: start" x="303.35" y="94.054375" transform="rotate(-0 303.35 94.054375)">DNA</text>
    </g>
    <g id="line2d_20">
     <defs>
      <path id="mbbacced110" d="M 0 3 
C 0.795609 3 1.55874 2.683901 2.12132 2.12132 
C 2.683901 1.55874 3 0.795609 3 0 
C 3 -0.795609 2.683901 -1.55874 2.12132 -2.12132 
C 1.55874 -2.683901 0.795609 -3 0 -3 
C -0.795609 -3 -1.55874 -2.683901 -2.12132 -2.12132 
C -2.683901 -1.55874 -3 -0.795609 -3 0 
C -3 0.795609 -2.683901 1.55874 -2.12132 2.12132 
C -1.55874 2.683901 -0.795609 3 0 3 
z
" style="stroke: #ffffff; stroke-width: 0.48"/>
     </defs>
     <g>
      <use xlink:href="#mbbacced110" x="285.35" y="105.2325" style="fill: #70453c; stroke: #ffffff; stroke-width: 0.48"/>
     </g>
    </g>
    <g id="text_17">
     <text style="font: 10px 'DejaVu Sans', 'Bitstream Vera Sans', 'Computer Modern Sans Serif', 'Lucida Grande', 'Verdana', 'Geneva', 'Lucid', 'Arial', 'Helvetica', 'Avant Garde', sans-serif; text-anchor: start" x="303.35" y="108.7325" transform="rotate(-0 303.35 108.7325)">LTR</text>
    </g>
    <g id="line2d_21">
     <defs>
      <path id="me64bbbed4f" d="M 0 3 
C 0.795609 3 1.55874 2.683901 2.12132 2.12132 
C 2.683901 1.55874 3 0.795609 3 0 
C 3 -0.795609 2.683901 -1.55874 2.12132 -2.12132 
C 1.55874 -2.683901 0.795609 -3 0 -3 
C -0.795609 -3 -1.55874 -2.683901 -2.12132 -2.12132 
C -2.683901 -1.55874 -3 -0.795609 -3 0 
C -3 0.795609 -2.683901 1.55874 -2.12132 2.12132 
C -1.55874 2.683901 -0.795609 3 0 3 
z
" style="stroke: #ffffff; stroke-width: 0.48"/>
     </defs>
     <g>
      <use xlink:href="#me64bbbed4f" x="285.35" y="119.910625" style="fill: #cc660b; stroke: #ffffff; stroke-width: 0.48"/>
     </g>
    </g>
    <g id="text_18">
     <text style="font: 10px 'DejaVu Sans', 'Bitstream Vera Sans', 'Computer Modern Sans Serif', 'Lucida Grande', 'Verdana', 'Geneva', 'Lucid', 'Arial', 'Helvetica', 'Avant Garde', sans-serif; text-anchor: start" x="303.35" y="123.410625" transform="rotate(-0 303.35 123.410625)">LINE</text>
    </g>
    <g id="line2d_22">
     <defs>
      <path id="mfab28d00e2" d="M 0 3 
C 0.795609 3 1.55874 2.683901 2.12132 2.12132 
C 2.683901 1.55874 3 0.795609 3 0 
C 3 -0.795609 2.683901 -1.55874 2.12132 -2.12132 
C 1.55874 -2.683901 0.795609 -3 0 -3 
C -0.795609 -3 -1.55874 -2.683901 -2.12132 -2.12132 
C -2.683901 -1.55874 -3 -0.795609 -3 0 
C -3 0.795609 -2.683901 1.55874 -2.12132 2.12132 
C -1.55874 2.683901 -0.795609 3 0 3 
z
" style="stroke: #ffffff; stroke-width: 0.48"/>
     </defs>
     <g>
      <use xlink:href="#mfab28d00e2" x="285.35" y="134.58875" style="fill: #238023; stroke: #ffffff; stroke-width: 0.48"/>
     </g>
    </g>
    <g id="text_19">
     <text style="font: 10px 'DejaVu Sans', 'Bitstream Vera Sans', 'Computer Modern Sans Serif', 'Lucida Grande', 'Verdana', 'Geneva', 'Lucid', 'Arial', 'Helvetica', 'Avant Garde', sans-serif; text-anchor: start" x="303.35" y="138.08875" transform="rotate(-0 303.35 138.08875)">RC</text>
    </g>
    <g id="line2d_23">
     <defs>
      <path id="m2573398f7c" d="M 0 3 
C 0.795609 3 1.55874 2.683901 2.12132 2.12132 
C 2.683901 1.55874 3 0.795609 3 0 
C 3 -0.795609 2.683901 -1.55874 2.12132 -2.12132 
C 1.55874 -2.683901 0.795609 -3 0 -3 
C -0.795609 -3 -1.55874 -2.683901 -2.12132 -2.12132 
C -2.683901 -1.55874 -3 -0.795609 -3 0 
C -3 0.795609 -2.683901 1.55874 -2.12132 2.12132 
C -1.55874 2.683901 -0.795609 3 0 3 
z
" style="stroke: #ffffff; stroke-width: 0.48"/>
     </defs>
     <g>
      <use xlink:href="#m2573398f7c" x="285.35" y="149.266875" style="fill: #ab1f20; stroke: #ffffff; stroke-width: 0.48"/>
     </g>
    </g>
    <g id="text_20">
     <text style="font: 10px 'DejaVu Sans', 'Bitstream Vera Sans', 'Computer Modern Sans Serif', 'Lucida Grande', 'Verdana', 'Geneva', 'Lucid', 'Arial', 'Helvetica', 'Avant Garde', sans-serif; text-anchor: start" x="303.35" y="152.766875" transform="rotate(-0 303.35 152.766875)">SINE</text>
    </g>
    <g id="line2d_24">
     <defs>
      <path id="mf02df03b1d" d="M 0 3 
C 0.795609 3 1.55874 2.683901 2.12132 2.12132 
C 2.683901 1.55874 3 0.795609 3 0 
C 3 -0.795609 2.683901 -1.55874 2.12132 -2.12132 
C 1.55874 -2.683901 0.795609 -3 0 -3 
C -0.795609 -3 -1.55874 -2.683901 -2.12132 -2.12132 
C -2.683901 -1.55874 -3 -0.795609 -3 0 
C -3 0.795609 -2.683901 1.55874 -2.12132 2.12132 
C -1.55874 2.683901 -0.795609 3 0 3 
z
" style="stroke: #ffffff; stroke-width: 0.48"/>
     </defs>
     <g>
      <use xlink:href="#mf02df03b1d" x="285.35" y="163.945" style="fill: #765297; stroke: #ffffff; stroke-width: 0.48"/>
     </g>
    </g>
    <g id="text_21">
     <text style="font: 10px 'DejaVu Sans', 'Bitstream Vera Sans', 'Computer Modern Sans Serif', 'Lucida Grande', 'Verdana', 'Geneva', 'Lucid', 'Arial', 'Helvetica', 'Avant Garde', sans-serif; text-anchor: start" x="303.35" y="167.445" transform="rotate(-0 303.35 167.445)">Retroposon</text>
    </g>
    <g id="line2d_25">
     <path d="M 275.35 178.623125 
L 285.35 178.623125 
L 295.35 178.623125 
" style="fill: none; stroke: #000000; stroke-width: 1.5; stroke-linecap: square"/>
    </g>
    <g id="text_22">
     <text style="font: 10px 'DejaVu Sans', 'Bitstream Vera Sans', 'Computer Modern Sans Serif', 'Lucida Grande', 'Verdana', 'Geneva', 'Lucid', 'Arial', 'Helvetica', 'Avant Garde', sans-serif; text-anchor: start" x="303.35" y="182.123125" transform="rotate(-0 303.35 182.123125)">Linear Trend (R=0.99)</text>
    </g>
   </g>
  </g>
 </g>
 <defs>
  <clipPath id="p1f92c4268e">
   <rect x="38.37125" y="24.72" width="227.97875" height="221.21875"/>
  </clipPath>
 </defs>
</svg>
