<?xml version="1.0" encoding="utf-8" standalone="no"?>
<!DOCTYPE svg PUBLIC "-//W3C//DTD SVG 1.1//EN"
  "http://www.w3.org/Graphics/SVG/1.1/DTD/svg11.dtd">
<svg xmlns:xlink="http://www.w3.org/1999/xlink" width="504pt" height="288pt" viewBox="0 0 504 288" xmlns="http://www.w3.org/2000/svg" version="1.1">
 <metadata>
  <rdf:RDF xmlns:dc="http://purl.org/dc/elements/1.1/" xmlns:cc="http://creativecommons.org/ns#" xmlns:rdf="http://www.w3.org/1999/02/22-rdf-syntax-ns#">
   <cc:Work>
    <dc:type rdf:resource="http://purl.org/dc/dcmitype/StillImage"/>
    <dc:date>2025-12-06T17:56:35.971300</dc:date>
    <dc:format>image/svg+xml</dc:format>
    <dc:creator>
     <cc:Agent>
      <dc:title>Matplotlib v3.8.4, https://matplotlib.org/</dc:title>
     </cc:Agent>
    </dc:creator>
   </cc:Work>
  </rdf:RDF>
 </metadata>
 <defs>
  <style type="text/css">*{stroke-linejoin: round; stroke-linecap: butt}</style>
 </defs>
 <g id="figure_1">
  <g id="patch_1">
   <path d="M 0 288 
L 504 288 
L 504 0 
L 0 0 
L 0 288 
z
" style="fill: none"/>
  </g>
  <g id="axes_1">
   <g id="patch_2">
    <path d="M 69.87125 245.93875 
L 266.35 245.93875 
L 266.35 24.72 
L 69.87125 24.72 
L 69.87125 245.93875 
z
" style="fill: none"/>
   </g>
   <g id="PathCollection_1">
    <defs>
     <path id="C0_0_70aea4f1e0" d="M 0 3 
C 0.795609 3 1.55874 2.683901 2.12132 2.12132 
C 2.683901 1.55874 3 0.795609 3 -0 
C 3 -0.795609 2.683901 -1.55874 2.12132 -2.12132 
C 1.55874 -2.683901 0.795609 -3 0 -3 
C -0.795609 -3 -1.55874 -2.683901 -2.12132 -2.12132 
C -2.683901 -1.55874 -3 -0.795609 -3 0 
C -3 0.795609 -2.683901 1.55874 -2.12132 2.12132 
C -1.55874 2.683901 -0.795609 3 0 3 
z
"/>
    </defs>
    <g clip-path="url(#p584afff191)">
     <use xlink:href="#C0_0_70aea4f1e0" x="78.861024" y="234.613103" style="fill: #195f90; stroke: #ffffff; stroke-width: 0.48"/>
    </g>
    <g clip-path="url(#p584afff191)">
     <use xlink:href="#C0_0_70aea4f1e0" x="78.834939" y="234.618769" style="fill: #195f90; stroke: #ffffff; stroke-width: 0.48"/>
    </g>
    <g clip-path="url(#p584afff191)">
     <use xlink:href="#C0_0_70aea4f1e0" x="78.802102" y="234.627268" style="fill: #195f90; stroke: #ffffff; stroke-width: 0.48"/>
    </g>
    <g clip-path="url(#p584afff191)">
     <use xlink:href="#C0_0_70aea4f1e0" x="78.809621" y="234.624435" style="fill: #195f90; stroke: #ffffff; stroke-width: 0.48"/>
    </g>
    <g clip-path="url(#p584afff191)">
     <use xlink:href="#C0_0_70aea4f1e0" x="78.833558" y="234.613103" style="fill: #195f90; stroke: #ffffff; stroke-width: 0.48"/>
    </g>
    <g clip-path="url(#p584afff191)">
     <use xlink:href="#C0_0_70aea4f1e0" x="78.822356" y="234.616881" style="fill: #195f90; stroke: #ffffff; stroke-width: 0.48"/>
    </g>
    <g clip-path="url(#p584afff191)">
     <use xlink:href="#C0_0_70aea4f1e0" x="78.805018" y="234.625379" style="fill: #195f90; stroke: #ffffff; stroke-width: 0.48"/>
    </g>
    <g clip-path="url(#p584afff191)">
     <use xlink:href="#C0_0_70aea4f1e0" x="78.86133" y="234.59705" style="fill: #195f90; stroke: #ffffff; stroke-width: 0.48"/>
    </g>
    <g clip-path="url(#p584afff191)">
     <use xlink:href="#C0_0_70aea4f1e0" x="78.84614" y="234.604605" style="fill: #195f90; stroke: #ffffff; stroke-width: 0.48"/>
    </g>
    <g clip-path="url(#p584afff191)">
     <use xlink:href="#C0_0_70aea4f1e0" x="118.675839" y="214.391088" style="fill: #70453c; stroke: #ffffff; stroke-width: 0.48"/>
    </g>
    <g clip-path="url(#p584afff191)">
     <use xlink:href="#C0_0_70aea4f1e0" x="96.629006" y="225.23345" style="fill: #70453c; stroke: #ffffff; stroke-width: 0.48"/>
    </g>
    <g clip-path="url(#p584afff191)">
     <use xlink:href="#C0_0_70aea4f1e0" x="79.130159" y="234.453518" style="fill: #195f90; stroke: #ffffff; stroke-width: 0.48"/>
    </g>
    <g clip-path="url(#p584afff191)">
     <use xlink:href="#C0_0_70aea4f1e0" x="78.82251" y="234.615936" style="fill: #cc660b; stroke: #ffffff; stroke-width: 0.48"/>
    </g>
    <g clip-path="url(#p584afff191)">
     <use xlink:href="#C0_0_70aea4f1e0" x="79.176651" y="234.428022" style="fill: #195f90; stroke: #ffffff; stroke-width: 0.48"/>
    </g>
    <g clip-path="url(#p584afff191)">
     <use xlink:href="#C0_0_70aea4f1e0" x="81.624646" y="233.09657" style="fill: #70453c; stroke: #ffffff; stroke-width: 0.48"/>
    </g>
    <g clip-path="url(#p584afff191)">
     <use xlink:href="#C0_0_70aea4f1e0" x="78.804557" y="234.625379" style="fill: #195f90; stroke: #ffffff; stroke-width: 0.48"/>
    </g>
    <g clip-path="url(#p584afff191)">
     <use xlink:href="#C0_0_70aea4f1e0" x="79.265493" y="234.368532" style="fill: #195f90; stroke: #ffffff; stroke-width: 0.48"/>
    </g>
    <g clip-path="url(#p584afff191)">
     <use xlink:href="#C0_0_70aea4f1e0" x="79.086121" y="234.46485" style="fill: #238023; stroke: #ffffff; stroke-width: 0.48"/>
    </g>
    <g clip-path="url(#p584afff191)">
     <use xlink:href="#C0_0_70aea4f1e0" x="81.195625" y="233.199498" style="fill: #195f90; stroke: #ffffff; stroke-width: 0.48"/>
    </g>
    <g clip-path="url(#p584afff191)">
     <use xlink:href="#C0_0_70aea4f1e0" x="95.074344" y="223.593214" style="fill: #195f90; stroke: #ffffff; stroke-width: 0.48"/>
    </g>
    <g clip-path="url(#p584afff191)">
     <use xlink:href="#C0_0_70aea4f1e0" x="79.860844" y="233.896386" style="fill: #195f90; stroke: #ffffff; stroke-width: 0.48"/>
    </g>
    <g clip-path="url(#p584afff191)">
     <use xlink:href="#C0_0_70aea4f1e0" x="81.280018" y="232.755681" style="fill: #195f90; stroke: #ffffff; stroke-width: 0.48"/>
    </g>
    <g clip-path="url(#p584afff191)">
     <use xlink:href="#C0_0_70aea4f1e0" x="78.869156" y="234.575332" style="fill: #ab1f20; stroke: #ffffff; stroke-width: 0.48"/>
    </g>
    <g clip-path="url(#p584afff191)">
     <use xlink:href="#C0_0_70aea4f1e0" x="79.436733" y="234.13057" style="fill: #ab1f20; stroke: #ffffff; stroke-width: 0.48"/>
    </g>
    <g clip-path="url(#p584afff191)">
     <use xlink:href="#C0_0_70aea4f1e0" x="96.692071" y="219.99074" style="fill: #70453c; stroke: #ffffff; stroke-width: 0.48"/>
    </g>
    <g clip-path="url(#p584afff191)">
     <use xlink:href="#C0_0_70aea4f1e0" x="87.581064" y="227.424208" style="fill: #195f90; stroke: #ffffff; stroke-width: 0.48"/>
    </g>
    <g clip-path="url(#p584afff191)">
     <use xlink:href="#C0_0_70aea4f1e0" x="114.413561" y="204.81691" style="fill: #195f90; stroke: #ffffff; stroke-width: 0.48"/>
    </g>
    <g clip-path="url(#p584afff191)">
     <use xlink:href="#C0_0_70aea4f1e0" x="78.819595" y="234.611215" style="fill: #cc660b; stroke: #ffffff; stroke-width: 0.48"/>
    </g>
    <g clip-path="url(#p584afff191)">
     <use xlink:href="#C0_0_70aea4f1e0" x="78.876521" y="234.563056" style="fill: #cc660b; stroke: #ffffff; stroke-width: 0.48"/>
    </g>
    <g clip-path="url(#p584afff191)">
     <use xlink:href="#C0_0_70aea4f1e0" x="79.046687" y="234.405359" style="fill: #ab1f20; stroke: #ffffff; stroke-width: 0.48"/>
    </g>
    <g clip-path="url(#p584afff191)">
     <use xlink:href="#C0_0_70aea4f1e0" x="165.563815" y="155.331282" style="fill: #cc660b; stroke: #ffffff; stroke-width: 0.48"/>
    </g>
    <g clip-path="url(#p584afff191)">
     <use xlink:href="#C0_0_70aea4f1e0" x="79.365844" y="234.109796" style="fill: #195f90; stroke: #ffffff; stroke-width: 0.48"/>
    </g>
    <g clip-path="url(#p584afff191)">
     <use xlink:href="#C0_0_70aea4f1e0" x="80.454966" y="233.107902" style="fill: #cc660b; stroke: #ffffff; stroke-width: 0.48"/>
    </g>
    <g clip-path="url(#p584afff191)">
     <use xlink:href="#C0_0_70aea4f1e0" x="79.109137" y="234.336426" style="fill: #ab1f20; stroke: #ffffff; stroke-width: 0.48"/>
    </g>
    <g clip-path="url(#p584afff191)">
     <use xlink:href="#C0_0_70aea4f1e0" x="78.918871" y="234.514897" style="fill: #cc660b; stroke: #ffffff; stroke-width: 0.48"/>
    </g>
    <g clip-path="url(#p584afff191)">
     <use xlink:href="#C0_0_70aea4f1e0" x="80.006919" y="233.459178" style="fill: #70453c; stroke: #ffffff; stroke-width: 0.48"/>
    </g>
    <g clip-path="url(#p584afff191)">
     <use xlink:href="#C0_0_70aea4f1e0" x="79.571301" y="233.863335" style="fill: #cc660b; stroke: #ffffff; stroke-width: 0.48"/>
    </g>
    <g clip-path="url(#p584afff191)">
     <use xlink:href="#C0_0_70aea4f1e0" x="160.759584" y="149.916711" style="fill: #ab1f20; stroke: #ffffff; stroke-width: 0.48"/>
    </g>
    <g clip-path="url(#p584afff191)">
     <use xlink:href="#C0_0_70aea4f1e0" x="79.083052" y="234.321317" style="fill: #195f90; stroke: #ffffff; stroke-width: 0.48"/>
    </g>
    <g clip-path="url(#p584afff191)">
     <use xlink:href="#C0_0_70aea4f1e0" x="86.347553" y="226.323163" style="fill: #cc660b; stroke: #ffffff; stroke-width: 0.48"/>
    </g>
    <g clip-path="url(#p584afff191)">
     <use xlink:href="#C0_0_70aea4f1e0" x="257.419148" y="34.775398" style="fill: #ab1f20; stroke: #ffffff; stroke-width: 0.48"/>
    </g>
    <g clip-path="url(#p584afff191)">
     <use xlink:href="#C0_0_70aea4f1e0" x="79.762028" y="233.52339" style="fill: #765297; stroke: #ffffff; stroke-width: 0.48"/>
    </g>
    <g clip-path="url(#p584afff191)">
     <use xlink:href="#C0_0_70aea4f1e0" x="78.906902" y="234.503565" style="fill: #195f90; stroke: #ffffff; stroke-width: 0.48"/>
    </g>
    <g clip-path="url(#p584afff191)">
     <use xlink:href="#C0_0_70aea4f1e0" x="136.05976" y="164.259564" style="fill: #cc660b; stroke: #ffffff; stroke-width: 0.48"/>
    </g>
   </g>
   <g id="matplotlib.axis_1">
    <g id="xtick_1">
     <g id="line2d_1">
      <defs>
       <path id="mfb96eef6a4" d="M 0 0 
L 0 3.5 
" style="stroke: #000000; stroke-width: 0.8"/>
      </defs>
      <g>
       <use xlink:href="#mfb96eef6a4" x="78.79934" y="245.93875" style="stroke: #000000; stroke-width: 0.8"/>
      </g>
     </g>
     <g id="text_1">
      <text style="font: 10px 'DejaVu Sans', 'Bitstream Vera Sans', 'Computer Modern Sans Serif', 'Lucida Grande', 'Verdana', 'Geneva', 'Lucid', 'Arial', 'Helvetica', 'Avant Garde', sans-serif; text-anchor: middle" x="78.79934" y="260.537188" transform="rotate(-0 78.79934 260.537188)">0.00</text>
     </g>
    </g>
    <g id="xtick_2">
     <g id="line2d_2">
      <g>
       <use xlink:href="#mfb96eef6a4" x="117.159537" y="245.93875" style="stroke: #000000; stroke-width: 0.8"/>
      </g>
     </g>
     <g id="text_2">
      <text style="font: 10px 'DejaVu Sans', 'Bitstream Vera Sans', 'Computer Modern Sans Serif', 'Lucida Grande', 'Verdana', 'Geneva', 'Lucid', 'Arial', 'Helvetica', 'Avant Garde', sans-serif; text-anchor: middle" x="117.159537" y="260.537188" transform="rotate(-0 117.159537 260.537188)">0.25</text>
     </g>
    </g>
    <g id="xtick_3">
     <g id="line2d_3">
      <g>
       <use xlink:href="#mfb96eef6a4" x="155.519734" y="245.93875" style="stroke: #000000; stroke-width: 0.8"/>
      </g>
     </g>
     <g id="text_3">
      <text style="font: 10px 'DejaVu Sans', 'Bitstream Vera Sans', 'Computer Modern Sans Serif', 'Lucida Grande', 'Verdana', 'Geneva', 'Lucid', 'Arial', 'Helvetica', 'Avant Garde', sans-serif; text-anchor: middle" x="155.519734" y="260.537188" transform="rotate(-0 155.519734 260.537188)">0.50</text>
     </g>
    </g>
    <g id="xtick_4">
     <g id="line2d_4">
      <g>
       <use xlink:href="#mfb96eef6a4" x="193.879931" y="245.93875" style="stroke: #000000; stroke-width: 0.8"/>
      </g>
     </g>
     <g id="text_4">
      <text style="font: 10px 'DejaVu Sans', 'Bitstream Vera Sans', 'Computer Modern Sans Serif', 'Lucida Grande', 'Verdana', 'Geneva', 'Lucid', 'Arial', 'Helvetica', 'Avant Garde', sans-serif; text-anchor: middle" x="193.879931" y="260.537188" transform="rotate(-0 193.879931 260.537188)">0.75</text>
     </g>
    </g>
    <g id="xtick_5">
     <g id="line2d_5">
      <g>
       <use xlink:href="#mfb96eef6a4" x="232.240128" y="245.93875" style="stroke: #000000; stroke-width: 0.8"/>
      </g>
     </g>
     <g id="text_5">
      <text style="font: 10px 'DejaVu Sans', 'Bitstream Vera Sans', 'Computer Modern Sans Serif', 'Lucida Grande', 'Verdana', 'Geneva', 'Lucid', 'Arial', 'Helvetica', 'Avant Garde', sans-serif; text-anchor: middle" x="232.240128" y="260.537188" transform="rotate(-0 232.240128 260.537188)">1.00</text>
     </g>
    </g>
    <g id="text_6">
     <text style="font: 10px 'DejaVu Sans', 'Bitstream Vera Sans', 'Computer Modern Sans Serif', 'Lucida Grande', 'Verdana', 'Geneva', 'Lucid', 'Arial', 'Helvetica', 'Avant Garde', sans-serif; text-anchor: middle" x="168.110625" y="274.215312" transform="rotate(-0 168.110625 274.215312)">Total_TEs_number</text>
    </g>
    <g id="text_7">
     <text style="font: 10px 'DejaVu Sans', 'Bitstream Vera Sans', 'Computer Modern Sans Serif', 'Lucida Grande', 'Verdana', 'Geneva', 'Lucid', 'Arial', 'Helvetica', 'Avant Garde', sans-serif; text-anchor: end" x="266.35" y="273.215312" transform="rotate(-0 266.35 273.215312)">1e6</text>
    </g>
   </g>
   <g id="matplotlib.axis_2">
    <g id="ytick_1">
     <g id="line2d_6">
      <defs>
       <path id="m312e4bf508" d="M 0 0 
L -3.5 0 
" style="stroke: #000000; stroke-width: 0.8"/>
      </defs>
      <g>
       <use xlink:href="#m312e4bf508" x="69.87125" y="234.628212" style="stroke: #000000; stroke-width: 0.8"/>
      </g>
     </g>
     <g id="text_8">
      <text style="font: 10px 'DejaVu Sans', 'Bitstream Vera Sans', 'Computer Modern Sans Serif', 'Lucida Grande', 'Verdana', 'Geneva', 'Lucid', 'Arial', 'Helvetica', 'Avant Garde', sans-serif; text-anchor: end" x="62.87125" y="238.427431" transform="rotate(-0 62.87125 238.427431)">0</text>
     </g>
    </g>
    <g id="ytick_2">
     <g id="line2d_7">
      <g>
       <use xlink:href="#m312e4bf508" x="69.87125" y="187.413607" style="stroke: #000000; stroke-width: 0.8"/>
      </g>
     </g>
     <g id="text_9">
      <text style="font: 10px 'DejaVu Sans', 'Bitstream Vera Sans', 'Computer Modern Sans Serif', 'Lucida Grande', 'Verdana', 'Geneva', 'Lucid', 'Arial', 'Helvetica', 'Avant Garde', sans-serif; text-anchor: end" x="62.87125" y="191.212825" transform="rotate(-0 62.87125 191.212825)">50000</text>
     </g>
    </g>
    <g id="ytick_3">
     <g id="line2d_8">
      <g>
       <use xlink:href="#m312e4bf508" x="69.87125" y="140.199001" style="stroke: #000000; stroke-width: 0.8"/>
      </g>
     </g>
     <g id="text_10">
      <text style="font: 10px 'DejaVu Sans', 'Bitstream Vera Sans', 'Computer Modern Sans Serif', 'Lucida Grande', 'Verdana', 'Geneva', 'Lucid', 'Arial', 'Helvetica', 'Avant Garde', sans-serif; text-anchor: end" x="62.87125" y="143.99822" transform="rotate(-0 62.87125 143.99822)">100000</text>
     </g>
    </g>
    <g id="ytick_4">
     <g id="line2d_9">
      <g>
       <use xlink:href="#m312e4bf508" x="69.87125" y="92.984396" style="stroke: #000000; stroke-width: 0.8"/>
      </g>
     </g>
     <g id="text_11">
      <text style="font: 10px 'DejaVu Sans', 'Bitstream Vera Sans', 'Computer Modern Sans Serif', 'Lucida Grande', 'Verdana', 'Geneva', 'Lucid', 'Arial', 'Helvetica', 'Avant Garde', sans-serif; text-anchor: end" x="62.87125" y="96.783615" transform="rotate(-0 62.87125 96.783615)">150000</text>
     </g>
    </g>
    <g id="ytick_5">
     <g id="line2d_10">
      <g>
       <use xlink:href="#m312e4bf508" x="69.87125" y="45.769791" style="stroke: #000000; stroke-width: 0.8"/>
      </g>
     </g>
     <g id="text_12">
      <text style="font: 10px 'DejaVu Sans', 'Bitstream Vera Sans', 'Computer Modern Sans Serif', 'Lucida Grande', 'Verdana', 'Geneva', 'Lucid', 'Arial', 'Helvetica', 'Avant Garde', sans-serif; text-anchor: end" x="62.87125" y="49.569009" transform="rotate(-0 62.87125 49.569009)">200000</text>
     </g>
    </g>
    <g id="text_13">
     <text style="font: 10px 'DejaVu Sans', 'Bitstream Vera Sans', 'Computer Modern Sans Serif', 'Lucida Grande', 'Verdana', 'Geneva', 'Lucid', 'Arial', 'Helvetica', 'Avant Garde', sans-serif; text-anchor: middle" x="18.338438" y="135.329375" transform="rotate(-90 18.338438 135.329375)">Observed_TEs_number</text>
    </g>
   </g>
   <g id="line2d_11"/>
   <g id="line2d_12"/>
   <g id="line2d_13"/>
   <g id="line2d_14"/>
   <g id="line2d_15"/>
   <g id="line2d_16"/>
   <g id="line2d_17">
    <path d="M 78.802102 235.883352 
L 80.606315 233.959679 
L 82.410527 232.036005 
L 84.21474 230.112331 
L 86.018953 228.188658 
L 87.823165 226.264984 
L 89.627378 224.34131 
L 91.43159 222.417637 
L 93.235803 220.493963 
L 95.040015 218.570289 
L 96.844228 216.646616 
L 98.648441 214.722942 
L 100.452653 212.799268 
L 102.256866 210.875595 
L 104.061078 208.951921 
L 105.865291 207.028247 
L 107.669504 205.104574 
L 109.473716 203.1809 
L 111.277929 201.257226 
L 113.082141 199.333553 
L 114.886354 197.409879 
L 116.690566 195.486206 
L 118.494779 193.562532 
L 120.298992 191.638858 
L 122.103204 189.715185 
L 123.907417 187.791511 
L 125.711629 185.867837 
L 127.515842 183.944164 
L 129.320055 182.02049 
L 131.124267 180.096816 
L 132.92848 178.173143 
L 134.732692 176.249469 
L 136.536905 174.325795 
L 138.341117 172.402122 
L 140.14533 170.478448 
L 141.949543 168.554774 
L 143.753755 166.631101 
L 145.557968 164.707427 
L 147.36218 162.783753 
L 149.166393 160.86008 
L 150.970605 158.936406 
L 152.774818 157.012732 
L 154.579031 155.089059 
L 156.383243 153.165385 
L 158.187456 151.241711 
L 159.991668 149.318038 
L 161.795881 147.394364 
L 163.600094 145.47069 
L 165.404306 143.547017 
L 167.208519 141.623343 
L 169.012731 139.69967 
L 170.816944 137.775996 
L 172.621156 135.852322 
L 174.425369 133.928649 
L 176.229582 132.004975 
L 178.033794 130.081301 
L 179.838007 128.157628 
L 181.642219 126.233954 
L 183.446432 124.31028 
L 185.250645 122.386607 
L 187.054857 120.462933 
L 188.85907 118.539259 
L 190.663282 116.615586 
L 192.467495 114.691912 
L 194.271707 112.768238 
L 196.07592 110.844565 
L 197.880133 108.920891 
L 199.684345 106.997217 
L 201.488558 105.073544 
L 203.29277 103.14987 
L 205.096983 101.226196 
L 206.901195 99.302523 
L 208.705408 97.378849 
L 210.509621 95.455175 
L 212.313833 93.531502 
L 214.118046 91.607828 
L 215.922258 89.684155 
L 217.726471 87.760481 
L 219.530684 85.836807 
L 221.334896 83.913134 
L 223.139109 81.98946 
L 224.943321 80.065786 
L 226.747534 78.142113 
L 228.551746 76.218439 
L 230.355959 74.294765 
L 232.160172 72.371092 
L 233.964384 70.447418 
L 235.768597 68.523744 
L 237.572809 66.600071 
L 239.377022 64.676397 
L 241.181235 62.752723 
L 242.985447 60.82905 
L 244.78966 58.905376 
L 246.593872 56.981702 
L 248.398085 55.058029 
L 250.202297 53.134355 
L 252.00651 51.210681 
L 253.810723 49.287008 
L 255.614935 47.363334 
L 257.419148 45.43966 
" clip-path="url(#p584afff191)" style="fill: none; stroke: #000000; stroke-width: 1.5; stroke-linecap: square"/>
   </g>
   <g id="patch_3">
    <path d="M 69.87125 245.93875 
L 69.87125 24.72 
" style="fill: none; stroke: #000000; stroke-width: 0.8; stroke-linejoin: miter; stroke-linecap: square"/>
   </g>
   <g id="patch_4">
    <path d="M 266.35 245.93875 
L 266.35 24.72 
" style="fill: none; stroke: #000000; stroke-width: 0.8; stroke-linejoin: miter; stroke-linecap: square"/>
   </g>
   <g id="patch_5">
    <path d="M 69.87125 245.93875 
L 266.35 245.93875 
" style="fill: none; stroke: #000000; stroke-width: 0.8; stroke-linejoin: miter; stroke-linecap: square"/>
   </g>
   <g id="patch_6">
    <path d="M 69.87125 24.72 
L 266.35 24.72 
" style="fill: none; stroke: #000000; stroke-width: 0.8; stroke-linejoin: miter; stroke-linecap: square"/>
   </g>
   <g id="text_14">
    <g id="patch_7">
     <path d="M 79.695188 59.069281 
L 155.937844 59.069281 
Q 160.437844 59.069281 160.437844 54.569281 
L 160.437844 35.780937 
Q 160.437844 31.280937 155.937844 31.280937 
L 79.695188 31.280937 
Q 75.195188 31.280937 75.195188 35.780937 
L 75.195188 54.569281 
Q 75.195188 59.069281 79.695188 59.069281 
z
" style="fill: #ffffff; opacity: 0.8; stroke: #000000; stroke-linejoin: miter"/>
    </g>
    <text style="font: 9px 'DejaVu Sans', 'Bitstream Vera Sans', 'Computer Modern Sans Serif', 'Lucida Grande', 'Verdana', 'Geneva', 'Lucid', 'Arial', 'Helvetica', 'Avant Garde', sans-serif" transform="translate(79.695188 42.619531)">Pearson R: 0.990</text>
    <text style="font: 9px 'DejaVu Sans', 'Bitstream Vera Sans', 'Computer Modern Sans Serif', 'Lucida Grande', 'Verdana', 'Geneva', 'Lucid', 'Arial', 'Helvetica', 'Avant Garde', sans-serif" transform="translate(79.695188 52.697563)">p &lt; 0.001</text>
   </g>
   <g id="text_15">
    <text style="font: 10px 'DejaVu Sans', 'Bitstream Vera Sans', 'Computer Modern Sans Serif', 'Lucida Grande', 'Verdana', 'Geneva', 'Lucid', 'Arial', 'Helvetica', 'Avant Garde', sans-serif; text-anchor: middle" x="168.110625" y="18.72" transform="rotate(-0 168.110625 18.72)">Observed_TEs_number vs Total_TEs_number</text>
   </g>
   <g id="legend_1">
    <g id="patch_8">
     <path d="M 273.35 188.202812 
L 415.540625 188.202812 
Q 417.540625 188.202812 417.540625 186.202812 
L 417.540625 84.455938 
Q 417.540625 82.455938 415.540625 82.455938 
L 273.35 82.455938 
Q 271.35 82.455938 271.35 84.455938 
L 271.35 186.202812 
Q 271.35 188.202812 273.35 188.202812 
z
" style="fill: #ffffff; opacity: 0.8; stroke: #cccccc; stroke-linejoin: miter"/>
    </g>
    <g id="line2d_18">
     <defs>
      <path id="m5c1e2bc892" d="M 0 3 
C 0.795609 3 1.55874 2.683901 2.12132 2.12132 
C 2.683901 1.55874 3 0.795609 3 0 
C 3 -0.795609 2.683901 -1.55874 2.12132 -2.12132 
C 1.55874 -2.683901 0.795609 -3 0 -3 
C -0.795609 -3 -1.55874 -2.683901 -2.12132 -2.12132 
C -2.683901 -1.55874 -3 -0.795609 -3 0 
C -3 0.795609 -2.683901 1.55874 -2.12132 2.12132 
C -1.55874 2.683901 -0.795609 3 0 3 
z
" style="stroke: #ffffff; stroke-width: 0.48"/>
     </defs>
     <g>
      <use xlink:href="#m5c1e2bc892" x="285.35" y="90.554375" style="fill: #195f90; stroke: #ffffff; stroke-width: 0.48"/>
     </g>
    </g>
    <g id="text_16">
     <text style="font: 10px 'DejaVu Sans', 'Bitstream Vera Sans', 'Computer Modern Sans Serif', 'Lucida Grande', 'Verdana', 'Geneva', 'Lucid', 'Arial', 'Helvetica', 'Avant Garde', sans-serif; text-anchor: start" x="303.35" y="94.054375" transform="rotate(-0 303.35 94.054375)">DNA</text>
    </g>
    <g id="line2d_19">
     <defs>
      <path id="m4de095ea3f" d="M 0 3 
C 0.795609 3 1.55874 2.683901 2.12132 2.12132 
C 2.683901 1.55874 3 0.795609 3 0 
C 3 -0.795609 2.683901 -1.55874 2.12132 -2.12132 
C 1.55874 -2.683901 0.795609 -3 0 -3 
C -0.795609 -3 -1.55874 -2.683901 -2.12132 -2.12132 
C -2.683901 -1.55874 -3 -0.795609 -3 0 
C -3 0.795609 -2.683901 1.55874 -2.12132 2.12132 
C -1.55874 2.683901 -0.795609 3 0 3 
z
" style="stroke: #ffffff; stroke-width: 0.48"/>
     </defs>
     <g>
      <use xlink:href="#m4de095ea3f" x="285.35" y="105.2325" style="fill: #70453c; stroke: #ffffff; stroke-width: 0.48"/>
     </g>
    </g>
    <g id="text_17">
     <text style="font: 10px 'DejaVu Sans', 'Bitstream Vera Sans', 'Computer Modern Sans Serif', 'Lucida Grande', 'Verdana', 'Geneva', 'Lucid', 'Arial', 'Helvetica', 'Avant Garde', sans-serif; text-anchor: start" x="303.35" y="108.7325" transform="rotate(-0 303.35 108.7325)">LTR</text>
    </g>
    <g id="line2d_20">
     <defs>
      <path id="m5a4b50da86" d="M 0 3 
C 0.795609 3 1.55874 2.683901 2.12132 2.12132 
C 2.683901 1.55874 3 0.795609 3 0 
C 3 -0.795609 2.683901 -1.55874 2.12132 -2.12132 
C 1.55874 -2.683901 0.795609 -3 0 -3 
C -0.795609 -3 -1.55874 -2.683901 -2.12132 -2.12132 
C -2.683901 -1.55874 -3 -0.795609 -3 0 
C -3 0.795609 -2.683901 1.55874 -2.12132 2.12132 
C -1.55874 2.683901 -0.795609 3 0 3 
z
" style="stroke: #ffffff; stroke-width: 0.48"/>
     </defs>
     <g>
      <use xlink:href="#m5a4b50da86" x="285.35" y="119.910625" style="fill: #cc660b; stroke: #ffffff; stroke-width: 0.48"/>
     </g>
    </g>
    <g id="text_18">
     <text style="font: 10px 'DejaVu Sans', 'Bitstream Vera Sans', 'Computer Modern Sans Serif', 'Lucida Grande', 'Verdana', 'Geneva', 'Lucid', 'Arial', 'Helvetica', 'Avant Garde', sans-serif; text-anchor: start" x="303.35" y="123.410625" transform="rotate(-0 303.35 123.410625)">LINE</text>
    </g>
    <g id="line2d_21">
     <defs>
      <path id="me1073af7b6" d="M 0 3 
C 0.795609 3 1.55874 2.683901 2.12132 2.12132 
C 2.683901 1.55874 3 0.795609 3 0 
C 3 -0.795609 2.683901 -1.55874 2.12132 -2.12132 
C 1.55874 -2.683901 0.795609 -3 0 -3 
C -0.795609 -3 -1.55874 -2.683901 -2.12132 -2.12132 
C -2.683901 -1.55874 -3 -0.795609 -3 0 
C -3 0.795609 -2.683901 1.55874 -2.12132 2.12132 
C -1.55874 2.683901 -0.795609 3 0 3 
z
" style="stroke: #ffffff; stroke-width: 0.48"/>
     </defs>
     <g>
      <use xlink:href="#me1073af7b6" x="285.35" y="134.58875" style="fill: #238023; stroke: #ffffff; stroke-width: 0.48"/>
     </g>
    </g>
    <g id="text_19">
     <text style="font: 10px 'DejaVu Sans', 'Bitstream Vera Sans', 'Computer Modern Sans Serif', 'Lucida Grande', 'Verdana', 'Geneva', 'Lucid', 'Arial', 'Helvetica', 'Avant Garde', sans-serif; text-anchor: start" x="303.35" y="138.08875" transform="rotate(-0 303.35 138.08875)">RC</text>
    </g>
    <g id="line2d_22">
     <defs>
      <path id="me439e6c111" d="M 0 3 
C 0.795609 3 1.55874 2.683901 2.12132 2.12132 
C 2.683901 1.55874 3 0.795609 3 0 
C 3 -0.795609 2.683901 -1.55874 2.12132 -2.12132 
C 1.55874 -2.683901 0.795609 -3 0 -3 
C -0.795609 -3 -1.55874 -2.683901 -2.12132 -2.12132 
C -2.683901 -1.55874 -3 -0.795609 -3 0 
C -3 0.795609 -2.683901 1.55874 -2.12132 2.12132 
C -1.55874 2.683901 -0.795609 3 0 3 
z
" style="stroke: #ffffff; stroke-width: 0.48"/>
     </defs>
     <g>
      <use xlink:href="#me439e6c111" x="285.35" y="149.266875" style="fill: #ab1f20; stroke: #ffffff; stroke-width: 0.48"/>
     </g>
    </g>
    <g id="text_20">
     <text style="font: 10px 'DejaVu Sans', 'Bitstream Vera Sans', 'Computer Modern Sans Serif', 'Lucida Grande', 'Verdana', 'Geneva', 'Lucid', 'Arial', 'Helvetica', 'Avant Garde', sans-serif; text-anchor: start" x="303.35" y="152.766875" transform="rotate(-0 303.35 152.766875)">SINE</text>
    </g>
    <g id="line2d_23">
     <defs>
      <path id="m5f646a68e7" d="M 0 3 
C 0.795609 3 1.55874 2.683901 2.12132 2.12132 
C 2.683901 1.55874 3 0.795609 3 0 
C 3 -0.795609 2.683901 -1.55874 2.12132 -2.12132 
C 1.55874 -2.683901 0.795609 -3 0 -3 
C -0.795609 -3 -1.55874 -2.683901 -2.12132 -2.12132 
C -2.683901 -1.55874 -3 -0.795609 -3 0 
C -3 0.795609 -2.683901 1.55874 -2.12132 2.12132 
C -1.55874 2.683901 -0.795609 3 0 3 
z
" style="stroke: #ffffff; stroke-width: 0.48"/>
     </defs>
     <g>
      <use xlink:href="#m5f646a68e7" x="285.35" y="163.945" style="fill: #765297; stroke: #ffffff; stroke-width: 0.48"/>
     </g>
    </g>
    <g id="text_21">
     <text style="font: 10px 'DejaVu Sans', 'Bitstream Vera Sans', 'Computer Modern Sans Serif', 'Lucida Grande', 'Verdana', 'Geneva', 'Lucid', 'Arial', 'Helvetica', 'Avant Garde', sans-serif; text-anchor: start" x="303.35" y="167.445" transform="rotate(-0 303.35 167.445)">Retroposon</text>
    </g>
    <g id="line2d_24">
     <path d="M 275.35 178.623125 
L 285.35 178.623125 
L 295.35 178.623125 
" style="fill: none; stroke: #000000; stroke-width: 1.5; stroke-linecap: square"/>
    </g>
    <g id="text_22">
     <text style="font: 10px 'DejaVu Sans', 'Bitstream Vera Sans', 'Computer Modern Sans Serif', 'Lucida Grande', 'Verdana', 'Geneva', 'Lucid', 'Arial', 'Helvetica', 'Avant Garde', sans-serif; text-anchor: start" x="303.35" y="182.123125" transform="rotate(-0 303.35 182.123125)">Linear Trend (R=0.99)</text>
    </g>
   </g>
  </g>
 </g>
 <defs>
  <clipPath id="p584afff191">
   <rect x="69.87125" y="24.72" width="196.47875" height="221.21875"/>
  </clipPath>
 </defs>
</svg>
