<?xml version="1.0" encoding="utf-8" standalone="no"?>
<!DOCTYPE svg PUBLIC "-//W3C//DTD SVG 1.1//EN"
  "http://www.w3.org/Graphics/SVG/1.1/DTD/svg11.dtd">
<svg xmlns:xlink="http://www.w3.org/1999/xlink" width="504pt" height="288pt" viewBox="0 0 504 288" xmlns="http://www.w3.org/2000/svg" version="1.1">
 <metadata>
  <rdf:RDF xmlns:dc="http://purl.org/dc/elements/1.1/" xmlns:cc="http://creativecommons.org/ns#" xmlns:rdf="http://www.w3.org/1999/02/22-rdf-syntax-ns#">
   <cc:Work>
    <dc:type rdf:resource="http://purl.org/dc/dcmitype/StillImage"/>
    <dc:date>2025-12-06T13:16:40.319666</dc:date>
    <dc:format>image/svg+xml</dc:format>
    <dc:creator>
     <cc:Agent>
      <dc:title>Matplotlib v3.8.4, https://matplotlib.org/</dc:title>
     </cc:Agent>
    </dc:creator>
   </cc:Work>
  </rdf:RDF>
 </metadata>
 <defs>
  <style type="text/css">*{stroke-linejoin: round; stroke-linecap: butt}</style>
 </defs>
 <g id="figure_1">
  <g id="patch_1">
   <path d="M 0 288 
L 504 288 
L 504 0 
L 0 0 
L 0 288 
z
" style="fill: none"/>
  </g>
  <g id="axes_1">
   <g id="patch_2">
    <path d="M 47.72 246.04 
L 266.53 246.04 
L 266.53 24.72 
L 47.72 24.72 
L 47.72 246.04 
z
" style="fill: none"/>
   </g>
   <g id="PathCollection_1">
    <defs>
     <path id="C0_0_8955acb2c5" d="M 0 3 
C 0.795609 3 1.55874 2.683901 2.12132 2.12132 
C 2.683901 1.55874 3 0.795609 3 -0 
C 3 -0.795609 2.683901 -1.55874 2.12132 -2.12132 
C 1.55874 -2.683901 0.795609 -3 0 -3 
C -0.795609 -3 -1.55874 -2.683901 -2.12132 -2.12132 
C -2.683901 -1.55874 -3 -0.795609 -3 0 
C -3 0.795609 -2.683901 1.55874 -2.12132 2.12132 
C -1.55874 2.683901 -0.795609 3 0 3 
z
"/>
    </defs>
    <g clip-path="url(#pda9e5e5e01)">
     <use xlink:href="#C0_0_8955acb2c5" x="113.443754" y="235.98" style="fill: #195f90; stroke: #ffffff; stroke-width: 0.48"/>
    </g>
    <g clip-path="url(#pda9e5e5e01)">
     <use xlink:href="#C0_0_8955acb2c5" x="103.57218" y="232.505057" style="fill: #195f90; stroke: #ffffff; stroke-width: 0.48"/>
    </g>
    <g clip-path="url(#pda9e5e5e01)">
     <use xlink:href="#C0_0_8955acb2c5" x="57.665909" y="219.184004" style="fill: #195f90; stroke: #ffffff; stroke-width: 0.48"/>
    </g>
    <g clip-path="url(#pda9e5e5e01)">
     <use xlink:href="#C0_0_8955acb2c5" x="81.267998" y="214.670461" style="fill: #195f90; stroke: #ffffff; stroke-width: 0.48"/>
    </g>
    <g clip-path="url(#pda9e5e5e01)">
     <use xlink:href="#C0_0_8955acb2c5" x="102.861675" y="201.326074" style="fill: #195f90; stroke: #ffffff; stroke-width: 0.48"/>
    </g>
    <g clip-path="url(#pda9e5e5e01)">
     <use xlink:href="#C0_0_8955acb2c5" x="95.74082" y="191.985001" style="fill: #195f90; stroke: #ffffff; stroke-width: 0.48"/>
    </g>
    <g clip-path="url(#pda9e5e5e01)">
     <use xlink:href="#C0_0_8955acb2c5" x="70.605211" y="190.748683" style="fill: #195f90; stroke: #ffffff; stroke-width: 0.48"/>
    </g>
    <g clip-path="url(#pda9e5e5e01)">
     <use xlink:href="#C0_0_8955acb2c5" x="113.532874" y="190.058878" style="fill: #195f90; stroke: #ffffff; stroke-width: 0.48"/>
    </g>
    <g clip-path="url(#pda9e5e5e01)">
     <use xlink:href="#C0_0_8955acb2c5" x="108.484928" y="189.733136" style="fill: #195f90; stroke: #ffffff; stroke-width: 0.48"/>
    </g>
    <g clip-path="url(#pda9e5e5e01)">
     <use xlink:href="#C0_0_8955acb2c5" x="229.657118" y="189.163023" style="fill: #70453c; stroke: #ffffff; stroke-width: 0.48"/>
    </g>
    <g clip-path="url(#pda9e5e5e01)">
     <use xlink:href="#C0_0_8955acb2c5" x="215.2026" y="185.525776" style="fill: #70453c; stroke: #ffffff; stroke-width: 0.48"/>
    </g>
    <g clip-path="url(#pda9e5e5e01)">
     <use xlink:href="#C0_0_8955acb2c5" x="143.604634" y="185.309762" style="fill: #195f90; stroke: #ffffff; stroke-width: 0.48"/>
    </g>
    <g clip-path="url(#pda9e5e5e01)">
     <use xlink:href="#C0_0_8955acb2c5" x="95.86014" y="184.979197" style="fill: #cc660b; stroke: #ffffff; stroke-width: 0.48"/>
    </g>
    <g clip-path="url(#pda9e5e5e01)">
     <use xlink:href="#C0_0_8955acb2c5" x="145.966065" y="184.838895" style="fill: #195f90; stroke: #ffffff; stroke-width: 0.48"/>
    </g>
    <g clip-path="url(#pda9e5e5e01)">
     <use xlink:href="#C0_0_8955acb2c5" x="182.120203" y="182.662286" style="fill: #70453c; stroke: #ffffff; stroke-width: 0.48"/>
    </g>
    <g clip-path="url(#pda9e5e5e01)">
     <use xlink:href="#C0_0_8955acb2c5" x="69.086761" y="182.493267" style="fill: #195f90; stroke: #ffffff; stroke-width: 0.48"/>
    </g>
    <g clip-path="url(#pda9e5e5e01)">
     <use xlink:href="#C0_0_8955acb2c5" x="149.76311" y="179.829434" style="fill: #195f90; stroke: #ffffff; stroke-width: 0.48"/>
    </g>
    <g clip-path="url(#pda9e5e5e01)">
     <use xlink:href="#C0_0_8955acb2c5" x="141.039366" y="177.436388" style="fill: #238023; stroke: #ffffff; stroke-width: 0.48"/>
    </g>
    <g clip-path="url(#pda9e5e5e01)">
     <use xlink:href="#C0_0_8955acb2c5" x="179.162637" y="172.34147" style="fill: #195f90; stroke: #ffffff; stroke-width: 0.48"/>
    </g>
    <g clip-path="url(#pda9e5e5e01)">
     <use xlink:href="#C0_0_8955acb2c5" x="213.564267" y="156.346829" style="fill: #195f90; stroke: #ffffff; stroke-width: 0.48"/>
    </g>
    <g clip-path="url(#pda9e5e5e01)">
     <use xlink:href="#C0_0_8955acb2c5" x="164.540935" y="154.083098" style="fill: #195f90; stroke: #ffffff; stroke-width: 0.48"/>
    </g>
    <g clip-path="url(#pda9e5e5e01)">
     <use xlink:href="#C0_0_8955acb2c5" x="179.784187" y="140.890336" style="fill: #195f90; stroke: #ffffff; stroke-width: 0.48"/>
    </g>
    <g clip-path="url(#pda9e5e5e01)">
     <use xlink:href="#C0_0_8955acb2c5" x="115.667723" y="140.36328" style="fill: #ab1f20; stroke: #ffffff; stroke-width: 0.48"/>
    </g>
    <g clip-path="url(#pda9e5e5e01)">
     <use xlink:href="#C0_0_8955acb2c5" x="155.381555" y="135.579206" style="fill: #ab1f20; stroke: #ffffff; stroke-width: 0.48"/>
    </g>
    <g clip-path="url(#pda9e5e5e01)">
     <use xlink:href="#C0_0_8955acb2c5" x="215.266005" y="127.831455" style="fill: #70453c; stroke: #ffffff; stroke-width: 0.48"/>
    </g>
    <g clip-path="url(#pda9e5e5e01)">
     <use xlink:href="#C0_0_8955acb2c5" x="202.485166" y="127.357963" style="fill: #195f90; stroke: #ffffff; stroke-width: 0.48"/>
    </g>
    <g clip-path="url(#pda9e5e5e01)">
     <use xlink:href="#C0_0_8955acb2c5" x="227.627149" y="123.844645" style="fill: #195f90; stroke: #ffffff; stroke-width: 0.48"/>
    </g>
    <g clip-path="url(#pda9e5e5e01)">
     <use xlink:href="#C0_0_8955acb2c5" x="93.445235" y="123.401865" style="fill: #cc660b; stroke: #ffffff; stroke-width: 0.48"/>
    </g>
    <g clip-path="url(#pda9e5e5e01)">
     <use xlink:href="#C0_0_8955acb2c5" x="117.468743" y="122.34665" style="fill: #cc660b; stroke: #ffffff; stroke-width: 0.48"/>
    </g>
    <g clip-path="url(#pda9e5e5e01)">
     <use xlink:href="#C0_0_8955acb2c5" x="138.382932" y="110.236983" style="fill: #ab1f20; stroke: #ffffff; stroke-width: 0.48"/>
    </g>
    <g clip-path="url(#pda9e5e5e01)">
     <use xlink:href="#C0_0_8955acb2c5" x="243.617562" y="107.412841" style="fill: #cc660b; stroke: #ffffff; stroke-width: 0.48"/>
    </g>
    <g clip-path="url(#pda9e5e5e01)">
     <use xlink:href="#C0_0_8955acb2c5" x="153.264289" y="107.179626" style="fill: #195f90; stroke: #ffffff; stroke-width: 0.48"/>
    </g>
    <g clip-path="url(#pda9e5e5e01)">
     <use xlink:href="#C0_0_8955acb2c5" x="172.522977" y="106.495426" style="fill: #cc660b; stroke: #ffffff; stroke-width: 0.48"/>
    </g>
    <g clip-path="url(#pda9e5e5e01)">
     <use xlink:href="#C0_0_8955acb2c5" x="142.425674" y="101.35193" style="fill: #ab1f20; stroke: #ffffff; stroke-width: 0.48"/>
    </g>
    <g clip-path="url(#pda9e5e5e01)">
     <use xlink:href="#C0_0_8955acb2c5" x="125.323786" y="100.005883" style="fill: #cc660b; stroke: #ffffff; stroke-width: 0.48"/>
    </g>
    <g clip-path="url(#pda9e5e5e01)">
     <use xlink:href="#C0_0_8955acb2c5" x="166.856236" y="95.580855" style="fill: #70453c; stroke: #ffffff; stroke-width: 0.48"/>
    </g>
    <g clip-path="url(#pda9e5e5e01)">
     <use xlink:href="#C0_0_8955acb2c5" x="158.821287" y="90.527541" style="fill: #cc660b; stroke: #ffffff; stroke-width: 0.48"/>
    </g>
    <g clip-path="url(#pda9e5e5e01)">
     <use xlink:href="#C0_0_8955acb2c5" x="242.594642" y="80.874874" style="fill: #ab1f20; stroke: #ffffff; stroke-width: 0.48"/>
    </g>
    <g clip-path="url(#pda9e5e5e01)">
     <use xlink:href="#C0_0_8955acb2c5" x="140.846168" y="69.879773" style="fill: #195f90; stroke: #ffffff; stroke-width: 0.48"/>
    </g>
    <g clip-path="url(#pda9e5e5e01)">
     <use xlink:href="#C0_0_8955acb2c5" x="199.767066" y="65.569786" style="fill: #cc660b; stroke: #ffffff; stroke-width: 0.48"/>
    </g>
    <g clip-path="url(#pda9e5e5e01)">
     <use xlink:href="#C0_0_8955acb2c5" x="256.584091" y="61.128687" style="fill: #ab1f20; stroke: #ffffff; stroke-width: 0.48"/>
    </g>
    <g clip-path="url(#pda9e5e5e01)">
     <use xlink:href="#C0_0_8955acb2c5" x="162.786248" y="54.432408" style="fill: #765297; stroke: #ffffff; stroke-width: 0.48"/>
    </g>
    <g clip-path="url(#pda9e5e5e01)">
     <use xlink:href="#C0_0_8955acb2c5" x="123.429199" y="51.770361" style="fill: #195f90; stroke: #ffffff; stroke-width: 0.48"/>
    </g>
    <g clip-path="url(#pda9e5e5e01)">
     <use xlink:href="#C0_0_8955acb2c5" x="236.154593" y="34.78" style="fill: #cc660b; stroke: #ffffff; stroke-width: 0.48"/>
    </g>
   </g>
   <g id="matplotlib.axis_1">
    <g id="xtick_1">
     <g id="line2d_1">
      <defs>
       <path id="m9687e76edd" d="M 0 0 
L 0 3.5 
" style="stroke: #000000; stroke-width: 0.8"/>
      </defs>
      <g>
       <use xlink:href="#m9687e76edd" x="88.459627" y="246.04" style="stroke: #000000; stroke-width: 0.8"/>
      </g>
     </g>
     <g id="text_1">
      <text style="font: 10px 'DejaVu Sans', 'Bitstream Vera Sans', 'Computer Modern Sans Serif', 'Lucida Grande', 'Verdana', 'Geneva', 'Lucid', 'Arial', 'Helvetica', 'Avant Garde', sans-serif; text-anchor: middle" x="88.459627" y="260.638438" transform="rotate(-0 88.459627 260.638438)">2</text>
     </g>
    </g>
    <g id="xtick_2">
     <g id="line2d_2">
      <g>
       <use xlink:href="#m9687e76edd" x="129.808601" y="246.04" style="stroke: #000000; stroke-width: 0.8"/>
      </g>
     </g>
     <g id="text_2">
      <text style="font: 10px 'DejaVu Sans', 'Bitstream Vera Sans', 'Computer Modern Sans Serif', 'Lucida Grande', 'Verdana', 'Geneva', 'Lucid', 'Arial', 'Helvetica', 'Avant Garde', sans-serif; text-anchor: middle" x="129.808601" y="260.638438" transform="rotate(-0 129.808601 260.638438)">3</text>
     </g>
    </g>
    <g id="xtick_3">
     <g id="line2d_3">
      <g>
       <use xlink:href="#m9687e76edd" x="171.157574" y="246.04" style="stroke: #000000; stroke-width: 0.8"/>
      </g>
     </g>
     <g id="text_3">
      <text style="font: 10px 'DejaVu Sans', 'Bitstream Vera Sans', 'Computer Modern Sans Serif', 'Lucida Grande', 'Verdana', 'Geneva', 'Lucid', 'Arial', 'Helvetica', 'Avant Garde', sans-serif; text-anchor: middle" x="171.157574" y="260.638438" transform="rotate(-0 171.157574 260.638438)">4</text>
     </g>
    </g>
    <g id="xtick_4">
     <g id="line2d_4">
      <g>
       <use xlink:href="#m9687e76edd" x="212.506548" y="246.04" style="stroke: #000000; stroke-width: 0.8"/>
      </g>
     </g>
     <g id="text_4">
      <text style="font: 10px 'DejaVu Sans', 'Bitstream Vera Sans', 'Computer Modern Sans Serif', 'Lucida Grande', 'Verdana', 'Geneva', 'Lucid', 'Arial', 'Helvetica', 'Avant Garde', sans-serif; text-anchor: middle" x="212.506548" y="260.638438" transform="rotate(-0 212.506548 260.638438)">5</text>
     </g>
    </g>
    <g id="xtick_5">
     <g id="line2d_5">
      <g>
       <use xlink:href="#m9687e76edd" x="253.855522" y="246.04" style="stroke: #000000; stroke-width: 0.8"/>
      </g>
     </g>
     <g id="text_5">
      <text style="font: 10px 'DejaVu Sans', 'Bitstream Vera Sans', 'Computer Modern Sans Serif', 'Lucida Grande', 'Verdana', 'Geneva', 'Lucid', 'Arial', 'Helvetica', 'Avant Garde', sans-serif; text-anchor: middle" x="253.855522" y="260.638438" transform="rotate(-0 253.855522 260.638438)">6</text>
     </g>
    </g>
    <g id="text_6">
     <text style="font: 10px 'DejaVu Sans', 'Bitstream Vera Sans', 'Computer Modern Sans Serif', 'Lucida Grande', 'Verdana', 'Geneva', 'Lucid', 'Arial', 'Helvetica', 'Avant Garde', sans-serif; text-anchor: middle" x="157.125" y="274.316562" transform="rotate(-0 157.125 274.316562)">Total TE number in a family</text>
    </g>
   </g>
   <g id="matplotlib.axis_2">
    <g id="ytick_1">
     <g id="line2d_6">
      <defs>
       <path id="mbb56d010ed" d="M 0 0 
L -3.5 0 
" style="stroke: #000000; stroke-width: 0.8"/>
      </defs>
      <g>
       <use xlink:href="#mbb56d010ed" x="47.72" y="229.516972" style="stroke: #000000; stroke-width: 0.8"/>
      </g>
     </g>
     <g id="text_7">
      <text style="font: 10px 'DejaVu Sans', 'Bitstream Vera Sans', 'Computer Modern Sans Serif', 'Lucida Grande', 'Verdana', 'Geneva', 'Lucid', 'Arial', 'Helvetica', 'Avant Garde', sans-serif; text-anchor: end" x="40.72" y="233.316191" transform="rotate(-0 40.72 233.316191)">0.5</text>
     </g>
    </g>
    <g id="ytick_2">
     <g id="line2d_7">
      <g>
       <use xlink:href="#mbb56d010ed" x="47.72" y="182.979297" style="stroke: #000000; stroke-width: 0.8"/>
      </g>
     </g>
     <g id="text_8">
      <text style="font: 10px 'DejaVu Sans', 'Bitstream Vera Sans', 'Computer Modern Sans Serif', 'Lucida Grande', 'Verdana', 'Geneva', 'Lucid', 'Arial', 'Helvetica', 'Avant Garde', sans-serif; text-anchor: end" x="40.72" y="186.778516" transform="rotate(-0 40.72 186.778516)">1.0</text>
     </g>
    </g>
    <g id="ytick_3">
     <g id="line2d_8">
      <g>
       <use xlink:href="#mbb56d010ed" x="47.72" y="136.441623" style="stroke: #000000; stroke-width: 0.8"/>
      </g>
     </g>
     <g id="text_9">
      <text style="font: 10px 'DejaVu Sans', 'Bitstream Vera Sans', 'Computer Modern Sans Serif', 'Lucida Grande', 'Verdana', 'Geneva', 'Lucid', 'Arial', 'Helvetica', 'Avant Garde', sans-serif; text-anchor: end" x="40.72" y="140.240842" transform="rotate(-0 40.72 140.240842)">1.5</text>
     </g>
    </g>
    <g id="ytick_4">
     <g id="line2d_9">
      <g>
       <use xlink:href="#mbb56d010ed" x="47.72" y="89.903948" style="stroke: #000000; stroke-width: 0.8"/>
      </g>
     </g>
     <g id="text_10">
      <text style="font: 10px 'DejaVu Sans', 'Bitstream Vera Sans', 'Computer Modern Sans Serif', 'Lucida Grande', 'Verdana', 'Geneva', 'Lucid', 'Arial', 'Helvetica', 'Avant Garde', sans-serif; text-anchor: end" x="40.72" y="93.703167" transform="rotate(-0 40.72 93.703167)">2.0</text>
     </g>
    </g>
    <g id="ytick_5">
     <g id="line2d_10">
      <g>
       <use xlink:href="#mbb56d010ed" x="47.72" y="43.366274" style="stroke: #000000; stroke-width: 0.8"/>
      </g>
     </g>
     <g id="text_11">
      <text style="font: 10px 'DejaVu Sans', 'Bitstream Vera Sans', 'Computer Modern Sans Serif', 'Lucida Grande', 'Verdana', 'Geneva', 'Lucid', 'Arial', 'Helvetica', 'Avant Garde', sans-serif; text-anchor: end" x="40.72" y="47.165492" transform="rotate(-0 40.72 47.165492)">2.5</text>
     </g>
    </g>
    <g id="text_12">
     <text style="font: 10px 'DejaVu Sans', 'Bitstream Vera Sans', 'Computer Modern Sans Serif', 'Lucida Grande', 'Verdana', 'Geneva', 'Lucid', 'Arial', 'Helvetica', 'Avant Garde', sans-serif; text-anchor: middle" x="18.737188" y="135.38" transform="rotate(-90 18.737188 135.38)">Enrichment odds ratio</text>
    </g>
   </g>
   <g id="line2d_11"/>
   <g id="line2d_12"/>
   <g id="line2d_13"/>
   <g id="line2d_14"/>
   <g id="line2d_15"/>
   <g id="line2d_16"/>
   <g id="line2d_17">
    <path d="M 57.665909 191.458336 
L 59.675184 190.435013 
L 61.684458 189.41169 
L 63.693733 188.388368 
L 65.703007 187.365045 
L 67.712282 186.341722 
L 69.721556 185.318399 
L 71.730831 184.295077 
L 73.740106 183.271754 
L 75.74938 182.248431 
L 77.758655 181.225109 
L 79.767929 180.201786 
L 81.777204 179.178463 
L 83.786478 178.15514 
L 85.795753 177.131818 
L 87.805028 176.108495 
L 89.814302 175.085172 
L 91.823577 174.061849 
L 93.832851 173.038527 
L 95.842126 172.015204 
L 97.8514 170.991881 
L 99.860675 169.968558 
L 101.869949 168.945236 
L 103.879224 167.921913 
L 105.888499 166.89859 
L 107.897773 165.875267 
L 109.907048 164.851945 
L 111.916322 163.828622 
L 113.925597 162.805299 
L 115.934871 161.781976 
L 117.944146 160.758654 
L 119.953421 159.735331 
L 121.962695 158.712008 
L 123.97197 157.688685 
L 125.981244 156.665363 
L 127.990519 155.64204 
L 129.999793 154.618717 
L 132.009068 153.595394 
L 134.018343 152.572072 
L 136.027617 151.548749 
L 138.036892 150.525426 
L 140.046166 149.502103 
L 142.055441 148.478781 
L 144.064715 147.455458 
L 146.07399 146.432135 
L 148.083264 145.408812 
L 150.092539 144.38549 
L 152.101814 143.362167 
L 154.111088 142.338844 
L 156.120363 141.315521 
L 158.129637 140.292199 
L 160.138912 139.268876 
L 162.148186 138.245553 
L 164.157461 137.22223 
L 166.166736 136.198908 
L 168.17601 135.175585 
L 170.185285 134.152262 
L 172.194559 133.128939 
L 174.203834 132.105617 
L 176.213108 131.082294 
L 178.222383 130.058971 
L 180.231657 129.035648 
L 182.240932 128.012326 
L 184.250207 126.989003 
L 186.259481 125.96568 
L 188.268756 124.942357 
L 190.27803 123.919035 
L 192.287305 122.895712 
L 194.296579 121.872389 
L 196.305854 120.849066 
L 198.315129 119.825744 
L 200.324403 118.802421 
L 202.333678 117.779098 
L 204.342952 116.755775 
L 206.352227 115.732453 
L 208.361501 114.70913 
L 210.370776 113.685807 
L 212.380051 112.662484 
L 214.389325 111.639162 
L 216.3986 110.615839 
L 218.407874 109.592516 
L 220.417149 108.569193 
L 222.426423 107.545871 
L 224.435698 106.522548 
L 226.444972 105.499225 
L 228.454247 104.475902 
L 230.463522 103.45258 
L 232.472796 102.429257 
L 234.482071 101.405934 
L 236.491345 100.382611 
L 238.50062 99.359289 
L 240.509894 98.335966 
L 242.519169 97.312643 
L 244.528444 96.28932 
L 246.537718 95.265998 
L 248.546993 94.242675 
L 250.556267 93.219352 
L 252.565542 92.196029 
L 254.574816 91.172707 
L 256.584091 90.149384 
" clip-path="url(#pda9e5e5e01)" style="fill: none; stroke: #000000; stroke-width: 1.5; stroke-linecap: square"/>
   </g>
   <g id="patch_3">
    <path d="M 47.72 246.04 
L 47.72 24.72 
" style="fill: none; stroke: #000000; stroke-width: 0.8; stroke-linejoin: miter; stroke-linecap: square"/>
   </g>
   <g id="patch_4">
    <path d="M 266.53 246.04 
L 266.53 24.72 
" style="fill: none; stroke: #000000; stroke-width: 0.8; stroke-linejoin: miter; stroke-linecap: square"/>
   </g>
   <g id="patch_5">
    <path d="M 47.72 246.04 
L 266.53 246.04 
" style="fill: none; stroke: #000000; stroke-width: 0.8; stroke-linejoin: miter; stroke-linecap: square"/>
   </g>
   <g id="patch_6">
    <path d="M 47.72 24.72 
L 266.53 24.72 
" style="fill: none; stroke: #000000; stroke-width: 0.8; stroke-linejoin: miter; stroke-linecap: square"/>
   </g>
   <g id="text_13">
    <g id="patch_7">
     <path d="M 58.6605 59.074344 
L 134.903156 59.074344 
Q 139.403156 59.074344 139.403156 54.574344 
L 139.403156 35.786 
Q 139.403156 31.286 134.903156 31.286 
L 58.6605 31.286 
Q 54.1605 31.286 54.1605 35.786 
L 54.1605 54.574344 
Q 54.1605 59.074344 58.6605 59.074344 
z
" style="fill: #ffffff; opacity: 0.8; stroke: #000000; stroke-linejoin: miter"/>
    </g>
    <text style="font: 9px 'DejaVu Sans', 'Bitstream Vera Sans', 'Computer Modern Sans Serif', 'Lucida Grande', 'Verdana', 'Geneva', 'Lucid', 'Arial', 'Helvetica', 'Avant Garde', sans-serif" transform="translate(58.6605 42.624594)">Pearson R: 0.502</text>
    <text style="font: 9px 'DejaVu Sans', 'Bitstream Vera Sans', 'Computer Modern Sans Serif', 'Lucida Grande', 'Verdana', 'Geneva', 'Lucid', 'Arial', 'Helvetica', 'Avant Garde', sans-serif" transform="translate(58.6605 52.702625)">p &lt; 0.001</text>
   </g>
   <g id="text_14">
    <text style="font: 10px 'DejaVu Sans', 'Bitstream Vera Sans', 'Computer Modern Sans Serif', 'Lucida Grande', 'Verdana', 'Geneva', 'Lucid', 'Arial', 'Helvetica', 'Avant Garde', sans-serif; text-anchor: middle" x="157.125" y="18.72" transform="rotate(-0 157.125 18.72)">Enrichment odds ratio vs TE count by family</text>
   </g>
   <g id="legend_1">
    <g id="patch_8">
     <path d="M 273.53 188.253438 
L 415.720625 188.253438 
Q 417.720625 188.253438 417.720625 186.253438 
L 417.720625 84.506563 
Q 417.720625 82.506563 415.720625 82.506563 
L 273.53 82.506563 
Q 271.53 82.506563 271.53 84.506563 
L 271.53 186.253438 
Q 271.53 188.253438 273.53 188.253438 
z
" style="fill: #ffffff; opacity: 0.8; stroke: #cccccc; stroke-linejoin: miter"/>
    </g>
    <g id="line2d_18">
     <defs>
      <path id="me08ab86e04" d="M 0 3 
C 0.795609 3 1.55874 2.683901 2.12132 2.12132 
C 2.683901 1.55874 3 0.795609 3 0 
C 3 -0.795609 2.683901 -1.55874 2.12132 -2.12132 
C 1.55874 -2.683901 0.795609 -3 0 -3 
C -0.795609 -3 -1.55874 -2.683901 -2.12132 -2.12132 
C -2.683901 -1.55874 -3 -0.795609 -3 0 
C -3 0.795609 -2.683901 1.55874 -2.12132 2.12132 
C -1.55874 2.683901 -0.795609 3 0 3 
z
" style="stroke: #ffffff; stroke-width: 0.48"/>
     </defs>
     <g>
      <use xlink:href="#me08ab86e04" x="285.53" y="90.605" style="fill: #195f90; stroke: #ffffff; stroke-width: 0.48"/>
     </g>
    </g>
    <g id="text_15">
     <text style="font: 10px 'DejaVu Sans', 'Bitstream Vera Sans', 'Computer Modern Sans Serif', 'Lucida Grande', 'Verdana', 'Geneva', 'Lucid', 'Arial', 'Helvetica', 'Avant Garde', sans-serif; text-anchor: start" x="303.53" y="94.105" transform="rotate(-0 303.53 94.105)">DNA</text>
    </g>
    <g id="line2d_19">
     <defs>
      <path id="m5042ae3dfd" d="M 0 3 
C 0.795609 3 1.55874 2.683901 2.12132 2.12132 
C 2.683901 1.55874 3 0.795609 3 0 
C 3 -0.795609 2.683901 -1.55874 2.12132 -2.12132 
C 1.55874 -2.683901 0.795609 -3 0 -3 
C -0.795609 -3 -1.55874 -2.683901 -2.12132 -2.12132 
C -2.683901 -1.55874 -3 -0.795609 -3 0 
C -3 0.795609 -2.683901 1.55874 -2.12132 2.12132 
C -1.55874 2.683901 -0.795609 3 0 3 
z
" style="stroke: #ffffff; stroke-width: 0.48"/>
     </defs>
     <g>
      <use xlink:href="#m5042ae3dfd" x="285.53" y="105.283125" style="fill: #70453c; stroke: #ffffff; stroke-width: 0.48"/>
     </g>
    </g>
    <g id="text_16">
     <text style="font: 10px 'DejaVu Sans', 'Bitstream Vera Sans', 'Computer Modern Sans Serif', 'Lucida Grande', 'Verdana', 'Geneva', 'Lucid', 'Arial', 'Helvetica', 'Avant Garde', sans-serif; text-anchor: start" x="303.53" y="108.783125" transform="rotate(-0 303.53 108.783125)">LTR</text>
    </g>
    <g id="line2d_20">
     <defs>
      <path id="maa2cf68580" d="M 0 3 
C 0.795609 3 1.55874 2.683901 2.12132 2.12132 
C 2.683901 1.55874 3 0.795609 3 0 
C 3 -0.795609 2.683901 -1.55874 2.12132 -2.12132 
C 1.55874 -2.683901 0.795609 -3 0 -3 
C -0.795609 -3 -1.55874 -2.683901 -2.12132 -2.12132 
C -2.683901 -1.55874 -3 -0.795609 -3 0 
C -3 0.795609 -2.683901 1.55874 -2.12132 2.12132 
C -1.55874 2.683901 -0.795609 3 0 3 
z
" style="stroke: #ffffff; stroke-width: 0.48"/>
     </defs>
     <g>
      <use xlink:href="#maa2cf68580" x="285.53" y="119.96125" style="fill: #cc660b; stroke: #ffffff; stroke-width: 0.48"/>
     </g>
    </g>
    <g id="text_17">
     <text style="font: 10px 'DejaVu Sans', 'Bitstream Vera Sans', 'Computer Modern Sans Serif', 'Lucida Grande', 'Verdana', 'Geneva', 'Lucid', 'Arial', 'Helvetica', 'Avant Garde', sans-serif; text-anchor: start" x="303.53" y="123.46125" transform="rotate(-0 303.53 123.46125)">LINE</text>
    </g>
    <g id="line2d_21">
     <defs>
      <path id="md1335a257e" d="M 0 3 
C 0.795609 3 1.55874 2.683901 2.12132 2.12132 
C 2.683901 1.55874 3 0.795609 3 0 
C 3 -0.795609 2.683901 -1.55874 2.12132 -2.12132 
C 1.55874 -2.683901 0.795609 -3 0 -3 
C -0.795609 -3 -1.55874 -2.683901 -2.12132 -2.12132 
C -2.683901 -1.55874 -3 -0.795609 -3 0 
C -3 0.795609 -2.683901 1.55874 -2.12132 2.12132 
C -1.55874 2.683901 -0.795609 3 0 3 
z
" style="stroke: #ffffff; stroke-width: 0.48"/>
     </defs>
     <g>
      <use xlink:href="#md1335a257e" x="285.53" y="134.639375" style="fill: #238023; stroke: #ffffff; stroke-width: 0.48"/>
     </g>
    </g>
    <g id="text_18">
     <text style="font: 10px 'DejaVu Sans', 'Bitstream Vera Sans', 'Computer Modern Sans Serif', 'Lucida Grande', 'Verdana', 'Geneva', 'Lucid', 'Arial', 'Helvetica', 'Avant Garde', sans-serif; text-anchor: start" x="303.53" y="138.139375" transform="rotate(-0 303.53 138.139375)">RC</text>
    </g>
    <g id="line2d_22">
     <defs>
      <path id="m7f3d707de5" d="M 0 3 
C 0.795609 3 1.55874 2.683901 2.12132 2.12132 
C 2.683901 1.55874 3 0.795609 3 0 
C 3 -0.795609 2.683901 -1.55874 2.12132 -2.12132 
C 1.55874 -2.683901 0.795609 -3 0 -3 
C -0.795609 -3 -1.55874 -2.683901 -2.12132 -2.12132 
C -2.683901 -1.55874 -3 -0.795609 -3 0 
C -3 0.795609 -2.683901 1.55874 -2.12132 2.12132 
C -1.55874 2.683901 -0.795609 3 0 3 
z
" style="stroke: #ffffff; stroke-width: 0.48"/>
     </defs>
     <g>
      <use xlink:href="#m7f3d707de5" x="285.53" y="149.3175" style="fill: #ab1f20; stroke: #ffffff; stroke-width: 0.48"/>
     </g>
    </g>
    <g id="text_19">
     <text style="font: 10px 'DejaVu Sans', 'Bitstream Vera Sans', 'Computer Modern Sans Serif', 'Lucida Grande', 'Verdana', 'Geneva', 'Lucid', 'Arial', 'Helvetica', 'Avant Garde', sans-serif; text-anchor: start" x="303.53" y="152.8175" transform="rotate(-0 303.53 152.8175)">SINE</text>
    </g>
    <g id="line2d_23">
     <defs>
      <path id="m924c6aeec1" d="M 0 3 
C 0.795609 3 1.55874 2.683901 2.12132 2.12132 
C 2.683901 1.55874 3 0.795609 3 0 
C 3 -0.795609 2.683901 -1.55874 2.12132 -2.12132 
C 1.55874 -2.683901 0.795609 -3 0 -3 
C -0.795609 -3 -1.55874 -2.683901 -2.12132 -2.12132 
C -2.683901 -1.55874 -3 -0.795609 -3 0 
C -3 0.795609 -2.683901 1.55874 -2.12132 2.12132 
C -1.55874 2.683901 -0.795609 3 0 3 
z
" style="stroke: #ffffff; stroke-width: 0.48"/>
     </defs>
     <g>
      <use xlink:href="#m924c6aeec1" x="285.53" y="163.995625" style="fill: #765297; stroke: #ffffff; stroke-width: 0.48"/>
     </g>
    </g>
    <g id="text_20">
     <text style="font: 10px 'DejaVu Sans', 'Bitstream Vera Sans', 'Computer Modern Sans Serif', 'Lucida Grande', 'Verdana', 'Geneva', 'Lucid', 'Arial', 'Helvetica', 'Avant Garde', sans-serif; text-anchor: start" x="303.53" y="167.495625" transform="rotate(-0 303.53 167.495625)">Retroposon</text>
    </g>
    <g id="line2d_24">
     <path d="M 275.53 178.67375 
L 285.53 178.67375 
L 295.53 178.67375 
" style="fill: none; stroke: #000000; stroke-width: 1.5; stroke-linecap: square"/>
    </g>
    <g id="text_21">
     <text style="font: 10px 'DejaVu Sans', 'Bitstream Vera Sans', 'Computer Modern Sans Serif', 'Lucida Grande', 'Verdana', 'Geneva', 'Lucid', 'Arial', 'Helvetica', 'Avant Garde', sans-serif; text-anchor: start" x="303.53" y="182.17375" transform="rotate(-0 303.53 182.17375)">Linear Trend (R=0.50)</text>
    </g>
   </g>
  </g>
 </g>
 <defs>
  <clipPath id="pda9e5e5e01">
   <rect x="47.72" y="24.72" width="218.81" height="221.32"/>
  </clipPath>
 </defs>
</svg>
