<?xml version="1.0" encoding="utf-8" standalone="no"?>
<!DOCTYPE svg PUBLIC "-//W3C//DTD SVG 1.1//EN"
  "http://www.w3.org/Graphics/SVG/1.1/DTD/svg11.dtd">
<svg xmlns:xlink="http://www.w3.org/1999/xlink" width="504pt" height="288pt" viewBox="0 0 504 288" xmlns="http://www.w3.org/2000/svg" version="1.1">
 <metadata>
  <rdf:RDF xmlns:dc="http://purl.org/dc/elements/1.1/" xmlns:cc="http://creativecommons.org/ns#" xmlns:rdf="http://www.w3.org/1999/02/22-rdf-syntax-ns#">
   <cc:Work>
    <dc:type rdf:resource="http://purl.org/dc/dcmitype/StillImage"/>
    <dc:date>2025-12-18T18:10:54.030668</dc:date>
    <dc:format>image/svg+xml</dc:format>
    <dc:creator>
     <cc:Agent>
      <dc:title>Matplotlib v3.8.4, https://matplotlib.org/</dc:title>
     </cc:Agent>
    </dc:creator>
   </cc:Work>
  </rdf:RDF>
 </metadata>
 <defs>
  <style type="text/css">*{stroke-linejoin: round; stroke-linecap: butt}</style>
 </defs>
 <g id="figure_1">
  <g id="patch_1">
   <path d="M 0 288 
L 504 288 
L 504 0 
L 0 0 
L 0 288 
z
" style="fill: none"/>
  </g>
  <g id="axes_1">
   <g id="patch_2">
    <path d="M 47.91125 245.93875 
L 262.93 245.93875 
L 262.93 24.72 
L 47.91125 24.72 
L 47.91125 245.93875 
z
" style="fill: none"/>
   </g>
   <g id="PathCollection_1">
    <path d="M 214.713788 238.883352 
C 215.509397 238.883352 216.272527 238.567253 216.835108 238.004673 
C 217.397689 237.442092 217.713788 236.678962 217.713788 235.883352 
C 217.713788 235.087743 217.397689 234.324613 216.835108 233.762032 
C 216.272527 233.199451 215.509397 232.883352 214.713788 232.883352 
C 213.918179 232.883352 213.155048 233.199451 212.592467 233.762032 
C 212.029887 234.324613 211.713788 235.087743 211.713788 235.883352 
C 211.713788 236.678962 212.029887 237.442092 212.592467 238.004673 
C 213.155048 238.567253 213.918179 238.883352 214.713788 238.883352 
z
" clip-path="url(#pb58b94f7f5)" style="fill: #195f90; stroke: #ffffff; stroke-width: 0.48"/>
    <path d="M 176.323608 232.778781 
C 177.119217 232.778781 177.882348 232.462682 178.444928 231.900101 
C 179.007509 231.33752 179.323608 230.57439 179.323608 229.778781 
C 179.323608 228.983171 179.007509 228.220041 178.444928 227.65746 
C 177.882348 227.09488 177.119217 226.778781 176.323608 226.778781 
C 175.527999 226.778781 174.764868 227.09488 174.202288 227.65746 
C 173.639707 228.220041 173.323608 228.983171 173.323608 229.778781 
C 173.323608 230.57439 173.639707 231.33752 174.202288 231.900101 
C 174.764868 232.462682 175.527999 232.778781 176.323608 232.778781 
z
" clip-path="url(#pb58b94f7f5)" style="fill: #195f90; stroke: #ffffff; stroke-width: 0.48"/>
    <path d="M 177.993923 223.500414 
L 179.493923 222.000414 
L 180.993923 223.500414 
L 182.493923 222.000414 
L 180.993923 220.500414 
L 182.493923 219.000414 
L 180.993923 217.500414 
L 179.493923 219.000414 
L 177.993923 217.500414 
L 176.493923 219.000414 
L 177.993923 220.500414 
L 176.493923 222.000414 
z
" clip-path="url(#pb58b94f7f5)" style="fill: #195f90; stroke: #ffffff; stroke-width: 0.48"/>
    <path d="M 212.677532 222.101532 
L 214.177532 220.601532 
L 215.677532 222.101532 
L 217.177532 220.601532 
L 215.677532 219.101532 
L 217.177532 217.601532 
L 215.677532 216.101532 
L 214.177532 217.601532 
L 212.677532 216.101532 
L 211.177532 217.601532 
L 212.677532 219.101532 
L 211.177532 220.601532 
z
" clip-path="url(#pb58b94f7f5)" style="fill: #195f90; stroke: #ffffff; stroke-width: 0.48"/>
    <path d="M 211.907901 199.138156 
L 213.407901 197.638156 
L 214.907901 199.138156 
L 216.407901 197.638156 
L 214.907901 196.138156 
L 216.407901 194.638156 
L 214.907901 193.138156 
L 213.407901 194.638156 
L 211.907901 193.138156 
L 210.407901 194.638156 
L 211.907901 196.138156 
L 210.407901 197.638156 
z
" clip-path="url(#pb58b94f7f5)" style="fill: #195f90; stroke: #ffffff; stroke-width: 0.48"/>
    <path d="M 215.398696 189.365583 
L 216.898696 187.865583 
L 218.398696 189.365583 
L 219.898696 187.865583 
L 218.398696 186.365583 
L 219.898696 184.865583 
L 218.398696 183.365583 
L 216.898696 184.865583 
L 215.398696 183.365583 
L 213.898696 184.865583 
L 215.398696 186.365583 
L 213.898696 187.865583 
z
" clip-path="url(#pb58b94f7f5)" style="fill: #195f90; stroke: #ffffff; stroke-width: 0.48"/>
    <path d="M 199.375388 191.792824 
L 200.875388 190.292824 
L 202.375388 191.792824 
L 203.875388 190.292824 
L 202.375388 188.792824 
L 203.875388 187.292824 
L 202.375388 185.792824 
L 200.875388 187.292824 
L 199.375388 185.792824 
L 197.875388 187.292824 
L 199.375388 188.792824 
L 197.875388 190.292824 
z
" clip-path="url(#pb58b94f7f5)" style="fill: #195f90; stroke: #ffffff; stroke-width: 0.48"/>
    <path d="M 200.769944 186.980935 
L 202.269944 185.480935 
L 203.769944 186.980935 
L 205.269944 185.480935 
L 203.769944 183.980935 
L 205.269944 182.480935 
L 203.769944 180.980935 
L 202.269944 182.480935 
L 200.769944 180.980935 
L 199.269944 182.480935 
L 200.769944 183.980935 
L 199.269944 185.480935 
z
" clip-path="url(#pb58b94f7f5)" style="fill: #195f90; stroke: #ffffff; stroke-width: 0.48"/>
    <path d="M 205.571207 183.821814 
L 207.071207 182.321814 
L 208.571207 183.821814 
L 210.071207 182.321814 
L 208.571207 180.821814 
L 210.071207 179.321814 
L 208.571207 177.821814 
L 207.071207 179.321814 
L 205.571207 177.821814 
L 204.071207 179.321814 
L 205.571207 180.821814 
L 204.071207 182.321814 
z
" clip-path="url(#pb58b94f7f5)" style="fill: #195f90; stroke: #ffffff; stroke-width: 0.48"/>
    <path d="M 162.393094 187.959223 
C 163.188704 187.959223 163.951834 187.643124 164.514415 187.080543 
C 165.076996 186.517962 165.393094 185.754832 165.393094 184.959223 
C 165.393094 184.163613 165.076996 183.400483 164.514415 182.837902 
C 163.951834 182.275322 163.188704 181.959223 162.393094 181.959223 
C 161.597485 181.959223 160.834355 182.275322 160.271774 182.837902 
C 159.709193 183.400483 159.393094 184.163613 159.393094 184.959223 
C 159.393094 185.754832 159.709193 186.517962 160.271774 187.080543 
C 160.834355 187.643124 161.597485 187.959223 162.393094 187.959223 
z
" clip-path="url(#pb58b94f7f5)" style="fill: #70453c; stroke: #ffffff; stroke-width: 0.48"/>
    <path d="M 188.904779 189.677398 
C 189.700388 189.677398 190.463518 189.361299 191.026099 188.798718 
C 191.58868 188.236137 191.904779 187.473007 191.904779 186.677398 
C 191.904779 185.881788 191.58868 185.118658 191.026099 184.556077 
C 190.463518 183.993497 189.700388 183.677398 188.904779 183.677398 
C 188.10917 183.677398 187.346039 183.993497 186.783458 184.556077 
C 186.220878 185.118658 185.904779 185.881788 185.904779 186.677398 
C 185.904779 187.473007 186.220878 188.236137 186.783458 188.798718 
C 187.346039 189.361299 188.10917 189.677398 188.904779 189.677398 
z
" clip-path="url(#pb58b94f7f5)" style="fill: #70453c; stroke: #ffffff; stroke-width: 0.48"/>
    <path d="M 93.641674 181.81538 
C 94.437283 181.81538 95.200414 181.499281 95.762994 180.936701 
C 96.325575 180.37412 96.641674 179.61099 96.641674 178.81538 
C 96.641674 178.019771 96.325575 177.256641 95.762994 176.69406 
C 95.200414 176.131479 94.437283 175.81538 93.641674 175.81538 
C 92.846065 175.81538 92.082934 176.131479 91.520354 176.69406 
C 90.957773 177.256641 90.641674 178.019771 90.641674 178.81538 
C 90.641674 179.61099 90.957773 180.37412 91.520354 180.936701 
C 92.082934 181.499281 92.846065 181.81538 93.641674 181.81538 
z
" clip-path="url(#pb58b94f7f5)" style="fill: #195f90; stroke: #ffffff; stroke-width: 0.48"/>
    <path d="M 225.951668 191.656244 
L 227.451668 190.156244 
L 228.951668 191.656244 
L 230.451668 190.156244 
L 228.951668 188.656244 
L 230.451668 187.156244 
L 228.951668 185.656244 
L 227.451668 187.156244 
L 225.951668 185.656244 
L 224.451668 187.156244 
L 225.951668 188.656244 
L 224.451668 190.156244 
z
" clip-path="url(#pb58b94f7f5)" style="fill: #cc660b; stroke: #ffffff; stroke-width: 0.48"/>
    <path d="M 144.349245 196.615337 
C 145.144854 196.615337 145.907984 196.299238 146.470565 195.736657 
C 147.033146 195.174077 147.349245 194.410946 147.349245 193.615337 
C 147.349245 192.819728 147.033146 192.056597 146.470565 191.494017 
C 145.907984 190.931436 145.144854 190.615337 144.349245 190.615337 
C 143.553635 190.615337 142.790505 190.931436 142.227924 191.494017 
C 141.665344 192.056597 141.349245 192.819728 141.349245 193.615337 
C 141.349245 194.410946 141.665344 195.174077 142.227924 195.736657 
C 142.790505 196.299238 143.553635 196.615337 144.349245 196.615337 
z
" clip-path="url(#pb58b94f7f5)" style="fill: #195f90; stroke: #ffffff; stroke-width: 0.48"/>
    <path d="M 226.061057 187.304649 
C 226.856666 187.304649 227.619797 186.98855 228.182377 186.425969 
C 228.744958 185.863389 229.061057 185.100258 229.061057 184.304649 
C 229.061057 183.50904 228.744958 182.745909 228.182377 182.183329 
C 227.619797 181.620748 226.856666 181.304649 226.061057 181.304649 
C 225.265448 181.304649 224.502318 181.620748 223.939737 182.183329 
C 223.377156 182.745909 223.061057 183.50904 223.061057 184.304649 
C 223.061057 185.100258 223.377156 185.863389 223.939737 186.425969 
C 224.502318 186.98855 225.265448 187.304649 226.061057 187.304649 
z
" clip-path="url(#pb58b94f7f5)" style="fill: #70453c; stroke: #ffffff; stroke-width: 0.48"/>
    <path d="M 178.183485 200.479468 
L 179.683485 198.979468 
L 181.183485 200.479468 
L 182.683485 198.979468 
L 181.183485 197.479468 
L 182.683485 195.979468 
L 181.183485 194.479468 
L 179.683485 195.979468 
L 178.183485 194.479468 
L 176.683485 195.979468 
L 178.183485 197.479468 
L 176.683485 198.979468 
z
" clip-path="url(#pb58b94f7f5)" style="fill: #195f90; stroke: #ffffff; stroke-width: 0.48"/>
    <path d="M 209.68471 174.640327 
C 210.48032 174.640327 211.24345 174.324229 211.806031 173.761648 
C 212.368611 173.199067 212.68471 172.435937 212.68471 171.640327 
C 212.68471 170.844718 212.368611 170.081588 211.806031 169.519007 
C 211.24345 168.956426 210.48032 168.640327 209.68471 168.640327 
C 208.889101 168.640327 208.125971 168.956426 207.56339 169.519007 
C 207.000809 170.081588 206.68471 170.844718 206.68471 171.640327 
C 206.68471 172.435937 207.000809 173.199067 207.56339 173.761648 
C 208.125971 174.324229 208.889101 174.640327 209.68471 174.640327 
z
" clip-path="url(#pb58b94f7f5)" style="fill: #195f90; stroke: #ffffff; stroke-width: 0.48"/>
    <path d="M 219.553681 176.519021 
C 220.349291 176.519021 221.112421 176.202922 221.675002 175.640341 
C 222.237582 175.077761 222.553681 174.31463 222.553681 173.519021 
C 222.553681 172.723412 222.237582 171.960281 221.675002 171.397701 
C 221.112421 170.83512 220.349291 170.519021 219.553681 170.519021 
C 218.758072 170.519021 217.994942 170.83512 217.432361 171.397701 
C 216.86978 171.960281 216.553681 172.723412 216.553681 173.519021 
C 216.553681 174.31463 216.86978 175.077761 217.432361 175.640341 
C 217.994942 176.202922 218.758072 176.519021 219.553681 176.519021 
z
" clip-path="url(#pb58b94f7f5)" style="fill: #238023; stroke: #ffffff; stroke-width: 0.48"/>
    <path d="M 117.741612 166.44729 
C 118.537221 166.44729 119.300351 166.131192 119.862932 165.568611 
C 120.425513 165.00603 120.741612 164.2429 120.741612 163.44729 
C 120.741612 162.651681 120.425513 161.888551 119.862932 161.32597 
C 119.300351 160.763389 118.537221 160.44729 117.741612 160.44729 
C 116.946003 160.44729 116.182872 160.763389 115.620292 161.32597 
C 115.057711 161.888551 114.741612 162.651681 114.741612 163.44729 
C 114.741612 164.2429 115.057711 165.00603 115.620292 165.568611 
C 116.182872 166.131192 116.946003 166.44729 117.741612 166.44729 
z
" clip-path="url(#pb58b94f7f5)" style="fill: #195f90; stroke: #ffffff; stroke-width: 0.48"/>
    <path d="M 165.819175 156.889066 
C 166.614785 156.889066 167.377915 156.572967 167.940496 156.010387 
C 168.503076 155.447806 168.819175 154.684676 168.819175 153.889066 
C 168.819175 153.093457 168.503076 152.330327 167.940496 151.767746 
C 167.377915 151.205165 166.614785 150.889066 165.819175 150.889066 
C 165.023566 150.889066 164.260436 151.205165 163.697855 151.767746 
C 163.135274 152.330327 162.819175 153.093457 162.819175 153.889066 
C 162.819175 154.684676 163.135274 155.447806 163.697855 156.010387 
C 164.260436 156.572967 165.023566 156.889066 165.819175 156.889066 
z
" clip-path="url(#pb58b94f7f5)" style="fill: #195f90; stroke: #ffffff; stroke-width: 0.48"/>
    <path d="M 193.365223 151.772396 
C 194.160832 151.772396 194.923963 151.456298 195.486543 150.893717 
C 196.049124 150.331136 196.365223 149.568006 196.365223 148.772396 
C 196.365223 147.976787 196.049124 147.213657 195.486543 146.651076 
C 194.923963 146.088495 194.160832 145.772396 193.365223 145.772396 
C 192.569614 145.772396 191.806483 146.088495 191.243903 146.651076 
C 190.681322 147.213657 190.365223 147.976787 190.365223 148.772396 
C 190.365223 149.568006 190.681322 150.331136 191.243903 150.893717 
C 191.806483 151.456298 192.569614 151.772396 193.365223 151.772396 
z
" clip-path="url(#pb58b94f7f5)" style="fill: #195f90; stroke: #ffffff; stroke-width: 0.48"/>
    <path d="M 178.989404 133.198712 
L 180.489404 131.698712 
L 181.989404 133.198712 
L 183.489404 131.698712 
L 181.989404 130.198712 
L 183.489404 128.698712 
L 181.989404 127.198712 
L 180.489404 128.698712 
L 178.989404 127.198712 
L 177.489404 128.698712 
L 178.989404 130.198712 
L 177.489404 131.698712 
z
" clip-path="url(#pb58b94f7f5)" style="fill: #195f90; stroke: #ffffff; stroke-width: 0.48"/>
    <path d="M 223.374871 133.824948 
L 224.874871 132.324948 
L 226.374871 133.824948 
L 227.874871 132.324948 
L 226.374871 130.824948 
L 227.874871 129.324948 
L 226.374871 127.824948 
L 224.874871 129.324948 
L 223.374871 127.824948 
L 221.874871 129.324948 
L 223.374871 130.824948 
L 221.874871 132.324948 
z
" clip-path="url(#pb58b94f7f5)" style="fill: #ab1f20; stroke: #ffffff; stroke-width: 0.48"/>
    <path d="M 251.65642 124.087238 
L 253.15642 122.587238 
L 254.65642 124.087238 
L 256.15642 122.587238 
L 254.65642 121.087238 
L 256.15642 119.587238 
L 254.65642 118.087238 
L 253.15642 119.587238 
L 251.65642 118.087238 
L 250.15642 119.587238 
L 251.65642 121.087238 
L 250.15642 122.587238 
z
" clip-path="url(#pb58b94f7f5)" style="fill: #ab1f20; stroke: #ffffff; stroke-width: 0.48"/>
    <path d="M 124.504741 138.862737 
C 125.30035 138.862737 126.063481 138.546638 126.626061 137.984057 
C 127.188642 137.421476 127.504741 136.658346 127.504741 135.862737 
C 127.504741 135.067127 127.188642 134.303997 126.626061 133.741416 
C 126.063481 133.178836 125.30035 132.862737 124.504741 132.862737 
C 123.709132 132.862737 122.946001 133.178836 122.383421 133.741416 
C 121.82084 134.303997 121.504741 135.067127 121.504741 135.862737 
C 121.504741 136.658346 121.82084 137.421476 122.383421 137.984057 
C 122.946001 138.546638 123.709132 138.862737 124.504741 138.862737 
z
" clip-path="url(#pb58b94f7f5)" style="fill: #70453c; stroke: #ffffff; stroke-width: 0.48"/>
    <path d="M 204.158265 125.217309 
L 205.658265 123.717309 
L 207.158265 125.217309 
L 208.658265 123.717309 
L 207.158265 122.217309 
L 208.658265 120.717309 
L 207.158265 119.217309 
L 205.658265 120.717309 
L 204.158265 119.217309 
L 202.658265 120.717309 
L 204.158265 122.217309 
L 202.658265 123.717309 
z
" clip-path="url(#pb58b94f7f5)" style="fill: #195f90; stroke: #ffffff; stroke-width: 0.48"/>
    <path d="M 185.459392 117.058331 
C 186.255002 117.058331 187.018132 116.742232 187.580713 116.179652 
C 188.143294 115.617071 188.459392 114.853941 188.459392 114.058331 
C 188.459392 113.262722 188.143294 112.499592 187.580713 111.937011 
C 187.018132 111.37443 186.255002 111.058331 185.459392 111.058331 
C 184.663783 111.058331 183.900653 111.37443 183.338072 111.937011 
C 182.775491 112.499592 182.459392 113.262722 182.459392 114.058331 
C 182.459392 114.853941 182.775491 115.617071 183.338072 116.179652 
C 183.900653 116.742232 184.663783 117.058331 185.459392 117.058331 
z
" clip-path="url(#pb58b94f7f5)" style="fill: #195f90; stroke: #ffffff; stroke-width: 0.48"/>
    <path d="M 212.110636 116.568172 
L 213.610636 115.068172 
L 215.110636 116.568172 
L 216.610636 115.068172 
L 215.110636 113.568172 
L 216.610636 112.068172 
L 215.110636 110.568172 
L 213.610636 112.068172 
L 212.110636 110.568172 
L 210.610636 112.068172 
L 212.110636 113.568172 
L 210.610636 115.068172 
z
" clip-path="url(#pb58b94f7f5)" style="fill: #cc660b; stroke: #ffffff; stroke-width: 0.48"/>
    <path d="M 234.124265 161.066081 
L 235.624265 159.566081 
L 237.124265 161.066081 
L 238.624265 159.566081 
L 237.124265 158.066081 
L 238.624265 156.566081 
L 237.124265 155.066081 
L 235.624265 156.566081 
L 234.124265 155.066081 
L 232.624265 156.566081 
L 234.124265 158.066081 
L 232.624265 159.566081 
z
" clip-path="url(#pb58b94f7f5)" style="fill: #cc660b; stroke: #ffffff; stroke-width: 0.48"/>
    <path d="M 236.879594 101.912178 
L 238.379594 100.412178 
L 239.879594 101.912178 
L 241.379594 100.412178 
L 239.879594 98.912178 
L 241.379594 97.412178 
L 239.879594 95.912178 
L 238.379594 97.412178 
L 236.879594 95.912178 
L 235.379594 97.412178 
L 236.879594 98.912178 
L 235.379594 100.412178 
z
" clip-path="url(#pb58b94f7f5)" style="fill: #ab1f20; stroke: #ffffff; stroke-width: 0.48"/>
    <path d="M 146.568213 172.794191 
C 147.363823 172.794191 148.126953 172.478092 148.689534 171.915511 
C 149.252115 171.35293 149.568213 170.5898 149.568213 169.794191 
C 149.568213 168.998582 149.252115 168.235451 148.689534 167.672871 
C 148.126953 167.11029 147.363823 166.794191 146.568213 166.794191 
C 145.772604 166.794191 145.009474 167.11029 144.446893 167.672871 
C 143.884312 168.235451 143.568213 168.998582 143.568213 169.794191 
C 143.568213 170.5898 143.884312 171.35293 144.446893 171.915511 
C 145.009474 172.478092 145.772604 172.794191 146.568213 172.794191 
z
" clip-path="url(#pb58b94f7f5)" style="fill: #cc660b; stroke: #ffffff; stroke-width: 0.48"/>
    <path d="M 203.707564 132.389418 
L 205.207564 130.889418 
L 206.707564 132.389418 
L 208.207564 130.889418 
L 206.707564 129.389418 
L 208.207564 127.889418 
L 206.707564 126.389418 
L 205.207564 127.889418 
L 203.707564 126.389418 
L 202.207564 127.889418 
L 203.707564 129.389418 
L 202.207564 130.889418 
z
" clip-path="url(#pb58b94f7f5)" style="fill: #195f90; stroke: #ffffff; stroke-width: 0.48"/>
    <path d="M 229.230572 160.156158 
C 230.026182 160.156158 230.789312 159.840059 231.351893 159.277479 
C 231.914474 158.714898 232.230572 157.951767 232.230572 157.156158 
C 232.230572 156.360549 231.914474 155.597419 231.351893 155.034838 
C 230.789312 154.472257 230.026182 154.156158 229.230572 154.156158 
C 228.434963 154.156158 227.671833 154.472257 227.109252 155.034838 
C 226.546671 155.597419 226.230572 156.360549 226.230572 157.156158 
C 226.230572 157.951767 226.546671 158.714898 227.109252 159.277479 
C 227.671833 159.840059 228.434963 160.156158 229.230572 160.156158 
z
" clip-path="url(#pb58b94f7f5)" style="fill: #cc660b; stroke: #ffffff; stroke-width: 0.48"/>
    <path d="M 219.873112 94.399002 
L 221.373112 92.899002 
L 222.873112 94.399002 
L 224.373112 92.899002 
L 222.873112 91.399002 
L 224.373112 89.899002 
L 222.873112 88.399002 
L 221.373112 89.899002 
L 219.873112 88.399002 
L 218.373112 89.899002 
L 219.873112 91.399002 
L 218.373112 92.899002 
z
" clip-path="url(#pb58b94f7f5)" style="fill: #ab1f20; stroke: #ffffff; stroke-width: 0.48"/>
    <path d="M 186.880364 101.384702 
L 188.380364 99.884702 
L 189.880364 101.384702 
L 191.380364 99.884702 
L 189.880364 98.384702 
L 191.380364 96.884702 
L 189.880364 95.384702 
L 188.380364 96.884702 
L 186.880364 95.384702 
L 185.380364 96.884702 
L 186.880364 98.384702 
L 185.380364 99.884702 
z
" clip-path="url(#pb58b94f7f5)" style="fill: #cc660b; stroke: #ffffff; stroke-width: 0.48"/>
    <path d="M 56.18483 108.302727 
L 57.68483 106.802727 
L 59.18483 108.302727 
L 60.68483 106.802727 
L 59.18483 105.302727 
L 60.68483 103.802727 
L 59.18483 102.302727 
L 57.68483 103.802727 
L 56.18483 102.302727 
L 54.68483 103.802727 
L 56.18483 105.302727 
L 54.68483 106.802727 
z
" clip-path="url(#pb58b94f7f5)" style="fill: #70453c; stroke: #ffffff; stroke-width: 0.48"/>
    <path d="M 246.843095 135.887824 
L 248.343095 134.387824 
L 249.843095 135.887824 
L 251.343095 134.387824 
L 249.843095 132.887824 
L 251.343095 131.387824 
L 249.843095 129.887824 
L 248.343095 131.387824 
L 246.843095 129.887824 
L 245.343095 131.387824 
L 246.843095 132.887824 
L 245.343095 134.387824 
z
" clip-path="url(#pb58b94f7f5)" style="fill: #cc660b; stroke: #ffffff; stroke-width: 0.48"/>
    <path d="M 229.037113 64.615033 
C 229.832722 64.615033 230.595853 64.298934 231.158434 63.736353 
C 231.721014 63.173772 232.037113 62.410642 232.037113 61.615033 
C 232.037113 60.819423 231.721014 60.056293 231.158434 59.493712 
C 230.595853 58.931131 229.832722 58.615033 229.037113 58.615033 
C 228.241504 58.615033 227.478374 58.931131 226.915793 59.493712 
C 226.353212 60.056293 226.037113 60.819423 226.037113 61.615033 
C 226.037113 62.410642 226.353212 63.173772 226.915793 63.736353 
C 227.478374 64.298934 228.241504 64.615033 229.037113 64.615033 
z
" clip-path="url(#pb58b94f7f5)" style="fill: #ab1f20; stroke: #ffffff; stroke-width: 0.48"/>
    <path d="M 207.26507 115.561599 
L 208.76507 114.061599 
L 210.26507 115.561599 
L 211.76507 114.061599 
L 210.26507 112.561599 
L 211.76507 111.061599 
L 210.26507 109.561599 
L 208.76507 111.061599 
L 207.26507 109.561599 
L 205.76507 111.061599 
L 207.26507 112.561599 
L 205.76507 114.061599 
z
" clip-path="url(#pb58b94f7f5)" style="fill: #195f90; stroke: #ffffff; stroke-width: 0.48"/>
    <path d="M 240.933244 115.455557 
C 241.728854 115.455557 242.491984 115.139458 243.054565 114.576878 
C 243.617145 114.014297 243.933244 113.251167 243.933244 112.455557 
C 243.933244 111.659948 243.617145 110.896818 243.054565 110.334237 
C 242.491984 109.771656 241.728854 109.455557 240.933244 109.455557 
C 240.137635 109.455557 239.374505 109.771656 238.811924 110.334237 
C 238.249343 110.896818 237.933244 111.659948 237.933244 112.455557 
C 237.933244 113.251167 238.249343 114.014297 238.811924 114.576878 
C 239.374505 115.139458 240.137635 115.455557 240.933244 115.455557 
z
" clip-path="url(#pb58b94f7f5)" style="fill: #cc660b; stroke: #ffffff; stroke-width: 0.48"/>
    <path d="M 94.863342 43.239426 
C 95.658951 43.239426 96.422081 42.923327 96.984662 42.360746 
C 97.547243 41.798166 97.863342 41.035035 97.863342 40.239426 
C 97.863342 39.443817 97.547243 38.680686 96.984662 38.118106 
C 96.422081 37.555525 95.658951 37.239426 94.863342 37.239426 
C 94.067732 37.239426 93.304602 37.555525 92.742021 38.118106 
C 92.179441 38.680686 91.863342 39.443817 91.863342 40.239426 
C 91.863342 41.035035 92.179441 41.798166 92.742021 42.360746 
C 93.304602 42.923327 94.067732 43.239426 94.863342 43.239426 
z
" clip-path="url(#pb58b94f7f5)" style="fill: #ab1f20; stroke: #ffffff; stroke-width: 0.48"/>
    <path d="M 127.339105 65.899222 
C 128.134714 65.899222 128.897844 65.583123 129.460425 65.020543 
C 130.023006 64.457962 130.339105 63.694831 130.339105 62.899222 
C 130.339105 62.103613 130.023006 61.340483 129.460425 60.777902 
C 128.897844 60.215321 128.134714 59.899222 127.339105 59.899222 
C 126.543495 59.899222 125.780365 60.215321 125.217784 60.777902 
C 124.655204 61.340483 124.339105 62.103613 124.339105 62.899222 
C 124.339105 63.694831 124.655204 64.457962 125.217784 65.020543 
C 125.780365 65.583123 126.543495 65.899222 127.339105 65.899222 
z
" clip-path="url(#pb58b94f7f5)" style="fill: #765297; stroke: #ffffff; stroke-width: 0.48"/>
    <path d="M 178.349316 37.775398 
C 179.144926 37.775398 179.908056 37.459299 180.470637 36.896718 
C 181.033217 36.334137 181.349316 35.571007 181.349316 34.775398 
C 181.349316 33.979788 181.033217 33.216658 180.470637 32.654077 
C 179.908056 32.091497 179.144926 31.775398 178.349316 31.775398 
C 177.553707 31.775398 176.790577 32.091497 176.227996 32.654077 
C 175.665415 33.216658 175.349316 33.979788 175.349316 34.775398 
C 175.349316 35.571007 175.665415 36.334137 176.227996 36.896718 
C 176.790577 37.459299 177.553707 37.775398 178.349316 37.775398 
z
" clip-path="url(#pb58b94f7f5)" style="fill: #195f90; stroke: #ffffff; stroke-width: 0.48"/>
    <path d="M 237.854124 87.471617 
C 238.649733 87.471617 239.412863 87.155518 239.975444 86.592937 
C 240.538025 86.030357 240.854124 85.267226 240.854124 84.471617 
C 240.854124 83.676008 240.538025 82.912878 239.975444 82.350297 
C 239.412863 81.787716 238.649733 81.471617 237.854124 81.471617 
C 237.058514 81.471617 236.295384 81.787716 235.732803 82.350297 
C 235.170223 82.912878 234.854124 83.676008 234.854124 84.471617 
C 234.854124 85.267226 235.170223 86.030357 235.732803 86.592937 
C 236.295384 87.155518 237.058514 87.471617 237.854124 87.471617 
z
" clip-path="url(#pb58b94f7f5)" style="fill: #cc660b; stroke: #ffffff; stroke-width: 0.48"/>
   </g>
   <g id="matplotlib.axis_1">
    <g id="xtick_1">
     <g id="line2d_1">
      <defs>
       <path id="mdae3e10e23" d="M 0 0 
L 0 3.5 
" style="stroke: #000000; stroke-width: 0.8"/>
      </defs>
      <g>
       <use xlink:href="#mdae3e10e23" x="70.215499" y="245.93875" style="stroke: #000000; stroke-width: 0.8"/>
      </g>
     </g>
     <g id="text_1">
      <text style="font: 10px 'DejaVu Sans', 'Bitstream Vera Sans', 'Computer Modern Sans Serif', 'Lucida Grande', 'Verdana', 'Geneva', 'Lucid', 'Arial', 'Helvetica', 'Avant Garde', sans-serif; text-anchor: middle" x="70.215499" y="260.537188" transform="rotate(-0 70.215499 260.537188)">100</text>
     </g>
    </g>
    <g id="xtick_2">
     <g id="line2d_2">
      <g>
       <use xlink:href="#mdae3e10e23" x="113.503607" y="245.93875" style="stroke: #000000; stroke-width: 0.8"/>
      </g>
     </g>
     <g id="text_2">
      <text style="font: 10px 'DejaVu Sans', 'Bitstream Vera Sans', 'Computer Modern Sans Serif', 'Lucida Grande', 'Verdana', 'Geneva', 'Lucid', 'Arial', 'Helvetica', 'Avant Garde', sans-serif; text-anchor: middle" x="113.503607" y="260.537188" transform="rotate(-0 113.503607 260.537188)">150</text>
     </g>
    </g>
    <g id="xtick_3">
     <g id="line2d_3">
      <g>
       <use xlink:href="#mdae3e10e23" x="156.791715" y="245.93875" style="stroke: #000000; stroke-width: 0.8"/>
      </g>
     </g>
     <g id="text_3">
      <text style="font: 10px 'DejaVu Sans', 'Bitstream Vera Sans', 'Computer Modern Sans Serif', 'Lucida Grande', 'Verdana', 'Geneva', 'Lucid', 'Arial', 'Helvetica', 'Avant Garde', sans-serif; text-anchor: middle" x="156.791715" y="260.537188" transform="rotate(-0 156.791715 260.537188)">200</text>
     </g>
    </g>
    <g id="xtick_4">
     <g id="line2d_4">
      <g>
       <use xlink:href="#mdae3e10e23" x="200.079823" y="245.93875" style="stroke: #000000; stroke-width: 0.8"/>
      </g>
     </g>
     <g id="text_4">
      <text style="font: 10px 'DejaVu Sans', 'Bitstream Vera Sans', 'Computer Modern Sans Serif', 'Lucida Grande', 'Verdana', 'Geneva', 'Lucid', 'Arial', 'Helvetica', 'Avant Garde', sans-serif; text-anchor: middle" x="200.079823" y="260.537188" transform="rotate(-0 200.079823 260.537188)">250</text>
     </g>
    </g>
    <g id="xtick_5">
     <g id="line2d_5">
      <g>
       <use xlink:href="#mdae3e10e23" x="243.367931" y="245.93875" style="stroke: #000000; stroke-width: 0.8"/>
      </g>
     </g>
     <g id="text_5">
      <text style="font: 10px 'DejaVu Sans', 'Bitstream Vera Sans', 'Computer Modern Sans Serif', 'Lucida Grande', 'Verdana', 'Geneva', 'Lucid', 'Arial', 'Helvetica', 'Avant Garde', sans-serif; text-anchor: middle" x="243.367931" y="260.537188" transform="rotate(-0 243.367931 260.537188)">300</text>
     </g>
    </g>
    <g id="text_6">
     <text style="font: 10px 'DejaVu Sans', 'Bitstream Vera Sans', 'Computer Modern Sans Serif', 'Lucida Grande', 'Verdana', 'Geneva', 'Lucid', 'Arial', 'Helvetica', 'Avant Garde', sans-serif; text-anchor: middle" x="155.420625" y="274.215312" transform="rotate(-0 155.420625 274.215312)">Average_divergence_all</text>
    </g>
   </g>
   <g id="matplotlib.axis_2">
    <g id="ytick_1">
     <g id="line2d_6">
      <defs>
       <path id="ma7b1da3ef0" d="M 0 0 
L -3.5 0 
" style="stroke: #000000; stroke-width: 0.8"/>
      </defs>
      <g>
       <use xlink:href="#ma7b1da3ef0" x="47.91125" y="245.500952" style="stroke: #000000; stroke-width: 0.8"/>
      </g>
     </g>
     <g id="text_7">
      <text style="font: 10px 'DejaVu Sans', 'Bitstream Vera Sans', 'Computer Modern Sans Serif', 'Lucida Grande', 'Verdana', 'Geneva', 'Lucid', 'Arial', 'Helvetica', 'Avant Garde', sans-serif; text-anchor: end" x="40.91125" y="249.300171" transform="rotate(-0 40.91125 249.300171)">0.2</text>
     </g>
    </g>
    <g id="ytick_2">
     <g id="line2d_7">
      <g>
       <use xlink:href="#ma7b1da3ef0" x="47.91125" y="214.244239" style="stroke: #000000; stroke-width: 0.8"/>
      </g>
     </g>
     <g id="text_8">
      <text style="font: 10px 'DejaVu Sans', 'Bitstream Vera Sans', 'Computer Modern Sans Serif', 'Lucida Grande', 'Verdana', 'Geneva', 'Lucid', 'Arial', 'Helvetica', 'Avant Garde', sans-serif; text-anchor: end" x="40.91125" y="218.043458" transform="rotate(-0 40.91125 218.043458)">0.4</text>
     </g>
    </g>
    <g id="ytick_3">
     <g id="line2d_8">
      <g>
       <use xlink:href="#ma7b1da3ef0" x="47.91125" y="182.987526" style="stroke: #000000; stroke-width: 0.8"/>
      </g>
     </g>
     <g id="text_9">
      <text style="font: 10px 'DejaVu Sans', 'Bitstream Vera Sans', 'Computer Modern Sans Serif', 'Lucida Grande', 'Verdana', 'Geneva', 'Lucid', 'Arial', 'Helvetica', 'Avant Garde', sans-serif; text-anchor: end" x="40.91125" y="186.786745" transform="rotate(-0 40.91125 186.786745)">0.6</text>
     </g>
    </g>
    <g id="ytick_4">
     <g id="line2d_9">
      <g>
       <use xlink:href="#ma7b1da3ef0" x="47.91125" y="151.730813" style="stroke: #000000; stroke-width: 0.8"/>
      </g>
     </g>
     <g id="text_10">
      <text style="font: 10px 'DejaVu Sans', 'Bitstream Vera Sans', 'Computer Modern Sans Serif', 'Lucida Grande', 'Verdana', 'Geneva', 'Lucid', 'Arial', 'Helvetica', 'Avant Garde', sans-serif; text-anchor: end" x="40.91125" y="155.530031" transform="rotate(-0 40.91125 155.530031)">0.8</text>
     </g>
    </g>
    <g id="ytick_5">
     <g id="line2d_10">
      <g>
       <use xlink:href="#ma7b1da3ef0" x="47.91125" y="120.4741" style="stroke: #000000; stroke-width: 0.8"/>
      </g>
     </g>
     <g id="text_11">
      <text style="font: 10px 'DejaVu Sans', 'Bitstream Vera Sans', 'Computer Modern Sans Serif', 'Lucida Grande', 'Verdana', 'Geneva', 'Lucid', 'Arial', 'Helvetica', 'Avant Garde', sans-serif; text-anchor: end" x="40.91125" y="124.273318" transform="rotate(-0 40.91125 124.273318)">1.0</text>
     </g>
    </g>
    <g id="ytick_6">
     <g id="line2d_11">
      <g>
       <use xlink:href="#ma7b1da3ef0" x="47.91125" y="89.217387" style="stroke: #000000; stroke-width: 0.8"/>
      </g>
     </g>
     <g id="text_12">
      <text style="font: 10px 'DejaVu Sans', 'Bitstream Vera Sans', 'Computer Modern Sans Serif', 'Lucida Grande', 'Verdana', 'Geneva', 'Lucid', 'Arial', 'Helvetica', 'Avant Garde', sans-serif; text-anchor: end" x="40.91125" y="93.016605" transform="rotate(-0 40.91125 93.016605)">1.2</text>
     </g>
    </g>
    <g id="ytick_7">
     <g id="line2d_12">
      <g>
       <use xlink:href="#ma7b1da3ef0" x="47.91125" y="57.960674" style="stroke: #000000; stroke-width: 0.8"/>
      </g>
     </g>
     <g id="text_13">
      <text style="font: 10px 'DejaVu Sans', 'Bitstream Vera Sans', 'Computer Modern Sans Serif', 'Lucida Grande', 'Verdana', 'Geneva', 'Lucid', 'Arial', 'Helvetica', 'Avant Garde', sans-serif; text-anchor: end" x="40.91125" y="61.759892" transform="rotate(-0 40.91125 61.759892)">1.4</text>
     </g>
    </g>
    <g id="ytick_8">
     <g id="line2d_13">
      <g>
       <use xlink:href="#ma7b1da3ef0" x="47.91125" y="26.70396" style="stroke: #000000; stroke-width: 0.8"/>
      </g>
     </g>
     <g id="text_14">
      <text style="font: 10px 'DejaVu Sans', 'Bitstream Vera Sans', 'Computer Modern Sans Serif', 'Lucida Grande', 'Verdana', 'Geneva', 'Lucid', 'Arial', 'Helvetica', 'Avant Garde', sans-serif; text-anchor: end" x="40.91125" y="30.503179" transform="rotate(-0 40.91125 30.503179)">1.6</text>
     </g>
    </g>
    <g id="text_15">
     <text style="font: 10px 'DejaVu Sans', 'Bitstream Vera Sans', 'Computer Modern Sans Serif', 'Lucida Grande', 'Verdana', 'Geneva', 'Lucid', 'Arial', 'Helvetica', 'Avant Garde', sans-serif; text-anchor: middle" x="18.650313" y="135.329375" transform="rotate(-90 18.650313 135.329375)">OR_Observed_to_Random</text>
    </g>
   </g>
   <g id="line2d_14"/>
   <g id="line2d_15"/>
   <g id="line2d_16"/>
   <g id="line2d_17"/>
   <g id="line2d_18"/>
   <g id="line2d_19"/>
   <g id="line2d_20"/>
   <g id="line2d_21"/>
   <g id="line2d_22"/>
   <g id="line2d_23"/>
   <g id="line2d_24">
    <path d="M 57.68483 135.280932 
L 59.65929 135.45953 
L 61.633751 135.638129 
L 63.608211 135.816727 
L 65.582672 135.995325 
L 67.557132 136.173924 
L 69.531593 136.352522 
L 71.506053 136.531121 
L 73.480514 136.709719 
L 75.454974 136.888318 
L 77.429435 137.066916 
L 79.403895 137.245515 
L 81.378356 137.424113 
L 83.352816 137.602712 
L 85.327277 137.78131 
L 87.301737 137.959909 
L 89.276198 138.138507 
L 91.250658 138.317106 
L 93.225119 138.495704 
L 95.199579 138.674303 
L 97.17404 138.852901 
L 99.1485 139.0315 
L 101.122961 139.210098 
L 103.097421 139.388697 
L 105.071882 139.567295 
L 107.046342 139.745894 
L 109.020803 139.924492 
L 110.995263 140.10309 
L 112.969724 140.281689 
L 114.944184 140.460287 
L 116.918645 140.638886 
L 118.893105 140.817484 
L 120.867566 140.996083 
L 122.842027 141.174681 
L 124.816487 141.35328 
L 126.790948 141.531878 
L 128.765408 141.710477 
L 130.739869 141.889075 
L 132.714329 142.067674 
L 134.68879 142.246272 
L 136.66325 142.424871 
L 138.637711 142.603469 
L 140.612171 142.782068 
L 142.586632 142.960666 
L 144.561092 143.139265 
L 146.535553 143.317863 
L 148.510013 143.496462 
L 150.484474 143.67506 
L 152.458934 143.853659 
L 154.433395 144.032257 
L 156.407855 144.210855 
L 158.382316 144.389454 
L 160.356776 144.568052 
L 162.331237 144.746651 
L 164.305697 144.925249 
L 166.280158 145.103848 
L 168.254618 145.282446 
L 170.229079 145.461045 
L 172.203539 145.639643 
L 174.178 145.818242 
L 176.15246 145.99684 
L 178.126921 146.175439 
L 180.101381 146.354037 
L 182.075842 146.532636 
L 184.050302 146.711234 
L 186.024763 146.889833 
L 187.999223 147.068431 
L 189.973684 147.24703 
L 191.948145 147.425628 
L 193.922605 147.604227 
L 195.897066 147.782825 
L 197.871526 147.961424 
L 199.845987 148.140022 
L 201.820447 148.31862 
L 203.794908 148.497219 
L 205.769368 148.675817 
L 207.743829 148.854416 
L 209.718289 149.033014 
L 211.69275 149.211613 
L 213.66721 149.390211 
L 215.641671 149.56881 
L 217.616131 149.747408 
L 219.590592 149.926007 
L 221.565052 150.104605 
L 223.539513 150.283204 
L 225.513973 150.461802 
L 227.488434 150.640401 
L 229.462894 150.818999 
L 231.437355 150.997598 
L 233.411815 151.176196 
L 235.386276 151.354795 
L 237.360736 151.533393 
L 239.335197 151.711992 
L 241.309657 151.89059 
L 243.284118 152.069189 
L 245.258578 152.247787 
L 247.233039 152.426385 
L 249.207499 152.604984 
L 251.18196 152.783582 
L 253.15642 152.962181 
" clip-path="url(#pb58b94f7f5)" style="fill: none; stroke: #000000; stroke-width: 1.5; stroke-linecap: square"/>
   </g>
   <g id="patch_3">
    <path d="M 47.91125 245.93875 
L 47.91125 24.72 
" style="fill: none; stroke: #000000; stroke-width: 0.8; stroke-linejoin: miter; stroke-linecap: square"/>
   </g>
   <g id="patch_4">
    <path d="M 262.93 245.93875 
L 262.93 24.72 
" style="fill: none; stroke: #000000; stroke-width: 0.8; stroke-linejoin: miter; stroke-linecap: square"/>
   </g>
   <g id="patch_5">
    <path d="M 47.91125 245.93875 
L 262.93 245.93875 
" style="fill: none; stroke: #000000; stroke-width: 0.8; stroke-linejoin: miter; stroke-linecap: square"/>
   </g>
   <g id="patch_6">
    <path d="M 47.91125 24.72 
L 262.93 24.72 
" style="fill: none; stroke: #000000; stroke-width: 0.8; stroke-linejoin: miter; stroke-linecap: square"/>
   </g>
   <g id="text_16">
    <g id="patch_7">
     <path d="M 58.662188 59.069281 
L 138.151875 59.069281 
Q 142.651875 59.069281 142.651875 54.569281 
L 142.651875 35.780937 
Q 142.651875 31.280937 138.151875 31.280937 
L 58.662188 31.280937 
Q 54.162188 31.280937 54.162188 35.780937 
L 54.162188 54.569281 
Q 54.162188 59.069281 58.662188 59.069281 
z
" style="fill: #ffffff; opacity: 0.8; stroke: #000000; stroke-linejoin: miter"/>
    </g>
    <text style="font: 9px 'DejaVu Sans', 'Bitstream Vera Sans', 'Computer Modern Sans Serif', 'Lucida Grande', 'Verdana', 'Geneva', 'Lucid', 'Arial', 'Helvetica', 'Avant Garde', sans-serif" transform="translate(58.662188 42.619531)">Pearson R: -0.081</text>
    <text style="font: 9px 'DejaVu Sans', 'Bitstream Vera Sans', 'Computer Modern Sans Serif', 'Lucida Grande', 'Verdana', 'Geneva', 'Lucid', 'Arial', 'Helvetica', 'Avant Garde', sans-serif" transform="translate(58.662188 52.697563)">p = 0.601</text>
   </g>
   <g id="text_17">
    <text style="font: 10px 'DejaVu Sans', 'Bitstream Vera Sans', 'Computer Modern Sans Serif', 'Lucida Grande', 'Verdana', 'Geneva', 'Lucid', 'Arial', 'Helvetica', 'Avant Garde', sans-serif; text-anchor: middle" x="155.420625" y="18.72" transform="rotate(-0 155.420625 18.72)">OR_Observed_to_Random vs Average_divergence_all</text>
   </g>
   <g id="legend_1">
    <g id="patch_8">
     <path d="M 269.93 217.698125 
L 415.728438 217.698125 
Q 417.728438 217.698125 417.728438 215.698125 
L 417.728438 54.960625 
Q 417.728438 52.960625 415.728438 52.960625 
L 269.93 52.960625 
Q 267.93 52.960625 267.93 54.960625 
L 267.93 215.698125 
Q 267.93 217.698125 269.93 217.698125 
z
" style="fill: #ffffff; opacity: 0.8; stroke: #cccccc; stroke-linejoin: miter"/>
    </g>
    <g id="line2d_25"/>
    <g id="text_18">
     <text style="font: 10px 'DejaVu Sans', 'Bitstream Vera Sans', 'Computer Modern Sans Serif', 'Lucida Grande', 'Verdana', 'Geneva', 'Lucid', 'Arial', 'Helvetica', 'Avant Garde', sans-serif; text-anchor: start" x="299.93" y="64.559062" transform="rotate(-0 299.93 64.559062)">class_name</text>
    </g>
    <g id="line2d_26">
     <defs>
      <path id="m599a6e3b56" d="M 0 3 
C 0.795609 3 1.55874 2.683901 2.12132 2.12132 
C 2.683901 1.55874 3 0.795609 3 0 
C 3 -0.795609 2.683901 -1.55874 2.12132 -2.12132 
C 1.55874 -2.683901 0.795609 -3 0 -3 
C -0.795609 -3 -1.55874 -2.683901 -2.12132 -2.12132 
C -2.683901 -1.55874 -3 -0.795609 -3 0 
C -3 0.795609 -2.683901 1.55874 -2.12132 2.12132 
C -1.55874 2.683901 -0.795609 3 0 3 
z
" style="stroke: #ffffff; stroke-width: 0.48"/>
     </defs>
     <g>
      <use xlink:href="#m599a6e3b56" x="281.93" y="76.015312" style="fill: #195f90; stroke: #ffffff; stroke-width: 0.48"/>
     </g>
    </g>
    <g id="text_19">
     <text style="font: 10px 'DejaVu Sans', 'Bitstream Vera Sans', 'Computer Modern Sans Serif', 'Lucida Grande', 'Verdana', 'Geneva', 'Lucid', 'Arial', 'Helvetica', 'Avant Garde', sans-serif; text-anchor: start" x="299.93" y="79.515312" transform="rotate(-0 299.93 79.515312)">DNA</text>
    </g>
    <g id="line2d_27">
     <defs>
      <path id="m450cd95699" d="M 0 3 
C 0.795609 3 1.55874 2.683901 2.12132 2.12132 
C 2.683901 1.55874 3 0.795609 3 0 
C 3 -0.795609 2.683901 -1.55874 2.12132 -2.12132 
C 1.55874 -2.683901 0.795609 -3 0 -3 
C -0.795609 -3 -1.55874 -2.683901 -2.12132 -2.12132 
C -2.683901 -1.55874 -3 -0.795609 -3 0 
C -3 0.795609 -2.683901 1.55874 -2.12132 2.12132 
C -1.55874 2.683901 -0.795609 3 0 3 
z
" style="stroke: #ffffff; stroke-width: 0.48"/>
     </defs>
     <g>
      <use xlink:href="#m450cd95699" x="281.93" y="90.693437" style="fill: #70453c; stroke: #ffffff; stroke-width: 0.48"/>
     </g>
    </g>
    <g id="text_20">
     <text style="font: 10px 'DejaVu Sans', 'Bitstream Vera Sans', 'Computer Modern Sans Serif', 'Lucida Grande', 'Verdana', 'Geneva', 'Lucid', 'Arial', 'Helvetica', 'Avant Garde', sans-serif; text-anchor: start" x="299.93" y="94.193437" transform="rotate(-0 299.93 94.193437)">LTR</text>
    </g>
    <g id="line2d_28">
     <defs>
      <path id="m8d84016316" d="M 0 3 
C 0.795609 3 1.55874 2.683901 2.12132 2.12132 
C 2.683901 1.55874 3 0.795609 3 0 
C 3 -0.795609 2.683901 -1.55874 2.12132 -2.12132 
C 1.55874 -2.683901 0.795609 -3 0 -3 
C -0.795609 -3 -1.55874 -2.683901 -2.12132 -2.12132 
C -2.683901 -1.55874 -3 -0.795609 -3 0 
C -3 0.795609 -2.683901 1.55874 -2.12132 2.12132 
C -1.55874 2.683901 -0.795609 3 0 3 
z
" style="stroke: #ffffff; stroke-width: 0.48"/>
     </defs>
     <g>
      <use xlink:href="#m8d84016316" x="281.93" y="105.371562" style="fill: #cc660b; stroke: #ffffff; stroke-width: 0.48"/>
     </g>
    </g>
    <g id="text_21">
     <text style="font: 10px 'DejaVu Sans', 'Bitstream Vera Sans', 'Computer Modern Sans Serif', 'Lucida Grande', 'Verdana', 'Geneva', 'Lucid', 'Arial', 'Helvetica', 'Avant Garde', sans-serif; text-anchor: start" x="299.93" y="108.871562" transform="rotate(-0 299.93 108.871562)">LINE</text>
    </g>
    <g id="line2d_29">
     <defs>
      <path id="mdaa3f1fb4c" d="M 0 3 
C 0.795609 3 1.55874 2.683901 2.12132 2.12132 
C 2.683901 1.55874 3 0.795609 3 0 
C 3 -0.795609 2.683901 -1.55874 2.12132 -2.12132 
C 1.55874 -2.683901 0.795609 -3 0 -3 
C -0.795609 -3 -1.55874 -2.683901 -2.12132 -2.12132 
C -2.683901 -1.55874 -3 -0.795609 -3 0 
C -3 0.795609 -2.683901 1.55874 -2.12132 2.12132 
C -1.55874 2.683901 -0.795609 3 0 3 
z
" style="stroke: #ffffff; stroke-width: 0.48"/>
     </defs>
     <g>
      <use xlink:href="#mdaa3f1fb4c" x="281.93" y="120.049688" style="fill: #238023; stroke: #ffffff; stroke-width: 0.48"/>
     </g>
    </g>
    <g id="text_22">
     <text style="font: 10px 'DejaVu Sans', 'Bitstream Vera Sans', 'Computer Modern Sans Serif', 'Lucida Grande', 'Verdana', 'Geneva', 'Lucid', 'Arial', 'Helvetica', 'Avant Garde', sans-serif; text-anchor: start" x="299.93" y="123.549688" transform="rotate(-0 299.93 123.549688)">RC</text>
    </g>
    <g id="line2d_30">
     <defs>
      <path id="m34c9ac62f9" d="M 0 3 
C 0.795609 3 1.55874 2.683901 2.12132 2.12132 
C 2.683901 1.55874 3 0.795609 3 0 
C 3 -0.795609 2.683901 -1.55874 2.12132 -2.12132 
C 1.55874 -2.683901 0.795609 -3 0 -3 
C -0.795609 -3 -1.55874 -2.683901 -2.12132 -2.12132 
C -2.683901 -1.55874 -3 -0.795609 -3 0 
C -3 0.795609 -2.683901 1.55874 -2.12132 2.12132 
C -1.55874 2.683901 -0.795609 3 0 3 
z
" style="stroke: #ffffff; stroke-width: 0.48"/>
     </defs>
     <g>
      <use xlink:href="#m34c9ac62f9" x="281.93" y="134.727812" style="fill: #ab1f20; stroke: #ffffff; stroke-width: 0.48"/>
     </g>
    </g>
    <g id="text_23">
     <text style="font: 10px 'DejaVu Sans', 'Bitstream Vera Sans', 'Computer Modern Sans Serif', 'Lucida Grande', 'Verdana', 'Geneva', 'Lucid', 'Arial', 'Helvetica', 'Avant Garde', sans-serif; text-anchor: start" x="299.93" y="138.227812" transform="rotate(-0 299.93 138.227812)">SINE</text>
    </g>
    <g id="line2d_31">
     <defs>
      <path id="m1e26c73b8e" d="M 0 3 
C 0.795609 3 1.55874 2.683901 2.12132 2.12132 
C 2.683901 1.55874 3 0.795609 3 0 
C 3 -0.795609 2.683901 -1.55874 2.12132 -2.12132 
C 1.55874 -2.683901 0.795609 -3 0 -3 
C -0.795609 -3 -1.55874 -2.683901 -2.12132 -2.12132 
C -2.683901 -1.55874 -3 -0.795609 -3 0 
C -3 0.795609 -2.683901 1.55874 -2.12132 2.12132 
C -1.55874 2.683901 -0.795609 3 0 3 
z
" style="stroke: #ffffff; stroke-width: 0.48"/>
     </defs>
     <g>
      <use xlink:href="#m1e26c73b8e" x="281.93" y="149.405937" style="fill: #765297; stroke: #ffffff; stroke-width: 0.48"/>
     </g>
    </g>
    <g id="text_24">
     <text style="font: 10px 'DejaVu Sans', 'Bitstream Vera Sans', 'Computer Modern Sans Serif', 'Lucida Grande', 'Verdana', 'Geneva', 'Lucid', 'Arial', 'Helvetica', 'Avant Garde', sans-serif; text-anchor: start" x="299.93" y="152.905937" transform="rotate(-0 299.93 152.905937)">Retroposon</text>
    </g>
    <g id="line2d_32"/>
    <g id="text_25">
     <text style="font: 10px 'DejaVu Sans', 'Bitstream Vera Sans', 'Computer Modern Sans Serif', 'Lucida Grande', 'Verdana', 'Geneva', 'Lucid', 'Arial', 'Helvetica', 'Avant Garde', sans-serif; text-anchor: start" x="299.93" y="167.584063" transform="rotate(-0 299.93 167.584063)">Status</text>
    </g>
    <g id="line2d_33">
     <defs>
      <path id="mdcb48dda3e" d="M 0 3 
C 0.795609 3 1.55874 2.683901 2.12132 2.12132 
C 2.683901 1.55874 3 0.795609 3 0 
C 3 -0.795609 2.683901 -1.55874 2.12132 -2.12132 
C 1.55874 -2.683901 0.795609 -3 0 -3 
C -0.795609 -3 -1.55874 -2.683901 -2.12132 -2.12132 
C -2.683901 -1.55874 -3 -0.795609 -3 0 
C -3 0.795609 -2.683901 1.55874 -2.12132 2.12132 
C -1.55874 2.683901 -0.795609 3 0 3 
z
" style="stroke: #ffffff; stroke-width: 0.48"/>
     </defs>
     <g>
      <use xlink:href="#mdcb48dda3e" x="281.93" y="178.762187" style="fill: #333333; stroke: #ffffff; stroke-width: 0.48"/>
     </g>
    </g>
    <g id="text_26">
     <text style="font: 10px 'DejaVu Sans', 'Bitstream Vera Sans', 'Computer Modern Sans Serif', 'Lucida Grande', 'Verdana', 'Geneva', 'Lucid', 'Arial', 'Helvetica', 'Avant Garde', sans-serif; text-anchor: start" x="299.93" y="182.262187" transform="rotate(-0 299.93 182.262187)">Significant</text>
    </g>
    <g id="line2d_34">
     <defs>
      <path id="md756ff61de" d="M -1.5 3 
L 0 1.5 
L 1.5 3 
L 3 1.5 
L 1.5 0 
L 3 -1.5 
L 1.5 -3 
L 0 -1.5 
L -1.5 -3 
L -3 -1.5 
L -1.5 0 
L -3 1.5 
z
" style="stroke: #ffffff; stroke-width: 0.48; stroke-linejoin: miter"/>
     </defs>
     <g>
      <use xlink:href="#md756ff61de" x="281.93" y="193.440312" style="fill: #333333; stroke: #ffffff; stroke-width: 0.48; stroke-linejoin: miter"/>
     </g>
    </g>
    <g id="text_27">
     <text style="font: 10px 'DejaVu Sans', 'Bitstream Vera Sans', 'Computer Modern Sans Serif', 'Lucida Grande', 'Verdana', 'Geneva', 'Lucid', 'Arial', 'Helvetica', 'Avant Garde', sans-serif; text-anchor: start" x="299.93" y="196.940312" transform="rotate(-0 299.93 196.940312)">Non-Significant</text>
    </g>
    <g id="line2d_35">
     <path d="M 271.93 208.118437 
L 281.93 208.118437 
L 291.93 208.118437 
" style="fill: none; stroke: #000000; stroke-width: 1.5; stroke-linecap: square"/>
    </g>
    <g id="text_28">
     <text style="font: 10px 'DejaVu Sans', 'Bitstream Vera Sans', 'Computer Modern Sans Serif', 'Lucida Grande', 'Verdana', 'Geneva', 'Lucid', 'Arial', 'Helvetica', 'Avant Garde', sans-serif; text-anchor: start" x="299.93" y="211.618437" transform="rotate(-0 299.93 211.618437)">Linear Trend (R=-0.08)</text>
    </g>
   </g>
  </g>
 </g>
 <defs>
  <clipPath id="pb58b94f7f5">
   <rect x="47.91125" y="24.72" width="215.01875" height="221.21875"/>
  </clipPath>
 </defs>
</svg>
