<?xml version="1.0" encoding="utf-8" standalone="no"?>
<!DOCTYPE svg PUBLIC "-//W3C//DTD SVG 1.1//EN"
  "http://www.w3.org/Graphics/SVG/1.1/DTD/svg11.dtd">
<svg xmlns:xlink="http://www.w3.org/1999/xlink" width="504pt" height="288pt" viewBox="0 0 504 288" xmlns="http://www.w3.org/2000/svg" version="1.1">
 <metadata>
  <rdf:RDF xmlns:dc="http://purl.org/dc/elements/1.1/" xmlns:cc="http://creativecommons.org/ns#" xmlns:rdf="http://www.w3.org/1999/02/22-rdf-syntax-ns#">
   <cc:Work>
    <dc:type rdf:resource="http://purl.org/dc/dcmitype/StillImage"/>
    <dc:date>2025-12-18T18:04:47.909496</dc:date>
    <dc:format>image/svg+xml</dc:format>
    <dc:creator>
     <cc:Agent>
      <dc:title>Matplotlib v3.8.4, https://matplotlib.org/</dc:title>
     </cc:Agent>
    </dc:creator>
   </cc:Work>
  </rdf:RDF>
 </metadata>
 <defs>
  <style type="text/css">*{stroke-linejoin: round; stroke-linecap: butt}</style>
 </defs>
 <g id="figure_1">
  <g id="patch_1">
   <path d="M 0 288 
L 504 288 
L 504 0 
L 0 0 
L 0 288 
z
" style="fill: none"/>
  </g>
  <g id="axes_1">
   <g id="patch_2">
    <path d="M 47.91125 245.93875 
L 266.53 245.93875 
L 266.53 24.72 
L 47.91125 24.72 
L 47.91125 245.93875 
z
" style="fill: none"/>
   </g>
   <g id="PathCollection_1">
    <path d="M 113.577558 238.883352 
C 114.373168 238.883352 115.136298 238.567253 115.698879 238.004673 
C 116.261459 237.442092 116.577558 236.678962 116.577558 235.883352 
C 116.577558 235.087743 116.261459 234.324613 115.698879 233.762032 
C 115.136298 233.199451 114.373168 232.883352 113.577558 232.883352 
C 112.781949 232.883352 112.018819 233.199451 111.456238 233.762032 
C 110.893657 234.324613 110.577558 235.087743 110.577558 235.883352 
C 110.577558 236.678962 110.893657 237.442092 111.456238 238.004673 
C 112.018819 238.567253 112.781949 238.883352 113.577558 238.883352 
z
" clip-path="url(#p463a9c3882)" style="fill: #195f90; stroke: #ffffff; stroke-width: 0.48"/>
    <path d="M 103.714612 232.778781 
C 104.510222 232.778781 105.273352 232.462682 105.835933 231.900101 
C 106.398514 231.33752 106.714612 230.57439 106.714612 229.778781 
C 106.714612 228.983171 106.398514 228.220041 105.835933 227.65746 
C 105.273352 227.09488 104.510222 226.778781 103.714612 226.778781 
C 102.919003 226.778781 102.155873 227.09488 101.593292 227.65746 
C 101.030711 228.220041 100.714612 228.983171 100.714612 229.778781 
C 100.714612 230.57439 101.030711 231.33752 101.593292 231.900101 
C 102.155873 232.462682 102.919003 232.778781 103.714612 232.778781 
z
" clip-path="url(#p463a9c3882)" style="fill: #195f90; stroke: #ffffff; stroke-width: 0.48"/>
    <path d="M 56.348466 223.500414 
L 57.848466 222.000414 
L 59.348466 223.500414 
L 60.848466 222.000414 
L 59.348466 220.500414 
L 60.848466 219.000414 
L 59.348466 217.500414 
L 57.848466 219.000414 
L 56.348466 217.500414 
L 54.848466 219.000414 
L 56.348466 220.500414 
L 54.848466 222.000414 
z
" clip-path="url(#p463a9c3882)" style="fill: #195f90; stroke: #ffffff; stroke-width: 0.48"/>
    <path d="M 79.929926 222.101532 
L 81.429926 220.601532 
L 82.929926 222.101532 
L 84.429926 220.601532 
L 82.929926 219.101532 
L 84.429926 217.601532 
L 82.929926 216.101532 
L 81.429926 217.601532 
L 79.929926 216.101532 
L 78.429926 217.601532 
L 79.929926 219.101532 
L 78.429926 220.601532 
z
" clip-path="url(#p463a9c3882)" style="fill: #195f90; stroke: #ffffff; stroke-width: 0.48"/>
    <path d="M 101.504729 199.138156 
L 103.004729 197.638156 
L 104.504729 199.138156 
L 106.004729 197.638156 
L 104.504729 196.138156 
L 106.004729 194.638156 
L 104.504729 193.138156 
L 103.004729 194.638156 
L 101.504729 193.138156 
L 100.004729 194.638156 
L 101.504729 196.138156 
L 100.004729 197.638156 
z
" clip-path="url(#p463a9c3882)" style="fill: #195f90; stroke: #ffffff; stroke-width: 0.48"/>
    <path d="M 94.390097 189.365583 
L 95.890097 187.865583 
L 97.390097 189.365583 
L 98.890097 187.865583 
L 97.390097 186.365583 
L 98.890097 184.865583 
L 97.390097 183.365583 
L 95.890097 184.865583 
L 94.390097 183.365583 
L 92.890097 184.865583 
L 94.390097 186.365583 
L 92.890097 187.865583 
z
" clip-path="url(#p463a9c3882)" style="fill: #195f90; stroke: #ffffff; stroke-width: 0.48"/>
    <path d="M 69.276458 191.792824 
L 70.776458 190.292824 
L 72.276458 191.792824 
L 73.776458 190.292824 
L 72.276458 188.792824 
L 73.776458 187.292824 
L 72.276458 185.792824 
L 70.776458 187.292824 
L 69.276458 185.792824 
L 67.776458 187.292824 
L 69.276458 188.792824 
L 67.776458 190.292824 
z
" clip-path="url(#p463a9c3882)" style="fill: #195f90; stroke: #ffffff; stroke-width: 0.48"/>
    <path d="M 112.1666 186.980935 
L 113.6666 185.480935 
L 115.1666 186.980935 
L 116.6666 185.480935 
L 115.1666 183.980935 
L 116.6666 182.480935 
L 115.1666 180.980935 
L 113.6666 182.480935 
L 112.1666 180.980935 
L 110.6666 182.480935 
L 112.1666 183.980935 
L 110.6666 185.480935 
z
" clip-path="url(#p463a9c3882)" style="fill: #195f90; stroke: #ffffff; stroke-width: 0.48"/>
    <path d="M 107.123067 183.821814 
L 108.623067 182.321814 
L 110.123067 183.821814 
L 111.623067 182.321814 
L 110.123067 180.821814 
L 111.623067 179.321814 
L 110.123067 177.821814 
L 108.623067 179.321814 
L 107.123067 177.821814 
L 105.623067 179.321814 
L 107.123067 180.821814 
L 105.623067 182.321814 
z
" clip-path="url(#p463a9c3882)" style="fill: #195f90; stroke: #ffffff; stroke-width: 0.48"/>
    <path d="M 229.689347 187.959223 
C 230.484956 187.959223 231.248087 187.643124 231.810667 187.080543 
C 232.373248 186.517962 232.689347 185.754832 232.689347 184.959223 
C 232.689347 184.163613 232.373248 183.400483 231.810667 182.837902 
C 231.248087 182.275322 230.484956 181.959223 229.689347 181.959223 
C 228.893738 181.959223 228.130607 182.275322 227.568027 182.837902 
C 227.005446 183.400483 226.689347 184.163613 226.689347 184.959223 
C 226.689347 185.754832 227.005446 186.517962 227.568027 187.080543 
C 228.130607 187.643124 228.893738 187.959223 229.689347 187.959223 
z
" clip-path="url(#p463a9c3882)" style="fill: #70453c; stroke: #ffffff; stroke-width: 0.48"/>
    <path d="M 215.247463 189.677398 
C 216.043072 189.677398 216.806202 189.361299 217.368783 188.798718 
C 217.931364 188.236137 218.247463 187.473007 218.247463 186.677398 
C 218.247463 185.881788 217.931364 185.118658 217.368783 184.556077 
C 216.806202 183.993497 216.043072 183.677398 215.247463 183.677398 
C 214.451853 183.677398 213.688723 183.993497 213.126142 184.556077 
C 212.563561 185.118658 212.247463 185.881788 212.247463 186.677398 
C 212.247463 187.473007 212.563561 188.236137 213.126142 188.798718 
C 213.688723 189.361299 214.451853 189.677398 215.247463 189.677398 
z
" clip-path="url(#p463a9c3882)" style="fill: #70453c; stroke: #ffffff; stroke-width: 0.48"/>
    <path d="M 143.712077 181.81538 
C 144.507686 181.81538 145.270816 181.499281 145.833397 180.936701 
C 146.395978 180.37412 146.712077 179.61099 146.712077 178.81538 
C 146.712077 178.019771 146.395978 177.256641 145.833397 176.69406 
C 145.270816 176.131479 144.507686 175.81538 143.712077 175.81538 
C 142.916467 175.81538 142.153337 176.131479 141.590756 176.69406 
C 141.028176 177.256641 140.712077 178.019771 140.712077 178.81538 
C 140.712077 179.61099 141.028176 180.37412 141.590756 180.936701 
C 142.153337 181.499281 142.916467 181.81538 143.712077 181.81538 
z
" clip-path="url(#p463a9c3882)" style="fill: #195f90; stroke: #ffffff; stroke-width: 0.48"/>
    <path d="M 94.509313 191.656244 
L 96.009313 190.156244 
L 97.509313 191.656244 
L 99.009313 190.156244 
L 97.509313 188.656244 
L 99.009313 187.156244 
L 97.509313 185.656244 
L 96.009313 187.156244 
L 94.509313 185.656244 
L 93.009313 187.156244 
L 94.509313 188.656244 
L 93.009313 190.156244 
z
" clip-path="url(#p463a9c3882)" style="fill: #cc660b; stroke: #ffffff; stroke-width: 0.48"/>
    <path d="M 146.071443 196.615337 
C 146.867052 196.615337 147.630183 196.299238 148.192763 195.736657 
C 148.755344 195.174077 149.071443 194.410946 149.071443 193.615337 
C 149.071443 192.819728 148.755344 192.056597 148.192763 191.494017 
C 147.630183 190.931436 146.867052 190.615337 146.071443 190.615337 
C 145.275834 190.615337 144.512704 190.931436 143.950123 191.494017 
C 143.387542 192.056597 143.071443 192.819728 143.071443 193.615337 
C 143.071443 194.410946 143.387542 195.174077 143.950123 195.736657 
C 144.512704 196.299238 145.275834 196.615337 146.071443 196.615337 
z
" clip-path="url(#p463a9c3882)" style="fill: #195f90; stroke: #ffffff; stroke-width: 0.48"/>
    <path d="M 182.193981 187.304649 
C 182.98959 187.304649 183.75272 186.98855 184.315301 186.425969 
C 184.877882 185.863389 185.193981 185.100258 185.193981 184.304649 
C 185.193981 183.50904 184.877882 182.745909 184.315301 182.183329 
C 183.75272 181.620748 182.98959 181.304649 182.193981 181.304649 
C 181.398371 181.304649 180.635241 181.620748 180.07266 182.183329 
C 179.510079 182.745909 179.193981 183.50904 179.193981 184.304649 
C 179.193981 185.100258 179.510079 185.863389 180.07266 186.425969 
C 180.635241 186.98855 181.398371 187.304649 182.193981 187.304649 
z
" clip-path="url(#p463a9c3882)" style="fill: #70453c; stroke: #ffffff; stroke-width: 0.48"/>
    <path d="M 67.759335 200.479468 
L 69.259335 198.979468 
L 70.759335 200.479468 
L 72.259335 198.979468 
L 70.759335 197.479468 
L 72.259335 195.979468 
L 70.759335 194.479468 
L 69.259335 195.979468 
L 67.759335 194.479468 
L 66.259335 195.979468 
L 67.759335 197.479468 
L 66.259335 198.979468 
z
" clip-path="url(#p463a9c3882)" style="fill: #195f90; stroke: #ffffff; stroke-width: 0.48"/>
    <path d="M 149.865169 174.640327 
C 150.660778 174.640327 151.423909 174.324229 151.98649 173.761648 
C 152.54907 173.199067 152.865169 172.435937 152.865169 171.640327 
C 152.865169 170.844718 152.54907 170.081588 151.98649 169.519007 
C 151.423909 168.956426 150.660778 168.640327 149.865169 168.640327 
C 149.06956 168.640327 148.30643 168.956426 147.743849 169.519007 
C 147.181268 170.081588 146.865169 170.844718 146.865169 171.640327 
C 146.865169 172.435937 147.181268 173.199067 147.743849 173.761648 
C 148.30643 174.324229 149.06956 174.640327 149.865169 174.640327 
z
" clip-path="url(#p463a9c3882)" style="fill: #195f90; stroke: #ffffff; stroke-width: 0.48"/>
    <path d="M 141.149051 176.519021 
C 141.94466 176.519021 142.707791 176.202922 143.270371 175.640341 
C 143.832952 175.077761 144.149051 174.31463 144.149051 173.519021 
C 144.149051 172.723412 143.832952 171.960281 143.270371 171.397701 
C 142.707791 170.83512 141.94466 170.519021 141.149051 170.519021 
C 140.353442 170.519021 139.590311 170.83512 139.027731 171.397701 
C 138.46515 171.960281 138.149051 172.723412 138.149051 173.519021 
C 138.149051 174.31463 138.46515 175.077761 139.027731 175.640341 
C 139.590311 176.202922 140.353442 176.519021 141.149051 176.519021 
z
" clip-path="url(#p463a9c3882)" style="fill: #238023; stroke: #ffffff; stroke-width: 0.48"/>
    <path d="M 179.239 166.44729 
C 180.034609 166.44729 180.79774 166.131192 181.36032 165.568611 
C 181.922901 165.00603 182.239 164.2429 182.239 163.44729 
C 182.239 162.651681 181.922901 161.888551 181.36032 161.32597 
C 180.79774 160.763389 180.034609 160.44729 179.239 160.44729 
C 178.443391 160.44729 177.68026 160.763389 177.11768 161.32597 
C 176.555099 161.888551 176.239 162.651681 176.239 163.44729 
C 176.239 164.2429 176.555099 165.00603 177.11768 165.568611 
C 177.68026 166.131192 178.443391 166.44729 179.239 166.44729 
z
" clip-path="url(#p463a9c3882)" style="fill: #195f90; stroke: #ffffff; stroke-width: 0.48"/>
    <path d="M 213.610561 156.889066 
C 214.40617 156.889066 215.169301 156.572967 215.731881 156.010387 
C 216.294462 155.447806 216.610561 154.684676 216.610561 153.889066 
C 216.610561 153.093457 216.294462 152.330327 215.731881 151.767746 
C 215.169301 151.205165 214.40617 150.889066 213.610561 150.889066 
C 212.814952 150.889066 212.051822 151.205165 211.489241 151.767746 
C 210.92666 152.330327 210.610561 153.093457 210.610561 153.889066 
C 210.610561 154.684676 210.92666 155.447806 211.489241 156.010387 
C 212.051822 156.572967 212.814952 156.889066 213.610561 156.889066 
z
" clip-path="url(#p463a9c3882)" style="fill: #195f90; stroke: #ffffff; stroke-width: 0.48"/>
    <path d="M 164.630078 151.772396 
C 165.425687 151.772396 166.188817 151.456298 166.751398 150.893717 
C 167.313979 150.331136 167.630078 149.568006 167.630078 148.772396 
C 167.630078 147.976787 167.313979 147.213657 166.751398 146.651076 
C 166.188817 146.088495 165.425687 145.772396 164.630078 145.772396 
C 163.834468 145.772396 163.071338 146.088495 162.508757 146.651076 
C 161.946177 147.213657 161.630078 147.976787 161.630078 148.772396 
C 161.630078 149.568006 161.946177 150.331136 162.508757 150.893717 
C 163.071338 151.456298 163.834468 151.772396 164.630078 151.772396 
z
" clip-path="url(#p463a9c3882)" style="fill: #195f90; stroke: #ffffff; stroke-width: 0.48"/>
    <path d="M 178.360007 133.198712 
L 179.860007 131.698712 
L 181.360007 133.198712 
L 182.860007 131.698712 
L 181.360007 130.198712 
L 182.860007 128.698712 
L 181.360007 127.198712 
L 179.860007 128.698712 
L 178.360007 127.198712 
L 176.860007 128.698712 
L 178.360007 130.198712 
L 176.860007 131.698712 
z
" clip-path="url(#p463a9c3882)" style="fill: #195f90; stroke: #ffffff; stroke-width: 0.48"/>
    <path d="M 114.299583 133.824948 
L 115.799583 132.324948 
L 117.299583 133.824948 
L 118.799583 132.324948 
L 117.299583 130.824948 
L 118.799583 129.324948 
L 117.299583 127.824948 
L 115.799583 129.324948 
L 114.299583 127.824948 
L 112.799583 129.324948 
L 114.299583 130.824948 
L 112.799583 132.324948 
z
" clip-path="url(#p463a9c3882)" style="fill: #ab1f20; stroke: #ffffff; stroke-width: 0.48"/>
    <path d="M 153.978704 124.087238 
L 155.478704 122.587238 
L 156.978704 124.087238 
L 158.478704 122.587238 
L 156.978704 121.087238 
L 158.478704 119.587238 
L 156.978704 118.087238 
L 155.478704 119.587238 
L 153.978704 118.087238 
L 152.478704 119.587238 
L 153.978704 121.087238 
L 152.478704 122.587238 
z
" clip-path="url(#p463a9c3882)" style="fill: #ab1f20; stroke: #ffffff; stroke-width: 0.48"/>
    <path d="M 215.310812 138.862737 
C 216.106421 138.862737 216.869551 138.546638 217.432132 137.984057 
C 217.994713 137.421476 218.310812 136.658346 218.310812 135.862737 
C 218.310812 135.067127 217.994713 134.303997 217.432132 133.741416 
C 216.869551 133.178836 216.106421 132.862737 215.310812 132.862737 
C 214.515203 132.862737 213.752072 133.178836 213.189491 133.741416 
C 212.626911 134.303997 212.310812 135.067127 212.310812 135.862737 
C 212.310812 136.658346 212.626911 137.421476 213.189491 137.984057 
C 213.752072 138.546638 214.515203 138.862737 215.310812 138.862737 
z
" clip-path="url(#p463a9c3882)" style="fill: #70453c; stroke: #ffffff; stroke-width: 0.48"/>
    <path d="M 201.041144 125.217309 
L 202.541144 123.717309 
L 204.041144 125.217309 
L 205.541144 123.717309 
L 204.041144 122.217309 
L 205.541144 120.717309 
L 204.041144 119.217309 
L 202.541144 120.717309 
L 201.041144 119.217309 
L 199.541144 120.717309 
L 201.041144 122.217309 
L 199.541144 123.717309 
z
" clip-path="url(#p463a9c3882)" style="fill: #195f90; stroke: #ffffff; stroke-width: 0.48"/>
    <path d="M 227.661152 117.058331 
C 228.456762 117.058331 229.219892 116.742232 229.782473 116.179652 
C 230.345053 115.617071 230.661152 114.853941 230.661152 114.058331 
C 230.661152 113.262722 230.345053 112.499592 229.782473 111.937011 
C 229.219892 111.37443 228.456762 111.058331 227.661152 111.058331 
C 226.865543 111.058331 226.102413 111.37443 225.539832 111.937011 
C 224.977251 112.499592 224.661152 113.262722 224.661152 114.058331 
C 224.661152 114.853941 224.977251 115.617071 225.539832 116.179652 
C 226.102413 116.742232 226.865543 117.058331 227.661152 117.058331 
z
" clip-path="url(#p463a9c3882)" style="fill: #195f90; stroke: #ffffff; stroke-width: 0.48"/>
    <path d="M 92.096519 116.568172 
L 93.596519 115.068172 
L 95.096519 116.568172 
L 96.596519 115.068172 
L 95.096519 113.568172 
L 96.596519 112.068172 
L 95.096519 110.568172 
L 93.596519 112.068172 
L 92.096519 110.568172 
L 90.596519 112.068172 
L 92.096519 113.568172 
L 90.596519 115.068172 
z
" clip-path="url(#p463a9c3882)" style="fill: #cc660b; stroke: #ffffff; stroke-width: 0.48"/>
    <path d="M 116.099029 161.066081 
L 117.599029 159.566081 
L 119.099029 161.066081 
L 120.599029 159.566081 
L 119.099029 158.066081 
L 120.599029 156.566081 
L 119.099029 155.066081 
L 117.599029 156.566081 
L 116.099029 155.066081 
L 114.599029 156.566081 
L 116.099029 158.066081 
L 114.599029 159.566081 
z
" clip-path="url(#p463a9c3882)" style="fill: #cc660b; stroke: #ffffff; stroke-width: 0.48"/>
    <path d="M 136.994938 101.912178 
L 138.494938 100.412178 
L 139.994938 101.912178 
L 141.494938 100.412178 
L 139.994938 98.912178 
L 141.494938 97.412178 
L 139.994938 95.912178 
L 138.494938 97.412178 
L 136.994938 95.912178 
L 135.494938 97.412178 
L 136.994938 98.912178 
L 135.494938 100.412178 
z
" clip-path="url(#p463a9c3882)" style="fill: #ab1f20; stroke: #ffffff; stroke-width: 0.48"/>
    <path d="M 243.637589 172.794191 
C 244.433198 172.794191 245.196328 172.478092 245.758909 171.915511 
C 246.32149 171.35293 246.637589 170.5898 246.637589 169.794191 
C 246.637589 168.998582 246.32149 168.235451 245.758909 167.672871 
C 245.196328 167.11029 244.433198 166.794191 243.637589 166.794191 
C 242.84198 166.794191 242.078849 167.11029 241.516268 167.672871 
C 240.953688 168.235451 240.637589 168.998582 240.637589 169.794191 
C 240.637589 170.5898 240.953688 171.35293 241.516268 171.915511 
C 242.078849 172.478092 242.84198 172.794191 243.637589 172.794191 
z
" clip-path="url(#p463a9c3882)" style="fill: #cc660b; stroke: #ffffff; stroke-width: 0.48"/>
    <path d="M 151.863289 132.389418 
L 153.363289 130.889418 
L 154.863289 132.389418 
L 156.363289 130.889418 
L 154.863289 129.389418 
L 156.363289 127.889418 
L 154.863289 126.389418 
L 153.363289 127.889418 
L 151.863289 126.389418 
L 150.363289 127.889418 
L 151.863289 129.389418 
L 150.363289 130.889418 
z
" clip-path="url(#p463a9c3882)" style="fill: #195f90; stroke: #ffffff; stroke-width: 0.48"/>
    <path d="M 172.605144 160.156158 
C 173.400753 160.156158 174.163883 159.840059 174.726464 159.277479 
C 175.289045 158.714898 175.605144 157.951767 175.605144 157.156158 
C 175.605144 156.360549 175.289045 155.597419 174.726464 155.034838 
C 174.163883 154.472257 173.400753 154.156158 172.605144 154.156158 
C 171.809534 154.156158 171.046404 154.472257 170.483823 155.034838 
C 169.921243 155.597419 169.605144 156.360549 169.605144 157.156158 
C 169.605144 157.951767 169.921243 158.714898 170.483823 159.277479 
C 171.046404 159.840059 171.809534 160.156158 172.605144 160.156158 
z
" clip-path="url(#p463a9c3882)" style="fill: #cc660b; stroke: #ffffff; stroke-width: 0.48"/>
    <path d="M 141.034147 94.399002 
L 142.534147 92.899002 
L 144.034147 94.399002 
L 145.534147 92.899002 
L 144.034147 91.399002 
L 145.534147 89.899002 
L 144.034147 88.399002 
L 142.534147 89.899002 
L 141.034147 88.399002 
L 139.534147 89.899002 
L 141.034147 91.399002 
L 139.534147 92.899002 
z
" clip-path="url(#p463a9c3882)" style="fill: #ab1f20; stroke: #ffffff; stroke-width: 0.48"/>
    <path d="M 123.947206 101.384702 
L 125.447206 99.884702 
L 126.947206 101.384702 
L 128.447206 99.884702 
L 126.947206 98.384702 
L 128.447206 96.884702 
L 126.947206 95.384702 
L 125.447206 96.884702 
L 123.947206 95.384702 
L 122.447206 96.884702 
L 123.947206 98.384702 
L 122.447206 99.884702 
z
" clip-path="url(#p463a9c3882)" style="fill: #cc660b; stroke: #ffffff; stroke-width: 0.48"/>
    <path d="M 165.443356 108.302727 
L 166.943356 106.802727 
L 168.443356 108.302727 
L 169.943356 106.802727 
L 168.443356 105.302727 
L 169.943356 103.802727 
L 168.443356 102.302727 
L 166.943356 103.802727 
L 165.443356 102.302727 
L 163.943356 103.802727 
L 165.443356 105.302727 
L 163.943356 106.802727 
z
" clip-path="url(#p463a9c3882)" style="fill: #70453c; stroke: #ffffff; stroke-width: 0.48"/>
    <path d="M 157.415429 135.887824 
L 158.915429 134.387824 
L 160.415429 135.887824 
L 161.915429 134.387824 
L 160.415429 132.887824 
L 161.915429 131.387824 
L 160.415429 129.887824 
L 158.915429 131.387824 
L 157.415429 129.887824 
L 155.915429 131.387824 
L 157.415429 132.887824 
L 155.915429 134.387824 
z
" clip-path="url(#p463a9c3882)" style="fill: #cc660b; stroke: #ffffff; stroke-width: 0.48"/>
    <path d="M 242.615563 64.615033 
C 243.411172 64.615033 244.174303 64.298934 244.736883 63.736353 
C 245.299464 63.173772 245.615563 62.410642 245.615563 61.615033 
C 245.615563 60.819423 245.299464 60.056293 244.736883 59.493712 
C 244.174303 58.931131 243.411172 58.615033 242.615563 58.615033 
C 241.819954 58.615033 241.056823 58.931131 240.494243 59.493712 
C 239.931662 60.056293 239.615563 60.819423 239.615563 61.615033 
C 239.615563 62.410642 239.931662 63.173772 240.494243 63.736353 
C 241.056823 64.298934 241.819954 64.615033 242.615563 64.615033 
z
" clip-path="url(#p463a9c3882)" style="fill: #ab1f20; stroke: #ffffff; stroke-width: 0.48"/>
    <path d="M 139.456021 115.561599 
L 140.956021 114.061599 
L 142.456021 115.561599 
L 143.956021 114.061599 
L 142.456021 112.561599 
L 143.956021 111.061599 
L 142.456021 109.561599 
L 140.956021 111.061599 
L 139.456021 109.561599 
L 137.956021 111.061599 
L 139.456021 112.561599 
L 137.956021 114.061599 
z
" clip-path="url(#p463a9c3882)" style="fill: #195f90; stroke: #ffffff; stroke-width: 0.48"/>
    <path d="M 199.82542 115.455557 
C 200.621029 115.455557 201.38416 115.139458 201.94674 114.576878 
C 202.509321 114.014297 202.82542 113.251167 202.82542 112.455557 
C 202.82542 111.659948 202.509321 110.896818 201.94674 110.334237 
C 201.38416 109.771656 200.621029 109.455557 199.82542 109.455557 
C 199.029811 109.455557 198.26668 109.771656 197.7041 110.334237 
C 197.141519 110.896818 196.82542 111.659948 196.82542 112.455557 
C 196.82542 113.251167 197.141519 114.014297 197.7041 114.576878 
C 198.26668 115.139458 199.029811 115.455557 199.82542 115.455557 
z
" clip-path="url(#p463a9c3882)" style="fill: #cc660b; stroke: #ffffff; stroke-width: 0.48"/>
    <path d="M 256.592784 43.239426 
C 257.388393 43.239426 258.151524 42.923327 258.714104 42.360746 
C 259.276685 41.798166 259.592784 41.035035 259.592784 40.239426 
C 259.592784 39.443817 259.276685 38.680686 258.714104 38.118106 
C 258.151524 37.555525 257.388393 37.239426 256.592784 37.239426 
C 255.797175 37.239426 255.034044 37.555525 254.471464 38.118106 
C 253.908883 38.680686 253.592784 39.443817 253.592784 40.239426 
C 253.592784 41.035035 253.908883 41.798166 254.471464 42.360746 
C 255.034044 42.923327 255.797175 43.239426 256.592784 43.239426 
z
" clip-path="url(#p463a9c3882)" style="fill: #ab1f20; stroke: #ffffff; stroke-width: 0.48"/>
    <path d="M 162.876925 65.899222 
C 163.672534 65.899222 164.435664 65.583123 164.998245 65.020543 
C 165.560826 64.457962 165.876925 63.694831 165.876925 62.899222 
C 165.876925 62.103613 165.560826 61.340483 164.998245 60.777902 
C 164.435664 60.215321 163.672534 59.899222 162.876925 59.899222 
C 162.081315 59.899222 161.318185 60.215321 160.755604 60.777902 
C 160.193023 61.340483 159.876925 62.103613 159.876925 62.899222 
C 159.876925 63.694831 160.193023 64.457962 160.755604 65.020543 
C 161.318185 65.583123 162.081315 65.899222 162.876925 65.899222 
z
" clip-path="url(#p463a9c3882)" style="fill: #765297; stroke: #ffffff; stroke-width: 0.48"/>
    <path d="M 123.554276 37.775398 
C 124.349885 37.775398 125.113015 37.459299 125.675596 36.896718 
C 126.238177 36.334137 126.554276 35.571007 126.554276 34.775398 
C 126.554276 33.979788 126.238177 33.216658 125.675596 32.654077 
C 125.113015 32.091497 124.349885 31.775398 123.554276 31.775398 
C 122.758666 31.775398 121.995536 32.091497 121.432955 32.654077 
C 120.870375 33.216658 120.554276 33.979788 120.554276 34.775398 
C 120.554276 35.571007 120.870375 36.334137 121.432955 36.896718 
C 121.995536 37.459299 122.758666 37.775398 123.554276 37.775398 
z
" clip-path="url(#p463a9c3882)" style="fill: #195f90; stroke: #ffffff; stroke-width: 0.48"/>
    <path d="M 236.181142 87.471617 
C 236.976752 87.471617 237.739882 87.155518 238.302463 86.592937 
C 238.865043 86.030357 239.181142 85.267226 239.181142 84.471617 
C 239.181142 83.676008 238.865043 82.912878 238.302463 82.350297 
C 237.739882 81.787716 236.976752 81.471617 236.181142 81.471617 
C 235.385533 81.471617 234.622403 81.787716 234.059822 82.350297 
C 233.497241 82.912878 233.181142 83.676008 233.181142 84.471617 
C 233.181142 85.267226 233.497241 86.030357 234.059822 86.592937 
C 234.622403 87.155518 235.385533 87.471617 236.181142 87.471617 
z
" clip-path="url(#p463a9c3882)" style="fill: #cc660b; stroke: #ffffff; stroke-width: 0.48"/>
   </g>
   <g id="matplotlib.axis_1">
    <g id="xtick_1">
     <g id="line2d_1">
      <defs>
       <path id="mb61f6cb0e4" d="M 0 0 
L 0 3.5 
" style="stroke: #000000; stroke-width: 0.8"/>
      </defs>
      <g>
       <use xlink:href="#mb61f6cb0e4" x="88.615268" y="245.93875" style="stroke: #000000; stroke-width: 0.8"/>
      </g>
     </g>
     <g id="text_1">
      <text style="font: 10px 'DejaVu Sans', 'Bitstream Vera Sans', 'Computer Modern Sans Serif', 'Lucida Grande', 'Verdana', 'Geneva', 'Lucid', 'Arial', 'Helvetica', 'Avant Garde', sans-serif; text-anchor: middle" x="88.615268" y="260.537188" transform="rotate(-0 88.615268 260.537188)">2</text>
     </g>
    </g>
    <g id="xtick_2">
     <g id="line2d_2">
      <g>
       <use xlink:href="#mb61f6cb0e4" x="129.928101" y="245.93875" style="stroke: #000000; stroke-width: 0.8"/>
      </g>
     </g>
     <g id="text_2">
      <text style="font: 10px 'DejaVu Sans', 'Bitstream Vera Sans', 'Computer Modern Sans Serif', 'Lucida Grande', 'Verdana', 'Geneva', 'Lucid', 'Arial', 'Helvetica', 'Avant Garde', sans-serif; text-anchor: middle" x="129.928101" y="260.537188" transform="rotate(-0 129.928101 260.537188)">3</text>
     </g>
    </g>
    <g id="xtick_3">
     <g id="line2d_3">
      <g>
       <use xlink:href="#mb61f6cb0e4" x="171.240934" y="245.93875" style="stroke: #000000; stroke-width: 0.8"/>
      </g>
     </g>
     <g id="text_3">
      <text style="font: 10px 'DejaVu Sans', 'Bitstream Vera Sans', 'Computer Modern Sans Serif', 'Lucida Grande', 'Verdana', 'Geneva', 'Lucid', 'Arial', 'Helvetica', 'Avant Garde', sans-serif; text-anchor: middle" x="171.240934" y="260.537188" transform="rotate(-0 171.240934 260.537188)">4</text>
     </g>
    </g>
    <g id="xtick_4">
     <g id="line2d_4">
      <g>
       <use xlink:href="#mb61f6cb0e4" x="212.553767" y="245.93875" style="stroke: #000000; stroke-width: 0.8"/>
      </g>
     </g>
     <g id="text_4">
      <text style="font: 10px 'DejaVu Sans', 'Bitstream Vera Sans', 'Computer Modern Sans Serif', 'Lucida Grande', 'Verdana', 'Geneva', 'Lucid', 'Arial', 'Helvetica', 'Avant Garde', sans-serif; text-anchor: middle" x="212.553767" y="260.537188" transform="rotate(-0 212.553767 260.537188)">5</text>
     </g>
    </g>
    <g id="xtick_5">
     <g id="line2d_5">
      <g>
       <use xlink:href="#mb61f6cb0e4" x="253.8666" y="245.93875" style="stroke: #000000; stroke-width: 0.8"/>
      </g>
     </g>
     <g id="text_5">
      <text style="font: 10px 'DejaVu Sans', 'Bitstream Vera Sans', 'Computer Modern Sans Serif', 'Lucida Grande', 'Verdana', 'Geneva', 'Lucid', 'Arial', 'Helvetica', 'Avant Garde', sans-serif; text-anchor: middle" x="253.8666" y="260.537188" transform="rotate(-0 253.8666 260.537188)">6</text>
     </g>
    </g>
    <g id="text_6">
     <text style="font: 10px 'DejaVu Sans', 'Bitstream Vera Sans', 'Computer Modern Sans Serif', 'Lucida Grande', 'Verdana', 'Geneva', 'Lucid', 'Arial', 'Helvetica', 'Avant Garde', sans-serif; text-anchor: middle" x="157.220625" y="274.215312" transform="rotate(-0 157.220625 274.215312)">Total_TEs_number_log</text>
    </g>
   </g>
   <g id="matplotlib.axis_2">
    <g id="ytick_1">
     <g id="line2d_6">
      <defs>
       <path id="m190092d18e" d="M 0 0 
L -3.5 0 
" style="stroke: #000000; stroke-width: 0.8"/>
      </defs>
      <g>
       <use xlink:href="#m190092d18e" x="47.91125" y="245.500952" style="stroke: #000000; stroke-width: 0.8"/>
      </g>
     </g>
     <g id="text_7">
      <text style="font: 10px 'DejaVu Sans', 'Bitstream Vera Sans', 'Computer Modern Sans Serif', 'Lucida Grande', 'Verdana', 'Geneva', 'Lucid', 'Arial', 'Helvetica', 'Avant Garde', sans-serif; text-anchor: end" x="40.91125" y="249.300171" transform="rotate(-0 40.91125 249.300171)">0.2</text>
     </g>
    </g>
    <g id="ytick_2">
     <g id="line2d_7">
      <g>
       <use xlink:href="#m190092d18e" x="47.91125" y="214.244239" style="stroke: #000000; stroke-width: 0.8"/>
      </g>
     </g>
     <g id="text_8">
      <text style="font: 10px 'DejaVu Sans', 'Bitstream Vera Sans', 'Computer Modern Sans Serif', 'Lucida Grande', 'Verdana', 'Geneva', 'Lucid', 'Arial', 'Helvetica', 'Avant Garde', sans-serif; text-anchor: end" x="40.91125" y="218.043458" transform="rotate(-0 40.91125 218.043458)">0.4</text>
     </g>
    </g>
    <g id="ytick_3">
     <g id="line2d_8">
      <g>
       <use xlink:href="#m190092d18e" x="47.91125" y="182.987526" style="stroke: #000000; stroke-width: 0.8"/>
      </g>
     </g>
     <g id="text_9">
      <text style="font: 10px 'DejaVu Sans', 'Bitstream Vera Sans', 'Computer Modern Sans Serif', 'Lucida Grande', 'Verdana', 'Geneva', 'Lucid', 'Arial', 'Helvetica', 'Avant Garde', sans-serif; text-anchor: end" x="40.91125" y="186.786745" transform="rotate(-0 40.91125 186.786745)">0.6</text>
     </g>
    </g>
    <g id="ytick_4">
     <g id="line2d_9">
      <g>
       <use xlink:href="#m190092d18e" x="47.91125" y="151.730813" style="stroke: #000000; stroke-width: 0.8"/>
      </g>
     </g>
     <g id="text_10">
      <text style="font: 10px 'DejaVu Sans', 'Bitstream Vera Sans', 'Computer Modern Sans Serif', 'Lucida Grande', 'Verdana', 'Geneva', 'Lucid', 'Arial', 'Helvetica', 'Avant Garde', sans-serif; text-anchor: end" x="40.91125" y="155.530031" transform="rotate(-0 40.91125 155.530031)">0.8</text>
     </g>
    </g>
    <g id="ytick_5">
     <g id="line2d_10">
      <g>
       <use xlink:href="#m190092d18e" x="47.91125" y="120.4741" style="stroke: #000000; stroke-width: 0.8"/>
      </g>
     </g>
     <g id="text_11">
      <text style="font: 10px 'DejaVu Sans', 'Bitstream Vera Sans', 'Computer Modern Sans Serif', 'Lucida Grande', 'Verdana', 'Geneva', 'Lucid', 'Arial', 'Helvetica', 'Avant Garde', sans-serif; text-anchor: end" x="40.91125" y="124.273318" transform="rotate(-0 40.91125 124.273318)">1.0</text>
     </g>
    </g>
    <g id="ytick_6">
     <g id="line2d_11">
      <g>
       <use xlink:href="#m190092d18e" x="47.91125" y="89.217387" style="stroke: #000000; stroke-width: 0.8"/>
      </g>
     </g>
     <g id="text_12">
      <text style="font: 10px 'DejaVu Sans', 'Bitstream Vera Sans', 'Computer Modern Sans Serif', 'Lucida Grande', 'Verdana', 'Geneva', 'Lucid', 'Arial', 'Helvetica', 'Avant Garde', sans-serif; text-anchor: end" x="40.91125" y="93.016605" transform="rotate(-0 40.91125 93.016605)">1.2</text>
     </g>
    </g>
    <g id="ytick_7">
     <g id="line2d_12">
      <g>
       <use xlink:href="#m190092d18e" x="47.91125" y="57.960674" style="stroke: #000000; stroke-width: 0.8"/>
      </g>
     </g>
     <g id="text_13">
      <text style="font: 10px 'DejaVu Sans', 'Bitstream Vera Sans', 'Computer Modern Sans Serif', 'Lucida Grande', 'Verdana', 'Geneva', 'Lucid', 'Arial', 'Helvetica', 'Avant Garde', sans-serif; text-anchor: end" x="40.91125" y="61.759892" transform="rotate(-0 40.91125 61.759892)">1.4</text>
     </g>
    </g>
    <g id="ytick_8">
     <g id="line2d_13">
      <g>
       <use xlink:href="#m190092d18e" x="47.91125" y="26.70396" style="stroke: #000000; stroke-width: 0.8"/>
      </g>
     </g>
     <g id="text_14">
      <text style="font: 10px 'DejaVu Sans', 'Bitstream Vera Sans', 'Computer Modern Sans Serif', 'Lucida Grande', 'Verdana', 'Geneva', 'Lucid', 'Arial', 'Helvetica', 'Avant Garde', sans-serif; text-anchor: end" x="40.91125" y="30.503179" transform="rotate(-0 40.91125 30.503179)">1.6</text>
     </g>
    </g>
    <g id="text_15">
     <text style="font: 10px 'DejaVu Sans', 'Bitstream Vera Sans', 'Computer Modern Sans Serif', 'Lucida Grande', 'Verdana', 'Geneva', 'Lucid', 'Arial', 'Helvetica', 'Avant Garde', sans-serif; text-anchor: middle" x="18.650313" y="135.329375" transform="rotate(-90 18.650313 135.329375)">OR_Observed_to_Random</text>
    </g>
   </g>
   <g id="line2d_14"/>
   <g id="line2d_15"/>
   <g id="line2d_16"/>
   <g id="line2d_17"/>
   <g id="line2d_18"/>
   <g id="line2d_19"/>
   <g id="line2d_20"/>
   <g id="line2d_21"/>
   <g id="line2d_22"/>
   <g id="line2d_23"/>
   <g id="line2d_24">
    <path d="M 57.848466 189.883991 
L 59.855984 188.991676 
L 61.863503 188.099361 
L 63.871021 187.207046 
L 65.878539 186.314731 
L 67.886058 185.422416 
L 69.893576 184.530101 
L 71.901094 183.637786 
L 73.908613 182.745471 
L 75.916131 181.853156 
L 77.92365 180.960841 
L 79.931168 180.068526 
L 81.938686 179.176211 
L 83.946205 178.283896 
L 85.953723 177.391581 
L 87.961241 176.499266 
L 89.96876 175.606951 
L 91.976278 174.714636 
L 93.983796 173.822321 
L 95.991315 172.930006 
L 97.998833 172.037691 
L 100.006352 171.145376 
L 102.01387 170.253061 
L 104.021388 169.360746 
L 106.028907 168.468431 
L 108.036425 167.576116 
L 110.043943 166.683801 
L 112.051462 165.791486 
L 114.05898 164.899171 
L 116.066499 164.006856 
L 118.074017 163.114541 
L 120.081535 162.222226 
L 122.089054 161.329911 
L 124.096572 160.437596 
L 126.10409 159.545281 
L 128.111609 158.652966 
L 130.119127 157.760651 
L 132.126645 156.868336 
L 134.134164 155.976021 
L 136.141682 155.083706 
L 138.149201 154.191391 
L 140.156719 153.299076 
L 142.164237 152.406761 
L 144.171756 151.514446 
L 146.179274 150.622131 
L 148.186792 149.729816 
L 150.194311 148.837501 
L 152.201829 147.945186 
L 154.209347 147.052871 
L 156.216866 146.160556 
L 158.224384 145.268241 
L 160.231903 144.375926 
L 162.239421 143.483611 
L 164.246939 142.591296 
L 166.254458 141.698981 
L 168.261976 140.806667 
L 170.269494 139.914352 
L 172.277013 139.022037 
L 174.284531 138.129722 
L 176.292049 137.237407 
L 178.299568 136.345092 
L 180.307086 135.452777 
L 182.314605 134.560462 
L 184.322123 133.668147 
L 186.329641 132.775832 
L 188.33716 131.883517 
L 190.344678 130.991202 
L 192.352196 130.098887 
L 194.359715 129.206572 
L 196.367233 128.314257 
L 198.374751 127.421942 
L 200.38227 126.529627 
L 202.389788 125.637312 
L 204.397307 124.744997 
L 206.404825 123.852682 
L 208.412343 122.960367 
L 210.419862 122.068052 
L 212.42738 121.175737 
L 214.434898 120.283422 
L 216.442417 119.391107 
L 218.449935 118.498792 
L 220.457454 117.606477 
L 222.464972 116.714162 
L 224.47249 115.821847 
L 226.480009 114.929532 
L 228.487527 114.037217 
L 230.495045 113.144902 
L 232.502564 112.252587 
L 234.510082 111.360272 
L 236.5176 110.467957 
L 238.525119 109.575642 
L 240.532637 108.683327 
L 242.540156 107.791012 
L 244.547674 106.898697 
L 246.555192 106.006382 
L 248.562711 105.114067 
L 250.570229 104.221752 
L 252.577747 103.329437 
L 254.585266 102.437122 
L 256.592784 101.544807 
" clip-path="url(#p463a9c3882)" style="fill: none; stroke: #000000; stroke-width: 1.5; stroke-linecap: square"/>
   </g>
   <g id="patch_3">
    <path d="M 47.91125 245.93875 
L 47.91125 24.72 
" style="fill: none; stroke: #000000; stroke-width: 0.8; stroke-linejoin: miter; stroke-linecap: square"/>
   </g>
   <g id="patch_4">
    <path d="M 266.53 245.93875 
L 266.53 24.72 
" style="fill: none; stroke: #000000; stroke-width: 0.8; stroke-linejoin: miter; stroke-linecap: square"/>
   </g>
   <g id="patch_5">
    <path d="M 47.91125 245.93875 
L 266.53 245.93875 
" style="fill: none; stroke: #000000; stroke-width: 0.8; stroke-linejoin: miter; stroke-linecap: square"/>
   </g>
   <g id="patch_6">
    <path d="M 47.91125 24.72 
L 266.53 24.72 
" style="fill: none; stroke: #000000; stroke-width: 0.8; stroke-linejoin: miter; stroke-linecap: square"/>
   </g>
   <g id="text_16">
    <g id="patch_7">
     <path d="M 58.842188 59.069281 
L 135.084844 59.069281 
Q 139.584844 59.069281 139.584844 54.569281 
L 139.584844 35.780937 
Q 139.584844 31.280937 135.084844 31.280937 
L 58.842188 31.280937 
Q 54.342188 31.280937 54.342188 35.780937 
L 54.342188 54.569281 
Q 54.342188 59.069281 58.842188 59.069281 
z
" style="fill: #ffffff; opacity: 0.8; stroke: #000000; stroke-linejoin: miter"/>
    </g>
    <text style="font: 9px 'DejaVu Sans', 'Bitstream Vera Sans', 'Computer Modern Sans Serif', 'Lucida Grande', 'Verdana', 'Geneva', 'Lucid', 'Arial', 'Helvetica', 'Avant Garde', sans-serif" transform="translate(58.842188 42.619531)">Pearson R: 0.467</text>
    <text style="font: 9px 'DejaVu Sans', 'Bitstream Vera Sans', 'Computer Modern Sans Serif', 'Lucida Grande', 'Verdana', 'Geneva', 'Lucid', 'Arial', 'Helvetica', 'Avant Garde', sans-serif" transform="translate(58.842188 52.697563)">p = 0.001</text>
   </g>
   <g id="text_17">
    <text style="font: 10px 'DejaVu Sans', 'Bitstream Vera Sans', 'Computer Modern Sans Serif', 'Lucida Grande', 'Verdana', 'Geneva', 'Lucid', 'Arial', 'Helvetica', 'Avant Garde', sans-serif; text-anchor: middle" x="157.220625" y="18.72" transform="rotate(-0 157.220625 18.72)">OR_Observed_to_Random vs Total_TEs_number_log</text>
   </g>
   <g id="legend_1">
    <g id="patch_8">
     <path d="M 273.53 217.698125 
L 415.720625 217.698125 
Q 417.720625 217.698125 417.720625 215.698125 
L 417.720625 54.960625 
Q 417.720625 52.960625 415.720625 52.960625 
L 273.53 52.960625 
Q 271.53 52.960625 271.53 54.960625 
L 271.53 215.698125 
Q 271.53 217.698125 273.53 217.698125 
z
" style="fill: #ffffff; opacity: 0.8; stroke: #cccccc; stroke-linejoin: miter"/>
    </g>
    <g id="line2d_25"/>
    <g id="text_18">
     <text style="font: 10px 'DejaVu Sans', 'Bitstream Vera Sans', 'Computer Modern Sans Serif', 'Lucida Grande', 'Verdana', 'Geneva', 'Lucid', 'Arial', 'Helvetica', 'Avant Garde', sans-serif; text-anchor: start" x="303.53" y="64.559062" transform="rotate(-0 303.53 64.559062)">class_name</text>
    </g>
    <g id="line2d_26">
     <defs>
      <path id="m60306c6765" d="M 0 3 
C 0.795609 3 1.55874 2.683901 2.12132 2.12132 
C 2.683901 1.55874 3 0.795609 3 0 
C 3 -0.795609 2.683901 -1.55874 2.12132 -2.12132 
C 1.55874 -2.683901 0.795609 -3 0 -3 
C -0.795609 -3 -1.55874 -2.683901 -2.12132 -2.12132 
C -2.683901 -1.55874 -3 -0.795609 -3 0 
C -3 0.795609 -2.683901 1.55874 -2.12132 2.12132 
C -1.55874 2.683901 -0.795609 3 0 3 
z
" style="stroke: #ffffff; stroke-width: 0.48"/>
     </defs>
     <g>
      <use xlink:href="#m60306c6765" x="285.53" y="76.015312" style="fill: #195f90; stroke: #ffffff; stroke-width: 0.48"/>
     </g>
    </g>
    <g id="text_19">
     <text style="font: 10px 'DejaVu Sans', 'Bitstream Vera Sans', 'Computer Modern Sans Serif', 'Lucida Grande', 'Verdana', 'Geneva', 'Lucid', 'Arial', 'Helvetica', 'Avant Garde', sans-serif; text-anchor: start" x="303.53" y="79.515312" transform="rotate(-0 303.53 79.515312)">DNA</text>
    </g>
    <g id="line2d_27">
     <defs>
      <path id="mcb4224a0a6" d="M 0 3 
C 0.795609 3 1.55874 2.683901 2.12132 2.12132 
C 2.683901 1.55874 3 0.795609 3 0 
C 3 -0.795609 2.683901 -1.55874 2.12132 -2.12132 
C 1.55874 -2.683901 0.795609 -3 0 -3 
C -0.795609 -3 -1.55874 -2.683901 -2.12132 -2.12132 
C -2.683901 -1.55874 -3 -0.795609 -3 0 
C -3 0.795609 -2.683901 1.55874 -2.12132 2.12132 
C -1.55874 2.683901 -0.795609 3 0 3 
z
" style="stroke: #ffffff; stroke-width: 0.48"/>
     </defs>
     <g>
      <use xlink:href="#mcb4224a0a6" x="285.53" y="90.693437" style="fill: #70453c; stroke: #ffffff; stroke-width: 0.48"/>
     </g>
    </g>
    <g id="text_20">
     <text style="font: 10px 'DejaVu Sans', 'Bitstream Vera Sans', 'Computer Modern Sans Serif', 'Lucida Grande', 'Verdana', 'Geneva', 'Lucid', 'Arial', 'Helvetica', 'Avant Garde', sans-serif; text-anchor: start" x="303.53" y="94.193437" transform="rotate(-0 303.53 94.193437)">LTR</text>
    </g>
    <g id="line2d_28">
     <defs>
      <path id="m9a45a62da6" d="M 0 3 
C 0.795609 3 1.55874 2.683901 2.12132 2.12132 
C 2.683901 1.55874 3 0.795609 3 0 
C 3 -0.795609 2.683901 -1.55874 2.12132 -2.12132 
C 1.55874 -2.683901 0.795609 -3 0 -3 
C -0.795609 -3 -1.55874 -2.683901 -2.12132 -2.12132 
C -2.683901 -1.55874 -3 -0.795609 -3 0 
C -3 0.795609 -2.683901 1.55874 -2.12132 2.12132 
C -1.55874 2.683901 -0.795609 3 0 3 
z
" style="stroke: #ffffff; stroke-width: 0.48"/>
     </defs>
     <g>
      <use xlink:href="#m9a45a62da6" x="285.53" y="105.371562" style="fill: #cc660b; stroke: #ffffff; stroke-width: 0.48"/>
     </g>
    </g>
    <g id="text_21">
     <text style="font: 10px 'DejaVu Sans', 'Bitstream Vera Sans', 'Computer Modern Sans Serif', 'Lucida Grande', 'Verdana', 'Geneva', 'Lucid', 'Arial', 'Helvetica', 'Avant Garde', sans-serif; text-anchor: start" x="303.53" y="108.871562" transform="rotate(-0 303.53 108.871562)">LINE</text>
    </g>
    <g id="line2d_29">
     <defs>
      <path id="m00abf40512" d="M 0 3 
C 0.795609 3 1.55874 2.683901 2.12132 2.12132 
C 2.683901 1.55874 3 0.795609 3 0 
C 3 -0.795609 2.683901 -1.55874 2.12132 -2.12132 
C 1.55874 -2.683901 0.795609 -3 0 -3 
C -0.795609 -3 -1.55874 -2.683901 -2.12132 -2.12132 
C -2.683901 -1.55874 -3 -0.795609 -3 0 
C -3 0.795609 -2.683901 1.55874 -2.12132 2.12132 
C -1.55874 2.683901 -0.795609 3 0 3 
z
" style="stroke: #ffffff; stroke-width: 0.48"/>
     </defs>
     <g>
      <use xlink:href="#m00abf40512" x="285.53" y="120.049688" style="fill: #238023; stroke: #ffffff; stroke-width: 0.48"/>
     </g>
    </g>
    <g id="text_22">
     <text style="font: 10px 'DejaVu Sans', 'Bitstream Vera Sans', 'Computer Modern Sans Serif', 'Lucida Grande', 'Verdana', 'Geneva', 'Lucid', 'Arial', 'Helvetica', 'Avant Garde', sans-serif; text-anchor: start" x="303.53" y="123.549688" transform="rotate(-0 303.53 123.549688)">RC</text>
    </g>
    <g id="line2d_30">
     <defs>
      <path id="me8c325ab76" d="M 0 3 
C 0.795609 3 1.55874 2.683901 2.12132 2.12132 
C 2.683901 1.55874 3 0.795609 3 0 
C 3 -0.795609 2.683901 -1.55874 2.12132 -2.12132 
C 1.55874 -2.683901 0.795609 -3 0 -3 
C -0.795609 -3 -1.55874 -2.683901 -2.12132 -2.12132 
C -2.683901 -1.55874 -3 -0.795609 -3 0 
C -3 0.795609 -2.683901 1.55874 -2.12132 2.12132 
C -1.55874 2.683901 -0.795609 3 0 3 
z
" style="stroke: #ffffff; stroke-width: 0.48"/>
     </defs>
     <g>
      <use xlink:href="#me8c325ab76" x="285.53" y="134.727812" style="fill: #ab1f20; stroke: #ffffff; stroke-width: 0.48"/>
     </g>
    </g>
    <g id="text_23">
     <text style="font: 10px 'DejaVu Sans', 'Bitstream Vera Sans', 'Computer Modern Sans Serif', 'Lucida Grande', 'Verdana', 'Geneva', 'Lucid', 'Arial', 'Helvetica', 'Avant Garde', sans-serif; text-anchor: start" x="303.53" y="138.227812" transform="rotate(-0 303.53 138.227812)">SINE</text>
    </g>
    <g id="line2d_31">
     <defs>
      <path id="m40afc570a2" d="M 0 3 
C 0.795609 3 1.55874 2.683901 2.12132 2.12132 
C 2.683901 1.55874 3 0.795609 3 0 
C 3 -0.795609 2.683901 -1.55874 2.12132 -2.12132 
C 1.55874 -2.683901 0.795609 -3 0 -3 
C -0.795609 -3 -1.55874 -2.683901 -2.12132 -2.12132 
C -2.683901 -1.55874 -3 -0.795609 -3 0 
C -3 0.795609 -2.683901 1.55874 -2.12132 2.12132 
C -1.55874 2.683901 -0.795609 3 0 3 
z
" style="stroke: #ffffff; stroke-width: 0.48"/>
     </defs>
     <g>
      <use xlink:href="#m40afc570a2" x="285.53" y="149.405937" style="fill: #765297; stroke: #ffffff; stroke-width: 0.48"/>
     </g>
    </g>
    <g id="text_24">
     <text style="font: 10px 'DejaVu Sans', 'Bitstream Vera Sans', 'Computer Modern Sans Serif', 'Lucida Grande', 'Verdana', 'Geneva', 'Lucid', 'Arial', 'Helvetica', 'Avant Garde', sans-serif; text-anchor: start" x="303.53" y="152.905937" transform="rotate(-0 303.53 152.905937)">Retroposon</text>
    </g>
    <g id="line2d_32"/>
    <g id="text_25">
     <text style="font: 10px 'DejaVu Sans', 'Bitstream Vera Sans', 'Computer Modern Sans Serif', 'Lucida Grande', 'Verdana', 'Geneva', 'Lucid', 'Arial', 'Helvetica', 'Avant Garde', sans-serif; text-anchor: start" x="303.53" y="167.584063" transform="rotate(-0 303.53 167.584063)">Status</text>
    </g>
    <g id="line2d_33">
     <defs>
      <path id="m17a4420420" d="M 0 3 
C 0.795609 3 1.55874 2.683901 2.12132 2.12132 
C 2.683901 1.55874 3 0.795609 3 0 
C 3 -0.795609 2.683901 -1.55874 2.12132 -2.12132 
C 1.55874 -2.683901 0.795609 -3 0 -3 
C -0.795609 -3 -1.55874 -2.683901 -2.12132 -2.12132 
C -2.683901 -1.55874 -3 -0.795609 -3 0 
C -3 0.795609 -2.683901 1.55874 -2.12132 2.12132 
C -1.55874 2.683901 -0.795609 3 0 3 
z
" style="stroke: #ffffff; stroke-width: 0.48"/>
     </defs>
     <g>
      <use xlink:href="#m17a4420420" x="285.53" y="178.762187" style="fill: #333333; stroke: #ffffff; stroke-width: 0.48"/>
     </g>
    </g>
    <g id="text_26">
     <text style="font: 10px 'DejaVu Sans', 'Bitstream Vera Sans', 'Computer Modern Sans Serif', 'Lucida Grande', 'Verdana', 'Geneva', 'Lucid', 'Arial', 'Helvetica', 'Avant Garde', sans-serif; text-anchor: start" x="303.53" y="182.262187" transform="rotate(-0 303.53 182.262187)">Significant</text>
    </g>
    <g id="line2d_34">
     <defs>
      <path id="m8a324433b6" d="M -1.5 3 
L 0 1.5 
L 1.5 3 
L 3 1.5 
L 1.5 0 
L 3 -1.5 
L 1.5 -3 
L 0 -1.5 
L -1.5 -3 
L -3 -1.5 
L -1.5 0 
L -3 1.5 
z
" style="stroke: #ffffff; stroke-width: 0.48; stroke-linejoin: miter"/>
     </defs>
     <g>
      <use xlink:href="#m8a324433b6" x="285.53" y="193.440312" style="fill: #333333; stroke: #ffffff; stroke-width: 0.48; stroke-linejoin: miter"/>
     </g>
    </g>
    <g id="text_27">
     <text style="font: 10px 'DejaVu Sans', 'Bitstream Vera Sans', 'Computer Modern Sans Serif', 'Lucida Grande', 'Verdana', 'Geneva', 'Lucid', 'Arial', 'Helvetica', 'Avant Garde', sans-serif; text-anchor: start" x="303.53" y="196.940312" transform="rotate(-0 303.53 196.940312)">Non-Significant</text>
    </g>
    <g id="line2d_35">
     <path d="M 275.53 208.118437 
L 285.53 208.118437 
L 295.53 208.118437 
" style="fill: none; stroke: #000000; stroke-width: 1.5; stroke-linecap: square"/>
    </g>
    <g id="text_28">
     <text style="font: 10px 'DejaVu Sans', 'Bitstream Vera Sans', 'Computer Modern Sans Serif', 'Lucida Grande', 'Verdana', 'Geneva', 'Lucid', 'Arial', 'Helvetica', 'Avant Garde', sans-serif; text-anchor: start" x="303.53" y="211.618437" transform="rotate(-0 303.53 211.618437)">Linear Trend (R=0.47)</text>
    </g>
   </g>
  </g>
 </g>
 <defs>
  <clipPath id="p463a9c3882">
   <rect x="47.91125" y="24.72" width="218.61875" height="221.21875"/>
  </clipPath>
 </defs>
</svg>
