<?xml version="1.0" encoding="utf-8" standalone="no"?>
<!DOCTYPE svg PUBLIC "-//W3C//DTD SVG 1.1//EN"
  "http://www.w3.org/Graphics/SVG/1.1/DTD/svg11.dtd">
<svg xmlns:xlink="http://www.w3.org/1999/xlink" width="409.746317pt" height="481.486164pt" viewBox="0 0 409.746317 481.486164" xmlns="http://www.w3.org/2000/svg" version="1.1">
 <metadata>
  <rdf:RDF xmlns:dc="http://purl.org/dc/elements/1.1/" xmlns:cc="http://creativecommons.org/ns#" xmlns:rdf="http://www.w3.org/1999/02/22-rdf-syntax-ns#">
   <cc:Work>
    <dc:type rdf:resource="http://purl.org/dc/dcmitype/StillImage"/>
    <dc:date>2025-12-29T16:46:28.456999</dc:date>
    <dc:format>image/svg+xml</dc:format>
    <dc:creator>
     <cc:Agent>
      <dc:title>Matplotlib v3.8.4, https://matplotlib.org/</dc:title>
     </cc:Agent>
    </dc:creator>
   </cc:Work>
  </rdf:RDF>
 </metadata>
 <defs>
  <style type="text/css">*{stroke-linejoin: round; stroke-linecap: butt}</style>
 </defs>
 <g id="figure_1">
  <g id="patch_1">
   <path d="M 0 481.486164 
L 409.746317 481.486164 
L 409.746317 0 
L 0 0 
L 0 481.486164 
z
" style="fill: none"/>
  </g>
  <g id="axes_1">
   <g id="patch_2">
    <path d="M 195.830428 91.741187 
C 174.116234 92.820792 152.807567 98.007731 133.050256 107.023087 
C 113.292945 116.038443 95.44759 128.717673 80.473787 144.378977 
L 86.373666 149.947311 
C 100.63443 135.031784 117.630007 122.956327 136.446493 114.370273 
C 155.26298 105.78422 175.556949 100.844278 196.237134 99.816083 
z
" clip-path="url(#pfc73f7ade9)" style="fill: #cc660b; stroke: #000000; stroke-width: 0.5; stroke-linejoin: miter"/>
   </g>
   <g id="patch_3">
    <path d="M 74.746362 150.677457 
C 67.446066 159.12068 60.999113 168.256744 55.498626 177.953684 
C 49.998138 187.650624 45.470728 197.861525 41.981791 208.438895 
L 49.714622 210.956757 
C 53.037419 200.883071 57.349238 191.158404 62.587798 181.923223 
C 67.826357 172.688042 73.966313 163.987028 80.918975 155.945864 
z
" clip-path="url(#pfc73f7ade9)" style="fill: #70453c; stroke: #000000; stroke-width: 0.5; stroke-linejoin: miter"/>
   </g>
   <g id="patch_4">
    <path d="M 39.524922 216.568703 
C 29.743433 252.141244 31.887674 289.929682 45.631399 324.184493 
C 59.375123 358.439304 83.984054 387.330378 115.713934 406.461929 
L 119.935711 399.550123 
C 89.716777 381.329599 66.279701 353.81429 53.190439 321.19066 
C 40.101177 288.56703 38.059043 252.578042 47.374747 218.699432 
z
" clip-path="url(#pfc73f7ade9)" style="fill: #ab1f20; stroke: #000000; stroke-width: 0.5; stroke-linejoin: miter"/>
   </g>
   <g id="patch_5">
    <path d="M 123.126212 410.682964 
C 131.632611 415.250271 140.51384 419.092051 149.674238 422.166923 
C 158.834637 425.241794 168.241198 427.538679 177.792602 429.032836 
L 179.058252 421.046224 
C 169.961676 419.623218 161.003047 417.435709 152.278858 414.50726 
C 143.554669 411.57881 135.096356 407.919973 126.995023 403.570156 
z
" clip-path="url(#pfc73f7ade9)" style="fill: #195f90; stroke: #000000; stroke-width: 0.5; stroke-linejoin: miter"/>
   </g>
   <g id="patch_6">
    <path d="M 186.262698 430.143039 
C 186.397265 430.157287 186.531849 430.171376 186.66645 430.185306 
C 186.801051 430.199237 186.935668 430.213008 187.070302 430.226621 
L 187.894157 422.183163 
C 187.765934 422.170198 187.637727 422.157083 187.509536 422.143816 
C 187.381344 422.130549 187.253169 422.11713 187.12501 422.103561 
z
" clip-path="url(#pfc73f7ade9)" style="fill: #765297; stroke: #000000; stroke-width: 0.5; stroke-linejoin: miter"/>
   </g>
   <g id="patch_7">
    <path d="M 195.588855 430.874632 
C 195.629116 430.87669 195.669377 430.878735 195.70964 430.880765 
C 195.749902 430.882795 195.790165 430.884811 195.830428 430.886813 
L 196.237134 422.811917 
C 196.198787 422.810011 196.160442 422.808091 196.122097 422.806157 
C 196.083752 422.804224 196.045408 422.802277 196.007064 422.800316 
z
" clip-path="url(#pfc73f7ade9)" style="fill: #238023; stroke: #000000; stroke-width: 0.5; stroke-linejoin: miter"/>
   </g>
   <g id="patch_8">
    <path d="M 212.912059 430.886813 
C 225.761816 430.247938 238.497952 428.169308 250.878167 424.690469 
C 263.258382 421.21163 275.203668 416.354783 286.48677 410.212327 
L 282.576507 403.121931 
C 271.830695 408.971888 260.454233 413.597457 248.663552 416.910637 
C 236.87287 420.223817 224.743217 422.203464 212.505353 422.811917 
z
" clip-path="url(#pfc73f7ade9)" style="fill: #cc660b; opacity: 0.8; stroke: #000000; stroke-width: 0.3; stroke-linejoin: miter"/>
   </g>
   <g id="patch_9">
    <path d="M 288.001286 409.377892 
C 295.401446 405.251863 302.482012 400.58391 309.184202 395.412786 
C 315.886392 390.241662 322.191608 384.581718 328.047503 378.479941 
L 322.158158 372.900611 
C 316.581115 378.711826 310.576147 384.10225 304.193109 389.027129 
C 297.810071 393.952009 291.066674 398.397679 284.018903 402.32723 
z
" clip-path="url(#pfc73f7ade9)" style="fill: #cc660b; opacity: 0.8; stroke: #000000; stroke-width: 0.3; stroke-linejoin: miter"/>
   </g>
   <g id="patch_10">
    <path d="M 329.236222 377.228676 
C 329.99957 376.416961 330.754882 375.597823 331.502049 374.771379 
C 332.249215 373.944935 332.9882 373.111226 333.718896 372.270371 
L 327.559484 366.986734 
C 326.863583 367.787548 326.159788 368.581558 325.448201 369.368647 
C 324.736614 370.155736 324.017269 370.935868 323.29027 371.708929 
z
" clip-path="url(#pfc73f7ade9)" style="fill: #cc660b; opacity: 0.8; stroke: #000000; stroke-width: 0.3; stroke-linejoin: miter"/>
   </g>
   <g id="patch_11">
    <path d="M 334.843987 370.962321 
C 335.002367 370.776285 335.160344 370.589911 335.317917 370.403199 
C 335.47549 370.216487 335.632658 370.029438 335.78942 369.842054 
L 329.531411 364.674052 
C 329.382114 364.852513 329.23243 365.030654 329.082361 365.208475 
C 328.932292 365.386296 328.781837 365.563795 328.630999 365.740973 
z
" clip-path="url(#pfc73f7ade9)" style="fill: #cc660b; opacity: 0.8; stroke: #000000; stroke-width: 0.3; stroke-linejoin: miter"/>
   </g>
   <g id="patch_12">
    <path d="M 336.889636 368.513282 
C 336.961834 368.42518 337.033943 368.337006 337.105962 368.24876 
C 337.177982 368.160514 337.249912 368.072196 337.321754 367.983807 
L 330.990777 362.904292 
C 330.922357 362.988473 330.853852 363.072585 330.785261 363.156628 
C 330.716671 363.240672 330.647996 363.324648 330.579236 363.408554 
z
" clip-path="url(#pfc73f7ade9)" style="fill: #cc660b; opacity: 0.8; stroke: #000000; stroke-width: 0.3; stroke-linejoin: miter"/>
   </g>
   <g id="patch_13">
    <path d="M 338.402938 366.639702 
C 338.413921 366.625904 338.424903 366.612105 338.435882 366.598304 
C 338.446862 366.584503 338.457839 366.570701 338.468814 366.556896 
L 332.083215 361.54533 
C 332.072763 361.558477 332.062308 361.571622 332.051852 361.584766 
C 332.041395 361.59791 332.030937 361.611052 332.020476 361.624192 
z
" clip-path="url(#pfc73f7ade9)" style="fill: #cc660b; opacity: 0.8; stroke: #000000; stroke-width: 0.3; stroke-linejoin: miter"/>
   </g>
   <g id="patch_14">
    <path d="M 339.535385 365.201315 
C 339.54238 365.192331 339.549374 365.183346 339.556368 365.17436 
C 339.563361 365.165374 339.570354 365.156388 339.577346 365.147401 
L 333.13896 360.202953 
C 333.132301 360.211512 333.125642 360.220071 333.118981 360.228629 
C 333.112321 360.237186 333.105659 360.245744 333.098997 360.2543 
z
" clip-path="url(#pfc73f7ade9)" style="fill: #cc660b; opacity: 0.8; stroke: #000000; stroke-width: 0.3; stroke-linejoin: miter"/>
   </g>
   <g id="patch_15">
    <path d="M 340.629483 363.780731 
C 344.195095 359.100233 347.514003 354.239164 350.572834 349.217111 
C 353.631664 344.195057 356.426304 339.018774 358.945491 333.709118 
L 351.584813 330.261731 
C 349.185587 335.318546 346.524025 340.24834 343.610853 345.031248 
C 340.697681 349.814156 337.536816 354.443746 334.140995 358.901363 
z
" clip-path="url(#pfc73f7ade9)" style="fill: #70453c; opacity: 0.8; stroke: #000000; stroke-width: 0.3; stroke-linejoin: miter"/>
   </g>
   <g id="patch_16">
    <path d="M 359.675969 332.149051 
C 360.781782 329.755759 361.831401 327.337228 362.823976 324.895424 
C 363.816551 322.453619 364.751813 319.989201 365.629003 317.50417 
L 357.950062 314.828448 
C 357.114643 317.195144 356.223918 319.542209 355.278608 321.867737 
C 354.333298 324.193265 353.333661 326.496627 352.280506 328.775954 
z
" clip-path="url(#pfc73f7ade9)" style="fill: #70453c; opacity: 0.8; stroke: #000000; stroke-width: 0.3; stroke-linejoin: miter"/>
   </g>
   <g id="patch_17">
    <path d="M 366.193851 315.877643 
C 367.042646 313.392697 367.833343 310.888535 368.565305 308.367174 
C 369.297267 305.845813 369.970297 303.30793 370.583853 300.755572 
L 362.668966 298.877402 
C 362.084628 301.308219 361.443647 303.72525 360.74654 306.126546 
C 360.049434 308.527843 359.296389 310.912759 358.488012 313.279374 
z
" clip-path="url(#pfc73f7ade9)" style="fill: #70453c; opacity: 0.8; stroke: #000000; stroke-width: 0.3; stroke-linejoin: miter"/>
   </g>
   <g id="patch_18">
    <path d="M 370.977614 299.080016 
C 371.070704 298.674626 371.162295 298.268899 371.252385 297.862841 
C 371.342475 297.456783 371.431063 297.050397 371.518148 296.643692 
L 363.558772 294.961326 
C 363.475834 295.348664 363.391464 295.735698 363.305664 296.12242 
C 363.219864 296.509142 363.132634 296.895549 363.043977 297.281634 
z
" clip-path="url(#pfc73f7ade9)" style="fill: #70453c; opacity: 0.8; stroke: #000000; stroke-width: 0.3; stroke-linejoin: miter"/>
   </g>
   <g id="patch_19">
    <path d="M 371.869921 294.95894 
C 371.905367 294.784743 371.940538 294.61049 371.975434 294.436183 
C 372.01033 294.261876 372.04495 294.087514 372.079294 293.913099 
L 364.093197 292.360761 
C 364.060488 292.52687 364.027516 292.692929 363.994282 292.858936 
C 363.961048 293.024943 363.927552 293.190898 363.893793 293.3568 
z
" clip-path="url(#pfc73f7ade9)" style="fill: #70453c; opacity: 0.8; stroke: #000000; stroke-width: 0.3; stroke-linejoin: miter"/>
   </g>
   <g id="patch_20">
    <path d="M 372.403187 292.222837 
C 377.241428 266.258651 375.917254 239.527525 368.53625 214.160855 
C 361.155245 188.794186 347.91894 165.484584 329.882726 146.090632 
L 323.905989 151.577459 
C 341.083335 170.047889 353.68934 192.247511 360.718869 216.406243 
C 367.748397 240.564976 369.009514 266.023191 364.401666 290.750987 
z
" clip-path="url(#pfc73f7ade9)" style="fill: #ab1f20; opacity: 0.8; stroke: #000000; stroke-width: 0.3; stroke-linejoin: miter"/>
   </g>
   <g id="patch_21">
    <path d="M 328.701025 144.832822 
C 320.364092 136.04859 311.107817 128.172903 301.089392 121.339507 
C 291.070966 114.506111 280.347427 108.75391 269.100882 104.180588 
L 266.018519 111.663131 
C 276.729513 116.018676 286.942408 121.496963 296.483766 128.004959 
C 306.025123 134.512955 314.840623 142.01361 322.780559 150.379544 
z
" clip-path="url(#pfc73f7ade9)" style="fill: #ab1f20; opacity: 0.8; stroke: #000000; stroke-width: 0.3; stroke-linejoin: miter"/>
   </g>
   <g id="patch_22">
    <path d="M 267.494829 103.536919 
C 267.407091 103.502268 267.319324 103.467689 267.231528 103.433183 
C 267.143732 103.398677 267.055908 103.364243 266.968054 103.329881 
L 263.987254 110.852934 
C 264.070924 110.88566 264.154566 110.918454 264.238181 110.951317 
C 264.321796 110.98418 264.405384 111.017112 264.488944 111.050113 
z
" clip-path="url(#pfc73f7ade9)" style="fill: #ab1f20; opacity: 0.8; stroke: #000000; stroke-width: 0.3; stroke-linejoin: miter"/>
   </g>
   <g id="patch_23">
    <path d="M 265.353433 102.70773 
C 265.310565 102.69146 265.267691 102.675207 265.224809 102.658971 
C 265.181928 102.642735 265.13904 102.626516 265.096146 102.610314 
L 262.204484 110.167633 
C 262.245335 110.183063 262.286181 110.198509 262.32702 110.213972 
C 262.36786 110.229435 262.408693 110.244914 262.44952 110.26041 
z
" clip-path="url(#pfc73f7ade9)" style="fill: #ab1f20; opacity: 0.8; stroke: #000000; stroke-width: 0.3; stroke-linejoin: miter"/>
   </g>
   <g id="patch_24">
    <path d="M 263.474281 102.007048 
C 263.439904 101.994458 263.405522 101.981879 263.371136 101.969311 
C 263.33675 101.956742 263.30236 101.944185 263.267966 101.931639 
L 260.46336 109.521275 
C 260.496116 109.533224 260.528869 109.545183 260.561617 109.557153 
C 260.594366 109.569123 260.62711 109.581103 260.659851 109.593093 
z
" clip-path="url(#pfc73f7ade9)" style="fill: #ab1f20; opacity: 0.8; stroke: #000000; stroke-width: 0.3; stroke-linejoin: miter"/>
   </g>
   <g id="patch_25">
    <path d="M 261.639273 101.346815 
C 256.667986 99.589991 251.61747 98.062867 246.503961 96.770353 
C 241.390451 95.477838 236.219433 94.421319 231.007529 93.604192 
L 229.739135 101.590373 
C 234.702853 102.36859 239.627632 103.374798 244.497641 104.605764 
C 249.36765 105.836731 254.177665 107.291134 258.912224 108.9643 
z
" clip-path="url(#pfc73f7ade9)" style="fill: #195f90; opacity: 0.8; stroke: #000000; stroke-width: 0.3; stroke-linejoin: miter"/>
   </g>
   <g id="patch_26">
    <path d="M 229.295555 93.344613 
C 226.910467 92.995252 224.518205 92.696076 222.120376 92.447288 
C 219.722546 92.1985 217.319686 92.000155 214.91341 91.852387 
L 214.411402 99.921987 
C 216.703094 100.062719 218.991532 100.251619 221.275179 100.48856 
C 223.558826 100.725501 225.83717 101.01043 228.108683 101.343156 
z
" clip-path="url(#pfc73f7ade9)" style="fill: #195f90; opacity: 0.8; stroke: #000000; stroke-width: 0.3; stroke-linejoin: miter"/>
   </g>
   <g id="patch_27">
    <path d="M 213.184393 91.754944 
C 211.885294 91.688289 210.585471 91.636374 209.285178 91.59921 
C 207.984886 91.562045 206.684209 91.539633 205.383401 91.531978 
L 205.335203 99.616836 
C 206.574067 99.624127 207.812808 99.645472 209.051182 99.680866 
C 210.289555 99.716261 211.527482 99.765704 212.76472 99.829184 
z
" clip-path="url(#pfc73f7ade9)" style="fill: #195f90; opacity: 0.8; stroke: #000000; stroke-width: 0.3; stroke-linejoin: miter"/>
   </g>
   <g id="patch_28">
    <path d="M 203.651606 91.530505 
C 203.284152 91.532043 202.916704 91.534758 202.549268 91.53865 
C 202.181831 91.542543 201.814408 91.547613 201.447005 91.55386 
L 201.586254 99.637676 
C 201.936162 99.631727 202.286089 99.626898 202.636028 99.623191 
C 202.985968 99.619484 203.335918 99.616898 203.685875 99.615434 
z
" clip-path="url(#pfc73f7ade9)" style="fill: #195f90; opacity: 0.8; stroke: #000000; stroke-width: 0.3; stroke-linejoin: miter"/>
   </g>
   <g id="patch_29">
    <path d="M 199.715635 91.592021 
C 199.360811 91.601628 199.006017 91.612335 198.651259 91.624139 
C 198.296502 91.635944 197.941782 91.648847 197.587106 91.662847 
L 197.91016 99.741474 
C 198.247947 99.72814 198.585775 99.715851 198.92364 99.704609 
C 199.261504 99.693366 199.599403 99.68317 199.937331 99.67402 
z
" clip-path="url(#pfc73f7ade9)" style="fill: #195f90; opacity: 0.8; stroke: #000000; stroke-width: 0.3; stroke-linejoin: miter"/>
   </g>
   <g id="patch_30">
    <path d="M 195.857046 91.739866 
C 195.700003 91.747649 195.542971 91.755648 195.385951 91.763863 
C 195.22893 91.772077 195.071921 91.780506 194.914924 91.789151 
L 195.365225 99.861763 
C 195.514746 99.85353 195.664278 99.845502 195.813822 99.837679 
C 195.963365 99.829855 196.112919 99.822237 196.262484 99.814824 
z
" clip-path="url(#pfc73f7ade9)" style="fill: #195f90; opacity: 0.8; stroke: #000000; stroke-width: 0.3; stroke-linejoin: miter"/>
   </g>
   <g id="patch_31">
    <path d="M 193.18629 91.893068 
C 193.102555 91.898525 193.018824 91.904044 192.935097 91.909623 
C 192.851371 91.915203 192.767648 91.920843 192.68393 91.926546 
L 193.240468 99.992615 
C 193.3202 99.987184 193.399936 99.981812 193.479676 99.976498 
C 193.559415 99.971184 193.639159 99.965929 193.718907 99.960732 
z
" clip-path="url(#pfc73f7ade9)" style="fill: #195f90; opacity: 0.8; stroke: #000000; stroke-width: 0.3; stroke-linejoin: miter"/>
   </g>
   <g id="patch_32">
    <path d="M 190.956811 92.052919 
C 190.887974 92.058304 190.81914 92.063731 190.75031 92.069199 
C 190.681479 92.074667 190.612652 92.080177 190.543829 92.085728 
L 191.202277 100.144217 
C 191.267823 100.138931 191.333373 100.133683 191.398926 100.128475 
C 191.464479 100.123268 191.530035 100.118099 191.595594 100.11297 
z
" clip-path="url(#pfc73f7ade9)" style="fill: #195f90; opacity: 0.8; stroke: #000000; stroke-width: 0.3; stroke-linejoin: miter"/>
   </g>
   <g id="patch_33">
    <path d="M 188.818444 92.233641 
C 188.762786 92.238695 188.70713 92.243776 188.651477 92.248884 
C 188.595823 92.253992 188.540173 92.259128 188.484525 92.26429 
L 189.241035 100.314276 
C 189.294033 100.30936 189.347034 100.304469 189.400037 100.299604 
C 189.45304 100.294739 189.506045 100.2899 189.559053 100.285087 
z
" clip-path="url(#pfc73f7ade9)" style="fill: #195f90; opacity: 0.8; stroke: #000000; stroke-width: 0.3; stroke-linejoin: miter"/>
   </g>
   <g id="patch_34">
    <path d="M 186.761067 92.432928 
C 186.712324 92.437945 186.663584 92.442983 186.614846 92.448042 
C 186.566108 92.453101 186.517372 92.458181 186.468638 92.463282 
L 187.321143 100.503792 
C 187.367556 100.498934 187.413971 100.494096 187.460389 100.489278 
C 187.506806 100.48446 187.553225 100.479662 187.599647 100.474884 
z
" clip-path="url(#pfc73f7ade9)" style="fill: #195f90; opacity: 0.8; stroke: #000000; stroke-width: 0.3; stroke-linejoin: miter"/>
   </g>
   <g id="patch_35">
    <path d="M 184.747314 92.652206 
C 184.705566 92.657001 184.66382 92.661812 184.622076 92.666637 
C 184.580332 92.671463 184.53859 92.676303 184.49685 92.681159 
L 185.443249 100.711295 
C 185.483002 100.70667 185.522757 100.70206 185.562513 100.697464 
C 185.602269 100.692868 185.642027 100.688287 185.681787 100.68372 
z
" clip-path="url(#pfc73f7ade9)" style="fill: #195f90; opacity: 0.8; stroke: #000000; stroke-width: 0.3; stroke-linejoin: miter"/>
   </g>
   <g id="patch_36">
    <path d="M 182.777849 92.889926 
C 182.762044 92.891927 182.746239 92.893929 182.730434 92.895934 
C 182.714629 92.897939 182.698825 92.899945 182.683021 92.901955 
L 183.715793 100.921576 
C 183.730845 100.919662 183.745897 100.917751 183.760949 100.915842 
C 183.776001 100.913933 183.791053 100.912025 183.806106 100.91012 
z
" clip-path="url(#pfc73f7ade9)" style="fill: #195f90; opacity: 0.8; stroke: #000000; stroke-width: 0.3; stroke-linejoin: miter"/>
   </g>
   <g id="patch_37">
    <path d="M 180.966365 93.128973 
C 180.825108 93.148378 180.683876 93.167958 180.542668 93.187714 
C 180.401461 93.20747 180.260278 93.227402 180.119121 93.247509 
L 181.273984 101.250675 
C 181.408419 101.231525 181.542879 101.212543 181.677362 101.193728 
C 181.811846 101.174912 181.946353 101.156264 182.080883 101.137784 
z
" clip-path="url(#pfc73f7ade9)" style="fill: #765297; opacity: 0.8; stroke: #000000; stroke-width: 0.3; stroke-linejoin: miter"/>
   </g>
   <g id="patch_38">
    <path d="M 178.406121 93.500324 
C 178.364134 93.506737 178.32215 93.513166 178.280168 93.51961 
C 178.238186 93.526054 178.196206 93.532513 178.154229 93.538988 
L 179.402658 101.528275 
C 179.442636 101.522108 179.482617 101.515956 179.5226 101.509819 
C 179.562583 101.503682 179.602568 101.497559 179.642556 101.491452 
z
" clip-path="url(#pfc73f7ade9)" style="fill: #238023; opacity: 0.8; stroke: #000000; stroke-width: 0.3; stroke-linejoin: miter"/>
   </g>
   <g id="patch_39">
    <path d="M 196.237134 99.816083 
C 198.269814 99.816083 198.269814 242.535419 200.302494 242.535419 
L 200.302494 245.144 
C 198.269814 245.144 198.269814 102.188122 175.447117 102.188122 
L 176.920298 101.930728 
L 178.395799 101.686796 
L 179.873493 101.456348 
L 181.353257 101.239403 
L 182.834965 101.035979 
L 184.318492 100.846094 
L 185.803713 100.669763 
L 187.290502 100.507002 
L 188.778735 100.357824 
L 190.268284 100.222242 
L 191.759024 100.100267 
L 193.25083 99.991909 
L 194.743575 99.897179 
z
" clip-path="url(#pfc73f7ade9)" style="fill: #cc660b; fill-opacity: 0.45"/>
   </g>
   <g id="patch_40">
    <path d="M 175.447117 102.188122 
C 187.874805 102.188122 187.874805 321.258155 200.302494 321.258155 
L 200.302494 334.079 
C 187.874805 334.079 187.874805 149.947311 86.373666 149.947311 
L 91.555552 144.766995 
L 96.967594 139.824447 
L 102.598749 135.129749 
L 108.437531 130.692479 
L 114.472027 126.521691 
L 120.689926 122.625892 
L 127.078543 119.013031 
L 133.624846 115.690478 
L 140.315478 112.665011 
L 147.13679 109.942804 
L 154.074866 107.529408 
L 161.115551 105.429749 
L 168.244483 103.648108 
z
" clip-path="url(#pfc73f7ade9)" style="fill: #cc660b; fill-opacity: 0.12"/>
   </g>
   <g id="patch_41">
    <path d="M 80.918975 155.945864 
C 140.610734 155.945864 140.610734 241.77171 200.302494 241.77171 
L 200.302494 242.535419 
C 140.610734 242.535419 140.610734 160.640037 77.012452 160.640037 
L 77.285561 160.299921 
L 77.55959 159.960537 
L 77.834537 159.621887 
L 78.1104 159.283973 
L 78.387177 158.946798 
L 78.664866 158.610364 
L 78.943465 158.274673 
L 79.222973 157.939729 
L 79.503387 157.605533 
L 79.784704 157.272088 
L 80.066924 156.939396 
L 80.350044 156.607459 
L 80.634061 156.276281 
z
" clip-path="url(#pfc73f7ade9)" style="fill: #70453c; fill-opacity: 0.45"/>
   </g>
   <g id="patch_42">
    <path d="M 77.012452 160.640037 
C 138.657473 160.640037 138.657473 314.053684 200.302494 314.053684 
L 200.302494 321.258155 
C 138.657473 321.258155 138.657473 210.956757 49.714622 210.956757 
L 51.050838 207.07303 
L 52.485835 203.224249 
L 54.018688 199.412894 
L 55.648409 195.641421 
L 57.37395 191.912258 
L 59.194197 188.22781 
L 61.107979 184.59045 
L 63.114062 181.002521 
L 65.211153 177.466334 
L 67.397903 173.984169 
L 69.672901 170.558268 
L 72.034682 167.19084 
L 74.481725 163.884052 
z
" clip-path="url(#pfc73f7ade9)" style="fill: #70453c; fill-opacity: 0.12"/>
   </g>
   <g id="patch_43">
    <path d="M 47.374747 218.699432 
C 123.83862 218.699432 123.83862 237.128377 200.302494 237.128377 
L 200.302494 241.77171 
C 123.83862 241.77171 123.83862 255.226617 41.736612 255.226617 
L 41.858605 252.584058 
L 42.024093 249.943837 
L 42.23303 247.306658 
L 42.48536 244.673228 
L 42.781017 242.044252 
L 43.119921 239.420433 
L 43.501982 236.802473 
L 43.927096 234.191074 
L 44.395151 231.586933 
L 44.906021 228.990749 
L 45.45957 226.403215 
L 46.055648 223.825025 
L 46.694098 221.256868 
z
" clip-path="url(#pfc73f7ade9)" style="fill: #ab1f20; fill-opacity: 0.45"/>
   </g>
   <g id="patch_44">
    <path d="M 41.736612 255.226617 
C 121.019553 255.226617 121.019553 292.503114 200.302494 292.503114 
L 200.302494 314.053684 
C 121.019553 314.053684 121.019553 399.550123 119.935711 399.550123 
L 109.624918 392.788258 
L 99.860087 385.268791 
L 90.697489 377.03505 
L 82.18992 368.134483 
L 74.386404 358.618377 
L 67.331908 348.541568 
L 61.067083 337.962122 
L 55.628029 326.941001 
L 51.046088 315.541714 
L 47.347662 303.829947 
L 44.554063 291.873187 
L 42.68139 279.740334 
L 41.740432 267.501302 
z
" clip-path="url(#pfc73f7ade9)" style="fill: #ab1f20; fill-opacity: 0.12"/>
   </g>
   <g id="patch_45">
    <path d="M 126.995023 403.570156 
C 163.648758 403.570156 163.648758 236.255764 200.302494 236.255764 
L 200.302494 237.128377 
C 163.648758 237.128377 163.648758 406.746346 133.22758 406.746346 
L 132.777889 406.528342 
L 132.328874 406.308966 
L 131.880541 406.088219 
L 131.432893 405.866104 
L 130.985934 405.642622 
L 130.539668 405.417776 
L 130.094101 405.191569 
L 129.649236 404.964001 
L 129.205077 404.735075 
L 128.761628 404.504794 
L 128.318894 404.273159 
L 127.876879 404.040173 
L 127.435587 403.805838 
z
" clip-path="url(#pfc73f7ade9)" style="fill: #195f90; fill-opacity: 0.45"/>
   </g>
   <g id="patch_46">
    <path d="M 133.22758 406.746346 
C 166.765037 406.746346 166.765037 286.497262 200.302494 286.497262 
L 200.302494 292.503114 
C 166.765037 292.503114 166.765037 421.046224 179.058252 421.046224 
L 175.662252 420.478332 
L 172.279107 419.839175 
L 168.910331 419.12904 
L 165.557432 418.348245 
L 162.221911 417.49714 
L 158.905262 416.576106 
L 155.60897 415.585554 
L 152.334511 414.52593 
L 149.083351 413.397706 
L 145.856945 412.201389 
L 142.656739 410.937513 
L 139.484164 409.606645 
L 136.340642 408.209381 
z
" clip-path="url(#pfc73f7ade9)" style="fill: #195f90; fill-opacity: 0.12"/>
   </g>
   <g id="patch_47">
    <path d="M 187.12501 422.103561 
C 193.713752 422.103561 193.713752 236.2378 200.302494 236.2378 
L 200.302494 236.255764 
C 193.713752 236.255764 193.713752 422.118681 187.268414 422.118681 
L 187.258171 422.117605 
L 187.247927 422.116528 
L 187.237684 422.115451 
L 187.22744 422.114374 
L 187.217197 422.113295 
L 187.206954 422.112216 
L 187.19671 422.111137 
L 187.186467 422.110056 
L 187.176224 422.108975 
L 187.165981 422.107894 
L 187.155738 422.106811 
L 187.145495 422.105729 
L 187.135253 422.104645 
z
" clip-path="url(#pfc73f7ade9)" style="fill: #765297; fill-opacity: 0.45"/>
   </g>
   <g id="patch_48">
    <path d="M 187.268414 422.118681 
C 193.785454 422.118681 193.785454 286.418896 200.302494 286.418896 
L 200.302494 286.497262 
C 193.785454 286.497262 193.785454 422.183163 187.894157 422.183163 
L 187.849452 422.178636 
L 187.80475 422.174098 
L 187.760048 422.169547 
L 187.715348 422.164984 
L 187.670648 422.160409 
L 187.625951 422.155822 
L 187.581254 422.151222 
L 187.536559 422.14661 
L 187.491865 422.141986 
L 187.447172 422.137349 
L 187.402481 422.132701 
L 187.357791 422.12804 
L 187.313102 422.123366 
z
" clip-path="url(#pfc73f7ade9)" style="fill: #765297; fill-opacity: 0.12"/>
   </g>
   <g id="patch_49">
    <path d="M 196.007064 422.800316 
C 198.154779 422.800316 198.154779 236.235144 200.302494 236.235144 
L 200.302494 236.2378 
C 198.154779 236.2378 198.154779 422.801404 196.028359 422.801404 
L 196.026838 422.801326 
L 196.025317 422.801248 
L 196.023796 422.801171 
L 196.022275 422.801093 
L 196.020754 422.801015 
L 196.019233 422.800938 
L 196.017712 422.80086 
L 196.016191 422.800782 
L 196.01467 422.800705 
L 196.013149 422.800627 
L 196.011627 422.800549 
L 196.010106 422.800472 
L 196.008585 422.800394 
z
" clip-path="url(#pfc73f7ade9)" style="fill: #238023; fill-opacity: 0.45"/>
   </g>
   <g id="patch_50">
    <path d="M 196.028359 422.801404 
C 198.165426 422.801404 198.165426 286.392856 200.302494 286.392856 
L 200.302494 286.418896 
C 198.165426 286.418896 198.165426 422.811917 196.237134 422.811917 
L 196.222221 422.811175 
L 196.207308 422.810431 
L 196.192395 422.809687 
L 196.177483 422.80894 
L 196.16257 422.808193 
L 196.147657 422.807444 
L 196.132745 422.806694 
L 196.117832 422.805942 
L 196.10292 422.805189 
L 196.088008 422.804435 
L 196.073096 422.803679 
L 196.058183 422.802922 
L 196.043271 422.802163 
z
" clip-path="url(#pfc73f7ade9)" style="fill: #238023; fill-opacity: 0.12"/>
   </g>
   <g id="patch_51">
    <path d="M 223.371904 421.908235 
C 215.905949 421.908235 215.905949 243.854672 208.439994 243.854672 
L 208.439994 245.144 
C 215.905949 245.144 215.905949 422.811917 212.505353 422.811917 
L 213.283326 422.771382 
L 214.061094 422.727148 
L 214.83864 422.679216 
L 215.615947 422.627586 
L 216.392995 422.57226 
L 217.169769 422.513239 
L 217.946249 422.450524 
L 218.722418 422.384117 
L 219.498258 422.31402 
L 220.273751 422.240234 
L 221.048881 422.162761 
L 221.823628 422.081602 
L 222.597975 421.996759 
z
" clip-path="url(#pfc73f7ade9)" style="fill: #cc660b; fill-opacity: 0.35"/>
   </g>
   <g id="patch_52">
    <path d="M 282.576507 403.121931 
C 245.50825 403.121931 245.50825 326.686431 208.439994 326.686431 
L 208.439994 334.079 
C 245.50825 334.079 245.50825 421.908235 223.371904 421.908235 
L 227.800409 421.3297 
L 232.211266 420.63064 
L 236.601153 419.811581 
L 240.966765 418.87314 
L 245.304813 417.816023 
L 249.612029 416.641028 
L 253.885169 415.349039 
L 258.121015 413.941028 
L 262.316375 412.418058 
L 266.468091 410.781274 
L 270.573035 409.03191 
L 274.628115 407.171284 
L 278.630277 405.200796 
z
" clip-path="url(#pfc73f7ade9)" style="fill: #cc660b; fill-opacity: 0.08"/>
   </g>
   <g id="patch_53">
    <path d="M 292.313505 397.374715 
C 250.376749 397.374715 250.376749 242.710513 208.439994 242.710513 
L 208.439994 243.854672 
C 250.376749 243.854672 250.376749 402.32723 284.018903 402.32723 
L 284.621067 401.989815 
L 285.221782 401.649862 
L 285.821039 401.307377 
L 286.418826 400.962366 
L 287.015133 400.614835 
L 287.609948 400.26479 
L 288.203261 399.912238 
L 288.795062 399.557186 
L 289.38534 399.199639 
L 289.974083 398.839604 
L 290.561282 398.477087 
L 291.146926 398.112096 
L 291.731004 397.744636 
z
" clip-path="url(#pfc73f7ade9)" style="fill: #cc660b; fill-opacity: 0.35"/>
   </g>
   <g id="patch_54">
    <path d="M 322.158158 372.900611 
C 265.299076 372.900611 265.299076 322.100951 208.439994 322.100951 
L 208.439994 326.686431 
C 265.299076 326.686431 265.299076 397.374715 292.313505 397.374715 
L 294.631986 395.867602 
L 296.924308 394.321495 
L 299.189808 392.73684 
L 301.427828 391.114098 
L 303.63772 389.453739 
L 305.818844 387.756244 
L 307.970568 386.022104 
L 310.092267 384.251824 
L 312.183328 382.445914 
L 314.243143 380.6049 
L 316.271117 378.729314 
L 318.266662 376.819699 
L 320.229198 374.876611 
z
" clip-path="url(#pfc73f7ade9)" style="fill: #cc660b; fill-opacity: 0.08"/>
   </g>
   <g id="patch_55">
    <path d="M 324.06719 370.87695 
C 266.253592 370.87695 266.253592 242.575477 208.439994 242.575477 
L 208.439994 242.710513 
C 266.253592 242.710513 266.253592 371.708929 323.29027 371.708929 
L 323.345959 371.649682 
L 323.401618 371.590407 
L 323.457248 371.531105 
L 323.512847 371.471774 
L 323.568416 371.412416 
L 323.623956 371.35303 
L 323.679465 371.293617 
L 323.734944 371.234176 
L 323.790394 371.174707 
L 323.845813 371.115211 
L 323.901202 371.055687 
L 323.956562 370.996136 
L 324.011891 370.936557 
z
" clip-path="url(#pfc73f7ade9)" style="fill: #cc660b; fill-opacity: 0.35"/>
   </g>
   <g id="patch_56">
    <path d="M 327.559484 366.986734 
C 267.999739 366.986734 267.999739 321.480691 208.439994 321.480691 
L 208.439994 322.100951 
C 267.999739 322.100951 267.999739 370.87695 324.06719 370.87695 
L 324.320809 370.602807 
L 324.573791 370.328083 
L 324.826136 370.052782 
L 325.077843 369.776904 
L 325.328909 369.500451 
L 325.579334 369.223424 
L 325.829116 368.945825 
L 326.078254 368.667655 
L 326.326747 368.388916 
L 326.574593 368.109609 
L 326.821791 367.829736 
L 327.06834 367.549298 
L 327.314238 367.268297 
z
" clip-path="url(#pfc73f7ade9)" style="fill: #cc660b; fill-opacity: 0.08"/>
   </g>
   <g id="patch_57">
    <path d="M 328.765938 365.582264 
C 268.602966 365.582264 268.602966 242.550757 208.439994 242.550757 
L 208.439994 242.575477 
C 268.602966 242.575477 268.602966 365.740973 328.630999 365.740973 
L 328.640644 365.729642 
L 328.650288 365.718311 
L 328.659932 365.706978 
L 328.669574 365.695645 
L 328.679215 365.684311 
L 328.688855 365.672976 
L 328.698494 365.66164 
L 328.708132 365.650303 
L 328.717769 365.638966 
L 328.727405 365.627627 
L 328.73704 365.616288 
L 328.746673 365.604948 
L 328.756306 365.593606 
z
" clip-path="url(#pfc73f7ade9)" style="fill: #cc660b; fill-opacity: 0.35"/>
   </g>
   <g id="patch_58">
    <path d="M 329.531411 364.674052 
C 268.985703 364.674052 268.985703 321.339744 208.439994 321.339744 
L 208.439994 321.480691 
C 268.985703 321.480691 268.985703 365.582264 328.765938 365.582264 
L 328.820836 365.517577 
L 328.875701 365.452861 
L 328.930531 365.388117 
L 328.985328 365.323344 
L 329.04009 365.258543 
L 329.094818 365.193713 
L 329.149512 365.128854 
L 329.204172 365.063968 
L 329.258797 364.999053 
L 329.313388 364.934109 
L 329.367946 364.869137 
L 329.422468 364.804137 
L 329.476957 364.739108 
z
" clip-path="url(#pfc73f7ade9)" style="fill: #cc660b; fill-opacity: 0.08"/>
   </g>
   <g id="patch_59">
    <path d="M 330.645633 363.327478 
C 269.542813 363.327478 269.542813 242.538321 208.439994 242.538321 
L 208.439994 242.550757 
C 269.542813 242.550757 269.542813 363.408554 330.579236 363.408554 
L 330.583981 363.402765 
L 330.588725 363.396975 
L 330.593469 363.391184 
L 330.598212 363.385394 
L 330.602956 363.379603 
L 330.607699 363.373813 
L 330.612441 363.368022 
L 330.617184 363.36223 
L 330.621926 363.356439 
L 330.626668 363.350647 
L 330.631409 363.344855 
L 330.636151 363.339063 
L 330.640892 363.333271 
z
" clip-path="url(#pfc73f7ade9)" style="fill: #cc660b; fill-opacity: 0.35"/>
   </g>
   <g id="patch_60">
    <path d="M 330.990777 362.904292 
C 269.715385 362.904292 269.715385 321.274936 208.439994 321.274936 
L 208.439994 321.339744 
C 269.715385 321.339744 269.715385 363.327478 330.645633 363.327478 
L 330.670334 363.297289 
L 330.695027 363.267094 
L 330.719713 363.236893 
L 330.744392 363.206686 
L 330.769063 363.176473 
L 330.793727 363.146254 
L 330.818384 363.11603 
L 330.843034 363.085799 
L 330.867676 363.055563 
L 330.892311 363.02532 
L 330.916938 362.995072 
L 330.941559 362.964818 
L 330.966171 362.934558 
z
" clip-path="url(#pfc73f7ade9)" style="fill: #cc660b; fill-opacity: 0.08"/>
   </g>
   <g id="patch_61">
    <path d="M 332.030144 361.612046 
C 270.235069 361.612046 270.235069 242.536478 208.439994 242.536478 
L 208.439994 242.538321 
C 270.235069 242.538321 270.235069 361.624192 332.020476 361.624192 
L 332.021166 361.623325 
L 332.021857 361.622457 
L 332.022548 361.62159 
L 332.023238 361.620722 
L 332.023929 361.619854 
L 332.024619 361.618987 
L 332.02531 361.618119 
L 332.026001 361.617252 
L 332.026691 361.616384 
L 332.027382 361.615517 
L 332.028072 361.614649 
L 332.028763 361.613782 
L 332.029453 361.612914 
z
" clip-path="url(#pfc73f7ade9)" style="fill: #cc660b; fill-opacity: 0.35"/>
   </g>
   <g id="patch_62">
    <path d="M 332.083215 361.54533 
C 270.261604 361.54533 270.261604 321.264818 208.439994 321.264818 
L 208.439994 321.274936 
C 270.261604 321.274936 270.261604 361.612046 332.030144 361.612046 
L 332.033936 361.607282 
L 332.037728 361.602517 
L 332.041519 361.597752 
L 332.045311 361.592987 
L 332.049102 361.588222 
L 332.052893 361.583457 
L 332.056684 361.578692 
L 332.060475 361.573926 
L 332.064265 361.56916 
L 332.068056 361.564395 
L 332.071846 361.559629 
L 332.075636 361.554862 
L 332.079426 361.550096 
z
" clip-path="url(#pfc73f7ade9)" style="fill: #cc660b; fill-opacity: 0.08"/>
   </g>
   <g id="patch_63">
    <path d="M 333.10448 360.247257 
C 270.772237 360.247257 270.772237 242.535419 208.439994 242.535419 
L 208.439994 242.536478 
C 270.772237 242.536478 270.772237 360.2543 333.098997 360.2543 
L 333.099389 360.253797 
L 333.09978 360.253294 
L 333.100172 360.252791 
L 333.100564 360.252288 
L 333.100955 360.251785 
L 333.101347 360.251282 
L 333.101739 360.250779 
L 333.10213 360.250276 
L 333.102522 360.249773 
L 333.102914 360.24927 
L 333.103305 360.248767 
L 333.103697 360.248264 
L 333.104089 360.247761 
z
" clip-path="url(#pfc73f7ade9)" style="fill: #cc660b; fill-opacity: 0.35"/>
   </g>
   <g id="patch_64">
    <path d="M 333.13896 360.202953 
C 270.789477 360.202953 270.789477 321.258155 208.439994 321.258155 
L 208.439994 321.264818 
C 270.789477 321.264818 270.789477 360.247257 333.10448 360.247257 
L 333.106944 360.244093 
L 333.109407 360.240929 
L 333.11187 360.237765 
L 333.114333 360.2346 
L 333.116796 360.231436 
L 333.119259 360.228271 
L 333.121722 360.225107 
L 333.124185 360.221942 
L 333.126648 360.218778 
L 333.12911 360.215613 
L 333.131573 360.212448 
L 333.134035 360.209283 
L 333.136498 360.206118 
z
" clip-path="url(#pfc73f7ade9)" style="fill: #cc660b; fill-opacity: 0.08"/>
   </g>
   <g id="patch_65">
    <path d="M 335.801764 356.682126 
C 272.120879 356.682126 272.120879 242.206373 208.439994 242.206373 
L 208.439994 242.535419 
C 272.120879 242.535419 272.120879 358.901363 334.140995 358.901363 
L 334.260886 358.743785 
L 334.380583 358.586061 
L 334.500086 358.428193 
L 334.619395 358.270179 
L 334.73851 358.112021 
L 334.85743 357.953718 
L 334.976155 357.795272 
L 335.094685 357.636681 
L 335.21302 357.477946 
L 335.33116 357.319068 
L 335.449105 357.160047 
L 335.566854 357.000882 
L 335.684407 356.841575 
z
" clip-path="url(#pfc73f7ade9)" style="fill: #70453c; fill-opacity: 0.35"/>
   </g>
   <g id="patch_66">
    <path d="M 351.584813 330.261731 
C 280.012403 330.261731 280.012403 317.597045 208.439994 317.597045 
L 208.439994 321.258155 
C 280.012403 321.258155 280.012403 356.682126 335.801764 356.682126 
L 337.094261 354.898469 
L 338.362239 353.097523 
L 339.605462 351.279621 
L 340.823702 349.445097 
L 342.016733 347.594293 
L 343.184334 345.727548 
L 344.326291 343.845208 
L 345.442391 341.947622 
L 346.53243 340.035138 
L 347.596205 338.108112 
L 348.63352 336.166898 
L 349.644183 334.211855 
L 350.628008 332.243345 
z
" clip-path="url(#pfc73f7ade9)" style="fill: #70453c; fill-opacity: 0.08"/>
   </g>
   <g id="patch_67">
    <path d="M 353.109107 326.952971 
C 280.77455 326.952971 280.77455 241.968375 208.439994 241.968375 
L 208.439994 242.206373 
C 280.77455 242.206373 280.77455 328.775954 352.280506 328.775954 
L 352.340444 328.64608 
L 352.400267 328.516153 
L 352.459973 328.386174 
L 352.519565 328.256143 
L 352.57904 328.126059 
L 352.6384 327.995923 
L 352.697644 327.865736 
L 352.756772 327.735496 
L 352.815784 327.605204 
L 352.874681 327.474861 
L 352.933462 327.344466 
L 352.992126 327.214019 
L 353.050675 327.083521 
z
" clip-path="url(#pfc73f7ade9)" style="fill: #70453c; fill-opacity: 0.35"/>
   </g>
   <g id="patch_68">
    <path d="M 357.950062 314.828448 
C 283.195028 314.828448 283.195028 316.044646 208.439994 316.044646 
L 208.439994 317.597045 
C 283.195028 317.597045 283.195028 326.952971 353.109107 326.952971 
L 353.487396 326.100179 
L 353.860731 325.245234 
L 354.229101 324.388166 
L 354.592493 323.529002 
L 354.950896 322.667772 
L 355.304296 321.804504 
L 355.652683 320.939227 
L 355.996045 320.071969 
L 356.33437 319.20276 
L 356.667648 318.331627 
L 356.995867 317.458601 
L 357.319016 316.583709 
L 357.637084 315.706982 
z
" clip-path="url(#pfc73f7ade9)" style="fill: #70453c; fill-opacity: 0.08"/>
   </g>
   <g id="patch_69">
    <path d="M 358.898413 312.062021 
C 283.669203 312.062021 283.669203 241.815621 208.439994 241.815621 
L 208.439994 241.968375 
C 283.669203 241.968375 283.669203 313.279374 358.488012 313.279374 
L 358.517649 313.192528 
L 358.547236 313.105665 
L 358.576774 313.018786 
L 358.606262 312.93189 
L 358.635701 312.844977 
L 358.665089 312.758048 
L 358.694429 312.671102 
L 358.723718 312.58414 
L 358.752958 312.497161 
L 358.782148 312.410166 
L 358.811289 312.323154 
L 358.84038 312.236126 
L 358.869421 312.149082 
z
" clip-path="url(#pfc73f7ade9)" style="fill: #70453c; fill-opacity: 0.35"/>
   </g>
   <g id="patch_70">
    <path d="M 362.668966 298.877402 
C 285.55448 298.877402 285.55448 314.413314 208.439994 314.413314 
L 208.439994 316.044646 
C 285.55448 316.044646 285.55448 312.062021 358.898413 312.062021 
L 359.204926 311.131246 
L 359.50576 310.198644 
L 359.800903 309.264249 
L 360.090345 308.328095 
L 360.374076 307.390216 
L 360.652084 306.450647 
L 360.924359 305.509423 
L 361.190892 304.566578 
L 361.451673 303.622146 
L 361.706692 302.676162 
L 361.95594 301.728661 
L 362.199408 300.779677 
L 362.437086 299.829246 
z
" clip-path="url(#pfc73f7ade9)" style="fill: #70453c; fill-opacity: 0.08"/>
   </g>
   <g id="patch_71">
    <path d="M 363.090703 297.077543 
C 285.765348 297.077543 285.765348 241.790717 208.439994 241.790717 
L 208.439994 241.815621 
C 285.765348 241.815621 285.765348 297.281634 363.043977 297.281634 
L 363.047323 297.267058 
L 363.050668 297.252482 
L 363.054012 297.237905 
L 363.057354 297.223329 
L 363.060695 297.208751 
L 363.064035 297.194174 
L 363.067373 297.179596 
L 363.07071 297.165018 
L 363.074046 297.15044 
L 363.07738 297.135861 
L 363.080713 297.121282 
L 363.084044 297.106703 
L 363.087374 297.092123 
z
" clip-path="url(#pfc73f7ade9)" style="fill: #70453c; fill-opacity: 0.35"/>
   </g>
   <g id="patch_72">
    <path d="M 363.558772 294.961326 
C 285.999383 294.961326 285.999383 314.15551 208.439994 314.15551 
L 208.439994 314.413314 
C 285.999383 314.413314 285.999383 297.077543 363.090703 297.077543 
L 363.125082 296.926593 
L 363.159317 296.775611 
L 363.193405 296.624596 
L 363.227349 296.473548 
L 363.261146 296.322469 
L 363.294798 296.171357 
L 363.328305 296.020214 
L 363.361666 295.869038 
L 363.394881 295.717831 
L 363.427951 295.566593 
L 363.460874 295.415323 
L 363.493653 295.264022 
L 363.526285 295.112689 
z
" clip-path="url(#pfc73f7ade9)" style="fill: #70453c; fill-opacity: 0.08"/>
   </g>
   <g id="patch_73">
    <path d="M 363.925578 293.2002 
C 286.182786 293.2002 286.182786 241.77171 208.439994 241.77171 
L 208.439994 241.790717 
C 286.182786 241.790717 286.182786 293.3568 363.893793 293.3568 
L 363.896069 293.345616 
L 363.898343 293.334431 
L 363.900617 293.323246 
L 363.90289 293.31206 
L 363.905163 293.300875 
L 363.907434 293.28969 
L 363.909705 293.278504 
L 363.911975 293.267318 
L 363.914244 293.256132 
L 363.916512 293.244946 
L 363.91878 293.23376 
L 363.921047 293.222573 
L 363.923313 293.211387 
z
" clip-path="url(#pfc73f7ade9)" style="fill: #70453c; fill-opacity: 0.35"/>
   </g>
   <g id="patch_74">
    <path d="M 364.093197 292.360761 
C 286.266595 292.360761 286.266595 314.053684 208.439994 314.053684 
L 208.439994 314.15551 
C 286.266595 314.15551 286.266595 293.2002 363.925578 293.2002 
L 363.937699 293.140269 
L 363.949797 293.080334 
L 363.961873 293.020394 
L 363.973925 292.96045 
L 363.985955 292.900501 
L 363.997962 292.840548 
L 364.009946 292.78059 
L 364.021908 292.720628 
L 364.033846 292.660661 
L 364.045762 292.60069 
L 364.057655 292.540714 
L 364.069525 292.480734 
L 364.081372 292.42075 
z
" clip-path="url(#pfc73f7ade9)" style="fill: #70453c; fill-opacity: 0.08"/>
   </g>
   <g id="patch_75">
    <path d="M 367.104903 263.605336 
C 287.772448 263.605336 287.772448 238.522203 208.439994 238.522203 
L 208.439994 241.77171 
C 287.772448 241.77171 287.772448 290.750987 364.401666 290.750987 
L 364.747448 288.830729 
L 365.069888 286.906466 
L 365.368941 284.978478 
L 365.644562 283.047046 
L 365.896711 281.112451 
L 366.125352 279.174974 
L 366.330451 277.234898 
L 366.511979 275.292505 
L 366.669908 273.348078 
L 366.804217 271.401899 
L 366.914885 269.454252 
L 367.001897 267.50542 
L 367.065239 265.555687 
z
" clip-path="url(#pfc73f7ade9)" style="fill: #ab1f20; fill-opacity: 0.35"/>
   </g>
   <g id="patch_76">
    <path d="M 323.905989 151.577459 
C 266.172991 151.577459 266.172991 299.42999 208.439994 299.42999 
L 208.439994 314.053684 
C 266.172991 314.053684 266.172991 263.605336 367.104903 263.605336 
L 366.990273 254.828184 
L 366.396426 246.070144 
L 365.325113 237.357026 
L 363.77949 228.714505 
L 361.764112 220.168051 
L 359.284919 211.742849 
L 356.349216 203.463726 
L 352.965655 195.355081 
L 349.144205 187.440807 
L 344.896129 179.744228 
L 340.233945 172.288024 
L 335.171392 165.094167 
L 329.723388 158.183858 
z
" clip-path="url(#pfc73f7ade9)" style="fill: #ab1f20; fill-opacity: 0.08"/>
   </g>
   <g id="patch_77">
    <path d="M 314.490683 142.248629 
C 261.465338 142.248629 261.465338 237.144836 208.439994 237.144836 
L 208.439994 238.522203 
C 261.465338 238.522203 261.465338 150.379544 322.780559 150.379544 
L 322.208057 149.779407 
L 321.632473 149.182186 
L 321.053823 148.587897 
L 320.472121 147.996556 
L 319.887384 147.408178 
L 319.299626 146.822779 
L 318.708863 146.240373 
L 318.115111 145.660976 
L 317.518383 145.084604 
L 316.918698 144.511271 
L 316.316069 143.940992 
L 315.710513 143.373782 
L 315.102046 142.809656 
z
" clip-path="url(#pfc73f7ade9)" style="fill: #ab1f20; fill-opacity: 0.35"/>
   </g>
   <g id="patch_78">
    <path d="M 266.018519 111.663131 
C 237.229256 111.663131 237.229256 292.606183 208.439994 292.606183 
L 208.439994 299.42999 
C 237.229256 299.42999 237.229256 142.248629 314.490683 142.248629 
L 311.419687 139.515369 
L 308.27999 136.860276 
L 305.073607 134.285055 
L 301.802596 131.791357 
L 298.469056 129.380784 
L 295.075126 127.054883 
L 291.622985 124.815145 
L 288.114847 122.66301 
L 284.552965 120.599857 
L 280.939625 118.627011 
L 277.277144 116.745737 
L 273.567875 114.957245 
L 269.814196 113.26268 
z
" clip-path="url(#pfc73f7ade9)" style="fill: #ab1f20; fill-opacity: 0.08"/>
   </g>
   <g id="patch_79">
    <path d="M 264.425333 111.025006 
C 236.432663 111.025006 236.432663 237.136745 208.439994 237.136745 
L 208.439994 237.144836 
C 236.432663 237.144836 236.432663 111.050113 264.488944 111.050113 
L 264.4844 111.048319 
L 264.479857 111.046525 
L 264.475314 111.044731 
L 264.47077 111.042937 
L 264.466227 111.041143 
L 264.461683 111.03935 
L 264.45714 111.037556 
L 264.452596 111.035763 
L 264.448052 111.03397 
L 264.443509 111.032177 
L 264.438965 111.030384 
L 264.434421 111.028591 
L 264.429877 111.026799 
z
" clip-path="url(#pfc73f7ade9)" style="fill: #ab1f20; fill-opacity: 0.35"/>
   </g>
   <g id="patch_80">
    <path d="M 263.987254 110.852934 
C 236.213624 110.852934 236.213624 292.550495 208.439994 292.550495 
L 208.439994 292.606183 
C 236.213624 292.606183 236.213624 111.025006 264.425333 111.025006 
L 264.394058 111.012674 
L 264.362781 111.000347 
L 264.331501 110.988028 
L 264.300219 110.975714 
L 264.268934 110.963407 
L 264.237646 110.951107 
L 264.206356 110.938813 
L 264.175063 110.926525 
L 264.143768 110.914244 
L 264.11247 110.901969 
L 264.08117 110.889701 
L 264.049867 110.877439 
L 264.018562 110.865183 
z
" clip-path="url(#pfc73f7ade9)" style="fill: #ab1f20; fill-opacity: 0.08"/>
   </g>
   <g id="patch_81">
    <path d="M 262.412028 110.246185 
C 235.426011 110.246185 235.426011 237.132 208.439994 237.132 
L 208.439994 237.136745 
C 235.426011 237.136745 235.426011 110.26041 262.44952 110.26041 
L 262.446842 110.259393 
L 262.444164 110.258377 
L 262.441486 110.257361 
L 262.438808 110.256345 
L 262.43613 110.255328 
L 262.433452 110.254312 
L 262.430774 110.253296 
L 262.428096 110.25228 
L 262.425418 110.251264 
L 262.42274 110.250248 
L 262.420062 110.249232 
L 262.417384 110.248217 
L 262.414706 110.247201 
z
" clip-path="url(#pfc73f7ade9)" style="fill: #ab1f20; fill-opacity: 0.35"/>
   </g>
   <g id="patch_82">
    <path d="M 262.204484 110.167633 
C 235.322239 110.167633 235.322239 292.524241 208.439994 292.524241 
L 208.439994 292.550495 
C 235.322239 292.550495 235.322239 110.246185 262.412028 110.246185 
L 262.397207 110.240565 
L 262.382385 110.234946 
L 262.367563 110.229329 
L 262.35274 110.223713 
L 262.337917 110.218098 
L 262.323093 110.212485 
L 262.308269 110.206874 
L 262.293444 110.201264 
L 262.278619 110.195655 
L 262.263793 110.190048 
L 262.248966 110.184442 
L 262.234139 110.178837 
L 262.219312 110.173234 
z
" clip-path="url(#pfc73f7ade9)" style="fill: #ab1f20; fill-opacity: 0.08"/>
   </g>
   <g id="patch_83">
    <path d="M 260.63109 109.582563 
C 234.535542 109.582563 234.535542 237.128377 208.439994 237.128377 
L 208.439994 237.132 
C 234.535542 237.132 234.535542 109.593093 260.659851 109.593093 
L 260.657797 109.592341 
L 260.655742 109.591589 
L 260.653688 109.590837 
L 260.651634 109.590084 
L 260.649579 109.589332 
L 260.647525 109.58858 
L 260.645471 109.587828 
L 260.643416 109.587076 
L 260.641362 109.586324 
L 260.639308 109.585571 
L 260.637253 109.584819 
L 260.635199 109.584067 
L 260.633144 109.583315 
z
" clip-path="url(#pfc73f7ade9)" style="fill: #ab1f20; fill-opacity: 0.35"/>
   </g>
   <g id="patch_84">
    <path d="M 260.46336 109.521275 
C 234.451677 109.521275 234.451677 292.503114 208.439994 292.503114 
L 208.439994 292.524241 
C 234.451677 292.524241 234.451677 109.582563 260.63109 109.582563 
L 260.619112 109.57818 
L 260.607133 109.573797 
L 260.595154 109.569415 
L 260.583174 109.565034 
L 260.571194 109.560654 
L 260.559214 109.556275 
L 260.547234 109.551897 
L 260.535253 109.547519 
L 260.523271 109.543143 
L 260.51129 109.538768 
L 260.499308 109.534393 
L 260.487326 109.53002 
L 260.475343 109.525647 
z
" clip-path="url(#pfc73f7ade9)" style="fill: #ab1f20; fill-opacity: 0.08"/>
   </g>
   <g id="patch_85">
    <path d="M 255.032142 107.647566 
C 231.736068 107.647566 231.736068 236.64366 208.439994 236.64366 
L 208.439994 237.128377 
C 231.736068 237.128377 231.736068 108.9643 258.912224 108.9643 
L 258.636194 108.867031 
L 258.359989 108.770255 
L 258.083609 108.673973 
L 257.807054 108.578186 
L 257.530327 108.482893 
L 257.253428 108.388095 
L 256.976357 108.293792 
L 256.699116 108.199985 
L 256.421705 108.106674 
L 256.144126 108.013859 
L 255.86638 107.92154 
L 255.588466 107.829718 
L 255.310387 107.738393 
z
" clip-path="url(#pfc73f7ade9)" style="fill: #195f90; fill-opacity: 0.35"/>
   </g>
   <g id="patch_86">
    <path d="M 229.739135 101.590373 
C 219.089564 101.590373 219.089564 289.424171 208.439994 289.424171 
L 208.439994 292.503114 
C 219.089564 292.503114 219.089564 107.647566 255.032142 107.647566 
L 253.260929 107.082257 
L 251.483328 106.537101 
L 249.699571 106.012168 
L 247.909891 105.507528 
L 246.114523 105.023245 
L 244.3137 104.559384 
L 242.507658 104.116005 
L 240.696633 103.693166 
L 238.880862 103.290922 
L 237.060582 102.909325 
L 235.23603 102.548426 
L 233.407446 102.208272 
L 231.575067 101.888907 
z
" clip-path="url(#pfc73f7ade9)" style="fill: #195f90; fill-opacity: 0.08"/>
   </g>
   <g id="patch_87">
    <path d="M 226.606136 101.130174 
C 217.523065 101.130174 217.523065 236.464236 208.439994 236.464236 
L 208.439994 236.64366 
C 217.523065 236.64366 217.523065 101.343156 228.108683 101.343156 
L 228.001425 101.327481 
L 227.894157 101.311877 
L 227.786878 101.296345 
L 227.679589 101.280883 
L 227.572289 101.265493 
L 227.464979 101.250173 
L 227.357659 101.234924 
L 227.250329 101.219747 
L 227.142989 101.20464 
L 227.035638 101.189605 
L 226.928278 101.174641 
L 226.820907 101.159747 
L 226.713527 101.144925 
z
" clip-path="url(#pfc73f7ade9)" style="fill: #195f90; fill-opacity: 0.35"/>
   </g>
   <g id="patch_88">
    <path d="M 214.411402 99.921987 
C 211.425698 99.921987 211.425698 287.975072 208.439994 287.975072 
L 208.439994 289.424171 
C 211.425698 289.424171 211.425698 101.130174 226.606136 101.130174 
L 225.738449 101.013643 
L 224.870144 100.901751 
L 224.001245 100.794502 
L 223.131778 100.6919 
L 222.261767 100.593946 
L 221.39124 100.500644 
L 220.520219 100.411996 
L 219.648731 100.328006 
L 218.776801 100.248675 
L 217.904454 100.174006 
L 217.031715 100.104 
L 216.15861 100.038661 
L 215.285164 99.977989 
z
" clip-path="url(#pfc73f7ade9)" style="fill: #195f90; fill-opacity: 0.08"/>
   </g>
   <g id="patch_89">
    <path d="M 211.775042 99.781406 
C 210.107518 99.781406 210.107518 236.347103 208.439994 236.347103 
L 208.439994 236.464236 
C 210.107518 236.464236 210.107518 99.829184 212.76472 99.829184 
L 212.694038 99.825573 
L 212.623355 99.821992 
L 212.552671 99.818442 
L 212.481985 99.814923 
L 212.411297 99.811434 
L 212.340608 99.807975 
L 212.269917 99.804547 
L 212.199225 99.80115 
L 212.128531 99.797783 
L 212.057836 99.794446 
L 211.98714 99.791141 
L 211.916442 99.787865 
L 211.845742 99.784621 
z
" clip-path="url(#pfc73f7ade9)" style="fill: #195f90; fill-opacity: 0.35"/>
   </g>
   <g id="patch_90">
    <path d="M 205.335203 99.616836 
C 206.887598 99.616836 206.887598 287.213482 208.439994 287.213482 
L 208.439994 287.975072 
C 206.887598 287.975072 206.887598 99.781406 211.775042 99.781406 
L 211.315318 99.761253 
L 210.85554 99.742391 
L 210.395709 99.724821 
L 209.93583 99.708543 
L 209.475907 99.693557 
L 209.015943 99.679863 
L 208.555942 99.667461 
L 208.095907 99.656352 
L 207.635843 99.646534 
L 207.175752 99.63801 
L 206.71564 99.630777 
L 206.255508 99.624838 
L 205.795361 99.620191 
z
" clip-path="url(#pfc73f7ade9)" style="fill: #195f90; fill-opacity: 0.08"/>
   </g>
   <g id="patch_91">
    <path d="M 203.428328 99.616714 
C 205.934161 99.616714 205.934161 236.316657 208.439994 236.316657 
L 208.439994 236.347103 
C 205.934161 236.347103 205.934161 99.615434 203.685875 99.615434 
L 203.667478 99.615512 
L 203.649082 99.615592 
L 203.630686 99.615674 
L 203.61229 99.615758 
L 203.593893 99.615844 
L 203.575497 99.615933 
L 203.557101 99.616023 
L 203.538705 99.616116 
L 203.520308 99.61621 
L 203.501912 99.616307 
L 203.483516 99.616405 
L 203.46512 99.616506 
L 203.446724 99.616609 
z
" clip-path="url(#pfc73f7ade9)" style="fill: #195f90; fill-opacity: 0.35"/>
   </g>
   <g id="patch_92">
    <path d="M 201.586254 99.637676 
C 205.013124 99.637676 205.013124 286.995705 208.439994 286.995705 
L 208.439994 287.213482 
C 205.013124 287.213482 205.013124 99.616714 203.428328 99.616714 
L 203.296744 99.617524 
L 203.165161 99.61844 
L 203.033579 99.619462 
L 202.901998 99.620589 
L 202.770418 99.621822 
L 202.638839 99.623161 
L 202.507261 99.624606 
L 202.375684 99.626156 
L 202.244109 99.627812 
L 202.112535 99.629573 
L 201.980962 99.631441 
L 201.849391 99.633413 
L 201.717822 99.635492 
z
" clip-path="url(#pfc73f7ade9)" style="fill: #195f90; fill-opacity: 0.08"/>
   </g>
   <g id="patch_93">
    <path d="M 199.7409 99.679456 
C 204.090447 99.679456 204.090447 236.293426 208.439994 236.293426 
L 208.439994 236.316657 
C 204.090447 236.316657 204.090447 99.67402 199.937331 99.67402 
L 199.9233 99.6744 
L 199.909269 99.674782 
L 199.895238 99.675165 
L 199.881207 99.675549 
L 199.867176 99.675934 
L 199.853145 99.676321 
L 199.839115 99.676709 
L 199.825084 99.677097 
L 199.811053 99.677488 
L 199.797023 99.677879 
L 199.782992 99.678272 
L 199.768961 99.678665 
L 199.754931 99.67906 
z
" clip-path="url(#pfc73f7ade9)" style="fill: #195f90; fill-opacity: 0.35"/>
   </g>
   <g id="patch_94">
    <path d="M 197.91016 99.741474 
C 203.175077 99.741474 203.175077 286.779156 208.439994 286.779156 
L 208.439994 286.995705 
C 203.175077 286.995705 203.175077 99.679456 199.7409 99.679456 
L 199.610111 99.683207 
L 199.479325 99.687063 
L 199.348541 99.691022 
L 199.217762 99.695086 
L 199.086985 99.699255 
L 198.956212 99.703528 
L 198.825442 99.707906 
L 198.694676 99.712388 
L 198.563914 99.716974 
L 198.433155 99.721665 
L 198.3024 99.726461 
L 198.17165 99.731361 
L 198.040903 99.736365 
z
" clip-path="url(#pfc73f7ade9)" style="fill: #195f90; fill-opacity: 0.08"/>
   </g>
   <g id="patch_95">
    <path d="M 196.161954 99.819838 
C 202.300974 99.819838 202.300974 236.281527 208.439994 236.281527 
L 208.439994 236.293426 
C 202.300974 236.293426 202.300974 99.814824 196.262484 99.814824 
L 196.255303 99.815181 
L 196.248122 99.815537 
L 196.240942 99.815894 
L 196.233761 99.816251 
L 196.22658 99.816608 
L 196.219399 99.816966 
L 196.212219 99.817324 
L 196.205038 99.817682 
L 196.197857 99.81804 
L 196.190677 99.818399 
L 196.183496 99.818759 
L 196.176315 99.819118 
L 196.169135 99.819478 
z
" clip-path="url(#pfc73f7ade9)" style="fill: #195f90; fill-opacity: 0.35"/>
   </g>
   <g id="patch_96">
    <path d="M 195.365225 99.861763 
C 201.902609 99.861763 201.902609 286.684838 208.439994 286.684838 
L 208.439994 286.779156 
C 201.902609 286.779156 201.902609 99.819838 196.161954 99.819838 
L 196.105038 99.822704 
L 196.048123 99.82559 
L 195.991209 99.828495 
L 195.934296 99.831421 
L 195.877384 99.834366 
L 195.820474 99.837331 
L 195.763564 99.840315 
L 195.706655 99.84332 
L 195.649747 99.846344 
L 195.592841 99.849389 
L 195.535935 99.852452 
L 195.479031 99.855536 
L 195.422127 99.85864 
z
" clip-path="url(#pfc73f7ade9)" style="fill: #195f90; fill-opacity: 0.08"/>
   </g>
   <g id="patch_97">
    <path d="M 193.647757 99.965384 
C 201.043875 99.965384 201.043875 236.273098 208.439994 236.273098 
L 208.439994 236.281527 
C 201.043875 236.281527 201.043875 99.960732 193.718907 99.960732 
L 193.713824 99.961063 
L 193.708742 99.961395 
L 193.70366 99.961726 
L 193.698578 99.962058 
L 193.693496 99.96239 
L 193.688414 99.962722 
L 193.683332 99.963054 
L 193.678249 99.963387 
L 193.673167 99.963719 
L 193.668085 99.964052 
L 193.663003 99.964385 
L 193.657921 99.964718 
L 193.652839 99.965051 
z
" clip-path="url(#pfc73f7ade9)" style="fill: #195f90; fill-opacity: 0.35"/>
   </g>
   <g id="patch_98">
    <path d="M 193.240468 99.992615 
C 200.840231 99.992615 200.840231 286.636581 208.439994 286.636581 
L 208.439994 286.684838 
C 200.840231 286.684838 200.840231 99.965384 193.647757 99.965384 
L 193.618663 99.967296 
L 193.589569 99.969212 
L 193.560475 99.971134 
L 193.531382 99.973061 
L 193.502289 99.974993 
L 193.473196 99.97693 
L 193.444104 99.978873 
L 193.415012 99.98082 
L 193.385921 99.982773 
L 193.35683 99.984731 
L 193.327739 99.986694 
L 193.298648 99.988663 
L 193.269558 99.990636 
z
" clip-path="url(#pfc73f7ade9)" style="fill: #195f90; fill-opacity: 0.08"/>
   </g>
   <g id="patch_99">
    <path d="M 191.559988 100.11576 
C 199.999991 100.11576 199.999991 236.268876 208.439994 236.268876 
L 208.439994 236.273098 
C 199.999991 236.273098 199.999991 100.11297 191.595594 100.11297 
L 191.593051 100.113169 
L 191.590507 100.113368 
L 191.587964 100.113567 
L 191.585421 100.113766 
L 191.582877 100.113966 
L 191.580334 100.114165 
L 191.577791 100.114364 
L 191.575247 100.114563 
L 191.572704 100.114763 
L 191.570161 100.114962 
L 191.567618 100.115161 
L 191.565074 100.115361 
L 191.562531 100.11556 
z
" clip-path="url(#pfc73f7ade9)" style="fill: #195f90; fill-opacity: 0.35"/>
   </g>
   <g id="patch_100">
    <path d="M 191.202277 100.144217 
C 199.821135 100.144217 199.821135 286.594159 208.439994 286.594159 
L 208.439994 286.636581 
C 199.821135 286.636581 199.821135 100.11576 191.559988 100.11576 
L 191.534435 100.117766 
L 191.508882 100.119777 
L 191.48333 100.121792 
L 191.457778 100.123811 
L 191.432227 100.125833 
L 191.406675 100.12786 
L 191.381124 100.129891 
L 191.355574 100.131925 
L 191.330023 100.133964 
L 191.304474 100.136007 
L 191.278924 100.138053 
L 191.253375 100.140104 
L 191.227826 100.142159 
z
" clip-path="url(#pfc73f7ade9)" style="fill: #195f90; fill-opacity: 0.08"/>
   </g>
   <g id="patch_101">
    <path d="M 189.531633 100.287579 
C 198.985814 100.287579 198.985814 236.265621 208.439994 236.265621 
L 208.439994 236.268876 
C 198.985814 236.268876 198.985814 100.285087 189.559053 100.285087 
L 189.557095 100.285265 
L 189.555136 100.285443 
L 189.553178 100.28562 
L 189.551219 100.285798 
L 189.54926 100.285976 
L 189.547302 100.286154 
L 189.545343 100.286332 
L 189.543385 100.28651 
L 189.541426 100.286688 
L 189.539468 100.286866 
L 189.537509 100.287045 
L 189.535551 100.287223 
L 189.533592 100.287401 
z
" clip-path="url(#pfc73f7ade9)" style="fill: #195f90; fill-opacity: 0.35"/>
   </g>
   <g id="patch_102">
    <path d="M 189.241035 100.314276 
C 198.840514 100.314276 198.840514 286.559659 208.439994 286.559659 
L 208.439994 286.594159 
C 198.840514 286.594159 198.840514 100.287579 189.531633 100.287579 
L 189.510875 100.289469 
L 189.490116 100.291361 
L 189.469358 100.293256 
L 189.4486 100.295154 
L 189.427843 100.297054 
L 189.407085 100.298957 
L 189.386328 100.300863 
L 189.365571 100.302771 
L 189.344815 100.304682 
L 189.324058 100.306595 
L 189.303302 100.308512 
L 189.282546 100.31043 
L 189.26179 100.312352 
z
" clip-path="url(#pfc73f7ade9)" style="fill: #195f90; fill-opacity: 0.08"/>
   </g>
   <g id="patch_103">
    <path d="M 187.575747 100.477346 
C 198.00787 100.477346 198.00787 236.26278 208.439994 236.26278 
L 208.439994 236.265621 
C 198.00787 236.265621 198.00787 100.474884 187.599647 100.474884 
L 187.59794 100.475059 
L 187.596232 100.475235 
L 187.594525 100.475411 
L 187.592818 100.475587 
L 187.591111 100.475763 
L 187.589404 100.475938 
L 187.587697 100.476114 
L 187.58599 100.47629 
L 187.584283 100.476466 
L 187.582576 100.476642 
L 187.580868 100.476818 
L 187.579161 100.476994 
L 187.577454 100.47717 
z
" clip-path="url(#pfc73f7ade9)" style="fill: #195f90; fill-opacity: 0.35"/>
   </g>
   <g id="patch_104">
    <path d="M 187.321143 100.503792 
C 197.880568 100.503792 197.880568 286.529397 208.439994 286.529397 
L 208.439994 286.559659 
C 197.880568 286.559659 197.880568 100.477346 187.575747 100.477346 
L 187.55756 100.479221 
L 187.539373 100.481099 
L 187.521186 100.482979 
L 187.502999 100.484861 
L 187.484812 100.486745 
L 187.466626 100.488631 
L 187.44844 100.490519 
L 187.430254 100.492409 
L 187.412068 100.494301 
L 187.393883 100.496195 
L 187.375698 100.498091 
L 187.357513 100.49999 
L 187.339328 100.50189 
z
" clip-path="url(#pfc73f7ade9)" style="fill: #195f90; fill-opacity: 0.08"/>
   </g>
   <g id="patch_105">
    <path d="M 185.639856 100.688542 
C 197.039925 100.688542 197.039925 236.25779 208.439994 236.25779 
L 208.439994 236.26278 
C 197.039925 236.26278 197.039925 100.68372 185.681787 100.68372 
L 185.678792 100.684064 
L 185.675796 100.684409 
L 185.672801 100.684753 
L 185.669806 100.685097 
L 185.666811 100.685441 
L 185.663816 100.685785 
L 185.660821 100.68613 
L 185.657826 100.686474 
L 185.654831 100.686819 
L 185.651836 100.687163 
L 185.648841 100.687508 
L 185.645846 100.687852 
L 185.642851 100.688197 
z
" clip-path="url(#pfc73f7ade9)" style="fill: #195f90; fill-opacity: 0.35"/>
   </g>
   <g id="patch_106">
    <path d="M 185.443249 100.711295 
C 196.941622 100.711295 196.941622 286.505998 208.439994 286.505998 
L 208.439994 286.529397 
C 196.941622 286.529397 196.941622 100.688542 185.639856 100.688542 
L 185.625812 100.690159 
L 185.611767 100.691778 
L 185.597724 100.693397 
L 185.58368 100.695018 
L 185.569636 100.696641 
L 185.555593 100.698264 
L 185.541549 100.699889 
L 185.527506 100.701514 
L 185.513463 100.703141 
L 185.49942 100.70477 
L 185.485377 100.706399 
L 185.471334 100.70803 
L 185.457292 100.709662 
z
" clip-path="url(#pfc73f7ade9)" style="fill: #195f90; fill-opacity: 0.08"/>
   </g>
   <g id="patch_107">
    <path d="M 183.789099 100.912274 
C 196.114546 100.912274 196.114546 236.255764 208.439994 236.255764 
L 208.439994 236.25779 
C 196.114546 236.25779 196.114546 100.91012 183.806106 100.91012 
L 183.804891 100.910274 
L 183.803676 100.910428 
L 183.802461 100.910582 
L 183.801247 100.910735 
L 183.800032 100.910889 
L 183.798817 100.911043 
L 183.797602 100.911197 
L 183.796388 100.911351 
L 183.795173 100.911504 
L 183.793958 100.911658 
L 183.792743 100.911812 
L 183.791529 100.911966 
L 183.790314 100.91212 
z
" clip-path="url(#pfc73f7ade9)" style="fill: #195f90; fill-opacity: 0.35"/>
   </g>
   <g id="patch_108">
    <path d="M 183.715793 100.921576 
C 196.077894 100.921576 196.077894 286.497262 208.439994 286.497262 
L 208.439994 286.505998 
C 196.077894 286.505998 196.077894 100.912274 183.789099 100.912274 
L 183.783863 100.912937 
L 183.778627 100.9136 
L 183.77339 100.914264 
L 183.768154 100.914928 
L 183.762918 100.915592 
L 183.757682 100.916256 
L 183.752446 100.916921 
L 183.74721 100.917585 
L 183.741974 100.91825 
L 183.736738 100.918915 
L 183.731501 100.91958 
L 183.726265 100.920245 
L 183.721029 100.92091 
z
" clip-path="url(#pfc73f7ade9)" style="fill: #195f90; fill-opacity: 0.08"/>
   </g>
   <g id="patch_109">
    <path d="M 181.930366 101.158532 
C 195.18518 101.158532 195.18518 236.2378 208.439994 236.2378 
L 208.439994 236.255764 
C 195.18518 236.255764 195.18518 101.137784 182.080883 101.137784 
L 182.070131 101.139261 
L 182.05938 101.140739 
L 182.048628 101.142218 
L 182.037876 101.143697 
L 182.027125 101.145178 
L 182.016374 101.146659 
L 182.005622 101.14814 
L 181.994871 101.149623 
L 181.98412 101.151106 
L 181.973369 101.152589 
L 181.962618 101.154074 
L 181.951868 101.155559 
L 181.941117 101.157045 
z
" clip-path="url(#pfc73f7ade9)" style="fill: #765297; fill-opacity: 0.35"/>
   </g>
   <g id="patch_110">
    <path d="M 181.273984 101.250675 
C 194.856989 101.250675 194.856989 286.418896 208.439994 286.418896 
L 208.439994 286.497262 
C 194.856989 286.497262 194.856989 101.158532 181.930366 101.158532 
L 181.88347 101.165025 
L 181.836574 101.171532 
L 181.789681 101.178053 
L 181.74279 101.184587 
L 181.695901 101.191135 
L 181.649013 101.197696 
L 181.602128 101.204271 
L 181.555244 101.21086 
L 181.508363 101.217462 
L 181.461483 101.224077 
L 181.414605 101.230706 
L 181.36773 101.237349 
L 181.320856 101.244005 
z
" clip-path="url(#pfc73f7ade9)" style="fill: #765297; fill-opacity: 0.08"/>
   </g>
   <g id="patch_111">
    <path d="M 179.620348 101.494845 
C 194.030171 101.494845 194.030171 236.235144 208.439994 236.235144 
L 208.439994 236.2378 
C 194.030171 236.2378 194.030171 101.491452 179.642556 101.491452 
L 179.640969 101.491694 
L 179.639383 101.491936 
L 179.637797 101.492179 
L 179.636211 101.492421 
L 179.634624 101.492663 
L 179.633038 101.492906 
L 179.631452 101.493148 
L 179.629865 101.49339 
L 179.628279 101.493633 
L 179.626693 101.493875 
L 179.625107 101.494118 
L 179.62352 101.49436 
L 179.621934 101.494603 
z
" clip-path="url(#pfc73f7ade9)" style="fill: #238023; fill-opacity: 0.35"/>
   </g>
   <g id="patch_112">
    <path d="M 179.402658 101.528275 
C 193.921326 101.528275 193.921326 286.392856 208.439994 286.392856 
L 208.439994 286.418896 
C 193.921326 286.418896 193.921326 101.494845 179.620348 101.494845 
L 179.604797 101.497223 
L 179.589246 101.499603 
L 179.573696 101.501984 
L 179.558146 101.504367 
L 179.542596 101.506751 
L 179.527047 101.509136 
L 179.511497 101.511523 
L 179.495948 101.513912 
L 179.480399 101.516302 
L 179.46485 101.518693 
L 179.449302 101.521087 
L 179.433754 101.523481 
L 179.418206 101.525877 
z
" clip-path="url(#pfc73f7ade9)" style="fill: #238023; fill-opacity: 0.08"/>
   </g>
   <g id="text_1">
    <text style="font: 700 10px 'DejaVu Sans', 'Bitstream Vera Sans', 'Computer Modern Sans Serif', 'Lucida Grande', 'Verdana', 'Geneva', 'Lucid', 'Arial', 'Helvetica', 'Avant Garde', sans-serif" transform="translate(110.834642 86.396621) rotate(-294.667797)">LINE</text>
   </g>
   <g id="text_2">
    <text style="font: 700 10px 'DejaVu Sans', 'Bitstream Vera Sans', 'Computer Modern Sans Serif', 'Lucida Grande', 'Verdana', 'Geneva', 'Lucid', 'Arial', 'Helvetica', 'Avant Garde', sans-serif" transform="translate(25.078496 170.076116) rotate(-330.595266)">LTR</text>
   </g>
   <g id="text_3">
    <text style="font: 700 10px 'DejaVu Sans', 'Bitstream Vera Sans', 'Computer Modern Sans Serif', 'Lucida Grande', 'Verdana', 'Geneva', 'Lucid', 'Arial', 'Helvetica', 'Avant Garde', sans-serif" transform="translate(10.013661 335.775479) rotate(-21.733796)">SINE</text>
   </g>
   <g id="text_4">
    <text style="font: 700 10px 'DejaVu Sans', 'Bitstream Vera Sans', 'Computer Modern Sans Serif', 'Lucida Grande', 'Verdana', 'Geneva', 'Lucid', 'Arial', 'Helvetica', 'Avant Garde', sans-serif" transform="translate(136.244635 445.336282) rotate(-71.332473)">DNA</text>
   </g>
   <g id="text_5">
    <text style="font: 700 10px 'DejaVu Sans', 'Bitstream Vera Sans', 'Computer Modern Sans Serif', 'Lucida Grande', 'Verdana', 'Geneva', 'Lucid', 'Arial', 'Helvetica', 'Avant Garde', sans-serif" transform="translate(176.679913 474.070698) rotate(-84.053201)">Retroposon</text>
   </g>
   <g id="text_6">
    <text style="font: 700 10px 'DejaVu Sans', 'Bitstream Vera Sans', 'Computer Modern Sans Serif', 'Lucida Grande', 'Verdana', 'Geneva', 'Lucid', 'Arial', 'Helvetica', 'Avant Garde', sans-serif" transform="translate(192.292915 449.834944) rotate(-87.094661)">RC</text>
   </g>
   <g id="text_7">
    <text style="font: 700 9px 'DejaVu Sans', 'Bitstream Vera Sans', 'Computer Modern Sans Serif', 'Lucida Grande', 'Verdana', 'Geneva', 'Lucid', 'Arial', 'Helvetica', 'Avant Garde', sans-serif; text-anchor: start" x="214.136244" y="219.329937" transform="rotate(-0 214.136244 219.329937)">Near TSS</text>
   </g>
   <g id="text_8">
    <text style="font: 700 9px 'DejaVu Sans', 'Bitstream Vera Sans', 'Computer Modern Sans Serif', 'Lucida Grande', 'Verdana', 'Geneva', 'Lucid', 'Arial', 'Helvetica', 'Avant Garde', sans-serif; text-anchor: start" x="214.136244" y="308.264938" transform="rotate(-0 214.136244 308.264938)">Distal</text>
   </g>
   <g id="text_9">
    <text style="font: 8px 'DejaVu Sans', 'Bitstream Vera Sans', 'Computer Modern Sans Serif', 'Lucida Grande', 'Verdana', 'Geneva', 'Lucid', 'Arial', 'Helvetica', 'Avant Garde', sans-serif" transform="translate(255.57958 431.589438) rotate(-285.792206)">L1</text>
   </g>
   <g id="text_10">
    <text style="font: 8px 'DejaVu Sans', 'Bitstream Vera Sans', 'Computer Modern Sans Serif', 'Lucida Grande', 'Verdana', 'Geneva', 'Lucid', 'Arial', 'Helvetica', 'Avant Garde', sans-serif" transform="translate(317.485788 401.936283) rotate(-307.831748)">L2</text>
   </g>
   <g id="text_11">
    <text style="font: 8px 'DejaVu Sans', 'Bitstream Vera Sans', 'Computer Modern Sans Serif', 'Lucida Grande', 'Verdana', 'Geneva', 'Lucid', 'Arial', 'Helvetica', 'Avant Garde', sans-serif" transform="translate(361.180983 345.402063) rotate(-328.819766)">ERVL-MaLR</text>
   </g>
   <g id="text_12">
    <text style="font: 8px 'DejaVu Sans', 'Bitstream Vera Sans', 'Computer Modern Sans Serif', 'Lucida Grande', 'Verdana', 'Geneva', 'Lucid', 'Arial', 'Helvetica', 'Avant Garde', sans-serif" transform="translate(374.010536 327.298379) rotate(-338.0077)">ERV1</text>
   </g>
   <g id="text_13">
    <text style="font: 8px 'DejaVu Sans', 'Bitstream Vera Sans', 'Computer Modern Sans Serif', 'Lucida Grande', 'Verdana', 'Geneva', 'Lucid', 'Arial', 'Helvetica', 'Avant Garde', sans-serif" transform="translate(379.972657 310.839372) rotate(-343.910781)">ERVL</text>
   </g>
   <g id="text_14">
    <text style="font: 8px 'DejaVu Sans', 'Bitstream Vera Sans', 'Computer Modern Sans Serif', 'Lucida Grande', 'Verdana', 'Geneva', 'Lucid', 'Arial', 'Helvetica', 'Avant Garde', sans-serif" transform="translate(381.16879 214.910537) rotate(-16.124334)">Alu</text>
   </g>
   <g id="text_15">
    <text style="font: 8px 'DejaVu Sans', 'Bitstream Vera Sans', 'Computer Modern Sans Serif', 'Lucida Grande', 'Verdana', 'Geneva', 'Lucid', 'Arial', 'Helvetica', 'Avant Garde', sans-serif" transform="translate(312.548724 119.366748) rotate(-55.529937)">MIR</text>
   </g>
   <g id="text_16">
    <text style="font: 8px 'DejaVu Sans', 'Bitstream Vera Sans', 'Computer Modern Sans Serif', 'Lucida Grande', 'Verdana', 'Geneva', 'Lucid', 'Arial', 'Helvetica', 'Avant Garde', sans-serif" transform="translate(255.203904 108.237675) rotate(-75.726408)">hAT-Charlie</text>
   </g>
   <g id="text_17">
    <text style="font: 8px 'DejaVu Sans', 'Bitstream Vera Sans', 'Computer Modern Sans Serif', 'Lucida Grande', 'Verdana', 'Geneva', 'Lucid', 'Arial', 'Helvetica', 'Avant Garde', sans-serif" transform="translate(229.349524 106.230115) rotate(-84.038255)">TcMar-Tigger</text>
   </g>
   <g id="text_18">
    <text style="font: 8px 'DejaVu Sans', 'Bitstream Vera Sans', 'Computer Modern Sans Serif', 'Lucida Grande', 'Verdana', 'Geneva', 'Lucid', 'Arial', 'Helvetica', 'Avant Garde', sans-serif" transform="translate(215.68901 102.060636) rotate(-88.352211)">hAT-Tip100</text>
   </g>
   <g id="text_19">
    <text style="font: 16px 'DejaVu Sans', 'Bitstream Vera Sans', 'Computer Modern Sans Serif', 'Lucida Grande', 'Verdana', 'Geneva', 'Lucid', 'Arial', 'Helvetica', 'Avant Garde', sans-serif" transform="translate(62.158744 19.3575)">Circular Transposable Element Flow</text>
    <text style="font: 16px 'DejaVu Sans', 'Bitstream Vera Sans', 'Computer Modern Sans Serif', 'Lucida Grande', 'Verdana', 'Geneva', 'Lucid', 'Arial', 'Helvetica', 'Avant Garde', sans-serif" transform="translate(80.452494 37.274)">(Joining Arcs along Full Length)</text>
   </g>
   <g id="patch_113">
    <path d="M 200.302494 245.144 
L 208.439994 245.144 
L 208.439994 188.549 
L 200.302494 188.549 
z
" clip-path="url(#pfc73f7ade9)" style="fill: #e64b35; stroke: #000000; stroke-width: 0.5; stroke-linejoin: miter"/>
   </g>
   <g id="patch_114">
    <path d="M 200.302494 334.079 
L 208.439994 334.079 
L 208.439994 277.484 
L 200.302494 277.484 
z
" clip-path="url(#pfc73f7ade9)" style="fill: #808080; stroke: #000000; stroke-width: 0.5; stroke-linejoin: miter"/>
   </g>
  </g>
 </g>
 <defs>
  <clipPath id="pfc73f7ade9">
   <rect x="9.071244" y="67.274" width="390.6" height="388.08"/>
  </clipPath>
 </defs>
</svg>
