<?xml version="1.0" encoding="utf-8" standalone="no"?>
<!DOCTYPE svg PUBLIC "-//W3C//DTD SVG 1.1//EN"
  "http://www.w3.org/Graphics/SVG/1.1/DTD/svg11.dtd">
<svg xmlns:xlink="http://www.w3.org/1999/xlink" width="661.730312pt" height="707.278438pt" viewBox="0 0 661.730312 707.278438" xmlns="http://www.w3.org/2000/svg" version="1.1">
 <metadata>
  <rdf:RDF xmlns:dc="http://purl.org/dc/elements/1.1/" xmlns:cc="http://creativecommons.org/ns#" xmlns:rdf="http://www.w3.org/1999/02/22-rdf-syntax-ns#">
   <cc:Work>
    <dc:type rdf:resource="http://purl.org/dc/dcmitype/StillImage"/>
    <dc:date>2026-01-15T20:09:55.120010</dc:date>
    <dc:format>image/svg+xml</dc:format>
    <dc:creator>
     <cc:Agent>
      <dc:title>Matplotlib v3.10.8, https://matplotlib.org/</dc:title>
     </cc:Agent>
    </dc:creator>
   </cc:Work>
  </rdf:RDF>
 </metadata>
 <defs>
  <style type="text/css">*{stroke-linejoin: round; stroke-linecap: butt}</style>
 </defs>
 <g id="figure_1">
  <g id="patch_1">
   <path d="M 0 707.278438 
L 661.730312 707.278438 
L 661.730312 0 
L 0 0 
L 0 707.278438 
z
" style="fill: none"/>
  </g>
  <g id="axes_1">
   <g id="patch_2">
    <path d="M 71.84625 277.537444 
L 82.07625 277.537444 
L 82.07625 66.478438 
L 71.84625 66.478438 
z
" clip-path="url(#p12ac4acd6d)" style="fill: #ff0000; stroke: #000000; stroke-width: 0.5; stroke-linejoin: miter"/>
   </g>
   <g id="patch_3">
    <path d="M 71.84625 322.452825 
L 82.07625 322.452825 
L 82.07625 283.873444 
L 71.84625 283.873444 
z
" clip-path="url(#p12ac4acd6d)" style="fill: #ab1f20; stroke: #000000; stroke-width: 0.5; stroke-linejoin: miter"/>
   </g>
   <g id="patch_4">
    <path d="M 71.84625 348.105602 
L 82.07625 348.105602 
L 82.07625 328.788825 
L 71.84625 328.788825 
z
" clip-path="url(#p12ac4acd6d)" style="fill: #70453c; stroke: #000000; stroke-width: 0.5; stroke-linejoin: miter"/>
   </g>
   <g id="patch_5">
    <path d="M 71.84625 370.606438 
L 82.07625 370.606438 
L 82.07625 354.441602 
L 71.84625 354.441602 
z
" clip-path="url(#p12ac4acd6d)" style="fill: #008000; stroke: #000000; stroke-width: 0.5; stroke-linejoin: miter"/>
   </g>
   <g id="patch_6">
    <path d="M 327.59625 145.186802 
L 337.82625 145.186802 
L 337.82625 66.478438 
L 327.59625 66.478438 
z
" clip-path="url(#p12ac4acd6d)" style="fill: #fccde5; stroke: #000000; stroke-width: 0.5; stroke-linejoin: miter"/>
   </g>
   <g id="patch_7">
    <path d="M 327.59625 191.119796 
L 337.82625 191.119796 
L 337.82625 151.522802 
L 327.59625 151.522802 
z
" clip-path="url(#p12ac4acd6d)" style="fill: #fdb462; stroke: #000000; stroke-width: 0.5; stroke-linejoin: miter"/>
   </g>
   <g id="patch_8">
    <path d="M 327.59625 232.521606 
L 337.82625 232.521606 
L 337.82625 197.455796 
L 327.59625 197.455796 
z
" clip-path="url(#p12ac4acd6d)" style="fill: #fdb462; stroke: #000000; stroke-width: 0.5; stroke-linejoin: miter"/>
   </g>
   <g id="patch_9">
    <path d="M 327.59625 265.2973 
L 337.82625 265.2973 
L 337.82625 238.857606 
L 327.59625 238.857606 
z
" clip-path="url(#p12ac4acd6d)" style="fill: #fb8072; stroke: #000000; stroke-width: 0.5; stroke-linejoin: miter"/>
   </g>
   <g id="patch_10">
    <path d="M 327.59625 297.253958 
L 337.82625 297.253958 
L 337.82625 271.6333 
L 327.59625 271.6333 
z
" clip-path="url(#p12ac4acd6d)" style="fill: #b3de69; stroke: #000000; stroke-width: 0.5; stroke-linejoin: miter"/>
   </g>
   <g id="patch_11">
    <path d="M 327.59625 327.618618 
L 337.82625 327.618618 
L 337.82625 303.589958 
L 327.59625 303.589958 
z
" clip-path="url(#p12ac4acd6d)" style="fill: #fdb462; stroke: #000000; stroke-width: 0.5; stroke-linejoin: miter"/>
   </g>
   <g id="patch_12">
    <path d="M 327.59625 353.893617 
L 337.82625 353.893617 
L 337.82625 333.954618 
L 327.59625 333.954618 
z
" clip-path="url(#p12ac4acd6d)" style="fill: #bebada; stroke: #000000; stroke-width: 0.5; stroke-linejoin: miter"/>
   </g>
   <g id="patch_13">
    <path d="M 327.59625 378.869999 
L 337.82625 378.869999 
L 337.82625 360.229617 
L 327.59625 360.229617 
z
" clip-path="url(#p12ac4acd6d)" style="fill: #fb8072; stroke: #000000; stroke-width: 0.5; stroke-linejoin: miter"/>
   </g>
   <g id="patch_14">
    <path d="M 327.59625 402.286438 
L 337.82625 402.286438 
L 337.82625 385.205999 
L 327.59625 385.205999 
z
" clip-path="url(#p12ac4acd6d)" style="fill: #bebada; stroke: #000000; stroke-width: 0.5; stroke-linejoin: miter"/>
   </g>
   <g id="patch_15">
    <path d="M 583.34625 216.013295 
L 593.57625 216.013295 
L 593.57625 66.478438 
L 583.34625 66.478438 
z
" clip-path="url(#p12ac4acd6d)" style="fill: #ab1f20; stroke: #000000; stroke-width: 0.5; stroke-linejoin: miter"/>
   </g>
   <g id="patch_16">
    <path d="M 583.34625 288.021475 
L 593.57625 288.021475 
L 593.57625 222.349295 
L 583.34625 222.349295 
z
" clip-path="url(#p12ac4acd6d)" style="fill: #ab1f20; stroke: #000000; stroke-width: 0.5; stroke-linejoin: miter"/>
   </g>
   <g id="patch_17">
    <path d="M 583.34625 331.434348 
L 593.57625 331.434348 
L 593.57625 294.357475 
L 583.34625 294.357475 
z
" clip-path="url(#p12ac4acd6d)" style="fill: #70453c; stroke: #000000; stroke-width: 0.5; stroke-linejoin: miter"/>
   </g>
   <g id="patch_18">
    <path d="M 583.34625 370.606438 
L 593.57625 370.606438 
L 593.57625 337.770348 
L 583.34625 337.770348 
z
" clip-path="url(#p12ac4acd6d)" style="fill: #70453c; stroke: #000000; stroke-width: 0.5; stroke-linejoin: miter"/>
   </g>
   <g id="patch_19">
    <path d="M 82.07625 106.075432 
C 204.83625 106.075432 204.83625 191.119796 327.59625 191.119796 
L 327.59625 151.522802 
C 204.83625 151.522802 204.83625 66.478438 82.07625 66.478438 
z
" clip-path="url(#p12ac4acd6d)" style="fill: #ff0000; opacity: 0.3"/>
   </g>
   <g id="patch_20">
    <path d="M 82.07625 141.141242 
C 204.83625 141.141242 204.83625 232.521606 327.59625 232.521606 
L 327.59625 197.455796 
C 204.83625 197.455796 204.83625 106.075432 82.07625 106.075432 
z
" clip-path="url(#p12ac4acd6d)" style="fill: #ff0000; opacity: 0.3"/>
   </g>
   <g id="patch_21">
    <path d="M 82.07625 167.580935 
C 204.83625 167.580935 204.83625 265.2973 327.59625 265.2973 
L 327.59625 238.857606 
C 204.83625 238.857606 204.83625 141.141242 82.07625 141.141242 
z
" clip-path="url(#p12ac4acd6d)" style="fill: #ff0000; opacity: 0.3"/>
   </g>
   <g id="patch_22">
    <path d="M 82.07625 193.201593 
C 204.83625 193.201593 204.83625 297.253958 327.59625 297.253958 
L 327.59625 271.6333 
C 204.83625 271.6333 204.83625 167.580935 82.07625 167.580935 
z
" clip-path="url(#p12ac4acd6d)" style="fill: #ff0000; opacity: 0.3"/>
   </g>
   <g id="patch_23">
    <path d="M 82.07625 217.230253 
C 204.83625 217.230253 204.83625 327.618618 327.59625 327.618618 
L 327.59625 303.589958 
C 204.83625 303.589958 204.83625 193.201593 82.07625 193.201593 
z
" clip-path="url(#p12ac4acd6d)" style="fill: #ff0000; opacity: 0.3"/>
   </g>
   <g id="patch_24">
    <path d="M 82.07625 240.518006 
C 204.83625 240.518006 204.83625 89.76619 327.59625 89.76619 
L 327.59625 66.478438 
C 204.83625 66.478438 204.83625 217.230253 82.07625 217.230253 
z
" clip-path="url(#p12ac4acd6d)" style="fill: #ff0000; opacity: 0.3"/>
   </g>
   <g id="patch_25">
    <path d="M 82.07625 303.812444 
C 204.83625 303.812444 204.83625 109.70519 327.59625 109.70519 
L 327.59625 89.76619 
C 204.83625 89.76619 204.83625 283.873444 82.07625 283.873444 
z
" clip-path="url(#p12ac4acd6d)" style="fill: #ab1f20; opacity: 0.3"/>
   </g>
   <g id="patch_26">
    <path d="M 82.07625 260.457005 
C 204.83625 260.457005 204.83625 353.893617 327.59625 353.893617 
L 327.59625 333.954618 
C 204.83625 333.954618 204.83625 240.518006 82.07625 240.518006 
z
" clip-path="url(#p12ac4acd6d)" style="fill: #ff0000; opacity: 0.3"/>
   </g>
   <g id="patch_27">
    <path d="M 82.07625 348.105602 
C 204.83625 348.105602 204.83625 129.021966 327.59625 129.021966 
L 327.59625 109.70519 
C 204.83625 109.70519 204.83625 328.788825 82.07625 328.788825 
z
" clip-path="url(#p12ac4acd6d)" style="fill: #70453c; opacity: 0.3"/>
   </g>
   <g id="patch_28">
    <path d="M 82.07625 322.452825 
C 204.83625 322.452825 204.83625 378.869999 327.59625 378.869999 
L 327.59625 360.229617 
C 204.83625 360.229617 204.83625 303.812444 82.07625 303.812444 
z
" clip-path="url(#p12ac4acd6d)" style="fill: #ab1f20; opacity: 0.3"/>
   </g>
   <g id="patch_29">
    <path d="M 82.07625 277.537444 
C 204.83625 277.537444 204.83625 402.286438 327.59625 402.286438 
L 327.59625 385.205999 
C 204.83625 385.205999 204.83625 260.457005 82.07625 260.457005 
z
" clip-path="url(#p12ac4acd6d)" style="fill: #ff0000; opacity: 0.3"/>
   </g>
   <g id="patch_30">
    <path d="M 82.07625 370.606438 
C 204.83625 370.606438 204.83625 145.186802 327.59625 145.186802 
L 327.59625 129.021966 
C 204.83625 129.021966 204.83625 354.441602 82.07625 354.441602 
z
" clip-path="url(#p12ac4acd6d)" style="fill: #008000; opacity: 0.3"/>
   </g>
   <g id="patch_31">
    <path d="M 337.82625 89.289733 
C 460.58625 89.289733 460.58625 108.409776 583.34625 108.409776 
L 583.34625 66.478438 
C 460.58625 66.478438 460.58625 66.478438 337.82625 66.478438 
z
" clip-path="url(#p12ac4acd6d)" style="fill: #ab1f20; opacity: 0.3"/>
   </g>
   <g id="patch_32">
    <path d="M 337.82625 378.869999 
C 460.58625 378.869999 460.58625 150.341115 583.34625 150.341115 
L 583.34625 108.409776 
C 460.58625 108.409776 460.58625 360.229617 337.82625 360.229617 
z
" clip-path="url(#p12ac4acd6d)" style="fill: #ab1f20; opacity: 0.3"/>
   </g>
   <g id="patch_33">
    <path d="M 337.82625 109.460123 
C 460.58625 109.460123 460.58625 331.434348 583.34625 331.434348 
L 583.34625 294.357475 
C 460.58625 294.357475 460.58625 89.289733 337.82625 89.289733 
z
" clip-path="url(#p12ac4acd6d)" style="fill: #70453c; opacity: 0.3"/>
   </g>
   <g id="patch_34">
    <path d="M 337.82625 127.323463 
C 460.58625 127.323463 460.58625 370.606438 583.34625 370.606438 
L 583.34625 337.770348 
C 460.58625 337.770348 460.58625 109.460123 337.82625 109.460123 
z
" clip-path="url(#p12ac4acd6d)" style="fill: #70453c; opacity: 0.3"/>
   </g>
   <g id="patch_35">
    <path d="M 337.82625 353.893617 
C 460.58625 353.893617 460.58625 183.177205 583.34625 183.177205 
L 583.34625 150.341115 
C 460.58625 150.341115 460.58625 333.954618 337.82625 333.954618 
z
" clip-path="url(#p12ac4acd6d)" style="fill: #ab1f20; opacity: 0.3"/>
   </g>
   <g id="patch_36">
    <path d="M 337.82625 232.521606 
C 460.58625 232.521606 460.58625 255.185385 583.34625 255.185385 
L 583.34625 222.349295 
C 460.58625 222.349295 460.58625 197.455796 337.82625 197.455796 
z
" clip-path="url(#p12ac4acd6d)" style="fill: #ab1f20; opacity: 0.3"/>
   </g>
   <g id="patch_37">
    <path d="M 337.82625 145.186802 
C 460.58625 145.186802 460.58625 288.021475 583.34625 288.021475 
L 583.34625 255.185385 
C 460.58625 255.185385 460.58625 127.323463 337.82625 127.323463 
z
" clip-path="url(#p12ac4acd6d)" style="fill: #ab1f20; opacity: 0.3"/>
   </g>
   <g id="text_1">
    <text style="font-weight: 700; font-size: 10px; font-family: 'DejaVu Sans', 'Bitstream Vera Sans', 'Computer Modern Sans Serif', 'Lucida Grande', 'Verdana', 'Geneva', 'Lucid', 'Arial', 'Helvetica', 'Avant Garde', sans-serif; text-anchor: end" x="66.73125" y="174.628253" transform="rotate(-0 66.73125 174.628253)">TE_bottom</text>
   </g>
   <g id="text_2">
    <text style="font-weight: 700; font-size: 10px; font-family: 'DejaVu Sans', 'Bitstream Vera Sans', 'Computer Modern Sans Serif', 'Lucida Grande', 'Verdana', 'Geneva', 'Lucid', 'Arial', 'Helvetica', 'Avant Garde', sans-serif; text-anchor: end" x="66.73125" y="305.92251" transform="rotate(-0 66.73125 305.92251)">SINE</text>
   </g>
   <g id="text_3">
    <text style="font-weight: 700; font-size: 10px; font-family: 'DejaVu Sans', 'Bitstream Vera Sans', 'Computer Modern Sans Serif', 'Lucida Grande', 'Verdana', 'Geneva', 'Lucid', 'Arial', 'Helvetica', 'Avant Garde', sans-serif; text-anchor: end" x="66.73125" y="341.206589" transform="rotate(-0 66.73125 341.206589)">LTR</text>
   </g>
   <g id="text_4">
    <text style="font-weight: 700; font-size: 10px; font-family: 'DejaVu Sans', 'Bitstream Vera Sans', 'Computer Modern Sans Serif', 'Lucida Grande', 'Verdana', 'Geneva', 'Lucid', 'Arial', 'Helvetica', 'Avant Garde', sans-serif; text-anchor: end" x="66.73125" y="365.00527" transform="rotate(-0 66.73125 365.00527)">TE_top</text>
   </g>
   <g id="text_5">
    <text style="font-weight: 700; font-size: 10px; font-family: 'DejaVu Sans', 'Bitstream Vera Sans', 'Computer Modern Sans Serif', 'Lucida Grande', 'Verdana', 'Geneva', 'Lucid', 'Arial', 'Helvetica', 'Avant Garde', sans-serif; text-anchor: start" x="348.05625" y="108.552932" transform="rotate(-0 348.05625 108.552932)">Too general</text>
   </g>
   <g id="text_6">
    <text style="font-weight: 700; font-size: 10px; font-family: 'DejaVu Sans', 'Bitstream Vera Sans', 'Computer Modern Sans Serif', 'Lucida Grande', 'Verdana', 'Geneva', 'Lucid', 'Arial', 'Helvetica', 'Avant Garde', sans-serif; text-anchor: start" x="348.05625" y="174.041612" transform="rotate(-0 348.05625 174.041612)">Embryogenesis</text>
   </g>
   <g id="text_7">
    <text style="font-weight: 700; font-size: 10px; font-family: 'DejaVu Sans', 'Bitstream Vera Sans', 'Computer Modern Sans Serif', 'Lucida Grande', 'Verdana', 'Geneva', 'Lucid', 'Arial', 'Helvetica', 'Avant Garde', sans-serif; text-anchor: start" x="348.05625" y="217.669951" transform="rotate(-0 348.05625 217.669951)">Nervous system</text>
   </g>
   <g id="text_8">
    <text style="font-weight: 700; font-size: 10px; font-family: 'DejaVu Sans', 'Bitstream Vera Sans', 'Computer Modern Sans Serif', 'Lucida Grande', 'Verdana', 'Geneva', 'Lucid', 'Arial', 'Helvetica', 'Avant Garde', sans-serif; text-anchor: start" x="348.05625" y="254.797765" transform="rotate(-0 348.05625 254.797765)">Transcription and its regulation</text>
   </g>
   <g id="text_9">
    <text style="font-weight: 700; font-size: 10px; font-family: 'DejaVu Sans', 'Bitstream Vera Sans', 'Computer Modern Sans Serif', 'Lucida Grande', 'Verdana', 'Geneva', 'Lucid', 'Arial', 'Helvetica', 'Avant Garde', sans-serif; text-anchor: start" x="348.05625" y="287.163941" transform="rotate(-0 348.05625 287.163941)">Signaling pathways</text>
   </g>
   <g id="text_10">
    <text style="font-weight: 700; font-size: 10px; font-family: 'DejaVu Sans', 'Bitstream Vera Sans', 'Computer Modern Sans Serif', 'Lucida Grande', 'Verdana', 'Geneva', 'Lucid', 'Arial', 'Helvetica', 'Avant Garde', sans-serif; text-anchor: start" x="348.05625" y="318.285538" transform="rotate(-0 348.05625 318.285538)">Sensory system</text>
   </g>
   <g id="text_11">
    <text style="font-weight: 700; font-size: 10px; font-family: 'DejaVu Sans', 'Bitstream Vera Sans', 'Computer Modern Sans Serif', 'Lucida Grande', 'Verdana', 'Geneva', 'Lucid', 'Arial', 'Helvetica', 'Avant Garde', sans-serif; text-anchor: start" x="348.05625" y="346.64443" transform="rotate(-0 348.05625 346.64443)">Cell cycle/cell division</text>
   </g>
   <g id="text_12">
    <text style="font-weight: 700; font-size: 10px; font-family: 'DejaVu Sans', 'Bitstream Vera Sans', 'Computer Modern Sans Serif', 'Lucida Grande', 'Verdana', 'Geneva', 'Lucid', 'Arial', 'Helvetica', 'Avant Garde', sans-serif; text-anchor: start" x="348.05625" y="372.270121" transform="rotate(-0 348.05625 372.270121)">RNA splicing and processing</text>
   </g>
   <g id="text_13">
    <text style="font-weight: 700; font-size: 10px; font-family: 'DejaVu Sans', 'Bitstream Vera Sans', 'Computer Modern Sans Serif', 'Lucida Grande', 'Verdana', 'Geneva', 'Lucid', 'Arial', 'Helvetica', 'Avant Garde', sans-serif; text-anchor: start" x="348.05625" y="396.505593" transform="rotate(-0 348.05625 396.505593)">Exosomes and vesicles</text>
   </g>
   <g id="text_14">
    <text style="font-size: 10px; font-family: 'DejaVu Sans', 'Bitstream Vera Sans', 'Computer Modern Sans Serif', 'Lucida Grande', 'Verdana', 'Geneva', 'Lucid', 'Arial', 'Helvetica', 'Avant Garde', sans-serif; text-anchor: start" x="598.69125" y="144.005241" transform="rotate(-0 598.69125 144.005241)">Alu</text>
   </g>
   <g id="text_15">
    <text style="font-size: 10px; font-family: 'DejaVu Sans', 'Bitstream Vera Sans', 'Computer Modern Sans Serif', 'Lucida Grande', 'Verdana', 'Geneva', 'Lucid', 'Arial', 'Helvetica', 'Avant Garde', sans-serif; text-anchor: start" x="598.69125" y="257.94476" transform="rotate(-0 598.69125 257.94476)">MIR</text>
   </g>
   <g id="text_16">
    <text style="font-size: 10px; font-family: 'DejaVu Sans', 'Bitstream Vera Sans', 'Computer Modern Sans Serif', 'Lucida Grande', 'Verdana', 'Geneva', 'Lucid', 'Arial', 'Helvetica', 'Avant Garde', sans-serif; text-anchor: start" x="598.69125" y="315.655286" transform="rotate(-0 598.69125 315.655286)">ERVL-MaLR</text>
   </g>
   <g id="text_17">
    <text style="font-size: 10px; font-family: 'DejaVu Sans', 'Bitstream Vera Sans', 'Computer Modern Sans Serif', 'Lucida Grande', 'Verdana', 'Geneva', 'Lucid', 'Arial', 'Helvetica', 'Avant Garde', sans-serif; text-anchor: start" x="598.69125" y="356.947768" transform="rotate(-0 598.69125 356.947768)">ERVL</text>
   </g>
   <g id="text_18">
    <g id="patch_38">
     <path d="M 305.95125 177.160362 
L 325.03875 177.160362 
Q 326.03875 177.160362 326.03875 176.160362 
L 326.03875 166.482237 
Q 326.03875 165.482237 325.03875 165.482237 
L 305.95125 165.482237 
Q 304.95125 165.482237 304.95125 166.482237 
L 304.95125 176.160362 
Q 304.95125 177.160362 305.95125 177.160362 
z
" style="fill: #ffffff; opacity: 0.7"/>
    </g>
    <text style="font-size: 10px; font-family: 'DejaVu Sans', 'Bitstream Vera Sans', 'Computer Modern Sans Serif', 'Lucida Grande', 'Verdana', 'Geneva', 'Lucid', 'Arial', 'Helvetica', 'Avant Garde', sans-serif; text-anchor: end" x="325.03875" y="174.080674" transform="rotate(-0 325.03875 174.080674)">162</text>
   </g>
   <g id="text_19">
    <g id="patch_39">
     <path d="M 312.31375 220.827764 
L 325.03875 220.827764 
Q 326.03875 220.827764 326.03875 219.827764 
L 326.03875 210.149639 
Q 326.03875 209.149639 325.03875 209.149639 
L 312.31375 209.149639 
Q 311.31375 209.149639 311.31375 210.149639 
L 311.31375 219.827764 
Q 311.31375 220.827764 312.31375 220.827764 
z
" style="fill: #ffffff; opacity: 0.7"/>
    </g>
    <text style="font-size: 10px; font-family: 'DejaVu Sans', 'Bitstream Vera Sans', 'Computer Modern Sans Serif', 'Lucida Grande', 'Verdana', 'Geneva', 'Lucid', 'Arial', 'Helvetica', 'Avant Garde', sans-serif; text-anchor: end" x="325.03875" y="217.748076" transform="rotate(-0 325.03875 217.748076)">90</text>
   </g>
   <g id="text_20">
    <g id="patch_40">
     <path d="M 312.31375 257.916515 
L 325.03875 257.916515 
Q 326.03875 257.916515 326.03875 256.916515 
L 326.03875 247.23839 
Q 326.03875 246.23839 325.03875 246.23839 
L 312.31375 246.23839 
Q 311.31375 246.23839 311.31375 247.23839 
L 311.31375 256.916515 
Q 311.31375 257.916515 312.31375 257.916515 
z
" style="fill: #ffffff; opacity: 0.7"/>
    </g>
    <text style="font-size: 10px; font-family: 'DejaVu Sans', 'Bitstream Vera Sans', 'Computer Modern Sans Serif', 'Lucida Grande', 'Verdana', 'Geneva', 'Lucid', 'Arial', 'Helvetica', 'Avant Garde', sans-serif; text-anchor: end" x="325.03875" y="254.836828" transform="rotate(-0 325.03875 254.836828)">29</text>
   </g>
   <g id="text_21">
    <g id="patch_41">
     <path d="M 312.31375 290.282691 
L 325.03875 290.282691 
Q 326.03875 290.282691 326.03875 289.282691 
L 326.03875 279.604566 
Q 326.03875 278.604566 325.03875 278.604566 
L 312.31375 278.604566 
Q 311.31375 278.604566 311.31375 279.604566 
L 311.31375 289.282691 
Q 311.31375 290.282691 312.31375 290.282691 
z
" style="fill: #ffffff; opacity: 0.7"/>
    </g>
    <text style="font-size: 10px; font-family: 'DejaVu Sans', 'Bitstream Vera Sans', 'Computer Modern Sans Serif', 'Lucida Grande', 'Verdana', 'Geneva', 'Lucid', 'Arial', 'Helvetica', 'Avant Garde', sans-serif; text-anchor: end" x="325.03875" y="287.203004" transform="rotate(-0 325.03875 287.203004)">26</text>
   </g>
   <g id="text_22">
    <g id="patch_42">
     <path d="M 312.31375 321.44335 
L 325.03875 321.44335 
Q 326.03875 321.44335 326.03875 320.44335 
L 326.03875 310.765225 
Q 326.03875 309.765225 325.03875 309.765225 
L 312.31375 309.765225 
Q 311.31375 309.765225 311.31375 310.765225 
L 311.31375 320.44335 
Q 311.31375 321.44335 312.31375 321.44335 
z
" style="fill: #ffffff; opacity: 0.7"/>
    </g>
    <text style="font-size: 10px; font-family: 'DejaVu Sans', 'Bitstream Vera Sans', 'Computer Modern Sans Serif', 'Lucida Grande', 'Verdana', 'Geneva', 'Lucid', 'Arial', 'Helvetica', 'Avant Garde', sans-serif; text-anchor: end" x="325.03875" y="318.363663" transform="rotate(-0 325.03875 318.363663)">21</text>
   </g>
   <g id="text_23">
    <g id="patch_43">
     <path d="M 312.31375 83.961376 
L 325.03875 83.961376 
Q 326.03875 83.961376 326.03875 82.961376 
L 326.03875 73.283251 
Q 326.03875 72.283251 325.03875 72.283251 
L 312.31375 72.283251 
Q 311.31375 72.283251 311.31375 73.283251 
L 311.31375 82.961376 
Q 311.31375 83.961376 312.31375 83.961376 
z
" style="fill: #ffffff; opacity: 0.7"/>
    </g>
    <text style="font-size: 10px; font-family: 'DejaVu Sans', 'Bitstream Vera Sans', 'Computer Modern Sans Serif', 'Lucida Grande', 'Verdana', 'Geneva', 'Lucid', 'Arial', 'Helvetica', 'Avant Garde', sans-serif; text-anchor: end" x="325.03875" y="80.881689" transform="rotate(-0 325.03875 80.881689)">19</text>
   </g>
   <g id="text_24">
    <g id="patch_44">
     <path d="M 312.31375 105.574752 
L 325.03875 105.574752 
Q 326.03875 105.574752 326.03875 104.574752 
L 326.03875 94.896627 
Q 326.03875 93.896627 325.03875 93.896627 
L 312.31375 93.896627 
Q 311.31375 93.896627 311.31375 94.896627 
L 311.31375 104.574752 
Q 311.31375 105.574752 312.31375 105.574752 
z
" style="fill: #ffffff; opacity: 0.7"/>
    </g>
    <text style="font-size: 10px; font-family: 'DejaVu Sans', 'Bitstream Vera Sans', 'Computer Modern Sans Serif', 'Lucida Grande', 'Verdana', 'Geneva', 'Lucid', 'Arial', 'Helvetica', 'Avant Garde', sans-serif; text-anchor: end" x="325.03875" y="102.495065" transform="rotate(-0 325.03875 102.495065)">12</text>
   </g>
   <g id="text_25">
    <g id="patch_45">
     <path d="M 312.31375 349.76318 
L 325.03875 349.76318 
Q 326.03875 349.76318 326.03875 348.76318 
L 326.03875 339.085055 
Q 326.03875 338.085055 325.03875 338.085055 
L 312.31375 338.085055 
Q 311.31375 338.085055 311.31375 339.085055 
L 311.31375 348.76318 
Q 311.31375 349.76318 312.31375 349.76318 
z
" style="fill: #ffffff; opacity: 0.7"/>
    </g>
    <text style="font-size: 10px; font-family: 'DejaVu Sans', 'Bitstream Vera Sans', 'Computer Modern Sans Serif', 'Lucida Grande', 'Verdana', 'Geneva', 'Lucid', 'Arial', 'Helvetica', 'Avant Garde', sans-serif; text-anchor: end" x="325.03875" y="346.683493" transform="rotate(-0 325.03875 346.683493)">12</text>
   </g>
   <g id="text_26">
    <g id="patch_46">
     <path d="M 312.31375 125.202641 
L 325.03875 125.202641 
Q 326.03875 125.202641 326.03875 124.202641 
L 326.03875 114.524516 
Q 326.03875 113.524516 325.03875 113.524516 
L 312.31375 113.524516 
Q 311.31375 113.524516 311.31375 114.524516 
L 311.31375 124.202641 
Q 311.31375 125.202641 312.31375 125.202641 
z
" style="fill: #ffffff; opacity: 0.7"/>
    </g>
    <text style="font-size: 10px; font-family: 'DejaVu Sans', 'Bitstream Vera Sans', 'Computer Modern Sans Serif', 'Lucida Grande', 'Verdana', 'Geneva', 'Lucid', 'Arial', 'Helvetica', 'Avant Garde', sans-serif; text-anchor: end" x="325.03875" y="122.122953" transform="rotate(-0 325.03875 122.122953)">11</text>
   </g>
   <g id="text_27">
    <g id="patch_47">
     <path d="M 312.31375 375.388871 
L 325.03875 375.388871 
Q 326.03875 375.388871 326.03875 374.388871 
L 326.03875 364.710746 
Q 326.03875 363.710746 325.03875 363.710746 
L 312.31375 363.710746 
Q 311.31375 363.710746 311.31375 364.710746 
L 311.31375 374.388871 
Q 311.31375 375.388871 312.31375 375.388871 
z
" style="fill: #ffffff; opacity: 0.7"/>
    </g>
    <text style="font-size: 10px; font-family: 'DejaVu Sans', 'Bitstream Vera Sans', 'Computer Modern Sans Serif', 'Lucida Grande', 'Verdana', 'Geneva', 'Lucid', 'Arial', 'Helvetica', 'Avant Garde', sans-serif; text-anchor: end" x="325.03875" y="372.309183" transform="rotate(-0 325.03875 372.309183)">10</text>
   </g>
   <g id="text_28">
    <g id="patch_48">
     <path d="M 318.67625 399.585281 
L 325.03875 399.585281 
Q 326.03875 399.585281 326.03875 398.585281 
L 326.03875 388.907156 
Q 326.03875 387.907156 325.03875 387.907156 
L 318.67625 387.907156 
Q 317.67625 387.907156 317.67625 388.907156 
L 317.67625 398.585281 
Q 317.67625 399.585281 318.67625 399.585281 
z
" style="fill: #ffffff; opacity: 0.7"/>
    </g>
    <text style="font-size: 10px; font-family: 'DejaVu Sans', 'Bitstream Vera Sans', 'Computer Modern Sans Serif', 'Lucida Grande', 'Verdana', 'Geneva', 'Lucid', 'Arial', 'Helvetica', 'Avant Garde', sans-serif; text-anchor: end" x="325.03875" y="396.505593" transform="rotate(-0 325.03875 396.505593)">8</text>
   </g>
   <g id="text_29">
    <g id="patch_49">
     <path d="M 318.67625 142.943447 
L 325.03875 142.943447 
Q 326.03875 142.943447 326.03875 141.943447 
L 326.03875 132.265322 
Q 326.03875 131.265322 325.03875 131.265322 
L 318.67625 131.265322 
Q 317.67625 131.265322 317.67625 132.265322 
L 317.67625 141.943447 
Q 317.67625 142.943447 318.67625 142.943447 
z
" style="fill: #ffffff; opacity: 0.7"/>
    </g>
    <text style="font-size: 10px; font-family: 'DejaVu Sans', 'Bitstream Vera Sans', 'Computer Modern Sans Serif', 'Lucida Grande', 'Verdana', 'Geneva', 'Lucid', 'Arial', 'Helvetica', 'Avant Garde', sans-serif; text-anchor: end" x="325.03875" y="139.863759" transform="rotate(-0 325.03875 139.863759)">7</text>
   </g>
   <g id="text_30">
    <g id="patch_50">
     <path d="M 340.38375 83.723148 
L 353.10875 83.723148 
Q 354.10875 83.723148 354.10875 82.723148 
L 354.10875 73.045023 
Q 354.10875 72.045023 353.10875 72.045023 
L 340.38375 72.045023 
Q 339.38375 72.045023 339.38375 73.045023 
L 339.38375 82.723148 
Q 339.38375 83.723148 340.38375 83.723148 
z
" style="fill: #ffffff; opacity: 0.7"/>
    </g>
    <text style="font-size: 10px; font-family: 'DejaVu Sans', 'Bitstream Vera Sans', 'Computer Modern Sans Serif', 'Lucida Grande', 'Verdana', 'Geneva', 'Lucid', 'Arial', 'Helvetica', 'Avant Garde', sans-serif; text-anchor: start" x="340.38375" y="80.64346" transform="rotate(-0 340.38375 80.64346)">11</text>
   </g>
   <g id="text_31">
    <g id="patch_51">
     <path d="M 340.38375 375.388871 
L 353.10875 375.388871 
Q 354.10875 375.388871 354.10875 374.388871 
L 354.10875 364.710746 
Q 354.10875 363.710746 353.10875 363.710746 
L 340.38375 363.710746 
Q 339.38375 363.710746 339.38375 364.710746 
L 339.38375 374.388871 
Q 339.38375 375.388871 340.38375 375.388871 
z
" style="fill: #ffffff; opacity: 0.7"/>
    </g>
    <text style="font-size: 10px; font-family: 'DejaVu Sans', 'Bitstream Vera Sans', 'Computer Modern Sans Serif', 'Lucida Grande', 'Verdana', 'Geneva', 'Lucid', 'Arial', 'Helvetica', 'Avant Garde', sans-serif; text-anchor: start" x="340.38375" y="372.309183" transform="rotate(-0 340.38375 372.309183)">11</text>
   </g>
   <g id="text_32">
    <g id="patch_52">
     <path d="M 340.38375 105.21399 
L 346.74625 105.21399 
Q 347.74625 105.21399 347.74625 104.21399 
L 347.74625 94.535865 
Q 347.74625 93.535865 346.74625 93.535865 
L 340.38375 93.535865 
Q 339.38375 93.535865 339.38375 94.535865 
L 339.38375 104.21399 
Q 339.38375 105.21399 340.38375 105.21399 
z
" style="fill: #ffffff; opacity: 0.7"/>
    </g>
    <text style="font-size: 10px; font-family: 'DejaVu Sans', 'Bitstream Vera Sans', 'Computer Modern Sans Serif', 'Lucida Grande', 'Verdana', 'Geneva', 'Lucid', 'Arial', 'Helvetica', 'Avant Garde', sans-serif; text-anchor: start" x="340.38375" y="102.134303" transform="rotate(-0 340.38375 102.134303)">8</text>
   </g>
   <g id="text_33">
    <g id="patch_53">
     <path d="M 340.38375 124.230855 
L 346.74625 124.230855 
Q 347.74625 124.230855 347.74625 123.230855 
L 347.74625 113.55273 
Q 347.74625 112.55273 346.74625 112.55273 
L 340.38375 112.55273 
Q 339.38375 112.55273 339.38375 113.55273 
L 339.38375 123.230855 
Q 339.38375 124.230855 340.38375 124.230855 
z
" style="fill: #ffffff; opacity: 0.7"/>
    </g>
    <text style="font-size: 10px; font-family: 'DejaVu Sans', 'Bitstream Vera Sans', 'Computer Modern Sans Serif', 'Lucida Grande', 'Verdana', 'Geneva', 'Lucid', 'Arial', 'Helvetica', 'Avant Garde', sans-serif; text-anchor: start" x="340.38375" y="121.151168" transform="rotate(-0 340.38375 121.151168)">6</text>
   </g>
   <g id="text_34">
    <g id="patch_54">
     <path d="M 340.38375 349.76318 
L 346.74625 349.76318 
Q 347.74625 349.76318 347.74625 348.76318 
L 347.74625 339.085055 
Q 347.74625 338.085055 346.74625 338.085055 
L 340.38375 338.085055 
Q 339.38375 338.085055 339.38375 339.085055 
L 339.38375 348.76318 
Q 339.38375 349.76318 340.38375 349.76318 
z
" style="fill: #ffffff; opacity: 0.7"/>
    </g>
    <text style="font-size: 10px; font-family: 'DejaVu Sans', 'Bitstream Vera Sans', 'Computer Modern Sans Serif', 'Lucida Grande', 'Verdana', 'Geneva', 'Lucid', 'Arial', 'Helvetica', 'Avant Garde', sans-serif; text-anchor: start" x="340.38375" y="346.683493" transform="rotate(-0 340.38375 346.683493)">6</text>
   </g>
   <g id="text_35">
    <g id="patch_55">
     <path d="M 340.38375 220.827764 
L 346.74625 220.827764 
Q 347.74625 220.827764 347.74625 219.827764 
L 347.74625 210.149639 
Q 347.74625 209.149639 346.74625 209.149639 
L 340.38375 209.149639 
Q 339.38375 209.149639 339.38375 210.149639 
L 339.38375 219.827764 
Q 339.38375 220.827764 340.38375 220.827764 
z
" style="fill: #ffffff; opacity: 0.7"/>
    </g>
    <text style="font-size: 10px; font-family: 'DejaVu Sans', 'Bitstream Vera Sans', 'Computer Modern Sans Serif', 'Lucida Grande', 'Verdana', 'Geneva', 'Lucid', 'Arial', 'Helvetica', 'Avant Garde', sans-serif; text-anchor: start" x="340.38375" y="217.748076" transform="rotate(-0 340.38375 217.748076)">6</text>
   </g>
   <g id="text_36">
    <g id="patch_56">
     <path d="M 340.38375 142.094195 
L 346.74625 142.094195 
Q 347.74625 142.094195 347.74625 141.094195 
L 347.74625 131.41607 
Q 347.74625 130.41607 346.74625 130.41607 
L 340.38375 130.41607 
Q 339.38375 130.41607 339.38375 131.41607 
L 339.38375 141.094195 
Q 339.38375 142.094195 340.38375 142.094195 
z
" style="fill: #ffffff; opacity: 0.7"/>
    </g>
    <text style="font-size: 10px; font-family: 'DejaVu Sans', 'Bitstream Vera Sans', 'Computer Modern Sans Serif', 'Lucida Grande', 'Verdana', 'Geneva', 'Lucid', 'Arial', 'Helvetica', 'Avant Garde', sans-serif; text-anchor: start" x="340.38375" y="139.014507" transform="rotate(-0 340.38375 139.014507)">6</text>
   </g>
   <g id="text_37">
    <text style="font-weight: 700; font-size: 10px; font-family: 'DejaVu Sans', 'Bitstream Vera Sans', 'Computer Modern Sans Serif', 'Lucida Grande', 'Verdana', 'Geneva', 'Lucid', 'Arial', 'Helvetica', 'Avant Garde', sans-serif; text-anchor: middle" x="332.71125" y="14.798438" transform="rotate(-0 332.71125 14.798438)">Sankey: TE Class → Functional Group → TE Family (Log10 Scale)</text>
   </g>
  </g>
 </g>
 <defs>
  <clipPath id="p12ac4acd6d">
   <rect x="25.81125" y="34.798438" width="613.8" height="665.28"/>
  </clipPath>
 </defs>
</svg>
