<?xml version="1.0" encoding="utf-8" standalone="no"?>
<!DOCTYPE svg PUBLIC "-//W3C//DTD SVG 1.1//EN"
  "http://www.w3.org/Graphics/SVG/1.1/DTD/svg11.dtd">
<svg xmlns:xlink="http://www.w3.org/1999/xlink" width="855.80625pt" height="651.838438pt" viewBox="0 0 855.80625 651.838438" xmlns="http://www.w3.org/2000/svg" version="1.1">
 <metadata>
  <rdf:RDF xmlns:dc="http://purl.org/dc/elements/1.1/" xmlns:cc="http://creativecommons.org/ns#" xmlns:rdf="http://www.w3.org/1999/02/22-rdf-syntax-ns#">
   <cc:Work>
    <dc:type rdf:resource="http://purl.org/dc/dcmitype/StillImage"/>
    <dc:date>2026-01-15T20:16:46.428138</dc:date>
    <dc:format>image/svg+xml</dc:format>
    <dc:creator>
     <cc:Agent>
      <dc:title>Matplotlib v3.10.8, https://matplotlib.org/</dc:title>
     </cc:Agent>
    </dc:creator>
   </cc:Work>
  </rdf:RDF>
 </metadata>
 <defs>
  <style type="text/css">*{stroke-linejoin: round; stroke-linecap: butt}</style>
 </defs>
 <g id="figure_1">
  <g id="patch_1">
   <path d="M 0 651.838438 
L 855.80625 651.838438 
L 855.80625 0 
L 0 0 
L 0 651.838438 
z
" style="fill: none"/>
  </g>
  <g id="axes_1">
   <g id="patch_2">
    <path d="M 73.70625 182.082983 
L 87.65625 182.082983 
L 87.65625 63.838438 
L 73.70625 63.838438 
z
" clip-path="url(#p039ea25fcc)" style="fill: #ff0000; stroke: #000000; stroke-width: 0.5; stroke-linejoin: miter"/>
   </g>
   <g id="patch_3">
    <path d="M 73.70625 242.18318 
L 87.65625 242.18318 
L 87.65625 187.890983 
L 73.70625 187.890983 
z
" clip-path="url(#p039ea25fcc)" style="fill: #ab1f20; stroke: #000000; stroke-width: 0.5; stroke-linejoin: miter"/>
   </g>
   <g id="patch_4">
    <path d="M 73.70625 286.681785 
L 87.65625 286.681785 
L 87.65625 247.99118 
L 73.70625 247.99118 
z
" clip-path="url(#p039ea25fcc)" style="fill: #008000; stroke: #000000; stroke-width: 0.5; stroke-linejoin: miter"/>
   </g>
   <g id="patch_5">
    <path d="M 73.70625 322.78181 
L 87.65625 322.78181 
L 87.65625 292.489785 
L 73.70625 292.489785 
z
" clip-path="url(#p039ea25fcc)" style="fill: #70453c; stroke: #000000; stroke-width: 0.5; stroke-linejoin: miter"/>
   </g>
   <g id="patch_6">
    <path d="M 73.70625 339.396399 
L 87.65625 339.396399 
L 87.65625 328.58981 
L 73.70625 328.58981 
z
" clip-path="url(#p039ea25fcc)" style="fill: #cc660b; stroke: #000000; stroke-width: 0.5; stroke-linejoin: miter"/>
   </g>
   <g id="patch_7">
    <path d="M 73.70625 354.238438 
L 87.65625 354.238438 
L 87.65625 345.204399 
L 73.70625 345.204399 
z
" clip-path="url(#p039ea25fcc)" style="fill: #765297; stroke: #000000; stroke-width: 0.5; stroke-linejoin: miter"/>
   </g>
   <g id="patch_8">
    <path d="M 422.45625 99.225321 
L 436.40625 99.225321 
L 436.40625 63.838438 
L 422.45625 63.838438 
z
" clip-path="url(#p039ea25fcc)" style="fill: #fccde5; stroke: #000000; stroke-width: 0.5; stroke-linejoin: miter"/>
   </g>
   <g id="patch_9">
    <path d="M 422.45625 126.646499 
L 436.40625 126.646499 
L 436.40625 105.033321 
L 422.45625 105.033321 
z
" clip-path="url(#p039ea25fcc)" style="fill: #b3de69; stroke: #000000; stroke-width: 0.5; stroke-linejoin: miter"/>
   </g>
   <g id="patch_10">
    <path d="M 422.45625 153.835591 
L 436.40625 153.835591 
L 436.40625 132.454499 
L 422.45625 132.454499 
z
" clip-path="url(#p039ea25fcc)" style="fill: #fb8072; stroke: #000000; stroke-width: 0.5; stroke-linejoin: miter"/>
   </g>
   <g id="patch_11">
    <path d="M 422.45625 179.185047 
L 436.40625 179.185047 
L 436.40625 159.643591 
L 422.45625 159.643591 
z
" clip-path="url(#p039ea25fcc)" style="fill: #fdb462; stroke: #000000; stroke-width: 0.5; stroke-linejoin: miter"/>
   </g>
   <g id="patch_12">
    <path d="M 422.45625 203.999452 
L 436.40625 203.999452 
L 436.40625 184.993047 
L 422.45625 184.993047 
z
" clip-path="url(#p039ea25fcc)" style="fill: #fdb462; stroke: #000000; stroke-width: 0.5; stroke-linejoin: miter"/>
   </g>
   <g id="patch_13">
    <path d="M 422.45625 227.490029 
L 436.40625 227.490029 
L 436.40625 209.807452 
L 422.45625 209.807452 
z
" clip-path="url(#p039ea25fcc)" style="fill: #fdb462; stroke: #000000; stroke-width: 0.5; stroke-linejoin: miter"/>
   </g>
   <g id="patch_14">
    <path d="M 422.45625 247.976741 
L 436.40625 247.976741 
L 436.40625 233.298029 
L 422.45625 233.298029 
z
" clip-path="url(#p039ea25fcc)" style="fill: #bebada; stroke: #000000; stroke-width: 0.5; stroke-linejoin: miter"/>
   </g>
   <g id="patch_15">
    <path d="M 422.45625 266.419215 
L 436.40625 266.419215 
L 436.40625 253.784741 
L 422.45625 253.784741 
z
" clip-path="url(#p039ea25fcc)" style="fill: #fb8072; stroke: #000000; stroke-width: 0.5; stroke-linejoin: miter"/>
   </g>
   <g id="patch_16">
    <path d="M 422.45625 284.574268 
L 436.40625 284.574268 
L 436.40625 272.227215 
L 422.45625 272.227215 
z
" clip-path="url(#p039ea25fcc)" style="fill: #8dd3c7; stroke: #000000; stroke-width: 0.5; stroke-linejoin: miter"/>
   </g>
   <g id="patch_17">
    <path d="M 422.45625 302.411592 
L 436.40625 302.411592 
L 436.40625 290.382268 
L 422.45625 290.382268 
z
" clip-path="url(#p039ea25fcc)" style="fill: #bebada; stroke: #000000; stroke-width: 0.5; stroke-linejoin: miter"/>
   </g>
   <g id="patch_18">
    <path d="M 422.45625 318.476366 
L 436.40625 318.476366 
L 436.40625 308.219592 
L 422.45625 308.219592 
z
" clip-path="url(#p039ea25fcc)" style="fill: #fdb462; stroke: #000000; stroke-width: 0.5; stroke-linejoin: miter"/>
   </g>
   <g id="patch_19">
    <path d="M 422.45625 334.541139 
L 436.40625 334.541139 
L 436.40625 324.284366 
L 422.45625 324.284366 
z
" clip-path="url(#p039ea25fcc)" style="fill: #80b1d3; stroke: #000000; stroke-width: 0.5; stroke-linejoin: miter"/>
   </g>
   <g id="patch_20">
    <path d="M 422.45625 347.842713 
L 436.40625 347.842713 
L 436.40625 340.349139 
L 422.45625 340.349139 
z
" clip-path="url(#p039ea25fcc)" style="fill: #8dd3c7; stroke: #000000; stroke-width: 0.5; stroke-linejoin: miter"/>
   </g>
   <g id="patch_21">
    <path d="M 422.45625 359.054008 
L 436.40625 359.054008 
L 436.40625 353.650713 
L 422.45625 353.650713 
z
" clip-path="url(#p039ea25fcc)" style="fill: #ffffb3; stroke: #000000; stroke-width: 0.5; stroke-linejoin: miter"/>
   </g>
   <g id="patch_22">
    <path d="M 422.45625 370.265302 
L 436.40625 370.265302 
L 436.40625 364.862008 
L 422.45625 364.862008 
z
" clip-path="url(#p039ea25fcc)" style="fill: #bebada; stroke: #000000; stroke-width: 0.5; stroke-linejoin: miter"/>
   </g>
   <g id="patch_23">
    <path d="M 422.45625 381.476597 
L 436.40625 381.476597 
L 436.40625 376.073302 
L 422.45625 376.073302 
z
" clip-path="url(#p039ea25fcc)" style="fill: #80b1d3; stroke: #000000; stroke-width: 0.5; stroke-linejoin: miter"/>
   </g>
   <g id="patch_24">
    <path d="M 422.45625 392.687891 
L 436.40625 392.687891 
L 436.40625 387.284597 
L 422.45625 387.284597 
z
" clip-path="url(#p039ea25fcc)" style="fill: #ffffb3; stroke: #000000; stroke-width: 0.5; stroke-linejoin: miter"/>
   </g>
   <g id="patch_25">
    <path d="M 422.45625 402.67645 
L 436.40625 402.67645 
L 436.40625 398.495891 
L 422.45625 398.495891 
z
" clip-path="url(#p039ea25fcc)" style="fill: #bebada; stroke: #000000; stroke-width: 0.5; stroke-linejoin: miter"/>
   </g>
   <g id="patch_26">
    <path d="M 422.45625 412.66501 
L 436.40625 412.66501 
L 436.40625 408.48445 
L 422.45625 408.48445 
z
" clip-path="url(#p039ea25fcc)" style="fill: #8dd3c7; stroke: #000000; stroke-width: 0.5; stroke-linejoin: miter"/>
   </g>
   <g id="patch_27">
    <path d="M 422.45625 422.653569 
L 436.40625 422.653569 
L 436.40625 418.47301 
L 422.45625 418.47301 
z
" clip-path="url(#p039ea25fcc)" style="fill: #bebada; stroke: #000000; stroke-width: 0.5; stroke-linejoin: miter"/>
   </g>
   <g id="patch_28">
    <path d="M 422.45625 431.774584 
L 436.40625 431.774584 
L 436.40625 428.461569 
L 422.45625 428.461569 
z
" clip-path="url(#p039ea25fcc)" style="fill: #80b1d3; stroke: #000000; stroke-width: 0.5; stroke-linejoin: miter"/>
   </g>
   <g id="patch_29">
    <path d="M 422.45625 440.895599 
L 436.40625 440.895599 
L 436.40625 437.582584 
L 422.45625 437.582584 
z
" clip-path="url(#p039ea25fcc)" style="fill: #80b1d3; stroke: #000000; stroke-width: 0.5; stroke-linejoin: miter"/>
   </g>
   <g id="patch_30">
    <path d="M 422.45625 448.793878 
L 436.40625 448.793878 
L 436.40625 446.703599 
L 422.45625 446.703599 
z
" clip-path="url(#p039ea25fcc)" style="fill: #8dd3c7; stroke: #000000; stroke-width: 0.5; stroke-linejoin: miter"/>
   </g>
   <g id="patch_31">
    <path d="M 422.45625 456.692158 
L 436.40625 456.692158 
L 436.40625 454.601878 
L 422.45625 454.601878 
z
" clip-path="url(#p039ea25fcc)" style="fill: #bebada; stroke: #000000; stroke-width: 0.5; stroke-linejoin: miter"/>
   </g>
   <g id="patch_32">
    <path d="M 422.45625 464.590438 
L 436.40625 464.590438 
L 436.40625 462.500158 
L 422.45625 462.500158 
z
" clip-path="url(#p039ea25fcc)" style="fill: #fccde5; stroke: #000000; stroke-width: 0.5; stroke-linejoin: miter"/>
   </g>
   <g id="patch_33">
    <path d="M 771.20625 118.237221 
L 785.15625 118.237221 
L 785.15625 63.838438 
L 771.20625 63.838438 
z
" clip-path="url(#p039ea25fcc)" style="fill: #ab1f20; stroke: #000000; stroke-width: 0.5; stroke-linejoin: miter"/>
   </g>
   <g id="patch_34">
    <path d="M 771.20625 167.447515 
L 785.15625 167.447515 
L 785.15625 124.045221 
L 771.20625 124.045221 
z
" clip-path="url(#p039ea25fcc)" style="fill: #ab1f20; stroke: #000000; stroke-width: 0.5; stroke-linejoin: miter"/>
   </g>
   <g id="patch_35">
    <path d="M 771.20625 208.814417 
L 785.15625 208.814417 
L 785.15625 173.255515 
L 771.20625 173.255515 
z
" clip-path="url(#p039ea25fcc)" style="fill: #70453c; stroke: #000000; stroke-width: 0.5; stroke-linejoin: miter"/>
   </g>
   <g id="patch_36">
    <path d="M 771.20625 248.099027 
L 785.15625 248.099027 
L 785.15625 214.622417 
L 771.20625 214.622417 
z
" clip-path="url(#p039ea25fcc)" style="fill: #cc660b; stroke: #000000; stroke-width: 0.5; stroke-linejoin: miter"/>
   </g>
   <g id="patch_37">
    <path d="M 771.20625 276.76492 
L 785.15625 276.76492 
L 785.15625 253.907027 
L 771.20625 253.907027 
z
" clip-path="url(#p039ea25fcc)" style="fill: #70453c; stroke: #000000; stroke-width: 0.5; stroke-linejoin: miter"/>
   </g>
   <g id="patch_38">
    <path d="M 771.20625 299.585082 
L 785.15625 299.585082 
L 785.15625 282.57292 
L 771.20625 282.57292 
z
" clip-path="url(#p039ea25fcc)" style="fill: #70453c; stroke: #000000; stroke-width: 0.5; stroke-linejoin: miter"/>
   </g>
   <g id="patch_39">
    <path d="M 771.20625 320.322954 
L 785.15625 320.322954 
L 785.15625 305.393082 
L 771.20625 305.393082 
z
" clip-path="url(#p039ea25fcc)" style="fill: #cc660b; stroke: #000000; stroke-width: 0.5; stroke-linejoin: miter"/>
   </g>
   <g id="patch_40">
    <path d="M 771.20625 335.67818 
L 785.15625 335.67818 
L 785.15625 326.130954 
L 771.20625 326.130954 
z
" clip-path="url(#p039ea25fcc)" style="fill: #70453c; stroke: #000000; stroke-width: 0.5; stroke-linejoin: miter"/>
   </g>
   <g id="patch_41">
    <path d="M 771.20625 351.033407 
L 785.15625 351.033407 
L 785.15625 341.48618 
L 771.20625 341.48618 
z
" clip-path="url(#p039ea25fcc)" style="fill: #195f90; stroke: #000000; stroke-width: 0.5; stroke-linejoin: miter"/>
   </g>
   <g id="patch_42">
    <path d="M 771.20625 365.84092 
L 785.15625 365.84092 
L 785.15625 356.841407 
L 771.20625 356.841407 
z
" clip-path="url(#p039ea25fcc)" style="fill: #765297; stroke: #000000; stroke-width: 0.5; stroke-linejoin: miter"/>
   </g>
   <g id="patch_43">
    <path d="M 771.20625 377.031564 
L 785.15625 377.031564 
L 785.15625 371.64892 
L 771.20625 371.64892 
z
" clip-path="url(#p039ea25fcc)" style="fill: #70453c; stroke: #000000; stroke-width: 0.5; stroke-linejoin: miter"/>
   </g>
   <g id="patch_44">
    <path d="M 771.20625 384.921855 
L 785.15625 384.921855 
L 785.15625 382.839564 
L 771.20625 382.839564 
z
" clip-path="url(#p039ea25fcc)" style="fill: #cc660b; stroke: #000000; stroke-width: 0.5; stroke-linejoin: miter"/>
   </g>
   <g id="patch_45">
    <path d="M 771.20625 392.812146 
L 785.15625 392.812146 
L 785.15625 390.729855 
L 771.20625 390.729855 
z
" clip-path="url(#p039ea25fcc)" style="fill: #cc660b; stroke: #000000; stroke-width: 0.5; stroke-linejoin: miter"/>
   </g>
   <g id="patch_46">
    <path d="M 771.20625 400.702437 
L 785.15625 400.702437 
L 785.15625 398.620146 
L 771.20625 398.620146 
z
" clip-path="url(#p039ea25fcc)" style="fill: #195f90; stroke: #000000; stroke-width: 0.5; stroke-linejoin: miter"/>
   </g>
   <g id="patch_47">
    <path d="M 87.65625 79.199334 
C 255.05625 79.199334 255.05625 175.004487 422.45625 175.004487 
L 422.45625 159.643591 
C 255.05625 159.643591 255.05625 63.838438 87.65625 63.838438 
z
" clip-path="url(#p039ea25fcc)" style="fill: #ff0000; opacity: 0.3"/>
   </g>
   <g id="patch_48">
    <path d="M 87.65625 92.802445 
C 255.05625 92.802445 255.05625 198.596157 422.45625 198.596157 
L 422.45625 184.993047 
C 255.05625 184.993047 255.05625 79.199334 87.65625 79.199334 
z
" clip-path="url(#p039ea25fcc)" style="fill: #ff0000; opacity: 0.3"/>
   </g>
   <g id="patch_49">
    <path d="M 87.65625 103.059218 
C 255.05625 103.059218 255.05625 142.711273 422.45625 142.711273 
L 422.45625 132.454499 
C 255.05625 132.454499 255.05625 92.802445 87.65625 92.802445 
z
" clip-path="url(#p039ea25fcc)" style="fill: #ff0000; opacity: 0.3"/>
   </g>
   <g id="patch_50">
    <path d="M 87.65625 112.998263 
C 255.05625 112.998263 255.05625 114.972366 422.45625 114.972366 
L 422.45625 105.033321 
C 255.05625 105.033321 255.05625 103.059218 87.65625 103.059218 
z
" clip-path="url(#p039ea25fcc)" style="fill: #ff0000; opacity: 0.3"/>
   </g>
   <g id="patch_51">
    <path d="M 87.65625 122.319722 
C 255.05625 122.319722 255.05625 219.128911 422.45625 219.128911 
L 422.45625 209.807452 
C 255.05625 209.807452 255.05625 112.998263 87.65625 112.998263 
z
" clip-path="url(#p039ea25fcc)" style="fill: #ff0000; opacity: 0.3"/>
   </g>
   <g id="patch_52">
    <path d="M 87.65625 131.35376 
C 255.05625 131.35376 255.05625 72.872476 422.45625 72.872476 
L 422.45625 63.838438 
C 255.05625 63.838438 255.05625 122.319722 87.65625 122.319722 
z
" clip-path="url(#p039ea25fcc)" style="fill: #ff0000; opacity: 0.3"/>
   </g>
   <g id="patch_53">
    <path d="M 87.65625 195.625937 
C 255.05625 195.625937 255.05625 80.607429 422.45625 80.607429 
L 422.45625 72.872476 
C 255.05625 72.872476 255.05625 187.890983 87.65625 187.890983 
z
" clip-path="url(#p039ea25fcc)" style="fill: #ab1f20; opacity: 0.3"/>
   </g>
   <g id="patch_54">
    <path d="M 87.65625 139.088714 
C 255.05625 139.088714 255.05625 241.032983 422.45625 241.032983 
L 422.45625 233.298029 
C 255.05625 233.298029 255.05625 131.35376 87.65625 131.35376 
z
" clip-path="url(#p039ea25fcc)" style="fill: #ff0000; opacity: 0.3"/>
   </g>
   <g id="patch_55">
    <path d="M 87.65625 299.983359 
C 255.05625 299.983359 255.05625 88.101004 422.45625 88.101004 
L 422.45625 80.607429 
C 255.05625 80.607429 255.05625 292.489785 87.65625 292.489785 
z
" clip-path="url(#p039ea25fcc)" style="fill: #70453c; opacity: 0.3"/>
   </g>
   <g id="patch_56">
    <path d="M 87.65625 202.857116 
C 255.05625 202.857116 255.05625 261.015921 422.45625 261.015921 
L 422.45625 253.784741 
C 255.05625 253.784741 255.05625 195.625937 87.65625 195.625937 
z
" clip-path="url(#p039ea25fcc)" style="fill: #ab1f20; opacity: 0.3"/>
   </g>
   <g id="patch_57">
    <path d="M 87.65625 145.714743 
C 255.05625 145.714743 255.05625 297.008298 422.45625 297.008298 
L 422.45625 290.382268 
C 255.05625 290.382268 255.05625 139.088714 87.65625 139.088714 
z
" clip-path="url(#p039ea25fcc)" style="fill: #ff0000; opacity: 0.3"/>
   </g>
   <g id="patch_58">
    <path d="M 87.65625 254.262018 
C 255.05625 254.262018 255.05625 94.371842 422.45625 94.371842 
L 422.45625 88.101004 
C 255.05625 88.101004 255.05625 247.99118 87.65625 247.99118 
z
" clip-path="url(#p039ea25fcc)" style="fill: #008000; opacity: 0.3"/>
   </g>
   <g id="patch_59">
    <path d="M 87.65625 151.118038 
C 255.05625 151.118038 255.05625 359.054008 422.45625 359.054008 
L 422.45625 353.650713 
C 255.05625 353.650713 255.05625 145.714743 87.65625 145.714743 
z
" clip-path="url(#p039ea25fcc)" style="fill: #ff0000; opacity: 0.3"/>
   </g>
   <g id="patch_60">
    <path d="M 87.65625 207.710595 
C 255.05625 207.710595 255.05625 245.886462 422.45625 245.886462 
L 422.45625 241.032983 
C 255.05625 241.032983 255.05625 202.857116 87.65625 202.857116 
z
" clip-path="url(#p039ea25fcc)" style="fill: #ab1f20; opacity: 0.3"/>
   </g>
   <g id="patch_61">
    <path d="M 87.65625 212.564074 
C 255.05625 212.564074 255.05625 277.080694 422.45625 277.080694 
L 422.45625 272.227215 
C 255.05625 272.227215 255.05625 207.710595 87.65625 207.710595 
z
" clip-path="url(#p039ea25fcc)" style="fill: #ab1f20; opacity: 0.3"/>
   </g>
   <g id="patch_62">
    <path d="M 87.65625 304.836838 
C 255.05625 304.836838 255.05625 147.564752 422.45625 147.564752 
L 422.45625 142.711273 
C 255.05625 142.711273 255.05625 299.983359 87.65625 299.983359 
z
" clip-path="url(#p039ea25fcc)" style="fill: #70453c; opacity: 0.3"/>
   </g>
   <g id="patch_63">
    <path d="M 87.65625 155.971517 
C 255.05625 155.971517 255.05625 329.137845 422.45625 329.137845 
L 422.45625 324.284366 
C 255.05625 324.284366 255.05625 151.118038 87.65625 151.118038 
z
" clip-path="url(#p039ea25fcc)" style="fill: #ff0000; opacity: 0.3"/>
   </g>
   <g id="patch_64">
    <path d="M 87.65625 160.824996 
C 255.05625 160.824996 255.05625 313.073071 422.45625 313.073071 
L 422.45625 308.219592 
C 255.05625 308.219592 255.05625 155.971517 87.65625 155.971517 
z
" clip-path="url(#p039ea25fcc)" style="fill: #ff0000; opacity: 0.3"/>
   </g>
   <g id="patch_65">
    <path d="M 87.65625 350.057878 
C 255.05625 350.057878 255.05625 99.225321 422.45625 99.225321 
L 422.45625 94.371842 
C 255.05625 94.371842 255.05625 345.204399 87.65625 345.204399 
z
" clip-path="url(#p039ea25fcc)" style="fill: #765297; opacity: 0.3"/>
   </g>
   <g id="patch_66">
    <path d="M 87.65625 165.005555 
C 255.05625 165.005555 255.05625 281.261254 422.45625 281.261254 
L 422.45625 277.080694 
C 255.05625 277.080694 255.05625 160.824996 87.65625 160.824996 
z
" clip-path="url(#p039ea25fcc)" style="fill: #ff0000; opacity: 0.3"/>
   </g>
   <g id="patch_67">
    <path d="M 87.65625 216.744633 
C 255.05625 216.744633 255.05625 151.745311 422.45625 151.745311 
L 422.45625 147.564752 
C 255.05625 147.564752 255.05625 212.564074 87.65625 212.564074 
z
" clip-path="url(#p039ea25fcc)" style="fill: #ab1f20; opacity: 0.3"/>
   </g>
   <g id="patch_68">
    <path d="M 87.65625 220.925192 
C 255.05625 220.925192 255.05625 119.152925 422.45625 119.152925 
L 422.45625 114.972366 
C 255.05625 114.972366 255.05625 216.744633 87.65625 216.744633 
z
" clip-path="url(#p039ea25fcc)" style="fill: #ab1f20; opacity: 0.3"/>
   </g>
   <g id="patch_69">
    <path d="M 87.65625 169.186114 
C 255.05625 169.186114 255.05625 422.653569 422.45625 422.653569 
L 422.45625 418.47301 
C 255.05625 418.47301 255.05625 165.005555 87.65625 165.005555 
z
" clip-path="url(#p039ea25fcc)" style="fill: #ff0000; opacity: 0.3"/>
   </g>
   <g id="patch_70">
    <path d="M 87.65625 225.105752 
C 255.05625 225.105752 255.05625 223.30947 422.45625 223.30947 
L 422.45625 219.128911 
C 255.05625 219.128911 255.05625 220.925192 87.65625 220.925192 
z
" clip-path="url(#p039ea25fcc)" style="fill: #ab1f20; opacity: 0.3"/>
   </g>
   <g id="patch_71">
    <path d="M 87.65625 332.77037 
C 255.05625 332.77037 255.05625 227.490029 422.45625 227.490029 
L 422.45625 223.30947 
C 255.05625 223.30947 255.05625 328.58981 87.65625 328.58981 
z
" clip-path="url(#p039ea25fcc)" style="fill: #cc660b; opacity: 0.3"/>
   </g>
   <g id="patch_72">
    <path d="M 87.65625 309.017397 
C 255.05625 309.017397 255.05625 412.66501 422.45625 412.66501 
L 422.45625 408.48445 
C 255.05625 408.48445 255.05625 304.836838 87.65625 304.836838 
z
" clip-path="url(#p039ea25fcc)" style="fill: #70453c; opacity: 0.3"/>
   </g>
   <g id="patch_73">
    <path d="M 87.65625 228.418767 
C 255.05625 228.418767 255.05625 332.45086 422.45625 332.45086 
L 422.45625 329.137845 
C 255.05625 329.137845 255.05625 225.105752 87.65625 225.105752 
z
" clip-path="url(#p039ea25fcc)" style="fill: #ab1f20; opacity: 0.3"/>
   </g>
   <g id="patch_74">
    <path d="M 87.65625 231.731781 
C 255.05625 231.731781 255.05625 300.321313 422.45625 300.321313 
L 422.45625 297.008298 
C 255.05625 297.008298 255.05625 228.418767 87.65625 228.418767 
z
" clip-path="url(#p039ea25fcc)" style="fill: #ab1f20; opacity: 0.3"/>
   </g>
   <g id="patch_75">
    <path d="M 87.65625 257.575033 
C 255.05625 257.575033 255.05625 264.328936 422.45625 264.328936 
L 422.45625 261.015921 
C 255.05625 261.015921 255.05625 254.262018 87.65625 254.262018 
z
" clip-path="url(#p039ea25fcc)" style="fill: #008000; opacity: 0.3"/>
   </g>
   <g id="patch_76">
    <path d="M 87.65625 260.888048 
C 255.05625 260.888048 255.05625 316.386086 422.45625 316.386086 
L 422.45625 313.073071 
C 255.05625 313.073071 255.05625 257.575033 87.65625 257.575033 
z
" clip-path="url(#p039ea25fcc)" style="fill: #008000; opacity: 0.3"/>
   </g>
   <g id="patch_77">
    <path d="M 87.65625 264.201063 
C 255.05625 264.201063 255.05625 379.386317 422.45625 379.386317 
L 422.45625 376.073302 
C 255.05625 376.073302 255.05625 260.888048 87.65625 260.888048 
z
" clip-path="url(#p039ea25fcc)" style="fill: #008000; opacity: 0.3"/>
   </g>
   <g id="patch_78">
    <path d="M 87.65625 267.514078 
C 255.05625 267.514078 255.05625 431.774584 422.45625 431.774584 
L 422.45625 428.461569 
C 255.05625 428.461569 255.05625 264.201063 87.65625 264.201063 
z
" clip-path="url(#p039ea25fcc)" style="fill: #008000; opacity: 0.3"/>
   </g>
   <g id="patch_79">
    <path d="M 87.65625 270.827093 
C 255.05625 270.827093 255.05625 440.895599 422.45625 440.895599 
L 422.45625 437.582584 
C 255.05625 437.582584 255.05625 267.514078 87.65625 267.514078 
z
" clip-path="url(#p039ea25fcc)" style="fill: #008000; opacity: 0.3"/>
   </g>
   <g id="patch_80">
    <path d="M 87.65625 274.140107 
C 255.05625 274.140107 255.05625 284.574268 422.45625 284.574268 
L 422.45625 281.261254 
C 255.05625 281.261254 255.05625 270.827093 87.65625 270.827093 
z
" clip-path="url(#p039ea25fcc)" style="fill: #008000; opacity: 0.3"/>
   </g>
   <g id="patch_81">
    <path d="M 87.65625 172.499129 
C 255.05625 172.499129 255.05625 368.175023 422.45625 368.175023 
L 422.45625 364.862008 
C 255.05625 364.862008 255.05625 169.186114 87.65625 169.186114 
z
" clip-path="url(#p039ea25fcc)" style="fill: #ff0000; opacity: 0.3"/>
   </g>
   <g id="patch_82">
    <path d="M 87.65625 175.812144 
C 255.05625 175.812144 255.05625 390.597612 422.45625 390.597612 
L 422.45625 387.284597 
C 255.05625 387.284597 255.05625 172.499129 87.65625 172.499129 
z
" clip-path="url(#p039ea25fcc)" style="fill: #ff0000; opacity: 0.3"/>
   </g>
   <g id="patch_83">
    <path d="M 87.65625 336.083384 
C 255.05625 336.083384 255.05625 343.662154 422.45625 343.662154 
L 422.45625 340.349139 
C 255.05625 340.349139 255.05625 332.77037 87.65625 332.77037 
z
" clip-path="url(#p039ea25fcc)" style="fill: #cc660b; opacity: 0.3"/>
   </g>
   <g id="patch_84">
    <path d="M 87.65625 339.396399 
C 255.05625 339.396399 255.05625 122.46594 422.45625 122.46594 
L 422.45625 119.152925 
C 255.05625 119.152925 255.05625 336.083384 87.65625 336.083384 
z
" clip-path="url(#p039ea25fcc)" style="fill: #cc660b; opacity: 0.3"/>
   </g>
   <g id="patch_85">
    <path d="M 87.65625 312.330412 
C 255.05625 312.330412 255.05625 201.909172 422.45625 201.909172 
L 422.45625 198.596157 
C 255.05625 198.596157 255.05625 309.017397 87.65625 309.017397 
z
" clip-path="url(#p039ea25fcc)" style="fill: #70453c; opacity: 0.3"/>
   </g>
   <g id="patch_86">
    <path d="M 87.65625 314.420692 
C 255.05625 314.420692 255.05625 334.541139 422.45625 334.541139 
L 422.45625 332.45086 
C 255.05625 332.45086 255.05625 312.330412 87.65625 312.330412 
z
" clip-path="url(#p039ea25fcc)" style="fill: #70453c; opacity: 0.3"/>
   </g>
   <g id="patch_87">
    <path d="M 87.65625 316.510971 
C 255.05625 316.510971 255.05625 177.094767 422.45625 177.094767 
L 422.45625 175.004487 
C 255.05625 175.004487 255.05625 314.420692 87.65625 314.420692 
z
" clip-path="url(#p039ea25fcc)" style="fill: #70453c; opacity: 0.3"/>
   </g>
   <g id="patch_88">
    <path d="M 87.65625 318.601251 
C 255.05625 318.601251 255.05625 302.411592 422.45625 302.411592 
L 422.45625 300.321313 
C 255.05625 300.321313 255.05625 316.510971 87.65625 316.510971 
z
" clip-path="url(#p039ea25fcc)" style="fill: #70453c; opacity: 0.3"/>
   </g>
   <g id="patch_89">
    <path d="M 87.65625 320.691531 
C 255.05625 320.691531 255.05625 124.55622 422.45625 124.55622 
L 422.45625 122.46594 
C 255.05625 122.46594 255.05625 318.601251 87.65625 318.601251 
z
" clip-path="url(#p039ea25fcc)" style="fill: #70453c; opacity: 0.3"/>
   </g>
   <g id="patch_90">
    <path d="M 87.65625 322.78181 
C 255.05625 322.78181 255.05625 318.476366 422.45625 318.476366 
L 422.45625 316.386086 
C 255.05625 316.386086 255.05625 320.691531 87.65625 320.691531 
z
" clip-path="url(#p039ea25fcc)" style="fill: #70453c; opacity: 0.3"/>
   </g>
   <g id="patch_91">
    <path d="M 87.65625 352.148158 
C 255.05625 352.148158 255.05625 266.419215 422.45625 266.419215 
L 422.45625 264.328936 
C 255.05625 264.328936 255.05625 350.057878 87.65625 350.057878 
z
" clip-path="url(#p039ea25fcc)" style="fill: #765297; opacity: 0.3"/>
   </g>
   <g id="patch_92">
    <path d="M 87.65625 233.822061 
C 255.05625 233.822061 255.05625 392.687891 422.45625 392.687891 
L 422.45625 390.597612 
C 255.05625 390.597612 255.05625 231.731781 87.65625 231.731781 
z
" clip-path="url(#p039ea25fcc)" style="fill: #ab1f20; opacity: 0.3"/>
   </g>
   <g id="patch_93">
    <path d="M 87.65625 235.912341 
C 255.05625 235.912341 255.05625 179.185047 422.45625 179.185047 
L 422.45625 177.094767 
C 255.05625 177.094767 255.05625 233.822061 87.65625 233.822061 
z
" clip-path="url(#p039ea25fcc)" style="fill: #ab1f20; opacity: 0.3"/>
   </g>
   <g id="patch_94">
    <path d="M 87.65625 238.00262 
C 255.05625 238.00262 255.05625 345.752434 422.45625 345.752434 
L 422.45625 343.662154 
C 255.05625 343.662154 255.05625 235.912341 87.65625 235.912341 
z
" clip-path="url(#p039ea25fcc)" style="fill: #ab1f20; opacity: 0.3"/>
   </g>
   <g id="patch_95">
    <path d="M 87.65625 240.0929 
C 255.05625 240.0929 255.05625 381.476597 422.45625 381.476597 
L 422.45625 379.386317 
C 255.05625 379.386317 255.05625 238.00262 87.65625 238.00262 
z
" clip-path="url(#p039ea25fcc)" style="fill: #ab1f20; opacity: 0.3"/>
   </g>
   <g id="patch_96">
    <path d="M 87.65625 242.18318 
C 255.05625 242.18318 255.05625 400.586171 422.45625 400.586171 
L 422.45625 398.495891 
C 255.05625 398.495891 255.05625 240.0929 87.65625 240.0929 
z
" clip-path="url(#p039ea25fcc)" style="fill: #ab1f20; opacity: 0.3"/>
   </g>
   <g id="patch_97">
    <path d="M 87.65625 354.238438 
C 255.05625 354.238438 255.05625 153.835591 422.45625 153.835591 
L 422.45625 151.745311 
C 255.05625 151.745311 255.05625 352.148158 87.65625 352.148158 
z
" clip-path="url(#p039ea25fcc)" style="fill: #765297; opacity: 0.3"/>
   </g>
   <g id="patch_98">
    <path d="M 87.65625 177.902424 
C 255.05625 177.902424 255.05625 448.793878 422.45625 448.793878 
L 422.45625 446.703599 
C 255.05625 446.703599 255.05625 175.812144 87.65625 175.812144 
z
" clip-path="url(#p039ea25fcc)" style="fill: #ff0000; opacity: 0.3"/>
   </g>
   <g id="patch_99">
    <path d="M 87.65625 179.992703 
C 255.05625 179.992703 255.05625 347.842713 422.45625 347.842713 
L 422.45625 345.752434 
C 255.05625 345.752434 255.05625 177.902424 87.65625 177.902424 
z
" clip-path="url(#p039ea25fcc)" style="fill: #ff0000; opacity: 0.3"/>
   </g>
   <g id="patch_100">
    <path d="M 87.65625 182.082983 
C 255.05625 182.082983 255.05625 464.590438 422.45625 464.590438 
L 422.45625 462.500158 
C 255.05625 462.500158 255.05625 179.992703 87.65625 179.992703 
z
" clip-path="url(#p039ea25fcc)" style="fill: #ff0000; opacity: 0.3"/>
   </g>
   <g id="patch_101">
    <path d="M 87.65625 276.230387 
C 255.05625 276.230387 255.05625 456.692158 422.45625 456.692158 
L 422.45625 454.601878 
C 255.05625 454.601878 255.05625 274.140107 87.65625 274.140107 
z
" clip-path="url(#p039ea25fcc)" style="fill: #008000; opacity: 0.3"/>
   </g>
   <g id="patch_102">
    <path d="M 87.65625 278.320667 
C 255.05625 278.320667 255.05625 247.976741 422.45625 247.976741 
L 422.45625 245.886462 
C 255.05625 245.886462 255.05625 276.230387 87.65625 276.230387 
z
" clip-path="url(#p039ea25fcc)" style="fill: #008000; opacity: 0.3"/>
   </g>
   <g id="patch_103">
    <path d="M 87.65625 280.410946 
C 255.05625 280.410946 255.05625 402.67645 422.45625 402.67645 
L 422.45625 400.586171 
C 255.05625 400.586171 255.05625 278.320667 87.65625 278.320667 
z
" clip-path="url(#p039ea25fcc)" style="fill: #008000; opacity: 0.3"/>
   </g>
   <g id="patch_104">
    <path d="M 87.65625 282.501226 
C 255.05625 282.501226 255.05625 370.265302 422.45625 370.265302 
L 422.45625 368.175023 
C 255.05625 368.175023 255.05625 280.410946 87.65625 280.410946 
z
" clip-path="url(#p039ea25fcc)" style="fill: #008000; opacity: 0.3"/>
   </g>
   <g id="patch_105">
    <path d="M 87.65625 284.591505 
C 255.05625 284.591505 255.05625 203.999452 422.45625 203.999452 
L 422.45625 201.909172 
C 255.05625 201.909172 255.05625 282.501226 87.65625 282.501226 
z
" clip-path="url(#p039ea25fcc)" style="fill: #008000; opacity: 0.3"/>
   </g>
   <g id="patch_106">
    <path d="M 87.65625 286.681785 
C 255.05625 286.681785 255.05625 126.646499 422.45625 126.646499 
L 422.45625 124.55622 
C 255.05625 124.55622 255.05625 284.591505 87.65625 284.591505 
z
" clip-path="url(#p039ea25fcc)" style="fill: #008000; opacity: 0.3"/>
   </g>
   <g id="patch_107">
    <path d="M 436.40625 69.387545 
C 603.80625 69.387545 603.80625 71.303373 771.20625 71.303373 
L 771.20625 63.838438 
C 603.80625 63.838438 603.80625 63.838438 436.40625 63.838438 
z
" clip-path="url(#p039ea25fcc)" style="fill: #ab1f20; opacity: 0.3"/>
   </g>
   <g id="patch_108">
    <path d="M 436.40625 263.663582 
C 603.80625 263.663582 603.80625 78.768309 771.20625 78.768309 
L 771.20625 71.303373 
C 603.80625 71.303373 603.80625 253.784741 436.40625 253.784741 
z
" clip-path="url(#p039ea25fcc)" style="fill: #ab1f20; opacity: 0.3"/>
   </g>
   <g id="patch_109">
    <path d="M 436.40625 74.294223 
C 603.80625 74.294223 603.80625 289.173627 771.20625 289.173627 
L 771.20625 282.57292 
C 603.80625 282.57292 603.80625 69.387545 436.40625 69.387545 
z
" clip-path="url(#p039ea25fcc)" style="fill: #70453c; opacity: 0.3"/>
   </g>
   <g id="patch_110">
    <path d="M 436.40625 78.639684 
C 603.80625 78.639684 603.80625 259.752758 771.20625 259.752758 
L 771.20625 253.907027 
C 603.80625 253.907027 603.80625 74.294223 436.40625 74.294223 
z
" clip-path="url(#p039ea25fcc)" style="fill: #70453c; opacity: 0.3"/>
   </g>
   <g id="patch_111">
    <path d="M 436.40625 381.476597 
C 603.80625 381.476597 603.80625 84.614039 771.20625 84.614039 
L 771.20625 78.768309 
C 603.80625 78.768309 603.80625 376.073302 436.40625 376.073302 
z
" clip-path="url(#p039ea25fcc)" style="fill: #ab1f20; opacity: 0.3"/>
   </g>
   <g id="patch_112">
    <path d="M 436.40625 244.121384 
C 603.80625 244.121384 603.80625 90.459769 771.20625 90.459769 
L 771.20625 84.614039 
C 603.80625 84.614039 603.80625 233.298029 436.40625 233.298029 
z
" clip-path="url(#p039ea25fcc)" style="fill: #ab1f20; opacity: 0.3"/>
   </g>
   <g id="patch_113">
    <path d="M 436.40625 191.350972 
C 603.80625 191.350972 603.80625 129.890951 771.20625 129.890951 
L 771.20625 124.045221 
C 603.80625 124.045221 603.80625 184.993047 436.40625 184.993047 
z
" clip-path="url(#p039ea25fcc)" style="fill: #ab1f20; opacity: 0.3"/>
   </g>
   <g id="patch_114">
    <path d="M 436.40625 82.985145 
C 603.80625 82.985145 603.80625 135.736681 771.20625 135.736681 
L 771.20625 129.890951 
C 603.80625 129.890951 603.80625 78.639684 436.40625 78.639684 
z
" clip-path="url(#p039ea25fcc)" style="fill: #ab1f20; opacity: 0.3"/>
   </g>
   <g id="patch_115">
    <path d="M 436.40625 216.182525 
C 603.80625 216.182525 603.80625 220.005061 771.20625 220.005061 
L 771.20625 214.622417 
C 603.80625 214.622417 603.80625 209.807452 436.40625 209.807452 
z
" clip-path="url(#p039ea25fcc)" style="fill: #cc660b; opacity: 0.3"/>
   </g>
   <g id="patch_116">
    <path d="M 436.40625 284.574268 
C 603.80625 284.574268 603.80625 95.842414 771.20625 95.842414 
L 771.20625 90.459769 
C 603.80625 90.459769 603.80625 272.227215 436.40625 272.227215 
z
" clip-path="url(#p039ea25fcc)" style="fill: #ab1f20; opacity: 0.3"/>
   </g>
   <g id="patch_117">
    <path d="M 436.40625 137.263934 
C 603.80625 137.263934 603.80625 178.63816 771.20625 178.63816 
L 771.20625 173.255515 
C 603.80625 173.255515 603.80625 132.454499 436.40625 132.454499 
z
" clip-path="url(#p039ea25fcc)" style="fill: #70453c; opacity: 0.3"/>
   </g>
   <g id="patch_118">
    <path d="M 436.40625 141.583982 
C 603.80625 141.583982 603.80625 224.839992 771.20625 224.839992 
L 771.20625 220.005061 
C 603.80625 220.005061 603.80625 137.263934 436.40625 137.263934 
z
" clip-path="url(#p039ea25fcc)" style="fill: #cc660b; opacity: 0.3"/>
   </g>
   <g id="patch_119">
    <path d="M 436.40625 311.667669 
C 603.80625 311.667669 603.80625 140.571611 771.20625 140.571611 
L 771.20625 135.736681 
C 603.80625 135.736681 603.80625 308.219592 436.40625 308.219592 
z
" clip-path="url(#p039ea25fcc)" style="fill: #ab1f20; opacity: 0.3"/>
   </g>
   <g id="patch_120">
    <path d="M 436.40625 342.503397 
C 603.80625 342.503397 603.80625 183.47309 771.20625 183.47309 
L 771.20625 178.63816 
C 603.80625 178.63816 603.80625 340.349139 436.40625 340.349139 
z
" clip-path="url(#p039ea25fcc)" style="fill: #70453c; opacity: 0.3"/>
   </g>
   <g id="patch_121">
    <path d="M 436.40625 410.46268 
C 603.80625 410.46268 603.80625 145.406542 771.20625 145.406542 
L 771.20625 140.571611 
C 603.80625 140.571611 603.80625 408.48445 436.40625 408.48445 
z
" clip-path="url(#p039ea25fcc)" style="fill: #ab1f20; opacity: 0.3"/>
   </g>
   <g id="patch_122">
    <path d="M 436.40625 86.579221 
C 603.80625 86.579221 603.80625 361.676337 771.20625 361.676337 
L 771.20625 356.841407 
C 603.80625 356.841407 603.80625 82.985145 436.40625 82.985145 
z
" clip-path="url(#p039ea25fcc)" style="fill: #765297; opacity: 0.3"/>
   </g>
   <g id="patch_123">
    <path d="M 436.40625 463.893678 
C 603.80625 463.893678 603.80625 149.571124 771.20625 149.571124 
L 771.20625 145.406542 
C 603.80625 145.406542 603.80625 462.500158 436.40625 462.500158 
z
" clip-path="url(#p039ea25fcc)" style="fill: #ab1f20; opacity: 0.3"/>
   </g>
   <g id="patch_124">
    <path d="M 436.40625 400.828166 
C 603.80625 400.828166 603.80625 153.735706 771.20625 153.735706 
L 771.20625 149.571124 
C 603.80625 149.571124 603.80625 398.495891 436.40625 398.495891 
z
" clip-path="url(#p039ea25fcc)" style="fill: #ab1f20; opacity: 0.3"/>
   </g>
   <g id="patch_125">
    <path d="M 436.40625 110.732276 
C 603.80625 110.732276 603.80625 100.006996 771.20625 100.006996 
L 771.20625 95.842414 
C 603.80625 95.842414 603.80625 105.033321 436.40625 105.033321 
z
" clip-path="url(#p039ea25fcc)" style="fill: #ab1f20; opacity: 0.3"/>
   </g>
   <g id="patch_126">
    <path d="M 436.40625 145.305069 
C 603.80625 145.305069 603.80625 263.91734 771.20625 263.91734 
L 771.20625 259.752758 
C 603.80625 259.752758 603.80625 141.583982 436.40625 141.583982 
z
" clip-path="url(#p039ea25fcc)" style="fill: #70453c; opacity: 0.3"/>
   </g>
   <g id="patch_127">
    <path d="M 436.40625 89.67499 
C 603.80625 89.67499 603.80625 330.295536 771.20625 330.295536 
L 771.20625 326.130954 
C 603.80625 326.130954 603.80625 86.579221 436.40625 86.579221 
z
" clip-path="url(#p039ea25fcc)" style="fill: #70453c; opacity: 0.3"/>
   </g>
   <g id="patch_128">
    <path d="M 436.40625 149.026156 
C 603.80625 149.026156 603.80625 104.171578 771.20625 104.171578 
L 771.20625 100.006996 
C 603.80625 100.006996 603.80625 145.305069 436.40625 145.305069 
z
" clip-path="url(#p039ea25fcc)" style="fill: #ab1f20; opacity: 0.3"/>
   </g>
   <g id="patch_129">
    <path d="M 436.40625 92.770759 
C 603.80625 92.770759 603.80625 187.637672 771.20625 187.637672 
L 771.20625 183.47309 
C 603.80625 183.47309 603.80625 89.67499 436.40625 89.67499 
z
" clip-path="url(#p039ea25fcc)" style="fill: #70453c; opacity: 0.3"/>
   </g>
   <g id="patch_130">
    <path d="M 436.40625 195.880449 
C 603.80625 195.880449 603.80625 309.557665 771.20625 309.557665 
L 771.20625 305.393082 
C 603.80625 305.393082 603.80625 191.350972 436.40625 191.350972 
z
" clip-path="url(#p039ea25fcc)" style="fill: #cc660b; opacity: 0.3"/>
   </g>
   <g id="patch_131">
    <path d="M 436.40625 116.43123 
C 603.80625 116.43123 603.80625 229.004574 771.20625 229.004574 
L 771.20625 224.839992 
C 603.80625 224.839992 603.80625 110.732276 436.40625 110.732276 
z
" clip-path="url(#p039ea25fcc)" style="fill: #cc660b; opacity: 0.3"/>
   </g>
   <g id="patch_132">
    <path d="M 436.40625 221.114955 
C 603.80625 221.114955 603.80625 345.650763 771.20625 345.650763 
L 771.20625 341.48618 
C 603.80625 341.48618 603.80625 216.182525 436.40625 216.182525 
z
" clip-path="url(#p039ea25fcc)" style="fill: #195f90; opacity: 0.3"/>
   </g>
   <g id="patch_133">
    <path d="M 436.40625 95.224098 
C 603.80625 95.224098 603.80625 312.858018 771.20625 312.858018 
L 771.20625 309.557665 
C 603.80625 309.557665 603.80625 92.770759 436.40625 92.770759 
z
" clip-path="url(#p039ea25fcc)" style="fill: #cc660b; opacity: 0.3"/>
   </g>
   <g id="patch_134">
    <path d="M 436.40625 120.947545 
C 603.80625 120.947545 603.80625 316.158371 771.20625 316.158371 
L 771.20625 312.858018 
C 603.80625 312.858018 603.80625 116.43123 436.40625 116.43123 
z
" clip-path="url(#p039ea25fcc)" style="fill: #cc660b; opacity: 0.3"/>
   </g>
   <g id="patch_135">
    <path d="M 436.40625 314.021348 
C 603.80625 314.021348 603.80625 348.951116 771.20625 348.951116 
L 771.20625 345.650763 
C 603.80625 345.650763 603.80625 311.667669 436.40625 311.667669 
z
" clip-path="url(#p039ea25fcc)" style="fill: #195f90; opacity: 0.3"/>
   </g>
   <g id="patch_136">
    <path d="M 436.40625 151.975047 
C 603.80625 151.975047 603.80625 333.595889 771.20625 333.595889 
L 771.20625 330.295536 
C 603.80625 330.295536 603.80625 149.026156 436.40625 149.026156 
z
" clip-path="url(#p039ea25fcc)" style="fill: #70453c; opacity: 0.3"/>
   </g>
   <g id="patch_137">
    <path d="M 436.40625 166.39882 
C 603.80625 166.39882 603.80625 107.471932 771.20625 107.471932 
L 771.20625 104.171578 
C 603.80625 104.171578 603.80625 159.643591 436.40625 159.643591 
z
" clip-path="url(#p039ea25fcc)" style="fill: #ab1f20; opacity: 0.3"/>
   </g>
   <g id="patch_138">
    <path d="M 436.40625 343.973906 
C 603.80625 343.973906 603.80625 157.03606 771.20625 157.03606 
L 771.20625 153.735706 
C 603.80625 153.735706 603.80625 342.503397 436.40625 342.503397 
z
" clip-path="url(#p039ea25fcc)" style="fill: #ab1f20; opacity: 0.3"/>
   </g>
   <g id="patch_139">
    <path d="M 436.40625 294.540651 
C 603.80625 294.540651 603.80625 110.772285 771.20625 110.772285 
L 771.20625 107.471932 
C 603.80625 107.471932 603.80625 290.382268 436.40625 290.382268 
z
" clip-path="url(#p039ea25fcc)" style="fill: #ab1f20; opacity: 0.3"/>
   </g>
   <g id="patch_140">
    <path d="M 436.40625 345.444416 
C 603.80625 345.444416 603.80625 114.072638 771.20625 114.072638 
L 771.20625 110.772285 
C 603.80625 110.772285 603.80625 343.973906 436.40625 343.973906 
z
" clip-path="url(#p039ea25fcc)" style="fill: #ab1f20; opacity: 0.3"/>
   </g>
   <g id="patch_141">
    <path d="M 436.40625 411.813032 
C 603.80625 411.813032 603.80625 190.938026 771.20625 190.938026 
L 771.20625 187.637672 
C 603.80625 187.637672 603.80625 410.46268 436.40625 410.46268 
z
" clip-path="url(#p039ea25fcc)" style="fill: #70453c; opacity: 0.3"/>
   </g>
   <g id="patch_142">
    <path d="M 436.40625 97.677437 
C 603.80625 97.677437 603.80625 232.304927 771.20625 232.304927 
L 771.20625 229.004574 
C 603.80625 229.004574 603.80625 95.224098 436.40625 95.224098 
z
" clip-path="url(#p039ea25fcc)" style="fill: #cc660b; opacity: 0.3"/>
   </g>
   <g id="patch_143">
    <path d="M 436.40625 199.469974 
C 603.80625 199.469974 603.80625 235.605281 771.20625 235.605281 
L 771.20625 232.304927 
C 603.80625 232.304927 603.80625 195.880449 436.40625 195.880449 
z
" clip-path="url(#p039ea25fcc)" style="fill: #cc660b; opacity: 0.3"/>
   </g>
   <g id="patch_144">
    <path d="M 436.40625 327.195147 
C 603.80625 327.195147 603.80625 194.238379 771.20625 194.238379 
L 771.20625 190.938026 
C 603.80625 190.938026 603.80625 324.284366 436.40625 324.284366 
z
" clip-path="url(#p039ea25fcc)" style="fill: #70453c; opacity: 0.3"/>
   </g>
   <g id="patch_145">
    <path d="M 436.40625 346.914925 
C 603.80625 346.914925 603.80625 374.949273 771.20625 374.949273 
L 771.20625 371.64892 
C 603.80625 371.64892 603.80625 345.444416 436.40625 345.444416 
z
" clip-path="url(#p039ea25fcc)" style="fill: #70453c; opacity: 0.3"/>
   </g>
   <g id="patch_146">
    <path d="M 436.40625 225.023814 
C 603.80625 225.023814 603.80625 267.217693 771.20625 267.217693 
L 771.20625 263.91734 
C 603.80625 263.91734 603.80625 221.114955 436.40625 221.114955 
z
" clip-path="url(#p039ea25fcc)" style="fill: #70453c; opacity: 0.3"/>
   </g>
   <g id="patch_147">
    <path d="M 436.40625 402.67645 
C 603.80625 402.67645 603.80625 270.518047 771.20625 270.518047 
L 771.20625 267.217693 
C 603.80625 267.217693 603.80625 400.828166 436.40625 400.828166 
z
" clip-path="url(#p039ea25fcc)" style="fill: #70453c; opacity: 0.3"/>
   </g>
   <g id="patch_148">
    <path d="M 436.40625 389.085695 
C 603.80625 389.085695 603.80625 351.033407 771.20625 351.033407 
L 771.20625 348.951116 
C 603.80625 348.951116 603.80625 387.284597 436.40625 387.284597 
z
" clip-path="url(#p039ea25fcc)" style="fill: #195f90; opacity: 0.3"/>
   </g>
   <g id="patch_149">
    <path d="M 436.40625 355.001537 
C 603.80625 355.001537 603.80625 318.240662 771.20625 318.240662 
L 771.20625 316.158371 
C 603.80625 316.158371 603.80625 353.650713 436.40625 353.650713 
z
" clip-path="url(#p039ea25fcc)" style="fill: #cc660b; opacity: 0.3"/>
   </g>
   <g id="patch_150">
    <path d="M 436.40625 356.352361 
C 603.80625 356.352361 603.80625 400.702437 771.20625 400.702437 
L 771.20625 398.620146 
C 603.80625 398.620146 603.80625 355.001537 436.40625 355.001537 
z
" clip-path="url(#p039ea25fcc)" style="fill: #195f90; opacity: 0.3"/>
   </g>
   <g id="patch_151">
    <path d="M 436.40625 170.660896 
C 603.80625 170.660896 603.80625 320.322954 771.20625 320.322954 
L 771.20625 318.240662 
C 603.80625 318.240662 603.80625 166.39882 436.40625 166.39882 
z
" clip-path="url(#p039ea25fcc)" style="fill: #cc660b; opacity: 0.3"/>
   </g>
   <g id="patch_152">
    <path d="M 436.40625 412.66501 
C 603.80625 412.66501 603.80625 237.687572 771.20625 237.687572 
L 771.20625 235.605281 
C 603.80625 235.605281 603.80625 411.813032 436.40625 411.813032 
z
" clip-path="url(#p039ea25fcc)" style="fill: #cc660b; opacity: 0.3"/>
   </g>
   <g id="patch_153">
    <path d="M 436.40625 347.842713 
C 603.80625 347.842713 603.80625 239.769863 771.20625 239.769863 
L 771.20625 237.687572 
C 603.80625 237.687572 603.80625 346.914925 436.40625 346.914925 
z
" clip-path="url(#p039ea25fcc)" style="fill: #cc660b; opacity: 0.3"/>
   </g>
   <g id="patch_154">
    <path d="M 436.40625 329.031645 
C 603.80625 329.031645 603.80625 241.852154 771.20625 241.852154 
L 771.20625 239.769863 
C 603.80625 239.769863 603.80625 327.195147 436.40625 327.195147 
z
" clip-path="url(#p039ea25fcc)" style="fill: #cc660b; opacity: 0.3"/>
   </g>
   <g id="patch_155">
    <path d="M 436.40625 370.265302 
C 603.80625 370.265302 603.80625 243.934445 771.20625 243.934445 
L 771.20625 241.852154 
C 603.80625 241.852154 603.80625 364.862008 436.40625 364.862008 
z
" clip-path="url(#p039ea25fcc)" style="fill: #cc660b; opacity: 0.3"/>
   </g>
   <g id="patch_156">
    <path d="M 436.40625 201.734713 
C 603.80625 201.734713 603.80625 384.921855 771.20625 384.921855 
L 771.20625 382.839564 
C 603.80625 382.839564 603.80625 199.469974 436.40625 199.469974 
z
" clip-path="url(#p039ea25fcc)" style="fill: #cc660b; opacity: 0.3"/>
   </g>
   <g id="patch_157">
    <path d="M 436.40625 123.797022 
C 603.80625 123.797022 603.80625 196.32067 771.20625 196.32067 
L 771.20625 194.238379 
C 603.80625 194.238379 603.80625 120.947545 436.40625 120.947545 
z
" clip-path="url(#p039ea25fcc)" style="fill: #70453c; opacity: 0.3"/>
   </g>
   <g id="patch_158">
    <path d="M 436.40625 330.868143 
C 603.80625 330.868143 603.80625 272.600338 771.20625 272.600338 
L 771.20625 270.518047 
C 603.80625 270.518047 603.80625 329.031645 436.40625 329.031645 
z
" clip-path="url(#p039ea25fcc)" style="fill: #70453c; opacity: 0.3"/>
   </g>
   <g id="patch_159">
    <path d="M 436.40625 174.922971 
C 603.80625 174.922971 603.80625 274.682629 771.20625 274.682629 
L 771.20625 272.600338 
C 603.80625 272.600338 603.80625 170.660896 436.40625 170.660896 
z
" clip-path="url(#p039ea25fcc)" style="fill: #70453c; opacity: 0.3"/>
   </g>
   <g id="patch_160">
    <path d="M 436.40625 332.704641 
C 603.80625 332.704641 603.80625 377.031564 771.20625 377.031564 
L 771.20625 374.949273 
C 603.80625 374.949273 603.80625 330.868143 436.40625 330.868143 
z
" clip-path="url(#p039ea25fcc)" style="fill: #70453c; opacity: 0.3"/>
   </g>
   <g id="patch_161">
    <path d="M 436.40625 99.225321 
C 603.80625 99.225321 603.80625 392.812146 771.20625 392.812146 
L 771.20625 390.729855 
C 603.80625 390.729855 603.80625 97.677437 436.40625 97.677437 
z
" clip-path="url(#p039ea25fcc)" style="fill: #cc660b; opacity: 0.3"/>
   </g>
   <g id="patch_162">
    <path d="M 436.40625 315.506354 
C 603.80625 315.506354 603.80625 246.016736 771.20625 246.016736 
L 771.20625 243.934445 
C 603.80625 243.934445 603.80625 314.021348 436.40625 314.021348 
z
" clip-path="url(#p039ea25fcc)" style="fill: #cc660b; opacity: 0.3"/>
   </g>
   <g id="patch_163">
    <path d="M 436.40625 297.164298 
C 603.80625 297.164298 603.80625 198.402961 771.20625 198.402961 
L 771.20625 196.32067 
C 603.80625 196.32067 603.80625 294.540651 436.40625 294.540651 
z
" clip-path="url(#p039ea25fcc)" style="fill: #70453c; opacity: 0.3"/>
   </g>
   <g id="patch_164">
    <path d="M 436.40625 203.999452 
C 603.80625 203.999452 603.80625 200.485252 771.20625 200.485252 
L 771.20625 198.402961 
C 603.80625 198.402961 603.80625 201.734713 436.40625 201.734713 
z
" clip-path="url(#p039ea25fcc)" style="fill: #70453c; opacity: 0.3"/>
   </g>
   <g id="patch_165">
    <path d="M 436.40625 316.99136 
C 603.80625 316.99136 603.80625 202.567543 771.20625 202.567543 
L 771.20625 200.485252 
C 603.80625 200.485252 603.80625 315.506354 436.40625 315.506354 
z
" clip-path="url(#p039ea25fcc)" style="fill: #70453c; opacity: 0.3"/>
   </g>
   <g id="patch_166">
    <path d="M 436.40625 357.703184 
C 603.80625 357.703184 603.80625 204.649835 771.20625 204.649835 
L 771.20625 202.567543 
C 603.80625 202.567543 603.80625 356.352361 436.40625 356.352361 
z
" clip-path="url(#p039ea25fcc)" style="fill: #70453c; opacity: 0.3"/>
   </g>
   <g id="patch_167">
    <path d="M 436.40625 299.787945 
C 603.80625 299.787945 603.80625 291.255918 771.20625 291.255918 
L 771.20625 289.173627 
C 603.80625 289.173627 603.80625 297.164298 436.40625 297.164298 
z
" clip-path="url(#p039ea25fcc)" style="fill: #70453c; opacity: 0.3"/>
   </g>
   <g id="patch_168">
    <path d="M 436.40625 179.185047 
C 603.80625 179.185047 603.80625 293.338209 771.20625 293.338209 
L 771.20625 291.255918 
C 603.80625 291.255918 603.80625 174.922971 436.40625 174.922971 
z
" clip-path="url(#p039ea25fcc)" style="fill: #70453c; opacity: 0.3"/>
   </g>
   <g id="patch_169">
    <path d="M 436.40625 334.541139 
C 603.80625 334.541139 603.80625 295.4205 771.20625 295.4205 
L 771.20625 293.338209 
C 603.80625 293.338209 603.80625 332.704641 436.40625 332.704641 
z
" clip-path="url(#p039ea25fcc)" style="fill: #70453c; opacity: 0.3"/>
   </g>
   <g id="patch_170">
    <path d="M 436.40625 247.976741 
C 603.80625 247.976741 603.80625 297.502791 771.20625 297.502791 
L 771.20625 295.4205 
C 603.80625 295.4205 603.80625 244.121384 436.40625 244.121384 
z
" clip-path="url(#p039ea25fcc)" style="fill: #70453c; opacity: 0.3"/>
   </g>
   <g id="patch_171">
    <path d="M 436.40625 464.590438 
C 603.80625 464.590438 603.80625 276.76492 771.20625 276.76492 
L 771.20625 274.682629 
C 603.80625 274.682629 603.80625 463.893678 436.40625 463.893678 
z
" clip-path="url(#p039ea25fcc)" style="fill: #70453c; opacity: 0.3"/>
   </g>
   <g id="patch_172">
    <path d="M 436.40625 390.886793 
C 603.80625 390.886793 603.80625 299.585082 771.20625 299.585082 
L 771.20625 297.502791 
C 603.80625 297.502791 603.80625 389.085695 436.40625 389.085695 
z
" clip-path="url(#p039ea25fcc)" style="fill: #70453c; opacity: 0.3"/>
   </g>
   <g id="patch_173">
    <path d="M 436.40625 392.687891 
C 603.80625 392.687891 603.80625 335.67818 771.20625 335.67818 
L 771.20625 333.595889 
C 603.80625 333.595889 603.80625 390.886793 436.40625 390.886793 
z
" clip-path="url(#p039ea25fcc)" style="fill: #70453c; opacity: 0.3"/>
   </g>
   <g id="patch_174">
    <path d="M 436.40625 153.835591 
C 603.80625 153.835591 603.80625 363.758628 771.20625 363.758628 
L 771.20625 361.676337 
C 603.80625 361.676337 603.80625 151.975047 436.40625 151.975047 
z
" clip-path="url(#p039ea25fcc)" style="fill: #765297; opacity: 0.3"/>
   </g>
   <g id="patch_175">
    <path d="M 436.40625 359.054008 
C 603.80625 359.054008 603.80625 116.154929 771.20625 116.154929 
L 771.20625 114.072638 
C 603.80625 114.072638 603.80625 357.703184 436.40625 357.703184 
z
" clip-path="url(#p039ea25fcc)" style="fill: #ab1f20; opacity: 0.3"/>
   </g>
   <g id="patch_176">
    <path d="M 436.40625 318.476366 
C 603.80625 318.476366 603.80625 118.237221 771.20625 118.237221 
L 771.20625 116.154929 
C 603.80625 116.154929 603.80625 316.99136 436.40625 316.99136 
z
" clip-path="url(#p039ea25fcc)" style="fill: #ab1f20; opacity: 0.3"/>
   </g>
   <g id="patch_177">
    <path d="M 436.40625 266.419215 
C 603.80625 266.419215 603.80625 365.84092 771.20625 365.84092 
L 771.20625 363.758628 
C 603.80625 363.758628 603.80625 263.663582 436.40625 263.663582 
z
" clip-path="url(#p039ea25fcc)" style="fill: #765297; opacity: 0.3"/>
   </g>
   <g id="patch_178">
    <path d="M 436.40625 422.653569 
C 603.80625 422.653569 603.80625 159.118351 771.20625 159.118351 
L 771.20625 157.03606 
C 603.80625 157.03606 603.80625 418.47301 436.40625 418.47301 
z
" clip-path="url(#p039ea25fcc)" style="fill: #ab1f20; opacity: 0.3"/>
   </g>
   <g id="patch_179">
    <path d="M 436.40625 302.411592 
C 603.80625 302.411592 603.80625 161.200642 771.20625 161.200642 
L 771.20625 159.118351 
C 603.80625 159.118351 603.80625 299.787945 436.40625 299.787945 
z
" clip-path="url(#p039ea25fcc)" style="fill: #ab1f20; opacity: 0.3"/>
   </g>
   <g id="patch_180">
    <path d="M 436.40625 227.490029 
C 603.80625 227.490029 603.80625 163.282933 771.20625 163.282933 
L 771.20625 161.200642 
C 603.80625 161.200642 603.80625 225.023814 436.40625 225.023814 
z
" clip-path="url(#p039ea25fcc)" style="fill: #ab1f20; opacity: 0.3"/>
   </g>
   <g id="patch_181">
    <path d="M 436.40625 126.646499 
C 603.80625 126.646499 603.80625 165.365224 771.20625 165.365224 
L 771.20625 163.282933 
C 603.80625 163.282933 603.80625 123.797022 436.40625 123.797022 
z
" clip-path="url(#p039ea25fcc)" style="fill: #ab1f20; opacity: 0.3"/>
   </g>
   <g id="text_1">
    <text style="font-weight: 700; font-size: 10px; font-family: 'DejaVu Sans', 'Bitstream Vera Sans', 'Computer Modern Sans Serif', 'Lucida Grande', 'Verdana', 'Geneva', 'Lucid', 'Arial', 'Helvetica', 'Avant Garde', sans-serif; text-anchor: end" x="66.73125" y="125.581023" transform="rotate(-0 66.73125 125.581023)">TE_bottom</text>
   </g>
   <g id="text_2">
    <text style="font-weight: 700; font-size: 10px; font-family: 'DejaVu Sans', 'Bitstream Vera Sans', 'Computer Modern Sans Serif', 'Lucida Grande', 'Verdana', 'Geneva', 'Lucid', 'Arial', 'Helvetica', 'Avant Garde', sans-serif; text-anchor: end" x="66.73125" y="217.796456" transform="rotate(-0 66.73125 217.796456)">SINE</text>
   </g>
   <g id="text_3">
    <text style="font-weight: 700; font-size: 10px; font-family: 'DejaVu Sans', 'Bitstream Vera Sans', 'Computer Modern Sans Serif', 'Lucida Grande', 'Verdana', 'Geneva', 'Lucid', 'Arial', 'Helvetica', 'Avant Garde', sans-serif; text-anchor: end" x="66.73125" y="269.817732" transform="rotate(-0 66.73125 269.817732)">TE_top</text>
   </g>
   <g id="text_4">
    <text style="font-weight: 700; font-size: 10px; font-family: 'DejaVu Sans', 'Bitstream Vera Sans', 'Computer Modern Sans Serif', 'Lucida Grande', 'Verdana', 'Geneva', 'Lucid', 'Arial', 'Helvetica', 'Avant Garde', sans-serif; text-anchor: end" x="66.73125" y="310.395173" transform="rotate(-0 66.73125 310.395173)">LTR</text>
   </g>
   <g id="text_5">
    <text style="font-weight: 700; font-size: 10px; font-family: 'DejaVu Sans', 'Bitstream Vera Sans', 'Computer Modern Sans Serif', 'Lucida Grande', 'Verdana', 'Geneva', 'Lucid', 'Arial', 'Helvetica', 'Avant Garde', sans-serif; text-anchor: end" x="66.73125" y="336.75248" transform="rotate(-0 66.73125 336.75248)">LINE</text>
   </g>
   <g id="text_6">
    <text style="font-weight: 700; font-size: 10px; font-family: 'DejaVu Sans', 'Bitstream Vera Sans', 'Computer Modern Sans Serif', 'Lucida Grande', 'Verdana', 'Geneva', 'Lucid', 'Arial', 'Helvetica', 'Avant Garde', sans-serif; text-anchor: end" x="66.73125" y="352.480793" transform="rotate(-0 66.73125 352.480793)">SVA</text>
   </g>
   <g id="text_7">
    <text style="font-weight: 700; font-size: 10px; font-family: 'DejaVu Sans', 'Bitstream Vera Sans', 'Computer Modern Sans Serif', 'Lucida Grande', 'Verdana', 'Geneva', 'Lucid', 'Arial', 'Helvetica', 'Avant Garde', sans-serif; text-anchor: start" x="450.35625" y="84.252192" transform="rotate(-0 450.35625 84.252192)">Too general</text>
   </g>
   <g id="text_8">
    <text style="font-weight: 700; font-size: 10px; font-family: 'DejaVu Sans', 'Bitstream Vera Sans', 'Computer Modern Sans Serif', 'Lucida Grande', 'Verdana', 'Geneva', 'Lucid', 'Arial', 'Helvetica', 'Avant Garde', sans-serif; text-anchor: start" x="450.35625" y="118.560223" transform="rotate(-0 450.35625 118.560223)">Signaling pathways</text>
   </g>
   <g id="text_9">
    <text style="font-weight: 700; font-size: 10px; font-family: 'DejaVu Sans', 'Bitstream Vera Sans', 'Computer Modern Sans Serif', 'Lucida Grande', 'Verdana', 'Geneva', 'Lucid', 'Arial', 'Helvetica', 'Avant Garde', sans-serif; text-anchor: start" x="450.35625" y="145.865357" transform="rotate(-0 450.35625 145.865357)">Transcription and its regulation</text>
   </g>
   <g id="text_10">
    <text style="font-weight: 700; font-size: 10px; font-family: 'DejaVu Sans', 'Bitstream Vera Sans', 'Computer Modern Sans Serif', 'Lucida Grande', 'Verdana', 'Geneva', 'Lucid', 'Arial', 'Helvetica', 'Avant Garde', sans-serif; text-anchor: start" x="450.35625" y="172.134631" transform="rotate(-0 450.35625 172.134631)">Embryogenesis</text>
   </g>
   <g id="text_11">
    <text style="font-weight: 700; font-size: 10px; font-family: 'DejaVu Sans', 'Bitstream Vera Sans', 'Computer Modern Sans Serif', 'Lucida Grande', 'Verdana', 'Geneva', 'Lucid', 'Arial', 'Helvetica', 'Avant Garde', sans-serif; text-anchor: start" x="450.35625" y="197.177499" transform="rotate(-0 450.35625 197.177499)">Nervous system</text>
   </g>
   <g id="text_12">
    <text style="font-weight: 700; font-size: 10px; font-family: 'DejaVu Sans', 'Bitstream Vera Sans', 'Computer Modern Sans Serif', 'Lucida Grande', 'Verdana', 'Geneva', 'Lucid', 'Arial', 'Helvetica', 'Avant Garde', sans-serif; text-anchor: start" x="450.35625" y="221.32999" transform="rotate(-0 450.35625 221.32999)">Sensory system</text>
   </g>
   <g id="text_13">
    <text style="font-weight: 700; font-size: 10px; font-family: 'DejaVu Sans', 'Bitstream Vera Sans', 'Computer Modern Sans Serif', 'Lucida Grande', 'Verdana', 'Geneva', 'Lucid', 'Arial', 'Helvetica', 'Avant Garde', sans-serif; text-anchor: start" x="450.35625" y="243.357698" transform="rotate(-0 450.35625 243.357698)">Cell cycle/cell division</text>
   </g>
   <g id="text_14">
    <text style="font-weight: 700; font-size: 10px; font-family: 'DejaVu Sans', 'Bitstream Vera Sans', 'Computer Modern Sans Serif', 'Lucida Grande', 'Verdana', 'Geneva', 'Lucid', 'Arial', 'Helvetica', 'Avant Garde', sans-serif; text-anchor: start" x="450.35625" y="262.822291" transform="rotate(-0 450.35625 262.822291)">RNA splicing and processing</text>
   </g>
   <g id="text_15">
    <text style="font-weight: 700; font-size: 10px; font-family: 'DejaVu Sans', 'Bitstream Vera Sans', 'Computer Modern Sans Serif', 'Lucida Grande', 'Verdana', 'Geneva', 'Lucid', 'Arial', 'Helvetica', 'Avant Garde', sans-serif; text-anchor: start" x="450.35625" y="281.160117" transform="rotate(-0 450.35625 281.160117)">Mitochondrion</text>
   </g>
   <g id="text_16">
    <text style="font-weight: 700; font-size: 10px; font-family: 'DejaVu Sans', 'Bitstream Vera Sans', 'Computer Modern Sans Serif', 'Lucida Grande', 'Verdana', 'Geneva', 'Lucid', 'Arial', 'Helvetica', 'Avant Garde', sans-serif; text-anchor: start" x="450.35625" y="299.156305" transform="rotate(-0 450.35625 299.156305)">Exosomes and vesicles</text>
   </g>
   <g id="text_17">
    <text style="font-weight: 700; font-size: 10px; font-family: 'DejaVu Sans', 'Bitstream Vera Sans', 'Computer Modern Sans Serif', 'Lucida Grande', 'Verdana', 'Geneva', 'Lucid', 'Arial', 'Helvetica', 'Avant Garde', sans-serif; text-anchor: start" x="450.35625" y="316.107354" transform="rotate(-0 450.35625 316.107354)">Other immune processes</text>
   </g>
   <g id="text_18">
    <text style="font-weight: 700; font-size: 10px; font-family: 'DejaVu Sans', 'Bitstream Vera Sans', 'Computer Modern Sans Serif', 'Lucida Grande', 'Verdana', 'Geneva', 'Lucid', 'Arial', 'Helvetica', 'Avant Garde', sans-serif; text-anchor: start" x="450.35625" y="332.172128" transform="rotate(-0 450.35625 332.172128)">Chromatin structure</text>
   </g>
   <g id="text_19">
    <text style="font-weight: 700; font-size: 10px; font-family: 'DejaVu Sans', 'Bitstream Vera Sans', 'Computer Modern Sans Serif', 'Lucida Grande', 'Verdana', 'Geneva', 'Lucid', 'Arial', 'Helvetica', 'Avant Garde', sans-serif; text-anchor: start" x="450.35625" y="346.855301" transform="rotate(-0 450.35625 346.855301)">Lipids metabolism</text>
   </g>
   <g id="text_20">
    <text style="font-weight: 700; font-size: 10px; font-family: 'DejaVu Sans', 'Bitstream Vera Sans', 'Computer Modern Sans Serif', 'Lucida Grande', 'Verdana', 'Geneva', 'Lucid', 'Arial', 'Helvetica', 'Avant Garde', sans-serif; text-anchor: start" x="450.35625" y="359.072673" transform="rotate(-0 450.35625 359.072673)">Protein ubiquitination and degradation</text>
   </g>
   <g id="text_21">
    <text style="font-weight: 700; font-size: 10px; font-family: 'DejaVu Sans', 'Bitstream Vera Sans', 'Computer Modern Sans Serif', 'Lucida Grande', 'Verdana', 'Geneva', 'Lucid', 'Arial', 'Helvetica', 'Avant Garde', sans-serif; text-anchor: start" x="450.35625" y="370.283968" transform="rotate(-0 450.35625 370.283968)">Cell migration</text>
   </g>
   <g id="text_22">
    <text style="font-weight: 700; font-size: 10px; font-family: 'DejaVu Sans', 'Bitstream Vera Sans', 'Computer Modern Sans Serif', 'Lucida Grande', 'Verdana', 'Geneva', 'Lucid', 'Arial', 'Helvetica', 'Avant Garde', sans-serif; text-anchor: start" x="450.35625" y="381.534325" transform="rotate(-0 450.35625 381.534325)">DNA repair</text>
   </g>
   <g id="text_23">
    <text style="font-weight: 700; font-size: 10px; font-family: 'DejaVu Sans', 'Bitstream Vera Sans', 'Computer Modern Sans Serif', 'Lucida Grande', 'Verdana', 'Geneva', 'Lucid', 'Arial', 'Helvetica', 'Avant Garde', sans-serif; text-anchor: start" x="450.35625" y="392.706556" transform="rotate(-0 450.35625 392.706556)">Ribosome biogenesis and translation itself</text>
   </g>
   <g id="text_24">
    <text style="font-weight: 700; font-size: 10px; font-family: 'DejaVu Sans', 'Bitstream Vera Sans', 'Computer Modern Sans Serif', 'Lucida Grande', 'Verdana', 'Geneva', 'Lucid', 'Arial', 'Helvetica', 'Avant Garde', sans-serif; text-anchor: start" x="450.35625" y="403.306483" transform="rotate(-0 450.35625 403.306483)">Cytoskeleton</text>
   </g>
   <g id="text_25">
    <text style="font-weight: 700; font-size: 10px; font-family: 'DejaVu Sans', 'Bitstream Vera Sans', 'Computer Modern Sans Serif', 'Lucida Grande', 'Verdana', 'Geneva', 'Lucid', 'Arial', 'Helvetica', 'Avant Garde', sans-serif; text-anchor: start" x="450.35625" y="413.334105" transform="rotate(-0 450.35625 413.334105)">Metals metabolism</text>
   </g>
   <g id="text_26">
    <text style="font-weight: 700; font-size: 10px; font-family: 'DejaVu Sans', 'Bitstream Vera Sans', 'Computer Modern Sans Serif', 'Lucida Grande', 'Verdana', 'Geneva', 'Lucid', 'Arial', 'Helvetica', 'Avant Garde', sans-serif; text-anchor: start" x="450.35625" y="423.322664" transform="rotate(-0 450.35625 423.322664)">Cell adhesion</text>
   </g>
   <g id="text_27">
    <text style="font-weight: 700; font-size: 10px; font-family: 'DejaVu Sans', 'Bitstream Vera Sans', 'Computer Modern Sans Serif', 'Lucida Grande', 'Verdana', 'Geneva', 'Lucid', 'Arial', 'Helvetica', 'Avant Garde', sans-serif; text-anchor: start" x="450.35625" y="432.877451" transform="rotate(-0 450.35625 432.877451)">DNA recombination</text>
   </g>
   <g id="text_28">
    <text style="font-weight: 700; font-size: 10px; font-family: 'DejaVu Sans', 'Bitstream Vera Sans', 'Computer Modern Sans Serif', 'Lucida Grande', 'Verdana', 'Geneva', 'Lucid', 'Arial', 'Helvetica', 'Avant Garde', sans-serif; text-anchor: start" x="450.35625" y="441.998466" transform="rotate(-0 450.35625 441.998466)">DNA replication</text>
   </g>
   <g id="text_29">
    <text style="font-weight: 700; font-size: 10px; font-family: 'DejaVu Sans', 'Bitstream Vera Sans', 'Computer Modern Sans Serif', 'Lucida Grande', 'Verdana', 'Geneva', 'Lucid', 'Arial', 'Helvetica', 'Avant Garde', sans-serif; text-anchor: start" x="450.35625" y="450.469051" transform="rotate(-0 450.35625 450.469051)">Carbohydrates metabolism</text>
   </g>
   <g id="text_30">
    <text style="font-weight: 700; font-size: 10px; font-family: 'DejaVu Sans', 'Bitstream Vera Sans', 'Computer Modern Sans Serif', 'Lucida Grande', 'Verdana', 'Geneva', 'Lucid', 'Arial', 'Helvetica', 'Avant Garde', sans-serif; text-anchor: start" x="450.35625" y="458.406393" transform="rotate(-0 450.35625 458.406393)">Cell death</text>
   </g>
   <g id="text_31">
    <text style="font-weight: 700; font-size: 10px; font-family: 'DejaVu Sans', 'Bitstream Vera Sans', 'Computer Modern Sans Serif', 'Lucida Grande', 'Verdana', 'Geneva', 'Lucid', 'Arial', 'Helvetica', 'Avant Garde', sans-serif; text-anchor: start" x="450.35625" y="466.304673" transform="rotate(-0 450.35625 466.304673)">Other</text>
   </g>
   <g id="text_32">
    <text style="font-size: 10px; font-family: 'DejaVu Sans', 'Bitstream Vera Sans', 'Computer Modern Sans Serif', 'Lucida Grande', 'Verdana', 'Geneva', 'Lucid', 'Arial', 'Helvetica', 'Avant Garde', sans-serif; text-anchor: start" x="792.13125" y="93.797204" transform="rotate(-0 792.13125 93.797204)">Alu</text>
   </g>
   <g id="text_33">
    <text style="font-size: 10px; font-family: 'DejaVu Sans', 'Bitstream Vera Sans', 'Computer Modern Sans Serif', 'Lucida Grande', 'Verdana', 'Geneva', 'Lucid', 'Arial', 'Helvetica', 'Avant Garde', sans-serif; text-anchor: start" x="792.13125" y="148.505743" transform="rotate(-0 792.13125 148.505743)">MIR</text>
   </g>
   <g id="text_34">
    <text style="font-size: 10px; font-family: 'DejaVu Sans', 'Bitstream Vera Sans', 'Computer Modern Sans Serif', 'Lucida Grande', 'Verdana', 'Geneva', 'Lucid', 'Arial', 'Helvetica', 'Avant Garde', sans-serif; text-anchor: start" x="792.13125" y="193.794341" transform="rotate(-0 792.13125 193.794341)">ERV1</text>
   </g>
   <g id="text_35">
    <text style="font-size: 10px; font-family: 'DejaVu Sans', 'Bitstream Vera Sans', 'Computer Modern Sans Serif', 'Lucida Grande', 'Verdana', 'Geneva', 'Lucid', 'Arial', 'Helvetica', 'Avant Garde', sans-serif; text-anchor: start" x="792.13125" y="234.120097" transform="rotate(-0 792.13125 234.120097)">L1</text>
   </g>
   <g id="text_36">
    <text style="font-size: 10px; font-family: 'DejaVu Sans', 'Bitstream Vera Sans', 'Computer Modern Sans Serif', 'Lucida Grande', 'Verdana', 'Geneva', 'Lucid', 'Arial', 'Helvetica', 'Avant Garde', sans-serif; text-anchor: start" x="792.13125" y="268.095349" transform="rotate(-0 792.13125 268.095349)">ERVL</text>
   </g>
   <g id="text_37">
    <text style="font-size: 10px; font-family: 'DejaVu Sans', 'Bitstream Vera Sans', 'Computer Modern Sans Serif', 'Lucida Grande', 'Verdana', 'Geneva', 'Lucid', 'Arial', 'Helvetica', 'Avant Garde', sans-serif; text-anchor: start" x="792.13125" y="293.838376" transform="rotate(-0 792.13125 293.838376)">ERVL-MaLR</text>
   </g>
   <g id="text_38">
    <text style="font-size: 10px; font-family: 'DejaVu Sans', 'Bitstream Vera Sans', 'Computer Modern Sans Serif', 'Lucida Grande', 'Verdana', 'Geneva', 'Lucid', 'Arial', 'Helvetica', 'Avant Garde', sans-serif; text-anchor: start" x="792.13125" y="315.617393" transform="rotate(-0 792.13125 315.617393)">CR1</text>
   </g>
   <g id="text_39">
    <text style="font-size: 10px; font-family: 'DejaVu Sans', 'Bitstream Vera Sans', 'Computer Modern Sans Serif', 'Lucida Grande', 'Verdana', 'Geneva', 'Lucid', 'Arial', 'Helvetica', 'Avant Garde', sans-serif; text-anchor: start" x="792.13125" y="333.663942" transform="rotate(-0 792.13125 333.663942)">Gypsy</text>
   </g>
   <g id="text_40">
    <text style="font-size: 10px; font-family: 'DejaVu Sans', 'Bitstream Vera Sans', 'Computer Modern Sans Serif', 'Lucida Grande', 'Verdana', 'Geneva', 'Lucid', 'Arial', 'Helvetica', 'Avant Garde', sans-serif; text-anchor: start" x="792.13125" y="349.019169" transform="rotate(-0 792.13125 349.019169)">hAT-Charlie</text>
   </g>
   <g id="text_41">
    <text style="font-size: 10px; font-family: 'DejaVu Sans', 'Bitstream Vera Sans', 'Computer Modern Sans Serif', 'Lucida Grande', 'Verdana', 'Geneva', 'Lucid', 'Arial', 'Helvetica', 'Avant Garde', sans-serif; text-anchor: start" x="792.13125" y="364.100538" transform="rotate(-0 792.13125 364.100538)">SVA</text>
   </g>
   <g id="text_42">
    <text style="font-size: 10px; font-family: 'DejaVu Sans', 'Bitstream Vera Sans', 'Computer Modern Sans Serif', 'Lucida Grande', 'Verdana', 'Geneva', 'Lucid', 'Arial', 'Helvetica', 'Avant Garde', sans-serif; text-anchor: start" x="792.13125" y="377.099617" transform="rotate(-0 792.13125 377.099617)">ERVK</text>
   </g>
   <g id="text_43">
    <text style="font-size: 10px; font-family: 'DejaVu Sans', 'Bitstream Vera Sans', 'Computer Modern Sans Serif', 'Lucida Grande', 'Verdana', 'Geneva', 'Lucid', 'Arial', 'Helvetica', 'Avant Garde', sans-serif; text-anchor: start" x="792.13125" y="386.640085" transform="rotate(-0 792.13125 386.640085)">Dong-R4</text>
   </g>
   <g id="text_44">
    <text style="font-size: 10px; font-family: 'DejaVu Sans', 'Bitstream Vera Sans', 'Computer Modern Sans Serif', 'Lucida Grande', 'Verdana', 'Geneva', 'Lucid', 'Arial', 'Helvetica', 'Avant Garde', sans-serif; text-anchor: start" x="792.13125" y="394.530376" transform="rotate(-0 792.13125 394.530376)">L2</text>
   </g>
   <g id="text_45">
    <text style="font-size: 10px; font-family: 'DejaVu Sans', 'Bitstream Vera Sans', 'Computer Modern Sans Serif', 'Lucida Grande', 'Verdana', 'Geneva', 'Lucid', 'Arial', 'Helvetica', 'Avant Garde', sans-serif; text-anchor: start" x="792.13125" y="402.420667" transform="rotate(-0 792.13125 402.420667)">hAT-Tip100</text>
   </g>
   <g id="text_46">
    <g id="patch_182">
     <path d="M 399.88125 173.163101 
L 418.96875 173.163101 
Q 419.96875 173.163101 419.96875 172.163101 
L 419.96875 162.484976 
Q 419.96875 161.484976 418.96875 161.484976 
L 399.88125 161.484976 
Q 398.88125 161.484976 398.88125 162.484976 
L 398.88125 172.163101 
Q 398.88125 173.163101 399.88125 173.163101 
z
" style="fill: #ffffff; opacity: 0.7"/>
    </g>
    <text style="font-size: 10px; font-family: 'DejaVu Sans', 'Bitstream Vera Sans', 'Computer Modern Sans Serif', 'Lucida Grande', 'Verdana', 'Geneva', 'Lucid', 'Arial', 'Helvetica', 'Avant Garde', sans-serif; text-anchor: end" x="418.96875" y="170.083414" transform="rotate(-0 418.96875 170.083414)">162</text>
   </g>
   <g id="text_47">
    <g id="patch_183">
     <path d="M 406.24375 197.633664 
L 418.96875 197.633664 
Q 419.96875 197.633664 419.96875 196.633664 
L 419.96875 186.955539 
Q 419.96875 185.955539 418.96875 185.955539 
L 406.24375 185.955539 
Q 405.24375 185.955539 405.24375 186.955539 
L 405.24375 196.633664 
Q 405.24375 197.633664 406.24375 197.633664 
z
" style="fill: #ffffff; opacity: 0.7"/>
    </g>
    <text style="font-size: 10px; font-family: 'DejaVu Sans', 'Bitstream Vera Sans', 'Computer Modern Sans Serif', 'Lucida Grande', 'Verdana', 'Geneva', 'Lucid', 'Arial', 'Helvetica', 'Avant Garde', sans-serif; text-anchor: end" x="418.96875" y="194.553977" transform="rotate(-0 418.96875 194.553977)">90</text>
   </g>
   <g id="text_48">
    <g id="patch_184">
     <path d="M 406.24375 143.421948 
L 418.96875 143.421948 
Q 419.96875 143.421948 419.96875 142.421948 
L 419.96875 132.743823 
Q 419.96875 131.743823 418.96875 131.743823 
L 406.24375 131.743823 
Q 405.24375 131.743823 405.24375 132.743823 
L 405.24375 142.421948 
Q 405.24375 143.421948 406.24375 143.421948 
z
" style="fill: #ffffff; opacity: 0.7"/>
    </g>
    <text style="font-size: 10px; font-family: 'DejaVu Sans', 'Bitstream Vera Sans', 'Computer Modern Sans Serif', 'Lucida Grande', 'Verdana', 'Geneva', 'Lucid', 'Arial', 'Helvetica', 'Avant Garde', sans-serif; text-anchor: end" x="418.96875" y="140.342261" transform="rotate(-0 418.96875 140.342261)">29</text>
   </g>
   <g id="text_49">
    <g id="patch_185">
     <path d="M 406.24375 115.841906 
L 418.96875 115.841906 
Q 419.96875 115.841906 419.96875 114.841906 
L 419.96875 105.163781 
Q 419.96875 104.163781 418.96875 104.163781 
L 406.24375 104.163781 
Q 405.24375 104.163781 405.24375 105.163781 
L 405.24375 114.841906 
Q 405.24375 115.841906 406.24375 115.841906 
z
" style="fill: #ffffff; opacity: 0.7"/>
    </g>
    <text style="font-size: 10px; font-family: 'DejaVu Sans', 'Bitstream Vera Sans', 'Computer Modern Sans Serif', 'Lucida Grande', 'Verdana', 'Geneva', 'Lucid', 'Arial', 'Helvetica', 'Avant Garde', sans-serif; text-anchor: end" x="418.96875" y="112.762219" transform="rotate(-0 418.96875 112.762219)">26</text>
   </g>
   <g id="text_50">
    <g id="patch_186">
     <path d="M 406.24375 220.307244 
L 418.96875 220.307244 
Q 419.96875 220.307244 419.96875 219.307244 
L 419.96875 209.629119 
Q 419.96875 208.629119 418.96875 208.629119 
L 406.24375 208.629119 
Q 405.24375 208.629119 405.24375 209.629119 
L 405.24375 219.307244 
Q 405.24375 220.307244 406.24375 220.307244 
z
" style="fill: #ffffff; opacity: 0.7"/>
    </g>
    <text style="font-size: 10px; font-family: 'DejaVu Sans', 'Bitstream Vera Sans', 'Computer Modern Sans Serif', 'Lucida Grande', 'Verdana', 'Geneva', 'Lucid', 'Arial', 'Helvetica', 'Avant Garde', sans-serif; text-anchor: end" x="418.96875" y="217.227556" transform="rotate(-0 418.96875 217.227556)">21</text>
   </g>
   <g id="text_51">
    <g id="patch_187">
     <path d="M 406.24375 74.194519 
L 418.96875 74.194519 
Q 419.96875 74.194519 419.96875 73.194519 
L 419.96875 63.516394 
Q 419.96875 62.516394 418.96875 62.516394 
L 406.24375 62.516394 
Q 405.24375 62.516394 405.24375 63.516394 
L 405.24375 73.194519 
Q 405.24375 74.194519 406.24375 74.194519 
z
" style="fill: #ffffff; opacity: 0.7"/>
    </g>
    <text style="font-size: 10px; font-family: 'DejaVu Sans', 'Bitstream Vera Sans', 'Computer Modern Sans Serif', 'Lucida Grande', 'Verdana', 'Geneva', 'Lucid', 'Arial', 'Helvetica', 'Avant Garde', sans-serif; text-anchor: end" x="418.96875" y="71.114832" transform="rotate(-0 418.96875 71.114832)">19</text>
   </g>
   <g id="text_52">
    <g id="patch_188">
     <path d="M 406.24375 82.579015 
L 418.96875 82.579015 
Q 419.96875 82.579015 419.96875 81.579015 
L 419.96875 71.90089 
Q 419.96875 70.90089 418.96875 70.90089 
L 406.24375 70.90089 
Q 405.24375 70.90089 405.24375 71.90089 
L 405.24375 81.579015 
Q 405.24375 82.579015 406.24375 82.579015 
z
" style="fill: #ffffff; opacity: 0.7"/>
    </g>
    <text style="font-size: 10px; font-family: 'DejaVu Sans', 'Bitstream Vera Sans', 'Computer Modern Sans Serif', 'Lucida Grande', 'Verdana', 'Geneva', 'Lucid', 'Arial', 'Helvetica', 'Avant Garde', sans-serif; text-anchor: end" x="418.96875" y="79.499328" transform="rotate(-0 418.96875 79.499328)">12</text>
   </g>
   <g id="text_53">
    <g id="patch_189">
     <path d="M 406.24375 243.004568 
L 418.96875 243.004568 
Q 419.96875 243.004568 419.96875 242.004568 
L 419.96875 232.326443 
Q 419.96875 231.326443 418.96875 231.326443 
L 406.24375 231.326443 
Q 405.24375 231.326443 405.24375 232.326443 
L 405.24375 242.004568 
Q 405.24375 243.004568 406.24375 243.004568 
z
" style="fill: #ffffff; opacity: 0.7"/>
    </g>
    <text style="font-size: 10px; font-family: 'DejaVu Sans', 'Bitstream Vera Sans', 'Computer Modern Sans Serif', 'Lucida Grande', 'Verdana', 'Geneva', 'Lucid', 'Arial', 'Helvetica', 'Avant Garde', sans-serif; text-anchor: end" x="418.96875" y="239.924881" transform="rotate(-0 418.96875 239.924881)">12</text>
   </g>
   <g id="text_54">
    <g id="patch_190">
     <path d="M 406.24375 90.193279 
L 418.96875 90.193279 
Q 419.96875 90.193279 419.96875 89.193279 
L 419.96875 79.515154 
Q 419.96875 78.515154 418.96875 78.515154 
L 406.24375 78.515154 
Q 405.24375 78.515154 405.24375 79.515154 
L 405.24375 89.193279 
Q 405.24375 90.193279 406.24375 90.193279 
z
" style="fill: #ffffff; opacity: 0.7"/>
    </g>
    <text style="font-size: 10px; font-family: 'DejaVu Sans', 'Bitstream Vera Sans', 'Computer Modern Sans Serif', 'Lucida Grande', 'Verdana', 'Geneva', 'Lucid', 'Arial', 'Helvetica', 'Avant Garde', sans-serif; text-anchor: end" x="418.96875" y="87.113592" transform="rotate(-0 418.96875 87.113592)">11</text>
   </g>
   <g id="text_55">
    <g id="patch_191">
     <path d="M 406.24375 263.239394 
L 418.96875 263.239394 
Q 419.96875 263.239394 419.96875 262.239394 
L 419.96875 252.561269 
Q 419.96875 251.561269 418.96875 251.561269 
L 406.24375 251.561269 
Q 405.24375 251.561269 405.24375 252.561269 
L 405.24375 262.239394 
Q 405.24375 263.239394 406.24375 263.239394 
z
" style="fill: #ffffff; opacity: 0.7"/>
    </g>
    <text style="font-size: 10px; font-family: 'DejaVu Sans', 'Bitstream Vera Sans', 'Computer Modern Sans Serif', 'Lucida Grande', 'Verdana', 'Geneva', 'Lucid', 'Arial', 'Helvetica', 'Avant Garde', sans-serif; text-anchor: end" x="418.96875" y="260.159706" transform="rotate(-0 418.96875 260.159706)">10</text>
   </g>
   <g id="text_56">
    <g id="patch_192">
     <path d="M 412.60625 299.534346 
L 418.96875 299.534346 
Q 419.96875 299.534346 419.96875 298.534346 
L 419.96875 288.856221 
Q 419.96875 287.856221 418.96875 287.856221 
L 412.60625 287.856221 
Q 411.60625 287.856221 411.60625 288.856221 
L 411.60625 298.534346 
Q 411.60625 299.534346 412.60625 299.534346 
z
" style="fill: #ffffff; opacity: 0.7"/>
    </g>
    <text style="font-size: 10px; font-family: 'DejaVu Sans', 'Bitstream Vera Sans', 'Computer Modern Sans Serif', 'Lucida Grande', 'Verdana', 'Geneva', 'Lucid', 'Arial', 'Helvetica', 'Avant Garde', sans-serif; text-anchor: end" x="418.96875" y="296.454658" transform="rotate(-0 418.96875 296.454658)">8</text>
   </g>
   <g id="text_57">
    <g id="patch_193">
     <path d="M 412.60625 97.075486 
L 418.96875 97.075486 
Q 419.96875 97.075486 419.96875 96.075486 
L 419.96875 86.397361 
Q 419.96875 85.397361 418.96875 85.397361 
L 412.60625 85.397361 
Q 411.60625 85.397361 411.60625 86.397361 
L 411.60625 96.075486 
Q 411.60625 97.075486 412.60625 97.075486 
z
" style="fill: #ffffff; opacity: 0.7"/>
    </g>
    <text style="font-size: 10px; font-family: 'DejaVu Sans', 'Bitstream Vera Sans', 'Computer Modern Sans Serif', 'Lucida Grande', 'Verdana', 'Geneva', 'Lucid', 'Arial', 'Helvetica', 'Avant Garde', sans-serif; text-anchor: end" x="418.96875" y="93.995798" transform="rotate(-0 418.96875 93.995798)">7</text>
   </g>
   <g id="text_58">
    <g id="patch_194">
     <path d="M 412.60625 362.191423 
L 418.96875 362.191423 
Q 419.96875 362.191423 419.96875 361.191423 
L 419.96875 351.513298 
Q 419.96875 350.513298 418.96875 350.513298 
L 412.60625 350.513298 
Q 411.60625 350.513298 411.60625 351.513298 
L 411.60625 361.191423 
Q 411.60625 362.191423 412.60625 362.191423 
z
" style="fill: #ffffff; opacity: 0.7"/>
    </g>
    <text style="font-size: 10px; font-family: 'DejaVu Sans', 'Bitstream Vera Sans', 'Computer Modern Sans Serif', 'Lucida Grande', 'Verdana', 'Geneva', 'Lucid', 'Arial', 'Helvetica', 'Avant Garde', sans-serif; text-anchor: end" x="418.96875" y="359.111736" transform="rotate(-0 418.96875 359.111736)">5</text>
   </g>
   <g id="text_59">
    <g id="patch_195">
     <path d="M 439.89375 72.452054 
L 452.61875 72.452054 
Q 453.61875 72.452054 453.61875 71.452054 
L 453.61875 61.773929 
Q 453.61875 60.773929 452.61875 60.773929 
L 439.89375 60.773929 
Q 438.89375 60.773929 438.89375 61.773929 
L 438.89375 71.452054 
Q 438.89375 72.452054 439.89375 72.452054 
z
" style="fill: #ffffff; opacity: 0.7"/>
    </g>
    <text style="font-size: 10px; font-family: 'DejaVu Sans', 'Bitstream Vera Sans', 'Computer Modern Sans Serif', 'Lucida Grande', 'Verdana', 'Geneva', 'Lucid', 'Arial', 'Helvetica', 'Avant Garde', sans-serif; text-anchor: start" x="439.89375" y="69.372366" transform="rotate(-0 439.89375 69.372366)">11</text>
   </g>
   <g id="text_60">
    <g id="patch_196">
     <path d="M 439.89375 264.563224 
L 452.61875 264.563224 
Q 453.61875 264.563224 453.61875 263.563224 
L 453.61875 253.885099 
Q 453.61875 252.885099 452.61875 252.885099 
L 439.89375 252.885099 
Q 438.89375 252.885099 438.89375 253.885099 
L 438.89375 263.563224 
Q 438.89375 264.563224 439.89375 264.563224 
z
" style="fill: #ffffff; opacity: 0.7"/>
    </g>
    <text style="font-size: 10px; font-family: 'DejaVu Sans', 'Bitstream Vera Sans', 'Computer Modern Sans Serif', 'Lucida Grande', 'Verdana', 'Geneva', 'Lucid', 'Arial', 'Helvetica', 'Avant Garde', sans-serif; text-anchor: start" x="439.89375" y="261.483537" transform="rotate(-0 439.89375 261.483537)">11</text>
   </g>
   <g id="text_61">
    <g id="patch_197">
     <path d="M 439.89375 77.679947 
L 446.25625 77.679947 
Q 447.25625 77.679947 447.25625 76.679947 
L 447.25625 67.001822 
Q 447.25625 66.001822 446.25625 66.001822 
L 439.89375 66.001822 
Q 438.89375 66.001822 438.89375 67.001822 
L 438.89375 76.679947 
Q 438.89375 77.679947 439.89375 77.679947 
z
" style="fill: #ffffff; opacity: 0.7"/>
    </g>
    <text style="font-size: 10px; font-family: 'DejaVu Sans', 'Bitstream Vera Sans', 'Computer Modern Sans Serif', 'Lucida Grande', 'Verdana', 'Geneva', 'Lucid', 'Arial', 'Helvetica', 'Avant Garde', sans-serif; text-anchor: start" x="439.89375" y="74.600259" transform="rotate(-0 439.89375 74.600259)">8</text>
   </g>
   <g id="text_62">
    <g id="patch_198">
     <path d="M 439.89375 82.306016 
L 446.25625 82.306016 
Q 447.25625 82.306016 447.25625 81.306016 
L 447.25625 71.627891 
Q 447.25625 70.627891 446.25625 70.627891 
L 439.89375 70.627891 
Q 438.89375 70.627891 438.89375 71.627891 
L 438.89375 81.306016 
Q 438.89375 82.306016 439.89375 82.306016 
z
" style="fill: #ffffff; opacity: 0.7"/>
    </g>
    <text style="font-size: 10px; font-family: 'DejaVu Sans', 'Bitstream Vera Sans', 'Computer Modern Sans Serif', 'Lucida Grande', 'Verdana', 'Geneva', 'Lucid', 'Arial', 'Helvetica', 'Avant Garde', sans-serif; text-anchor: start" x="439.89375" y="79.226328" transform="rotate(-0 439.89375 79.226328)">6</text>
   </g>
   <g id="text_63">
    <g id="patch_199">
     <path d="M 439.89375 384.614012 
L 446.25625 384.614012 
Q 447.25625 384.614012 447.25625 383.614012 
L 447.25625 373.935887 
Q 447.25625 372.935887 446.25625 372.935887 
L 439.89375 372.935887 
Q 438.89375 372.935887 438.89375 373.935887 
L 438.89375 383.614012 
Q 438.89375 384.614012 439.89375 384.614012 
z
" style="fill: #ffffff; opacity: 0.7"/>
    </g>
    <text style="font-size: 10px; font-family: 'DejaVu Sans', 'Bitstream Vera Sans', 'Computer Modern Sans Serif', 'Lucida Grande', 'Verdana', 'Geneva', 'Lucid', 'Arial', 'Helvetica', 'Avant Garde', sans-serif; text-anchor: start" x="439.89375" y="381.534325" transform="rotate(-0 439.89375 381.534325)">6</text>
   </g>
   <g id="text_64">
    <g id="patch_200">
     <path d="M 439.89375 244.548769 
L 446.25625 244.548769 
Q 447.25625 244.548769 447.25625 243.548769 
L 447.25625 233.870644 
Q 447.25625 232.870644 446.25625 232.870644 
L 439.89375 232.870644 
Q 438.89375 232.870644 438.89375 233.870644 
L 438.89375 243.548769 
Q 438.89375 244.548769 439.89375 244.548769 
z
" style="fill: #ffffff; opacity: 0.7"/>
    </g>
    <text style="font-size: 10px; font-family: 'DejaVu Sans', 'Bitstream Vera Sans', 'Computer Modern Sans Serif', 'Lucida Grande', 'Verdana', 'Geneva', 'Lucid', 'Arial', 'Helvetica', 'Avant Garde', sans-serif; text-anchor: start" x="439.89375" y="241.469082" transform="rotate(-0 439.89375 241.469082)">6</text>
   </g>
   <g id="text_65">
    <g id="patch_201">
     <path d="M 439.89375 194.011072 
L 446.25625 194.011072 
Q 447.25625 194.011072 447.25625 193.011072 
L 447.25625 183.332947 
Q 447.25625 182.332947 446.25625 182.332947 
L 439.89375 182.332947 
Q 438.89375 182.332947 438.89375 183.332947 
L 438.89375 193.011072 
Q 438.89375 194.011072 439.89375 194.011072 
z
" style="fill: #ffffff; opacity: 0.7"/>
    </g>
    <text style="font-size: 10px; font-family: 'DejaVu Sans', 'Bitstream Vera Sans', 'Computer Modern Sans Serif', 'Lucida Grande', 'Verdana', 'Geneva', 'Lucid', 'Arial', 'Helvetica', 'Avant Garde', sans-serif; text-anchor: start" x="439.89375" y="190.931384" transform="rotate(-0 439.89375 190.931384)">6</text>
   </g>
   <g id="text_66">
    <g id="patch_202">
     <path d="M 439.89375 86.651477 
L 446.25625 86.651477 
Q 447.25625 86.651477 447.25625 85.651477 
L 447.25625 75.973352 
Q 447.25625 74.973352 446.25625 74.973352 
L 439.89375 74.973352 
Q 438.89375 74.973352 438.89375 75.973352 
L 438.89375 85.651477 
Q 438.89375 86.651477 439.89375 86.651477 
z
" style="fill: #ffffff; opacity: 0.7"/>
    </g>
    <text style="font-size: 10px; font-family: 'DejaVu Sans', 'Bitstream Vera Sans', 'Computer Modern Sans Serif', 'Lucida Grande', 'Verdana', 'Geneva', 'Lucid', 'Arial', 'Helvetica', 'Avant Garde', sans-serif; text-anchor: start" x="439.89375" y="83.57179" transform="rotate(-0 439.89375 83.57179)">6</text>
   </g>
   <g id="text_67">
    <g id="patch_203">
     <path d="M 439.89375 218.834051 
L 446.25625 218.834051 
Q 447.25625 218.834051 447.25625 217.834051 
L 447.25625 208.155926 
Q 447.25625 207.155926 446.25625 207.155926 
L 439.89375 207.155926 
Q 438.89375 207.155926 438.89375 208.155926 
L 438.89375 217.834051 
Q 438.89375 218.834051 439.89375 218.834051 
z
" style="fill: #ffffff; opacity: 0.7"/>
    </g>
    <text style="font-size: 10px; font-family: 'DejaVu Sans', 'Bitstream Vera Sans', 'Computer Modern Sans Serif', 'Lucida Grande', 'Verdana', 'Geneva', 'Lucid', 'Arial', 'Helvetica', 'Avant Garde', sans-serif; text-anchor: start" x="439.89375" y="215.754363" transform="rotate(-0 439.89375 215.754363)">5</text>
   </g>
   <g id="text_68">
    <g id="patch_204">
     <path d="M 439.89375 284.239804 
L 446.25625 284.239804 
Q 447.25625 284.239804 447.25625 283.239804 
L 447.25625 273.561679 
Q 447.25625 272.561679 446.25625 272.561679 
L 439.89375 272.561679 
Q 438.89375 272.561679 438.89375 273.561679 
L 438.89375 283.239804 
Q 438.89375 284.239804 439.89375 284.239804 
z
" style="fill: #ffffff; opacity: 0.7"/>
    </g>
    <text style="font-size: 10px; font-family: 'DejaVu Sans', 'Bitstream Vera Sans', 'Computer Modern Sans Serif', 'Lucida Grande', 'Verdana', 'Geneva', 'Lucid', 'Arial', 'Helvetica', 'Avant Garde', sans-serif; text-anchor: start" x="439.89375" y="281.160117" transform="rotate(-0 439.89375 281.160117)">5</text>
   </g>
   <g id="text_69">
    <g id="patch_205">
     <path d="M 439.89375 140.698279 
L 446.25625 140.698279 
Q 447.25625 140.698279 447.25625 139.698279 
L 447.25625 130.020154 
Q 447.25625 129.020154 446.25625 129.020154 
L 439.89375 129.020154 
Q 438.89375 129.020154 438.89375 130.020154 
L 438.89375 139.698279 
Q 438.89375 140.698279 439.89375 140.698279 
z
" style="fill: #ffffff; opacity: 0.7"/>
    </g>
    <text style="font-size: 10px; font-family: 'DejaVu Sans', 'Bitstream Vera Sans', 'Computer Modern Sans Serif', 'Lucida Grande', 'Verdana', 'Geneva', 'Lucid', 'Arial', 'Helvetica', 'Avant Garde', sans-serif; text-anchor: start" x="439.89375" y="137.618592" transform="rotate(-0 439.89375 137.618592)">5</text>
   </g>
   <g id="text_70">
    <text style="font-weight: 700; font-size: 10px; font-family: 'DejaVu Sans', 'Bitstream Vera Sans', 'Computer Modern Sans Serif', 'Lucida Grande', 'Verdana', 'Geneva', 'Lucid', 'Arial', 'Helvetica', 'Avant Garde', sans-serif; text-anchor: middle" x="429.43125" y="14.798437" transform="rotate(-0 429.43125 14.798437)">Sankey: TE Class → Functional Group → TE Family (Log10 Scale)</text>
   </g>
  </g>
 </g>
 <defs>
  <clipPath id="p039ea25fcc">
   <rect x="10.93125" y="34.798437" width="837" height="609.84"/>
  </clipPath>
 </defs>
</svg>
