<?xml version="1.0" encoding="utf-8" standalone="no"?>
<!DOCTYPE svg PUBLIC "-//W3C//DTD SVG 1.1//EN"
  "http://www.w3.org/Graphics/SVG/1.1/DTD/svg11.dtd">
<svg xmlns:xlink="http://www.w3.org/1999/xlink" width="855.80625pt" height="651.838438pt" viewBox="0 0 855.80625 651.838438" xmlns="http://www.w3.org/2000/svg" version="1.1">
 <metadata>
  <rdf:RDF xmlns:dc="http://purl.org/dc/elements/1.1/" xmlns:cc="http://creativecommons.org/ns#" xmlns:rdf="http://www.w3.org/1999/02/22-rdf-syntax-ns#">
   <cc:Work>
    <dc:type rdf:resource="http://purl.org/dc/dcmitype/StillImage"/>
    <dc:date>2026-01-15T20:16:03.167573</dc:date>
    <dc:format>image/svg+xml</dc:format>
    <dc:creator>
     <cc:Agent>
      <dc:title>Matplotlib v3.10.8, https://matplotlib.org/</dc:title>
     </cc:Agent>
    </dc:creator>
   </cc:Work>
  </rdf:RDF>
 </metadata>
 <defs>
  <style type="text/css">*{stroke-linejoin: round; stroke-linecap: butt}</style>
 </defs>
 <g id="figure_1">
  <g id="patch_1">
   <path d="M 0 651.838438 
L 855.80625 651.838438 
L 855.80625 0 
L 0 0 
L 0 651.838438 
z
" style="fill: none"/>
  </g>
  <g id="axes_1">
   <g id="patch_2">
    <path d="M 73.70625 198.414417 
L 87.65625 198.414417 
L 87.65625 63.838438 
L 73.70625 63.838438 
z
" clip-path="url(#paa3719a72d)" style="fill: #ff0000; stroke: #000000; stroke-width: 0.5; stroke-linejoin: miter"/>
   </g>
   <g id="patch_3">
    <path d="M 73.70625 256.912629 
L 87.65625 256.912629 
L 87.65625 204.222417 
L 73.70625 204.222417 
z
" clip-path="url(#paa3719a72d)" style="fill: #ab1f20; stroke: #000000; stroke-width: 0.5; stroke-linejoin: miter"/>
   </g>
   <g id="patch_4">
    <path d="M 73.70625 294.147807 
L 87.65625 294.147807 
L 87.65625 262.720629 
L 73.70625 262.720629 
z
" clip-path="url(#paa3719a72d)" style="fill: #008000; stroke: #000000; stroke-width: 0.5; stroke-linejoin: miter"/>
   </g>
   <g id="patch_5">
    <path d="M 73.70625 323.801332 
L 87.65625 323.801332 
L 87.65625 299.955807 
L 73.70625 299.955807 
z
" clip-path="url(#paa3719a72d)" style="fill: #70453c; stroke: #000000; stroke-width: 0.5; stroke-linejoin: miter"/>
   </g>
   <g id="patch_6">
    <path d="M 73.70625 342.597267 
L 87.65625 342.597267 
L 87.65625 329.609332 
L 73.70625 329.609332 
z
" clip-path="url(#paa3719a72d)" style="fill: #cc660b; stroke: #000000; stroke-width: 0.5; stroke-linejoin: miter"/>
   </g>
   <g id="patch_7">
    <path d="M 73.70625 354.238438 
L 87.65625 354.238438 
L 87.65625 348.405267 
L 73.70625 348.405267 
z
" clip-path="url(#paa3719a72d)" style="fill: #765297; stroke: #000000; stroke-width: 0.5; stroke-linejoin: miter"/>
   </g>
   <g id="patch_8">
    <path d="M 422.45625 106.368284 
L 436.40625 106.368284 
L 436.40625 63.838438 
L 422.45625 63.838438 
z
" clip-path="url(#paa3719a72d)" style="fill: #fccde5; stroke: #000000; stroke-width: 0.5; stroke-linejoin: miter"/>
   </g>
   <g id="patch_9">
    <path d="M 422.45625 135.361012 
L 436.40625 135.361012 
L 436.40625 112.176284 
L 422.45625 112.176284 
z
" clip-path="url(#paa3719a72d)" style="fill: #fb8072; stroke: #000000; stroke-width: 0.5; stroke-linejoin: miter"/>
   </g>
   <g id="patch_10">
    <path d="M 422.45625 162.420877 
L 436.40625 162.420877 
L 436.40625 141.169012 
L 422.45625 141.169012 
z
" clip-path="url(#paa3719a72d)" style="fill: #fdb462; stroke: #000000; stroke-width: 0.5; stroke-linejoin: miter"/>
   </g>
   <g id="patch_11">
    <path d="M 422.45625 189.180329 
L 436.40625 189.180329 
L 436.40625 168.228877 
L 422.45625 168.228877 
z
" clip-path="url(#paa3719a72d)" style="fill: #b3de69; stroke: #000000; stroke-width: 0.5; stroke-linejoin: miter"/>
   </g>
   <g id="patch_12">
    <path d="M 422.45625 215.319032 
L 436.40625 215.319032 
L 436.40625 194.988329 
L 422.45625 194.988329 
z
" clip-path="url(#paa3719a72d)" style="fill: #fdb462; stroke: #000000; stroke-width: 0.5; stroke-linejoin: miter"/>
   </g>
   <g id="patch_13">
    <path d="M 422.45625 239.588578 
L 436.40625 239.588578 
L 436.40625 221.127032 
L 422.45625 221.127032 
z
" clip-path="url(#paa3719a72d)" style="fill: #fdb462; stroke: #000000; stroke-width: 0.5; stroke-linejoin: miter"/>
   </g>
   <g id="patch_14">
    <path d="M 422.45625 260.526028 
L 436.40625 260.526028 
L 436.40625 245.396578 
L 422.45625 245.396578 
z
" clip-path="url(#paa3719a72d)" style="fill: #bebada; stroke: #000000; stroke-width: 0.5; stroke-linejoin: miter"/>
   </g>
   <g id="patch_15">
    <path d="M 422.45625 281.173376 
L 436.40625 281.173376 
L 436.40625 266.334028 
L 422.45625 266.334028 
z
" clip-path="url(#paa3719a72d)" style="fill: #8dd3c7; stroke: #000000; stroke-width: 0.5; stroke-linejoin: miter"/>
   </g>
   <g id="patch_16">
    <path d="M 422.45625 299.653952 
L 436.40625 299.653952 
L 436.40625 286.981376 
L 422.45625 286.981376 
z
" clip-path="url(#paa3719a72d)" style="fill: #fb8072; stroke: #000000; stroke-width: 0.5; stroke-linejoin: miter"/>
   </g>
   <g id="patch_17">
    <path d="M 422.45625 317.407226 
L 436.40625 317.407226 
L 436.40625 305.461952 
L 422.45625 305.461952 
z
" clip-path="url(#paa3719a72d)" style="fill: #bebada; stroke: #000000; stroke-width: 0.5; stroke-linejoin: miter"/>
   </g>
   <g id="patch_18">
    <path d="M 422.45625 333.030154 
L 436.40625 333.030154 
L 436.40625 323.215226 
L 422.45625 323.215226 
z
" clip-path="url(#paa3719a72d)" style="fill: #fdb462; stroke: #000000; stroke-width: 0.5; stroke-linejoin: miter"/>
   </g>
   <g id="patch_19">
    <path d="M 422.45625 348.653082 
L 436.40625 348.653082 
L 436.40625 338.838154 
L 422.45625 338.838154 
z
" clip-path="url(#paa3719a72d)" style="fill: #80b1d3; stroke: #000000; stroke-width: 0.5; stroke-linejoin: miter"/>
   </g>
   <g id="patch_20">
    <path d="M 422.45625 360.95505 
L 436.40625 360.95505 
L 436.40625 354.461082 
L 422.45625 354.461082 
z
" clip-path="url(#paa3719a72d)" style="fill: #ffffb3; stroke: #000000; stroke-width: 0.5; stroke-linejoin: miter"/>
   </g>
   <g id="patch_21">
    <path d="M 422.45625 371.78747 
L 436.40625 371.78747 
L 436.40625 366.76305 
L 422.45625 366.76305 
z
" clip-path="url(#paa3719a72d)" style="fill: #bebada; stroke: #000000; stroke-width: 0.5; stroke-linejoin: miter"/>
   </g>
   <g id="patch_22">
    <path d="M 422.45625 382.619889 
L 436.40625 382.619889 
L 436.40625 377.59547 
L 422.45625 377.59547 
z
" clip-path="url(#paa3719a72d)" style="fill: #8dd3c7; stroke: #000000; stroke-width: 0.5; stroke-linejoin: miter"/>
   </g>
   <g id="patch_23">
    <path d="M 422.45625 392.409647 
L 436.40625 392.409647 
L 436.40625 388.427889 
L 422.45625 388.427889 
z
" clip-path="url(#paa3719a72d)" style="fill: #80b1d3; stroke: #000000; stroke-width: 0.5; stroke-linejoin: miter"/>
   </g>
   <g id="patch_24">
    <path d="M 422.45625 402.199405 
L 436.40625 402.199405 
L 436.40625 398.217647 
L 422.45625 398.217647 
z
" clip-path="url(#paa3719a72d)" style="fill: #bebada; stroke: #000000; stroke-width: 0.5; stroke-linejoin: miter"/>
   </g>
   <g id="patch_25">
    <path d="M 422.45625 411.989163 
L 436.40625 411.989163 
L 436.40625 408.007405 
L 422.45625 408.007405 
z
" clip-path="url(#paa3719a72d)" style="fill: #8dd3c7; stroke: #000000; stroke-width: 0.5; stroke-linejoin: miter"/>
   </g>
   <g id="patch_26">
    <path d="M 422.45625 421.778921 
L 436.40625 421.778921 
L 436.40625 417.797163 
L 422.45625 417.797163 
z
" clip-path="url(#paa3719a72d)" style="fill: #80b1d3; stroke: #000000; stroke-width: 0.5; stroke-linejoin: miter"/>
   </g>
   <g id="patch_27">
    <path d="M 422.45625 431.568679 
L 436.40625 431.568679 
L 436.40625 427.586921 
L 422.45625 427.586921 
z
" clip-path="url(#paa3719a72d)" style="fill: #80b1d3; stroke: #000000; stroke-width: 0.5; stroke-linejoin: miter"/>
   </g>
   <g id="patch_28">
    <path d="M 422.45625 441.358438 
L 436.40625 441.358438 
L 436.40625 437.376679 
L 422.45625 437.376679 
z
" clip-path="url(#paa3719a72d)" style="fill: #ffffb3; stroke: #000000; stroke-width: 0.5; stroke-linejoin: miter"/>
   </g>
   <g id="patch_29">
    <path d="M 771.20625 134.275055 
L 785.15625 134.275055 
L 785.15625 63.838438 
L 771.20625 63.838438 
z
" clip-path="url(#paa3719a72d)" style="fill: #ab1f20; stroke: #000000; stroke-width: 0.5; stroke-linejoin: miter"/>
   </g>
   <g id="patch_30">
    <path d="M 771.20625 186.341641 
L 785.15625 186.341641 
L 785.15625 140.083055 
L 771.20625 140.083055 
z
" clip-path="url(#paa3719a72d)" style="fill: #ab1f20; stroke: #000000; stroke-width: 0.5; stroke-linejoin: miter"/>
   </g>
   <g id="patch_31">
    <path d="M 771.20625 227.410499 
L 785.15625 227.410499 
L 785.15625 192.149641 
L 771.20625 192.149641 
z
" clip-path="url(#paa3719a72d)" style="fill: #70453c; stroke: #000000; stroke-width: 0.5; stroke-linejoin: miter"/>
   </g>
   <g id="patch_32">
    <path d="M 771.20625 262.639927 
L 785.15625 262.639927 
L 785.15625 233.218499 
L 771.20625 233.218499 
z
" clip-path="url(#paa3719a72d)" style="fill: #cc660b; stroke: #000000; stroke-width: 0.5; stroke-linejoin: miter"/>
   </g>
   <g id="patch_33">
    <path d="M 771.20625 291.73931 
L 785.15625 291.73931 
L 785.15625 268.447927 
L 771.20625 268.447927 
z
" clip-path="url(#paa3719a72d)" style="fill: #70453c; stroke: #000000; stroke-width: 0.5; stroke-linejoin: miter"/>
   </g>
   <g id="patch_34">
    <path d="M 771.20625 312.642017 
L 785.15625 312.642017 
L 785.15625 297.54731 
L 771.20625 297.54731 
z
" clip-path="url(#paa3719a72d)" style="fill: #cc660b; stroke: #000000; stroke-width: 0.5; stroke-linejoin: miter"/>
   </g>
   <g id="patch_35">
    <path d="M 771.20625 328.917085 
L 785.15625 328.917085 
L 785.15625 318.450017 
L 771.20625 318.450017 
z
" clip-path="url(#paa3719a72d)" style="fill: #70453c; stroke: #000000; stroke-width: 0.5; stroke-linejoin: miter"/>
   </g>
   <g id="patch_36">
    <path d="M 771.20625 345.192154 
L 785.15625 345.192154 
L 785.15625 334.725085 
L 771.20625 334.725085 
z
" clip-path="url(#paa3719a72d)" style="fill: #195f90; stroke: #000000; stroke-width: 0.5; stroke-linejoin: miter"/>
   </g>
   <g id="patch_37">
    <path d="M 771.20625 360.255431 
L 785.15625 360.255431 
L 785.15625 351.000154 
L 771.20625 351.000154 
z
" clip-path="url(#paa3719a72d)" style="fill: #70453c; stroke: #000000; stroke-width: 0.5; stroke-linejoin: miter"/>
   </g>
   <g id="patch_38">
    <path d="M 771.20625 372.842799 
L 785.15625 372.842799 
L 785.15625 366.063431 
L 771.20625 366.063431 
z
" clip-path="url(#paa3719a72d)" style="fill: #765297; stroke: #000000; stroke-width: 0.5; stroke-linejoin: miter"/>
   </g>
   <g id="patch_39">
    <path d="M 771.20625 383.278438 
L 785.15625 383.278438 
L 785.15625 378.650799 
L 771.20625 378.650799 
z
" clip-path="url(#paa3719a72d)" style="fill: #70453c; stroke: #000000; stroke-width: 0.5; stroke-linejoin: miter"/>
   </g>
   <g id="patch_40">
    <path d="M 87.65625 82.299983 
C 255.05625 82.299983 255.05625 239.588578 422.45625 239.588578 
L 422.45625 221.127032 
C 255.05625 221.127032 255.05625 63.838438 87.65625 63.838438 
z
" clip-path="url(#paa3719a72d)" style="fill: #ff0000; opacity: 0.3"/>
   </g>
   <g id="patch_41">
    <path d="M 87.65625 98.648928 
C 255.05625 98.648928 255.05625 211.337274 422.45625 211.337274 
L 422.45625 194.988329 
C 255.05625 194.988329 255.05625 82.299983 87.65625 82.299983 
z
" clip-path="url(#paa3719a72d)" style="fill: #ff0000; opacity: 0.3"/>
   </g>
   <g id="patch_42">
    <path d="M 87.65625 110.976066 
C 255.05625 110.976066 255.05625 124.503422 422.45625 124.503422 
L 422.45625 112.176284 
C 255.05625 112.176284 255.05625 98.648928 87.65625 98.648928 
z
" clip-path="url(#paa3719a72d)" style="fill: #ff0000; opacity: 0.3"/>
   </g>
   <g id="patch_43">
    <path d="M 87.65625 122.92134 
C 255.05625 122.92134 255.05625 180.174152 422.45625 180.174152 
L 422.45625 168.228877 
C 255.05625 168.228877 255.05625 110.976066 87.65625 110.976066 
z
" clip-path="url(#paa3719a72d)" style="fill: #ff0000; opacity: 0.3"/>
   </g>
   <g id="patch_44">
    <path d="M 87.65625 134.124367 
C 255.05625 134.124367 255.05625 152.372039 422.45625 152.372039 
L 422.45625 141.169012 
C 255.05625 141.169012 255.05625 122.92134 87.65625 122.92134 
z
" clip-path="url(#paa3719a72d)" style="fill: #ff0000; opacity: 0.3"/>
   </g>
   <g id="patch_45">
    <path d="M 87.65625 144.981957 
C 255.05625 144.981957 255.05625 74.696027 422.45625 74.696027 
L 422.45625 63.838438 
C 255.05625 63.838438 255.05625 134.124367 87.65625 134.124367 
z
" clip-path="url(#paa3719a72d)" style="fill: #ff0000; opacity: 0.3"/>
   </g>
   <g id="patch_46">
    <path d="M 87.65625 213.518697 
C 255.05625 213.518697 255.05625 83.992307 422.45625 83.992307 
L 422.45625 74.696027 
C 255.05625 74.696027 255.05625 204.222417 87.65625 204.222417 
z
" clip-path="url(#paa3719a72d)" style="fill: #ab1f20; opacity: 0.3"/>
   </g>
   <g id="patch_47">
    <path d="M 87.65625 154.278237 
C 255.05625 154.278237 255.05625 254.692858 422.45625 254.692858 
L 422.45625 245.396578 
C 255.05625 245.396578 255.05625 144.981957 87.65625 144.981957 
z
" clip-path="url(#paa3719a72d)" style="fill: #ff0000; opacity: 0.3"/>
   </g>
   <g id="patch_48">
    <path d="M 87.65625 308.961984 
C 255.05625 308.961984 255.05625 92.998485 422.45625 92.998485 
L 422.45625 83.992307 
C 255.05625 83.992307 255.05625 299.955807 87.65625 299.955807 
z
" clip-path="url(#paa3719a72d)" style="fill: #70453c; opacity: 0.3"/>
   </g>
   <g id="patch_49">
    <path d="M 87.65625 222.209515 
C 255.05625 222.209515 255.05625 295.672193 422.45625 295.672193 
L 422.45625 286.981376 
C 255.05625 286.981376 255.05625 213.518697 87.65625 213.518697 
z
" clip-path="url(#paa3719a72d)" style="fill: #ab1f20; opacity: 0.3"/>
   </g>
   <g id="patch_50">
    <path d="M 87.65625 162.241754 
C 255.05625 162.241754 255.05625 313.425468 422.45625 313.425468 
L 422.45625 305.461952 
C 255.05625 305.461952 255.05625 154.278237 87.65625 154.278237 
z
" clip-path="url(#paa3719a72d)" style="fill: #ff0000; opacity: 0.3"/>
   </g>
   <g id="patch_51">
    <path d="M 87.65625 270.257258 
C 255.05625 270.257258 255.05625 100.535114 422.45625 100.535114 
L 422.45625 92.998485 
C 255.05625 92.998485 255.05625 262.720629 87.65625 262.720629 
z
" clip-path="url(#paa3719a72d)" style="fill: #008000; opacity: 0.3"/>
   </g>
   <g id="patch_52">
    <path d="M 87.65625 168.735721 
C 255.05625 168.735721 255.05625 360.95505 422.45625 360.95505 
L 422.45625 354.461082 
C 255.05625 354.461082 255.05625 162.241754 87.65625 162.241754 
z
" clip-path="url(#paa3719a72d)" style="fill: #ff0000; opacity: 0.3"/>
   </g>
   <g id="patch_53">
    <path d="M 87.65625 228.042685 
C 255.05625 228.042685 255.05625 260.526028 422.45625 260.526028 
L 422.45625 254.692858 
C 255.05625 254.692858 255.05625 222.209515 87.65625 222.209515 
z
" clip-path="url(#paa3719a72d)" style="fill: #ab1f20; opacity: 0.3"/>
   </g>
   <g id="patch_54">
    <path d="M 87.65625 233.875855 
C 255.05625 233.875855 255.05625 272.167198 422.45625 272.167198 
L 422.45625 266.334028 
C 255.05625 266.334028 255.05625 228.042685 87.65625 228.042685 
z
" clip-path="url(#paa3719a72d)" style="fill: #ab1f20; opacity: 0.3"/>
   </g>
   <g id="patch_55">
    <path d="M 87.65625 314.795154 
C 255.05625 314.795154 255.05625 130.336592 422.45625 130.336592 
L 422.45625 124.503422 
C 255.05625 124.503422 255.05625 308.961984 87.65625 308.961984 
z
" clip-path="url(#paa3719a72d)" style="fill: #70453c; opacity: 0.3"/>
   </g>
   <g id="patch_56">
    <path d="M 87.65625 174.568892 
C 255.05625 174.568892 255.05625 344.671324 422.45625 344.671324 
L 422.45625 338.838154 
C 255.05625 338.838154 255.05625 168.735721 87.65625 168.735721 
z
" clip-path="url(#paa3719a72d)" style="fill: #ff0000; opacity: 0.3"/>
   </g>
   <g id="patch_57">
    <path d="M 87.65625 180.402062 
C 255.05625 180.402062 255.05625 329.048396 422.45625 329.048396 
L 422.45625 323.215226 
C 255.05625 323.215226 255.05625 174.568892 87.65625 174.568892 
z
" clip-path="url(#paa3719a72d)" style="fill: #ff0000; opacity: 0.3"/>
   </g>
   <g id="patch_58">
    <path d="M 87.65625 354.238438 
C 255.05625 354.238438 255.05625 106.368284 422.45625 106.368284 
L 422.45625 100.535114 
C 255.05625 100.535114 255.05625 348.405267 87.65625 348.405267 
z
" clip-path="url(#paa3719a72d)" style="fill: #765297; opacity: 0.3"/>
   </g>
   <g id="patch_59">
    <path d="M 87.65625 185.426481 
C 255.05625 185.426481 255.05625 277.191618 422.45625 277.191618 
L 422.45625 272.167198 
C 255.05625 272.167198 255.05625 180.402062 87.65625 180.402062 
z
" clip-path="url(#paa3719a72d)" style="fill: #ff0000; opacity: 0.3"/>
   </g>
   <g id="patch_60">
    <path d="M 87.65625 238.900274 
C 255.05625 238.900274 255.05625 135.361012 422.45625 135.361012 
L 422.45625 130.336592 
C 255.05625 130.336592 255.05625 233.875855 87.65625 233.875855 
z
" clip-path="url(#paa3719a72d)" style="fill: #ab1f20; opacity: 0.3"/>
   </g>
   <g id="patch_61">
    <path d="M 87.65625 243.924694 
C 255.05625 243.924694 255.05625 185.198571 422.45625 185.198571 
L 422.45625 180.174152 
C 255.05625 180.174152 255.05625 238.900274 87.65625 238.900274 
z
" clip-path="url(#paa3719a72d)" style="fill: #ab1f20; opacity: 0.3"/>
   </g>
   <g id="patch_62">
    <path d="M 87.65625 190.4509 
C 255.05625 190.4509 255.05625 371.78747 422.45625 371.78747 
L 422.45625 366.76305 
C 255.05625 366.76305 255.05625 185.426481 87.65625 185.426481 
z
" clip-path="url(#paa3719a72d)" style="fill: #ff0000; opacity: 0.3"/>
   </g>
   <g id="patch_63">
    <path d="M 87.65625 248.949113 
C 255.05625 248.949113 255.05625 157.396458 422.45625 157.396458 
L 422.45625 152.372039 
C 255.05625 152.372039 255.05625 243.924694 87.65625 243.924694 
z
" clip-path="url(#paa3719a72d)" style="fill: #ab1f20; opacity: 0.3"/>
   </g>
   <g id="patch_64">
    <path d="M 87.65625 334.633751 
C 255.05625 334.633751 255.05625 162.420877 422.45625 162.420877 
L 422.45625 157.396458 
C 255.05625 157.396458 255.05625 329.609332 87.65625 329.609332 
z
" clip-path="url(#paa3719a72d)" style="fill: #cc660b; opacity: 0.3"/>
   </g>
   <g id="patch_65">
    <path d="M 87.65625 319.819574 
C 255.05625 319.819574 255.05625 382.619889 422.45625 382.619889 
L 422.45625 377.59547 
C 255.05625 377.59547 255.05625 314.795154 87.65625 314.795154 
z
" clip-path="url(#paa3719a72d)" style="fill: #70453c; opacity: 0.3"/>
   </g>
   <g id="patch_66">
    <path d="M 87.65625 252.930871 
C 255.05625 252.930871 255.05625 348.653082 422.45625 348.653082 
L 422.45625 344.671324 
C 255.05625 344.671324 255.05625 248.949113 87.65625 248.949113 
z
" clip-path="url(#paa3719a72d)" style="fill: #ab1f20; opacity: 0.3"/>
   </g>
   <g id="patch_67">
    <path d="M 87.65625 256.912629 
C 255.05625 256.912629 255.05625 317.407226 422.45625 317.407226 
L 422.45625 313.425468 
C 255.05625 313.425468 255.05625 252.930871 87.65625 252.930871 
z
" clip-path="url(#paa3719a72d)" style="fill: #ab1f20; opacity: 0.3"/>
   </g>
   <g id="patch_68">
    <path d="M 87.65625 274.239016 
C 255.05625 274.239016 255.05625 299.653952 422.45625 299.653952 
L 422.45625 295.672193 
C 255.05625 295.672193 255.05625 270.257258 87.65625 270.257258 
z
" clip-path="url(#paa3719a72d)" style="fill: #008000; opacity: 0.3"/>
   </g>
   <g id="patch_69">
    <path d="M 87.65625 278.220774 
C 255.05625 278.220774 255.05625 333.030154 422.45625 333.030154 
L 422.45625 329.048396 
C 255.05625 329.048396 255.05625 274.239016 87.65625 274.239016 
z
" clip-path="url(#paa3719a72d)" style="fill: #008000; opacity: 0.3"/>
   </g>
   <g id="patch_70">
    <path d="M 87.65625 282.202532 
C 255.05625 282.202532 255.05625 421.778921 422.45625 421.778921 
L 422.45625 417.797163 
C 255.05625 417.797163 255.05625 278.220774 87.65625 278.220774 
z
" clip-path="url(#paa3719a72d)" style="fill: #008000; opacity: 0.3"/>
   </g>
   <g id="patch_71">
    <path d="M 87.65625 286.184291 
C 255.05625 286.184291 255.05625 392.409647 422.45625 392.409647 
L 422.45625 388.427889 
C 255.05625 388.427889 255.05625 282.202532 87.65625 282.202532 
z
" clip-path="url(#paa3719a72d)" style="fill: #008000; opacity: 0.3"/>
   </g>
   <g id="patch_72">
    <path d="M 87.65625 290.166049 
C 255.05625 290.166049 255.05625 431.568679 422.45625 431.568679 
L 422.45625 427.586921 
C 255.05625 427.586921 255.05625 286.184291 87.65625 286.184291 
z
" clip-path="url(#paa3719a72d)" style="fill: #008000; opacity: 0.3"/>
   </g>
   <g id="patch_73">
    <path d="M 87.65625 294.147807 
C 255.05625 294.147807 255.05625 281.173376 422.45625 281.173376 
L 422.45625 277.191618 
C 255.05625 277.191618 255.05625 290.166049 87.65625 290.166049 
z
" clip-path="url(#paa3719a72d)" style="fill: #008000; opacity: 0.3"/>
   </g>
   <g id="patch_74">
    <path d="M 87.65625 194.432658 
C 255.05625 194.432658 255.05625 402.199405 422.45625 402.199405 
L 422.45625 398.217647 
C 255.05625 398.217647 255.05625 190.4509 87.65625 190.4509 
z
" clip-path="url(#paa3719a72d)" style="fill: #ff0000; opacity: 0.3"/>
   </g>
   <g id="patch_75">
    <path d="M 87.65625 198.414417 
C 255.05625 198.414417 255.05625 441.358438 422.45625 441.358438 
L 422.45625 437.376679 
C 255.05625 437.376679 255.05625 194.432658 87.65625 194.432658 
z
" clip-path="url(#paa3719a72d)" style="fill: #ff0000; opacity: 0.3"/>
   </g>
   <g id="patch_76">
    <path d="M 87.65625 338.615509 
C 255.05625 338.615509 255.05625 411.989163 422.45625 411.989163 
L 422.45625 408.007405 
C 255.05625 408.007405 255.05625 334.633751 87.65625 334.633751 
z
" clip-path="url(#paa3719a72d)" style="fill: #cc660b; opacity: 0.3"/>
   </g>
   <g id="patch_77">
    <path d="M 87.65625 342.597267 
C 255.05625 342.597267 255.05625 189.180329 422.45625 189.180329 
L 422.45625 185.198571 
C 255.05625 185.198571 255.05625 338.615509 87.65625 338.615509 
z
" clip-path="url(#paa3719a72d)" style="fill: #cc660b; opacity: 0.3"/>
   </g>
   <g id="patch_78">
    <path d="M 87.65625 323.801332 
C 255.05625 323.801332 255.05625 215.319032 422.45625 215.319032 
L 422.45625 211.337274 
C 255.05625 211.337274 255.05625 319.819574 87.65625 319.819574 
z
" clip-path="url(#paa3719a72d)" style="fill: #70453c; opacity: 0.3"/>
   </g>
   <g id="patch_79">
    <path d="M 436.40625 70.812719 
C 603.80625 70.812719 603.80625 74.305506 771.20625 74.305506 
L 771.20625 63.838438 
C 603.80625 63.838438 603.80625 63.838438 436.40625 63.838438 
z
" clip-path="url(#paa3719a72d)" style="fill: #ab1f20; opacity: 0.3"/>
   </g>
   <g id="patch_80">
    <path d="M 436.40625 299.653952 
C 603.80625 299.653952 603.80625 84.772574 771.20625 84.772574 
L 771.20625 74.305506 
C 603.80625 74.305506 603.80625 286.981376 436.40625 286.981376 
z
" clip-path="url(#paa3719a72d)" style="fill: #ab1f20; opacity: 0.3"/>
   </g>
   <g id="patch_81">
    <path d="M 436.40625 76.979575 
C 603.80625 76.979575 603.80625 360.255431 771.20625 360.255431 
L 771.20625 351.000154 
C 603.80625 351.000154 603.80625 70.812719 436.40625 70.812719 
z
" clip-path="url(#paa3719a72d)" style="fill: #70453c; opacity: 0.3"/>
   </g>
   <g id="patch_82">
    <path d="M 436.40625 82.441078 
C 603.80625 82.441078 603.80625 276.644603 771.20625 276.644603 
L 771.20625 268.447927 
C 603.80625 268.447927 603.80625 76.979575 436.40625 76.979575 
z
" clip-path="url(#paa3719a72d)" style="fill: #70453c; opacity: 0.3"/>
   </g>
   <g id="patch_83">
    <path d="M 436.40625 421.778921 
C 603.80625 421.778921 603.80625 92.96925 771.20625 92.96925 
L 771.20625 84.772574 
C 603.80625 84.772574 603.80625 417.797163 436.40625 417.797163 
z
" clip-path="url(#paa3719a72d)" style="fill: #ab1f20; opacity: 0.3"/>
   </g>
   <g id="patch_84">
    <path d="M 436.40625 260.526028 
C 603.80625 260.526028 603.80625 101.165926 771.20625 101.165926 
L 771.20625 92.96925 
C 603.80625 92.96925 603.80625 245.396578 436.40625 245.396578 
z
" clip-path="url(#paa3719a72d)" style="fill: #ab1f20; opacity: 0.3"/>
   </g>
   <g id="patch_85">
    <path d="M 436.40625 203.917094 
C 603.80625 203.917094 603.80625 148.279731 771.20625 148.279731 
L 771.20625 140.083055 
C 603.80625 140.083055 603.80625 194.988329 436.40625 194.988329 
z
" clip-path="url(#paa3719a72d)" style="fill: #ab1f20; opacity: 0.3"/>
   </g>
   <g id="patch_86">
    <path d="M 436.40625 87.902581 
C 603.80625 87.902581 603.80625 156.476407 771.20625 156.476407 
L 771.20625 148.279731 
C 603.80625 148.279731 603.80625 82.441078 436.40625 82.441078 
z
" clip-path="url(#paa3719a72d)" style="fill: #ab1f20; opacity: 0.3"/>
   </g>
   <g id="patch_87">
    <path d="M 436.40625 150.07273 
C 603.80625 150.07273 603.80625 240.765852 771.20625 240.765852 
L 771.20625 233.218499 
C 603.80625 233.218499 603.80625 141.169012 436.40625 141.169012 
z
" clip-path="url(#paa3719a72d)" style="fill: #cc660b; opacity: 0.3"/>
   </g>
   <g id="patch_88">
    <path d="M 436.40625 281.173376 
C 603.80625 281.173376 603.80625 108.71328 771.20625 108.71328 
L 771.20625 101.165926 
C 603.80625 101.165926 603.80625 266.334028 436.40625 266.334028 
z
" clip-path="url(#paa3719a72d)" style="fill: #ab1f20; opacity: 0.3"/>
   </g>
   <g id="patch_89">
    <path d="M 436.40625 117.888492 
C 603.80625 117.888492 603.80625 199.696994 771.20625 199.696994 
L 771.20625 192.149641 
C 603.80625 192.149641 603.80625 112.176284 436.40625 112.176284 
z
" clip-path="url(#paa3719a72d)" style="fill: #70453c; opacity: 0.3"/>
   </g>
   <g id="patch_90">
    <path d="M 436.40625 123.019452 
C 603.80625 123.019452 603.80625 247.54522 771.20625 247.54522 
L 771.20625 240.765852 
C 603.80625 240.765852 603.80625 117.888492 436.40625 117.888492 
z
" clip-path="url(#paa3719a72d)" style="fill: #cc660b; opacity: 0.3"/>
   </g>
   <g id="patch_91">
    <path d="M 436.40625 329.048396 
C 603.80625 329.048396 603.80625 163.255775 771.20625 163.255775 
L 771.20625 156.476407 
C 603.80625 156.476407 603.80625 323.215226 436.40625 323.215226 
z
" clip-path="url(#paa3719a72d)" style="fill: #ab1f20; opacity: 0.3"/>
   </g>
   <g id="patch_92">
    <path d="M 436.40625 409.313834 
C 603.80625 409.313834 603.80625 206.476362 771.20625 206.476362 
L 771.20625 199.696994 
C 603.80625 199.696994 603.80625 408.007405 436.40625 408.007405 
z
" clip-path="url(#paa3719a72d)" style="fill: #70453c; opacity: 0.3"/>
   </g>
   <g id="patch_93">
    <path d="M 436.40625 380.581563 
C 603.80625 380.581563 603.80625 170.035143 771.20625 170.035143 
L 771.20625 163.255775 
C 603.80625 163.255775 603.80625 377.59547 436.40625 377.59547 
z
" clip-path="url(#paa3719a72d)" style="fill: #ab1f20; opacity: 0.3"/>
   </g>
   <g id="patch_94">
    <path d="M 436.40625 92.419721 
C 603.80625 92.419721 603.80625 372.842799 771.20625 372.842799 
L 771.20625 366.063431 
C 603.80625 366.063431 603.80625 87.902581 436.40625 87.902581 
z
" clip-path="url(#paa3719a72d)" style="fill: #765297; opacity: 0.3"/>
   </g>
   <g id="patch_95">
    <path d="M 436.40625 175.731686 
C 603.80625 175.731686 603.80625 114.552709 771.20625 114.552709 
L 771.20625 108.71328 
C 603.80625 108.71328 603.80625 168.228877 436.40625 168.228877 
z
" clip-path="url(#paa3719a72d)" style="fill: #ab1f20; opacity: 0.3"/>
   </g>
   <g id="patch_96">
    <path d="M 436.40625 127.439019 
C 603.80625 127.439019 603.80625 282.484033 771.20625 282.484033 
L 771.20625 276.644603 
C 603.80625 276.644603 603.80625 123.019452 436.40625 123.019452 
z
" clip-path="url(#paa3719a72d)" style="fill: #70453c; opacity: 0.3"/>
   </g>
   <g id="patch_97">
    <path d="M 436.40625 96.310575 
C 603.80625 96.310575 603.80625 324.289447 771.20625 324.289447 
L 771.20625 318.450017 
C 603.80625 318.450017 603.80625 92.419721 436.40625 92.419721 
z
" clip-path="url(#paa3719a72d)" style="fill: #70453c; opacity: 0.3"/>
   </g>
   <g id="patch_98">
    <path d="M 436.40625 131.858587 
C 603.80625 131.858587 603.80625 120.392139 771.20625 120.392139 
L 771.20625 114.552709 
C 603.80625 114.552709 603.80625 127.439019 436.40625 127.439019 
z
" clip-path="url(#paa3719a72d)" style="fill: #ab1f20; opacity: 0.3"/>
   </g>
   <g id="patch_99">
    <path d="M 436.40625 100.201428 
C 603.80625 100.201428 603.80625 212.315792 771.20625 212.315792 
L 771.20625 206.476362 
C 603.80625 206.476362 603.80625 96.310575 436.40625 96.310575 
z
" clip-path="url(#paa3719a72d)" style="fill: #70453c; opacity: 0.3"/>
   </g>
   <g id="patch_100">
    <path d="M 436.40625 210.278074 
C 603.80625 210.278074 603.80625 303.38674 771.20625 303.38674 
L 771.20625 297.54731 
C 603.80625 297.54731 603.80625 203.917094 436.40625 203.917094 
z
" clip-path="url(#paa3719a72d)" style="fill: #cc660b; opacity: 0.3"/>
   </g>
   <g id="patch_101">
    <path d="M 436.40625 183.234494 
C 603.80625 183.234494 603.80625 253.38465 771.20625 253.38465 
L 771.20625 247.54522 
C 603.80625 247.54522 603.80625 175.731686 436.40625 175.731686 
z
" clip-path="url(#paa3719a72d)" style="fill: #cc660b; opacity: 0.3"/>
   </g>
   <g id="patch_102">
    <path d="M 436.40625 156.961587 
C 603.80625 156.961587 603.80625 340.564515 771.20625 340.564515 
L 771.20625 334.725085 
C 603.80625 334.725085 603.80625 150.07273 436.40625 150.07273 
z
" clip-path="url(#paa3719a72d)" style="fill: #195f90; opacity: 0.3"/>
   </g>
   <g id="patch_103">
    <path d="M 436.40625 103.284856 
C 603.80625 103.284856 603.80625 308.014378 771.20625 308.014378 
L 771.20625 303.38674 
C 603.80625 303.38674 603.80625 100.201428 436.40625 100.201428 
z
" clip-path="url(#paa3719a72d)" style="fill: #cc660b; opacity: 0.3"/>
   </g>
   <g id="patch_104">
    <path d="M 436.40625 189.180329 
C 603.80625 189.180329 603.80625 312.642017 771.20625 312.642017 
L 771.20625 308.014378 
C 603.80625 308.014378 603.80625 183.234494 436.40625 183.234494 
z
" clip-path="url(#paa3719a72d)" style="fill: #cc660b; opacity: 0.3"/>
   </g>
   <g id="patch_105">
    <path d="M 436.40625 333.030154 
C 603.80625 333.030154 603.80625 345.192154 771.20625 345.192154 
L 771.20625 340.564515 
C 603.80625 340.564515 603.80625 329.048396 436.40625 329.048396 
z
" clip-path="url(#paa3719a72d)" style="fill: #195f90; opacity: 0.3"/>
   </g>
   <g id="patch_106">
    <path d="M 436.40625 135.361012 
C 603.80625 135.361012 603.80625 328.917085 771.20625 328.917085 
L 771.20625 324.289447 
C 603.80625 324.289447 603.80625 131.858587 436.40625 131.858587 
z
" clip-path="url(#paa3719a72d)" style="fill: #70453c; opacity: 0.3"/>
   </g>
   <g id="patch_107">
    <path d="M 436.40625 239.588578 
C 603.80625 239.588578 603.80625 125.019778 771.20625 125.019778 
L 771.20625 120.392139 
C 603.80625 120.392139 603.80625 221.127032 436.40625 221.127032 
z
" clip-path="url(#paa3719a72d)" style="fill: #ab1f20; opacity: 0.3"/>
   </g>
   <g id="patch_108">
    <path d="M 436.40625 410.20561 
C 603.80625 410.20561 603.80625 174.662781 771.20625 174.662781 
L 771.20625 170.035143 
C 603.80625 170.035143 603.80625 409.313834 436.40625 409.313834 
z
" clip-path="url(#paa3719a72d)" style="fill: #ab1f20; opacity: 0.3"/>
   </g>
   <g id="patch_109">
    <path d="M 436.40625 317.407226 
C 603.80625 317.407226 603.80625 129.647416 771.20625 129.647416 
L 771.20625 125.019778 
C 603.80625 125.019778 603.80625 305.461952 436.40625 305.461952 
z
" clip-path="url(#paa3719a72d)" style="fill: #ab1f20; opacity: 0.3"/>
   </g>
   <g id="patch_110">
    <path d="M 436.40625 411.097387 
C 603.80625 411.097387 603.80625 134.275055 771.20625 134.275055 
L 771.20625 129.647416 
C 603.80625 129.647416 603.80625 410.20561 436.40625 410.20561 
z
" clip-path="url(#paa3719a72d)" style="fill: #ab1f20; opacity: 0.3"/>
   </g>
   <g id="patch_111">
    <path d="M 436.40625 382.619889 
C 603.80625 382.619889 603.80625 216.943431 771.20625 216.943431 
L 771.20625 212.315792 
C 603.80625 212.315792 603.80625 380.581563 436.40625 380.581563 
z
" clip-path="url(#paa3719a72d)" style="fill: #70453c; opacity: 0.3"/>
   </g>
   <g id="patch_112">
    <path d="M 436.40625 106.368284 
C 603.80625 106.368284 603.80625 258.012289 771.20625 258.012289 
L 771.20625 253.38465 
C 603.80625 253.38465 603.80625 103.284856 436.40625 103.284856 
z
" clip-path="url(#paa3719a72d)" style="fill: #cc660b; opacity: 0.3"/>
   </g>
   <g id="patch_113">
    <path d="M 436.40625 215.319032 
C 603.80625 215.319032 603.80625 262.639927 771.20625 262.639927 
L 771.20625 258.012289 
C 603.80625 258.012289 603.80625 210.278074 436.40625 210.278074 
z
" clip-path="url(#paa3719a72d)" style="fill: #cc660b; opacity: 0.3"/>
   </g>
   <g id="patch_114">
    <path d="M 436.40625 348.653082 
C 603.80625 348.653082 603.80625 221.571069 771.20625 221.571069 
L 771.20625 216.943431 
C 603.80625 216.943431 603.80625 338.838154 436.40625 338.838154 
z
" clip-path="url(#paa3719a72d)" style="fill: #70453c; opacity: 0.3"/>
   </g>
   <g id="patch_115">
    <path d="M 436.40625 411.989163 
C 603.80625 411.989163 603.80625 383.278438 771.20625 383.278438 
L 771.20625 378.650799 
C 603.80625 378.650799 603.80625 411.097387 436.40625 411.097387 
z
" clip-path="url(#paa3719a72d)" style="fill: #70453c; opacity: 0.3"/>
   </g>
   <g id="patch_116">
    <path d="M 436.40625 162.420877 
C 603.80625 162.420877 603.80625 287.111672 771.20625 287.111672 
L 771.20625 282.484033 
C 603.80625 282.484033 603.80625 156.961587 436.40625 156.961587 
z
" clip-path="url(#paa3719a72d)" style="fill: #70453c; opacity: 0.3"/>
   </g>
   <g id="text_1">
    <text style="font-weight: 700; font-size: 10px; font-family: 'DejaVu Sans', 'Bitstream Vera Sans', 'Computer Modern Sans Serif', 'Lucida Grande', 'Verdana', 'Geneva', 'Lucid', 'Arial', 'Helvetica', 'Avant Garde', sans-serif; text-anchor: end" x="66.73125" y="133.74674" transform="rotate(-0 66.73125 133.74674)">TE_bottom</text>
   </g>
   <g id="text_2">
    <text style="font-weight: 700; font-size: 10px; font-family: 'DejaVu Sans', 'Bitstream Vera Sans', 'Computer Modern Sans Serif', 'Lucida Grande', 'Verdana', 'Geneva', 'Lucid', 'Arial', 'Helvetica', 'Avant Garde', sans-serif; text-anchor: end" x="66.73125" y="233.326898" transform="rotate(-0 66.73125 233.326898)">SINE</text>
   </g>
   <g id="text_3">
    <text style="font-weight: 700; font-size: 10px; font-family: 'DejaVu Sans', 'Bitstream Vera Sans', 'Computer Modern Sans Serif', 'Lucida Grande', 'Verdana', 'Geneva', 'Lucid', 'Arial', 'Helvetica', 'Avant Garde', sans-serif; text-anchor: end" x="66.73125" y="280.915468" transform="rotate(-0 66.73125 280.915468)">TE_top</text>
   </g>
   <g id="text_4">
    <text style="font-weight: 700; font-size: 10px; font-family: 'DejaVu Sans', 'Bitstream Vera Sans', 'Computer Modern Sans Serif', 'Lucida Grande', 'Verdana', 'Geneva', 'Lucid', 'Arial', 'Helvetica', 'Avant Garde', sans-serif; text-anchor: end" x="66.73125" y="314.637944" transform="rotate(-0 66.73125 314.637944)">LTR</text>
   </g>
   <g id="text_5">
    <text style="font-weight: 700; font-size: 10px; font-family: 'DejaVu Sans', 'Bitstream Vera Sans', 'Computer Modern Sans Serif', 'Lucida Grande', 'Verdana', 'Geneva', 'Lucid', 'Arial', 'Helvetica', 'Avant Garde', sans-serif; text-anchor: end" x="66.73125" y="338.862675" transform="rotate(-0 66.73125 338.862675)">LINE</text>
   </g>
   <g id="text_6">
    <text style="font-weight: 700; font-size: 10px; font-family: 'DejaVu Sans', 'Bitstream Vera Sans', 'Computer Modern Sans Serif', 'Lucida Grande', 'Verdana', 'Geneva', 'Lucid', 'Arial', 'Helvetica', 'Avant Garde', sans-serif; text-anchor: end" x="66.73125" y="354.081227" transform="rotate(-0 66.73125 354.081227)">SVA</text>
   </g>
   <g id="text_7">
    <text style="font-weight: 700; font-size: 10px; font-family: 'DejaVu Sans', 'Bitstream Vera Sans', 'Computer Modern Sans Serif', 'Lucida Grande', 'Verdana', 'Geneva', 'Lucid', 'Arial', 'Helvetica', 'Avant Garde', sans-serif; text-anchor: start" x="450.35625" y="87.823673" transform="rotate(-0 450.35625 87.823673)">Too general</text>
   </g>
   <g id="text_8">
    <text style="font-weight: 700; font-size: 10px; font-family: 'DejaVu Sans', 'Bitstream Vera Sans', 'Computer Modern Sans Serif', 'Lucida Grande', 'Verdana', 'Geneva', 'Lucid', 'Arial', 'Helvetica', 'Avant Garde', sans-serif; text-anchor: start" x="450.35625" y="126.48896" transform="rotate(-0 450.35625 126.48896)">Transcription and its regulation</text>
   </g>
   <g id="text_9">
    <text style="font-weight: 700; font-size: 10px; font-family: 'DejaVu Sans', 'Bitstream Vera Sans', 'Computer Modern Sans Serif', 'Lucida Grande', 'Verdana', 'Geneva', 'Lucid', 'Arial', 'Helvetica', 'Avant Garde', sans-serif; text-anchor: start" x="450.35625" y="154.476194" transform="rotate(-0 450.35625 154.476194)">Sensory system</text>
   </g>
   <g id="text_10">
    <text style="font-weight: 700; font-size: 10px; font-family: 'DejaVu Sans', 'Bitstream Vera Sans', 'Computer Modern Sans Serif', 'Lucida Grande', 'Verdana', 'Geneva', 'Lucid', 'Arial', 'Helvetica', 'Avant Garde', sans-serif; text-anchor: start" x="450.35625" y="181.424916" transform="rotate(-0 450.35625 181.424916)">Signaling pathways</text>
   </g>
   <g id="text_11">
    <text style="font-weight: 700; font-size: 10px; font-family: 'DejaVu Sans', 'Bitstream Vera Sans', 'Computer Modern Sans Serif', 'Lucida Grande', 'Verdana', 'Geneva', 'Lucid', 'Arial', 'Helvetica', 'Avant Garde', sans-serif; text-anchor: start" x="450.35625" y="207.83493" transform="rotate(-0 450.35625 207.83493)">Nervous system</text>
   </g>
   <g id="text_12">
    <text style="font-weight: 700; font-size: 10px; font-family: 'DejaVu Sans', 'Bitstream Vera Sans', 'Computer Modern Sans Serif', 'Lucida Grande', 'Verdana', 'Geneva', 'Lucid', 'Arial', 'Helvetica', 'Avant Garde', sans-serif; text-anchor: start" x="450.35625" y="233.078117" transform="rotate(-0 450.35625 233.078117)">Embryogenesis</text>
   </g>
   <g id="text_13">
    <text style="font-weight: 700; font-size: 10px; font-family: 'DejaVu Sans', 'Bitstream Vera Sans', 'Computer Modern Sans Serif', 'Lucida Grande', 'Verdana', 'Geneva', 'Lucid', 'Arial', 'Helvetica', 'Avant Garde', sans-serif; text-anchor: start" x="450.35625" y="255.681615" transform="rotate(-0 450.35625 255.681615)">Cell cycle/cell division</text>
   </g>
   <g id="text_14">
    <text style="font-weight: 700; font-size: 10px; font-family: 'DejaVu Sans', 'Bitstream Vera Sans', 'Computer Modern Sans Serif', 'Lucida Grande', 'Verdana', 'Geneva', 'Lucid', 'Arial', 'Helvetica', 'Avant Garde', sans-serif; text-anchor: start" x="450.35625" y="276.513077" transform="rotate(-0 450.35625 276.513077)">Mitochondrion</text>
   </g>
   <g id="text_15">
    <text style="font-weight: 700; font-size: 10px; font-family: 'DejaVu Sans', 'Bitstream Vera Sans', 'Computer Modern Sans Serif', 'Lucida Grande', 'Verdana', 'Geneva', 'Lucid', 'Arial', 'Helvetica', 'Avant Garde', sans-serif; text-anchor: start" x="450.35625" y="296.037976" transform="rotate(-0 450.35625 296.037976)">RNA splicing and processing</text>
   </g>
   <g id="text_16">
    <text style="font-weight: 700; font-size: 10px; font-family: 'DejaVu Sans', 'Bitstream Vera Sans', 'Computer Modern Sans Serif', 'Lucida Grande', 'Verdana', 'Geneva', 'Lucid', 'Arial', 'Helvetica', 'Avant Garde', sans-serif; text-anchor: start" x="450.35625" y="314.193964" transform="rotate(-0 450.35625 314.193964)">Exosomes and vesicles</text>
   </g>
   <g id="text_17">
    <text style="font-weight: 700; font-size: 10px; font-family: 'DejaVu Sans', 'Bitstream Vera Sans', 'Computer Modern Sans Serif', 'Lucida Grande', 'Verdana', 'Geneva', 'Lucid', 'Arial', 'Helvetica', 'Avant Garde', sans-serif; text-anchor: start" x="450.35625" y="330.882065" transform="rotate(-0 450.35625 330.882065)">Other immune processes</text>
   </g>
   <g id="text_18">
    <text style="font-weight: 700; font-size: 10px; font-family: 'DejaVu Sans', 'Bitstream Vera Sans', 'Computer Modern Sans Serif', 'Lucida Grande', 'Verdana', 'Geneva', 'Lucid', 'Arial', 'Helvetica', 'Avant Garde', sans-serif; text-anchor: start" x="450.35625" y="346.504993" transform="rotate(-0 450.35625 346.504993)">Chromatin structure</text>
   </g>
   <g id="text_19">
    <text style="font-weight: 700; font-size: 10px; font-family: 'DejaVu Sans', 'Bitstream Vera Sans', 'Computer Modern Sans Serif', 'Lucida Grande', 'Verdana', 'Geneva', 'Lucid', 'Arial', 'Helvetica', 'Avant Garde', sans-serif; text-anchor: start" x="450.35625" y="360.428379" transform="rotate(-0 450.35625 360.428379)">Protein ubiquitination and degradation</text>
   </g>
   <g id="text_20">
    <text style="font-weight: 700; font-size: 10px; font-family: 'DejaVu Sans', 'Bitstream Vera Sans', 'Computer Modern Sans Serif', 'Lucida Grande', 'Verdana', 'Geneva', 'Lucid', 'Arial', 'Helvetica', 'Avant Garde', sans-serif; text-anchor: start" x="450.35625" y="372.034635" transform="rotate(-0 450.35625 372.034635)">Cell adhesion</text>
   </g>
   <g id="text_21">
    <text style="font-weight: 700; font-size: 10px; font-family: 'DejaVu Sans', 'Bitstream Vera Sans', 'Computer Modern Sans Serif', 'Lucida Grande', 'Verdana', 'Geneva', 'Lucid', 'Arial', 'Helvetica', 'Avant Garde', sans-serif; text-anchor: start" x="450.35625" y="382.867054" transform="rotate(-0 450.35625 382.867054)">Metals metabolism</text>
   </g>
   <g id="text_22">
    <text style="font-weight: 700; font-size: 10px; font-family: 'DejaVu Sans', 'Bitstream Vera Sans', 'Computer Modern Sans Serif', 'Lucida Grande', 'Verdana', 'Geneva', 'Lucid', 'Arial', 'Helvetica', 'Avant Garde', sans-serif; text-anchor: start" x="450.35625" y="393.178143" transform="rotate(-0 450.35625 393.178143)">DNA recombination</text>
   </g>
   <g id="text_23">
    <text style="font-weight: 700; font-size: 10px; font-family: 'DejaVu Sans', 'Bitstream Vera Sans', 'Computer Modern Sans Serif', 'Lucida Grande', 'Verdana', 'Geneva', 'Lucid', 'Arial', 'Helvetica', 'Avant Garde', sans-serif; text-anchor: start" x="450.35625" y="402.928839" transform="rotate(-0 450.35625 402.928839)">Cell migration</text>
   </g>
   <g id="text_24">
    <text style="font-weight: 700; font-size: 10px; font-family: 'DejaVu Sans', 'Bitstream Vera Sans', 'Computer Modern Sans Serif', 'Lucida Grande', 'Verdana', 'Geneva', 'Lucid', 'Arial', 'Helvetica', 'Avant Garde', sans-serif; text-anchor: start" x="450.35625" y="412.757659" transform="rotate(-0 450.35625 412.757659)">Lipids metabolism</text>
   </g>
   <g id="text_25">
    <text style="font-weight: 700; font-size: 10px; font-family: 'DejaVu Sans', 'Bitstream Vera Sans', 'Computer Modern Sans Serif', 'Lucida Grande', 'Verdana', 'Geneva', 'Lucid', 'Arial', 'Helvetica', 'Avant Garde', sans-serif; text-anchor: start" x="450.35625" y="422.547417" transform="rotate(-0 450.35625 422.547417)">DNA repair</text>
   </g>
   <g id="text_26">
    <text style="font-weight: 700; font-size: 10px; font-family: 'DejaVu Sans', 'Bitstream Vera Sans', 'Computer Modern Sans Serif', 'Lucida Grande', 'Verdana', 'Geneva', 'Lucid', 'Arial', 'Helvetica', 'Avant Garde', sans-serif; text-anchor: start" x="450.35625" y="432.337175" transform="rotate(-0 450.35625 432.337175)">DNA replication</text>
   </g>
   <g id="text_27">
    <text style="font-weight: 700; font-size: 10px; font-family: 'DejaVu Sans', 'Bitstream Vera Sans', 'Computer Modern Sans Serif', 'Lucida Grande', 'Verdana', 'Geneva', 'Lucid', 'Arial', 'Helvetica', 'Avant Garde', sans-serif; text-anchor: start" x="450.35625" y="442.087871" transform="rotate(-0 450.35625 442.087871)">Ribosome biogenesis and translation itself</text>
   </g>
   <g id="text_28">
    <text style="font-size: 10px; font-family: 'DejaVu Sans', 'Bitstream Vera Sans', 'Computer Modern Sans Serif', 'Lucida Grande', 'Verdana', 'Geneva', 'Lucid', 'Arial', 'Helvetica', 'Avant Garde', sans-serif; text-anchor: start" x="792.13125" y="101.816121" transform="rotate(-0 792.13125 101.816121)">Alu</text>
   </g>
   <g id="text_29">
    <text style="font-size: 10px; font-family: 'DejaVu Sans', 'Bitstream Vera Sans', 'Computer Modern Sans Serif', 'Lucida Grande', 'Verdana', 'Geneva', 'Lucid', 'Arial', 'Helvetica', 'Avant Garde', sans-serif; text-anchor: start" x="792.13125" y="165.971723" transform="rotate(-0 792.13125 165.971723)">MIR</text>
   </g>
   <g id="text_30">
    <text style="font-size: 10px; font-family: 'DejaVu Sans', 'Bitstream Vera Sans', 'Computer Modern Sans Serif', 'Lucida Grande', 'Verdana', 'Geneva', 'Lucid', 'Arial', 'Helvetica', 'Avant Garde', sans-serif; text-anchor: start" x="792.13125" y="212.539445" transform="rotate(-0 792.13125 212.539445)">ERV1</text>
   </g>
   <g id="text_31">
    <text style="font-size: 10px; font-family: 'DejaVu Sans', 'Bitstream Vera Sans', 'Computer Modern Sans Serif', 'Lucida Grande', 'Verdana', 'Geneva', 'Lucid', 'Arial', 'Helvetica', 'Avant Garde', sans-serif; text-anchor: start" x="792.13125" y="250.688588" transform="rotate(-0 792.13125 250.688588)">L1</text>
   </g>
   <g id="text_32">
    <text style="font-size: 10px; font-family: 'DejaVu Sans', 'Bitstream Vera Sans', 'Computer Modern Sans Serif', 'Lucida Grande', 'Verdana', 'Geneva', 'Lucid', 'Arial', 'Helvetica', 'Avant Garde', sans-serif; text-anchor: start" x="792.13125" y="282.852994" transform="rotate(-0 792.13125 282.852994)">ERVL</text>
   </g>
   <g id="text_33">
    <text style="font-size: 10px; font-family: 'DejaVu Sans', 'Bitstream Vera Sans', 'Computer Modern Sans Serif', 'Lucida Grande', 'Verdana', 'Geneva', 'Lucid', 'Arial', 'Helvetica', 'Avant Garde', sans-serif; text-anchor: start" x="792.13125" y="307.854039" transform="rotate(-0 792.13125 307.854039)">CR1</text>
   </g>
   <g id="text_34">
    <text style="font-size: 10px; font-family: 'DejaVu Sans', 'Bitstream Vera Sans', 'Computer Modern Sans Serif', 'Lucida Grande', 'Verdana', 'Geneva', 'Lucid', 'Arial', 'Helvetica', 'Avant Garde', sans-serif; text-anchor: start" x="792.13125" y="326.442926" transform="rotate(-0 792.13125 326.442926)">Gypsy</text>
   </g>
   <g id="text_35">
    <text style="font-size: 10px; font-family: 'DejaVu Sans', 'Bitstream Vera Sans', 'Computer Modern Sans Serif', 'Lucida Grande', 'Verdana', 'Geneva', 'Lucid', 'Arial', 'Helvetica', 'Avant Garde', sans-serif; text-anchor: start" x="792.13125" y="342.717995" transform="rotate(-0 792.13125 342.717995)">hAT-Charlie</text>
   </g>
   <g id="text_36">
    <text style="font-size: 10px; font-family: 'DejaVu Sans', 'Bitstream Vera Sans', 'Computer Modern Sans Serif', 'Lucida Grande', 'Verdana', 'Geneva', 'Lucid', 'Arial', 'Helvetica', 'Avant Garde', sans-serif; text-anchor: start" x="792.13125" y="358.387167" transform="rotate(-0 792.13125 358.387167)">ERVL-MaLR</text>
   </g>
   <g id="text_37">
    <text style="font-size: 10px; font-family: 'DejaVu Sans', 'Bitstream Vera Sans', 'Computer Modern Sans Serif', 'Lucida Grande', 'Verdana', 'Geneva', 'Lucid', 'Arial', 'Helvetica', 'Avant Garde', sans-serif; text-anchor: start" x="792.13125" y="372.21249" transform="rotate(-0 792.13125 372.21249)">SVA</text>
   </g>
   <g id="text_38">
    <text style="font-size: 10px; font-family: 'DejaVu Sans', 'Bitstream Vera Sans', 'Computer Modern Sans Serif', 'Lucida Grande', 'Verdana', 'Geneva', 'Lucid', 'Arial', 'Helvetica', 'Avant Garde', sans-serif; text-anchor: start" x="792.13125" y="383.723993" transform="rotate(-0 792.13125 383.723993)">ERVK</text>
   </g>
   <g id="text_39">
    <g id="patch_117">
     <path d="M 399.88125 236.196867 
L 418.96875 236.196867 
Q 419.96875 236.196867 419.96875 235.196867 
L 419.96875 225.518742 
Q 419.96875 224.518742 418.96875 224.518742 
L 399.88125 224.518742 
Q 398.88125 224.518742 398.88125 225.518742 
L 398.88125 235.196867 
Q 398.88125 236.196867 399.88125 236.196867 
z
" style="fill: #ffffff; opacity: 0.7"/>
    </g>
    <text style="font-size: 10px; font-family: 'DejaVu Sans', 'Bitstream Vera Sans', 'Computer Modern Sans Serif', 'Lucida Grande', 'Verdana', 'Geneva', 'Lucid', 'Arial', 'Helvetica', 'Avant Garde', sans-serif; text-anchor: end" x="418.96875" y="233.11718" transform="rotate(-0 418.96875 233.11718)">162</text>
   </g>
   <g id="text_40">
    <g id="patch_118">
     <path d="M 406.24375 209.001864 
L 418.96875 209.001864 
Q 419.96875 209.001864 419.96875 208.001864 
L 419.96875 198.323739 
Q 419.96875 197.323739 418.96875 197.323739 
L 406.24375 197.323739 
Q 405.24375 197.323739 405.24375 198.323739 
L 405.24375 208.001864 
Q 405.24375 209.001864 406.24375 209.001864 
z
" style="fill: #ffffff; opacity: 0.7"/>
    </g>
    <text style="font-size: 10px; font-family: 'DejaVu Sans', 'Bitstream Vera Sans', 'Computer Modern Sans Serif', 'Lucida Grande', 'Verdana', 'Geneva', 'Lucid', 'Arial', 'Helvetica', 'Avant Garde', sans-serif; text-anchor: end" x="418.96875" y="205.922176" transform="rotate(-0 418.96875 205.922176)">90</text>
   </g>
   <g id="text_41">
    <g id="patch_119">
     <path d="M 406.24375 124.178916 
L 418.96875 124.178916 
Q 419.96875 124.178916 419.96875 123.178916 
L 419.96875 113.500791 
Q 419.96875 112.500791 418.96875 112.500791 
L 406.24375 112.500791 
Q 405.24375 112.500791 405.24375 113.500791 
L 405.24375 123.178916 
Q 405.24375 124.178916 406.24375 124.178916 
z
" style="fill: #ffffff; opacity: 0.7"/>
    </g>
    <text style="font-size: 10px; font-family: 'DejaVu Sans', 'Bitstream Vera Sans', 'Computer Modern Sans Serif', 'Lucida Grande', 'Verdana', 'Geneva', 'Lucid', 'Arial', 'Helvetica', 'Avant Garde', sans-serif; text-anchor: end" x="418.96875" y="121.099228" transform="rotate(-0 418.96875 121.099228)">29</text>
   </g>
   <g id="text_42">
    <g id="patch_120">
     <path d="M 406.24375 180.040577 
L 418.96875 180.040577 
Q 419.96875 180.040577 419.96875 179.040577 
L 419.96875 169.362452 
Q 419.96875 168.362452 418.96875 168.362452 
L 406.24375 168.362452 
Q 405.24375 168.362452 405.24375 169.362452 
L 405.24375 179.040577 
Q 405.24375 180.040577 406.24375 180.040577 
z
" style="fill: #ffffff; opacity: 0.7"/>
    </g>
    <text style="font-size: 10px; font-family: 'DejaVu Sans', 'Bitstream Vera Sans', 'Computer Modern Sans Serif', 'Lucida Grande', 'Verdana', 'Geneva', 'Lucid', 'Arial', 'Helvetica', 'Avant Garde', sans-serif; text-anchor: end" x="418.96875" y="176.96089" transform="rotate(-0 418.96875 176.96089)">26</text>
   </g>
   <g id="text_43">
    <g id="patch_121">
     <path d="M 406.24375 152.609588 
L 418.96875 152.609588 
Q 419.96875 152.609588 419.96875 151.609588 
L 419.96875 141.931463 
Q 419.96875 140.931463 418.96875 140.931463 
L 406.24375 140.931463 
Q 405.24375 140.931463 405.24375 141.931463 
L 405.24375 151.609588 
Q 405.24375 152.609588 406.24375 152.609588 
z
" style="fill: #ffffff; opacity: 0.7"/>
    </g>
    <text style="font-size: 10px; font-family: 'DejaVu Sans', 'Bitstream Vera Sans', 'Computer Modern Sans Serif', 'Lucida Grande', 'Verdana', 'Geneva', 'Lucid', 'Arial', 'Helvetica', 'Avant Garde', sans-serif; text-anchor: end" x="418.96875" y="149.5299" transform="rotate(-0 418.96875 149.5299)">21</text>
   </g>
   <g id="text_44">
    <g id="patch_122">
     <path d="M 406.24375 75.106295 
L 418.96875 75.106295 
Q 419.96875 75.106295 419.96875 74.106295 
L 419.96875 64.42817 
Q 419.96875 63.42817 418.96875 63.42817 
L 406.24375 63.42817 
Q 405.24375 63.42817 405.24375 64.42817 
L 405.24375 74.106295 
Q 405.24375 75.106295 406.24375 75.106295 
z
" style="fill: #ffffff; opacity: 0.7"/>
    </g>
    <text style="font-size: 10px; font-family: 'DejaVu Sans', 'Bitstream Vera Sans', 'Computer Modern Sans Serif', 'Lucida Grande', 'Verdana', 'Geneva', 'Lucid', 'Arial', 'Helvetica', 'Avant Garde', sans-serif; text-anchor: end" x="418.96875" y="72.026607" transform="rotate(-0 418.96875 72.026607)">19</text>
   </g>
   <g id="text_45">
    <g id="patch_123">
     <path d="M 406.24375 85.18323 
L 418.96875 85.18323 
Q 419.96875 85.18323 419.96875 84.18323 
L 419.96875 74.505105 
Q 419.96875 73.505105 418.96875 73.505105 
L 406.24375 73.505105 
Q 405.24375 73.505105 405.24375 74.505105 
L 405.24375 84.18323 
Q 405.24375 85.18323 406.24375 85.18323 
z
" style="fill: #ffffff; opacity: 0.7"/>
    </g>
    <text style="font-size: 10px; font-family: 'DejaVu Sans', 'Bitstream Vera Sans', 'Computer Modern Sans Serif', 'Lucida Grande', 'Verdana', 'Geneva', 'Lucid', 'Arial', 'Helvetica', 'Avant Garde', sans-serif; text-anchor: end" x="418.96875" y="82.103542" transform="rotate(-0 418.96875 82.103542)">12</text>
   </g>
   <g id="text_46">
    <g id="patch_124">
     <path d="M 406.24375 255.88378 
L 418.96875 255.88378 
Q 419.96875 255.88378 419.96875 254.88378 
L 419.96875 245.205655 
Q 419.96875 244.205655 418.96875 244.205655 
L 406.24375 244.205655 
Q 405.24375 244.205655 405.24375 245.205655 
L 405.24375 254.88378 
Q 405.24375 255.88378 406.24375 255.88378 
z
" style="fill: #ffffff; opacity: 0.7"/>
    </g>
    <text style="font-size: 10px; font-family: 'DejaVu Sans', 'Bitstream Vera Sans', 'Computer Modern Sans Serif', 'Lucida Grande', 'Verdana', 'Geneva', 'Lucid', 'Arial', 'Helvetica', 'Avant Garde', sans-serif; text-anchor: end" x="418.96875" y="252.804093" transform="rotate(-0 418.96875 252.804093)">12</text>
   </g>
   <g id="text_47">
    <g id="patch_125">
     <path d="M 406.24375 94.334459 
L 418.96875 94.334459 
Q 419.96875 94.334459 419.96875 93.334459 
L 419.96875 83.656334 
Q 419.96875 82.656334 418.96875 82.656334 
L 406.24375 82.656334 
Q 405.24375 82.656334 405.24375 83.656334 
L 405.24375 93.334459 
Q 405.24375 94.334459 406.24375 94.334459 
z
" style="fill: #ffffff; opacity: 0.7"/>
    </g>
    <text style="font-size: 10px; font-family: 'DejaVu Sans', 'Bitstream Vera Sans', 'Computer Modern Sans Serif', 'Lucida Grande', 'Verdana', 'Geneva', 'Lucid', 'Arial', 'Helvetica', 'Avant Garde', sans-serif; text-anchor: end" x="418.96875" y="91.254771" transform="rotate(-0 418.96875 91.254771)">11</text>
   </g>
   <g id="text_48">
    <g id="patch_126">
     <path d="M 406.24375 297.165847 
L 418.96875 297.165847 
Q 419.96875 297.165847 419.96875 296.165847 
L 419.96875 286.487722 
Q 419.96875 285.487722 418.96875 285.487722 
L 406.24375 285.487722 
Q 405.24375 285.487722 405.24375 286.487722 
L 405.24375 296.165847 
Q 405.24375 297.165847 406.24375 297.165847 
z
" style="fill: #ffffff; opacity: 0.7"/>
    </g>
    <text style="font-size: 10px; font-family: 'DejaVu Sans', 'Bitstream Vera Sans', 'Computer Modern Sans Serif', 'Lucida Grande', 'Verdana', 'Geneva', 'Lucid', 'Arial', 'Helvetica', 'Avant Garde', sans-serif; text-anchor: end" x="418.96875" y="294.08616" transform="rotate(-0 418.96875 294.08616)">10</text>
   </g>
   <g id="text_49">
    <g id="patch_127">
     <path d="M 412.60625 315.282772 
L 418.96875 315.282772 
Q 419.96875 315.282772 419.96875 314.282772 
L 419.96875 304.604647 
Q 419.96875 303.604647 418.96875 303.604647 
L 412.60625 303.604647 
Q 411.60625 303.604647 411.60625 304.604647 
L 411.60625 314.282772 
Q 411.60625 315.282772 412.60625 315.282772 
z
" style="fill: #ffffff; opacity: 0.7"/>
    </g>
    <text style="font-size: 10px; font-family: 'DejaVu Sans', 'Bitstream Vera Sans', 'Computer Modern Sans Serif', 'Lucida Grande', 'Verdana', 'Geneva', 'Lucid', 'Arial', 'Helvetica', 'Avant Garde', sans-serif; text-anchor: end" x="418.96875" y="312.203085" transform="rotate(-0 418.96875 312.203085)">8</text>
   </g>
   <g id="text_50">
    <g id="patch_128">
     <path d="M 412.60625 102.605862 
L 418.96875 102.605862 
Q 419.96875 102.605862 419.96875 101.605862 
L 419.96875 91.927737 
Q 419.96875 90.927737 418.96875 90.927737 
L 412.60625 90.927737 
Q 411.60625 90.927737 411.60625 91.927737 
L 411.60625 101.605862 
Q 411.60625 102.605862 412.60625 102.605862 
z
" style="fill: #ffffff; opacity: 0.7"/>
    </g>
    <text style="font-size: 10px; font-family: 'DejaVu Sans', 'Bitstream Vera Sans', 'Computer Modern Sans Serif', 'Lucida Grande', 'Verdana', 'Geneva', 'Lucid', 'Arial', 'Helvetica', 'Avant Garde', sans-serif; text-anchor: end" x="418.96875" y="99.526174" transform="rotate(-0 418.96875 99.526174)">7</text>
   </g>
   <g id="text_51">
    <g id="patch_129">
     <path d="M 412.60625 363.547129 
L 418.96875 363.547129 
Q 419.96875 363.547129 419.96875 362.547129 
L 419.96875 352.869004 
Q 419.96875 351.869004 418.96875 351.869004 
L 412.60625 351.869004 
Q 411.60625 351.869004 411.60625 352.869004 
L 411.60625 362.547129 
Q 411.60625 363.547129 412.60625 363.547129 
z
" style="fill: #ffffff; opacity: 0.7"/>
    </g>
    <text style="font-size: 10px; font-family: 'DejaVu Sans', 'Bitstream Vera Sans', 'Computer Modern Sans Serif', 'Lucida Grande', 'Verdana', 'Geneva', 'Lucid', 'Arial', 'Helvetica', 'Avant Garde', sans-serif; text-anchor: end" x="418.96875" y="360.467441" transform="rotate(-0 418.96875 360.467441)">5</text>
   </g>
   <g id="text_52">
    <g id="patch_130">
     <path d="M 439.89375 73.164641 
L 452.61875 73.164641 
Q 453.61875 73.164641 453.61875 72.164641 
L 453.61875 62.486516 
Q 453.61875 61.486516 452.61875 61.486516 
L 439.89375 61.486516 
Q 438.89375 61.486516 438.89375 62.486516 
L 438.89375 72.164641 
Q 438.89375 73.164641 439.89375 73.164641 
z
" style="fill: #ffffff; opacity: 0.7"/>
    </g>
    <text style="font-size: 10px; font-family: 'DejaVu Sans', 'Bitstream Vera Sans', 'Computer Modern Sans Serif', 'Lucida Grande', 'Verdana', 'Geneva', 'Lucid', 'Arial', 'Helvetica', 'Avant Garde', sans-serif; text-anchor: start" x="439.89375" y="70.084953" transform="rotate(-0 439.89375 70.084953)">11</text>
   </g>
   <g id="text_53">
    <g id="patch_131">
     <path d="M 439.89375 299.156726 
L 452.61875 299.156726 
Q 453.61875 299.156726 453.61875 298.156726 
L 453.61875 288.478601 
Q 453.61875 287.478601 452.61875 287.478601 
L 439.89375 287.478601 
Q 438.89375 287.478601 438.89375 288.478601 
L 438.89375 298.156726 
Q 438.89375 299.156726 439.89375 299.156726 
z
" style="fill: #ffffff; opacity: 0.7"/>
    </g>
    <text style="font-size: 10px; font-family: 'DejaVu Sans', 'Bitstream Vera Sans', 'Computer Modern Sans Serif', 'Lucida Grande', 'Verdana', 'Geneva', 'Lucid', 'Arial', 'Helvetica', 'Avant Garde', sans-serif; text-anchor: start" x="439.89375" y="296.077039" transform="rotate(-0 439.89375 296.077039)">11</text>
   </g>
   <g id="text_54">
    <g id="patch_132">
     <path d="M 439.89375 79.735209 
L 446.25625 79.735209 
Q 447.25625 79.735209 447.25625 78.735209 
L 447.25625 69.057084 
Q 447.25625 68.057084 446.25625 68.057084 
L 439.89375 68.057084 
Q 438.89375 68.057084 438.89375 69.057084 
L 438.89375 78.735209 
Q 438.89375 79.735209 439.89375 79.735209 
z
" style="fill: #ffffff; opacity: 0.7"/>
    </g>
    <text style="font-size: 10px; font-family: 'DejaVu Sans', 'Bitstream Vera Sans', 'Computer Modern Sans Serif', 'Lucida Grande', 'Verdana', 'Geneva', 'Lucid', 'Arial', 'Helvetica', 'Avant Garde', sans-serif; text-anchor: start" x="439.89375" y="76.655522" transform="rotate(-0 439.89375 76.655522)">8</text>
   </g>
   <g id="text_55">
    <g id="patch_133">
     <path d="M 439.89375 85.549389 
L 446.25625 85.549389 
Q 447.25625 85.549389 447.25625 84.549389 
L 447.25625 74.871264 
Q 447.25625 73.871264 446.25625 73.871264 
L 439.89375 73.871264 
Q 438.89375 73.871264 438.89375 74.871264 
L 438.89375 84.549389 
Q 438.89375 85.549389 439.89375 85.549389 
z
" style="fill: #ffffff; opacity: 0.7"/>
    </g>
    <text style="font-size: 10px; font-family: 'DejaVu Sans', 'Bitstream Vera Sans', 'Computer Modern Sans Serif', 'Lucida Grande', 'Verdana', 'Geneva', 'Lucid', 'Arial', 'Helvetica', 'Avant Garde', sans-serif; text-anchor: start" x="439.89375" y="82.469702" transform="rotate(-0 439.89375 82.469702)">6</text>
   </g>
   <g id="text_56">
    <g id="patch_134">
     <path d="M 439.89375 425.627105 
L 446.25625 425.627105 
Q 447.25625 425.627105 447.25625 424.627105 
L 447.25625 414.94898 
Q 447.25625 413.94898 446.25625 413.94898 
L 439.89375 413.94898 
Q 438.89375 413.94898 438.89375 414.94898 
L 438.89375 424.627105 
Q 438.89375 425.627105 439.89375 425.627105 
z
" style="fill: #ffffff; opacity: 0.7"/>
    </g>
    <text style="font-size: 10px; font-family: 'DejaVu Sans', 'Bitstream Vera Sans', 'Computer Modern Sans Serif', 'Lucida Grande', 'Verdana', 'Geneva', 'Lucid', 'Arial', 'Helvetica', 'Avant Garde', sans-serif; text-anchor: start" x="439.89375" y="422.547417" transform="rotate(-0 439.89375 422.547417)">6</text>
   </g>
   <g id="text_57">
    <g id="patch_135">
     <path d="M 439.89375 258.800365 
L 446.25625 258.800365 
Q 447.25625 258.800365 447.25625 257.800365 
L 447.25625 248.12224 
Q 447.25625 247.12224 446.25625 247.12224 
L 439.89375 247.12224 
Q 438.89375 247.12224 438.89375 248.12224 
L 438.89375 257.800365 
Q 438.89375 258.800365 439.89375 258.800365 
z
" style="fill: #ffffff; opacity: 0.7"/>
    </g>
    <text style="font-size: 10px; font-family: 'DejaVu Sans', 'Bitstream Vera Sans', 'Computer Modern Sans Serif', 'Lucida Grande', 'Verdana', 'Geneva', 'Lucid', 'Arial', 'Helvetica', 'Avant Garde', sans-serif; text-anchor: start" x="439.89375" y="255.720678" transform="rotate(-0 439.89375 255.720678)">6</text>
   </g>
   <g id="text_58">
    <g id="patch_136">
     <path d="M 439.89375 205.291774 
L 446.25625 205.291774 
Q 447.25625 205.291774 447.25625 204.291774 
L 447.25625 194.613649 
Q 447.25625 193.613649 446.25625 193.613649 
L 439.89375 193.613649 
Q 438.89375 193.613649 438.89375 194.613649 
L 438.89375 204.291774 
Q 438.89375 205.291774 439.89375 205.291774 
z
" style="fill: #ffffff; opacity: 0.7"/>
    </g>
    <text style="font-size: 10px; font-family: 'DejaVu Sans', 'Bitstream Vera Sans', 'Computer Modern Sans Serif', 'Lucida Grande', 'Verdana', 'Geneva', 'Lucid', 'Arial', 'Helvetica', 'Avant Garde', sans-serif; text-anchor: start" x="439.89375" y="202.212086" transform="rotate(-0 439.89375 202.212086)">6</text>
   </g>
   <g id="text_59">
    <g id="patch_137">
     <path d="M 439.89375 91.010892 
L 446.25625 91.010892 
Q 447.25625 91.010892 447.25625 90.010892 
L 447.25625 80.332767 
Q 447.25625 79.332767 446.25625 79.332767 
L 439.89375 79.332767 
Q 438.89375 79.332767 438.89375 80.332767 
L 438.89375 90.010892 
Q 438.89375 91.010892 439.89375 91.010892 
z
" style="fill: #ffffff; opacity: 0.7"/>
    </g>
    <text style="font-size: 10px; font-family: 'DejaVu Sans', 'Bitstream Vera Sans', 'Computer Modern Sans Serif', 'Lucida Grande', 'Verdana', 'Geneva', 'Lucid', 'Arial', 'Helvetica', 'Avant Garde', sans-serif; text-anchor: start" x="439.89375" y="87.931204" transform="rotate(-0 439.89375 87.931204)">6</text>
   </g>
   <g id="text_60">
    <g id="patch_138">
     <path d="M 439.89375 151.459933 
L 446.25625 151.459933 
Q 447.25625 151.459933 447.25625 150.459933 
L 447.25625 140.781808 
Q 447.25625 139.781808 446.25625 139.781808 
L 439.89375 139.781808 
Q 438.89375 139.781808 438.89375 140.781808 
L 438.89375 150.459933 
Q 438.89375 151.459933 439.89375 151.459933 
z
" style="fill: #ffffff; opacity: 0.7"/>
    </g>
    <text style="font-size: 10px; font-family: 'DejaVu Sans', 'Bitstream Vera Sans', 'Computer Modern Sans Serif', 'Lucida Grande', 'Verdana', 'Geneva', 'Lucid', 'Arial', 'Helvetica', 'Avant Garde', sans-serif; text-anchor: start" x="439.89375" y="148.380246" transform="rotate(-0 439.89375 148.380246)">5</text>
   </g>
   <g id="text_61">
    <g id="patch_139">
     <path d="M 439.89375 279.592765 
L 446.25625 279.592765 
Q 447.25625 279.592765 447.25625 278.592765 
L 447.25625 268.91464 
Q 447.25625 267.91464 446.25625 267.91464 
L 439.89375 267.91464 
Q 438.89375 267.91464 438.89375 268.91464 
L 438.89375 278.592765 
Q 438.89375 279.592765 439.89375 279.592765 
z
" style="fill: #ffffff; opacity: 0.7"/>
    </g>
    <text style="font-size: 10px; font-family: 'DejaVu Sans', 'Bitstream Vera Sans', 'Computer Modern Sans Serif', 'Lucida Grande', 'Verdana', 'Geneva', 'Lucid', 'Arial', 'Helvetica', 'Avant Garde', sans-serif; text-anchor: start" x="439.89375" y="276.513077" transform="rotate(-0 439.89375 276.513077)">5</text>
   </g>
   <g id="text_62">
    <g id="patch_140">
     <path d="M 439.89375 120.871451 
L 446.25625 120.871451 
Q 447.25625 120.871451 447.25625 119.871451 
L 447.25625 110.193326 
Q 447.25625 109.193326 446.25625 109.193326 
L 439.89375 109.193326 
Q 438.89375 109.193326 438.89375 110.193326 
L 438.89375 119.871451 
Q 438.89375 120.871451 439.89375 120.871451 
z
" style="fill: #ffffff; opacity: 0.7"/>
    </g>
    <text style="font-size: 10px; font-family: 'DejaVu Sans', 'Bitstream Vera Sans', 'Computer Modern Sans Serif', 'Lucida Grande', 'Verdana', 'Geneva', 'Lucid', 'Arial', 'Helvetica', 'Avant Garde', sans-serif; text-anchor: start" x="439.89375" y="117.791763" transform="rotate(-0 439.89375 117.791763)">5</text>
   </g>
   <g id="text_63">
    <text style="font-weight: 700; font-size: 10px; font-family: 'DejaVu Sans', 'Bitstream Vera Sans', 'Computer Modern Sans Serif', 'Lucida Grande', 'Verdana', 'Geneva', 'Lucid', 'Arial', 'Helvetica', 'Avant Garde', sans-serif; text-anchor: middle" x="429.43125" y="14.798437" transform="rotate(-0 429.43125 14.798437)">Sankey: TE Class → Functional Group → TE Family (Log10 Scale)</text>
   </g>
  </g>
 </g>
 <defs>
  <clipPath id="paa3719a72d">
   <rect x="10.93125" y="34.798437" width="837" height="609.84"/>
  </clipPath>
 </defs>
</svg>
