<?xml version="1.0" encoding="utf-8" standalone="no"?>
<!DOCTYPE svg PUBLIC "-//W3C//DTD SVG 1.1//EN"
  "http://www.w3.org/Graphics/SVG/1.1/DTD/svg11.dtd">
<svg xmlns:xlink="http://www.w3.org/1999/xlink" width="1339884pt" height="512.394375pt" viewBox="0 0 1339884 512.394375" xmlns="http://www.w3.org/2000/svg" version="1.1">
 <metadata>
  <rdf:RDF xmlns:dc="http://purl.org/dc/elements/1.1/" xmlns:cc="http://creativecommons.org/ns#" xmlns:rdf="http://www.w3.org/1999/02/22-rdf-syntax-ns#">
   <cc:Work>
    <dc:type rdf:resource="http://purl.org/dc/dcmitype/StillImage"/>
    <dc:date>2026-01-11T17:35:42.706049</dc:date>
    <dc:format>image/svg+xml</dc:format>
    <dc:creator>
     <cc:Agent>
      <dc:title>Matplotlib v3.10.8, https://matplotlib.org/</dc:title>
     </cc:Agent>
    </dc:creator>
   </cc:Work>
  </rdf:RDF>
 </metadata>
 <defs>
  <style type="text/css">*{stroke-linejoin: round; stroke-linecap: butt}</style>
 </defs>
 <g id="figure_1">
  <g id="patch_1">
   <path d="M 0 512.394375 
L 1339884 512.394375 
L 1339884 0 
L 0 0 
L 0 512.394375 
z
" style="fill: none"/>
  </g>
  <g id="axes_1">
   <g id="patch_2">
    <path d="M 1339207.2 474.838125 
L 1339876.8 474.838125 
L 1339876.8 31.318125 
L 1339207.2 31.318125 
L 1339207.2 474.838125 
z
" style="fill: none"/>
   </g>
   <g id="patch_3">
    <path d="M 1339207.2 454.678125 
L 1339810.192931 454.678125 
L 1339810.192931 421.763839 
L 1339207.2 421.763839 
z
" clip-path="url(#pcf16f023be)" style="fill: #3b4cc0"/>
   </g>
   <g id="patch_4">
    <path d="M 1339207.2 413.535268 
L 1339832.199215 413.535268 
L 1339832.199215 380.620982 
L 1339207.2 380.620982 
z
" clip-path="url(#pcf16f023be)" style="fill: #3b4cc0"/>
   </g>
   <g id="patch_5">
    <path d="M 1339207.2 372.392411 
L 1339840.797582 372.392411 
L 1339840.797582 339.478125 
L 1339207.2 339.478125 
z
" clip-path="url(#pcf16f023be)" style="fill: #3b4cc0"/>
   </g>
   <g id="patch_6">
    <path d="M 1339207.2 331.249554 
L 1339846.991174 331.249554 
L 1339846.991174 298.335268 
L 1339207.2 298.335268 
z
" clip-path="url(#pcf16f023be)" style="fill: #3b4cc0"/>
   </g>
   <g id="patch_7">
    <path d="M 1339207.2 290.106696 
L 1339853.963291 290.106696 
L 1339853.963291 257.192411 
L 1339207.2 257.192411 
z
" clip-path="url(#pcf16f023be)" style="fill: #3b4cc0"/>
   </g>
   <g id="patch_8">
    <path d="M 1339207.2 248.963839 
L 1339856.541071 248.963839 
L 1339856.541071 216.049554 
L 1339207.2 216.049554 
z
" clip-path="url(#pcf16f023be)" style="fill: #3b4cc0"/>
   </g>
   <g id="patch_9">
    <path d="M 1339207.2 207.820982 
L 1339858.963146 207.820982 
L 1339858.963146 174.906696 
L 1339207.2 174.906696 
z
" clip-path="url(#pcf16f023be)" style="fill: #3b4cc0"/>
   </g>
   <g id="patch_10">
    <path d="M 1339207.2 166.678125 
L 1339859.655167 166.678125 
L 1339859.655167 133.763839 
L 1339207.2 133.763839 
z
" clip-path="url(#pcf16f023be)" style="fill: #3b4cc0"/>
   </g>
   <g id="patch_11">
    <path d="M 1339207.2 125.535268 
L 1339862.578958 125.535268 
L 1339862.578958 92.620982 
L 1339207.2 92.620982 
z
" clip-path="url(#pcf16f023be)" style="fill: #3b4cc0"/>
   </g>
   <g id="patch_12">
    <path d="M 1339207.2 84.392411 
L 1339863.703493 84.392411 
L 1339863.703493 51.478125 
L 1339207.2 51.478125 
z
" clip-path="url(#pcf16f023be)" style="fill: #3b4cc0"/>
   </g>
   <g id="patch_13">
    <path d="M 1339810.192931 454.678125 
L 1339869.412671 454.678125 
L 1339869.412671 421.763839 
L 1339810.192931 421.763839 
z
" clip-path="url(#pcf16f023be)" style="fill: #7b9ff9"/>
   </g>
   <g id="patch_14">
    <path d="M 1339832.199215 413.535268 
L 1339871.748243 413.535268 
L 1339871.748243 380.620982 
L 1339832.199215 380.620982 
z
" clip-path="url(#pcf16f023be)" style="fill: #7b9ff9"/>
   </g>
   <g id="patch_15">
    <path d="M 1339840.797582 372.392411 
L 1339874.810438 372.392411 
L 1339874.810438 339.478125 
L 1339840.797582 339.478125 
z
" clip-path="url(#pcf16f023be)" style="fill: #7b9ff9"/>
   </g>
   <g id="patch_16">
    <path d="M 1339846.991174 331.249554 
L 1339875.035345 331.249554 
L 1339875.035345 298.335268 
L 1339846.991174 298.335268 
z
" clip-path="url(#pcf16f023be)" style="fill: #7b9ff9"/>
   </g>
   <g id="patch_17">
    <path d="M 1339853.963291 290.106696 
L 1339874.55093 290.106696 
L 1339874.55093 257.192411 
L 1339853.963291 257.192411 
z
" clip-path="url(#pcf16f023be)" style="fill: #7b9ff9"/>
   </g>
   <g id="patch_18">
    <path d="M 1339856.541071 248.963839 
L 1339875.104547 248.963839 
L 1339875.104547 216.049554 
L 1339856.541071 216.049554 
z
" clip-path="url(#pcf16f023be)" style="fill: #7b9ff9"/>
   </g>
   <g id="patch_19">
    <path d="M 1339858.963146 207.820982 
L 1339876.48859 207.820982 
L 1339876.48859 174.906696 
L 1339858.963146 174.906696 
z
" clip-path="url(#pcf16f023be)" style="fill: #7b9ff9"/>
   </g>
   <g id="patch_20">
    <path d="M 1339859.655167 166.678125 
L 1339876.056077 166.678125 
L 1339876.056077 133.763839 
L 1339859.655167 133.763839 
z
" clip-path="url(#pcf16f023be)" style="fill: #7b9ff9"/>
   </g>
   <g id="patch_21">
    <path d="M 1339862.578958 125.535268 
L 1339875.779268 125.535268 
L 1339875.779268 92.620982 
L 1339862.578958 92.620982 
z
" clip-path="url(#pcf16f023be)" style="fill: #7b9ff9"/>
   </g>
   <g id="patch_22">
    <path d="M 1339863.703493 84.392411 
L 1339875.658165 84.392411 
L 1339875.658165 51.478125 
L 1339863.703493 51.478125 
z
" clip-path="url(#pcf16f023be)" style="fill: #7b9ff9"/>
   </g>
   <g id="patch_23">
    <path d="M 1339869.412671 454.678125 
L 1339875.779268 454.678125 
L 1339875.779268 421.763839 
L 1339869.412671 421.763839 
z
" clip-path="url(#pcf16f023be)" style="fill: #c0d4f5"/>
   </g>
   <g id="patch_24">
    <path d="M 1339871.748243 413.535268 
L 1339876.419388 413.535268 
L 1339876.419388 380.620982 
L 1339871.748243 380.620982 
z
" clip-path="url(#pcf16f023be)" style="fill: #c0d4f5"/>
   </g>
   <g id="patch_25">
    <path d="M 1339874.810438 372.392411 
L 1339876.540492 372.392411 
L 1339876.540492 339.478125 
L 1339874.810438 339.478125 
z
" clip-path="url(#pcf16f023be)" style="fill: #c0d4f5"/>
   </g>
   <g id="patch_26">
    <path d="M 1339875.035345 331.249554 
L 1339876.730798 331.249554 
L 1339876.730798 298.335268 
L 1339875.035345 298.335268 
z
" clip-path="url(#pcf16f023be)" style="fill: #c0d4f5"/>
   </g>
   <g id="patch_27">
    <path d="M 1339874.55093 290.106696 
L 1339876.419388 290.106696 
L 1339876.419388 257.192411 
L 1339874.55093 257.192411 
z
" clip-path="url(#pcf16f023be)" style="fill: #c0d4f5"/>
   </g>
   <g id="patch_28">
    <path d="M 1339875.104547 248.963839 
L 1339876.626995 248.963839 
L 1339876.626995 216.049554 
L 1339875.104547 216.049554 
z
" clip-path="url(#pcf16f023be)" style="fill: #c0d4f5"/>
   </g>
   <g id="patch_29">
    <path d="M 1339876.48859 207.820982 
L 1339876.8 207.820982 
L 1339876.8 174.906696 
L 1339876.48859 174.906696 
z
" clip-path="url(#pcf16f023be)" style="fill: #c0d4f5"/>
   </g>
   <g id="patch_30">
    <path d="M 1339876.056077 166.678125 
L 1339876.730798 166.678125 
L 1339876.730798 133.763839 
L 1339876.056077 133.763839 
z
" clip-path="url(#pcf16f023be)" style="fill: #c0d4f5"/>
   </g>
   <g id="patch_31">
    <path d="M 1339875.779268 125.535268 
L 1339876.678896 125.535268 
L 1339876.678896 92.620982 
L 1339875.779268 92.620982 
z
" clip-path="url(#pcf16f023be)" style="fill: #c0d4f5"/>
   </g>
   <g id="patch_32">
    <path d="M 1339875.658165 84.392411 
L 1339876.678896 84.392411 
L 1339876.678896 51.478125 
L 1339875.658165 51.478125 
z
" clip-path="url(#pcf16f023be)" style="fill: #c0d4f5"/>
   </g>
   <g id="patch_33">
    <path d="M 1339875.779268 454.678125 
L 1339876.696197 454.678125 
L 1339876.696197 421.763839 
L 1339875.779268 421.763839 
z
" clip-path="url(#pcf16f023be)" style="fill: #f2cbb7"/>
   </g>
   <g id="patch_34">
    <path d="M 1339876.419388 413.535268 
L 1339876.782699 413.535268 
L 1339876.782699 380.620982 
L 1339876.419388 380.620982 
z
" clip-path="url(#pcf16f023be)" style="fill: #f2cbb7"/>
   </g>
   <g id="patch_35">
    <path d="M 1339876.540492 372.392411 
L 1339876.730798 372.392411 
L 1339876.730798 339.478125 
L 1339876.540492 339.478125 
z
" clip-path="url(#pcf16f023be)" style="fill: #f2cbb7"/>
   </g>
   <g id="patch_36">
    <path d="M 1339876.730798 331.249554 
L 1339876.782699 331.249554 
L 1339876.782699 298.335268 
L 1339876.730798 298.335268 
z
" clip-path="url(#pcf16f023be)" style="fill: #f2cbb7"/>
   </g>
   <g id="patch_37">
    <path d="M 1339876.419388 290.106696 
L 1339876.765399 290.106696 
L 1339876.765399 257.192411 
L 1339876.419388 257.192411 
z
" clip-path="url(#pcf16f023be)" style="fill: #f2cbb7"/>
   </g>
   <g id="patch_38">
    <path d="M 1339876.626995 248.963839 
L 1339876.8 248.963839 
L 1339876.8 216.049554 
L 1339876.626995 216.049554 
z
" clip-path="url(#pcf16f023be)" style="fill: #f2cbb7"/>
   </g>
   <g id="patch_39">
    <path d="M 1339876.8 207.820982 
L 1339876.8 207.820982 
L 1339876.8 174.906696 
L 1339876.8 174.906696 
z
" clip-path="url(#pcf16f023be)" style="fill: #f2cbb7"/>
   </g>
   <g id="patch_40">
    <path d="M 1339876.730798 166.678125 
L 1339876.8 166.678125 
L 1339876.8 133.763839 
L 1339876.730798 133.763839 
z
" clip-path="url(#pcf16f023be)" style="fill: #f2cbb7"/>
   </g>
   <g id="patch_41">
    <path d="M 1339876.678896 125.535268 
L 1339876.782699 125.535268 
L 1339876.782699 92.620982 
L 1339876.678896 92.620982 
z
" clip-path="url(#pcf16f023be)" style="fill: #f2cbb7"/>
   </g>
   <g id="patch_42">
    <path d="M 1339876.678896 84.392411 
L 1339876.782699 84.392411 
L 1339876.782699 51.478125 
L 1339876.678896 51.478125 
z
" clip-path="url(#pcf16f023be)" style="fill: #f2cbb7"/>
   </g>
   <g id="patch_43">
    <path d="M 1339876.696197 454.678125 
L 1339876.8 454.678125 
L 1339876.8 421.763839 
L 1339876.696197 421.763839 
z
" clip-path="url(#pcf16f023be)" style="fill: #ee8468"/>
   </g>
   <g id="patch_44">
    <path d="M 1339876.782699 413.535268 
L 1339876.8 413.535268 
L 1339876.8 380.620982 
L 1339876.782699 380.620982 
z
" clip-path="url(#pcf16f023be)" style="fill: #ee8468"/>
   </g>
   <g id="patch_45">
    <path d="M 1339876.730798 372.392411 
L 1339876.782699 372.392411 
L 1339876.782699 339.478125 
L 1339876.730798 339.478125 
z
" clip-path="url(#pcf16f023be)" style="fill: #ee8468"/>
   </g>
   <g id="patch_46">
    <path d="M 1339876.782699 331.249554 
L 1339876.782699 331.249554 
L 1339876.782699 298.335268 
L 1339876.782699 298.335268 
z
" clip-path="url(#pcf16f023be)" style="fill: #ee8468"/>
   </g>
   <g id="patch_47">
    <path d="M 1339876.765399 290.106696 
L 1339876.782699 290.106696 
L 1339876.782699 257.192411 
L 1339876.765399 257.192411 
z
" clip-path="url(#pcf16f023be)" style="fill: #ee8468"/>
   </g>
   <g id="patch_48">
    <path d="M 1339876.8 248.963839 
L 1339876.8 248.963839 
L 1339876.8 216.049554 
L 1339876.8 216.049554 
z
" clip-path="url(#pcf16f023be)" style="fill: #ee8468"/>
   </g>
   <g id="patch_49">
    <path d="M 1339876.8 207.820982 
L 1339876.8 207.820982 
L 1339876.8 174.906696 
L 1339876.8 174.906696 
z
" clip-path="url(#pcf16f023be)" style="fill: #ee8468"/>
   </g>
   <g id="patch_50">
    <path d="M 1339876.8 166.678125 
L 1339876.8 166.678125 
L 1339876.8 133.763839 
L 1339876.8 133.763839 
z
" clip-path="url(#pcf16f023be)" style="fill: #ee8468"/>
   </g>
   <g id="patch_51">
    <path d="M 1339876.782699 125.535268 
L 1339876.8 125.535268 
L 1339876.8 92.620982 
L 1339876.782699 92.620982 
z
" clip-path="url(#pcf16f023be)" style="fill: #ee8468"/>
   </g>
   <g id="patch_52">
    <path d="M 1339876.782699 84.392411 
L 1339876.8 84.392411 
L 1339876.8 51.478125 
L 1339876.782699 51.478125 
z
" clip-path="url(#pcf16f023be)" style="fill: #ee8468"/>
   </g>
   <g id="patch_53">
    <path d="M 1339876.8 454.678125 
L 1339876.8 454.678125 
L 1339876.8 421.763839 
L 1339876.8 421.763839 
z
" clip-path="url(#pcf16f023be)" style="fill: #b40426"/>
   </g>
   <g id="patch_54">
    <path d="M 1339876.8 413.535268 
L 1339876.8 413.535268 
L 1339876.8 380.620982 
L 1339876.8 380.620982 
z
" clip-path="url(#pcf16f023be)" style="fill: #b40426"/>
   </g>
   <g id="patch_55">
    <path d="M 1339876.782699 372.392411 
L 1339876.8 372.392411 
L 1339876.8 339.478125 
L 1339876.782699 339.478125 
z
" clip-path="url(#pcf16f023be)" style="fill: #b40426"/>
   </g>
   <g id="patch_56">
    <path d="M 1339876.782699 331.249554 
L 1339876.8 331.249554 
L 1339876.8 298.335268 
L 1339876.782699 298.335268 
z
" clip-path="url(#pcf16f023be)" style="fill: #b40426"/>
   </g>
   <g id="patch_57">
    <path d="M 1339876.782699 290.106696 
L 1339876.8 290.106696 
L 1339876.8 257.192411 
L 1339876.782699 257.192411 
z
" clip-path="url(#pcf16f023be)" style="fill: #b40426"/>
   </g>
   <g id="patch_58">
    <path d="M 1339876.8 248.963839 
L 1339876.8 248.963839 
L 1339876.8 216.049554 
L 1339876.8 216.049554 
z
" clip-path="url(#pcf16f023be)" style="fill: #b40426"/>
   </g>
   <g id="patch_59">
    <path d="M 1339876.8 207.820982 
L 1339876.8 207.820982 
L 1339876.8 174.906696 
L 1339876.8 174.906696 
z
" clip-path="url(#pcf16f023be)" style="fill: #b40426"/>
   </g>
   <g id="patch_60">
    <path d="M 1339876.8 166.678125 
L 1339876.8 166.678125 
L 1339876.8 133.763839 
L 1339876.8 133.763839 
z
" clip-path="url(#pcf16f023be)" style="fill: #b40426"/>
   </g>
   <g id="patch_61">
    <path d="M 1339876.8 125.535268 
L 1339876.8 125.535268 
L 1339876.8 92.620982 
L 1339876.8 92.620982 
z
" clip-path="url(#pcf16f023be)" style="fill: #b40426"/>
   </g>
   <g id="patch_62">
    <path d="M 1339876.8 84.392411 
L 1339876.8 84.392411 
L 1339876.8 51.478125 
L 1339876.8 51.478125 
z
" clip-path="url(#pcf16f023be)" style="fill: #b40426"/>
   </g>
   <g id="patch_63">
    <path d="M 7.2 454.678125 
L 803527.2 454.678125 
L 803527.2 421.763839 
L 7.2 421.763839 
z
" style="fill: #195f90; stroke: #195f90; stroke-linejoin: miter"/>
   </g>
   <g id="patch_64">
    <path d="M 7.2 413.535268 
L 803527.2 413.535268 
L 803527.2 380.620982 
L 7.2 380.620982 
z
" style="fill: #195f90; stroke: #195f90; stroke-linejoin: miter"/>
   </g>
   <g id="patch_65">
    <path d="M 7.2 372.392411 
L 803527.2 372.392411 
L 803527.2 339.478125 
L 7.2 339.478125 
z
" style="fill: #195f90; stroke: #195f90; stroke-linejoin: miter"/>
   </g>
   <g id="patch_66">
    <path d="M 7.2 331.249554 
L 803527.2 331.249554 
L 803527.2 298.335268 
L 7.2 298.335268 
z
" style="fill: #195f90; stroke: #195f90; stroke-linejoin: miter"/>
   </g>
   <g id="patch_67">
    <path d="M 7.2 290.106696 
L 803527.2 290.106696 
L 803527.2 257.192411 
L 7.2 257.192411 
z
" style="fill: #195f90; stroke: #195f90; stroke-linejoin: miter"/>
   </g>
   <g id="patch_68">
    <path d="M 7.2 248.963839 
L 803527.2 248.963839 
L 803527.2 216.049554 
L 7.2 216.049554 
z
" style="fill: #195f90; stroke: #195f90; stroke-linejoin: miter"/>
   </g>
   <g id="patch_69">
    <path d="M 7.2 207.820982 
L 803527.2 207.820982 
L 803527.2 174.906696 
L 7.2 174.906696 
z
" style="fill: #195f90; stroke: #195f90; stroke-linejoin: miter"/>
   </g>
   <g id="patch_70">
    <path d="M 7.2 166.678125 
L 803527.2 166.678125 
L 803527.2 133.763839 
L 7.2 133.763839 
z
" style="fill: #195f90; stroke: #195f90; stroke-linejoin: miter"/>
   </g>
   <g id="patch_71">
    <path d="M 7.2 125.535268 
L 803527.2 125.535268 
L 803527.2 92.620982 
L 7.2 92.620982 
z
" style="fill: #195f90; stroke: #195f90; stroke-linejoin: miter"/>
   </g>
   <g id="patch_72">
    <path d="M 7.2 84.392411 
L 803527.2 84.392411 
L 803527.2 51.478125 
L 7.2 51.478125 
z
" style="fill: #195f90; stroke: #195f90; stroke-linejoin: miter"/>
   </g>
   <g id="matplotlib.axis_1">
    <g id="xtick_1">
     <g id="line2d_1">
      <defs>
       <path id="m9a85169656" d="M 0 0 
L 0 3.5 
" style="stroke: #000000; stroke-width: 0.8"/>
      </defs>
      <g>
       <use xlink:href="#m9a85169656" x="1339207.2" y="474.838125" style="stroke: #000000; stroke-width: 0.8"/>
      </g>
     </g>
     <g id="text_1">
      <text style="font-size: 10px; font-family: 'DejaVu Sans', 'Bitstream Vera Sans', 'Computer Modern Sans Serif', 'Lucida Grande', 'Verdana', 'Geneva', 'Lucid', 'Arial', 'Helvetica', 'Avant Garde', sans-serif; text-anchor: middle" x="1339207.2" y="489.436562" transform="rotate(-0 1339207.2 489.436562)">0</text>
     </g>
    </g>
    <g id="xtick_2">
     <g id="line2d_2">
      <g>
       <use xlink:href="#m9a85169656" x="1339293.702687" y="474.838125" style="stroke: #000000; stroke-width: 0.8"/>
      </g>
     </g>
     <g id="text_2">
      <text style="font-size: 10px; font-family: 'DejaVu Sans', 'Bitstream Vera Sans', 'Computer Modern Sans Serif', 'Lucida Grande', 'Verdana', 'Geneva', 'Lucid', 'Arial', 'Helvetica', 'Avant Garde', sans-serif; text-anchor: middle" x="1339293.702687" y="489.436562" transform="rotate(-0 1339293.702687 489.436562)">5000</text>
     </g>
    </g>
    <g id="xtick_3">
     <g id="line2d_3">
      <g>
       <use xlink:href="#m9a85169656" x="1339380.205374" y="474.838125" style="stroke: #000000; stroke-width: 0.8"/>
      </g>
     </g>
     <g id="text_3">
      <text style="font-size: 10px; font-family: 'DejaVu Sans', 'Bitstream Vera Sans', 'Computer Modern Sans Serif', 'Lucida Grande', 'Verdana', 'Geneva', 'Lucid', 'Arial', 'Helvetica', 'Avant Garde', sans-serif; text-anchor: middle" x="1339380.205374" y="489.436562" transform="rotate(-0 1339380.205374 489.436562)">10000</text>
     </g>
    </g>
    <g id="xtick_4">
     <g id="line2d_4">
      <g>
       <use xlink:href="#m9a85169656" x="1339466.708061" y="474.838125" style="stroke: #000000; stroke-width: 0.8"/>
      </g>
     </g>
     <g id="text_4">
      <text style="font-size: 10px; font-family: 'DejaVu Sans', 'Bitstream Vera Sans', 'Computer Modern Sans Serif', 'Lucida Grande', 'Verdana', 'Geneva', 'Lucid', 'Arial', 'Helvetica', 'Avant Garde', sans-serif; text-anchor: middle" x="1339466.708061" y="489.436562" transform="rotate(-0 1339466.708061 489.436562)">15000</text>
     </g>
    </g>
    <g id="xtick_5">
     <g id="line2d_5">
      <g>
       <use xlink:href="#m9a85169656" x="1339553.210748" y="474.838125" style="stroke: #000000; stroke-width: 0.8"/>
      </g>
     </g>
     <g id="text_5">
      <text style="font-size: 10px; font-family: 'DejaVu Sans', 'Bitstream Vera Sans', 'Computer Modern Sans Serif', 'Lucida Grande', 'Verdana', 'Geneva', 'Lucid', 'Arial', 'Helvetica', 'Avant Garde', sans-serif; text-anchor: middle" x="1339553.210748" y="489.436562" transform="rotate(-0 1339553.210748 489.436562)">20000</text>
     </g>
    </g>
    <g id="xtick_6">
     <g id="line2d_6">
      <g>
       <use xlink:href="#m9a85169656" x="1339639.713435" y="474.838125" style="stroke: #000000; stroke-width: 0.8"/>
      </g>
     </g>
     <g id="text_6">
      <text style="font-size: 10px; font-family: 'DejaVu Sans', 'Bitstream Vera Sans', 'Computer Modern Sans Serif', 'Lucida Grande', 'Verdana', 'Geneva', 'Lucid', 'Arial', 'Helvetica', 'Avant Garde', sans-serif; text-anchor: middle" x="1339639.713435" y="489.436562" transform="rotate(-0 1339639.713435 489.436562)">25000</text>
     </g>
    </g>
    <g id="xtick_7">
     <g id="line2d_7">
      <g>
       <use xlink:href="#m9a85169656" x="1339726.216122" y="474.838125" style="stroke: #000000; stroke-width: 0.8"/>
      </g>
     </g>
     <g id="text_7">
      <text style="font-size: 10px; font-family: 'DejaVu Sans', 'Bitstream Vera Sans', 'Computer Modern Sans Serif', 'Lucida Grande', 'Verdana', 'Geneva', 'Lucid', 'Arial', 'Helvetica', 'Avant Garde', sans-serif; text-anchor: middle" x="1339726.216122" y="489.436562" transform="rotate(-0 1339726.216122 489.436562)">30000</text>
     </g>
    </g>
    <g id="xtick_8">
     <g id="line2d_8">
      <g>
       <use xlink:href="#m9a85169656" x="1339812.718809" y="474.838125" style="stroke: #000000; stroke-width: 0.8"/>
      </g>
     </g>
     <g id="text_8">
      <text style="font-size: 10px; font-family: 'DejaVu Sans', 'Bitstream Vera Sans', 'Computer Modern Sans Serif', 'Lucida Grande', 'Verdana', 'Geneva', 'Lucid', 'Arial', 'Helvetica', 'Avant Garde', sans-serif; text-anchor: middle" x="1339812.718809" y="489.436562" transform="rotate(-0 1339812.718809 489.436562)">35000</text>
     </g>
    </g>
    <g id="text_9">
     <text style="font-weight: 700; font-size: 10px; font-family: 'DejaVu Sans', 'Bitstream Vera Sans', 'Computer Modern Sans Serif', 'Lucida Grande', 'Verdana', 'Geneva', 'Lucid', 'Arial', 'Helvetica', 'Avant Garde', sans-serif; text-anchor: middle" x="1339542" y="503.114687" transform="rotate(-0 1339542 503.114687)">Number of Genes</text>
    </g>
   </g>
   <g id="matplotlib.axis_2">
    <g id="ytick_1">
     <g id="line2d_9">
      <defs>
       <path id="me31b7b60eb" d="M 0 0 
L -3.5 0 
" style="stroke: #000000; stroke-width: 0.8"/>
      </defs>
      <g>
       <use xlink:href="#me31b7b60eb" x="1339207.2" y="438.220982" style="stroke: #000000; stroke-width: 0.8"/>
      </g>
     </g>
     <g id="text_10">
      <text style="font-size: 8px; font-family: 'DejaVu Sans', 'Bitstream Vera Sans', 'Computer Modern Sans Serif', 'Lucida Grande', 'Verdana', 'Geneva', 'Lucid', 'Arial', 'Helvetica', 'Avant Garde', sans-serif; text-anchor: end" x="1339200.2" y="441.260357" transform="rotate(-0 1339200.2 441.260357)">MER5A</text>
     </g>
    </g>
    <g id="ytick_2">
     <g id="line2d_10">
      <g>
       <use xlink:href="#me31b7b60eb" x="1339207.2" y="397.078125" style="stroke: #000000; stroke-width: 0.8"/>
      </g>
     </g>
     <g id="text_11">
      <text style="font-size: 8px; font-family: 'DejaVu Sans', 'Bitstream Vera Sans', 'Computer Modern Sans Serif', 'Lucida Grande', 'Verdana', 'Geneva', 'Lucid', 'Arial', 'Helvetica', 'Avant Garde', sans-serif; text-anchor: end" x="1339200.2" y="400.1175" transform="rotate(-0 1339200.2 400.1175)">MER5B</text>
     </g>
    </g>
    <g id="ytick_3">
     <g id="line2d_11">
      <g>
       <use xlink:href="#me31b7b60eb" x="1339207.2" y="355.935268" style="stroke: #000000; stroke-width: 0.8"/>
      </g>
     </g>
     <g id="text_12">
      <text style="font-size: 8px; font-family: 'DejaVu Sans', 'Bitstream Vera Sans', 'Computer Modern Sans Serif', 'Lucida Grande', 'Verdana', 'Geneva', 'Lucid', 'Arial', 'Helvetica', 'Avant Garde', sans-serif; text-anchor: end" x="1339200.2" y="358.974643" transform="rotate(-0 1339200.2 358.974643)">MER20</text>
     </g>
    </g>
    <g id="ytick_4">
     <g id="line2d_12">
      <g>
       <use xlink:href="#me31b7b60eb" x="1339207.2" y="314.792411" style="stroke: #000000; stroke-width: 0.8"/>
      </g>
     </g>
     <g id="text_13">
      <text style="font-size: 8px; font-family: 'DejaVu Sans', 'Bitstream Vera Sans', 'Computer Modern Sans Serif', 'Lucida Grande', 'Verdana', 'Geneva', 'Lucid', 'Arial', 'Helvetica', 'Avant Garde', sans-serif; text-anchor: end" x="1339200.2" y="317.831786" transform="rotate(-0 1339200.2 317.831786)">MER5A1</text>
     </g>
    </g>
    <g id="ytick_5">
     <g id="line2d_13">
      <g>
       <use xlink:href="#me31b7b60eb" x="1339207.2" y="273.649554" style="stroke: #000000; stroke-width: 0.8"/>
      </g>
     </g>
     <g id="text_14">
      <text style="font-size: 8px; font-family: 'DejaVu Sans', 'Bitstream Vera Sans', 'Computer Modern Sans Serif', 'Lucida Grande', 'Verdana', 'Geneva', 'Lucid', 'Arial', 'Helvetica', 'Avant Garde', sans-serif; text-anchor: end" x="1339200.2" y="276.688929" transform="rotate(-0 1339200.2 276.688929)">MER3</text>
     </g>
    </g>
    <g id="ytick_6">
     <g id="line2d_14">
      <g>
       <use xlink:href="#me31b7b60eb" x="1339207.2" y="232.506696" style="stroke: #000000; stroke-width: 0.8"/>
      </g>
     </g>
     <g id="text_15">
      <text style="font-size: 8px; font-family: 'DejaVu Sans', 'Bitstream Vera Sans', 'Computer Modern Sans Serif', 'Lucida Grande', 'Verdana', 'Geneva', 'Lucid', 'Arial', 'Helvetica', 'Avant Garde', sans-serif; text-anchor: end" x="1339200.2" y="235.546071" transform="rotate(-0 1339200.2 235.546071)">MER33</text>
     </g>
    </g>
    <g id="ytick_7">
     <g id="line2d_15">
      <g>
       <use xlink:href="#me31b7b60eb" x="1339207.2" y="191.363839" style="stroke: #000000; stroke-width: 0.8"/>
      </g>
     </g>
     <g id="text_16">
      <text style="font-size: 8px; font-family: 'DejaVu Sans', 'Bitstream Vera Sans', 'Computer Modern Sans Serif', 'Lucida Grande', 'Verdana', 'Geneva', 'Lucid', 'Arial', 'Helvetica', 'Avant Garde', sans-serif; text-anchor: end" x="1339200.2" y="194.403214" transform="rotate(-0 1339200.2 194.403214)">Charlie4z</text>
     </g>
    </g>
    <g id="ytick_8">
     <g id="line2d_16">
      <g>
       <use xlink:href="#me31b7b60eb" x="1339207.2" y="150.220982" style="stroke: #000000; stroke-width: 0.8"/>
      </g>
     </g>
     <g id="text_17">
      <text style="font-size: 8px; font-family: 'DejaVu Sans', 'Bitstream Vera Sans', 'Computer Modern Sans Serif', 'Lucida Grande', 'Verdana', 'Geneva', 'Lucid', 'Arial', 'Helvetica', 'Avant Garde', sans-serif; text-anchor: end" x="1339200.2" y="153.260357" transform="rotate(-0 1339200.2 153.260357)">MER58A</text>
     </g>
    </g>
    <g id="ytick_9">
     <g id="line2d_17">
      <g>
       <use xlink:href="#me31b7b60eb" x="1339207.2" y="109.078125" style="stroke: #000000; stroke-width: 0.8"/>
      </g>
     </g>
     <g id="text_18">
      <text style="font-size: 8px; font-family: 'DejaVu Sans', 'Bitstream Vera Sans', 'Computer Modern Sans Serif', 'Lucida Grande', 'Verdana', 'Geneva', 'Lucid', 'Arial', 'Helvetica', 'Avant Garde', sans-serif; text-anchor: end" x="1339200.2" y="112.1175" transform="rotate(-0 1339200.2 112.1175)">MER2</text>
     </g>
    </g>
    <g id="ytick_10">
     <g id="line2d_18">
      <g>
       <use xlink:href="#me31b7b60eb" x="1339207.2" y="67.935268" style="stroke: #000000; stroke-width: 0.8"/>
      </g>
     </g>
     <g id="text_19">
      <text style="font-size: 8px; font-family: 'DejaVu Sans', 'Bitstream Vera Sans', 'Computer Modern Sans Serif', 'Lucida Grande', 'Verdana', 'Geneva', 'Lucid', 'Arial', 'Helvetica', 'Avant Garde', sans-serif; text-anchor: end" x="1339200.2" y="70.974643" transform="rotate(-0 1339200.2 70.974643)">MER58B</text>
     </g>
    </g>
   </g>
   <g id="patch_73">
    <path d="M 1339207.2 474.838125 
L 1339207.2 31.318125 
" style="fill: none; stroke: #000000; stroke-width: 0.8; stroke-linejoin: miter; stroke-linecap: square"/>
   </g>
   <g id="patch_74">
    <path d="M 1339876.8 474.838125 
L 1339876.8 31.318125 
" style="fill: none; stroke: #000000; stroke-width: 0.8; stroke-linejoin: miter; stroke-linecap: square"/>
   </g>
   <g id="patch_75">
    <path d="M 1339207.2 474.838125 
L 1339876.8 474.838125 
" style="fill: none; stroke: #000000; stroke-width: 0.8; stroke-linejoin: miter; stroke-linecap: square"/>
   </g>
   <g id="patch_76">
    <path d="M 1339207.2 31.318125 
L 1339876.8 31.318125 
" style="fill: none; stroke: #000000; stroke-width: 0.8; stroke-linejoin: miter; stroke-linecap: square"/>
   </g>
   <g id="text_20">
    <text style="font-size: 12px; font-family: 'DejaVu Sans', 'Bitstream Vera Sans', 'Computer Modern Sans Serif', 'Lucida Grande', 'Verdana', 'Geneva', 'Lucid', 'Arial', 'Helvetica', 'Avant Garde', sans-serif; text-anchor: middle" x="1339542" y="16.318125" transform="rotate(-0 1339542 16.318125)">TE Subfamily Distributions (Top 10)</text>
   </g>
   <g id="legend_1">
    <g id="text_21">
     <text style="font-size: 10px; font-family: 'DejaVu Sans', 'Bitstream Vera Sans', 'Computer Modern Sans Serif', 'Lucida Grande', 'Verdana', 'Geneva', 'Lucid', 'Arial', 'Helvetica', 'Avant Garde', sans-serif; text-anchor: start" x="1339919.56875" y="180.072562" transform="rotate(-0 1339919.56875 180.072562)">Genomic Class</text>
    </g>
    <g id="patch_77">
     <path d="M 1339918.38 193.490844 
L 1339936.38 193.490844 
L 1339936.38 187.190844 
L 1339918.38 187.190844 
z
" style="fill: #cc660b"/>
    </g>
    <g id="text_22">
     <text style="font-size: 9px; font-family: 'DejaVu Sans', 'Bitstream Vera Sans', 'Computer Modern Sans Serif', 'Lucida Grande', 'Verdana', 'Geneva', 'Lucid', 'Arial', 'Helvetica', 'Avant Garde', sans-serif; text-anchor: start" x="1339943.58" y="193.490844" transform="rotate(-0 1339943.58 193.490844)">LINE</text>
    </g>
    <g id="patch_78">
     <path d="M 1339918.38 206.701156 
L 1339936.38 206.701156 
L 1339936.38 200.401156 
L 1339918.38 200.401156 
z
" style="fill: #70453c"/>
    </g>
    <g id="text_23">
     <text style="font-size: 9px; font-family: 'DejaVu Sans', 'Bitstream Vera Sans', 'Computer Modern Sans Serif', 'Lucida Grande', 'Verdana', 'Geneva', 'Lucid', 'Arial', 'Helvetica', 'Avant Garde', sans-serif; text-anchor: start" x="1339943.58" y="206.701156" transform="rotate(-0 1339943.58 206.701156)">LTR</text>
    </g>
    <g id="patch_79">
     <path d="M 1339918.38 219.911469 
L 1339936.38 219.911469 
L 1339936.38 213.611469 
L 1339918.38 213.611469 
z
" style="fill: #ab1f20"/>
    </g>
    <g id="text_24">
     <text style="font-size: 9px; font-family: 'DejaVu Sans', 'Bitstream Vera Sans', 'Computer Modern Sans Serif', 'Lucida Grande', 'Verdana', 'Geneva', 'Lucid', 'Arial', 'Helvetica', 'Avant Garde', sans-serif; text-anchor: start" x="1339943.58" y="219.911469" transform="rotate(-0 1339943.58 219.911469)">SINE</text>
    </g>
    <g id="patch_80">
     <path d="M 1339918.38 233.121781 
L 1339936.38 233.121781 
L 1339936.38 226.821781 
L 1339918.38 226.821781 
z
" style="fill: #195f90"/>
    </g>
    <g id="text_25">
     <text style="font-size: 9px; font-family: 'DejaVu Sans', 'Bitstream Vera Sans', 'Computer Modern Sans Serif', 'Lucida Grande', 'Verdana', 'Geneva', 'Lucid', 'Arial', 'Helvetica', 'Avant Garde', sans-serif; text-anchor: start" x="1339943.58" y="233.121781" transform="rotate(-0 1339943.58 233.121781)">DNA</text>
    </g>
    <g id="patch_81">
     <path d="M 1339918.38 246.332094 
L 1339936.38 246.332094 
L 1339936.38 240.032094 
L 1339918.38 240.032094 
z
" style="fill: #765297"/>
    </g>
    <g id="text_26">
     <text style="font-size: 9px; font-family: 'DejaVu Sans', 'Bitstream Vera Sans', 'Computer Modern Sans Serif', 'Lucida Grande', 'Verdana', 'Geneva', 'Lucid', 'Arial', 'Helvetica', 'Avant Garde', sans-serif; text-anchor: start" x="1339943.58" y="246.332094" transform="rotate(-0 1339943.58 246.332094)">Retroposon</text>
    </g>
    <g id="patch_82">
     <path d="M 1339918.38 259.542406 
L 1339936.38 259.542406 
L 1339936.38 253.242406 
L 1339918.38 253.242406 
z
" style="fill: #238023"/>
    </g>
    <g id="text_27">
     <text style="font-size: 9px; font-family: 'DejaVu Sans', 'Bitstream Vera Sans', 'Computer Modern Sans Serif', 'Lucida Grande', 'Verdana', 'Geneva', 'Lucid', 'Arial', 'Helvetica', 'Avant Garde', sans-serif; text-anchor: start" x="1339943.58" y="259.542406" transform="rotate(-0 1339943.58 259.542406)">RC</text>
    </g>
    <g id="patch_83">
     <path d="M 1339918.38 272.752719 
L 1339936.38 272.752719 
L 1339936.38 266.452719 
L 1339918.38 266.452719 
z
" style="fill: #765297"/>
    </g>
    <g id="text_28">
     <text style="font-size: 9px; font-family: 'DejaVu Sans', 'Bitstream Vera Sans', 'Computer Modern Sans Serif', 'Lucida Grande', 'Verdana', 'Geneva', 'Lucid', 'Arial', 'Helvetica', 'Avant Garde', sans-serif; text-anchor: start" x="1339943.58" y="272.752719" transform="rotate(-0 1339943.58 272.752719)">SVA</text>
    </g>
    <g id="patch_84">
     <path d="M 1339918.38 285.963031 
L 1339936.38 285.963031 
L 1339936.38 279.663031 
L 1339918.38 279.663031 
z
" style="fill: #238023"/>
    </g>
    <g id="text_29">
     <text style="font-size: 9px; font-family: 'DejaVu Sans', 'Bitstream Vera Sans', 'Computer Modern Sans Serif', 'Lucida Grande', 'Verdana', 'Geneva', 'Lucid', 'Arial', 'Helvetica', 'Avant Garde', sans-serif; text-anchor: start" x="1339943.58" y="285.963031" transform="rotate(-0 1339943.58 285.963031)">Helitron</text>
    </g>
    <g id="patch_85">
     <path d="M 1339918.38 299.173344 
L 1339936.38 299.173344 
L 1339936.38 292.873344 
L 1339918.38 292.873344 
z
" style="fill: #008000"/>
    </g>
    <g id="text_30">
     <text style="font-size: 9px; font-family: 'DejaVu Sans', 'Bitstream Vera Sans', 'Computer Modern Sans Serif', 'Lucida Grande', 'Verdana', 'Geneva', 'Lucid', 'Arial', 'Helvetica', 'Avant Garde', sans-serif; text-anchor: start" x="1339943.58" y="299.173344" transform="rotate(-0 1339943.58 299.173344)">TE_top</text>
    </g>
    <g id="patch_86">
     <path d="M 1339918.38 312.633969 
L 1339936.38 312.633969 
L 1339936.38 306.333969 
L 1339918.38 306.333969 
z
" style="fill: #ff0000"/>
    </g>
    <g id="text_31">
     <text style="font-size: 9px; font-family: 'DejaVu Sans', 'Bitstream Vera Sans', 'Computer Modern Sans Serif', 'Lucida Grande', 'Verdana', 'Geneva', 'Lucid', 'Arial', 'Helvetica', 'Avant Garde', sans-serif; text-anchor: start" x="1339943.58" y="312.633969" transform="rotate(-0 1339943.58 312.633969)">TE_bottom</text>
    </g>
   </g>
   <g id="legend_2">
    <g id="text_32">
     <text style="font-size: 10px; font-family: 'DejaVu Sans', 'Bitstream Vera Sans', 'Computer Modern Sans Serif', 'Lucida Grande', 'Verdana', 'Geneva', 'Lucid', 'Arial', 'Helvetica', 'Avant Garde', sans-serif; text-anchor: start" x="1339919.56875" y="180.072562" transform="rotate(-0 1339919.56875 180.072562)">Genomic Class</text>
    </g>
    <g id="patch_87">
     <path d="M 1339918.38 193.490844 
L 1339936.38 193.490844 
L 1339936.38 187.190844 
L 1339918.38 187.190844 
z
" style="fill: #cc660b"/>
    </g>
    <g id="text_33">
     <text style="font-size: 9px; font-family: 'DejaVu Sans', 'Bitstream Vera Sans', 'Computer Modern Sans Serif', 'Lucida Grande', 'Verdana', 'Geneva', 'Lucid', 'Arial', 'Helvetica', 'Avant Garde', sans-serif; text-anchor: start" x="1339943.58" y="193.490844" transform="rotate(-0 1339943.58 193.490844)">LINE</text>
    </g>
    <g id="patch_88">
     <path d="M 1339918.38 206.701156 
L 1339936.38 206.701156 
L 1339936.38 200.401156 
L 1339918.38 200.401156 
z
" style="fill: #70453c"/>
    </g>
    <g id="text_34">
     <text style="font-size: 9px; font-family: 'DejaVu Sans', 'Bitstream Vera Sans', 'Computer Modern Sans Serif', 'Lucida Grande', 'Verdana', 'Geneva', 'Lucid', 'Arial', 'Helvetica', 'Avant Garde', sans-serif; text-anchor: start" x="1339943.58" y="206.701156" transform="rotate(-0 1339943.58 206.701156)">LTR</text>
    </g>
    <g id="patch_89">
     <path d="M 1339918.38 219.911469 
L 1339936.38 219.911469 
L 1339936.38 213.611469 
L 1339918.38 213.611469 
z
" style="fill: #ab1f20"/>
    </g>
    <g id="text_35">
     <text style="font-size: 9px; font-family: 'DejaVu Sans', 'Bitstream Vera Sans', 'Computer Modern Sans Serif', 'Lucida Grande', 'Verdana', 'Geneva', 'Lucid', 'Arial', 'Helvetica', 'Avant Garde', sans-serif; text-anchor: start" x="1339943.58" y="219.911469" transform="rotate(-0 1339943.58 219.911469)">SINE</text>
    </g>
    <g id="patch_90">
     <path d="M 1339918.38 233.121781 
L 1339936.38 233.121781 
L 1339936.38 226.821781 
L 1339918.38 226.821781 
z
" style="fill: #195f90"/>
    </g>
    <g id="text_36">
     <text style="font-size: 9px; font-family: 'DejaVu Sans', 'Bitstream Vera Sans', 'Computer Modern Sans Serif', 'Lucida Grande', 'Verdana', 'Geneva', 'Lucid', 'Arial', 'Helvetica', 'Avant Garde', sans-serif; text-anchor: start" x="1339943.58" y="233.121781" transform="rotate(-0 1339943.58 233.121781)">DNA</text>
    </g>
    <g id="patch_91">
     <path d="M 1339918.38 246.332094 
L 1339936.38 246.332094 
L 1339936.38 240.032094 
L 1339918.38 240.032094 
z
" style="fill: #765297"/>
    </g>
    <g id="text_37">
     <text style="font-size: 9px; font-family: 'DejaVu Sans', 'Bitstream Vera Sans', 'Computer Modern Sans Serif', 'Lucida Grande', 'Verdana', 'Geneva', 'Lucid', 'Arial', 'Helvetica', 'Avant Garde', sans-serif; text-anchor: start" x="1339943.58" y="246.332094" transform="rotate(-0 1339943.58 246.332094)">Retroposon</text>
    </g>
    <g id="patch_92">
     <path d="M 1339918.38 259.542406 
L 1339936.38 259.542406 
L 1339936.38 253.242406 
L 1339918.38 253.242406 
z
" style="fill: #238023"/>
    </g>
    <g id="text_38">
     <text style="font-size: 9px; font-family: 'DejaVu Sans', 'Bitstream Vera Sans', 'Computer Modern Sans Serif', 'Lucida Grande', 'Verdana', 'Geneva', 'Lucid', 'Arial', 'Helvetica', 'Avant Garde', sans-serif; text-anchor: start" x="1339943.58" y="259.542406" transform="rotate(-0 1339943.58 259.542406)">RC</text>
    </g>
    <g id="patch_93">
     <path d="M 1339918.38 272.752719 
L 1339936.38 272.752719 
L 1339936.38 266.452719 
L 1339918.38 266.452719 
z
" style="fill: #765297"/>
    </g>
    <g id="text_39">
     <text style="font-size: 9px; font-family: 'DejaVu Sans', 'Bitstream Vera Sans', 'Computer Modern Sans Serif', 'Lucida Grande', 'Verdana', 'Geneva', 'Lucid', 'Arial', 'Helvetica', 'Avant Garde', sans-serif; text-anchor: start" x="1339943.58" y="272.752719" transform="rotate(-0 1339943.58 272.752719)">SVA</text>
    </g>
    <g id="patch_94">
     <path d="M 1339918.38 285.963031 
L 1339936.38 285.963031 
L 1339936.38 279.663031 
L 1339918.38 279.663031 
z
" style="fill: #238023"/>
    </g>
    <g id="text_40">
     <text style="font-size: 9px; font-family: 'DejaVu Sans', 'Bitstream Vera Sans', 'Computer Modern Sans Serif', 'Lucida Grande', 'Verdana', 'Geneva', 'Lucid', 'Arial', 'Helvetica', 'Avant Garde', sans-serif; text-anchor: start" x="1339943.58" y="285.963031" transform="rotate(-0 1339943.58 285.963031)">Helitron</text>
    </g>
    <g id="patch_95">
     <path d="M 1339918.38 299.173344 
L 1339936.38 299.173344 
L 1339936.38 292.873344 
L 1339918.38 292.873344 
z
" style="fill: #008000"/>
    </g>
    <g id="text_41">
     <text style="font-size: 9px; font-family: 'DejaVu Sans', 'Bitstream Vera Sans', 'Computer Modern Sans Serif', 'Lucida Grande', 'Verdana', 'Geneva', 'Lucid', 'Arial', 'Helvetica', 'Avant Garde', sans-serif; text-anchor: start" x="1339943.58" y="299.173344" transform="rotate(-0 1339943.58 299.173344)">TE_top</text>
    </g>
    <g id="patch_96">
     <path d="M 1339918.38 312.633969 
L 1339936.38 312.633969 
L 1339936.38 306.333969 
L 1339918.38 306.333969 
z
" style="fill: #ff0000"/>
    </g>
    <g id="text_42">
     <text style="font-size: 9px; font-family: 'DejaVu Sans', 'Bitstream Vera Sans', 'Computer Modern Sans Serif', 'Lucida Grande', 'Verdana', 'Geneva', 'Lucid', 'Arial', 'Helvetica', 'Avant Garde', sans-serif; text-anchor: start" x="1339943.58" y="312.633969" transform="rotate(-0 1339943.58 312.633969)">TE_bottom</text>
    </g>
   </g>
  </g>
 </g>
 <defs>
  <clipPath id="pcf16f023be">
   <rect x="1339207.2" y="31.318125" width="669.6" height="443.52"/>
  </clipPath>
 </defs>
</svg>
