<?xml version="1.0" encoding="utf-8" standalone="no"?>
<!DOCTYPE svg PUBLIC "-//W3C//DTD SVG 1.1//EN"
  "http://www.w3.org/Graphics/SVG/1.1/DTD/svg11.dtd">
<svg xmlns:xlink="http://www.w3.org/1999/xlink" width="504pt" height="288pt" viewBox="0 0 504 288" xmlns="http://www.w3.org/2000/svg" version="1.1">
 <metadata>
  <rdf:RDF xmlns:dc="http://purl.org/dc/elements/1.1/" xmlns:cc="http://creativecommons.org/ns#" xmlns:rdf="http://www.w3.org/1999/02/22-rdf-syntax-ns#">
   <cc:Work>
    <dc:type rdf:resource="http://purl.org/dc/dcmitype/StillImage"/>
    <dc:date>2025-12-28T11:08:40.458698</dc:date>
    <dc:format>image/svg+xml</dc:format>
    <dc:creator>
     <cc:Agent>
      <dc:title>Matplotlib v3.8.4, https://matplotlib.org/</dc:title>
     </cc:Agent>
    </dc:creator>
   </cc:Work>
  </rdf:RDF>
 </metadata>
 <defs>
  <style type="text/css">*{stroke-linejoin: round; stroke-linecap: butt}</style>
 </defs>
 <g id="figure_1">
  <g id="patch_1">
   <path d="M 0 288 
L 504 288 
L 504 0 
L 0 0 
z
" style="fill: #ffffff"/>
  </g>
  <g id="axes_1">
   <g id="patch_2">
    <path d="M 63 256.32 
L 453.6 256.32 
L 453.6 34.56 
L 63 34.56 
z
" style="fill: #ffffff"/>
   </g>
   <g id="matplotlib.axis_1">
    <g id="xtick_1">
     <g id="line2d_1">
      <defs>
       <path id="m0766b55a89" d="M 0 0 
L 0 6 
" style="stroke: #262626; stroke-width: 1.25"/>
      </defs>
      <g>
       <use xlink:href="#m0766b55a89" x="71.183362" y="256.32" style="fill: #262626; stroke: #262626; stroke-width: 1.25"/>
      </g>
     </g>
     <g id="text_1">
      <text style="fill: #262626; font: 11px 'Arial', 'DejaVu Sans', 'Liberation Sans', 'Bitstream Vera Sans', sans-serif; text-anchor: middle" x="71.183362" y="274.178281" transform="rotate(-0 71.183362 274.178281)">0</text>
     </g>
    </g>
    <g id="xtick_2">
     <g id="line2d_2">
      <g>
       <use xlink:href="#m0766b55a89" x="119.03928" y="256.32" style="fill: #262626; stroke: #262626; stroke-width: 1.25"/>
      </g>
     </g>
     <g id="text_2">
      <text style="fill: #262626; font: 11px 'Arial', 'DejaVu Sans', 'Liberation Sans', 'Bitstream Vera Sans', sans-serif; text-anchor: middle" x="119.03928" y="274.178281" transform="rotate(-0 119.03928 274.178281)">50</text>
     </g>
    </g>
    <g id="xtick_3">
     <g id="line2d_3">
      <g>
       <use xlink:href="#m0766b55a89" x="166.895197" y="256.32" style="fill: #262626; stroke: #262626; stroke-width: 1.25"/>
      </g>
     </g>
     <g id="text_3">
      <text style="fill: #262626; font: 11px 'Arial', 'DejaVu Sans', 'Liberation Sans', 'Bitstream Vera Sans', sans-serif; text-anchor: middle" x="166.895197" y="274.178281" transform="rotate(-0 166.895197 274.178281)">100</text>
     </g>
    </g>
    <g id="xtick_4">
     <g id="line2d_4">
      <g>
       <use xlink:href="#m0766b55a89" x="214.751115" y="256.32" style="fill: #262626; stroke: #262626; stroke-width: 1.25"/>
      </g>
     </g>
     <g id="text_4">
      <text style="fill: #262626; font: 11px 'Arial', 'DejaVu Sans', 'Liberation Sans', 'Bitstream Vera Sans', sans-serif; text-anchor: middle" x="214.751115" y="274.178281" transform="rotate(-0 214.751115 274.178281)">150</text>
     </g>
    </g>
    <g id="xtick_5">
     <g id="line2d_5">
      <g>
       <use xlink:href="#m0766b55a89" x="262.607033" y="256.32" style="fill: #262626; stroke: #262626; stroke-width: 1.25"/>
      </g>
     </g>
     <g id="text_5">
      <text style="fill: #262626; font: 11px 'Arial', 'DejaVu Sans', 'Liberation Sans', 'Bitstream Vera Sans', sans-serif; text-anchor: middle" x="262.607033" y="274.178281" transform="rotate(-0 262.607033 274.178281)">200</text>
     </g>
    </g>
    <g id="xtick_6">
     <g id="line2d_6">
      <g>
       <use xlink:href="#m0766b55a89" x="310.46295" y="256.32" style="fill: #262626; stroke: #262626; stroke-width: 1.25"/>
      </g>
     </g>
     <g id="text_6">
      <text style="fill: #262626; font: 11px 'Arial', 'DejaVu Sans', 'Liberation Sans', 'Bitstream Vera Sans', sans-serif; text-anchor: middle" x="310.46295" y="274.178281" transform="rotate(-0 310.46295 274.178281)">250</text>
     </g>
    </g>
    <g id="xtick_7">
     <g id="line2d_7">
      <g>
       <use xlink:href="#m0766b55a89" x="358.318868" y="256.32" style="fill: #262626; stroke: #262626; stroke-width: 1.25"/>
      </g>
     </g>
     <g id="text_7">
      <text style="fill: #262626; font: 11px 'Arial', 'DejaVu Sans', 'Liberation Sans', 'Bitstream Vera Sans', sans-serif; text-anchor: middle" x="358.318868" y="274.178281" transform="rotate(-0 358.318868 274.178281)">300</text>
     </g>
    </g>
    <g id="xtick_8">
     <g id="line2d_8">
      <g>
       <use xlink:href="#m0766b55a89" x="406.174786" y="256.32" style="fill: #262626; stroke: #262626; stroke-width: 1.25"/>
      </g>
     </g>
     <g id="text_8">
      <text style="fill: #262626; font: 11px 'Arial', 'DejaVu Sans', 'Liberation Sans', 'Bitstream Vera Sans', sans-serif; text-anchor: middle" x="406.174786" y="274.178281" transform="rotate(-0 406.174786 274.178281)">350</text>
     </g>
    </g>
    <g id="text_9">
     <text style="fill: #262626; font: 12px 'Arial', 'DejaVu Sans', 'Liberation Sans', 'Bitstream Vera Sans', sans-serif; text-anchor: middle" x="258.3" y="289.584063" transform="rotate(-0 258.3 289.584063)">Average_Divergence_Score</text>
    </g>
   </g>
   <g id="matplotlib.axis_2">
    <g id="ytick_1">
     <g id="line2d_9">
      <defs>
       <path id="m599c8c811c" d="M 0 0 
L -6 0 
" style="stroke: #262626; stroke-width: 1.25"/>
      </defs>
      <g>
       <use xlink:href="#m599c8c811c" x="63" y="256.32" style="fill: #262626; stroke: #262626; stroke-width: 1.25"/>
      </g>
     </g>
     <g id="text_10">
      <text style="fill: #262626; font: 11px 'Arial', 'DejaVu Sans', 'Liberation Sans', 'Bitstream Vera Sans', sans-serif; text-anchor: end" x="53.5" y="260.499141" transform="rotate(-0 53.5 260.499141)">0</text>
     </g>
    </g>
    <g id="ytick_2">
     <g id="line2d_10">
      <g>
       <use xlink:href="#m599c8c811c" x="63" y="229.449771" style="fill: #262626; stroke: #262626; stroke-width: 1.25"/>
      </g>
     </g>
     <g id="text_11">
      <text style="fill: #262626; font: 11px 'Arial', 'DejaVu Sans', 'Liberation Sans', 'Bitstream Vera Sans', sans-serif; text-anchor: end" x="53.5" y="233.628912" transform="rotate(-0 53.5 233.628912)">200</text>
     </g>
    </g>
    <g id="ytick_3">
     <g id="line2d_11">
      <g>
       <use xlink:href="#m599c8c811c" x="63" y="202.579542" style="fill: #262626; stroke: #262626; stroke-width: 1.25"/>
      </g>
     </g>
     <g id="text_12">
      <text style="fill: #262626; font: 11px 'Arial', 'DejaVu Sans', 'Liberation Sans', 'Bitstream Vera Sans', sans-serif; text-anchor: end" x="53.5" y="206.758683" transform="rotate(-0 53.5 206.758683)">400</text>
     </g>
    </g>
    <g id="ytick_4">
     <g id="line2d_12">
      <g>
       <use xlink:href="#m599c8c811c" x="63" y="175.709313" style="fill: #262626; stroke: #262626; stroke-width: 1.25"/>
      </g>
     </g>
     <g id="text_13">
      <text style="fill: #262626; font: 11px 'Arial', 'DejaVu Sans', 'Liberation Sans', 'Bitstream Vera Sans', sans-serif; text-anchor: end" x="53.5" y="179.888454" transform="rotate(-0 53.5 179.888454)">600</text>
     </g>
    </g>
    <g id="ytick_5">
     <g id="line2d_13">
      <g>
       <use xlink:href="#m599c8c811c" x="63" y="148.839084" style="fill: #262626; stroke: #262626; stroke-width: 1.25"/>
      </g>
     </g>
     <g id="text_14">
      <text style="fill: #262626; font: 11px 'Arial', 'DejaVu Sans', 'Liberation Sans', 'Bitstream Vera Sans', sans-serif; text-anchor: end" x="53.5" y="153.018225" transform="rotate(-0 53.5 153.018225)">800</text>
     </g>
    </g>
    <g id="ytick_6">
     <g id="line2d_14">
      <g>
       <use xlink:href="#m599c8c811c" x="63" y="121.968855" style="fill: #262626; stroke: #262626; stroke-width: 1.25"/>
      </g>
     </g>
     <g id="text_15">
      <text style="fill: #262626; font: 11px 'Arial', 'DejaVu Sans', 'Liberation Sans', 'Bitstream Vera Sans', sans-serif; text-anchor: end" x="53.5" y="126.147996" transform="rotate(-0 53.5 126.147996)">1000</text>
     </g>
    </g>
    <g id="ytick_7">
     <g id="line2d_15">
      <g>
       <use xlink:href="#m599c8c811c" x="63" y="95.098626" style="fill: #262626; stroke: #262626; stroke-width: 1.25"/>
      </g>
     </g>
     <g id="text_16">
      <text style="fill: #262626; font: 11px 'Arial', 'DejaVu Sans', 'Liberation Sans', 'Bitstream Vera Sans', sans-serif; text-anchor: end" x="53.5" y="99.277767" transform="rotate(-0 53.5 99.277767)">1200</text>
     </g>
    </g>
    <g id="ytick_8">
     <g id="line2d_16">
      <g>
       <use xlink:href="#m599c8c811c" x="63" y="68.228397" style="fill: #262626; stroke: #262626; stroke-width: 1.25"/>
      </g>
     </g>
     <g id="text_17">
      <text style="fill: #262626; font: 11px 'Arial', 'DejaVu Sans', 'Liberation Sans', 'Bitstream Vera Sans', sans-serif; text-anchor: end" x="53.5" y="72.407538" transform="rotate(-0 53.5 72.407538)">1400</text>
     </g>
    </g>
    <g id="ytick_9">
     <g id="line2d_17">
      <g>
       <use xlink:href="#m599c8c811c" x="63" y="41.358168" style="fill: #262626; stroke: #262626; stroke-width: 1.25"/>
      </g>
     </g>
     <g id="text_18">
      <text style="fill: #262626; font: 11px 'Arial', 'DejaVu Sans', 'Liberation Sans', 'Bitstream Vera Sans', sans-serif; text-anchor: end" x="53.5" y="45.537309" transform="rotate(-0 53.5 45.537309)">1600</text>
     </g>
    </g>
    <g id="text_19">
     <text style="fill: #262626; font: 12px 'Arial', 'DejaVu Sans', 'Liberation Sans', 'Bitstream Vera Sans', sans-serif; text-anchor: middle" x="19.009375" y="145.44" transform="rotate(-90 19.009375 145.44)">Count</text>
    </g>
   </g>
   <g id="patch_3">
    <path d="M 80.754545 256.32 
L 84.305455 256.32 
L 84.305455 256.051298 
L 80.754545 256.051298 
z
" clip-path="url(#p17ea79718a)" style="fill: #4c72b0; fill-opacity: 0.75; stroke: #ffffff; stroke-width: 0.355091; stroke-linejoin: miter"/>
   </g>
   <g id="patch_4">
    <path d="M 84.305455 256.32 
L 87.856364 256.32 
L 87.856364 256.32 
L 84.305455 256.32 
z
" clip-path="url(#p17ea79718a)" style="fill: #4c72b0; fill-opacity: 0.75; stroke: #ffffff; stroke-width: 0.355091; stroke-linejoin: miter"/>
   </g>
   <g id="patch_5">
    <path d="M 87.856364 256.32 
L 91.407273 256.32 
L 91.407273 256.185649 
L 87.856364 256.185649 
z
" clip-path="url(#p17ea79718a)" style="fill: #4c72b0; fill-opacity: 0.75; stroke: #ffffff; stroke-width: 0.355091; stroke-linejoin: miter"/>
   </g>
   <g id="patch_6">
    <path d="M 91.407273 256.32 
L 94.958182 256.32 
L 94.958182 256.32 
L 91.407273 256.32 
z
" clip-path="url(#p17ea79718a)" style="fill: #4c72b0; fill-opacity: 0.75; stroke: #ffffff; stroke-width: 0.355091; stroke-linejoin: miter"/>
   </g>
   <g id="patch_7">
    <path d="M 94.958182 256.32 
L 98.509091 256.32 
L 98.509091 256.185649 
L 94.958182 256.185649 
z
" clip-path="url(#p17ea79718a)" style="fill: #4c72b0; fill-opacity: 0.75; stroke: #ffffff; stroke-width: 0.355091; stroke-linejoin: miter"/>
   </g>
   <g id="patch_8">
    <path d="M 98.509091 256.32 
L 102.06 256.32 
L 102.06 256.32 
L 98.509091 256.32 
z
" clip-path="url(#p17ea79718a)" style="fill: #4c72b0; fill-opacity: 0.75; stroke: #ffffff; stroke-width: 0.355091; stroke-linejoin: miter"/>
   </g>
   <g id="patch_9">
    <path d="M 102.06 256.32 
L 105.610909 256.32 
L 105.610909 256.32 
L 102.06 256.32 
z
" clip-path="url(#p17ea79718a)" style="fill: #4c72b0; fill-opacity: 0.75; stroke: #ffffff; stroke-width: 0.355091; stroke-linejoin: miter"/>
   </g>
   <g id="patch_10">
    <path d="M 105.610909 256.32 
L 109.161818 256.32 
L 109.161818 256.051298 
L 105.610909 256.051298 
z
" clip-path="url(#p17ea79718a)" style="fill: #4c72b0; fill-opacity: 0.75; stroke: #ffffff; stroke-width: 0.355091; stroke-linejoin: miter"/>
   </g>
   <g id="patch_11">
    <path d="M 109.161818 256.32 
L 112.712727 256.32 
L 112.712727 256.051298 
L 109.161818 256.051298 
z
" clip-path="url(#p17ea79718a)" style="fill: #4c72b0; fill-opacity: 0.75; stroke: #ffffff; stroke-width: 0.355091; stroke-linejoin: miter"/>
   </g>
   <g id="patch_12">
    <path d="M 112.712727 256.32 
L 116.263636 256.32 
L 116.263636 256.32 
L 112.712727 256.32 
z
" clip-path="url(#p17ea79718a)" style="fill: #4c72b0; fill-opacity: 0.75; stroke: #ffffff; stroke-width: 0.355091; stroke-linejoin: miter"/>
   </g>
   <g id="patch_13">
    <path d="M 116.263636 256.32 
L 119.814545 256.32 
L 119.814545 255.916947 
L 116.263636 255.916947 
z
" clip-path="url(#p17ea79718a)" style="fill: #4c72b0; fill-opacity: 0.75; stroke: #ffffff; stroke-width: 0.355091; stroke-linejoin: miter"/>
   </g>
   <g id="patch_14">
    <path d="M 119.814545 256.32 
L 123.365455 256.32 
L 123.365455 256.32 
L 119.814545 256.32 
z
" clip-path="url(#p17ea79718a)" style="fill: #4c72b0; fill-opacity: 0.75; stroke: #ffffff; stroke-width: 0.355091; stroke-linejoin: miter"/>
   </g>
   <g id="patch_15">
    <path d="M 123.365455 256.32 
L 126.916364 256.32 
L 126.916364 255.782595 
L 123.365455 255.782595 
z
" clip-path="url(#p17ea79718a)" style="fill: #4c72b0; fill-opacity: 0.75; stroke: #ffffff; stroke-width: 0.355091; stroke-linejoin: miter"/>
   </g>
   <g id="patch_16">
    <path d="M 126.916364 256.32 
L 130.467273 256.32 
L 130.467273 256.185649 
L 126.916364 256.185649 
z
" clip-path="url(#p17ea79718a)" style="fill: #4c72b0; fill-opacity: 0.75; stroke: #ffffff; stroke-width: 0.355091; stroke-linejoin: miter"/>
   </g>
   <g id="patch_17">
    <path d="M 130.467273 256.32 
L 134.018182 256.32 
L 134.018182 255.245191 
L 130.467273 255.245191 
z
" clip-path="url(#p17ea79718a)" style="fill: #4c72b0; fill-opacity: 0.75; stroke: #ffffff; stroke-width: 0.355091; stroke-linejoin: miter"/>
   </g>
   <g id="patch_18">
    <path d="M 134.018182 256.32 
L 137.569091 256.32 
L 137.569091 255.916947 
L 134.018182 255.916947 
z
" clip-path="url(#p17ea79718a)" style="fill: #4c72b0; fill-opacity: 0.75; stroke: #ffffff; stroke-width: 0.355091; stroke-linejoin: miter"/>
   </g>
   <g id="patch_19">
    <path d="M 137.569091 256.32 
L 141.12 256.32 
L 141.12 255.513893 
L 137.569091 255.513893 
z
" clip-path="url(#p17ea79718a)" style="fill: #4c72b0; fill-opacity: 0.75; stroke: #ffffff; stroke-width: 0.355091; stroke-linejoin: miter"/>
   </g>
   <g id="patch_20">
    <path d="M 141.12 256.32 
L 144.670909 256.32 
L 144.670909 255.916947 
L 141.12 255.916947 
z
" clip-path="url(#p17ea79718a)" style="fill: #4c72b0; fill-opacity: 0.75; stroke: #ffffff; stroke-width: 0.355091; stroke-linejoin: miter"/>
   </g>
   <g id="patch_21">
    <path d="M 144.670909 256.32 
L 148.221818 256.32 
L 148.221818 255.379542 
L 144.670909 255.379542 
z
" clip-path="url(#p17ea79718a)" style="fill: #4c72b0; fill-opacity: 0.75; stroke: #ffffff; stroke-width: 0.355091; stroke-linejoin: miter"/>
   </g>
   <g id="patch_22">
    <path d="M 148.221818 256.32 
L 151.772727 256.32 
L 151.772727 255.782595 
L 148.221818 255.782595 
z
" clip-path="url(#p17ea79718a)" style="fill: #4c72b0; fill-opacity: 0.75; stroke: #ffffff; stroke-width: 0.355091; stroke-linejoin: miter"/>
   </g>
   <g id="patch_23">
    <path d="M 151.772727 256.32 
L 155.323636 256.32 
L 155.323636 255.648244 
L 151.772727 255.648244 
z
" clip-path="url(#p17ea79718a)" style="fill: #4c72b0; fill-opacity: 0.75; stroke: #ffffff; stroke-width: 0.355091; stroke-linejoin: miter"/>
   </g>
   <g id="patch_24">
    <path d="M 155.323636 256.32 
L 158.874545 256.32 
L 158.874545 254.573435 
L 155.323636 254.573435 
z
" clip-path="url(#p17ea79718a)" style="fill: #4c72b0; fill-opacity: 0.75; stroke: #ffffff; stroke-width: 0.355091; stroke-linejoin: miter"/>
   </g>
   <g id="patch_25">
    <path d="M 158.874545 256.32 
L 162.425455 256.32 
L 162.425455 252.961221 
L 158.874545 252.961221 
z
" clip-path="url(#p17ea79718a)" style="fill: #4c72b0; fill-opacity: 0.75; stroke: #ffffff; stroke-width: 0.355091; stroke-linejoin: miter"/>
   </g>
   <g id="patch_26">
    <path d="M 162.425455 256.32 
L 165.976364 256.32 
L 165.976364 253.901679 
L 162.425455 253.901679 
z
" clip-path="url(#p17ea79718a)" style="fill: #4c72b0; fill-opacity: 0.75; stroke: #ffffff; stroke-width: 0.355091; stroke-linejoin: miter"/>
   </g>
   <g id="patch_27">
    <path d="M 165.976364 256.32 
L 169.527273 256.32 
L 169.527273 254.170382 
L 165.976364 254.170382 
z
" clip-path="url(#p17ea79718a)" style="fill: #4c72b0; fill-opacity: 0.75; stroke: #ffffff; stroke-width: 0.355091; stroke-linejoin: miter"/>
   </g>
   <g id="patch_28">
    <path d="M 169.527273 256.32 
L 173.078182 256.32 
L 173.078182 252.423817 
L 169.527273 252.423817 
z
" clip-path="url(#p17ea79718a)" style="fill: #4c72b0; fill-opacity: 0.75; stroke: #ffffff; stroke-width: 0.355091; stroke-linejoin: miter"/>
   </g>
   <g id="patch_29">
    <path d="M 173.078182 256.32 
L 176.629091 256.32 
L 176.629091 249.602443 
L 173.078182 249.602443 
z
" clip-path="url(#p17ea79718a)" style="fill: #4c72b0; fill-opacity: 0.75; stroke: #ffffff; stroke-width: 0.355091; stroke-linejoin: miter"/>
   </g>
   <g id="patch_30">
    <path d="M 176.629091 256.32 
L 180.18 256.32 
L 180.18 250.005496 
L 176.629091 250.005496 
z
" clip-path="url(#p17ea79718a)" style="fill: #4c72b0; fill-opacity: 0.75; stroke: #ffffff; stroke-width: 0.355091; stroke-linejoin: miter"/>
   </g>
   <g id="patch_31">
    <path d="M 180.18 256.32 
L 183.730909 256.32 
L 183.730909 249.065038 
L 180.18 249.065038 
z
" clip-path="url(#p17ea79718a)" style="fill: #4c72b0; fill-opacity: 0.75; stroke: #ffffff; stroke-width: 0.355091; stroke-linejoin: miter"/>
   </g>
   <g id="patch_32">
    <path d="M 183.730909 256.32 
L 187.281818 256.32 
L 187.281818 246.243664 
L 183.730909 246.243664 
z
" clip-path="url(#p17ea79718a)" style="fill: #4c72b0; fill-opacity: 0.75; stroke: #ffffff; stroke-width: 0.355091; stroke-linejoin: miter"/>
   </g>
   <g id="patch_33">
    <path d="M 187.281818 256.32 
L 190.832727 256.32 
L 190.832727 243.690992 
L 187.281818 243.690992 
z
" clip-path="url(#p17ea79718a)" style="fill: #4c72b0; fill-opacity: 0.75; stroke: #ffffff; stroke-width: 0.355091; stroke-linejoin: miter"/>
   </g>
   <g id="patch_34">
    <path d="M 190.832727 256.32 
L 194.383636 256.32 
L 194.383636 242.750534 
L 190.832727 242.750534 
z
" clip-path="url(#p17ea79718a)" style="fill: #4c72b0; fill-opacity: 0.75; stroke: #ffffff; stroke-width: 0.355091; stroke-linejoin: miter"/>
   </g>
   <g id="patch_35">
    <path d="M 194.383636 256.32 
L 197.934545 256.32 
L 197.934545 229.449771 
L 194.383636 229.449771 
z
" clip-path="url(#p17ea79718a)" style="fill: #4c72b0; fill-opacity: 0.75; stroke: #ffffff; stroke-width: 0.355091; stroke-linejoin: miter"/>
   </g>
   <g id="patch_36">
    <path d="M 197.934545 256.32 
L 201.485455 256.32 
L 201.485455 225.956641 
L 197.934545 225.956641 
z
" clip-path="url(#p17ea79718a)" style="fill: #4c72b0; fill-opacity: 0.75; stroke: #ffffff; stroke-width: 0.355091; stroke-linejoin: miter"/>
   </g>
   <g id="patch_37">
    <path d="M 201.485455 256.32 
L 205.036364 256.32 
L 205.036364 216.41771 
L 201.485455 216.41771 
z
" clip-path="url(#p17ea79718a)" style="fill: #4c72b0; fill-opacity: 0.75; stroke: #ffffff; stroke-width: 0.355091; stroke-linejoin: miter"/>
   </g>
   <g id="patch_38">
    <path d="M 205.036364 256.32 
L 208.587273 256.32 
L 208.587273 205.132214 
L 205.036364 205.132214 
z
" clip-path="url(#p17ea79718a)" style="fill: #4c72b0; fill-opacity: 0.75; stroke: #ffffff; stroke-width: 0.355091; stroke-linejoin: miter"/>
   </g>
   <g id="patch_39">
    <path d="M 208.587273 256.32 
L 212.138182 256.32 
L 212.138182 196.399389 
L 208.587273 196.399389 
z
" clip-path="url(#p17ea79718a)" style="fill: #4c72b0; fill-opacity: 0.75; stroke: #ffffff; stroke-width: 0.355091; stroke-linejoin: miter"/>
   </g>
   <g id="patch_40">
    <path d="M 212.138182 256.32 
L 215.689091 256.32 
L 215.689091 174.365802 
L 212.138182 174.365802 
z
" clip-path="url(#p17ea79718a)" style="fill: #4c72b0; fill-opacity: 0.75; stroke: #ffffff; stroke-width: 0.355091; stroke-linejoin: miter"/>
   </g>
   <g id="patch_41">
    <path d="M 215.689091 256.32 
L 219.24 256.32 
L 219.24 166.170382 
L 215.689091 166.170382 
z
" clip-path="url(#p17ea79718a)" style="fill: #4c72b0; fill-opacity: 0.75; stroke: #ffffff; stroke-width: 0.355091; stroke-linejoin: miter"/>
   </g>
   <g id="patch_42">
    <path d="M 219.24 256.32 
L 222.790909 256.32 
L 222.790909 140.778015 
L 219.24 140.778015 
z
" clip-path="url(#p17ea79718a)" style="fill: #4c72b0; fill-opacity: 0.75; stroke: #ffffff; stroke-width: 0.355091; stroke-linejoin: miter"/>
   </g>
   <g id="patch_43">
    <path d="M 222.790909 256.32 
L 226.341818 256.32 
L 226.341818 134.597863 
L 222.790909 134.597863 
z
" clip-path="url(#p17ea79718a)" style="fill: #4c72b0; fill-opacity: 0.75; stroke: #ffffff; stroke-width: 0.355091; stroke-linejoin: miter"/>
   </g>
   <g id="patch_44">
    <path d="M 226.341818 256.32 
L 229.892727 256.32 
L 229.892727 124.521527 
L 226.341818 124.521527 
z
" clip-path="url(#p17ea79718a)" style="fill: #4c72b0; fill-opacity: 0.75; stroke: #ffffff; stroke-width: 0.355091; stroke-linejoin: miter"/>
   </g>
   <g id="patch_45">
    <path d="M 229.892727 256.32 
L 233.443636 256.32 
L 233.443636 103.025344 
L 229.892727 103.025344 
z
" clip-path="url(#p17ea79718a)" style="fill: #4c72b0; fill-opacity: 0.75; stroke: #ffffff; stroke-width: 0.355091; stroke-linejoin: miter"/>
   </g>
   <g id="patch_46">
    <path d="M 233.443636 256.32 
L 236.994545 256.32 
L 236.994545 90.530687 
L 233.443636 90.530687 
z
" clip-path="url(#p17ea79718a)" style="fill: #4c72b0; fill-opacity: 0.75; stroke: #ffffff; stroke-width: 0.355091; stroke-linejoin: miter"/>
   </g>
   <g id="patch_47">
    <path d="M 236.994545 256.32 
L 240.545455 256.32 
L 240.545455 101.547481 
L 236.994545 101.547481 
z
" clip-path="url(#p17ea79718a)" style="fill: #4c72b0; fill-opacity: 0.75; stroke: #ffffff; stroke-width: 0.355091; stroke-linejoin: miter"/>
   </g>
   <g id="patch_48">
    <path d="M 240.545455 256.32 
L 244.096364 256.32 
L 244.096364 76.961221 
L 240.545455 76.961221 
z
" clip-path="url(#p17ea79718a)" style="fill: #4c72b0; fill-opacity: 0.75; stroke: #ffffff; stroke-width: 0.355091; stroke-linejoin: miter"/>
   </g>
   <g id="patch_49">
    <path d="M 244.096364 256.32 
L 247.647273 256.32 
L 247.647273 73.871145 
L 244.096364 73.871145 
z
" clip-path="url(#p17ea79718a)" style="fill: #4c72b0; fill-opacity: 0.75; stroke: #ffffff; stroke-width: 0.355091; stroke-linejoin: miter"/>
   </g>
   <g id="patch_50">
    <path d="M 247.647273 256.32 
L 251.198182 256.32 
L 251.198182 71.587176 
L 247.647273 71.587176 
z
" clip-path="url(#p17ea79718a)" style="fill: #4c72b0; fill-opacity: 0.75; stroke: #ffffff; stroke-width: 0.355091; stroke-linejoin: miter"/>
   </g>
   <g id="patch_51">
    <path d="M 251.198182 256.32 
L 254.749091 256.32 
L 254.749091 59.092519 
L 251.198182 59.092519 
z
" clip-path="url(#p17ea79718a)" style="fill: #4c72b0; fill-opacity: 0.75; stroke: #ffffff; stroke-width: 0.355091; stroke-linejoin: miter"/>
   </g>
   <g id="patch_52">
    <path d="M 254.749091 256.32 
L 258.3 256.32 
L 258.3 60.839084 
L 254.749091 60.839084 
z
" clip-path="url(#p17ea79718a)" style="fill: #4c72b0; fill-opacity: 0.75; stroke: #ffffff; stroke-width: 0.355091; stroke-linejoin: miter"/>
   </g>
   <g id="patch_53">
    <path d="M 258.3 256.32 
L 261.850909 256.32 
L 261.850909 68.094046 
L 258.3 68.094046 
z
" clip-path="url(#p17ea79718a)" style="fill: #4c72b0; fill-opacity: 0.75; stroke: #ffffff; stroke-width: 0.355091; stroke-linejoin: miter"/>
   </g>
   <g id="patch_54">
    <path d="M 261.850909 256.32 
L 265.401818 256.32 
L 265.401818 45.12 
L 261.850909 45.12 
z
" clip-path="url(#p17ea79718a)" style="fill: #4c72b0; fill-opacity: 0.75; stroke: #ffffff; stroke-width: 0.355091; stroke-linejoin: miter"/>
   </g>
   <g id="patch_55">
    <path d="M 265.401818 256.32 
L 268.952727 256.32 
L 268.952727 49.82229 
L 265.401818 49.82229 
z
" clip-path="url(#p17ea79718a)" style="fill: #4c72b0; fill-opacity: 0.75; stroke: #ffffff; stroke-width: 0.355091; stroke-linejoin: miter"/>
   </g>
   <g id="patch_56">
    <path d="M 268.952727 256.32 
L 272.503636 256.32 
L 272.503636 56.942901 
L 268.952727 56.942901 
z
" clip-path="url(#p17ea79718a)" style="fill: #4c72b0; fill-opacity: 0.75; stroke: #ffffff; stroke-width: 0.355091; stroke-linejoin: miter"/>
   </g>
   <g id="patch_57">
    <path d="M 272.503636 256.32 
L 276.054545 256.32 
L 276.054545 53.852824 
L 272.503636 53.852824 
z
" clip-path="url(#p17ea79718a)" style="fill: #4c72b0; fill-opacity: 0.75; stroke: #ffffff; stroke-width: 0.355091; stroke-linejoin: miter"/>
   </g>
   <g id="patch_58">
    <path d="M 276.054545 256.32 
L 279.605455 256.32 
L 279.605455 66.616183 
L 276.054545 66.616183 
z
" clip-path="url(#p17ea79718a)" style="fill: #4c72b0; fill-opacity: 0.75; stroke: #ffffff; stroke-width: 0.355091; stroke-linejoin: miter"/>
   </g>
   <g id="patch_59">
    <path d="M 279.605455 256.32 
L 283.156364 256.32 
L 283.156364 69.571908 
L 279.605455 69.571908 
z
" clip-path="url(#p17ea79718a)" style="fill: #4c72b0; fill-opacity: 0.75; stroke: #ffffff; stroke-width: 0.355091; stroke-linejoin: miter"/>
   </g>
   <g id="patch_60">
    <path d="M 283.156364 256.32 
L 286.707273 256.32 
L 286.707273 90.530687 
L 283.156364 90.530687 
z
" clip-path="url(#p17ea79718a)" style="fill: #4c72b0; fill-opacity: 0.75; stroke: #ffffff; stroke-width: 0.355091; stroke-linejoin: miter"/>
   </g>
   <g id="patch_61">
    <path d="M 286.707273 256.32 
L 290.258182 256.32 
L 290.258182 101.41313 
L 286.707273 101.41313 
z
" clip-path="url(#p17ea79718a)" style="fill: #4c72b0; fill-opacity: 0.75; stroke: #ffffff; stroke-width: 0.355091; stroke-linejoin: miter"/>
   </g>
   <g id="patch_62">
    <path d="M 290.258182 256.32 
L 293.809091 256.32 
L 293.809091 111.623817 
L 290.258182 111.623817 
z
" clip-path="url(#p17ea79718a)" style="fill: #4c72b0; fill-opacity: 0.75; stroke: #ffffff; stroke-width: 0.355091; stroke-linejoin: miter"/>
   </g>
   <g id="patch_63">
    <path d="M 293.809091 256.32 
L 297.36 256.32 
L 297.36 120.759695 
L 293.809091 120.759695 
z
" clip-path="url(#p17ea79718a)" style="fill: #4c72b0; fill-opacity: 0.75; stroke: #ffffff; stroke-width: 0.355091; stroke-linejoin: miter"/>
   </g>
   <g id="patch_64">
    <path d="M 297.36 256.32 
L 300.910909 256.32 
L 300.910909 125.999389 
L 297.36 125.999389 
z
" clip-path="url(#p17ea79718a)" style="fill: #4c72b0; fill-opacity: 0.75; stroke: #ffffff; stroke-width: 0.355091; stroke-linejoin: miter"/>
   </g>
   <g id="patch_65">
    <path d="M 300.910909 256.32 
L 304.461818 256.32 
L 304.461818 144.674198 
L 300.910909 144.674198 
z
" clip-path="url(#p17ea79718a)" style="fill: #4c72b0; fill-opacity: 0.75; stroke: #ffffff; stroke-width: 0.355091; stroke-linejoin: miter"/>
   </g>
   <g id="patch_66">
    <path d="M 304.461818 256.32 
L 308.012727 256.32 
L 308.012727 149.51084 
L 304.461818 149.51084 
z
" clip-path="url(#p17ea79718a)" style="fill: #4c72b0; fill-opacity: 0.75; stroke: #ffffff; stroke-width: 0.355091; stroke-linejoin: miter"/>
   </g>
   <g id="patch_67">
    <path d="M 308.012727 256.32 
L 311.563636 256.32 
L 311.563636 168.454351 
L 308.012727 168.454351 
z
" clip-path="url(#p17ea79718a)" style="fill: #4c72b0; fill-opacity: 0.75; stroke: #ffffff; stroke-width: 0.355091; stroke-linejoin: miter"/>
   </g>
   <g id="patch_68">
    <path d="M 311.563636 256.32 
L 315.114545 256.32 
L 315.114545 173.156641 
L 311.563636 173.156641 
z
" clip-path="url(#p17ea79718a)" style="fill: #4c72b0; fill-opacity: 0.75; stroke: #ffffff; stroke-width: 0.355091; stroke-linejoin: miter"/>
   </g>
   <g id="patch_69">
    <path d="M 315.114545 256.32 
L 318.665455 256.32 
L 318.665455 186.054351 
L 315.114545 186.054351 
z
" clip-path="url(#p17ea79718a)" style="fill: #4c72b0; fill-opacity: 0.75; stroke: #ffffff; stroke-width: 0.355091; stroke-linejoin: miter"/>
   </g>
   <g id="patch_70">
    <path d="M 318.665455 256.32 
L 322.216364 256.32 
L 322.216364 202.042137 
L 318.665455 202.042137 
z
" clip-path="url(#p17ea79718a)" style="fill: #4c72b0; fill-opacity: 0.75; stroke: #ffffff; stroke-width: 0.355091; stroke-linejoin: miter"/>
   </g>
   <g id="patch_71">
    <path d="M 322.216364 256.32 
L 325.767273 256.32 
L 325.767273 203.654351 
L 322.216364 203.654351 
z
" clip-path="url(#p17ea79718a)" style="fill: #4c72b0; fill-opacity: 0.75; stroke: #ffffff; stroke-width: 0.355091; stroke-linejoin: miter"/>
   </g>
   <g id="patch_72">
    <path d="M 325.767273 256.32 
L 329.318182 256.32 
L 329.318182 210.774962 
L 325.767273 210.774962 
z
" clip-path="url(#p17ea79718a)" style="fill: #4c72b0; fill-opacity: 0.75; stroke: #ffffff; stroke-width: 0.355091; stroke-linejoin: miter"/>
   </g>
   <g id="patch_73">
    <path d="M 329.318182 256.32 
L 332.869091 256.32 
L 332.869091 216.955115 
L 329.318182 216.955115 
z
" clip-path="url(#p17ea79718a)" style="fill: #4c72b0; fill-opacity: 0.75; stroke: #ffffff; stroke-width: 0.355091; stroke-linejoin: miter"/>
   </g>
   <g id="patch_74">
    <path d="M 332.869091 256.32 
L 336.42 256.32 
L 336.42 224.881832 
L 332.869091 224.881832 
z
" clip-path="url(#p17ea79718a)" style="fill: #4c72b0; fill-opacity: 0.75; stroke: #ffffff; stroke-width: 0.355091; stroke-linejoin: miter"/>
   </g>
   <g id="patch_75">
    <path d="M 336.42 256.32 
L 339.970909 256.32 
L 339.970909 233.345954 
L 336.42 233.345954 
z
" clip-path="url(#p17ea79718a)" style="fill: #4c72b0; fill-opacity: 0.75; stroke: #ffffff; stroke-width: 0.355091; stroke-linejoin: miter"/>
   </g>
   <g id="patch_76">
    <path d="M 339.970909 256.32 
L 343.521818 256.32 
L 343.521818 236.570382 
L 339.970909 236.570382 
z
" clip-path="url(#p17ea79718a)" style="fill: #4c72b0; fill-opacity: 0.75; stroke: #ffffff; stroke-width: 0.355091; stroke-linejoin: miter"/>
   </g>
   <g id="patch_77">
    <path d="M 343.521818 256.32 
L 347.072727 256.32 
L 347.072727 240.332214 
L 343.521818 240.332214 
z
" clip-path="url(#p17ea79718a)" style="fill: #4c72b0; fill-opacity: 0.75; stroke: #ffffff; stroke-width: 0.355091; stroke-linejoin: miter"/>
   </g>
   <g id="patch_78">
    <path d="M 347.072727 256.32 
L 350.623636 256.32 
L 350.623636 243.42229 
L 347.072727 243.42229 
z
" clip-path="url(#p17ea79718a)" style="fill: #4c72b0; fill-opacity: 0.75; stroke: #ffffff; stroke-width: 0.355091; stroke-linejoin: miter"/>
   </g>
   <g id="patch_79">
    <path d="M 350.623636 256.32 
L 354.174545 256.32 
L 354.174545 246.646718 
L 350.623636 246.646718 
z
" clip-path="url(#p17ea79718a)" style="fill: #4c72b0; fill-opacity: 0.75; stroke: #ffffff; stroke-width: 0.355091; stroke-linejoin: miter"/>
   </g>
   <g id="patch_80">
    <path d="M 354.174545 256.32 
L 357.725455 256.32 
L 357.725455 249.199389 
L 354.174545 249.199389 
z
" clip-path="url(#p17ea79718a)" style="fill: #4c72b0; fill-opacity: 0.75; stroke: #ffffff; stroke-width: 0.355091; stroke-linejoin: miter"/>
   </g>
   <g id="patch_81">
    <path d="M 357.725455 256.32 
L 361.276364 256.32 
L 361.276364 249.468092 
L 357.725455 249.468092 
z
" clip-path="url(#p17ea79718a)" style="fill: #4c72b0; fill-opacity: 0.75; stroke: #ffffff; stroke-width: 0.355091; stroke-linejoin: miter"/>
   </g>
   <g id="patch_82">
    <path d="M 361.276364 256.32 
L 364.827273 256.32 
L 364.827273 252.289466 
L 361.276364 252.289466 
z
" clip-path="url(#p17ea79718a)" style="fill: #4c72b0; fill-opacity: 0.75; stroke: #ffffff; stroke-width: 0.355091; stroke-linejoin: miter"/>
   </g>
   <g id="patch_83">
    <path d="M 364.827273 256.32 
L 368.378182 256.32 
L 368.378182 253.498626 
L 364.827273 253.498626 
z
" clip-path="url(#p17ea79718a)" style="fill: #4c72b0; fill-opacity: 0.75; stroke: #ffffff; stroke-width: 0.355091; stroke-linejoin: miter"/>
   </g>
   <g id="patch_84">
    <path d="M 368.378182 256.32 
L 371.929091 256.32 
L 371.929091 253.901679 
L 368.378182 253.901679 
z
" clip-path="url(#p17ea79718a)" style="fill: #4c72b0; fill-opacity: 0.75; stroke: #ffffff; stroke-width: 0.355091; stroke-linejoin: miter"/>
   </g>
   <g id="patch_85">
    <path d="M 371.929091 256.32 
L 375.48 256.32 
L 375.48 254.842137 
L 371.929091 254.842137 
z
" clip-path="url(#p17ea79718a)" style="fill: #4c72b0; fill-opacity: 0.75; stroke: #ffffff; stroke-width: 0.355091; stroke-linejoin: miter"/>
   </g>
   <g id="patch_86">
    <path d="M 375.48 256.32 
L 379.030909 256.32 
L 379.030909 254.707786 
L 375.48 254.707786 
z
" clip-path="url(#p17ea79718a)" style="fill: #4c72b0; fill-opacity: 0.75; stroke: #ffffff; stroke-width: 0.355091; stroke-linejoin: miter"/>
   </g>
   <g id="patch_87">
    <path d="M 379.030909 256.32 
L 382.581818 256.32 
L 382.581818 255.513893 
L 379.030909 255.513893 
z
" clip-path="url(#p17ea79718a)" style="fill: #4c72b0; fill-opacity: 0.75; stroke: #ffffff; stroke-width: 0.355091; stroke-linejoin: miter"/>
   </g>
   <g id="patch_88">
    <path d="M 382.581818 256.32 
L 386.132727 256.32 
L 386.132727 254.170382 
L 382.581818 254.170382 
z
" clip-path="url(#p17ea79718a)" style="fill: #4c72b0; fill-opacity: 0.75; stroke: #ffffff; stroke-width: 0.355091; stroke-linejoin: miter"/>
   </g>
   <g id="patch_89">
    <path d="M 386.132727 256.32 
L 389.683636 256.32 
L 389.683636 255.513893 
L 386.132727 255.513893 
z
" clip-path="url(#p17ea79718a)" style="fill: #4c72b0; fill-opacity: 0.75; stroke: #ffffff; stroke-width: 0.355091; stroke-linejoin: miter"/>
   </g>
   <g id="patch_90">
    <path d="M 389.683636 256.32 
L 393.234545 256.32 
L 393.234545 255.648244 
L 389.683636 255.648244 
z
" clip-path="url(#p17ea79718a)" style="fill: #4c72b0; fill-opacity: 0.75; stroke: #ffffff; stroke-width: 0.355091; stroke-linejoin: miter"/>
   </g>
   <g id="patch_91">
    <path d="M 393.234545 256.32 
L 396.785455 256.32 
L 396.785455 255.513893 
L 393.234545 255.513893 
z
" clip-path="url(#p17ea79718a)" style="fill: #4c72b0; fill-opacity: 0.75; stroke: #ffffff; stroke-width: 0.355091; stroke-linejoin: miter"/>
   </g>
   <g id="patch_92">
    <path d="M 396.785455 256.32 
L 400.336364 256.32 
L 400.336364 255.916947 
L 396.785455 255.916947 
z
" clip-path="url(#p17ea79718a)" style="fill: #4c72b0; fill-opacity: 0.75; stroke: #ffffff; stroke-width: 0.355091; stroke-linejoin: miter"/>
   </g>
   <g id="patch_93">
    <path d="M 400.336364 256.32 
L 403.887273 256.32 
L 403.887273 255.245191 
L 400.336364 255.245191 
z
" clip-path="url(#p17ea79718a)" style="fill: #4c72b0; fill-opacity: 0.75; stroke: #ffffff; stroke-width: 0.355091; stroke-linejoin: miter"/>
   </g>
   <g id="patch_94">
    <path d="M 403.887273 256.32 
L 407.438182 256.32 
L 407.438182 255.782595 
L 403.887273 255.782595 
z
" clip-path="url(#p17ea79718a)" style="fill: #4c72b0; fill-opacity: 0.75; stroke: #ffffff; stroke-width: 0.355091; stroke-linejoin: miter"/>
   </g>
   <g id="patch_95">
    <path d="M 407.438182 256.32 
L 410.989091 256.32 
L 410.989091 256.185649 
L 407.438182 256.185649 
z
" clip-path="url(#p17ea79718a)" style="fill: #4c72b0; fill-opacity: 0.75; stroke: #ffffff; stroke-width: 0.355091; stroke-linejoin: miter"/>
   </g>
   <g id="patch_96">
    <path d="M 410.989091 256.32 
L 414.54 256.32 
L 414.54 256.185649 
L 410.989091 256.185649 
z
" clip-path="url(#p17ea79718a)" style="fill: #4c72b0; fill-opacity: 0.75; stroke: #ffffff; stroke-width: 0.355091; stroke-linejoin: miter"/>
   </g>
   <g id="patch_97">
    <path d="M 414.54 256.32 
L 418.090909 256.32 
L 418.090909 256.32 
L 414.54 256.32 
z
" clip-path="url(#p17ea79718a)" style="fill: #4c72b0; fill-opacity: 0.75; stroke: #ffffff; stroke-width: 0.355091; stroke-linejoin: miter"/>
   </g>
   <g id="patch_98">
    <path d="M 418.090909 256.32 
L 421.641818 256.32 
L 421.641818 256.32 
L 418.090909 256.32 
z
" clip-path="url(#p17ea79718a)" style="fill: #4c72b0; fill-opacity: 0.75; stroke: #ffffff; stroke-width: 0.355091; stroke-linejoin: miter"/>
   </g>
   <g id="patch_99">
    <path d="M 421.641818 256.32 
L 425.192727 256.32 
L 425.192727 256.185649 
L 421.641818 256.185649 
z
" clip-path="url(#p17ea79718a)" style="fill: #4c72b0; fill-opacity: 0.75; stroke: #ffffff; stroke-width: 0.355091; stroke-linejoin: miter"/>
   </g>
   <g id="patch_100">
    <path d="M 425.192727 256.32 
L 428.743636 256.32 
L 428.743636 256.185649 
L 425.192727 256.185649 
z
" clip-path="url(#p17ea79718a)" style="fill: #4c72b0; fill-opacity: 0.75; stroke: #ffffff; stroke-width: 0.355091; stroke-linejoin: miter"/>
   </g>
   <g id="patch_101">
    <path d="M 428.743636 256.32 
L 432.294545 256.32 
L 432.294545 256.32 
L 428.743636 256.32 
z
" clip-path="url(#p17ea79718a)" style="fill: #4c72b0; fill-opacity: 0.75; stroke: #ffffff; stroke-width: 0.355091; stroke-linejoin: miter"/>
   </g>
   <g id="patch_102">
    <path d="M 432.294545 256.32 
L 435.845455 256.32 
L 435.845455 256.051298 
L 432.294545 256.051298 
z
" clip-path="url(#p17ea79718a)" style="fill: #4c72b0; fill-opacity: 0.75; stroke: #ffffff; stroke-width: 0.355091; stroke-linejoin: miter"/>
   </g>
   <g id="patch_103">
    <path d="M 63 256.32 
L 63 34.56 
" style="fill: none; stroke: #262626; stroke-width: 1.25; stroke-linejoin: miter; stroke-linecap: square"/>
   </g>
   <g id="patch_104">
    <path d="M 453.6 256.32 
L 453.6 34.56 
" style="fill: none; stroke: #262626; stroke-width: 1.25; stroke-linejoin: miter; stroke-linecap: square"/>
   </g>
   <g id="patch_105">
    <path d="M 63 256.32 
L 453.6 256.32 
" style="fill: none; stroke: #262626; stroke-width: 1.25; stroke-linejoin: miter; stroke-linecap: square"/>
   </g>
   <g id="patch_106">
    <path d="M 63 34.56 
L 453.6 34.56 
" style="fill: none; stroke: #262626; stroke-width: 1.25; stroke-linejoin: miter; stroke-linecap: square"/>
   </g>
  </g>
 </g>
 <defs>
  <clipPath id="p17ea79718a">
   <rect x="63" y="34.56" width="390.6" height="221.76"/>
  </clipPath>
 </defs>
</svg>
