<?xml version="1.0" encoding="utf-8" standalone="no"?>
<!DOCTYPE svg PUBLIC "-//W3C//DTD SVG 1.1//EN"
  "http://www.w3.org/Graphics/SVG/1.1/DTD/svg11.dtd">
<svg xmlns:xlink="http://www.w3.org/1999/xlink" width="1018.8pt" height="1096.15325pt" viewBox="0 0 1018.8 1096.15325" xmlns="http://www.w3.org/2000/svg" version="1.1">
 <metadata>
  <rdf:RDF xmlns:dc="http://purl.org/dc/elements/1.1/" xmlns:cc="http://creativecommons.org/ns#" xmlns:rdf="http://www.w3.org/1999/02/22-rdf-syntax-ns#">
   <cc:Work>
    <dc:type rdf:resource="http://purl.org/dc/dcmitype/StillImage"/>
    <dc:date>2025-12-29T17:35:19.788131</dc:date>
    <dc:format>image/svg+xml</dc:format>
    <dc:creator>
     <cc:Agent>
      <dc:title>Matplotlib v3.8.4, https://matplotlib.org/</dc:title>
     </cc:Agent>
    </dc:creator>
   </cc:Work>
  </rdf:RDF>
 </metadata>
 <defs>
  <style type="text/css">*{stroke-linejoin: round; stroke-linecap: butt}</style>
 </defs>
 <g id="figure_1">
  <g id="patch_1">
   <path d="M 0 1096.15325 
L 1018.8 1096.15325 
L 1018.8 0 
L 0 0 
L 0 1096.15325 
z
" style="fill: none"/>
  </g>
  <g id="axes_1">
   <g id="patch_2">
    <path d="M 494.758602 299.296999 
C 457.53427 301.147751 421.005126 310.039646 387.13545 325.494542 
C 353.265774 340.949438 322.673736 362.68526 297.004361 389.53321 
L 307.118439 399.078927 
C 331.565463 373.50945 360.700737 352.808667 392.957571 338.089718 
C 425.214406 323.37077 460.004067 314.902298 495.455812 313.139678 
z
" clip-path="url(#p3b25916c6e)" style="fill: #cc660b; stroke: #000000; stroke-width: 0.5; stroke-linejoin: miter"/>
   </g>
   <g id="patch_3">
    <path d="M 287.185917 400.330605 
C 274.671124 414.804701 263.619205 430.466526 254.189798 447.089851 
C 244.76039 463.713177 236.999116 481.217578 231.018082 499.350213 
L 244.274363 503.666548 
C 249.970586 486.397372 257.362277 469.726514 266.342664 453.894775 
C 275.323052 438.063036 285.84869 423.147013 297.76754 409.362159 
z
" clip-path="url(#p3b25916c6e)" style="fill: #70453c; stroke: #000000; stroke-width: 0.5; stroke-linejoin: miter"/>
   </g>
   <g id="patch_4">
    <path d="M 226.806306 513.287027 
C 210.038038 574.268526 213.713881 639.048704 237.274552 697.771238 
C 260.835223 756.493772 303.021961 806.021327 357.41604 838.818272 
L 364.653372 826.969461 
C 312.849486 795.734276 272.671641 748.565175 250.232906 692.638953 
C 227.794172 636.71273 224.29337 575.017322 240.263148 516.939704 
z
" clip-path="url(#p3b25916c6e)" style="fill: #ab1f20; stroke: #000000; stroke-width: 0.5; stroke-linejoin: miter"/>
   </g>
   <g id="patch_5">
    <path d="M 370.122802 846.054331 
C 384.705202 853.884001 399.930165 860.469909 415.633706 865.741117 
C 431.337246 871.012326 447.462778 874.949842 463.836615 877.511254 
L 466.0063 863.81992 
C 450.41217 861.38048 435.05452 857.630465 420.098767 852.610267 
C 405.143015 847.590068 390.643049 841.317775 376.75505 833.860946 
z
" clip-path="url(#p3b25916c6e)" style="fill: #195f90; stroke: #000000; stroke-width: 0.5; stroke-linejoin: miter"/>
   </g>
   <g id="patch_6">
    <path d="M 478.356779 879.41446 
C 478.587466 879.438885 478.818181 879.463038 479.048926 879.486918 
C 479.27967 879.510799 479.510443 879.534407 479.741243 879.557743 
L 481.153565 865.768957 
C 480.933755 865.746733 480.713971 865.724249 480.494215 865.701505 
C 480.274458 865.678762 480.054729 865.655759 479.835028 865.632497 
z
" clip-path="url(#p3b25916c6e)" style="fill: #765297; stroke: #000000; stroke-width: 0.5; stroke-linejoin: miter"/>
   </g>
   <g id="patch_7">
    <path d="M 494.344477 880.668619 
C 494.413495 880.672148 494.482515 880.675652 494.551536 880.679133 
C 494.620557 880.682613 494.689579 880.686069 494.758602 880.689501 
L 495.455812 866.846822 
C 495.390075 866.843554 495.32434 866.840262 495.258606 866.836948 
C 495.192872 866.833633 495.127139 866.830296 495.061407 866.826935 
z
" clip-path="url(#p3b25916c6e)" style="fill: #238023; stroke: #000000; stroke-width: 0.5; stroke-linejoin: miter"/>
   </g>
   <g id="patch_8">
    <path d="M 524.041398 880.689501 
C 546.069553 879.594286 567.902928 876.030921 589.126154 870.067197 
C 610.349381 864.103472 630.827013 855.777449 650.169473 845.247525 
L 643.466165 833.09256 
C 625.044774 843.121059 605.542268 851.050605 585.329671 856.730342 
C 565.117074 862.410079 544.323384 865.803761 523.344188 866.846822 
z
" clip-path="url(#p3b25916c6e)" style="fill: #cc660b; opacity: 0.8; stroke: #000000; stroke-width: 0.3; stroke-linejoin: miter"/>
   </g>
   <g id="patch_9">
    <path d="M 652.765788 843.817064 
C 665.451775 836.743872 677.589888 828.741667 689.079358 819.876883 
C 700.568827 811.012099 711.377768 801.309337 721.416445 790.849149 
L 711.320424 781.284582 
C 701.759779 791.246666 691.465549 800.487392 680.523198 808.930043 
C 669.580846 817.372694 658.020738 824.993842 645.938845 831.730216 
z
" clip-path="url(#p3b25916c6e)" style="fill: #cc660b; opacity: 0.8; stroke: #000000; stroke-width: 0.3; stroke-linejoin: miter"/>
   </g>
   <g id="patch_10">
    <path d="M 723.454248 788.704123 
C 724.762846 787.312613 726.057667 785.908375 727.338523 784.491615 
C 728.61938 783.074854 729.88621 781.645637 731.138832 780.204171 
L 720.57984 771.146508 
C 719.386867 772.519333 718.180362 773.880491 716.960498 775.229788 
C 715.740635 776.579084 714.507472 777.916452 713.261189 779.2417 
z
" clip-path="url(#p3b25916c6e)" style="fill: #cc660b; opacity: 0.8; stroke: #000000; stroke-width: 0.3; stroke-linejoin: miter"/>
   </g>
   <g id="patch_11">
    <path d="M 733.06756 777.961801 
C 733.339069 777.642882 733.609887 777.323382 733.880011 777.003305 
C 734.150136 776.683227 734.419567 776.362573 734.688302 776.041343 
L 723.960288 767.18191 
C 723.70435 767.487843 723.447749 767.793229 723.190487 768.098064 
C 722.933225 768.4029 722.675304 768.707185 722.416723 769.010917 
z
" clip-path="url(#p3b25916c6e)" style="fill: #cc660b; opacity: 0.8; stroke: #000000; stroke-width: 0.3; stroke-linejoin: miter"/>
   </g>
   <g id="patch_12">
    <path d="M 736.574387 773.763448 
C 736.698155 773.612416 736.82177 773.46126 736.945232 773.309981 
C 737.068694 773.158703 737.192004 773.007301 737.31516 772.855776 
L 726.462057 764.148037 
C 726.344766 764.292346 726.227328 764.436538 726.109745 764.580613 
C 725.992162 764.724688 725.874433 764.868646 725.756559 765.012486 
z
" clip-path="url(#p3b25916c6e)" style="fill: #cc660b; opacity: 0.8; stroke: #000000; stroke-width: 0.3; stroke-linejoin: miter"/>
   </g>
   <g id="patch_13">
    <path d="M 739.168618 770.551596 
C 739.187447 770.527943 739.206273 770.504287 739.225095 770.480628 
C 739.243917 770.45697 739.262735 770.433308 739.281549 770.409644 
L 728.334809 761.818387 
C 728.31689 761.840924 728.298968 761.863459 728.281043 761.885991 
C 728.263117 761.908523 728.245188 761.931053 728.227255 761.953579 
z
" clip-path="url(#p3b25916c6e)" style="fill: #cc660b; opacity: 0.8; stroke: #000000; stroke-width: 0.3; stroke-linejoin: miter"/>
   </g>
   <g id="patch_14">
    <path d="M 741.109956 768.08579 
C 741.121948 768.070389 741.133939 768.054986 741.145927 768.039582 
C 741.157916 768.024178 741.169904 768.008772 741.181889 767.993366 
L 730.144657 759.51717 
C 730.133242 759.531843 730.121825 759.546514 730.110407 759.561185 
C 730.098989 759.575855 730.08757 759.590525 730.076149 759.605193 
z
" clip-path="url(#p3b25916c6e)" style="fill: #cc660b; opacity: 0.8; stroke: #000000; stroke-width: 0.3; stroke-linejoin: miter"/>
   </g>
   <g id="patch_15">
    <path d="M 742.985553 765.650503 
C 749.098031 757.626793 754.787587 749.293531 760.031297 740.684297 
C 765.275007 732.075062 770.065817 723.201433 774.384424 714.099166 
L 761.766118 708.18936 
C 757.653159 716.858186 753.090483 725.309261 748.096473 733.508533 
C 743.102464 741.707804 737.683839 749.644243 731.862432 757.285872 
z
" clip-path="url(#p3b25916c6e)" style="fill: #70453c; opacity: 0.8; stroke: #000000; stroke-width: 0.3; stroke-linejoin: miter"/>
   </g>
   <g id="patch_16">
    <path d="M 775.636673 711.424767 
C 777.532351 707.321979 779.331699 703.175927 781.033256 698.989976 
C 782.734813 694.804026 784.338119 690.579309 785.841873 686.319256 
L 772.677974 681.732304 
C 771.245828 685.789497 769.71887 689.813036 768.098339 693.799656 
C 766.477808 697.786276 764.764144 701.734897 762.958736 705.642314 
z
" clip-path="url(#p3b25916c6e)" style="fill: #70453c; opacity: 0.8; stroke: #000000; stroke-width: 0.3; stroke-linejoin: miter"/>
   </g>
   <g id="patch_17">
    <path d="M 786.810184 683.530923 
C 788.265261 679.271017 789.620742 674.978167 790.875534 670.655834 
C 792.130326 666.3335 793.284092 661.982844 794.335901 657.607374 
L 780.767525 654.387653 
C 779.765802 658.554769 778.666977 662.69825 777.471937 666.814758 
C 776.276897 670.931266 774.985963 675.019695 773.600175 679.076748 
z
" clip-path="url(#p3b25916c6e)" style="fill: #70453c; opacity: 0.8; stroke: #000000; stroke-width: 0.3; stroke-linejoin: miter"/>
   </g>
   <g id="patch_18">
    <path d="M 795.01092 654.734992 
C 795.170503 654.040038 795.327516 653.344505 795.481956 652.648405 
C 795.636396 651.952306 795.788262 651.255645 795.93755 650.558437 
L 782.292905 647.674381 
C 782.150726 648.338388 782.006092 649.001875 781.859006 649.664826 
C 781.71192 650.327778 781.562384 650.990191 781.4104 651.652051 
z
" clip-path="url(#p3b25916c6e)" style="fill: #70453c; opacity: 0.8; stroke: #000000; stroke-width: 0.3; stroke-linejoin: miter"/>
   </g>
   <g id="patch_19">
    <path d="M 796.540589 647.670291 
C 796.601355 647.371666 796.661648 647.072947 796.721469 646.774135 
C 796.78129 646.475322 796.840639 646.176417 796.899516 645.877419 
L 783.209063 643.216268 
C 783.15299 643.501028 783.096467 643.7857 783.039494 644.070283 
C 782.982522 644.354866 782.9251 644.639361 782.867228 644.923765 
z
" clip-path="url(#p3b25916c6e)" style="fill: #70453c; opacity: 0.8; stroke: #000000; stroke-width: 0.3; stroke-linejoin: miter"/>
   </g>
   <g id="patch_20">
    <path d="M 797.45476 642.979827 
C 805.748887 598.469795 803.478876 552.645006 790.825725 509.159288 
C 778.172574 465.673569 755.481765 425.714251 724.562541 392.467476 
L 714.316706 401.873465 
C 743.763586 433.53706 765.37388 471.593554 777.4245 513.008524 
C 789.47512 554.423494 791.637035 598.06615 783.737867 640.456657 
z
" clip-path="url(#p3b25916c6e)" style="fill: #ab1f20; opacity: 0.8; stroke: #000000; stroke-width: 0.3; stroke-linejoin: miter"/>
   </g>
   <g id="patch_21">
    <path d="M 722.536769 390.31123 
C 708.244883 375.252547 692.376983 361.751369 675.202539 350.036977 
C 658.028096 338.322584 639.644885 328.461667 620.365095 320.621686 
L 615.081043 333.448903 
C 633.442748 340.915552 650.950568 350.306901 667.30718 361.463466 
C 683.663793 372.62003 698.77608 385.478295 712.387399 399.819898 
z
" clip-path="url(#p3b25916c6e)" style="fill: #ab1f20; opacity: 0.8; stroke: #000000; stroke-width: 0.3; stroke-linejoin: miter"/>
   </g>
   <g id="patch_22">
    <path d="M 617.61186 319.518253 
C 617.461452 319.458852 617.310994 319.399574 617.160487 319.340421 
C 617.00998 319.281267 616.859424 319.222237 616.708819 319.163331 
L 611.598875 332.059994 
C 611.742309 332.116095 611.885696 332.172314 612.029036 332.228651 
C 612.172376 332.284987 612.315669 332.341442 612.458915 332.398015 
z
" clip-path="url(#p3b25916c6e)" style="fill: #ab1f20; opacity: 0.8; stroke: #000000; stroke-width: 0.3; stroke-linejoin: miter"/>
   </g>
   <g id="patch_23">
    <path d="M 613.940897 318.096787 
C 613.867409 318.068895 613.793909 318.041033 613.720398 318.0132 
C 613.646887 317.985367 613.573365 317.957563 613.499832 317.929789 
L 608.542697 330.885192 
C 608.612729 330.911643 608.68275 330.938123 608.75276 330.964631 
C 608.822771 330.991139 608.89277 331.017674 608.962759 331.044238 
z
" clip-path="url(#p3b25916c6e)" style="fill: #ab1f20; opacity: 0.8; stroke: #000000; stroke-width: 0.3; stroke-linejoin: miter"/>
   </g>
   <g id="patch_24">
    <path d="M 610.719493 316.895618 
C 610.66056 316.874035 610.60162 316.852471 610.542672 316.830925 
C 610.483725 316.80938 610.424771 316.787853 610.36581 316.766346 
L 605.557914 329.777151 
C 605.614068 329.797634 605.670214 329.818136 605.726355 329.838655 
C 605.782495 329.859175 605.838628 329.879712 605.894755 329.900267 
z
" clip-path="url(#p3b25916c6e)" style="fill: #ab1f20; opacity: 0.8; stroke: #000000; stroke-width: 0.3; stroke-linejoin: miter"/>
   </g>
   <g id="patch_25">
    <path d="M 607.573765 315.76379 
C 599.051558 312.752092 590.393531 310.134165 581.627515 307.918426 
C 572.861499 305.702687 563.996896 303.891511 555.062204 302.490722 
L 552.887813 316.181318 
C 561.397044 317.515404 569.839522 319.240333 578.188109 321.350561 
C 586.536696 323.460788 594.782437 325.954052 602.898824 328.822336 
z
" clip-path="url(#p3b25916c6e)" style="fill: #195f90; opacity: 0.8; stroke: #000000; stroke-width: 0.3; stroke-linejoin: miter"/>
   </g>
   <g id="patch_26">
    <path d="M 552.12739 302.04573 
C 548.038668 301.446824 543.937648 300.933952 539.827083 300.507458 
C 535.716519 300.080965 531.59733 299.740945 527.472285 299.487627 
L 526.6117 313.321228 
C 530.540315 313.562483 534.463351 313.886312 538.378175 314.292496 
C 542.292998 314.698681 546.198732 315.18713 550.092753 315.757517 
z
" clip-path="url(#p3b25916c6e)" style="fill: #195f90; opacity: 0.8; stroke: #000000; stroke-width: 0.3; stroke-linejoin: miter"/>
   </g>
   <g id="patch_27">
    <path d="M 524.508257 299.320582 
C 522.281229 299.206317 520.052961 299.11732 517.823888 299.05361 
C 515.594815 298.989899 513.365083 298.951478 511.135127 298.938355 
L 511.052502 312.798112 
C 513.176269 312.81061 515.299824 312.847201 517.422751 312.907878 
C 519.545677 312.968555 521.667837 313.053314 523.788816 313.162138 
z
" clip-path="url(#p3b25916c6e)" style="fill: #195f90; opacity: 0.8; stroke: #000000; stroke-width: 0.3; stroke-linejoin: miter"/>
   </g>
   <g id="patch_28">
    <path d="M 508.166336 298.935831 
C 507.536414 298.938466 506.906503 298.943121 506.276612 298.949794 
C 505.646722 298.956466 505.016854 298.965158 504.387019 298.975868 
L 504.625733 312.833838 
C 505.225575 312.823638 505.825449 312.815361 506.425345 312.809006 
C 507.025241 312.802651 507.625157 312.798218 508.225082 312.795708 
z
" clip-path="url(#p3b25916c6e)" style="fill: #195f90; opacity: 0.8; stroke: #000000; stroke-width: 0.3; stroke-linejoin: miter"/>
   </g>
   <g id="patch_29">
    <path d="M 501.418957 299.041285 
C 500.810686 299.057756 500.202469 299.07611 499.594313 299.096346 
C 498.986157 299.116582 498.378066 299.138701 497.770049 299.162702 
L 498.323857 313.011776 
C 498.90292 312.988918 499.482054 312.967852 500.06125 312.94858 
C 500.640446 312.929307 501.219701 312.911827 501.799007 312.896141 
z
" clip-path="url(#p3b25916c6e)" style="fill: #195f90; opacity: 0.8; stroke: #000000; stroke-width: 0.3; stroke-linejoin: miter"/>
   </g>
   <g id="patch_30">
    <path d="M 494.804233 299.294734 
C 494.535016 299.308077 494.265819 299.32179 493.996641 299.335871 
C 493.727463 299.349953 493.458304 299.364404 493.189166 299.379224 
L 493.961111 313.217987 
C 494.217433 313.203873 494.473774 313.19011 494.730134 313.176699 
C 494.986494 313.163288 495.242873 313.150228 495.499269 313.137521 
z
" clip-path="url(#p3b25916c6e)" style="fill: #195f90; opacity: 0.8; stroke: #000000; stroke-width: 0.3; stroke-linejoin: miter"/>
   </g>
   <g id="patch_31">
    <path d="M 490.225793 299.557367 
C 490.082248 299.566722 489.938709 299.576182 489.795178 299.585747 
C 489.651646 299.595312 489.508122 299.604982 489.364605 299.614757 
L 490.318671 313.442304 
C 490.455354 313.432994 490.592044 313.423785 490.728741 313.414676 
C 490.865437 313.405566 491.002141 313.396557 491.138851 313.387647 
z
" clip-path="url(#p3b25916c6e)" style="fill: #195f90; opacity: 0.8; stroke: #000000; stroke-width: 0.3; stroke-linejoin: miter"/>
   </g>
   <g id="patch_32">
    <path d="M 486.40383 299.831396 
C 486.285824 299.840628 486.167823 299.849932 486.049828 299.859306 
C 485.931833 299.86868 485.813844 299.878125 485.69586 299.887641 
L 486.824629 313.702194 
C 486.936994 313.693131 487.049365 313.684136 487.161741 313.675208 
C 487.274117 313.66628 487.386499 313.65742 487.498886 313.648627 
z
" clip-path="url(#p3b25916c6e)" style="fill: #195f90; opacity: 0.8; stroke: #000000; stroke-width: 0.3; stroke-linejoin: miter"/>
   </g>
   <g id="patch_33">
    <path d="M 482.738058 300.141206 
C 482.642643 300.14987 482.547234 300.15858 482.451828 300.167337 
C 482.356423 300.176094 482.261021 300.184897 482.165625 300.193747 
L 483.4625 313.993723 
C 483.553354 313.985295 483.644212 313.976911 483.735074 313.968571 
C 483.825937 313.960231 483.916803 313.951936 484.007674 313.943685 
z
" clip-path="url(#p3b25916c6e)" style="fill: #195f90; opacity: 0.8; stroke: #000000; stroke-width: 0.3; stroke-linejoin: miter"/>
   </g>
   <g id="patch_34">
    <path d="M 479.211126 300.482841 
C 479.127567 300.491442 479.044012 300.500078 478.960461 300.508751 
C 478.87691 300.517423 478.793363 300.526132 478.709819 300.534875 
L 480.171257 314.318608 
C 480.250822 314.31028 480.330391 314.301987 480.409963 314.293727 
C 480.489536 314.285468 480.569112 314.277242 480.648691 314.269051 
z
" clip-path="url(#p3b25916c6e)" style="fill: #195f90; opacity: 0.8; stroke: #000000; stroke-width: 0.3; stroke-linejoin: miter"/>
   </g>
   <g id="patch_35">
    <path d="M 475.758977 300.858747 
C 475.68741 300.866967 475.615846 300.875213 475.544285 300.883485 
C 475.472724 300.891757 475.401165 300.900056 475.32961 300.90838 
L 476.95201 314.674327 
C 477.020158 314.666398 477.088308 314.658495 477.156462 314.650617 
C 477.224615 314.642738 477.292772 314.634885 477.360931 314.627057 
z
" clip-path="url(#p3b25916c6e)" style="fill: #195f90; opacity: 0.8; stroke: #000000; stroke-width: 0.3; stroke-linejoin: miter"/>
   </g>
   <g id="patch_36">
    <path d="M 472.382752 301.266267 
C 472.355657 301.269696 472.328563 301.273129 472.301469 301.276565 
C 472.274376 301.280002 472.247282 301.283442 472.22019 301.286886 
L 473.990657 315.034808 
C 474.016459 315.031528 474.042262 315.028252 474.068066 315.024979 
C 474.093869 315.021706 474.119673 315.018436 474.145478 315.015171 
z
" clip-path="url(#p3b25916c6e)" style="fill: #195f90; opacity: 0.8; stroke: #000000; stroke-width: 0.3; stroke-linejoin: miter"/>
   </g>
   <g id="patch_37">
    <path d="M 469.277351 301.676061 
C 469.035197 301.709326 468.793084 301.742892 468.551014 301.77676 
C 468.308944 301.810627 468.066916 301.844795 467.824932 301.879265 
L 469.804698 315.598978 
C 470.035159 315.56615 470.265661 315.533609 470.496204 315.501354 
C 470.726747 315.4691 470.95733 315.437132 471.187954 315.405451 
z
" clip-path="url(#p3b25916c6e)" style="fill: #765297; opacity: 0.8; stroke: #000000; stroke-width: 0.3; stroke-linejoin: miter"/>
   </g>
   <g id="patch_38">
    <path d="M 464.888362 302.312663 
C 464.816384 302.323656 464.744411 302.334677 464.672441 302.345724 
C 464.600472 302.356771 464.528507 302.367844 464.456546 302.378944 
L 466.59671 316.074864 
C 466.665245 316.064292 466.733783 316.053746 466.802325 316.043225 
C 466.870867 316.032704 466.939414 316.022209 467.007964 316.011738 
z
" clip-path="url(#p3b25916c6e)" style="fill: #238023; opacity: 0.8; stroke: #000000; stroke-width: 0.3; stroke-linejoin: miter"/>
   </g>
   <g id="line2d_1">
    <path d="M 387.13545 325.494542 
L 375.491207 300.304189 
L 367.340237 282.670942 
" clip-path="url(#p3b25916c6e)" style="fill: none; stroke: #000000; stroke-width: 0.8; stroke-linecap: square"/>
   </g>
   <g id="line2d_2">
    <path d="M 254.189798 447.089851 
L 229.884064 433.480004 
L 212.870051 423.953111 
" clip-path="url(#p3b25916c6e)" style="fill: none; stroke: #000000; stroke-width: 0.8; stroke-linecap: square"/>
   </g>
   <g id="line2d_3">
    <path d="M 237.274552 697.771238 
L 211.357842 708.035808 
L 193.216146 715.221008 
" clip-path="url(#p3b25916c6e)" style="fill: none; stroke: #000000; stroke-width: 0.8; stroke-linecap: square"/>
   </g>
   <g id="line2d_4">
    <path d="M 415.633706 865.741117 
L 406.703582 892.002819 
L 400.452496 910.38601 
" clip-path="url(#p3b25916c6e)" style="fill: none; stroke: #000000; stroke-width: 0.8; stroke-linecap: square"/>
   </g>
   <g id="line2d_5">
    <path d="M 479.048926 879.486918 
L 476.158347 907.057744 
L 457.7773 924.265279 
" clip-path="url(#p3b25916c6e)" style="fill: none; stroke: #000000; stroke-width: 0.8; stroke-linecap: square"/>
   </g>
   <g id="line2d_6">
    <path d="M 494.551536 880.679133 
L 493.137397 908.363502 
L 508.634325 928.176394 
" clip-path="url(#p3b25916c6e)" style="fill: none; stroke: #000000; stroke-width: 0.8; stroke-linecap: square"/>
   </g>
   <g id="line2d_7">
    <path d="M 589.126154 870.067197 
L 596.719122 896.740906 
L 604.312089 923.414615 
" clip-path="url(#p3b25916c6e)" style="fill: none; stroke: #808080; stroke-opacity: 0.6; stroke-width: 0.5; stroke-linecap: square"/>
   </g>
   <g id="line2d_8">
    <path d="M 689.079358 819.876883 
L 706.191677 841.770562 
L 723.303997 863.664242 
" clip-path="url(#p3b25916c6e)" style="fill: none; stroke: #808080; stroke-opacity: 0.6; stroke-width: 0.5; stroke-linecap: square"/>
   </g>
   <g id="line2d_9">
    <path d="M 727.338523 784.491615 
L 748.094573 803.015268 
L 742.513085 847.712983 
" clip-path="url(#p3b25916c6e)" style="fill: none; stroke: #808080; stroke-opacity: 0.6; stroke-width: 0.5; stroke-linecap: square"/>
   </g>
   <g id="line2d_10">
    <path d="M 733.880011 777.003305 
L 755.25906 794.813786 
L 760.084893 830.882426 
" clip-path="url(#p3b25916c6e)" style="fill: none; stroke: #808080; stroke-opacity: 0.6; stroke-width: 0.5; stroke-linecap: square"/>
   </g>
   <g id="line2d_11">
    <path d="M 736.945232 773.309981 
L 758.616207 790.768718 
L 776.428846 812.871993 
" clip-path="url(#p3b25916c6e)" style="fill: none; stroke: #808080; stroke-opacity: 0.6; stroke-width: 0.5; stroke-linecap: square"/>
   </g>
   <g id="line2d_12">
    <path d="M 739.225095 770.480628 
L 761.113199 787.669903 
L 791.464892 793.769901 
" clip-path="url(#p3b25916c6e)" style="fill: none; stroke: #808080; stroke-opacity: 0.6; stroke-width: 0.5; stroke-linecap: square"/>
   </g>
   <g id="line2d_13">
    <path d="M 741.145927 768.039582 
L 763.216968 784.996375 
L 805.119385 773.66971 
" clip-path="url(#p3b25916c6e)" style="fill: none; stroke: #808080; stroke-opacity: 0.6; stroke-width: 0.5; stroke-linecap: square"/>
   </g>
   <g id="line2d_14">
    <path d="M 760.031297 740.684297 
L 783.900944 755.035825 
L 817.325444 752.669872 
" clip-path="url(#p3b25916c6e)" style="fill: none; stroke: #808080; stroke-opacity: 0.6; stroke-width: 0.5; stroke-linecap: square"/>
   </g>
   <g id="line2d_15">
    <path d="M 781.033256 698.989976 
L 806.90309 709.370617 
L 832.772924 719.751258 
" clip-path="url(#p3b25916c6e)" style="fill: none; stroke: #808080; stroke-opacity: 0.6; stroke-width: 0.5; stroke-linecap: square"/>
   </g>
   <g id="line2d_16">
    <path d="M 790.875534 670.655834 
L 817.682728 678.337984 
L 842.431897 692.84503 
" clip-path="url(#p3b25916c6e)" style="fill: none; stroke: #808080; stroke-opacity: 0.6; stroke-width: 0.5; stroke-linecap: square"/>
   </g>
   <g id="line2d_17">
    <path d="M 795.481956 652.648405 
L 822.727857 658.615563 
L 848.856761 669.450226 
" clip-path="url(#p3b25916c6e)" style="fill: none; stroke: #808080; stroke-opacity: 0.6; stroke-width: 0.5; stroke-linecap: square"/>
   </g>
   <g id="line2d_18">
    <path d="M 796.721469 646.774135 
L 824.085419 652.181838 
L 853.618966 645.666241 
" clip-path="url(#p3b25916c6e)" style="fill: none; stroke: #808080; stroke-opacity: 0.6; stroke-width: 0.5; stroke-linecap: square"/>
   </g>
   <g id="line2d_19">
    <path d="M 790.825725 509.159288 
L 817.628175 501.460815 
L 844.430625 493.762343 
" clip-path="url(#p3b25916c6e)" style="fill: none; stroke: #808080; stroke-opacity: 0.6; stroke-width: 0.5; stroke-linecap: square"/>
   </g>
   <g id="line2d_20">
    <path d="M 675.202539 350.036977 
L 690.993258 327.183998 
L 722.168976 315.450237 
" clip-path="url(#p3b25916c6e)" style="fill: none; stroke: #808080; stroke-opacity: 0.6; stroke-width: 0.5; stroke-linecap: square"/>
   </g>
   <g id="line2d_21">
    <path d="M 617.160487 319.340421 
L 627.423391 293.563961 
L 702.320895 301.336936 
" clip-path="url(#p3b25916c6e)" style="fill: none; stroke: #808080; stroke-opacity: 0.6; stroke-width: 0.5; stroke-linecap: square"/>
   </g>
   <g id="line2d_22">
    <path d="M 613.720398 318.0132 
L 623.655674 292.110338 
L 681.527889 288.637474 
" clip-path="url(#p3b25916c6e)" style="fill: none; stroke: #808080; stroke-opacity: 0.6; stroke-width: 0.5; stroke-linecap: square"/>
   </g>
   <g id="line2d_23">
    <path d="M 610.542672 316.830925 
L 620.175308 290.815466 
L 659.8918 277.414052 
" clip-path="url(#p3b25916c6e)" style="fill: none; stroke: #808080; stroke-opacity: 0.6; stroke-width: 0.5; stroke-linecap: square"/>
   </g>
   <g id="line2d_24">
    <path d="M 581.627515 307.918426 
L 588.506326 281.054157 
L 637.518604 267.721643 
" clip-path="url(#p3b25916c6e)" style="fill: none; stroke: #808080; stroke-opacity: 0.6; stroke-width: 0.5; stroke-linecap: square"/>
   </g>
   <g id="line2d_25">
    <path d="M 539.827083 300.507458 
L 542.724901 272.937383 
L 614.517883 259.60772 
" clip-path="url(#p3b25916c6e)" style="fill: none; stroke: #808080; stroke-opacity: 0.6; stroke-width: 0.5; stroke-linecap: square"/>
   </g>
   <g id="line2d_26">
    <path d="M 517.823888 299.05361 
L 518.626163 271.345072 
L 591.002295 253.112025 
" clip-path="url(#p3b25916c6e)" style="fill: none; stroke: #808080; stroke-opacity: 0.6; stroke-width: 0.5; stroke-linecap: square"/>
   </g>
   <g id="line2d_27">
    <path d="M 506.276612 298.949794 
L 505.979147 271.231369 
L 567.087019 248.266373 
" clip-path="url(#p3b25916c6e)" style="fill: none; stroke: #808080; stroke-opacity: 0.6; stroke-width: 0.5; stroke-linecap: square"/>
   </g>
   <g id="line2d_28">
    <path d="M 499.594313 299.096346 
L 498.660438 271.391879 
L 542.889192 245.094499 
" clip-path="url(#p3b25916c6e)" style="fill: none; stroke: #808080; stroke-opacity: 0.6; stroke-width: 0.5; stroke-linecap: square"/>
   </g>
   <g id="line2d_29">
    <path d="M 493.996641 299.335871 
L 492.529654 271.654216 
L 518.527336 243.611938 
" clip-path="url(#p3b25916c6e)" style="fill: none; stroke: #808080; stroke-opacity: 0.6; stroke-width: 0.5; stroke-linecap: square"/>
   </g>
   <g id="line2d_30">
    <path d="M 489.795178 299.585747 
L 487.928052 271.927889 
L 494.120773 243.825953 
" clip-path="url(#p3b25916c6e)" style="fill: none; stroke: #808080; stroke-opacity: 0.6; stroke-width: 0.5; stroke-linecap: square"/>
   </g>
   <g id="line2d_31">
    <path d="M 486.049828 299.859306 
L 483.826002 272.227502 
L 469.789048 245.735494 
" clip-path="url(#p3b25916c6e)" style="fill: none; stroke: #808080; stroke-opacity: 0.6; stroke-width: 0.5; stroke-linecap: square"/>
   </g>
   <g id="line2d_32">
    <path d="M 482.451828 300.167337 
L 479.885335 272.564869 
L 445.651336 249.331209 
" clip-path="url(#p3b25916c6e)" style="fill: none; stroke: #808080; stroke-opacity: 0.6; stroke-width: 0.5; stroke-linecap: square"/>
   </g>
   <g id="line2d_33">
    <path d="M 478.960461 300.508751 
L 476.061458 272.938799 
L 421.825866 254.595487 
" clip-path="url(#p3b25916c6e)" style="fill: none; stroke: #808080; stroke-opacity: 0.6; stroke-width: 0.5; stroke-linecap: square"/>
   </g>
   <g id="line2d_34">
    <path d="M 475.544285 300.883485 
L 472.319931 273.349222 
L 398.429332 261.502542 
" clip-path="url(#p3b25916c6e)" style="fill: none; stroke: #808080; stroke-opacity: 0.6; stroke-width: 0.5; stroke-linecap: square"/>
   </g>
   <g id="line2d_35">
    <path d="M 472.301469 301.276565 
L 468.768276 273.779738 
L 375.576333 270.018545 
" clip-path="url(#p3b25916c6e)" style="fill: none; stroke: #808080; stroke-opacity: 0.6; stroke-width: 0.5; stroke-linecap: square"/>
   </g>
   <g id="line2d_36">
    <path d="M 468.551014 301.77676 
L 464.660634 274.32757 
L 353.378801 280.101784 
" clip-path="url(#p3b25916c6e)" style="fill: none; stroke: #808080; stroke-opacity: 0.6; stroke-width: 0.5; stroke-linecap: square"/>
   </g>
   <g id="line2d_37">
    <path d="M 464.672441 302.345724 
L 460.412674 274.950721 
L 331.945461 291.702872 
" clip-path="url(#p3b25916c6e)" style="fill: none; stroke: #808080; stroke-opacity: 0.6; stroke-width: 0.5; stroke-linecap: square"/>
   </g>
   <g id="patch_39">
    <path d="M 495.455812 313.139678 
C 498.940406 313.139678 498.940406 557.801396 502.425 557.801396 
L 502.425 562.27325 
C 498.940406 562.27325 498.940406 317.206031 459.815783 317.206031 
L 462.341237 316.764783 
L 464.870666 316.346614 
L 467.403856 315.95156 
L 469.940594 315.579655 
L 472.480665 315.230928 
L 475.023854 314.905411 
L 477.569947 314.603129 
L 480.118729 314.32411 
L 482.669984 314.068377 
L 485.223497 313.83595 
L 487.779053 313.62685 
L 490.336434 313.441095 
L 492.895426 313.278699 
z
" clip-path="url(#p3b25916c6e)" style="fill: #cc660b; fill-opacity: 0.45"/>
   </g>
   <g id="patch_40">
    <path d="M 459.815783 317.206031 
C 481.120391 317.206031 481.120391 692.754658 502.425 692.754658 
L 502.425 714.73325 
C 481.120391 714.73325 481.120391 399.078927 307.118439 399.078927 
L 316.001672 390.198385 
L 325.279457 381.725444 
L 334.932867 373.677391 
L 344.942207 366.070643 
L 355.287057 358.92072 
L 365.946313 352.242208 
L 376.898228 346.048732 
L 388.120461 340.352926 
L 399.590115 335.166412 
L 411.283793 330.49977 
L 423.177638 326.362521 
L 435.247385 322.763105 
L 447.468411 319.708864 
z
" clip-path="url(#p3b25916c6e)" style="fill: #cc660b; fill-opacity: 0.12"/>
   </g>
   <g id="patch_41">
    <path d="M 297.76754 409.362159 
C 400.09627 409.362159 400.09627 556.492181 502.425 556.492181 
L 502.425 557.801396 
C 400.09627 557.801396 400.09627 417.409313 291.070644 417.409313 
L 291.53883 416.826258 
L 292.008593 416.244457 
L 292.479931 415.663914 
L 292.952839 415.084633 
L 293.427314 414.506618 
L 293.903353 413.929874 
L 294.380952 413.354404 
L 294.860108 412.780214 
L 295.340817 412.207306 
L 295.823076 411.635686 
L 296.306881 411.065357 
L 296.792229 410.496323 
L 297.279116 409.928589 
z
" clip-path="url(#p3b25916c6e)" style="fill: #70453c; fill-opacity: 0.45"/>
   </g>
   <g id="patch_42">
    <path d="M 291.070644 417.409313 
C 396.747822 417.409313 396.747822 680.404136 502.425 680.404136 
L 502.425 692.754658 
C 396.747822 692.754658 396.747822 503.666548 244.274363 503.666548 
L 246.565019 497.00873 
L 249.025013 490.41082 
L 251.652761 483.877069 
L 254.44657 477.411685 
L 257.404639 471.018836 
L 260.525063 464.702639 
L 263.805832 458.467164 
L 267.244831 452.316428 
L 270.839845 446.254394 
L 274.588559 440.284968 
L 278.488555 434.411996 
L 282.537323 428.639261 
L 286.732254 422.970483 
z
" clip-path="url(#p3b25916c6e)" style="fill: #70453c; fill-opacity: 0.12"/>
   </g>
   <g id="patch_43">
    <path d="M 240.263148 516.939704 
C 371.344074 516.939704 371.344074 548.532182 502.425 548.532182 
L 502.425 556.492181 
C 371.344074 556.492181 371.344074 579.557736 230.597774 579.557736 
L 230.806906 575.027636 
L 231.090598 570.501541 
L 231.448776 565.980663 
L 231.881343 561.466212 
L 232.388183 556.959396 
L 232.969162 552.46142 
L 233.624122 547.973489 
L 234.35289 543.496805 
L 235.15527 539.032564 
L 236.031047 534.581962 
L 236.979988 530.14619 
L 238.001837 525.726435 
L 239.096321 521.323881 
z
" clip-path="url(#p3b25916c6e)" style="fill: #ab1f20; fill-opacity: 0.45"/>
   </g>
   <g id="patch_44">
    <path d="M 230.597774 579.557736 
C 366.511387 579.557736 366.511387 643.460302 502.425 643.460302 
L 502.425 680.404136 
C 366.511387 680.404136 366.511387 826.969461 364.653372 826.969461 
L 346.977727 815.377693 
L 330.238018 802.487177 
L 314.530706 788.372194 
L 299.946302 773.114078 
L 286.568846 756.800754 
L 274.475425 739.526224 
L 263.735726 721.390031 
L 254.411633 702.496681 
L 246.556876 682.955046 
L 240.216717 662.87773 
L 235.427691 642.380428 
L 232.217393 621.581252 
L 230.604322 600.600054 
z
" clip-path="url(#p3b25916c6e)" style="fill: #ab1f20; fill-opacity: 0.12"/>
   </g>
   <g id="patch_45">
    <path d="M 376.75505 833.860946 
C 439.590025 833.860946 439.590025 547.036273 502.425 547.036273 
L 502.425 548.532182 
C 439.590025 548.532182 439.590025 839.305842 387.439434 839.305842 
L 386.668535 838.932122 
L 385.898796 838.556048 
L 385.130224 838.177625 
L 384.362827 837.796856 
L 383.596611 837.413745 
L 382.831585 837.028295 
L 382.067756 836.64051 
L 381.305129 836.250394 
L 380.543714 835.85795 
L 379.783516 835.463182 
L 379.024544 835.066094 
L 378.266804 834.666689 
L 377.510304 834.264972 
z
" clip-path="url(#p3b25916c6e)" style="fill: #195f90; fill-opacity: 0.45"/>
   </g>
   <g id="patch_46">
    <path d="M 387.439434 839.305842 
C 444.932217 839.305842 444.932217 633.164556 502.425 633.164556 
L 502.425 643.460302 
C 444.932217 643.460302 444.932217 863.81992 466.0063 863.81992 
L 460.184587 862.84639 
L 454.384909 861.750692 
L 448.609864 860.533318 
L 442.862037 859.194813 
L 437.144001 857.735776 
L 431.458318 856.15686 
L 425.807532 854.458772 
L 420.194173 852.642272 
L 414.620756 850.708175 
L 409.089775 848.657345 
L 403.603706 846.490701 
L 398.165007 844.209213 
L 392.776112 841.813903 
z
" clip-path="url(#p3b25916c6e)" style="fill: #195f90; fill-opacity: 0.12"/>
   </g>
   <g id="patch_47">
    <path d="M 479.835028 865.632497 
C 491.130014 865.632497 491.130014 547.005478 502.425 547.005478 
L 502.425 547.036273 
C 491.130014 547.036273 491.130014 865.658417 480.080864 865.658417 
L 480.063304 865.656573 
L 480.045743 865.654727 
L 480.028183 865.652881 
L 480.010623 865.651033 
L 479.993063 865.649185 
L 479.975503 865.647335 
L 479.957943 865.645484 
L 479.940383 865.643632 
L 479.922824 865.641779 
L 479.905264 865.639925 
L 479.887705 865.63807 
L 479.870146 865.636213 
L 479.852587 865.634356 
z
" clip-path="url(#p3b25916c6e)" style="fill: #765297; fill-opacity: 0.45"/>
   </g>
   <g id="patch_48">
    <path d="M 480.080864 865.658417 
C 491.252932 865.658417 491.252932 633.030215 502.425 633.030215 
L 502.425 633.164556 
C 491.252932 633.164556 491.252932 865.768957 481.153565 865.768957 
L 481.076929 865.761198 
L 481.000296 865.753418 
L 480.923665 865.745617 
L 480.847035 865.737795 
L 480.770408 865.729951 
L 480.693783 865.722087 
L 480.617161 865.714202 
L 480.54054 865.706296 
L 480.463922 865.698369 
L 480.387306 865.69042 
L 480.310692 865.682451 
L 480.234081 865.674461 
L 480.157471 865.666449 
z
" clip-path="url(#p3b25916c6e)" style="fill: #765297; fill-opacity: 0.12"/>
   </g>
   <g id="patch_49">
    <path d="M 495.061407 866.826935 
C 498.743203 866.826935 498.743203 547.000925 502.425 547.000925 
L 502.425 547.005478 
C 498.743203 547.005478 498.743203 866.828799 495.097913 866.828799 
L 495.095305 866.828666 
L 495.092698 866.828533 
L 495.09009 866.8284 
L 495.087483 866.828267 
L 495.084875 866.828134 
L 495.082267 866.828001 
L 495.07966 866.827867 
L 495.077052 866.827734 
L 495.074445 866.827601 
L 495.071837 866.827468 
L 495.069229 866.827335 
L 495.066622 866.827201 
L 495.064014 866.827068 
z
" clip-path="url(#p3b25916c6e)" style="fill: #238023; fill-opacity: 0.45"/>
   </g>
   <g id="patch_50">
    <path d="M 495.097913 866.828799 
C 498.761456 866.828799 498.761456 632.985575 502.425 632.985575 
L 502.425 633.030215 
C 498.761456 633.030215 498.761456 866.846822 495.455812 866.846822 
L 495.430247 866.84555 
L 495.404682 866.844275 
L 495.379117 866.842999 
L 495.353553 866.841719 
L 495.327988 866.840438 
L 495.302424 866.839154 
L 495.276859 866.837868 
L 495.251295 866.836579 
L 495.225731 866.835288 
L 495.200167 866.833995 
L 495.174604 866.832699 
L 495.14904 866.831402 
L 495.123476 866.830101 
z
" clip-path="url(#p3b25916c6e)" style="fill: #238023; fill-opacity: 0.12"/>
   </g>
   <g id="patch_51">
    <path d="M 541.972561 865.297653 
C 529.173781 865.297653 529.173781 560.062973 516.375 560.062973 
L 516.375 562.27325 
C 529.173781 562.27325 529.173781 866.846822 523.344188 866.846822 
L 524.677855 866.777334 
L 526.011172 866.701504 
L 527.344109 866.619334 
L 528.676634 866.530825 
L 530.008717 866.435981 
L 531.340329 866.334802 
L 532.671437 866.227291 
L 534.002013 866.113451 
L 535.332024 865.993285 
L 536.661442 865.866794 
L 537.990235 865.733983 
L 539.318373 865.594853 
L 540.645825 865.449408 
z
" clip-path="url(#p3b25916c6e)" style="fill: #cc660b; fill-opacity: 0.35"/>
   </g>
   <g id="patch_52">
    <path d="M 643.466165 833.09256 
C 579.920583 833.09256 579.920583 702.060274 516.375 702.060274 
L 516.375 714.73325 
C 579.920583 714.73325 579.920583 865.297653 541.972561 865.297653 
L 549.564283 864.305879 
L 557.125752 863.10749 
L 564.651274 861.703389 
L 572.13518 860.094632 
L 579.571833 858.282433 
L 586.955631 856.268155 
L 594.281015 854.053316 
L 601.542465 851.639584 
L 608.734512 849.028778 
L 615.851739 846.222863 
L 622.888786 843.223953 
L 629.840352 840.034308 
L 636.701201 836.656328 
z
" clip-path="url(#p3b25916c6e)" style="fill: #cc660b; fill-opacity: 0.08"/>
   </g>
   <g id="patch_53">
    <path d="M 660.158163 823.24019 
C 588.266581 823.24019 588.266581 558.101557 516.375 558.101557 
L 516.375 560.062973 
C 588.266581 560.062973 588.266581 831.730216 645.938845 831.730216 
L 646.971126 831.151791 
L 648.000924 830.569014 
L 649.028221 829.981896 
L 650.052998 829.390448 
L 651.075238 828.794681 
L 652.094922 828.194604 
L 653.11203 827.59023 
L 654.126546 826.981568 
L 655.13845 826.368631 
L 656.147725 825.751428 
L 657.154351 825.129971 
L 658.158312 824.504272 
L 659.159589 823.874341 
z
" clip-path="url(#p3b25916c6e)" style="fill: #cc660b; fill-opacity: 0.35"/>
   </g>
   <g id="patch_54">
    <path d="M 711.320424 781.284582 
C 613.847712 781.284582 613.847712 694.199452 516.375 694.199452 
L 516.375 702.060274 
C 613.847712 702.060274 613.847712 823.24019 660.158163 823.24019 
L 664.132701 820.656568 
L 668.062396 818.006098 
L 671.94611 815.289548 
L 675.782716 812.507704 
L 679.571103 809.661374 
L 683.310172 806.751382 
L 686.998841 803.778572 
L 690.63604 800.743805 
L 694.220716 797.64796 
L 697.751828 794.491935 
L 701.228355 791.276645 
L 704.649288 788.003021 
L 708.013636 784.672011 
z
" clip-path="url(#p3b25916c6e)" style="fill: #cc660b; fill-opacity: 0.08"/>
   </g>
   <g id="patch_55">
    <path d="M 714.593051 777.815451 
C 615.484026 777.815451 615.484026 557.870067 516.375 557.870067 
L 516.375 558.101557 
C 615.484026 558.101557 615.484026 779.2417 713.261189 779.2417 
L 713.356656 779.140134 
L 713.452071 779.03852 
L 713.547436 778.936858 
L 713.642749 778.835149 
L 713.73801 778.733392 
L 713.833221 778.631588 
L 713.928379 778.529736 
L 714.023487 778.427838 
L 714.118543 778.325891 
L 714.213548 778.223898 
L 714.308501 778.121857 
L 714.403402 778.019769 
L 714.498253 777.917633 
z
" clip-path="url(#p3b25916c6e)" style="fill: #cc660b; fill-opacity: 0.35"/>
   </g>
   <g id="patch_56">
    <path d="M 720.57984 771.146508 
C 618.47742 771.146508 618.47742 693.13615 516.375 693.13615 
L 516.375 694.199452 
C 618.47742 694.199452 618.47742 777.815451 714.593051 777.815451 
L 715.027826 777.34549 
L 715.46151 776.874536 
L 715.894102 776.402591 
L 716.325598 775.929657 
L 716.755998 775.455737 
L 717.185298 774.980834 
L 717.613496 774.50495 
L 718.04059 774.028088 
L 718.466577 773.550249 
L 718.891456 773.071438 
L 719.315224 772.591655 
L 719.737879 772.110904 
L 720.159418 771.629188 
z
" clip-path="url(#p3b25916c6e)" style="fill: #cc660b; fill-opacity: 0.08"/>
   </g>
   <g id="patch_57">
    <path d="M 722.648047 768.738846 
C 619.511524 768.738846 619.511524 557.827691 516.375 557.827691 
L 516.375 557.870067 
C 619.511524 557.870067 619.511524 769.010917 722.416723 769.010917 
L 722.433258 768.991493 
L 722.449791 768.972068 
L 722.466322 768.952641 
L 722.482852 768.933213 
L 722.49938 768.913783 
L 722.515905 768.894352 
L 722.532429 768.874919 
L 722.548952 768.855484 
L 722.565472 768.836048 
L 722.581991 768.816611 
L 722.598508 768.797172 
L 722.615023 768.777732 
L 722.631536 768.75829 
z
" clip-path="url(#p3b25916c6e)" style="fill: #cc660b; fill-opacity: 0.35"/>
   </g>
   <g id="patch_58">
    <path d="M 723.960288 767.18191 
C 620.167644 767.18191 620.167644 692.894526 516.375 692.894526 
L 516.375 693.13615 
C 620.167644 693.13615 620.167644 768.738846 722.648047 768.738846 
L 722.742159 768.627954 
L 722.836213 768.517012 
L 722.930208 768.406022 
L 723.024144 768.294982 
L 723.118022 768.183894 
L 723.211842 768.072758 
L 723.305603 767.961572 
L 723.399305 767.850338 
L 723.492949 767.739054 
L 723.586534 767.627723 
L 723.68006 767.516342 
L 723.773528 767.404913 
L 723.866937 767.293436 
z
" clip-path="url(#p3b25916c6e)" style="fill: #cc660b; fill-opacity: 0.08"/>
   </g>
   <g id="patch_59">
    <path d="M 725.870382 764.873498 
C 621.122691 764.873498 621.122691 557.806371 516.375 557.806371 
L 516.375 557.827691 
C 621.122691 557.827691 621.122691 765.012486 725.756559 765.012486 
L 725.764692 765.002561 
L 725.772825 764.992635 
L 725.780957 764.982709 
L 725.789089 764.972783 
L 725.79722 764.962856 
L 725.805351 764.952929 
L 725.813482 764.943001 
L 725.821612 764.933073 
L 725.829741 764.923145 
L 725.83787 764.913216 
L 725.845999 764.903287 
L 725.854127 764.893358 
L 725.862254 764.883428 
z
" clip-path="url(#p3b25916c6e)" style="fill: #cc660b; fill-opacity: 0.35"/>
   </g>
   <g id="patch_60">
    <path d="M 726.462057 764.148037 
C 621.418529 764.148037 621.418529 692.783426 516.375 692.783426 
L 516.375 692.894526 
C 621.418529 692.894526 621.418529 764.873498 725.870382 764.873498 
L 725.912726 764.821745 
L 725.955057 764.769982 
L 725.997376 764.718209 
L 726.039683 764.666426 
L 726.081977 764.614632 
L 726.124258 764.562829 
L 726.166527 764.511015 
L 726.208783 764.459191 
L 726.251027 764.407357 
L 726.293258 764.355513 
L 726.335477 764.303659 
L 726.377683 764.251795 
L 726.419876 764.199921 
z
" clip-path="url(#p3b25916c6e)" style="fill: #cc660b; fill-opacity: 0.08"/>
   </g>
   <g id="patch_61">
    <path d="M 728.243829 761.932758 
C 622.309414 761.932758 622.309414 557.803213 516.375 557.803213 
L 516.375 557.806371 
C 622.309414 557.806371 622.309414 761.953579 728.227255 761.953579 
L 728.228439 761.952092 
L 728.229623 761.950605 
L 728.230807 761.949118 
L 728.231991 761.947631 
L 728.233175 761.946143 
L 728.234359 761.944656 
L 728.235542 761.943169 
L 728.236726 761.941682 
L 728.23791 761.940194 
L 728.239094 761.938707 
L 728.240278 761.93722 
L 728.241461 761.935733 
L 728.242645 761.934245 
z
" clip-path="url(#p3b25916c6e)" style="fill: #cc660b; fill-opacity: 0.35"/>
   </g>
   <g id="patch_62">
    <path d="M 728.334809 761.818387 
C 622.354904 761.818387 622.354904 692.766081 516.375 692.766081 
L 516.375 692.783426 
C 622.354904 692.783426 622.354904 761.932758 728.243829 761.932758 
L 728.250329 761.92459 
L 728.25683 761.916422 
L 728.26333 761.908254 
L 728.269829 761.900085 
L 728.276329 761.891917 
L 728.282828 761.883748 
L 728.289326 761.875578 
L 728.295825 761.867409 
L 728.302323 761.859239 
L 728.308821 761.851069 
L 728.315318 761.842899 
L 728.321815 761.834729 
L 728.328312 761.826558 
z
" clip-path="url(#p3b25916c6e)" style="fill: #cc660b; fill-opacity: 0.08"/>
   </g>
   <g id="patch_63">
    <path d="M 730.085548 759.59312 
C 623.230274 759.59312 623.230274 557.801396 516.375 557.801396 
L 516.375 557.803213 
C 623.230274 557.803213 623.230274 759.605193 730.076149 759.605193 
L 730.07682 759.604331 
L 730.077492 759.603468 
L 730.078163 759.602606 
L 730.078834 759.601744 
L 730.079506 759.600881 
L 730.080177 759.600019 
L 730.080849 759.599157 
L 730.08152 759.598294 
L 730.082191 759.597432 
L 730.082863 759.596569 
L 730.083534 759.595707 
L 730.084206 759.594845 
L 730.084877 759.593982 
z
" clip-path="url(#p3b25916c6e)" style="fill: #cc660b; fill-opacity: 0.35"/>
   </g>
   <g id="patch_64">
    <path d="M 730.144657 759.51717 
C 623.259828 759.51717 623.259828 692.754658 516.375 692.754658 
L 516.375 692.766081 
C 623.259828 692.766081 623.259828 759.59312 730.085548 759.59312 
L 730.089771 759.587696 
L 730.093994 759.582271 
L 730.098217 759.576847 
L 730.102439 759.571422 
L 730.106662 759.565997 
L 730.110884 759.560572 
L 730.115106 759.555147 
L 730.119328 759.549722 
L 730.12355 759.544297 
L 730.127771 759.538872 
L 730.131993 759.533447 
L 730.136214 759.528021 
L 730.140435 759.522595 
z
" clip-path="url(#p3b25916c6e)" style="fill: #cc660b; fill-opacity: 0.08"/>
   </g>
   <g id="patch_65">
    <path d="M 734.709464 753.481465 
C 625.542232 753.481465 625.542232 557.237318 516.375 557.237318 
L 516.375 557.801396 
C 625.542232 557.801396 625.542232 757.285872 731.862432 757.285872 
L 732.067959 757.015738 
L 732.273154 756.745355 
L 732.478016 756.474723 
L 732.682546 756.203843 
L 732.886742 755.932715 
L 733.090605 755.661339 
L 733.294134 755.389716 
L 733.497328 755.117846 
L 733.700189 754.845729 
L 733.902714 754.573367 
L 734.104905 754.300759 
L 734.30676 754.027906 
L 734.50828 753.754808 
z
" clip-path="url(#p3b25916c6e)" style="fill: #70453c; fill-opacity: 0.35"/>
   </g>
   <g id="patch_66">
    <path d="M 761.766118 708.18936 
C 639.070559 708.18936 639.070559 686.478471 516.375 686.478471 
L 516.375 692.754658 
C 639.070559 692.754658 639.070559 753.481465 734.709464 753.481465 
L 736.925173 750.423768 
L 739.098849 747.336432 
L 741.230089 744.220028 
L 743.3185 741.075131 
L 745.363695 737.902323 
L 747.365298 734.702189 
L 749.322938 731.475322 
L 751.236253 728.222316 
L 753.10489 724.943773 
L 754.928505 721.640299 
L 756.706759 718.312503 
L 758.439325 714.961002 
L 760.125882 711.586413 
z
" clip-path="url(#p3b25916c6e)" style="fill: #70453c; fill-opacity: 0.08"/>
   </g>
   <g id="patch_67">
    <path d="M 764.379195 702.517201 
C 640.377097 702.517201 640.377097 556.829322 516.375 556.829322 
L 516.375 557.237318 
C 640.377097 557.237318 640.377097 705.642314 762.958736 705.642314 
L 763.061487 705.419672 
L 763.164039 705.196941 
L 763.266394 704.97412 
L 763.36855 704.751209 
L 763.470508 704.528209 
L 763.572268 704.305119 
L 763.673829 704.08194 
L 763.775192 703.858671 
L 763.876356 703.635314 
L 763.977321 703.411868 
L 764.078088 703.188334 
L 764.178656 702.964711 
L 764.279025 702.741 
z
" clip-path="url(#p3b25916c6e)" style="fill: #70453c; fill-opacity: 0.35"/>
   </g>
   <g id="patch_68">
    <path d="M 772.677974 681.732304 
C 644.526487 681.732304 644.526487 683.817215 516.375 683.817215 
L 516.375 686.478471 
C 644.526487 686.478471 644.526487 702.517201 764.379195 702.517201 
L 765.027689 701.055271 
L 765.667693 699.589651 
L 766.299184 698.120391 
L 766.922142 696.64754 
L 767.536546 695.171145 
L 768.142376 693.691257 
L 768.73961 692.207925 
L 769.328231 690.721197 
L 769.908217 689.231124 
L 770.47955 687.737754 
L 771.042211 686.241137 
L 771.596181 684.741323 
L 772.141441 683.238362 
z
" clip-path="url(#p3b25916c6e)" style="fill: #70453c; fill-opacity: 0.08"/>
   </g>
   <g id="patch_69">
    <path d="M 774.303719 676.989857 
C 645.339359 676.989857 645.339359 556.567458 516.375 556.567458 
L 516.375 556.829322 
C 645.339359 556.829322 645.339359 679.076748 773.600175 679.076748 
L 773.650981 678.927869 
L 773.701702 678.778962 
L 773.752338 678.630026 
L 773.802889 678.481061 
L 773.853355 678.332068 
L 773.903736 678.183046 
L 773.954031 678.033996 
L 774.004242 677.884918 
L 774.054368 677.735812 
L 774.104408 677.586677 
L 774.154364 677.437514 
L 774.204234 677.288323 
L 774.254019 677.139104 
z
" clip-path="url(#p3b25916c6e)" style="fill: #70453c; fill-opacity: 0.35"/>
   </g>
   <g id="patch_70">
    <path d="M 780.767525 654.387653 
C 648.571262 654.387653 648.571262 681.020645 516.375 681.020645 
L 516.375 683.817215 
C 648.571262 683.817215 648.571262 676.989857 774.303719 676.989857 
L 774.82917 675.394243 
L 775.344885 673.795497 
L 775.850845 672.193676 
L 776.347032 670.588841 
L 776.833427 668.981049 
L 777.310012 667.37036 
L 777.77677 665.756832 
L 778.233684 664.140526 
L 778.680736 662.521499 
L 779.117912 660.899813 
L 779.545194 659.275525 
L 779.962567 657.648696 
L 780.370016 656.019386 
z
" clip-path="url(#p3b25916c6e)" style="fill: #70453c; fill-opacity: 0.08"/>
   </g>
   <g id="patch_71">
    <path d="M 781.490502 651.302181 
C 648.932751 651.302181 648.932751 556.524766 516.375 556.524766 
L 516.375 556.567458 
C 648.932751 556.567458 648.932751 651.652051 781.4104 651.652051 
L 781.416137 651.627064 
L 781.421871 651.602076 
L 781.427603 651.577088 
L 781.433333 651.552099 
L 781.43906 651.52711 
L 781.444785 651.50212 
L 781.450508 651.477129 
L 781.456228 651.452138 
L 781.461946 651.427146 
L 781.467662 651.402154 
L 781.473375 651.377162 
L 781.479087 651.352169 
L 781.484795 651.327175 
z
" clip-path="url(#p3b25916c6e)" style="fill: #70453c; fill-opacity: 0.35"/>
   </g>
   <g id="patch_72">
    <path d="M 782.292905 647.674381 
C 649.333953 647.674381 649.333953 680.578695 516.375 680.578695 
L 516.375 681.020645 
C 649.333953 681.020645 649.333953 651.302181 781.490502 651.302181 
L 781.549438 651.04341 
L 781.608125 650.784582 
L 781.666563 650.5257 
L 781.724751 650.266761 
L 781.78269 650.007768 
L 781.84038 649.748719 
L 781.897819 649.489616 
L 781.955009 649.230458 
L 782.01195 648.971246 
L 782.068641 648.71198 
L 782.125082 648.45266 
L 782.181273 648.193287 
L 782.237214 647.93386 
z
" clip-path="url(#p3b25916c6e)" style="fill: #70453c; fill-opacity: 0.08"/>
   </g>
   <g id="patch_73">
    <path d="M 782.921716 644.655307 
C 649.648358 644.655307 649.648358 556.492181 516.375 556.492181 
L 516.375 556.524766 
C 649.648358 556.524766 649.648358 644.923765 782.867228 644.923765 
L 782.871129 644.904591 
L 782.875028 644.885417 
L 782.878926 644.866243 
L 782.882823 644.847068 
L 782.886719 644.827893 
L 782.890613 644.808718 
L 782.894505 644.789543 
L 782.898397 644.770367 
L 782.902287 644.751191 
L 782.906175 644.732015 
L 782.910062 644.712838 
L 782.913948 644.693661 
L 782.917833 644.674484 
z
" clip-path="url(#p3b25916c6e)" style="fill: #70453c; fill-opacity: 0.35"/>
   </g>
   <g id="patch_74">
    <path d="M 783.209063 643.216268 
C 649.792031 643.216268 649.792031 680.404136 516.375 680.404136 
L 516.375 680.578695 
C 649.792031 680.578695 649.792031 644.655307 782.921716 644.655307 
L 782.942495 644.552569 
L 782.963235 644.449823 
L 782.983936 644.347069 
L 783.004597 644.244307 
L 783.02522 644.141538 
L 783.045803 644.038761 
L 783.066347 643.935976 
L 783.086853 643.833184 
L 783.107319 643.730384 
L 783.127746 643.627576 
L 783.148134 643.524761 
L 783.168482 643.421937 
L 783.188792 643.319107 
z
" clip-path="url(#p3b25916c6e)" style="fill: #70453c; fill-opacity: 0.08"/>
   </g>
   <g id="patch_75">
    <path d="M 788.371987 593.921255 
C 652.373494 593.921255 652.373494 550.921597 516.375 550.921597 
L 516.375 556.492181 
C 652.373494 556.492181 652.373494 640.456657 783.737867 640.456657 
L 784.330635 637.164786 
L 784.883391 633.866049 
L 785.396053 630.560927 
L 785.868546 627.2499 
L 786.300802 623.933452 
L 786.692757 620.612063 
L 787.044356 617.286219 
L 787.355546 613.956402 
L 787.626283 610.623098 
L 787.856526 607.286791 
L 788.046243 603.947967 
L 788.195406 600.607112 
L 788.303992 597.264713 
z
" clip-path="url(#p3b25916c6e)" style="fill: #ab1f20; fill-opacity: 0.35"/>
   </g>
   <g id="patch_76">
    <path d="M 714.316706 401.873465 
C 615.345853 401.873465 615.345853 655.334946 516.375 655.334946 
L 516.375 680.404136 
C 615.345853 680.404136 615.345853 593.921255 788.371987 593.921255 
L 788.175478 578.874708 
L 787.157455 563.860925 
L 785.320918 548.924151 
L 782.671279 534.108402 
L 779.216347 519.457338 
L 774.966301 505.014134 
L 769.933667 490.821352 
L 764.133276 476.920817 
L 757.58222 463.353491 
L 750.299804 450.159355 
L 742.307488 437.377291 
L 733.628826 425.044965 
L 724.289391 413.19872 
z
" clip-path="url(#p3b25916c6e)" style="fill: #ab1f20; fill-opacity: 0.08"/>
   </g>
   <g id="patch_77">
    <path d="M 698.176182 385.881185 
C 607.275591 385.881185 607.275591 548.560398 516.375 548.560398 
L 516.375 550.921597 
C 607.275591 550.921597 607.275591 399.819898 712.387399 399.819898 
L 711.405966 398.791091 
L 710.41925 397.767284 
L 709.427278 396.748503 
L 708.430076 395.734775 
L 707.42767 394.726127 
L 706.420085 393.722585 
L 705.407348 392.724175 
L 704.389486 391.730924 
L 703.366526 390.742857 
L 702.338493 389.76 
L 701.305415 388.782379 
L 700.267319 387.810019 
L 699.224232 386.842946 
z
" clip-path="url(#p3b25916c6e)" style="fill: #ab1f20; fill-opacity: 0.35"/>
   </g>
   <g id="patch_78">
    <path d="M 615.081043 333.448903 
C 565.728021 333.448903 565.728021 643.636993 516.375 643.636993 
L 516.375 655.334946 
C 565.728021 655.334946 565.728021 385.881185 698.176182 385.881185 
L 692.911618 381.195596 
L 687.52928 376.644009 
L 682.032624 372.229343 
L 676.425176 367.954434 
L 670.710536 363.822023 
L 664.89237 359.834763 
L 658.974413 355.995213 
L 652.960463 352.305838 
L 646.85438 348.769004 
L 640.660082 345.386982 
L 634.381544 342.161943 
L 628.022796 339.095955 
L 621.587919 336.190987 
z
" clip-path="url(#p3b25916c6e)" style="fill: #ab1f20; fill-opacity: 0.08"/>
   </g>
   <g id="patch_79">
    <path d="M 612.349868 332.354975 
C 564.362434 332.354975 564.362434 548.546527 516.375 548.546527 
L 516.375 548.560398 
C 564.362434 548.560398 564.362434 332.398015 612.458915 332.398015 
L 612.451126 332.394939 
L 612.443338 332.391864 
L 612.435549 332.388788 
L 612.42776 332.385713 
L 612.419971 332.382638 
L 612.412182 332.379564 
L 612.404393 332.376489 
L 612.396604 332.373415 
L 612.388815 332.370341 
L 612.381026 332.367268 
L 612.373236 332.364194 
L 612.365447 332.361121 
L 612.357657 332.358048 
z
" clip-path="url(#p3b25916c6e)" style="fill: #ab1f20; fill-opacity: 0.35"/>
   </g>
   <g id="patch_80">
    <path d="M 611.598875 332.059994 
C 563.986937 332.059994 563.986937 643.541528 516.375 643.541528 
L 516.375 643.636993 
C 563.986937 643.636993 563.986937 332.354975 612.349868 332.354975 
L 612.296254 332.333833 
L 612.242636 332.312703 
L 612.189013 332.291583 
L 612.135386 332.270474 
L 612.081755 332.249377 
L 612.028119 332.22829 
L 611.974479 332.207215 
L 611.920834 332.18615 
L 611.867185 332.165097 
L 611.813532 332.144054 
L 611.759874 332.123023 
L 611.706212 332.102002 
L 611.652546 332.080993 
z
" clip-path="url(#p3b25916c6e)" style="fill: #ab1f20; fill-opacity: 0.08"/>
   </g>
   <g id="patch_81">
    <path d="M 608.898487 331.019853 
C 562.636743 331.019853 562.636743 548.538393 516.375 548.538393 
L 516.375 548.546527 
C 562.636743 548.546527 562.636743 331.044238 608.962759 331.044238 
L 608.958168 331.042496 
L 608.953577 331.040753 
L 608.948987 331.039011 
L 608.944396 331.037269 
L 608.939805 331.035527 
L 608.935214 331.033785 
L 608.930624 331.032044 
L 608.926033 331.030302 
L 608.921442 331.02856 
L 608.916851 331.026819 
L 608.91226 331.025077 
L 608.907669 331.023336 
L 608.903078 331.021594 
z
" clip-path="url(#p3b25916c6e)" style="fill: #ab1f20; fill-opacity: 0.35"/>
   </g>
   <g id="patch_82">
    <path d="M 608.542697 330.885192 
C 562.458849 330.885192 562.458849 643.49652 516.375 643.49652 
L 516.375 643.541528 
C 562.458849 643.541528 562.458849 331.019853 608.898487 331.019853 
L 608.873079 331.010218 
L 608.847671 331.000586 
L 608.822262 330.990956 
L 608.796851 330.981329 
L 608.77144 330.971704 
L 608.746028 330.962082 
L 608.720615 330.952462 
L 608.695201 330.942845 
L 608.669786 330.93323 
L 608.64437 330.923617 
L 608.618953 330.914007 
L 608.593536 330.9044 
L 608.568117 330.894794 
z
" clip-path="url(#p3b25916c6e)" style="fill: #ab1f20; fill-opacity: 0.08"/>
   </g>
   <g id="patch_83">
    <path d="M 605.845451 329.882216 
C 561.110226 329.882216 561.110226 548.532182 516.375 548.532182 
L 516.375 548.538393 
C 561.110226 548.538393 561.110226 329.900267 605.894755 329.900267 
L 605.891234 329.898978 
L 605.887712 329.897688 
L 605.884191 329.896398 
L 605.880669 329.895109 
L 605.877147 329.893819 
L 605.873625 329.89253 
L 605.870104 329.89124 
L 605.866582 329.889951 
L 605.86306 329.888662 
L 605.859538 329.887373 
L 605.856017 329.886083 
L 605.852495 329.884794 
L 605.848973 329.883505 
z
" clip-path="url(#p3b25916c6e)" style="fill: #ab1f20; fill-opacity: 0.35"/>
   </g>
   <g id="patch_84">
    <path d="M 605.557914 329.777151 
C 560.966457 329.777151 560.966457 643.460302 516.375 643.460302 
L 516.375 643.49652 
C 560.966457 643.49652 560.966457 329.882216 605.845451 329.882216 
L 605.824917 329.874701 
L 605.804382 329.867187 
L 605.783846 329.859676 
L 605.76331 329.852165 
L 605.742773 329.844657 
L 605.722235 329.83715 
L 605.701697 329.829644 
L 605.681158 329.82214 
L 605.660619 329.814638 
L 605.640079 329.807137 
L 605.619539 329.799638 
L 605.598998 329.792141 
L 605.578456 329.784645 
z
" clip-path="url(#p3b25916c6e)" style="fill: #ab1f20; fill-opacity: 0.08"/>
   </g>
   <g id="patch_85">
    <path d="M 596.247255 326.565077 
C 556.311128 326.565077 556.311128 547.701239 516.375 547.701239 
L 516.375 548.532182 
C 556.311128 548.532182 556.311128 328.822336 602.898824 328.822336 
L 602.42563 328.655588 
L 601.952135 328.489687 
L 601.47834 328.324632 
L 601.004247 328.160425 
L 600.529857 327.997066 
L 600.055173 327.834556 
L 599.580194 327.672894 
L 599.104924 327.512082 
L 598.629363 327.35212 
L 598.153513 327.193008 
L 597.677376 327.034748 
L 597.200953 326.877339 
L 596.724245 326.720782 
z
" clip-path="url(#p3b25916c6e)" style="fill: #195f90; fill-opacity: 0.35"/>
   </g>
   <g id="patch_86">
    <path d="M 552.887813 316.181318 
C 534.631407 316.181318 534.631407 638.182115 516.375 638.182115 
L 516.375 643.460302 
C 534.631407 643.460302 534.631407 326.565077 596.247255 326.565077 
L 593.21089 325.595977 
L 590.163573 324.661423 
L 587.105704 323.761539 
L 584.037682 322.896441 
L 580.959907 322.066242 
L 577.872783 321.271052 
L 574.776711 320.510973 
L 571.672097 319.786106 
L 568.559346 319.096544 
L 565.438866 318.442379 
L 562.311063 317.823695 
L 559.176347 317.240574 
L 556.035127 316.693091 
z
" clip-path="url(#p3b25916c6e)" style="fill: #195f90; fill-opacity: 0.08"/>
   </g>
   <g id="patch_87">
    <path d="M 547.516959 315.392405 
C 531.945979 315.392405 531.945979 547.393655 516.375 547.393655 
L 516.375 547.701239 
C 531.945979 547.701239 531.945979 315.757517 550.092753 315.757517 
L 549.908882 315.730646 
L 549.724994 315.703897 
L 549.541087 315.67727 
L 549.357163 315.650764 
L 549.173221 315.62438 
L 548.989261 315.598118 
L 548.805284 315.571978 
L 548.62129 315.545959 
L 548.437277 315.520062 
L 548.253248 315.494287 
L 548.069201 315.468634 
L 547.885138 315.443102 
L 547.701057 315.417693 
z
" clip-path="url(#p3b25916c6e)" style="fill: #195f90; fill-opacity: 0.35"/>
   </g>
   <g id="patch_88">
    <path d="M 526.6117 313.321228 
C 521.49335 313.321228 521.49335 635.697945 516.375 635.697945 
L 516.375 638.182115 
C 521.49335 638.182115 521.49335 315.392405 547.516959 315.392405 
L 546.029495 315.192637 
L 544.540971 315.000823 
L 543.05143 314.816968 
L 541.560915 314.641078 
L 540.069469 314.473157 
L 538.577136 314.313211 
L 537.083958 314.161244 
L 535.589979 314.01726 
L 534.095241 313.881264 
L 532.599789 313.75326 
L 531.103666 313.63325 
L 529.606914 313.52124 
L 528.109578 313.417232 
z
" clip-path="url(#p3b25916c6e)" style="fill: #195f90; fill-opacity: 0.08"/>
   </g>
   <g id="patch_89">
    <path d="M 522.092225 313.080232 
C 519.233613 313.080232 519.233613 547.192855 516.375 547.192855 
L 516.375 547.393655 
C 519.233613 547.393655 519.233613 313.162138 523.788816 313.162138 
L 523.667648 313.155947 
L 523.546477 313.149809 
L 523.425304 313.143723 
L 523.304127 313.137689 
L 523.182949 313.131708 
L 523.061767 313.125779 
L 522.940583 313.119902 
L 522.819397 313.114078 
L 522.698208 313.108306 
L 522.577016 313.102587 
L 522.455822 313.09692 
L 522.334626 313.091305 
L 522.213427 313.085742 
z
" clip-path="url(#p3b25916c6e)" style="fill: #195f90; fill-opacity: 0.35"/>
   </g>
   <g id="patch_90">
    <path d="M 511.052502 312.798112 
C 513.713751 312.798112 513.713751 634.392362 516.375 634.392362 
L 516.375 635.697945 
C 513.713751 635.697945 513.713751 313.080232 522.092225 313.080232 
L 521.304128 313.045684 
L 520.515936 313.01335 
L 519.727655 312.98323 
L 518.939292 312.955324 
L 518.150852 312.929634 
L 517.362342 312.906158 
L 516.573769 312.884898 
L 515.785138 312.865853 
L 514.996456 312.849023 
L 514.207729 312.834409 
L 513.418964 312.822011 
L 512.630167 312.811829 
L 511.841344 312.803863 
z
" clip-path="url(#p3b25916c6e)" style="fill: #195f90; fill-opacity: 0.08"/>
   </g>
   <g id="patch_91">
    <path d="M 507.783573 312.797902 
C 512.079286 312.797902 512.079286 547.140661 516.375 547.140661 
L 516.375 547.192855 
C 512.079286 547.192855 512.079286 312.795708 508.225082 312.795708 
L 508.193545 312.795842 
L 508.162009 312.795979 
L 508.130472 312.79612 
L 508.098936 312.796264 
L 508.067399 312.796412 
L 508.035863 312.796563 
L 508.004327 312.796718 
L 507.97279 312.796877 
L 507.941254 312.797039 
L 507.909718 312.797205 
L 507.878181 312.797374 
L 507.846645 312.797546 
L 507.815109 312.797723 
z
" clip-path="url(#p3b25916c6e)" style="fill: #195f90; fill-opacity: 0.35"/>
   </g>
   <g id="patch_92">
    <path d="M 504.625733 312.833838 
C 510.500366 312.833838 510.500366 634.01903 516.375 634.01903 
L 516.375 634.392362 
C 510.500366 634.392362 510.500366 312.797902 507.783573 312.797902 
L 507.558001 312.799291 
L 507.332431 312.800862 
L 507.106861 312.802613 
L 506.881294 312.804546 
L 506.655728 312.80666 
L 506.430164 312.808955 
L 506.204602 312.811431 
L 505.979041 312.814089 
L 505.753483 312.816927 
L 505.527928 312.819947 
L 505.302375 312.823148 
L 505.076825 312.82653 
L 504.851277 312.830094 
z
" clip-path="url(#p3b25916c6e)" style="fill: #195f90; fill-opacity: 0.08"/>
   </g>
   <g id="patch_93">
    <path d="M 501.462268 312.905461 
C 508.918634 312.905461 508.918634 547.100838 516.375 547.100838 
L 516.375 547.140661 
C 508.918634 547.140661 508.918634 312.896141 501.799007 312.896141 
L 501.774954 312.896793 
L 501.750901 312.897447 
L 501.726848 312.898104 
L 501.702795 312.898762 
L 501.678742 312.899423 
L 501.654689 312.900086 
L 501.630636 312.90075 
L 501.606583 312.901417 
L 501.582531 312.902086 
L 501.558478 312.902757 
L 501.534426 312.90343 
L 501.510373 312.904105 
L 501.486321 312.904782 
z
" clip-path="url(#p3b25916c6e)" style="fill: #195f90; fill-opacity: 0.35"/>
   </g>
   <g id="patch_94">
    <path d="M 498.323857 313.011776 
C 507.349428 313.011776 507.349428 633.647803 516.375 633.647803 
L 516.375 634.01903 
C 507.349428 634.01903 507.349428 312.905461 501.462268 312.905461 
L 501.238058 312.911891 
L 501.013853 312.9185 
L 500.789653 312.925288 
L 500.565459 312.932255 
L 500.341271 312.939402 
L 500.117088 312.946727 
L 499.892912 312.954232 
L 499.668742 312.961915 
L 499.444577 312.969778 
L 499.22042 312.977819 
L 498.996269 312.98604 
L 498.772124 312.99444 
L 498.547987 313.003018 
z
" clip-path="url(#p3b25916c6e)" style="fill: #195f90; fill-opacity: 0.08"/>
   </g>
   <g id="patch_95">
    <path d="M 495.326933 313.146115 
C 505.850966 313.146115 505.850966 547.08044 516.375 547.08044 
L 516.375 547.100838 
C 505.850966 547.100838 505.850966 313.137521 495.499269 313.137521 
L 495.486959 313.138131 
L 495.474649 313.138742 
L 495.46234 313.139353 
L 495.45003 313.139965 
L 495.43772 313.140578 
L 495.42541 313.141191 
L 495.4131 313.141805 
L 495.400791 313.142419 
L 495.388481 313.143034 
L 495.376171 313.143649 
L 495.363861 313.144265 
L 495.351552 313.144881 
L 495.339242 313.145498 
z
" clip-path="url(#p3b25916c6e)" style="fill: #195f90; fill-opacity: 0.35"/>
   </g>
   <g id="patch_96">
    <path d="M 493.961111 313.217987 
C 505.168055 313.217987 505.168055 633.486115 516.375 633.486115 
L 516.375 633.647803 
C 505.168055 633.647803 505.168055 313.146115 495.326933 313.146115 
L 495.229362 313.151028 
L 495.131794 313.155975 
L 495.034227 313.160956 
L 494.936662 313.165971 
L 494.839099 313.17102 
L 494.741537 313.176103 
L 494.643977 313.181219 
L 494.54642 313.18637 
L 494.448863 313.191555 
L 494.351309 313.196773 
L 494.253757 313.202026 
L 494.156206 313.207312 
L 494.058658 313.212632 
z
" clip-path="url(#p3b25916c6e)" style="fill: #195f90; fill-opacity: 0.08"/>
   </g>
   <g id="patch_97">
    <path d="M 491.01688 313.395623 
C 503.69594 313.395623 503.69594 547.065989 516.375 547.065989 
L 516.375 547.08044 
C 503.69594 547.08044 503.69594 313.387647 491.138851 313.387647 
L 491.130139 313.388215 
L 491.121426 313.388784 
L 491.112714 313.389352 
L 491.104002 313.389921 
L 491.095289 313.39049 
L 491.086577 313.391059 
L 491.077865 313.391628 
L 491.069153 313.392198 
L 491.060441 313.392768 
L 491.051729 313.393339 
L 491.043016 313.393909 
L 491.034304 313.39448 
L 491.025592 313.395051 
z
" clip-path="url(#p3b25916c6e)" style="fill: #195f90; fill-opacity: 0.35"/>
   </g>
   <g id="patch_98">
    <path d="M 490.318671 313.442304 
C 503.346836 313.442304 503.346836 633.403389 516.375 633.403389 
L 516.375 633.486115 
C 503.346836 633.486115 503.346836 313.395623 491.01688 313.395623 
L 490.967004 313.3989 
L 490.917129 313.402185 
L 490.867254 313.405479 
L 490.81738 313.408783 
L 490.767506 313.412095 
L 490.717633 313.415416 
L 490.667761 313.418746 
L 490.617889 313.422085 
L 490.568018 313.425432 
L 490.518147 313.428789 
L 490.468277 313.432154 
L 490.418408 313.435529 
L 490.368539 313.438912 
z
" clip-path="url(#p3b25916c6e)" style="fill: #195f90; fill-opacity: 0.08"/>
   </g>
   <g id="patch_99">
    <path d="M 487.437847 313.653409 
C 501.906423 313.653409 501.906423 547.058751 516.375 547.058751 
L 516.375 547.065989 
C 501.906423 547.065989 501.906423 313.648627 487.498886 313.648627 
L 487.494526 313.648969 
L 487.490166 313.64931 
L 487.485806 313.649651 
L 487.481446 313.649992 
L 487.477086 313.650334 
L 487.472726 313.650675 
L 487.468366 313.651017 
L 487.464007 313.651358 
L 487.459647 313.6517 
L 487.455287 313.652042 
L 487.450927 313.652384 
L 487.446567 313.652726 
L 487.442207 313.653067 
z
" clip-path="url(#p3b25916c6e)" style="fill: #195f90; fill-opacity: 0.35"/>
   </g>
   <g id="patch_100">
    <path d="M 486.824629 313.702194 
C 501.599814 313.702194 501.599814 633.330665 516.375 633.330665 
L 516.375 633.403389 
C 501.599814 633.403389 501.599814 313.653409 487.437847 313.653409 
L 487.394042 313.65685 
L 487.350238 313.660296 
L 487.306434 313.66375 
L 487.262631 313.667211 
L 487.218828 313.670678 
L 487.175026 313.674153 
L 487.131224 313.677634 
L 487.087423 313.681122 
L 487.043623 313.684617 
L 486.999823 313.688119 
L 486.956023 313.691627 
L 486.912225 313.695143 
L 486.868426 313.698665 
z
" clip-path="url(#p3b25916c6e)" style="fill: #195f90; fill-opacity: 0.08"/>
   </g>
   <g id="patch_101">
    <path d="M 483.960668 313.947957 
C 500.167834 313.947957 500.167834 547.053171 516.375 547.053171 
L 516.375 547.058751 
C 500.167834 547.058751 500.167834 313.943685 484.007674 313.943685 
L 484.004316 313.94399 
L 484.000959 313.944294 
L 483.997601 313.944599 
L 483.994244 313.944904 
L 483.990886 313.945209 
L 483.987529 313.945515 
L 483.984171 313.94582 
L 483.980813 313.946125 
L 483.977456 313.94643 
L 483.974098 313.946735 
L 483.970741 313.947041 
L 483.967383 313.947346 
L 483.964026 313.947651 
z
" clip-path="url(#p3b25916c6e)" style="fill: #195f90; fill-opacity: 0.35"/>
   </g>
   <g id="patch_102">
    <path d="M 483.4625 313.993723 
C 499.91875 313.993723 499.91875 633.271523 516.375 633.271523 
L 516.375 633.330665 
C 499.91875 633.330665 499.91875 313.947957 483.960668 313.947957 
L 483.925082 313.951196 
L 483.889496 313.95444 
L 483.853911 313.957689 
L 483.818326 313.960942 
L 483.782741 313.9642 
L 483.747157 313.967462 
L 483.711574 313.970729 
L 483.67599 313.974 
L 483.640407 313.977276 
L 483.604825 313.980557 
L 483.569243 313.983841 
L 483.533661 313.987131 
L 483.49808 313.990425 
z
" clip-path="url(#p3b25916c6e)" style="fill: #195f90; fill-opacity: 0.08"/>
   </g>
   <g id="patch_103">
    <path d="M 480.60772 314.273271 
C 498.49136 314.273271 498.49136 547.048302 516.375 547.048302 
L 516.375 547.053171 
C 498.49136 547.053171 498.49136 314.269051 480.648691 314.269051 
L 480.645765 314.269352 
L 480.642838 314.269653 
L 480.639912 314.269954 
L 480.636985 314.270256 
L 480.634059 314.270557 
L 480.631132 314.270859 
L 480.628206 314.27116 
L 480.625279 314.271462 
L 480.622353 314.271763 
L 480.619426 314.272065 
L 480.6165 314.272366 
L 480.613573 314.272668 
L 480.610647 314.272969 
z
" clip-path="url(#p3b25916c6e)" style="fill: #195f90; fill-opacity: 0.35"/>
   </g>
   <g id="patch_104">
    <path d="M 480.171257 314.318608 
C 498.273128 314.318608 498.273128 633.219645 516.375 633.219645 
L 516.375 633.271523 
C 498.273128 633.271523 498.273128 314.273271 480.60772 314.273271 
L 480.576542 314.276487 
L 480.545364 314.279706 
L 480.514186 314.282929 
L 480.483009 314.286155 
L 480.451832 314.289384 
L 480.420656 314.292617 
L 480.38948 314.295854 
L 480.358304 314.299094 
L 480.327128 314.302338 
L 480.295953 314.305585 
L 480.264779 314.308835 
L 480.233604 314.312089 
L 480.20243 314.315347 
z
" clip-path="url(#p3b25916c6e)" style="fill: #195f90; fill-opacity: 0.08"/>
   </g>
   <g id="patch_105">
    <path d="M 477.28905 314.635322 
C 496.832025 314.635322 496.832025 547.039748 516.375 547.039748 
L 516.375 547.048302 
C 496.832025 547.048302 496.832025 314.627057 477.360931 314.627057 
L 477.355796 314.627646 
L 477.350662 314.628236 
L 477.345528 314.628826 
L 477.340393 314.629416 
L 477.335259 314.630006 
L 477.330124 314.630597 
L 477.32499 314.631187 
L 477.319856 314.631777 
L 477.314721 314.632368 
L 477.309587 314.632958 
L 477.304452 314.633549 
L 477.299318 314.63414 
L 477.294184 314.634731 
z
" clip-path="url(#p3b25916c6e)" style="fill: #195f90; fill-opacity: 0.35"/>
   </g>
   <g id="patch_106">
    <path d="M 476.95201 314.674327 
C 496.663505 314.674327 496.663505 633.179532 516.375 633.179532 
L 516.375 633.219645 
C 496.663505 633.219645 496.663505 314.635322 477.28905 314.635322 
L 477.264974 314.638094 
L 477.240898 314.640869 
L 477.216823 314.643646 
L 477.192748 314.646424 
L 477.168673 314.649205 
L 477.144598 314.651988 
L 477.120524 314.654773 
L 477.09645 314.65756 
L 477.072376 314.66035 
L 477.048302 314.663141 
L 477.024229 314.665934 
L 477.000156 314.66873 
L 476.976083 314.671527 
z
" clip-path="url(#p3b25916c6e)" style="fill: #195f90; fill-opacity: 0.08"/>
   </g>
   <g id="patch_107">
    <path d="M 474.116324 315.018862 
C 495.245662 315.018862 495.245662 547.036273 516.375 547.036273 
L 516.375 547.039748 
C 495.245662 547.039748 495.245662 315.015171 474.145478 315.015171 
L 474.143395 315.015434 
L 474.141313 315.015698 
L 474.13923 315.015961 
L 474.137148 315.016225 
L 474.135066 315.016489 
L 474.132983 315.016752 
L 474.130901 315.017016 
L 474.128818 315.01728 
L 474.126736 315.017543 
L 474.124653 315.017807 
L 474.122571 315.018071 
L 474.120489 315.018334 
L 474.118406 315.018598 
z
" clip-path="url(#p3b25916c6e)" style="fill: #195f90; fill-opacity: 0.35"/>
   </g>
   <g id="patch_108">
    <path d="M 473.990657 315.034808 
C 495.182828 315.034808 495.182828 633.164556 516.375 633.164556 
L 516.375 633.179532 
C 495.182828 633.179532 495.182828 315.018862 474.116324 315.018862 
L 474.107347 315.019999 
L 474.098371 315.021137 
L 474.089395 315.022274 
L 474.080418 315.023412 
L 474.071442 315.024551 
L 474.062466 315.025689 
L 474.053489 315.026828 
L 474.044513 315.027967 
L 474.035537 315.029107 
L 474.026561 315.030247 
L 474.017585 315.031387 
L 474.008609 315.032527 
L 473.999633 315.033668 
z
" clip-path="url(#p3b25916c6e)" style="fill: #195f90; fill-opacity: 0.08"/>
   </g>
   <g id="patch_109">
    <path d="M 470.929925 315.441019 
C 493.652462 315.441019 493.652462 547.005478 516.375 547.005478 
L 516.375 547.036273 
C 493.652462 547.036273 493.652462 315.405451 471.187954 315.405451 
L 471.169522 315.407983 
L 471.15109 315.410517 
L 471.132659 315.413052 
L 471.114228 315.415589 
L 471.095797 315.418126 
L 471.077366 315.420665 
L 471.058935 315.423205 
L 471.040505 315.425746 
L 471.022074 315.428288 
L 471.003644 315.430832 
L 470.985214 315.433377 
L 470.966784 315.435923 
L 470.948354 315.43847 
z
" clip-path="url(#p3b25916c6e)" style="fill: #765297; fill-opacity: 0.35"/>
   </g>
   <g id="patch_110">
    <path d="M 469.804698 315.598978 
C 493.089849 315.598978 493.089849 633.030215 516.375 633.030215 
L 516.375 633.164556 
C 493.089849 633.164556 493.089849 315.441019 470.929925 315.441019 
L 470.84953 315.45215 
L 470.769139 315.463305 
L 470.68875 315.474484 
L 470.608365 315.485685 
L 470.527984 315.49691 
L 470.447605 315.508158 
L 470.36723 315.519429 
L 470.286859 315.530724 
L 470.20649 315.542041 
L 470.126125 315.553382 
L 470.045763 315.564747 
L 469.965405 315.576134 
L 469.885049 315.587545 
z
" clip-path="url(#p3b25916c6e)" style="fill: #765297; fill-opacity: 0.08"/>
   </g>
   <g id="patch_111">
    <path d="M 466.969893 316.017556 
C 491.672446 316.017556 491.672446 547.000925 516.375 547.000925 
L 516.375 547.005478 
C 491.672446 547.005478 491.672446 316.011738 467.007964 316.011738 
L 467.005244 316.012154 
L 467.002525 316.012569 
L 466.999806 316.012985 
L 466.997086 316.0134 
L 466.994367 316.013816 
L 466.991648 316.014231 
L 466.988928 316.014647 
L 466.986209 316.015062 
L 466.98349 316.015478 
L 466.98077 316.015893 
L 466.978051 316.016309 
L 466.975332 316.016725 
L 466.972612 316.01714 
z
" clip-path="url(#p3b25916c6e)" style="fill: #238023; fill-opacity: 0.35"/>
   </g>
   <g id="patch_112">
    <path d="M 466.59671 316.074864 
C 491.485855 316.074864 491.485855 632.985575 516.375 632.985575 
L 516.375 633.030215 
C 491.485855 633.030215 491.485855 316.017556 466.969893 316.017556 
L 466.943234 316.021633 
L 466.916576 316.025712 
L 466.889919 316.029794 
L 466.863261 316.033878 
L 466.836604 316.037965 
L 466.809948 316.042055 
L 466.783292 316.046147 
L 466.756636 316.050242 
L 466.729981 316.054339 
L 466.703326 316.058439 
L 466.676671 316.062541 
L 466.650017 316.066646 
L 466.623364 316.070754 
z
" clip-path="url(#p3b25916c6e)" style="fill: #238023; fill-opacity: 0.08"/>
   </g>
   <g id="text_1">
    <text style="font: 700 11px 'DejaVu Sans', 'Bitstream Vera Sans', 'Computer Modern Sans Serif', 'Lucida Grande', 'Verdana', 'Geneva', 'Lucid', 'Arial', 'Helvetica', 'Avant Garde', sans-serif" transform="translate(345.804418 266.258425) rotate(-294.667797)">LINE</text>
   </g>
   <g id="text_2">
    <text style="font: 700 11px 'DejaVu Sans', 'Bitstream Vera Sans', 'Computer Modern Sans Serif', 'Lucida Grande', 'Verdana', 'Geneva', 'Lucid', 'Arial', 'Helvetica', 'Avant Garde', sans-serif" transform="translate(185.464086 418.678906) rotate(-330.595266)">LTR</text>
   </g>
   <g id="text_3">
    <text style="font: 700 11px 'DejaVu Sans', 'Bitstream Vera Sans', 'Computer Modern Sans Serif', 'Lucida Grande', 'Verdana', 'Geneva', 'Lucid', 'Arial', 'Helvetica', 'Avant Garde', sans-serif" transform="translate(160.494215 725.413503) rotate(-21.733796)">SINE</text>
   </g>
   <g id="text_4">
    <text style="font: 700 11px 'DejaVu Sans', 'Bitstream Vera Sans', 'Computer Modern Sans Serif', 'Lucida Grande', 'Verdana', 'Geneva', 'Lucid', 'Arial', 'Helvetica', 'Avant Garde', sans-serif" transform="translate(387.905021 929.328765) rotate(-71.332473)">DNA</text>
   </g>
   <g id="text_5">
    <text style="font: 700 11px 'DejaVu Sans', 'Bitstream Vera Sans', 'Computer Modern Sans Serif', 'Lucida Grande', 'Verdana', 'Geneva', 'Lucid', 'Arial', 'Helvetica', 'Avant Garde', sans-serif" transform="translate(443.820528 965.559787) rotate(-81.276748)">Retroposon</text>
   </g>
   <g id="text_6">
    <text style="font: 700 11px 'DejaVu Sans', 'Bitstream Vera Sans', 'Computer Modern Sans Serif', 'Lucida Grande', 'Verdana', 'Geneva', 'Lucid', 'Arial', 'Helvetica', 'Avant Garde', sans-serif" transform="translate(506.29691 941.998672) rotate(-89.871115)">RC</text>
   </g>
   <g id="text_7">
    <text style="font: 700 10px 'DejaVu Sans', 'Bitstream Vera Sans', 'Computer Modern Sans Serif', 'Lucida Grande', 'Verdana', 'Geneva', 'Lucid', 'Arial', 'Helvetica', 'Avant Garde', sans-serif; text-anchor: start" x="526.14" y="516.522625" transform="rotate(-0 526.14 516.522625)">Near TSS</text>
   </g>
   <g id="text_8">
    <text style="font: 700 10px 'DejaVu Sans', 'Bitstream Vera Sans', 'Computer Modern Sans Serif', 'Lucida Grande', 'Verdana', 'Geneva', 'Lucid', 'Arial', 'Helvetica', 'Avant Garde', sans-serif; text-anchor: start" x="526.14" y="668.982625" transform="rotate(-0 526.14 668.982625)">Distal</text>
   </g>
   <g id="text_9">
    <text style="fill: #333333; font: 7px 'DejaVu Sans', 'Bitstream Vera Sans', 'Computer Modern Sans Serif', 'Lucida Grande', 'Verdana', 'Geneva', 'Lucid', 'Arial', 'Helvetica', 'Avant Garde', sans-serif" transform="translate(607.990812 927.923032) rotate(-285.792206)">L1</text>
   </g>
   <g id="text_10">
    <text style="fill: #333333; font: 7px 'DejaVu Sans', 'Bitstream Vera Sans', 'Computer Modern Sans Serif', 'Lucida Grande', 'Verdana', 'Geneva', 'Lucid', 'Arial', 'Helvetica', 'Avant Garde', sans-serif" transform="translate(729.587491 868.117976) rotate(-307.831748)">L2</text>
   </g>
   <g id="text_11">
    <text style="fill: #333333; font: 7px 'DejaVu Sans', 'Bitstream Vera Sans', 'Computer Modern Sans Serif', 'Lucida Grande', 'Verdana', 'Geneva', 'Lucid', 'Arial', 'Helvetica', 'Avant Garde', sans-serif" transform="translate(749.19058 849.906432) rotate(-311.945592)">CR1</text>
   </g>
   <g id="text_12">
    <text style="fill: #333333; font: 7px 'DejaVu Sans', 'Bitstream Vera Sans', 'Computer Modern Sans Serif', 'Lucida Grande', 'Verdana', 'Geneva', 'Lucid', 'Arial', 'Helvetica', 'Avant Garde', sans-serif" transform="translate(767.1134 831.09127) rotate(-315.956297)">RTE-X</text>
   </g>
   <g id="text_13">
    <text style="fill: #333333; font: 7px 'DejaVu Sans', 'Bitstream Vera Sans', 'Computer Modern Sans Serif', 'Lucida Grande', 'Verdana', 'Geneva', 'Lucid', 'Arial', 'Helvetica', 'Avant Garde', sans-serif" transform="translate(783.773939 808.971528) rotate(-319.967001)">RTE-BovB</text>
   </g>
   <g id="text_14">
    <text style="fill: #333333; font: 7px 'DejaVu Sans', 'Bitstream Vera Sans', 'Computer Modern Sans Serif', 'Lucida Grande', 'Verdana', 'Geneva', 'Lucid', 'Arial', 'Helvetica', 'Avant Garde', sans-serif" transform="translate(799.090595 790.814176) rotate(-323.977706)">Penelope</text>
   </g>
   <g id="text_15">
    <text style="fill: #333333; font: 7px 'DejaVu Sans', 'Bitstream Vera Sans', 'Computer Modern Sans Serif', 'Lucida Grande', 'Verdana', 'Geneva', 'Lucid', 'Arial', 'Helvetica', 'Avant Garde', sans-serif" transform="translate(812.988346 771.659368) rotate(-327.98841)">Dong-R4</text>
   </g>
   <g id="text_16">
    <text style="fill: #333333; font: 7px 'DejaVu Sans', 'Bitstream Vera Sans', 'Computer Modern Sans Serif', 'Lucida Grande', 'Verdana', 'Geneva', 'Lucid', 'Arial', 'Helvetica', 'Avant Garde', sans-serif" transform="translate(825.399122 749.104101) rotate(-331.999115)">ERVL-MaLR</text>
   </g>
   <g id="text_17">
    <text style="fill: #333333; font: 7px 'DejaVu Sans', 'Bitstream Vera Sans', 'Computer Modern Sans Serif', 'Lucida Grande', 'Verdana', 'Geneva', 'Lucid', 'Arial', 'Helvetica', 'Avant Garde', sans-serif" transform="translate(841.079038 721.259119) rotate(-338.0077)">ERV1</text>
   </g>
   <g id="text_18">
    <text style="fill: #333333; font: 7px 'DejaVu Sans', 'Bitstream Vera Sans', 'Computer Modern Sans Serif', 'Lucida Grande', 'Verdana', 'Geneva', 'Lucid', 'Arial', 'Helvetica', 'Avant Garde', sans-serif" transform="translate(850.856783 694.54724) rotate(-342.732663)">ERVL</text>
   </g>
   <g id="text_19">
    <text style="fill: #333333; font: 7px 'DejaVu Sans', 'Bitstream Vera Sans', 'Computer Modern Sans Serif', 'Lucida Grande', 'Verdana', 'Geneva', 'Lucid', 'Arial', 'Helvetica', 'Avant Garde', sans-serif" transform="translate(857.337553 670.737701) rotate(-346.743368)">Gypsy</text>
   </g>
   <g id="text_20">
    <text style="fill: #333333; font: 7px 'DejaVu Sans', 'Bitstream Vera Sans', 'Computer Modern Sans Serif', 'Lucida Grande', 'Verdana', 'Geneva', 'Lucid', 'Arial', 'Helvetica', 'Avant Garde', sans-serif" transform="translate(862.114125 647.440239) rotate(-350.754072)">ERVK</text>
   </g>
   <g id="text_21">
    <text style="fill: #333333; font: 7px 'DejaVu Sans', 'Bitstream Vera Sans', 'Computer Modern Sans Serif', 'Lucida Grande', 'Verdana', 'Geneva', 'Lucid', 'Arial', 'Helvetica', 'Avant Garde', sans-serif" transform="translate(853.948541 494.859373) rotate(-16.124334)">Alu</text>
   </g>
   <g id="text_22">
    <text style="fill: #333333; font: 7px 'DejaVu Sans', 'Bitstream Vera Sans', 'Computer Modern Sans Serif', 'Lucida Grande', 'Verdana', 'Geneva', 'Lucid', 'Arial', 'Helvetica', 'Avant Garde', sans-serif" transform="translate(731.48977 315.177348) rotate(-52.403971)">MIR</text>
   </g>
   <g id="text_23">
    <text style="fill: #333333; font: 7px 'DejaVu Sans', 'Bitstream Vera Sans', 'Computer Modern Sans Serif', 'Lucida Grande', 'Verdana', 'Geneva', 'Lucid', 'Arial', 'Helvetica', 'Avant Garde', sans-serif" transform="translate(711.38198 309.246717) rotate(-56.414675)">tRNA-RTE</text>
   </g>
   <g id="text_24">
    <text style="fill: #333333; font: 7px 'DejaVu Sans', 'Bitstream Vera Sans', 'Computer Modern Sans Serif', 'Lucida Grande', 'Verdana', 'Geneva', 'Lucid', 'Arial', 'Helvetica', 'Avant Garde', sans-serif" transform="translate(690.284883 298.202755) rotate(-60.42538)">5S-Deu-L2</text>
   </g>
   <g id="text_25">
    <text style="fill: #333333; font: 7px 'DejaVu Sans', 'Bitstream Vera Sans', 'Computer Modern Sans Serif', 'Lucida Grande', 'Verdana', 'Geneva', 'Lucid', 'Arial', 'Helvetica', 'Avant Garde', sans-serif" transform="translate(668.301813 278.699256) rotate(-64.436084)">tRNA</text>
   </g>
   <g id="text_26">
    <text style="fill: #333333; font: 7px 'DejaVu Sans', 'Bitstream Vera Sans', 'Computer Modern Sans Serif', 'Lucida Grande', 'Verdana', 'Geneva', 'Lucid', 'Arial', 'Helvetica', 'Avant Garde', sans-serif" transform="translate(645.540442 279.080844) rotate(-68.446788)">hAT-Charlie</text>
   </g>
   <g id="text_27">
    <text style="fill: #333333; font: 7px 'DejaVu Sans', 'Bitstream Vera Sans', 'Computer Modern Sans Serif', 'Lucida Grande', 'Verdana', 'Geneva', 'Lucid', 'Arial', 'Helvetica', 'Avant Garde', sans-serif" transform="translate(622.112255 273.073494) rotate(-72.457492)">TcMar-Tigger</text>
   </g>
   <g id="text_28">
    <text style="fill: #333333; font: 7px 'DejaVu Sans', 'Bitstream Vera Sans', 'Computer Modern Sans Serif', 'Lucida Grande', 'Verdana', 'Geneva', 'Lucid', 'Arial', 'Helvetica', 'Avant Garde', sans-serif" transform="translate(598.132004 263.95732) rotate(-76.468196)">hAT-Tip100</text>
   </g>
   <g id="text_29">
    <text style="fill: #333333; font: 7px 'DejaVu Sans', 'Bitstream Vera Sans', 'Computer Modern Sans Serif', 'Lucida Grande', 'Verdana', 'Geneva', 'Lucid', 'Arial', 'Helvetica', 'Avant Garde', sans-serif" transform="translate(573.717145 263.889478) rotate(-80.4789)">hAT-Blackjack</text>
   </g>
   <g id="text_30">
    <text style="fill: #333333; font: 7px 'DejaVu Sans', 'Bitstream Vera Sans', 'Computer Modern Sans Serif', 'Lucida Grande', 'Verdana', 'Geneva', 'Lucid', 'Arial', 'Helvetica', 'Avant Garde', sans-serif" transform="translate(548.98726 261.385924) rotate(-84.489604)">TcMar-Mariner</text>
   </g>
   <g id="text_31">
    <text style="fill: #333333; font: 7px 'DejaVu Sans', 'Bitstream Vera Sans', 'Computer Modern Sans Serif', 'Lucida Grande', 'Verdana', 'Geneva', 'Lucid', 'Arial', 'Helvetica', 'Avant Garde', sans-serif" transform="translate(524.063476 251.828692) rotate(-88.500308)">TcMar-Tc2</text>
   </g>
   <g id="text_32">
    <text style="fill: #333333; font: 7px 'DejaVu Sans', 'Bitstream Vera Sans', 'Computer Modern Sans Serif', 'Lucida Grande', 'Verdana', 'Geneva', 'Lucid', 'Arial', 'Helvetica', 'Avant Garde', sans-serif" transform="translate(500.08437 247.023033) rotate(-92.511012)">hAT-Ac</text>
   </g>
   <g id="text_33">
    <text style="fill: #333333; font: 7px 'DejaVu Sans', 'Bitstream Vera Sans', 'Computer Modern Sans Serif', 'Lucida Grande', 'Verdana', 'Geneva', 'Lucid', 'Arial', 'Helvetica', 'Avant Garde', sans-serif" transform="translate(475.5946 243.690824) rotate(-96.521716)">hAT</text>
   </g>
   <g id="text_34">
    <text style="fill: #333333; font: 7px 'DejaVu Sans', 'Bitstream Vera Sans', 'Computer Modern Sans Serif', 'Lucida Grande', 'Verdana', 'Geneva', 'Lucid', 'Arial', 'Helvetica', 'Avant Garde', sans-serif" transform="translate(457.16347 261.812965) rotate(-100.532421)">MULE-MuDR</text>
   </g>
   <g id="text_35">
    <text style="fill: #333333; font: 7px 'DejaVu Sans', 'Bitstream Vera Sans', 'Computer Modern Sans Serif', 'Lucida Grande', 'Verdana', 'Geneva', 'Lucid', 'Arial', 'Helvetica', 'Avant Garde', sans-serif" transform="translate(432.903062 261.538647) rotate(-104.543125)">PiggyBac</text>
   </g>
   <g id="text_36">
    <text style="fill: #333333; font: 7px 'DejaVu Sans', 'Bitstream Vera Sans', 'Computer Modern Sans Serif', 'Lucida Grande', 'Verdana', 'Geneva', 'Lucid', 'Arial', 'Helvetica', 'Avant Garde', sans-serif" transform="translate(410.51773 267.467904) rotate(-108.553829)">hAT-Tag1</text>
   </g>
   <g id="text_37">
    <text style="fill: #333333; font: 7px 'DejaVu Sans', 'Bitstream Vera Sans', 'Computer Modern Sans Serif', 'Lucida Grande', 'Verdana', 'Geneva', 'Lucid', 'Arial', 'Helvetica', 'Avant Garde', sans-serif" transform="translate(389.927671 276.821005) rotate(-112.564534)">TcMar-Tc1</text>
   </g>
   <g id="text_38">
    <text style="fill: #333333; font: 7px 'DejaVu Sans', 'Bitstream Vera Sans', 'Computer Modern Sans Serif', 'Lucida Grande', 'Verdana', 'Geneva', 'Lucid', 'Arial', 'Helvetica', 'Avant Garde', sans-serif" transform="translate(360.464117 277.870436) rotate(-116.575238)">SVA</text>
   </g>
   <g id="text_39">
    <text style="fill: #333333; font: 7px 'DejaVu Sans', 'Bitstream Vera Sans', 'Computer Modern Sans Serif', 'Lucida Grande', 'Verdana', 'Geneva', 'Lucid', 'Arial', 'Helvetica', 'Avant Garde', sans-serif" transform="translate(346.331795 295.460196) rotate(-120.585943)">Helitron</text>
   </g>
   <g id="text_40">
    <text style="font: 18px 'DejaVu Sans', 'Bitstream Vera Sans', 'Computer Modern Sans Serif', 'Lucida Grande', 'Verdana', 'Geneva', 'Lucid', 'Arial', 'Helvetica', 'Avant Garde', sans-serif" transform="translate(349.410938 20.877187)">Circular Transposable Element Flow</text>
    <text style="font: 18px 'DejaVu Sans', 'Bitstream Vera Sans', 'Computer Modern Sans Serif', 'Lucida Grande', 'Verdana', 'Geneva', 'Lucid', 'Arial', 'Helvetica', 'Avant Garde', sans-serif" transform="translate(272.71125 41.03325)">(Balanced Label Distribution with Elbow Connectors)</text>
   </g>
   <g id="patch_113">
    <path d="M 502.425 562.27325 
L 516.375 562.27325 
L 516.375 465.25325 
L 502.425 465.25325 
z
" clip-path="url(#p3b25916c6e)" style="fill: #e64b35; stroke: #000000; stroke-width: 0.5; stroke-linejoin: miter"/>
   </g>
   <g id="patch_114">
    <path d="M 502.425 714.73325 
L 516.375 714.73325 
L 516.375 617.71325 
L 502.425 617.71325 
z
" clip-path="url(#p3b25916c6e)" style="fill: #808080; stroke: #000000; stroke-width: 0.5; stroke-linejoin: miter"/>
   </g>
  </g>
 </g>
 <defs>
  <clipPath id="p3b25916c6e">
   <rect x="7.2" y="91.03325" width="1004.4" height="997.92"/>
  </clipPath>
 </defs>
</svg>
